<?xml version="1.0" encoding="UTF-8"?>
<svg id="uuid-e0956190-33c8-486f-9b74-bfa702383695" data-name="Ebene 1" xmlns="http://www.w3.org/2000/svg" viewBox="0 0 1337.83 600.65">
  <defs>
    <style>
      .uuid-f69c5948-92a1-408e-a22b-d36f91132724 {
        fill: #40ffff;
      }

      .uuid-f69c5948-92a1-408e-a22b-d36f91132724, .uuid-899ea9ec-85f0-4914-8b78-6f57545e3e17 {
        stroke-width: 0px;
      }

      .uuid-899ea9ec-85f0-4914-8b78-6f57545e3e17 {
        fill: #fff;
      }
    </style>
  </defs>
  <path class="uuid-f69c5948-92a1-408e-a22b-d36f91132724" d="M109.84,437.03l-.02,38.2-62.37.02v27.76s52.67.03,52.67.03l-.02,36.43-52.68-.03-.03,58.41-47.4-.02.07-160.8h109.77ZM318.91,478.93c0-7.77,6.12-10.88,15.07-10.88,12.89,0,19,4.01,18.99,18.89l42.8-4.86c-1.28-41.31-31.64-47.77-60.25-47.78-33.64-.02-62.04,17.52-62.05,51.94-.03,60.85,79.49,40.68,79.47,66.67,0,9.78-7.43,13.54-18.57,13.54-19.22,0-22.49-11.11-24.23-25.11l-41.93,5.76c1.51,49.75,41.26,53.55,64.84,53.56,33.64.02,65.31-15.52,65.33-54.39.03-58.86-79.48-42.02-79.46-67.34M415.02,437.22l-.02,38.2,45.43.02-.06,122.6,47.39.02.06-122.6,44.77.02.02-38.2-137.59-.06ZM577.42,598.1l47.4.02.07-160.8-47.4-.02-.07,160.8ZM757.89,437.37l-28.88,114.37h-1.97s-27.46-114.39-27.46-114.39l-53.73-.02,48.85,160.82,63.55.03,47.9-160.78-48.26-.02ZM851.58,437.42l-50.74,160.78,49.36.02,29.1-116.37h1.31s33.58,116.4,33.58,116.4l51.55.02-56.72-160.83-57.44-.03ZM1076.51,598.17l.46-38.94-40.86-.02.06-121.71-47.39-.02-.07,160.8M250.73,558.76v39.01h-115.26v-160.48h109.72v38.12h-61.63v25.05h51.87v36.57h-51.87v21.72h67.16Z"/>
  <g>
    <path class="uuid-899ea9ec-85f0-4914-8b78-6f57545e3e17" d="M557.43,346.74c-20.63,0-20.84-13.03-20.84-34.01v-91.44h-47.12v97.4c0,45.72,20.19,65.15,66.66,65.15,39.3,0,67.96-17.89,67.96-63.83v-98.72h-46.68v92.32c0,22.53-.87,33.13-19.98,33.13ZM793.06,381.2v-159.9h-42.12v95.41l-43.65-95.41h-53.85v159.9h42.56v-93.64l44.3,93.64h52.76ZM901.41,381.2v-121.91h44.51v-37.99h-136.8v37.99h45.17v121.91h47.12ZM1009.08,265.47h1.3l33.44,115.73h51.24l-56.46-159.9h-57.11l-50.38,159.9h49.07l28.88-115.73ZM1163.03,221.29h-47.12v159.9h47.12v-159.9ZM1337.83,381.2v-159.9h-42.12v95.41l-43.65-95.41h-53.85v159.9h42.56v-93.64l44.3,93.64h52.76Z"/>
    <polygon class="uuid-899ea9ec-85f0-4914-8b78-6f57545e3e17" points="174.54 221.37 174.47 381.22 129.56 381.2 129.62 289.05 86.8 353.44 44.55 288.56 44.5 381.16 .73 381.14 .8 221.29 46.56 221.33 87.45 285.97 128.99 221.34 174.54 221.37"/>
    <path class="uuid-899ea9ec-85f0-4914-8b78-6f57545e3e17" d="M330.64,388.79c-24.5,0-45.08-1.22-61.76-3.65-16.68-2.44-30.18-6.01-40.51-10.74-10.33-4.72-18.19-10.51-23.57-17.38-5.39-6.86-9.04-14.68-10.96-23.47-1.92-8.78-2.88-18.48-2.88-29.11s1.11-20,3.32-29c2.22-9,6.27-17.16,12.18-24.46,5.9-7.31,14.24-13.54,25.01-18.71,10.77-5.16,24.57-9.11,41.39-11.84,16.82-2.73,37.41-4.1,61.76-4.1s45.78,1.29,62.53,3.87c16.74,2.58,30.32,6.27,40.73,11.07,10.41,4.8,18.3,10.59,23.69,17.38,5.39,6.79,9,14.47,10.84,23.02,1.84,8.56,2.77,17.86,2.77,27.89,0,11.51-1.07,21.95-3.21,31.32-2.14,9.37-6.09,17.67-11.84,24.9-5.76,7.23-14.02,13.28-24.79,18.15-10.77,4.87-24.68,8.56-41.73,11.07-17.04,2.51-38.04,3.76-62.98,3.76ZM332.41,351.6c18.89,0,34.38-.63,46.48-1.88,12.1-1.25,21.51-3.61,28.23-7.08,6.71-3.47,11.43-8.41,14.16-14.83,2.73-6.42,4.1-14.72,4.1-24.9s-1.22-17.78-3.66-24.13c-2.43-6.34-6.94-11.32-13.5-14.94-6.57-3.61-15.87-6.12-27.89-7.53-12.03-1.4-27.63-2.1-46.82-2.1s-34.61.74-46.71,2.21c-12.1,1.48-21.51,4.02-28.23,7.64-6.71,3.62-11.36,8.6-13.94,14.94-2.58,6.35-3.87,14.32-3.87,23.91,0,10.18,1.29,18.45,3.87,24.79,2.58,6.35,7.16,11.26,13.72,14.72,6.57,3.47,15.86,5.87,27.89,7.19,12.03,1.33,27.41,1.99,46.15,1.99Z"/>
  </g>
  <g>
    <polygon class="uuid-899ea9ec-85f0-4914-8b78-6f57545e3e17" points="185.32 126.58 185.37 5.53 138.24 5.51 138.17 165.43 249.37 165.48 249.39 126.61 185.32 126.58"/>
    <path class="uuid-899ea9ec-85f0-4914-8b78-6f57545e3e17" d="M115.94,126.71v39H.73V5.29h109.68v38.11h-61.6v25.04h51.85v36.56h-51.85v21.71h67.13Z"/>
    <path class="uuid-899ea9ec-85f0-4914-8b78-6f57545e3e17" d="M515.45,126.71v39h-242.39V5.29h236.85v38.11h-186.56v25.04h161.31v36.56h-161.31v21.71h192.1Z"/>
    <polygon class="uuid-899ea9ec-85f0-4914-8b78-6f57545e3e17" points="823.3 6.82 686.48 6.75 686.46 44.75 731.64 44.77 731.58 166.69 778.71 166.72 778.77 44.79 823.29 44.81 823.3 6.82"/>
    <rect class="uuid-899ea9ec-85f0-4914-8b78-6f57545e3e17" x="997.21" y="6.91" width="47.13" height="159.92"/>
    <path class="uuid-899ea9ec-85f0-4914-8b78-6f57545e3e17" d="M976.51,166.84h-51.71l-26.52-56.57h-7.51v56.57h-47.73V6.84h70.05c39.78,0,54.37,21.44,54.37,46.41,0,23.43-10.17,37.13-24.53,45.52l33.59,68.07ZM896.07,75.79c10.39,0,22.1-2.87,22.1-17.9,0-8.84-4.42-15.47-17.46-15.47h-9.95v33.37h5.3Z"/>
    <path class="uuid-899ea9ec-85f0-4914-8b78-6f57545e3e17" d="M602.38,170.09c-57,0-79.48-31.34-79.48-83.8,0-49.28,25.89-86.29,82.21-86.29,39.06,0,67.22,18.62,68.35,62.9l-44.51,4.32c-.45-22.03-9.31-29.07-24.75-29.07-19.3,0-30.2,13.4-30.2,46.33s9.54,47.46,30.43,47.46c18.85,0,22.94-12.26,25.43-24.52l43.6,6.81c-4.31,41.78-40.65,55.86-71.08,55.86Z"/>
    <path class="uuid-899ea9ec-85f0-4914-8b78-6f57545e3e17" d="M1147.9,170.09c-57,0-79.48-31.34-79.48-83.8,0-49.28,25.89-86.29,82.21-86.29,39.06,0,67.22,18.62,68.35,62.9l-44.51,4.32c-.45-22.03-9.31-29.07-24.75-29.07-19.3,0-30.2,13.4-30.2,46.33s9.54,47.46,30.43,47.46c18.85,0,22.94-12.26,25.43-24.52l43.6,6.81c-4.31,41.78-40.65,55.86-71.08,55.86Z"/>
  </g>
</svg>