<?xml version="1.0" encoding="UTF-8"?>
<svg id="uuid-ff97c267-24de-435e-b2d3-a03d6acd7513" data-name="Ebene 1" xmlns="http://www.w3.org/2000/svg" viewBox="0 0 600 41">
  <defs>
    <style>
      .uuid-54f33081-2cbd-4bf9-a250-251143aefa89 {
        fill: #006d93;
        stroke-width: 0px;
      }
    </style>
  </defs>
  <path class="uuid-54f33081-2cbd-4bf9-a250-251143aefa89" d="M25.84,19.95h-.29l-3.73,20.19H7.47L0,4.58h11.05l3.98,24.8h.29l4.86-24.8h11.15l5.21,24.71h.39l3.39-24.71h10.76l-7.71,35.56h-13.61l-3.93-20.19Z"/>
  <path class="uuid-54f33081-2cbd-4bf9-a250-251143aefa89" d="M79.62,31.49v8.64h-25.54V4.58h24.31v8.45h-13.65v5.55h11.49v8.1h-11.49v4.81h14.88Z"/>
  <path class="uuid-54f33081-2cbd-4bf9-a250-251143aefa89" d="M95.39,4.58h36.44c12.33,0,18.22,6.48,18.22,17.09s-6.53,18.47-19.25,18.47h-35.41V4.58ZM139.25,21.77c0-6.83-3-9.14-8.69-9.14h-24.51v19.35h23.77c7.12,0,9.43-3.83,9.43-10.22Z"/>
  <path class="uuid-54f33081-2cbd-4bf9-a250-251143aefa89" d="M189.15,40.14h-11.59l-2.36-6.93h-10.07l-1.96,6.93h-11.1l11.4-35.56h12.92l12.77,35.56ZM169.7,14.4l-3.09,10.81h6.53l-3.14-10.81h-.29Z"/>
  <path class="uuid-54f33081-2cbd-4bf9-a250-251143aefa89" d="M201.04,19.31v20.83h-9.63V4.58h12.18l9.87,21.22V4.58h9.53v35.56h-11.94l-10.02-20.83Z"/>
  <path class="uuid-54f33081-2cbd-4bf9-a250-251143aefa89" d="M227.22,22.63c0-10.66,5.6-18.66,17.78-18.66,8.45,0,14.54,4.03,14.78,13.61l-9.63.93c-.1-4.76-2.01-6.29-5.35-6.29-4.17,0-6.53,2.9-6.53,10.02s2.06,10.27,6.58,10.27c4.08,0,4.96-2.65,5.5-5.3l9.43,1.47c-.93,9.04-8.79,12.08-15.37,12.08-12.33,0-17.19-6.78-17.19-18.12Z"/>
  <path class="uuid-54f33081-2cbd-4bf9-a250-251143aefa89" d="M288.82,31.49v8.64h-25.54V4.58h24.31v8.45h-13.65v5.55h11.49v8.1h-11.49v4.81h14.88Z"/>
  <path class="uuid-54f33081-2cbd-4bf9-a250-251143aefa89" d="M342.67,40.14h-11.59l-2.36-6.93h-10.07l-1.96,6.93h-11.1l11.4-35.56h12.92l12.77,35.56ZM323.22,14.4l-3.09,10.81h6.53l-3.14-10.81h-.29Z"/>
  <path class="uuid-54f33081-2cbd-4bf9-a250-251143aefa89" d="M348.52,13.03h-10.22V4.58h30.94v8.45h-10.07v27.11h-10.66V13.03Z"/>
  <path class="uuid-54f33081-2cbd-4bf9-a250-251143aefa89" d="M406.97,13.74c0,4.76-2.16,7.66-7.81,13.36l-4.37,4.42v.29h12.72v8.64h-24.75v-8.55l6.93-7.86c3.93-4.47,6.68-7.17,6.68-9.87,0-1.13-.39-2.16-2.16-2.16s-2.85,1.23-3.19,4.37l-9.38-1.47c.69-7.51,6.29-10.66,13.36-10.66,8.55,0,11.98,3.83,11.98,9.48Z"/>
  <path class="uuid-54f33081-2cbd-4bf9-a250-251143aefa89" d="M416.59,39.42c-4.03,0-5.84-1.77-5.84-5.26s1.82-5.35,5.84-5.35,5.75,1.87,5.75,5.35-1.82,5.26-5.75,5.26Z"/>
  <path class="uuid-54f33081-2cbd-4bf9-a250-251143aefa89" d="M450.09,13.74c0,4.76-2.16,7.66-7.81,13.36l-4.37,4.42v.29h12.72v8.64h-24.75v-8.55l6.93-7.86c3.93-4.47,6.68-7.17,6.68-9.87,0-1.13-.39-2.16-2.16-2.16s-2.85,1.23-3.19,4.37l-9.38-1.47c.69-7.51,6.29-10.66,13.36-10.66,8.55,0,11.98,3.83,11.98,9.48Z"/>
  <path class="uuid-54f33081-2cbd-4bf9-a250-251143aefa89" d="M507.81,28.97c0,6.88-5.5,11.79-27.9,11.79s-27.06-4.17-27.06-10.66c0-4.03,2.5-6.58,7.37-8.3-4.22-1.38-5.89-3.88-5.89-7.27,0-6.09,5.11-10.56,27.06-10.56s25.25,3.78,25.25,9.43c0,3.83-1.87,5.8-5.01,7.56,3.68,1.03,6.19,3.83,6.19,8.01ZM463.45,29.41c0,2.01,1.13,3.93,16.9,3.93,14.44,0,15.96-1.52,15.96-3.93s-1.77-2.95-13.9-3.59l-13.8-.74c-3.19,1.33-5.16,2.36-5.16,4.32ZM496.31,14.52c0-1.92-1.57-3.44-15.57-3.44s-15.18,1.08-15.18,2.85,1.33,2.9,15.18,3.78l12.48.79c2.21-1.28,3.09-2.31,3.09-3.98Z"/>
  <path class="uuid-54f33081-2cbd-4bf9-a250-251143aefa89" d="M524.02,33.09c1.96,0,3.29-1.13,3.29-3.68s-1.03-3.68-4.03-3.68h-3.83v-7.22h2.31c3.44,0,5.06-1.33,5.06-4.08,0-1.77-.69-2.8-2.51-2.8-1.96,0-2.8,1.28-3.24,3.83l-9.18-1.62c1.38-7.37,6.29-9.87,13.31-9.87,7.37,0,11.74,3.05,11.74,8.89,0,3.98-3.05,6.88-6.39,8.2v.25c4.76,1.28,7.27,3.88,7.27,8.69,0,6.83-5.6,10.76-13.75,10.76-6.24,0-11.79-2.11-12.72-9.73l9.23-1.82c.29,2.9,1.38,3.88,3.44,3.88Z"/>
  <path class="uuid-54f33081-2cbd-4bf9-a250-251143aefa89" d="M558.45,40.72v-5.06l3.09-.39c.69-.1.79-.25.79-.98V11.59c0-.83-.39-1.08-1.28-.79l-5.11,1.57-2.01-4.13,12.52-8.25h2.31l12.28,8.2-1.77,3.78-5.35-1.13c-.88-.2-1.23-.05-1.23.84v8.25c1.52-1.13,3.88-2.46,6.53-2.46,2.85,0,4.86.88,5.99,2.75,1.13-.93,4.22-2.75,7.56-2.75,4.91,0,7.22,2.55,7.22,8.25v14.98h-10.36v-13.06c0-1.67-.15-2.31-1.13-2.31-.74,0-1.47.25-2.01.49,0,1.03-.05,2.11-.05,3.14v11.74h-10.36v-12.97c0-1.67-.3-2.36-1.28-2.36-.49,0-1.18.1-2.11.69v14.64h-14.24Z"/>
</svg>