<?xml version="1.0" encoding="UTF-8"?>
<svg id="uuid-686862cf-fffb-4437-b5c8-698f76b9fe2d" data-name="Icons" xmlns="http://www.w3.org/2000/svg" viewBox="0 0 5393.03 2520">
  <defs>
    <style>
      .uuid-7360caab-c69b-401f-9f22-d483d0045adc {
        fill: #40ffff;
      }

      .uuid-7360caab-c69b-401f-9f22-d483d0045adc, .uuid-34249eb1-9f25-4cbc-969e-231bf5de7663, .uuid-0dc03641-7d00-4351-a6a5-e7ebdd3f6c1e, .uuid-44a8e219-c2c9-4163-b302-5af59527b017 {
        stroke-width: 0px;
      }

      .uuid-34249eb1-9f25-4cbc-969e-231bf5de7663 {
        fill: #40ffff;
      }

      .uuid-0dc03641-7d00-4351-a6a5-e7ebdd3f6c1e {
        fill: #006d93;
      }

      .uuid-44a8e219-c2c9-4163-b302-5af59527b017 {
        fill: #fff;
      }
    </style>
  </defs>
  <path class="uuid-44a8e219-c2c9-4163-b302-5af59527b017" d="M2511.68,6v1068h-1068V6h1068M2517.68,0h-1080v1080h1080V0h0Z"/>
  <path class="uuid-44a8e219-c2c9-4163-b302-5af59527b017" d="M1074,1446v1068H6v-1068h1068M1080,1440H0v1080h1080v-1080h0Z"/>
  <path class="uuid-44a8e219-c2c9-4163-b302-5af59527b017" d="M5387.03,1446v1068h-1068v-1068h1068M5393.03,1440h-1080v1080h1080v-1080h0Z"/>
  <path class="uuid-44a8e219-c2c9-4163-b302-5af59527b017" d="M3949.35,1446v1068h-1068v-1068h1068M3955.35,1440h-1080v1080h1080v-1080h0Z"/>
  <path class="uuid-44a8e219-c2c9-4163-b302-5af59527b017" d="M2511.68,1446v1068h-1068v-1068h1068M2517.68,1440h-1080v1080h1080v-1080h0Z"/>
  <path class="uuid-44a8e219-c2c9-4163-b302-5af59527b017" d="M5387.03,6v1068h-1068V6h1068M5393.03,0h-1080v1080h1080V0h0Z"/>
  <path class="uuid-44a8e219-c2c9-4163-b302-5af59527b017" d="M3949.35,6v1068h-1068V6h1068M3955.35,0h-1080v1080h1080V0h0Z"/>
  <path class="uuid-44a8e219-c2c9-4163-b302-5af59527b017" d="M1074,6v1068H6V6h1068M1080,0H0v1080h1080V0h0Z"/>
  <g>
    <path class="uuid-0dc03641-7d00-4351-a6a5-e7ebdd3f6c1e" d="M227.36,416.31c0,9.35,8.46,12.02,36.73,12.91l84.14,2.45c49.64,1.34,74.35,14.69,74.35,47.41,0,38.96-32.28,58.54-123.54,58.54-83.7,0-124.21-7.12-125.77-55.87l45.63-5.79c1.78,14.02,3.34,26.49,81.47,26.49,66.11,0,73.68-6.46,73.68-16.25,0-8.01-4.01-12.47-25.82-13.13l-95.5-3.34c-51.64-1.78-73.9-16.7-73.9-48.97,0-34.5,28.94-54.32,122.65-54.32,86.15,0,117.09,8.68,118.42,50.09l-46.08,4.9c0-14.91-4.9-20.48-73.9-20.48s-72.57,6.01-72.57,15.36Z"/>
    <path class="uuid-0dc03641-7d00-4351-a6a5-e7ebdd3f6c1e" d="M436.16,532.73v-161.16h48.3v161.16h-48.3Z"/>
    <path class="uuid-0dc03641-7d00-4351-a6a5-e7ebdd3f6c1e" d="M504.94,371.57h63.66c55.87,0,79.91,30.05,79.91,78.13s-26.04,83.03-83.7,83.03h-59.88v-161.16ZM599.54,450.59c0-32.05-8.9-42.52-34.73-42.52h-11.58v87.7h8.24c32.28,0,38.06-17.36,38.06-45.19Z"/>
    <path class="uuid-0dc03641-7d00-4351-a6a5-e7ebdd3f6c1e" d="M906.73,493.55v39.18h-243.53v-161.16h237.96v38.29h-187.43v25.15h162.05v36.73h-162.05v21.81h193Z"/>
    <path class="uuid-34249eb1-9f25-4cbc-969e-231bf5de7663" d="M264.6,682.02v29.52h-87.23v-121.45h83.04v28.85h-46.63v18.96h39.25v27.68h-39.25v16.44h50.83Z"/>
    <path class="uuid-34249eb1-9f25-4cbc-969e-231bf5de7663" d="M265.44,590.09h41.27l21.14,86.39h1.51l22.14-86.39h37.07l-36.74,121.45h-48.82l-37.58-121.45Z"/>
    <path class="uuid-34249eb1-9f25-4cbc-969e-231bf5de7663" d="M576.46,682.02v29.52h-183.52v-121.45h179.33v28.85h-141.25v18.96h122.12v27.68h-122.12v16.44h145.44Z"/>
    <path class="uuid-34249eb1-9f25-4cbc-969e-231bf5de7663" d="M621.25,640.41v71.13h-32.88v-121.45h41.6l33.72,72.47v-72.47h32.54v121.45h-40.76l-34.22-71.13Z"/>
    <path class="uuid-34249eb1-9f25-4cbc-969e-231bf5de7663" d="M738.51,618.94h-34.89v-28.85h105.68v28.85h-34.39v92.6h-36.4v-92.6Z"/>
    <path class="uuid-34249eb1-9f25-4cbc-969e-231bf5de7663" d="M845.54,621.62c0,7.55,9.39,10.23,20.97,13.25l9.39,2.52c15.43,4.19,30.7,12.75,30.7,35.06,0,29.36-24.32,41.1-50.16,41.1-18.12,0-48.65-2.85-49.82-40.43l32.21-4.36c1.34,10.57,3.86,18.96,18.62,18.96,8.56,0,14.26-2.85,14.26-10.23,0-5.54-4.7-8.56-11.74-10.4l-9.06-2.35c-17.61-4.53-40.26-9.56-40.26-37.58,0-26,21.81-39.25,47.64-39.25,21.98,0,45.29,4.86,46.3,36.07l-32.88,3.69c0-11.24-4.7-14.26-14.59-14.26-6.88,0-11.57,2.35-11.57,8.22Z"/>
  </g>
  <g>
    <polygon class="uuid-0dc03641-7d00-4351-a6a5-e7ebdd3f6c1e" points="1911.55 778.99 2056.27 778.99 2022.11 860.64 1957.17 866.03 1911.55 822.51 1911.55 778.99"/>
    <path class="uuid-7360caab-c69b-401f-9f22-d483d0045adc" d="M1977.44,882.1c-22.89,0-41.79-7.47-56.16-22.2-28.68-29.39-28.35-77.35-28.28-81.01v-57.71c-49.37-29.63-79.77-83.01-79.77-140.86,0-90.55,73.66-164.21,164.21-164.21s164.21,73.66,164.21,164.21c0,58.99-31.27,112.88-82.07,142.22l.14,56.32c.08,3.75.59,52.3-27.9,81.61-13.96,14.36-32.26,21.64-54.37,21.64ZM1977.44,438.1c-78.42,0-142.21,63.8-142.21,142.21,0,52.01,28.37,99.85,74.05,124.84l5.72,3.13v70.99c-.01.4-.63,42.13,22.09,65.33,10.21,10.43,23.41,15.5,40.35,15.5s28.8-4.9,38.6-14.98c11.6-11.93,16.89-29.1,19.28-41.4,2.67-13.74,2.41-24.31,2.4-24.41v-.28s-.17-69.62-.17-69.62l5.9-3.1c47-24.68,76.2-72.96,76.2-126,0-78.42-63.79-142.21-142.21-142.21Z"/>
    <g>
      <rect class="uuid-7360caab-c69b-401f-9f22-d483d0045adc" x="1966.44" y="197.9" width="22" height="122.71"/>
      <rect class="uuid-7360caab-c69b-401f-9f22-d483d0045adc" x="2194.66" y="525.93" width="122.71" height="22"/>
      <rect class="uuid-7360caab-c69b-401f-9f22-d483d0045adc" x="1637.99" y="525.93" width="122.71" height="22"/>
      <rect class="uuid-7360caab-c69b-401f-9f22-d483d0045adc" x="1774.92" y="285.2" width="22" height="122.71" transform="translate(298.4 1393.88) rotate(-46.13)"/>
      <rect class="uuid-7360caab-c69b-401f-9f22-d483d0045adc" x="2109.69" y="335.55" width="122.71" height="22" transform="translate(365.73 1601.29) rotate(-43.87)"/>
    </g>
  </g>
  <g>
    <path class="uuid-7360caab-c69b-401f-9f22-d483d0045adc" d="M3734.95,470.64l-249.47-250.91-15.6,15.51,21.16,21.28-75.87,75.87c-41.45,41.45-44.83,126.77-44.61,157.88-31.9.87-121.24,7.96-171.96,58.69l-66.13,66.13-21.11-21.23-15.6,15.51,249.47,250.91,15.6-15.51-28.24-28.41,66.71-66.71c50.94-50.94,61.02-137.88,63-167.68,29.06-.94,112-7.32,153.57-48.89l75.29-75.29,28.2,28.36,15.6-15.51ZM3600.94,518.17c-43.54,43.54-147.53,42.87-148.59,42.86l-10.49-.12-.18,10.49c-.02,1.08-2.52,108.55-57.3,163.34l-66.67,66.67-169.73-170.72,66.18-66.18c54.47-54.47,166.29-52.35,167.4-52.32l11.9.3-.63-11.89c-.01-.28-1.43-28.15,2.8-61.16,5.43-42.32,17.56-73.96,35.1-91.49l75.83-75.83,169.73,170.72-75.34,75.34Z"/>
    <path class="uuid-0dc03641-7d00-4351-a6a5-e7ebdd3f6c1e" d="M3620.87,464.02l-134.56-134.56-19.29,142.36-125.65,125.65-136.55,18.5,134.56,134.56,18.5-136.55,130.95-130.95-.99-.99,133.04-18.03ZM3323.54,703.59l-71.77-71.77,83.02-11.25-11.25,83.02ZM3558.48,432.74l-61.64-17.16,5.31-39.17,56.33,56.33Z"/>
  </g>
  <g>
    <path class="uuid-0dc03641-7d00-4351-a6a5-e7ebdd3f6c1e" d="M5057.67,704.03l-16.95-14.02c31.39-37.94,48.68-86.01,48.68-135.35,0-56.75-22.1-110.11-62.23-150.24l15.56-15.56c44.29,44.28,68.67,103.16,68.67,165.79,0,54.45-19.08,107.5-53.73,149.38Z"/>
    <path class="uuid-0dc03641-7d00-4351-a6a5-e7ebdd3f6c1e" d="M4656.75,703.8c-34.53-41.84-53.55-94.81-53.55-149.15,0-62.99,24.63-122.12,69.36-166.48l15.49,15.62c-40.53,40.2-62.85,93.78-62.85,150.86,0,49.24,17.23,97.24,48.51,135.14l-16.97,14Z"/>
    <path class="uuid-0dc03641-7d00-4351-a6a5-e7ebdd3f6c1e" d="M5100.82,781.35l-15.12-15.98c30.34-28.7,54.22-62.54,70.96-100.6,17.33-39.39,26.12-81.37,26.12-124.77s-8.55-84.25-25.42-123.18c-16.3-37.62-39.58-71.2-69.19-99.82l15.29-15.82c31.7,30.64,56.63,66.61,74.08,106.9,18.07,41.71,27.24,86.1,27.24,131.93s-9.41,91.43-27.98,133.63c-17.93,40.76-43.5,77-75.98,107.72Z"/>
    <path class="uuid-0dc03641-7d00-4351-a6a5-e7ebdd3f6c1e" d="M4606.69,782.71c-32.92-30.76-58.83-67.15-77.03-108.16-18.84-42.46-28.39-87.73-28.39-134.55s9.55-92.09,28.39-134.55c18.19-41.01,44.11-77.4,77.03-108.16l15.02,16.07c-30.75,28.73-54.95,62.71-71.94,101.01-17.58,39.63-26.5,81.9-26.5,125.63s8.92,85.99,26.5,125.63c16.99,38.29,41.19,72.28,71.94,101.01l-15.02,16.07Z"/>
    <path class="uuid-34249eb1-9f25-4cbc-969e-231bf5de7663" d="M4849.49,395.99c-81.49,0-147.55,66.06-147.55,147.55s66.06,147.55,147.55,147.55,147.55-66.06,147.55-147.55-66.06-147.55-147.55-147.55ZM4867.11,583.17l-67.26,40.17v-160.69l67.26,40.17,67.26,40.17-67.26,40.17Z"/>
  </g>
  <g>
    <polygon class="uuid-34249eb1-9f25-4cbc-969e-231bf5de7663" points="845.5 1831.88 795.94 2063.17 795.73 2063.17 789.42 2092.45 289.98 2092.45 283.75 2063.17 284.06 2063.17 234.5 1831.88 404.62 1916.2 539.99 1722.4 675.38 1916.2 845.5 1831.88"/>
    <polygon class="uuid-0dc03641-7d00-4351-a6a5-e7ebdd3f6c1e" points="769.92 2180.31 769.94 2180.31 763.59 2209.6 315.25 2209.6 308.99 2180.31 302.73 2151.03 776.28 2151.03 769.92 2180.31"/>
  </g>
  <g>
    <g>
      <path class="uuid-34249eb1-9f25-4cbc-969e-231bf5de7663" d="M1924.94,1878.6c0-44.72,24.75-79.25,76.54-79.25s71.34,34.53,71.34,76.33c0,48.67-23.09,79.45-75.09,79.45s-72.8-31.82-72.8-76.54ZM2026.65,1877.56c0-31.62-8.53-42.64-26.21-42.64-19.14,0-28.91,11.65-28.91,42.64,0,32.86,9.36,42.64,27.87,42.64,16.22,0,27.25-9.36,27.25-42.64Z"/>
      <path class="uuid-34249eb1-9f25-4cbc-969e-231bf5de7663" d="M2127.32,1864.46v88.19h-40.77v-150.59h51.58l41.81,89.85v-89.85h40.35v150.59h-50.54l-42.43-88.19Z"/>
      <path class="uuid-34249eb1-9f25-4cbc-969e-231bf5de7663" d="M1898.59,2160.65h-53.1l-10.8-31.73h-46.13l-9,31.73h-50.85l52.2-162.9h59.18l58.5,162.9ZM1809.49,2042.74l-14.17,49.5h29.93l-14.4-49.5h-1.35Z"/>
      <path class="uuid-34249eb1-9f25-4cbc-969e-231bf5de7663" d="M1910.06,2160.65v-162.9h48.83v162.9h-48.83Z"/>
      <path class="uuid-34249eb1-9f25-4cbc-969e-231bf5de7663" d="M1985.21,1997.74h178.21c43.43,0,58.28,21.83,58.28,47.25,0,20.48-10.12,48.38-48.6,56.03l53.55,59.63h-62.1l-50.63-57.6h-77.85v57.6h-50.85v-162.9ZM2169.26,2049.72c0-10.13-6.08-15.75-19.35-15.75h-113.85v33.98h110.7c10.58,0,22.5-2.93,22.5-18.23Z"/>
    </g>
    <circle class="uuid-0dc03641-7d00-4351-a6a5-e7ebdd3f6c1e" cx="1799.76" cy="1877.86" r="70.08"/>
  </g>
  <g>
    <g>
      <path class="uuid-34249eb1-9f25-4cbc-969e-231bf5de7663" d="M3548.35,1664.37c-27.41-9.29-54.22,60.21-54.22,60.21l-15.48,38.31-95.3,235.86h0s-110.63,273.82-113.69,281.38c-3.05,7.56-6.66,27.2,20.41,36.38,27.41,9.29,35.45-13.76,35.45-13.76l15.48-38.31,95.3-235.86h0s110.63-273.82,113.69-281.38c3.05-7.56,25.42-73.65-1.64-82.83ZM3395.03,2088.8l-26.76-10.81,60.75-150.36,26.76,10.81-60.75,150.36Z"/>
      <path class="uuid-34249eb1-9f25-4cbc-969e-231bf5de7663" d="M3624.47,1737.47c-27.41-9.29-54.22,60.21-54.22,60.21l-15.48,38.31-95.3,235.86h0s-110.63,273.82-113.69,281.38c-3.05,7.56-6.66,27.2,20.41,36.38,27.41,9.29,35.45-13.76,35.45-13.76l15.48-38.31,95.3-235.86h0s110.63-273.82,113.69-281.38c3.05-7.56,25.42-73.65-1.64-82.83ZM3471.16,2161.9l-26.76-10.81,60.75-150.36,26.76,10.81-60.75,150.36Z"/>
      <polygon class="uuid-34249eb1-9f25-4cbc-969e-231bf5de7663" points="3401.91 1756.43 3381.51 1748.19 3193.2 2214.28 3172.37 2205.87 3164.13 2226.26 3184.96 2234.68 3174.73 2260 3195.12 2268.24 3205.35 2242.92 3226.18 2251.33 3234.42 2230.94 3213.6 2222.52 3401.91 1756.43"/>
      <polygon class="uuid-34249eb1-9f25-4cbc-969e-231bf5de7663" points="3745 1786.59 3724.6 1778.35 3535.83 2245.56 3518.03 2238.37 3509.79 2258.77 3527.59 2265.96 3517.81 2290.17 3538.21 2298.41 3547.99 2274.2 3564.88 2281.03 3573.12 2260.63 3556.23 2253.81 3745 1786.59"/>
    </g>
    <g>
      <circle class="uuid-0dc03641-7d00-4351-a6a5-e7ebdd3f6c1e" cx="3206.27" cy="1688.59" r="41.69"/>
      <g>
        <rect class="uuid-0dc03641-7d00-4351-a6a5-e7ebdd3f6c1e" x="3195.27" y="1568.18" width="22" height="43.58"/>
        <rect class="uuid-0dc03641-7d00-4351-a6a5-e7ebdd3f6c1e" x="3283.42" y="1677.59" width="43.58" height="22"/>
        <rect class="uuid-0dc03641-7d00-4351-a6a5-e7ebdd3f6c1e" x="3085.71" y="1677.59" width="43.58" height="22"/>
        <rect class="uuid-0dc03641-7d00-4351-a6a5-e7ebdd3f6c1e" x="3124.37" y="1599.18" width="22" height="43.58" transform="translate(-206.1 2757.95) rotate(-46.13)"/>
        <rect class="uuid-0dc03641-7d00-4351-a6a5-e7ebdd3f6c1e" x="3255.7" y="1609.98" width="43.58" height="22" transform="translate(-208.7 2723.69) rotate(-43.87)"/>
      </g>
      <g>
        <rect class="uuid-0dc03641-7d00-4351-a6a5-e7ebdd3f6c1e" x="3195.44" y="1773.97" width="22" height="43.58"/>
        <rect class="uuid-0dc03641-7d00-4351-a6a5-e7ebdd3f6c1e" x="3266.35" y="1742.96" width="22" height="43.58" transform="translate(-266.16 2904.44) rotate(-46.13)"/>
        <rect class="uuid-0dc03641-7d00-4351-a6a5-e7ebdd3f6c1e" x="3113.44" y="1753.75" width="43.58" height="22" transform="translate(-348.04 2665.23) rotate(-43.87)"/>
      </g>
    </g>
  </g>
  <g>
    <g>
      <rect class="uuid-0dc03641-7d00-4351-a6a5-e7ebdd3f6c1e" x="4548.31" y="2270.2" width="583.02" height="45.33"/>
      <path class="uuid-0dc03641-7d00-4351-a6a5-e7ebdd3f6c1e" d="M5077.82,2113.62h-469.76c-2.47,5.44-.56,9.28-3.02,14.72l10.64,15.96,4.78,22.05c16.16-13.87,51.65-23.5,92.84-23.5,56.42,0,102.15,18.06,102.15,40.35s-45.73,40.35-102.15,40.35c-45.33,0-83.76-11.66-97.11-27.81l-6.5,14.74-44.27-2.77c-6.78,14.96-10.33,22.81-17.12,37.77h583.02l-53.51-131.86ZM4971.36,2219.9c-56.42,0-102.15-18.06-102.15-40.35s45.73-40.35,102.15-40.35,102.15,18.06,102.15,40.35-45.73,40.35-102.15,40.35Z"/>
      <path class="uuid-0dc03641-7d00-4351-a6a5-e7ebdd3f6c1e" d="M4620.46,2166.35c-5.98,5.13-9.31,10.83-9.31,16.85,0,4.38,1.77,8.59,5.04,12.54l7.14-16.19-2.86-13.2Z"/>
      <path class="uuid-0dc03641-7d00-4351-a6a5-e7ebdd3f6c1e" d="M4712.3,2193.32c19.35,0,35.03-6.19,35.03-13.84s-15.68-13.84-35.03-13.84-35.03,6.19-35.03,13.84,15.68,13.84,35.03,13.84Z"/>
      <path class="uuid-0dc03641-7d00-4351-a6a5-e7ebdd3f6c1e" d="M4972.36,2163.65c-19.35,0-35.03,6.19-35.03,13.84s15.68,13.84,35.03,13.84,35.03-6.19,35.03-13.84-15.68-13.84-35.03-13.84Z"/>
    </g>
    <g>
      <path class="uuid-7360caab-c69b-401f-9f22-d483d0045adc" d="M4765.06,1859.45c45.08,0,81.76-36.68,81.76-81.76s-36.68-81.76-81.76-81.76-81.76,36.68-81.76,81.76,36.68,81.76,81.76,81.76ZM4765.06,1717.92c32.95,0,59.76,26.81,59.76,59.76s-26.81,59.76-59.76,59.76-59.76-26.81-59.76-59.76,26.81-59.76,59.76-59.76Z"/>
      <rect class="uuid-7360caab-c69b-401f-9f22-d483d0045adc" x="4644.34" y="1748.48" width="22" height="47.16"/>
      <rect class="uuid-7360caab-c69b-401f-9f22-d483d0045adc" x="4865.18" y="1748.48" width="22" height="47.16"/>
      <path class="uuid-7360caab-c69b-401f-9f22-d483d0045adc" d="M5022.44,1817.51c-28.12-28.12-67.3-12.04-68.95-11.34l-1.22.51-120.09,89.2h-176.56c-5.34-.24-55.38-1.3-93.09,41.12-34.72,39.06-52.16,76.81-38.53,154.1.42,2.6,9.3,58.18,17.99,101.65,5.42,27.12,26.12,35.99,42.41,35.99,2.56,0,5.01-.22,7.27-.62,15-1.83,26.15-7.93,33.14-18.12,10.85-15.82,6.93-35.01,6.07-38.55-.86-4.38-11.9-60.71-18.7-92.46-2.36-11.03-6.45-38.52,6.62-55.41,5.63-7.28,14.19-12.04,25.53-14.22v104.58h22v-128.34l-11.47.49c-23.93,1.02-41.91,9.1-53.46,24.02-18.04,23.31-14.46,56.05-10.73,73.48,7,32.69,18.56,91.74,18.67,92.34l.13.57c.03.13,3.01,12.69-2.87,21.14-3.3,4.75-9.31,7.67-17.86,8.67l-.76.12s-5.38.84-10.94-.87c-7.22-2.21-11.64-7.82-13.5-17.13-8.77-43.86-17.76-100.31-17.85-100.88l-.03-.19c-13.4-75.84,7.15-106.35,33.29-135.76,31.74-35.7,73.95-33.85,75.69-33.76l184.8.02,123.66-91.85c5.33-1.91,28.03-8.71,43.77,7.03,14.43,14.43,6.5,33.9,3.67,39.63l-145.38,113.41v127.84h22v-117.1l140.38-109.51,1.06-1.78c7.99-13.42,16.98-44.91-6.17-68.05Z"/>
    </g>
    <g>
      <rect class="uuid-0dc03641-7d00-4351-a6a5-e7ebdd3f6c1e" x="5046.54" y="1716.4" width="96.18" height="22" transform="translate(378.52 4315.35) rotate(-47.49)"/>
      <rect class="uuid-0dc03641-7d00-4351-a6a5-e7ebdd3f6c1e" x="4983.81" y="1645.07" width="22" height="96.07" transform="translate(-96.83 318.36) rotate(-3.62)"/>
      <rect class="uuid-0dc03641-7d00-4351-a6a5-e7ebdd3f6c1e" x="5089.67" y="1813.1" width="96.78" height="22" transform="translate(-41.71 122.06) rotate(-1.36)"/>
    </g>
  </g>
</svg>