<?xml version="1.0" encoding="UTF-8"?>
<svg id="Ebene_1" data-name="Ebene 1" xmlns="http://www.w3.org/2000/svg" version="1.1" viewBox="0 0 1080 1080">
  <defs>
    <style>
      .cls-1 {
        fill: #006d93;
      }

      .cls-1, .cls-2 {
        stroke-width: 0px;
      }

      .cls-2 {
        fill: #40ffff;
      }
    </style>
  </defs>
  <g id="uuid-f74c33ef-139c-428a-99f8-e71376cd56ee">
    <g>
      <path class="cls-1" d="M744.6,704l-17-14c31.4-37.9,48.7-86,48.7-135.3s-22.1-110.1-62.2-150.2l15.6-15.6c44.3,44.3,68.7,103.2,68.7,165.8s-19.1,107.5-53.7,149.4Z"/>
      <path class="cls-1" d="M343.7,703.8c-34.5-41.8-53.5-94.8-53.5-149.1s24.6-122.1,69.4-166.5l15.5,15.6c-40.5,40.2-62.9,93.8-62.9,150.9s17.2,97.2,48.5,135.1l-17,14h0Z"/>
      <path class="cls-1" d="M787.8,781.3l-15.1-16c30.3-28.7,54.2-62.5,71-100.6,17.3-39.4,26.1-81.4,26.1-124.8s-8.5-84.2-25.4-123.2c-16.3-37.6-39.6-71.2-69.2-99.8l15.3-15.8c31.7,30.6,56.6,66.6,74.1,106.9,18.1,41.7,27.2,86.1,27.2,131.9s-9.4,91.4-28,133.6c-17.9,40.8-43.5,77-76,107.7h0Z"/>
      <path class="cls-1" d="M293.7,782.7c-32.9-30.8-58.8-67.2-77-108.2-18.8-42.5-28.4-87.7-28.4-134.5s9.6-92.1,28.4-134.5c18.2-41,44.1-77.4,77-108.2l15,16.1c-30.8,28.7-54.9,62.7-71.9,101-17.6,39.6-26.5,81.9-26.5,125.6s8.9,86,26.5,125.6c17,38.3,41.2,72.3,71.9,101l-15,16.1h0Z"/>
      <path class="cls-2" d="M536.5,396c-81.5,0-147.5,66.1-147.5,147.5s66.1,147.5,147.5,147.5,147.5-66.1,147.5-147.5-66.1-147.5-147.5-147.5ZM554.1,583.2l-67.3,40.2v-160.7l67.3,40.2,67.3,40.2-67.3,40.2h0Z"/>
    </g>
  </g>
</svg>