<svg width="1200" height="61" viewBox="0 0 1200 61" fill="none" xmlns="http://www.w3.org/2000/svg">
<g clip-path="url(#clip0_2624_2)">
<path d="M1068.07 5.8543e-06V61.0001H1202V0L1068.07 5.8543e-06Z" fill="#E51336"/>
<path d="M1086.93 23.0009H1086.21L1086.43 21.5609H1085.22L1085 23.0009H1084.28L1084.49 21.5609H1083.34L1083.5 20.8709H1084.6L1084.83 19.4209H1083.68L1083.82 18.7209H1084.93L1085.12 17.4109H1085.85L1085.65 18.7209H1086.84L1087.03 17.4109H1087.76L1087.56 18.7209H1088.71L1088.58 19.4209H1087.46L1087.25 20.8709H1088.39L1088.25 21.5609H1087.15L1086.93 23.0009ZM1086.53 20.8709L1086.74 19.4209H1085.55L1085.32 20.8709H1086.53ZM1090.95 19.7509V22.2009H1094.39V23.0009H1090.03V15.7609H1094.26V16.5609H1090.95V18.9509H1094.06V19.7509H1090.95ZM1095.54 19.4509L1095.82 15.7609H1099.28V16.5609H1096.53L1096.32 18.8909C1096.65 18.6209 1097.1 18.4009 1097.74 18.4009C1098.73 18.4009 1099.71 18.9309 1099.71 20.6109C1099.71 22.1009 1098.8 23.1209 1097.29 23.1209C1096.25 23.1209 1095.31 22.6409 1095.13 21.4309L1095.98 21.2209C1096.09 21.7909 1096.37 22.3309 1097.3 22.3309C1098.02 22.3309 1098.76 21.8709 1098.76 20.6409C1098.76 19.5809 1098.19 19.1809 1097.45 19.1809C1096.94 19.1809 1096.51 19.4009 1096.16 19.7309L1095.54 19.4509ZM1102.85 23.0009H1101.95V17.0109C1101.61 17.2109 1100.73 17.3409 1100.4 17.3409L1100.33 16.6009C1101.26 16.5209 1101.87 16.2909 1102.33 15.7609H1102.85V23.0009ZM1104.44 21.4409L1105.3 21.2609C1105.43 21.8809 1105.61 22.3409 1106.57 22.3409C1107.3 22.3409 1107.94 21.9409 1107.94 20.9409C1107.94 19.9109 1107.33 19.5709 1106.42 19.5709H1105.77V18.8009H1106.23C1107.24 18.8009 1107.84 18.2709 1107.84 17.4709C1107.84 16.8709 1107.56 16.3909 1106.7 16.3909C1105.85 16.3909 1105.6 16.7609 1105.42 17.4209L1104.61 17.2409C1104.85 16.0309 1105.73 15.6309 1106.8 15.6309C1108.07 15.6309 1108.75 16.3109 1108.75 17.3409C1108.75 18.4309 1107.98 18.9309 1107.34 19.0909V19.1209C1108.28 19.2909 1108.88 19.8509 1108.88 20.9609C1108.88 22.2609 1107.96 23.1209 1106.55 23.1209C1105.42 23.1209 1104.58 22.6409 1104.44 21.4409ZM1109.85 21.4409L1110.71 21.2609C1110.84 21.8809 1111.02 22.3409 1111.98 22.3409C1112.71 22.3409 1113.35 21.9409 1113.35 20.9409C1113.35 19.9109 1112.74 19.5709 1111.83 19.5709H1111.18V18.8009H1111.64C1112.65 18.8009 1113.25 18.2709 1113.25 17.4709C1113.25 16.8709 1112.97 16.3909 1112.11 16.3909C1111.26 16.3909 1111.01 16.7609 1110.83 17.4209L1110.02 17.2409C1110.26 16.0309 1111.14 15.6309 1112.21 15.6309C1113.48 15.6309 1114.16 16.3109 1114.16 17.3409C1114.16 18.4309 1113.39 18.9309 1112.75 19.0909V19.1209C1113.69 19.2909 1114.29 19.8509 1114.29 20.9609C1114.29 22.2609 1113.37 23.1209 1111.96 23.1209C1110.83 23.1209 1109.99 22.6409 1109.85 21.4409ZM1119.83 17.1709L1119.01 17.3909C1118.83 16.5809 1118.46 16.3809 1117.92 16.3809C1116.58 16.3809 1116.24 18.0509 1116.22 19.3609C1116.56 18.9809 1117.25 18.5909 1118 18.5909C1119.27 18.5909 1119.92 19.4209 1119.92 20.6709C1119.92 22.2509 1119.01 23.1209 1117.66 23.1209C1115.77 23.1209 1115.34 21.5009 1115.34 19.6109C1115.34 17.9909 1115.82 15.6309 1118.01 15.6309C1118.95 15.6309 1119.61 16.0209 1119.83 17.1709ZM1117.82 19.3609C1117.23 19.3609 1116.64 19.7509 1116.27 20.1409C1116.33 21.2309 1116.54 22.3809 1117.69 22.3809C1118.45 22.3809 1119 21.8409 1119 20.7409C1119 19.8109 1118.62 19.3609 1117.82 19.3609Z" fill="white"/>
<path d="M801.258 1.16892e-05V61.0001H1068.68V0L801.258 1.16892e-05Z" fill="#EEEFF1"/>
<path d="M818.93 23.3474H818.21L818.43 21.9074H817.22L817 23.3474H816.28L816.49 21.9074H815.34L815.5 21.2174H816.6L816.83 19.7674H815.68L815.82 19.0674H816.93L817.12 17.7574H817.85L817.65 19.0674H818.84L819.03 17.7574H819.76L819.56 19.0674H820.71L820.58 19.7674H819.46L819.25 21.2174H820.39L820.25 21.9074H819.15L818.93 23.3474ZM818.53 21.2174L818.74 19.7674H817.55L817.32 21.2174H818.53ZM822.954 20.0974V22.5474H826.394V23.3474H822.034V16.1074H826.264V16.9074H822.954V19.2974H826.064V20.0974H822.954ZM828.706 20.0974V22.5474H832.146V23.3474H827.786V16.1074H832.016V16.9074H828.706V19.2974H831.816V20.0974H828.706ZM834.458 20.0974V22.5474H837.898V23.3474H833.538V16.1074H837.768V16.9074H834.458V19.2974H837.568V20.0974H834.458ZM840.21 20.2174V23.3474H839.29V16.1074H843.52V16.9074H840.21V19.4174H843.27V20.2174H840.21ZM845.679 20.2174V23.3474H844.759V16.1074H848.989V16.9074H845.679V19.4174H848.739V20.2174H845.679ZM852.188 23.3474H851.288V17.3574C850.948 17.5574 850.068 17.6874 849.738 17.6874L849.668 16.9474C850.598 16.8674 851.208 16.6374 851.668 16.1074H852.188V23.3474Z" fill="#24353F"/>
<path d="M533.84 1.16892e-05V61.0001H801.259V0L533.84 1.16892e-05Z" fill="#40FFFF"/>
<path d="M551.93 23.3485H551.21L551.43 21.9085H550.22L550 23.3485H549.28L549.49 21.9085H548.34L548.5 21.2185H549.6L549.83 19.7685H548.68L548.82 19.0685H549.93L550.12 17.7585H550.85L550.65 19.0685H551.84L552.03 17.7585H552.76L552.56 19.0685H553.71L553.58 19.7685H552.46L552.25 21.2185H553.39L553.25 21.9085H552.15L551.93 23.3485ZM551.53 21.2185L551.74 19.7685H550.55L550.32 21.2185H551.53ZM558.514 23.3485H557.634V21.5685H554.294V20.8885L557.384 16.1085H558.524V20.7885H559.374V21.5685H558.514V23.3485ZM555.194 20.7885H557.644V17.0085L555.194 20.7885ZM564.812 19.6185C564.812 21.8785 564.352 23.4685 562.382 23.4685C560.412 23.4685 560.012 21.8885 560.012 19.7385C560.012 17.5985 560.552 15.9785 562.492 15.9785C564.462 15.9785 564.812 17.5985 564.812 19.6185ZM560.922 19.7685C560.922 21.4885 561.132 22.7185 562.422 22.7185C563.652 22.7185 563.902 21.5085 563.902 19.6885C563.902 17.9085 563.692 16.7485 562.462 16.7485C561.222 16.7485 560.922 17.9085 560.922 19.7685ZM567.097 20.2185V23.3485H566.177V16.1085H570.407V16.9085H567.097V19.4185H570.157V20.2185H567.097ZM572.566 20.2185V23.3485H571.646V16.1085H575.876V16.9085H572.566V19.4185H575.626V20.2185H572.566ZM578.034 20.2185V23.3485H577.114V16.1085H581.344V16.9085H578.034V19.4185H581.094V20.2185H578.034ZM583.503 20.2185V23.3485H582.583V16.1085H586.813V16.9085H583.503V19.4185H586.563V20.2185H583.503Z" fill="#24353F"/>
<path d="M266.418 1.16892e-05V61.0001H533.837V0L266.418 1.16892e-05Z" fill="#006D93"/>
<path d="M283.93 23.3485H283.21L283.43 21.9085H282.22L282 23.3485H281.28L281.49 21.9085H280.34L280.5 21.2185H281.6L281.83 19.7685H280.68L280.82 19.0685H281.93L282.12 17.7585H282.85L282.65 19.0685H283.84L284.03 17.7585H284.76L284.56 19.0685H285.71L285.58 19.7685H284.46L284.25 21.2185H285.39L285.25 21.9085H284.15L283.93 23.3485ZM283.53 21.2185L283.74 19.7685H282.55L282.32 21.2185H283.53ZM291.284 19.6185C291.284 21.8785 290.824 23.4685 288.854 23.4685C286.884 23.4685 286.484 21.8885 286.484 19.7385C286.484 17.5985 287.024 15.9785 288.964 15.9785C290.934 15.9785 291.284 17.5985 291.284 19.6185ZM287.394 19.7685C287.394 21.4885 287.604 22.7185 288.894 22.7185C290.124 22.7185 290.374 21.5085 290.374 19.6885C290.374 17.9085 290.164 16.7485 288.934 16.7485C287.694 16.7485 287.394 17.9085 287.394 19.7685ZM296.899 19.6185C296.899 21.8785 296.439 23.4685 294.469 23.4685C292.499 23.4685 292.099 21.8885 292.099 19.7385C292.099 17.5985 292.639 15.9785 294.579 15.9785C296.549 15.9785 296.899 17.5985 296.899 19.6185ZM293.009 19.7685C293.009 21.4885 293.219 22.7185 294.509 22.7185C295.739 22.7185 295.989 21.5085 295.989 19.6885C295.989 17.9085 295.779 16.7485 294.549 16.7485C293.309 16.7485 293.009 17.9085 293.009 19.7685ZM302.405 17.5185L301.585 17.7385C301.405 16.9285 301.035 16.7285 300.495 16.7285C299.155 16.7285 298.815 18.3985 298.795 19.7085C299.135 19.3285 299.825 18.9385 300.575 18.9385C301.845 18.9385 302.495 19.7685 302.495 21.0185C302.495 22.5985 301.585 23.4685 300.235 23.4685C298.345 23.4685 297.915 21.8485 297.915 19.9585C297.915 18.3385 298.395 15.9785 300.585 15.9785C301.525 15.9785 302.185 16.3685 302.405 17.5185ZM300.395 19.7085C299.805 19.7085 299.215 20.0985 298.845 20.4885C298.905 21.5785 299.115 22.7285 300.265 22.7285C301.025 22.7285 301.575 22.1885 301.575 21.0885C301.575 20.1585 301.195 19.7085 300.395 19.7085ZM305.979 23.3485H303.919V16.1085H306.149C308.659 16.1085 309.739 17.4585 309.739 19.6185C309.739 21.8385 308.569 23.3485 305.979 23.3485ZM304.839 22.5685H305.989C307.879 22.5685 308.789 21.5185 308.789 19.7485C308.789 17.5485 307.789 16.8885 306.069 16.8885H304.839V22.5685ZM310.704 21.8885L311.524 21.6485C311.714 22.4485 312.134 22.7185 312.784 22.7185C314.024 22.7185 314.394 21.3585 314.424 19.8185C314.084 20.1985 313.404 20.5785 312.644 20.5785C311.374 20.5785 310.734 19.7485 310.734 18.4185C310.734 16.8485 311.684 15.9785 313.034 15.9785C314.904 15.9785 315.304 17.5985 315.304 19.4885C315.304 21.3985 314.894 23.4685 312.734 23.4685C311.724 23.4685 310.924 23.0485 310.704 21.8885ZM312.824 19.8185C313.424 19.8185 314.004 19.4685 314.374 19.0285C314.324 17.9385 314.154 16.7285 312.964 16.7285C312.204 16.7285 311.644 17.2485 311.644 18.3885C311.644 19.3185 312.034 19.8185 312.824 19.8185ZM315.966 21.7885L316.826 21.6085C316.956 22.2285 317.136 22.6885 318.096 22.6885C318.826 22.6885 319.466 22.2885 319.466 21.2885C319.466 20.2585 318.856 19.9185 317.946 19.9185H317.296V19.1485H317.756C318.766 19.1485 319.366 18.6185 319.366 17.8185C319.366 17.2185 319.086 16.7385 318.226 16.7385C317.376 16.7385 317.126 17.1085 316.946 17.7685L316.136 17.5885C316.376 16.3785 317.256 15.9785 318.326 15.9785C319.596 15.9785 320.276 16.6585 320.276 17.6885C320.276 18.7785 319.506 19.2785 318.866 19.4385V19.4685C319.806 19.6385 320.406 20.1985 320.406 21.3085C320.406 22.6085 319.486 23.4685 318.076 23.4685C316.946 23.4685 316.106 22.9885 315.966 21.7885Z" fill="white"/>
<path d="M266.169 60.7501H-0.749997L-0.75 0.250012L266.169 0.25V60.7501Z" fill="#24353F" stroke="white" stroke-width="0.5"/>
<path d="M22.9298 23.0009H22.2098L22.4298 21.5609H21.2198L20.9998 23.0009H20.2798L20.4898 21.5609H19.3398L19.4998 20.8709H20.5998L20.8298 19.4209H19.6798L19.8198 18.7209H20.9298L21.1198 17.4109H21.8498L21.6498 18.7209H22.8398L23.0298 17.4109H23.7598L23.5598 18.7209H24.7098L24.5798 19.4209H23.4598L23.2498 20.8709H24.3898L24.2498 21.5609H23.1498L22.9298 23.0009ZM22.5298 20.8709L22.7398 19.4209H21.5498L21.3198 20.8709H22.5298ZM25.544 17.4609C25.734 16.1409 26.594 15.6309 27.744 15.6309C28.944 15.6309 29.724 16.2009 29.724 17.4309C29.724 18.5309 29.154 19.2909 28.154 20.4609L26.684 22.1809V22.2009H29.824V23.0009H25.624V22.2409L27.324 20.1909C28.334 18.9809 28.794 18.3909 28.794 17.4709C28.794 16.7009 28.354 16.4009 27.654 16.4009C26.714 16.4009 26.494 16.9109 26.374 17.6109L25.544 17.4609ZM34.348 23.0009H33.468V21.2209H30.128V20.5409L33.218 15.7609H34.358V20.4409H35.208V21.2209H34.348V23.0009ZM31.028 20.4409H33.478V16.6609L31.028 20.4409ZM35.8153 21.4409L36.6753 21.2609C36.8053 21.8809 36.9853 22.3409 37.9453 22.3409C38.6753 22.3409 39.3153 21.9409 39.3153 20.9409C39.3153 19.9109 38.7053 19.5709 37.7953 19.5709H37.1453V18.8009H37.6053C38.6153 18.8009 39.2153 18.2709 39.2153 17.4709C39.2153 16.8709 38.9353 16.3909 38.0753 16.3909C37.2253 16.3909 36.9753 16.7609 36.7953 17.4209L35.9853 17.2409C36.2253 16.0309 37.1053 15.6309 38.1753 15.6309C39.4453 15.6309 40.1253 16.3109 40.1253 17.3409C40.1253 18.4309 39.3553 18.9309 38.7153 19.0909V19.1209C39.6553 19.2909 40.2553 19.8509 40.2553 20.9609C40.2553 22.2609 39.3353 23.1209 37.9253 23.1209C36.7953 23.1209 35.9553 22.6409 35.8153 21.4409ZM41.5555 19.4509L41.8355 15.7609H45.2955V16.5609H42.5455L42.3355 18.8909C42.6655 18.6209 43.1155 18.4009 43.7555 18.4009C44.7455 18.4009 45.7255 18.9309 45.7255 20.6109C45.7255 22.1009 44.8155 23.1209 43.3055 23.1209C42.2655 23.1209 41.3255 22.6409 41.1455 21.4309L41.9955 21.2209C42.1055 21.7909 42.3855 22.3309 43.3155 22.3309C44.0355 22.3309 44.7755 21.8709 44.7755 20.6409C44.7755 19.5809 44.2055 19.1809 43.4655 19.1809C42.9555 19.1809 42.5255 19.4009 42.1755 19.7309L41.5555 19.4509ZM46.5966 21.4409L47.4566 21.2609C47.5866 21.8809 47.7666 22.3409 48.7266 22.3409C49.4566 22.3409 50.0966 21.9409 50.0966 20.9409C50.0966 19.9109 49.4866 19.5709 48.5766 19.5709H47.9266V18.8009H48.3866C49.3966 18.8009 49.9966 18.2709 49.9966 17.4709C49.9966 16.8709 49.7166 16.3909 48.8566 16.3909C48.0066 16.3909 47.7566 16.7609 47.5766 17.4209L46.7666 17.2409C47.0066 16.0309 47.8866 15.6309 48.9566 15.6309C50.2266 15.6309 50.9066 16.3109 50.9066 17.3409C50.9066 18.4309 50.1366 18.9309 49.4966 19.0909V19.1209C50.4366 19.2909 51.0366 19.8509 51.0366 20.9609C51.0366 22.2609 50.1166 23.1209 48.7066 23.1209C47.5766 23.1209 46.7366 22.6409 46.5966 21.4409ZM53.5068 19.8709V23.0009H52.5868V15.7609H56.8168V16.5609H53.5068V19.0709H56.5668V19.8709H53.5068Z" fill="white"/>
</g>
<defs>
<clipPath id="clip0_2624_2">
<rect width="1200" height="61" fill="white"/>
</clipPath>
</defs>
</svg>
