<?xml version="1.0" encoding="UTF-8"?>
<svg id="uuid-892801b6-2e2e-454e-a1bd-7ee6616cee09" xmlns="http://www.w3.org/2000/svg" version="1.1" viewBox="0 0 1080 1080">
  <defs>
    <style>
      .cls-1 {
        fill: #006d93;
      }

      .cls-1, .cls-2 {
        stroke-width: 0px;
      }

      .cls-2 {
        fill: #40ffff;
      }
    </style>
  </defs>
  <path class="cls-2" d="M852.2,471.5l-249.5-250.9-15.6,15.5,21.2,21.3-75.9,75.9c-41.5,41.5-44.8,126.8-44.6,157.9-31.9.9-121.2,8-172,58.7l-66.1,66.1-21.1-21.2-15.6,15.5,249.5,250.9,15.6-15.5-28.2-28.4,66.7-66.7c50.9-50.9,61-137.9,63-167.7,29.1-.9,112-7.3,153.6-48.9l75.3-75.3,28.2,28.4,15.6-15.5h0ZM718.2,519.1c-43.5,43.5-147.5,42.9-148.6,42.9h-10.5c0-.1-.2,10.4-.2,10.4,0,1.1-2.5,108.5-57.3,163.3l-66.7,66.7-169.7-170.7,66.2-66.2c54.5-54.5,166.3-52.3,167.4-52.3l11.9.3-.6-11.9c0-.3-1.4-28.1,2.8-61.2,5.4-42.3,17.6-74,35.1-91.5l75.8-75.8,169.7,170.7-75.3,75.3h0Z"/>
  <path class="cls-1" d="M738.1,464.9l-134.6-134.6-19.3,142.4-125.6,125.7-136.6,18.5,134.6,134.6,18.5-136.5,131-131-1-1,133-18h0ZM440.8,704.5l-71.8-71.8,83-11.2-11.2,83ZM675.8,433.6l-61.6-17.2,5.3-39.2,56.3,56.3h0Z"/>
</svg>