<?xml version="1.0" encoding="UTF-8"?>
<svg id="Ebene_1" data-name="Ebene 1" xmlns="http://www.w3.org/2000/svg" version="1.1" viewBox="0 0 1080 1080">
  <defs>
    <style>
      .cls-1 {
        fill: #006d93;
      }

      .cls-1, .cls-2 {
        stroke-width: 0px;
      }

      .cls-2 {
        fill: #40ffff;
      }
    </style>
  </defs>
  <g id="uuid-fd77f8b5-6149-4b44-b3c7-e10f56842bed">
    <g>
      <polygon class="cls-1" points="473.9 762.5 618.6 762.5 584.4 844.1 519.5 849.5 473.9 806 473.9 762.5"/>
      <path class="cls-2" d="M539.8,865.6c-22.9,0-41.8-7.5-56.2-22.2-28.7-29.4-28.4-77.3-28.3-81v-57.7c-49.4-29.6-79.8-83-79.8-140.9,0-90.5,73.7-164.2,164.2-164.2s164.2,73.7,164.2,164.2-31.3,112.9-82.1,142.2v56.3c.2,3.8.7,52.3-27.8,81.6-14,14.4-32.3,21.6-54.4,21.6h0ZM539.8,421.6c-78.4,0-142.2,63.8-142.2,142.2s28.4,99.8,74,124.8l5.7,3.1v71c0,.4-.6,42.1,22.1,65.3,10.2,10.4,23.4,15.5,40.3,15.5s28.8-4.9,38.6-15c11.6-11.9,16.9-29.1,19.3-41.4,2.7-13.7,2.4-24.3,2.4-24.4v-.3l-.2-69.6,5.9-3.1c47-24.7,76.2-73,76.2-126,0-78.4-63.8-142.2-142.2-142.2h0Z"/>
      <g>
        <rect class="cls-2" x="528.8" y="181.4" width="22" height="122.7"/>
        <rect class="cls-2" x="757" y="509.4" width="122.7" height="22"/>
        <rect class="cls-2" x="200.3" y="509.4" width="122.7" height="22"/>
        <rect class="cls-2" x="337.3" y="268.7" width="22" height="122.7" transform="translate(-131 352.4) rotate(-46.1)"/>
        <rect class="cls-2" x="672" y="319" width="122.7" height="22" transform="translate(-24.1 600.4) rotate(-43.9)"/>
      </g>
    </g>
  </g>
</svg>