<?xml version="1.0" encoding="UTF-8"?>
<svg id="Ebene_1" data-name="Ebene 1" xmlns="http://www.w3.org/2000/svg" version="1.1" viewBox="0 0 1080 1080">
  <defs>
    <style>
      .cls-1 {
        fill: #006d93;
      }

      .cls-1, .cls-2 {
        stroke-width: 0px;
      }

      .cls-2 {
        fill: #40ffff;
      }
    </style>
  </defs>
  <g id="uuid-f8fa6b41-12a3-4bfe-8baf-35e9b365201f">
    <g>
      <g>
        <path class="cls-2" d="M487.3,438.6c0-44.7,24.8-79.2,76.5-79.2s71.3,34.5,71.3,76.3-23.1,79.5-75.1,79.5-72.8-31.8-72.8-76.5h0ZM589,437.6c0-31.6-8.5-42.6-26.2-42.6s-28.9,11.6-28.9,42.6,9.4,42.6,27.9,42.6,27.2-9.4,27.2-42.6Z"/>
        <path class="cls-2" d="M689.6,424.5v88.2h-40.8v-150.6h51.6l41.8,89.9v-89.9h40.3v150.6h-50.5l-42.4-88.2h0Z"/>
        <path class="cls-2" d="M460.9,720.7h-53.1l-10.8-31.7h-46.1l-9,31.7h-50.9l52.2-162.9h59.2l58.5,162.9h0ZM371.8,602.7l-14.2,49.5h29.9l-14.4-49.5h-1.4.1Z"/>
        <path class="cls-2" d="M472.4,720.7v-162.9h48.8v162.9h-48.8Z"/>
        <path class="cls-2" d="M547.5,557.7h178.2c43.4,0,58.3,21.8,58.3,47.2s-10.1,48.4-48.6,56l53.5,59.6h-62.1l-50.6-57.6h-77.8v57.6h-50.8v-162.9h-.1ZM731.6,609.7c0-10.1-6.1-15.8-19.3-15.8h-113.8v34h110.7c10.6,0,22.5-2.9,22.5-18.2h-.1Z"/>
      </g>
      <circle class="cls-1" cx="362.1" cy="437.9" r="70.1"/>
    </g>
  </g>
</svg>