<?xml version="1.0" encoding="UTF-8"?>
<svg id="Ebene_1" data-name="Ebene 1" xmlns="http://www.w3.org/2000/svg" version="1.1" viewBox="0 0 1080 1080">
  <defs>
    <style>
      .cls-1 {
        fill: #006d93;
      }

      .cls-1, .cls-2 {
        stroke-width: 0px;
      }

      .cls-2 {
        fill: #40ffff;
      }
    </style>
  </defs>
  <g id="uuid-7beb9c60-dfae-4ec6-98c9-cb98e1bbc905">
    <g>
      <g>
        <path class="cls-2" d="M705.2,213.7c-27.4-9.3-54.2,60.2-54.2,60.2l-15.5,38.3-95.3,235.9h0s-110.6,273.8-113.7,281.4c-3,7.6-6.7,27.2,20.4,36.4,27.4,9.3,35.5-13.8,35.5-13.8l15.5-38.3,95.3-235.9h0s110.6-273.8,113.7-281.4c3-7.6,25.4-73.6-1.6-82.8h-.1ZM551.9,638.2l-26.8-10.8,60.8-150.4,26.8,10.8-60.8,150.4Z"/>
        <path class="cls-2" d="M781.3,286.8c-27.4-9.3-54.2,60.2-54.2,60.2l-15.5,38.3-95.3,235.9h0s-110.6,273.8-113.7,281.4c-3,7.6-6.7,27.2,20.4,36.4,27.4,9.3,35.5-13.8,35.5-13.8l15.5-38.3,95.3-235.9h0s110.6-273.8,113.7-281.4c3-7.6,25.4-73.6-1.6-82.8h-.1ZM628,711.3l-26.8-10.8,60.8-150.4,26.8,10.8-60.8,150.4h0Z"/>
        <polygon class="cls-2" points="558.7 305.8 538.3 297.5 350 763.6 329.2 755.2 321 775.6 341.8 784 331.5 809.4 351.9 817.6 362.2 792.3 383 800.7 391.2 780.3 370.4 771.9 558.7 305.8"/>
        <polygon class="cls-2" points="901.8 336 881.4 327.7 692.7 794.9 674.8 787.7 666.6 808.1 684.4 815.3 674.6 839.5 695 847.8 704.8 823.6 721.7 830.4 729.9 810 713 803.2 901.8 336"/>
      </g>
      <g>
        <circle class="cls-1" cx="363.1" cy="238" r="41.7"/>
        <g>
          <rect class="cls-1" x="352.1" y="117.5" width="22" height="43.6"/>
          <rect class="cls-1" x="440.2" y="227" width="43.6" height="22"/>
          <rect class="cls-1" x="242.5" y="227" width="43.6" height="22"/>
          <rect class="cls-1" x="281.2" y="148.6" width="22" height="43.6" transform="translate(-33.2 262.8) rotate(-46.1)"/>
          <rect class="cls-1" x="412.4" y="159.1" width="43.6" height="22" transform="translate(3.4 348.6) rotate(-43.9)"/>
        </g>
        <g>
          <rect class="cls-1" x="352.3" y="323.3" width="22" height="43.6"/>
          <rect class="cls-1" x="423.2" y="292.5" width="22" height="43.6" transform="translate(-93.4 409.2) rotate(-46.1)"/>
          <rect class="cls-1" x="270.3" y="302.9" width="43.6" height="22" transform="translate(-136 290.2) rotate(-43.9)"/>
        </g>
      </g>
    </g>
  </g>
</svg>