<?xml version="1.0" encoding="UTF-8"?>
<svg id="Ebene_1" data-name="Ebene 1" xmlns="http://www.w3.org/2000/svg" version="1.1" viewBox="0 0 1080 1080">
  <defs>
    <style>
      .cls-1 {
        fill: #006d93;
      }

      .cls-1, .cls-2 {
        stroke-width: 0px;
      }

      .cls-2 {
        fill: #40ffff;
      }
    </style>
  </defs>
  <g id="uuid-5804a783-01ac-4aef-bc91-b5ded6f6b2c6">
    <g>
      <g>
        <rect class="cls-1" x="242.1" y="802.1" width="583" height="45.3"/>
        <path class="cls-1" d="M771.6,645.5h-469.8c-2.5,5.4-.6,9.3-3,14.7l10.6,16,4.8,22c16.2-13.9,51.6-23.5,92.8-23.5s102.1,18.1,102.1,40.3-45.7,40.3-102.1,40.3-83.8-11.7-97.1-27.8l-6.5,14.7-44.3-2.8c-6.8,15-10.3,22.8-17.1,37.8h583l-53.5-131.9h0v.2ZM665.2,751.8c-56.4,0-102.2-18.1-102.2-40.3s45.7-40.3,102.2-40.3,102.2,18.1,102.2,40.3-45.7,40.3-102.2,40.3Z"/>
        <path class="cls-1" d="M314.3,698.2c-6,5.1-9.3,10.8-9.3,16.8s1.8,8.6,5,12.5l7.1-16.2-2.9-13.2h0Z"/>
        <path class="cls-1" d="M406.1,725.2c19.4,0,35-6.2,35-13.8s-15.7-13.8-35-13.8-35,6.2-35,13.8,15.7,13.8,35,13.8Z"/>
        <path class="cls-1" d="M666.2,695.5c-19.3,0-35,6.2-35,13.8s15.7,13.8,35,13.8,35-6.2,35-13.8-15.7-13.8-35-13.8h0Z"/>
      </g>
      <g>
        <path class="cls-2" d="M458.9,391.3c45.1,0,81.8-36.7,81.8-81.8s-36.7-81.8-81.8-81.8-81.8,36.7-81.8,81.8,36.7,81.8,81.8,81.8h0ZM458.9,249.8c33,0,59.8,26.8,59.8,59.8s-26.8,59.8-59.8,59.8-59.8-26.8-59.8-59.8,26.8-59.8,59.8-59.8h0Z"/>
        <rect class="cls-2" x="338.1" y="280.4" width="22" height="47.2"/>
        <rect class="cls-2" x="559" y="280.4" width="22" height="47.2"/>
        <path class="cls-2" d="M716.2,349.4c-28.1-28.1-67.3-12-69-11.3l-1.2.5-120.1,89.2h-176.6c-5.3-.2-55.4-1.3-93.1,41.1-34.7,39.1-52.2,76.8-38.5,154.1.4,2.6,9.3,58.2,18,101.7,5.4,27.1,26.1,36,42.4,36s5-.2,7.3-.6c15-1.8,26.1-7.9,33.1-18.1,10.9-15.8,6.9-35,6.1-38.5-.9-4.4-11.9-60.7-18.7-92.5-2.4-11-6.5-38.5,6.6-55.4,5.6-7.3,14.2-12,25.5-14.2v104.6h22v-128.3l-11.5.5c-23.9,1-41.9,9.1-53.5,24-18,23.3-14.5,56-10.7,73.5,7,32.7,18.6,91.7,18.7,92.3v.6c.2,0,3.1,12.7-2.7,21.1-3.3,4.8-9.3,7.7-17.9,8.7h-.8c0,0-5.4,1-10.9-.8-7.2-2.2-11.6-7.8-13.5-17.1-8.8-43.9-17.8-100.3-17.9-100.9v-.2c-13.4-75.8,7.1-106.3,33.3-135.8,31.7-35.7,73.9-33.9,75.7-33.8h184.8l123.7-91.8c5.3-1.9,28-8.7,43.8,7s6.5,33.9,3.7,39.6l-145.4,113.4v127.8h22v-117.1l140.4-109.5,1.1-1.8c8-13.4,17-44.9-6.2-68.1h0Z"/>
      </g>
      <g>
        <rect class="cls-1" x="740.2" y="248" width="96.2" height="22" transform="translate(64.8 665.3) rotate(-47.5)"/>
        <rect class="cls-1" x="677.6" y="177.1" width="22" height="96.1" transform="translate(-12.8 43.7) rotate(-3.6)"/>
        <rect class="cls-1" x="783.7" y="344.3" width="96.8" height="22" transform="translate(-8.4 20.4) rotate(-1.4)"/>
      </g>
    </g>
  </g>
</svg>