<svg width="523" height="332" viewBox="0 0 523 332" fill="none" xmlns="http://www.w3.org/2000/svg">
<g clip-path="url(#clip0_2635_13)">
<path d="M25.3194 89.9994V23.7594H0.359375V3.11938H75.9594V23.7594H51.3594V89.9994H25.3194ZM158.728 89.9994H132.688V57.7194H108.448V89.9994H82.4085V3.11938H108.448V36.2394H132.688V3.11938H158.728V89.9994ZM197.042 89.9994H171.002V3.11938H197.042V89.9994ZM273.882 18.9594C238.122 18.9594 234.762 22.1994 234.762 27.2394C234.762 32.2794 239.322 33.7194 254.562 34.1994L299.922 35.5194C326.682 36.2394 340.002 43.4394 340.002 61.0794C340.002 82.0794 322.602 92.6394 273.402 92.6394C228.282 92.6394 206.442 88.7994 205.602 62.5194L230.202 59.3994C231.162 66.9594 232.002 73.6794 274.122 73.6794C309.762 73.6794 313.842 70.1994 313.842 64.9194C313.842 60.5994 311.682 58.1994 299.922 57.8394L248.442 56.0394C220.602 55.0794 208.602 47.0394 208.602 29.6394C208.602 11.0394 224.202 0.359375 274.722 0.359375C321.162 0.359375 337.842 5.03938 338.562 27.3594L313.722 29.9994C313.722 21.9594 311.082 18.9594 273.882 18.9594ZM399.776 89.9994H373.736V3.11938H399.776V89.9994ZM441.937 19.7994C437.017 19.7994 433.657 21.4794 433.657 25.6794C433.657 31.0794 440.377 32.9994 448.657 35.1594L455.377 36.9594C466.417 39.9594 477.337 46.0794 477.337 62.0394C477.337 83.0394 459.937 91.4394 441.457 91.4394C428.497 91.4394 406.657 89.3994 405.816 62.5194L428.857 59.3994C429.817 66.9594 431.617 72.9594 442.177 72.9594C448.297 72.9594 452.377 70.9194 452.377 65.6394C452.377 61.6794 449.017 59.5194 443.977 58.1994L437.497 56.5194C424.897 53.2794 408.697 49.6794 408.697 29.6394C408.697 11.0394 424.297 1.55937 442.777 1.55937C458.497 1.55937 475.177 5.03938 475.897 27.3594L452.377 29.9994C452.377 21.9594 449.017 19.7994 441.937 19.7994ZM82.4394 209.999H56.3994V177.719H32.1594V209.999H6.11937V123.119H32.1594V156.239H56.3994V123.119H82.4394V209.999ZM133.593 211.439C103.113 211.439 91.5932 193.079 91.5932 167.279C91.5932 141.479 105.873 121.559 135.753 121.559C165.753 121.559 176.913 141.479 176.913 165.599C176.913 193.679 163.593 211.439 133.593 211.439ZM134.553 191.279C143.913 191.279 150.273 185.879 150.273 166.679C150.273 148.439 145.353 142.079 135.153 142.079C124.113 142.079 118.473 148.799 118.473 166.679C118.473 185.639 123.873 191.279 134.553 191.279ZM251.899 209.999L242.299 160.679H241.579L232.459 209.999H197.419L179.179 123.119H206.179L215.899 183.719H216.619L228.499 123.119H255.739L268.459 183.479H269.419L277.699 123.119H303.979L285.139 209.999H251.899ZM401.899 209.999L392.299 160.679H391.579L382.459 209.999H347.419L329.179 123.119H356.179L365.899 183.719H366.619L378.499 123.119H405.739L418.459 183.479H419.419L427.699 123.119H453.979L435.139 209.999H401.899ZM486.143 188.879H522.503V209.999H460.103V123.119H519.503V143.759H486.143V157.319H514.223V177.119H486.143V188.879ZM6.11937 329.999V243.119H40.4394C70.5594 243.119 83.5194 259.319 83.5194 285.239C83.5194 311.879 69.4794 329.999 38.3994 329.999H6.11937ZM36.5994 310.079C53.9994 310.079 57.1194 300.719 57.1194 285.719C57.1194 268.439 52.3194 262.799 38.3994 262.799H32.1594V310.079H36.5994ZM141.874 243.119L173.074 329.999H144.754L138.994 313.079H114.394L109.594 329.999H82.4741L110.314 243.119H141.874ZM126.274 267.119H125.554L117.994 293.519H133.954L126.274 267.119ZM225.447 329.999L200.967 279.119V329.999H177.447V243.119H207.207L231.327 294.959V243.119H254.607V329.999H225.447ZM305.741 331.439C275.621 331.439 263.741 314.879 263.741 287.159C263.741 261.119 277.421 241.559 307.181 241.559C327.821 241.559 342.701 251.399 343.301 274.799L319.781 277.079C319.541 265.439 314.861 261.719 306.701 261.719C296.501 261.719 290.741 268.799 290.741 286.199C290.741 304.319 295.781 311.279 306.821 311.279C316.781 311.279 318.941 304.799 320.261 298.319L343.301 301.919C341.021 323.999 321.821 331.439 305.741 331.439ZM377.89 308.879H483.13V329.999H350.65V243.119H480.13V263.759H377.89V277.319H466.45V297.119H377.89V308.879Z" fill="#24353F"/>
</g>
<defs>
<clipPath id="clip0_2635_13">
<rect width="523" height="332" fill="white"/>
</clipPath>
</defs>
</svg>
