<?xml version="1.0" encoding="UTF-8"?>
<svg id="Ebene_1" xmlns="http://www.w3.org/2000/svg" xmlns:xlink="http://www.w3.org/1999/xlink" version="1.1" viewBox="0 0 362.06 202.9">
  <!-- Generator: Adobe Illustrator 29.5.0, SVG Export Plug-In . SVG Version: 2.1.0 Build 137)  -->
  <defs>
    <style>
      .st0 {
        fill: url(#Unbenannter_Verlauf_7);
      }

      .st1 {
        fill: url(#Neues_Verlaufsfeld_21);
      }

      .st2 {
        fill: url(#Unbenannter_Verlauf_13);
      }

      .st3 {
        fill: url(#Neues_Verlaufsfeld_2);
      }
    </style>
    <linearGradient id="Neues_Verlaufsfeld_2" data-name="Neues Verlaufsfeld 2" x1="183.53" y1="202.9" x2="183.53" y2="4" gradientUnits="userSpaceOnUse">
      <stop offset="0" stop-color="#1e1e1c"/>
      <stop offset=".75" stop-color="#442a19"/>
      <stop offset="1" stop-color="#7e4f25"/>
    </linearGradient>
    <linearGradient id="Neues_Verlaufsfeld_21" data-name="Neues Verlaufsfeld 2" x1="183.53" y1="205.73" x2="183.53" y2="1.17" xlink:href="#Neues_Verlaufsfeld_2"/>
    <linearGradient id="Unbenannter_Verlauf_7" data-name="Unbenannter Verlauf 7" x1="178.53" y1="198.9" x2="178.53" y2="0" gradientUnits="userSpaceOnUse">
      <stop offset="0" stop-color="#7e4f25"/>
      <stop offset=".09" stop-color="#a4651b"/>
      <stop offset=".18" stop-color="#c67813"/>
      <stop offset=".26" stop-color="#df860c"/>
      <stop offset=".34" stop-color="#ed8f09"/>
      <stop offset=".41" stop-color="#f39208"/>
      <stop offset=".72" stop-color="#fab334"/>
      <stop offset=".99" stop-color="#fdc300"/>
    </linearGradient>
    <linearGradient id="Unbenannter_Verlauf_13" data-name="Unbenannter Verlauf 13" x1="178.53" y1="201.73" x2="178.53" y2="-2.83" gradientUnits="userSpaceOnUse">
      <stop offset="0" stop-color="#442a19"/>
      <stop offset=".41" stop-color="#7e4f25"/>
      <stop offset=".75" stop-color="#f39208"/>
      <stop offset="1" stop-color="#fab334"/>
    </linearGradient>
  </defs>
  <g>
    <path class="st3" d="M85.94,15.43c1.32,17.81,2.89,25.75,5.05,51.74,3.73-21.9,7.82-43.68,14.92-62.69l12.88,3.25c-8.66,28.04-13.72,55.47-18.65,82.78l-16.97,1.68c-7.46-20.7-6.02-30.32-8.3-41.51-2.65,10.35-5.17,23.94-12.15,41.15l-16-.72c-3.49-15.28-10.59-67.5-13.84-83.38l13.96-3.13c6.26,24.67,6.38,47.41,9.51,65.34,5.54-18.05,11.79-40.31,14.56-54.51h15.04ZM139.49,5.44c.24,12.75.36,25.27.36,60.4v26.95h-15.52c.96-10.59,1.56-31.16,1.56-50.05,0-3.25-.24-32.25-.36-36.7l13.96-.6ZM166.44,4c27.92,0,50.05,16.36,50.05,43.92,0,33.57-24.19,45.96-50.9,45.96-1.8,0-6.38.12-13.24.12.48-12.15,2.05-64.61,2.17-67.62.12-3.61.6-10.83,1.44-21.66,3.61-.48,7.1-.72,10.47-.72ZM168.85,19.04c-.6,14.2-1.8,35.5-1.8,58.12v2.77c10.47-.96,20.45.6,27.92-6.26,5.29-4.81,7.34-13.36,7.34-21.78,0-16.97-8.18-30.56-26.35-32.37-2.29-.36-4.69-.36-7.1-.48ZM240.93,5.44c.24,12.75.36,25.27.36,60.4v26.95h-15.52c.96-10.59,1.56-31.16,1.56-50.05,0-3.25-.24-32.25-.36-36.7l13.96-.6ZM300.49,47.32l-11.43,4.69c-1.8-4.09-4.93-5.17-9.99-5.17-6.14,0-14.92,1.2-15.52,5.29,4.69,5.17,25.75,6.02,33.69,8.9,5.17,1.8,11.91,6.98,11.91,13.6,0,14.8-16.72,21.66-34.05,21.66-10.59,0-25.15-2.41-25.15-15.16,0-3.49.96-6.02,3.01-7.82l12.15,1.32c-.36,1.32-.6,2.65-.6,3.97,0,4.33,12.75,4.33,15.64,4.33,5.29,0,11.91-1.68,14.44-5.9-1.56-2.17-7.1-4.93-10.47-5.53-10.47-1.8-35.62-2.89-35.62-17.69s19.25-21.66,34.17-21.66c6.62,0,17.81,2.89,17.81,15.16ZM20.04,110.13c.24,11.07.24,15.16.24,21.18v20.09c9.38,0,20.94-.12,31.28-.48-.12-5.29-.24-13-.24-17.57,0-11.19.24-17.09.24-23.7h14.56c-.24,10.47-1.56,87.6-1.56,87.6h-14.2c.24-3.61,1.2-29.36,1.32-32.37h-31.65c-.12,4.57-.72,27.67-.72,32.61H5c.48-21.18.72-62.21.72-66.06,0-12.27,0-16.85-.12-21.3h14.44ZM120.15,124.69c-10.47.24-20.82.72-30.56,2.41.36,8.3.6,11.55.84,19.37,7.46-1.08,23.34-1.44,32.85-2.53l-.48,14.44c-11.43,1.2-24.67,1.32-32.25,2.29.12,4.09.12,10.95.12,14.32,0,5.17-.12,9.39-.48,12.87,3.49-.96,7.34-1.44,16-1.93,5.17-.24,10.23-.72,15.16-1.68l2.04,15.28c-15.88.6-30.2,1.93-47.29,3.37.36-13.48.6-24.43.6-33.09,0-14.68-.72-26.23-2.17-55.23,12.63-1.56,20.46-3.61,34.77-3.61,3.25,0,6.98.12,11.07.36l-.24,13.36ZM147.59,111.45c.24,12.75.36,25.27.36,60.4v26.95h-15.52c.96-10.59,1.56-31.16,1.56-50.05,0-3.25-.24-32.25-.36-36.7l13.96-.6ZM245.17,110.97c-.36,5.9-.48,12.15-.48,18.53,0,26.71,2.53,54.51,3.25,69.19l-13.96.84c-1.08-8.42-3.37-45.48-3.73-52.94-4.93,9.02-22.62,45-25.87,51.98l-10.35.96c-3.13-7.82-16.72-40.67-19.85-46.81v46.81h-14.32c0-21.78.24-39.71.24-55.83,0-11.31-.12-21.78-.36-32.01l13-1.44c12.03,23.58,17.57,39.47,27.67,64.13,10.71-18.65,22.14-43.44,30.8-64.01l13.96.6ZM304.54,182.2h-34.17c-1.56,5.9-3.01,11.79-4.21,17.57l-14.32-2.53c4.81-23.7,20.09-61.61,28.76-87.96h12.63c9.63,27.92,25.39,59.92,32.49,83.5l-15.16,3.61c-1.44-3.25-3.49-8.06-6.02-14.2ZM274.7,167.88h24.3c-4.45-10.83-8.18-21.3-12.75-35.5-4.93,15.52-8.06,24.19-11.55,35.5ZM308.03,114.58c20.82-2.53,33.69-3.73,48.61-3.73,2.29,0,4.21.12,5.41.24l-.72,13.96c-2.41.12-9.63.12-18.65.48.72,16.6,1.2,32.85,1.2,50.66,0,6.98,0,14.32-.24,21.9l-14.32,2.29c.24-7.46.36-14.8.36-21.9,0-17.69-.6-34.53-1.32-51.86-7.46.36-15.64,1.32-19.85,1.93l-.48-13.96Z"/>
    <path class="st1" d="M166.44,4c27.92,0,50.05,16.36,50.05,43.92,0,33.57-24.19,45.96-50.9,45.96-1.8,0-6.38.12-13.24.12.48-12.15,2.05-64.61,2.17-67.62.12-3.61.6-10.83,1.44-21.66,3.61-.48,7.1-.72,10.47-.72M167.05,79.92c10.47-.96,20.45.6,27.92-6.26,5.29-4.81,7.34-13.36,7.34-21.78,0-16.97-8.18-30.56-26.35-32.37-2.29-.36-4.69-.36-7.1-.48-.6,14.2-1.8,35.5-1.8,58.12v2.77M105.92,4.48l12.88,3.25c-8.66,28.04-13.72,55.47-18.65,82.78l-16.97,1.68c-7.46-20.7-6.02-30.32-8.3-41.51-2.65,10.35-5.17,23.94-12.15,41.15l-16-.72c-3.49-15.28-10.59-67.5-13.84-83.38l13.96-3.13c6.26,24.67,6.38,47.41,9.51,65.34,5.54-18.05,11.79-40.31,14.56-54.51h15.04c1.32,17.81,2.89,25.75,5.05,51.74,3.73-21.9,7.82-43.68,14.92-62.69M240.93,5.44c.24,12.75.36,25.27.36,60.4v26.95h-15.52c.96-10.59,1.56-31.16,1.56-50.05,0-3.25-.24-32.25-.36-36.7l13.96-.6M139.49,5.44c.24,12.75.36,25.27.36,60.4v26.95h-15.52c.96-10.59,1.56-31.16,1.56-50.05,0-3.25-.24-32.25-.36-36.7l13.96-.6M282.68,32.16c6.62,0,17.81,2.89,17.81,15.16l-11.43,4.69c-1.8-4.09-4.93-5.17-9.99-5.17-6.14,0-14.92,1.2-15.52,5.29,4.69,5.17,25.75,6.02,33.69,8.9,5.17,1.8,11.91,6.98,11.91,13.6,0,14.8-16.72,21.66-34.05,21.66-10.59,0-25.15-2.41-25.15-15.16,0-3.49.96-6.02,3.01-7.82l12.15,1.32c-.36,1.32-.6,2.65-.6,3.97,0,4.33,12.75,4.33,15.64,4.33,5.29,0,11.91-1.68,14.44-5.9-1.56-2.17-7.1-4.93-10.47-5.53-10.47-1.8-35.62-2.89-35.62-17.69s19.25-21.66,34.17-21.66M293.23,109.29c9.63,27.92,25.39,59.92,32.49,83.5l-15.16,3.61c-1.44-3.25-3.49-8.06-6.02-14.2h-34.17c-1.56,5.9-3.01,11.79-4.21,17.57l-14.32-2.53c4.81-23.7,20.09-61.61,28.76-87.96h12.63M274.7,167.88h24.3c-4.45-10.83-8.18-21.3-12.75-35.5-4.93,15.52-8.06,24.19-11.55,35.5M66.13,109.65c-.24,10.47-1.57,87.6-1.57,87.6h-14.2c.24-3.61,1.2-29.36,1.32-32.37h-31.65c-.12,4.57-.72,27.67-.72,32.61H5c.48-21.18.72-62.21.72-66.06,0-12.27,0-16.85-.12-21.3h14.44c.24,11.07.24,15.16.24,21.18v20.09c9.38,0,20.94-.12,31.28-.48-.12-5.29-.24-13-.24-17.57,0-11.19.24-17.09.24-23.7h14.56M172.74,110.25c12.03,23.58,17.57,39.47,27.67,64.13,10.71-18.65,22.14-43.44,30.8-64.01l13.96.6c-.36,5.9-.48,12.15-.48,18.53,0,26.71,2.53,54.51,3.25,69.19l-13.96.84c-1.08-8.42-3.37-45.48-3.73-52.94-4.93,9.02-22.62,45-25.87,51.98l-10.35.96c-3.13-7.82-16.72-40.67-19.85-46.81v46.81h-14.32c0-21.78.24-39.71.24-55.83,0-11.31-.12-21.78-.36-32.01l13-1.44M356.64,110.85c2.29,0,4.21.12,5.41.24l-.72,13.96c-2.41.12-9.63.12-18.65.48.72,16.6,1.2,32.85,1.2,50.66,0,6.98,0,14.32-.24,21.9l-14.32,2.29c.24-7.46.36-14.8.36-21.9,0-17.69-.6-34.53-1.32-51.86-7.46.36-15.64,1.32-19.85,1.93l-.48-13.96c20.82-2.53,33.69-3.73,48.61-3.73M109.32,110.97c3.25,0,6.98.12,11.07.36l-.24,13.36c-10.47.24-20.82.72-30.56,2.41.36,8.3.6,11.55.84,19.37,7.46-1.08,23.34-1.44,32.85-2.53l-.48,14.44c-11.43,1.2-24.67,1.32-32.25,2.29.12,4.09.12,10.95.12,14.32,0,5.17-.12,9.39-.48,12.87,3.49-.96,7.34-1.44,16-1.93,5.17-.24,10.23-.72,15.16-1.68l2.04,15.28c-15.88.6-30.2,1.93-47.29,3.37.36-13.48.6-24.43.6-33.09,0-14.68-.72-26.23-2.17-55.23,12.63-1.56,20.46-3.61,34.77-3.61M147.59,111.45c.24,12.75.36,25.27.36,60.4v26.95h-15.52c.96-10.59,1.56-31.16,1.56-50.05,0-3.25-.24-32.25-.36-36.7l13.96-.6M166.44,1.17c-3.48,0-7.12.25-10.84.75-1.33.18-2.35,1.26-2.45,2.59-.84,10.82-1.33,18.14-1.45,21.78-.04,1.01-.24,7.48-.52,16.43-.53,17.17-1.33,43.12-1.65,51.17-.03.77.25,1.52.79,2.08.53.56,1.27.87,2.04.87,4.55,0,8.14-.05,10.51-.09,1.21-.02,2.13-.03,2.73-.03,15.09,0,27.96-3.8,37.21-10.99,10.97-8.52,16.53-21.24,16.53-37.81,0-14.04-5.39-25.96-15.58-34.47-9.49-7.92-22.74-12.29-37.31-12.29h0ZM169.88,76.88c0-18.4.8-35.6,1.43-49.43.09-1.9.17-3.73.25-5.46,1.38.06,2.7.14,3.95.33.05,0,.11.02.16.02,15.12,1.5,23.8,12.27,23.8,29.55,0,8.8-2.34,15.98-6.41,19.68-5.01,4.6-11.52,4.85-19.07,5.13-1.34.05-2.72.1-4.11.18h0ZM105.92,1.65c-1.16,0-2.23.71-2.65,1.84-4.98,13.34-8.5,28.03-11.38,42.8-.34-3.22-.66-6.13-.97-8.9-.8-7.26-1.5-13.52-2.14-22.16-.11-1.48-1.34-2.62-2.83-2.62h-15.04c-1.36,0-2.52.96-2.78,2.29-1.89,9.67-5.77,24.73-10.74,41.72-.32-2.84-.62-5.76-.92-8.74-1.35-13.24-2.88-28.24-6.87-43.96-.32-1.28-1.48-2.14-2.75-2.14-.21,0-.41.02-.62.07l-13.96,3.13c-1.51.34-2.47,1.82-2.16,3.33,1.47,7.18,3.73,21.85,6.12,37.37,2.86,18.52,5.81,37.67,7.73,46.08.28,1.24,1.36,2.14,2.64,2.2l16,.72s.09,0,.13,0c1.15,0,2.19-.7,2.63-1.77,4.11-10.13,6.7-19.04,8.66-26.73.83,6.99,2.25,15.22,6.5,26.99.41,1.13,1.48,1.87,2.67,1.87.09,0,.19,0,.28-.01l16.97-1.68c1.26-.13,2.28-1.07,2.51-2.32,4.56-25.22,9.72-53.81,18.57-82.45.23-.74.14-1.55-.24-2.23-.38-.68-1.02-1.17-1.78-1.36l-12.88-3.25c-.23-.06-.46-.09-.69-.09h0ZM240.93,2.61s-.08,0-.12,0l-13.96.6c-1.55.07-2.75,1.36-2.71,2.91.12,4.45.36,33.59.36,36.62,0,19.57-.62,39.58-1.55,49.8-.07.79.19,1.58.73,2.17.54.59,1.3.92,2.09.92h15.52c1.57,0,2.83-1.27,2.83-2.83v-26.95c0-35.12-.12-47.47-.36-60.46-.01-.76-.34-1.49-.89-2.01-.53-.5-1.22-.77-1.94-.77h0ZM139.49,2.61s-.08,0-.12,0l-13.96.6c-1.55.07-2.75,1.36-2.71,2.91.12,4.47.36,33.6.36,36.62,0,19.57-.62,39.58-1.55,49.8-.07.79.19,1.58.73,2.17.54.59,1.3.92,2.09.92h15.52c1.57,0,2.83-1.27,2.83-2.83v-26.95c0-35.12-.12-47.48-.36-60.46-.01-.76-.34-1.49-.89-2.01-.53-.5-1.22-.77-1.94-.77h0ZM282.68,29.32c-8.4,0-17.38,2.13-24.02,5.71-8.37,4.51-12.98,11.18-12.98,18.78,0,15.24,20.68,18.07,33.03,19.76,1.83.25,3.55.49,4.94.72,2.08.37,5.04,1.74,6.94,2.98-2.55,1.93-6.87,2.82-10.43,2.82-9.6,0-12.24-1.39-12.8-1.8.03-.86.19-1.82.5-2.92.22-.8.07-1.66-.39-2.34s-1.21-1.13-2.04-1.22l-12.15-1.32c-.1-.01-.21-.02-.31-.02-.69,0-1.35.25-1.88.71-2.67,2.36-3.97,5.61-3.97,9.95,0,11.6,9.94,18,27.98,18s36.89-7.57,36.89-24.49c0-8.4-8.26-14.34-13.81-16.27-3.19-1.16-8.13-1.97-13.36-2.84-5.82-.96-13.39-2.21-17.21-4,1.89-.9,5.84-1.85,11.47-1.85,4.95,0,6.37,1.17,7.39,3.48.47,1.06,1.5,1.69,2.59,1.69.36,0,.72-.07,1.08-.21l11.43-4.69c1.06-.44,1.76-1.47,1.76-2.62,0-6.38-2.68-11.43-7.76-14.59-4.94-3.07-10.66-3.41-12.88-3.41h0ZM293.23,106.45h-12.63c-1.22,0-2.31.79-2.69,1.95-2.72,8.28-6.07,17.61-9.61,27.5-6.95,19.4-14.11,39.38-17.96,55.12-.14-2.27-.31-4.72-.48-7.32-.98-14.74-2.33-34.93-2.33-54.2,0-7.11.16-13.12.48-18.36.05-.76-.21-1.51-.72-2.07-.51-.57-1.22-.9-1.98-.93l-13.96-.6s-.08,0-.12,0c-1.14,0-2.17.68-2.61,1.73-9.3,22.08-19.25,43.05-27.78,58.59-1.52-3.76-2.95-7.33-4.34-10.81-6.43-16.09-11.98-29.98-21.22-48.09-.49-.96-1.47-1.55-2.52-1.55-.1,0-.21,0-.31.02l-13,1.44c-1.46.16-2.56,1.41-2.52,2.88.24,10.32.36,20.76.36,31.94,0,7.45-.05,15.35-.11,23.71-.07,10.03-.13,20.4-.13,32.12,0,1.57,1.27,2.83,2.83,2.83h14.32c1.57,0,2.83-1.27,2.83-2.83v-33.5c5.13,11.97,12.07,28.75,14.39,34.56.43,1.08,1.48,1.78,2.63,1.78.09,0,.18,0,.26-.01l10.35-.96c1-.09,1.88-.71,2.31-1.63,2.56-5.5,13.91-28.64,21.06-42.72.84,13.87,2.32,36.33,3.16,42.84.18,1.42,1.39,2.47,2.81,2.47.06,0,.11,0,.17,0l13.96-.84c1.12-.07,2.05-.77,2.45-1.74.25.12.51.21.79.26l14.32,2.53c.17.03.33.04.5.04,1.32,0,2.49-.92,2.77-2.26.97-4.67,2.16-9.7,3.62-15.31h30.09c2.12,5.12,3.95,9.42,5.32,12.51.46,1.04,1.49,1.68,2.59,1.68.22,0,.44-.03.66-.08l15.16-3.61c.09-.02.17-.05.26-.07-.04,1.6-.09,3.2-.14,4.81-.03.85.32,1.66.96,2.22.52.46,1.19.71,1.87.71.15,0,.3-.01.45-.04l14.32-2.29c1.34-.21,2.34-1.35,2.39-2.71.24-7.63.24-14.93.24-21.99,0-15.15-.34-30.04-1.08-47.93,4.35-.15,8.14-.21,11.04-.26,2.22-.04,3.83-.07,4.8-.12,1.45-.07,2.61-1.23,2.69-2.68l.72-13.96c.08-1.51-1.04-2.82-2.55-2.97-.77-.08-2.86-.25-5.7-.25-15.26,0-28.46,1.26-48.95,3.75-1.46.18-2.54,1.44-2.49,2.91l.48,13.96c.03.8.4,1.56,1.01,2.08.51.43,1.16.66,1.82.66.13,0,.27,0,.4-.03,4.03-.58,10.51-1.33,16.74-1.74.6,14.69,1.2,31.53,1.2,48.86,0,2.75-.02,5.54-.05,8.36-3.87-11.61-9.36-24.73-15.12-38.52-5.58-13.34-11.35-27.13-15.77-39.96-.39-1.14-1.47-1.91-2.68-1.91h0ZM278.56,165.05c1.4-4.41,2.77-8.55,4.31-13.18,1.04-3.13,2.17-6.51,3.41-10.31,2.98,8.93,5.65,16.27,8.53,23.49h-16.24ZM66.13,106.81h-14.56c-1.57,0-2.83,1.27-2.83,2.83,0,2.85-.04,5.55-.1,8.67-.07,4.07-.14,8.69-.14,15.04,0,3.86.08,9.89.18,14.83-9.54.29-19.21.37-25.56.38v-17.26c0-6.11,0-10.14-.24-21.24-.03-1.54-1.29-2.77-2.83-2.77H5.6c-.77,0-1.5.31-2.03.86-.53.55-.82,1.29-.8,2.05.12,4.41.12,8.99.12,21.22,0,3.81-.24,44.84-.72,65.99-.02.76.27,1.5.81,2.05.53.55,1.26.85,2.03.85h14.32c1.57,0,2.83-1.27,2.83-2.83,0-4.23.45-22.08.65-29.77h25.94c0,.15-.01.31-.02.47-.3,7.76-.99,25.93-1.19,28.87-.05.78.22,1.55.76,2.13.54.57,1.29.9,2.07.9h14.2c1.55,0,2.81-1.24,2.83-2.79.01-.77,1.33-77.24,1.56-87.58.02-.76-.27-1.5-.81-2.05s-1.26-.85-2.03-.85h0ZM109.32,108.13c-10.45,0-17.66,1.09-25.3,2.24-3.08.46-6.26.95-9.82,1.39-1.47.18-2.56,1.47-2.48,2.95.22,4.49.43,8.57.62,12.3,1.03,20.28,1.54,30.46,1.54,42.79,0,9.32-.29,21.37-.6,33.01-.02.81.3,1.58.89,2.14.53.5,1.23.77,1.95.77.08,0,.16,0,.24-.01l5.99-.51c14.62-1.25,27.24-2.32,41.17-2.85.8-.03,1.55-.4,2.06-1.01.51-.61.75-1.41.64-2.2l-2.04-15.28c-.1-.77-.52-1.47-1.16-1.93-.49-.35-1.06-.53-1.65-.53-.18,0-.36.02-.54.05-4.35.85-9.04,1.37-14.75,1.64-5.98.33-9.76.67-12.76,1.17.14-2.55.2-5.56.2-9.29,0-2.7,0-7.76-.06-11.78,3.31-.31,7.4-.52,11.67-.75,5.67-.3,12.11-.64,17.99-1.26,1.41-.15,2.49-1.31,2.54-2.72l.48-14.44c.03-.82-.3-1.62-.91-2.18-.53-.49-1.21-.75-1.92-.75-.11,0-.21,0-.32.02-4.43.5-10.35.85-16.08,1.19-5.06.3-9.91.59-13.72.97-.12-3.37-.25-5.96-.39-8.85-.07-1.5-.15-3.09-.24-4.95,9.09-1.37,18.64-1.76,27.68-1.97,1.52-.03,2.74-1.26,2.77-2.78l.24-13.36c.03-1.52-1.15-2.79-2.67-2.88-4.12-.24-7.9-.37-11.24-.37h0ZM147.59,108.62s-.08,0-.12,0l-13.96.6c-1.55.07-2.75,1.36-2.71,2.91.12,4.48.36,33.6.36,36.62,0,19.58-.62,39.59-1.55,49.8-.07.79.19,1.58.73,2.17.54.59,1.3.92,2.09.92h15.52c1.57,0,2.83-1.27,2.83-2.83v-26.95c0-34.89-.12-47.73-.36-60.46-.01-.76-.34-1.49-.89-2.01-.53-.5-1.22-.77-1.94-.77h0Z"/>
  </g>
  <g>
    <path class="st0" d="M80.94,11.43c1.32,17.81,2.89,25.75,5.05,51.74,3.73-21.9,7.82-43.68,14.92-62.69l12.88,3.25c-8.66,28.04-13.72,55.47-18.65,82.78l-16.97,1.68c-7.46-20.7-6.02-30.32-8.3-41.51-2.65,10.35-5.17,23.94-12.15,41.15l-16-.72c-3.49-15.28-10.59-67.5-13.84-83.38l13.96-3.13c6.26,24.67,6.38,47.41,9.51,65.34,5.54-18.05,11.79-40.31,14.56-54.51h15.04ZM134.49,1.44c.24,12.75.36,25.27.36,60.4v26.95h-15.52c.96-10.59,1.56-31.16,1.56-50.05,0-3.25-.24-32.25-.36-36.7l13.96-.6ZM161.44,0c27.92,0,50.05,16.36,50.05,43.92,0,33.57-24.19,45.96-50.9,45.96-1.8,0-6.38.12-13.24.12.48-12.15,2.05-64.61,2.17-67.62.12-3.61.6-10.83,1.44-21.66,3.61-.48,7.1-.72,10.47-.72ZM163.85,15.04c-.6,14.2-1.8,35.5-1.8,58.12v2.77c10.47-.96,20.45.6,27.92-6.26,5.29-4.81,7.34-13.36,7.34-21.78,0-16.97-8.18-30.56-26.35-32.37-2.29-.36-4.69-.36-7.1-.48ZM235.93,1.44c.24,12.75.36,25.27.36,60.4v26.95h-15.52c.96-10.59,1.56-31.16,1.56-50.05,0-3.25-.24-32.25-.36-36.7l13.96-.6ZM295.49,43.32l-11.43,4.69c-1.8-4.09-4.93-5.17-9.99-5.17-6.14,0-14.92,1.2-15.52,5.29,4.69,5.17,25.75,6.02,33.69,8.9,5.17,1.8,11.91,6.98,11.91,13.6,0,14.8-16.72,21.66-34.05,21.66-10.59,0-25.15-2.41-25.15-15.16,0-3.49.96-6.02,3.01-7.82l12.15,1.32c-.36,1.32-.6,2.65-.6,3.97,0,4.33,12.75,4.33,15.64,4.33,5.29,0,11.91-1.68,14.44-5.9-1.56-2.17-7.1-4.93-10.47-5.53-10.47-1.8-35.62-2.89-35.62-17.69s19.25-21.66,34.17-21.66c6.62,0,17.81,2.89,17.81,15.16ZM15.04,106.13c.24,11.07.24,15.16.24,21.18v20.09c9.38,0,20.94-.12,31.28-.48-.12-5.29-.24-13-.24-17.57,0-11.19.24-17.09.24-23.7h14.56c-.24,10.47-1.56,87.6-1.56,87.6h-14.2c.24-3.61,1.2-29.36,1.32-32.37H15.04c-.12,4.57-.72,27.67-.72,32.61H0c.48-21.18.72-62.21.72-66.06,0-12.27,0-16.85-.12-21.3h14.44ZM115.15,120.69c-10.47.24-20.82.72-30.56,2.41.36,8.3.6,11.55.84,19.37,7.46-1.08,23.34-1.44,32.85-2.53l-.48,14.44c-11.43,1.2-24.67,1.32-32.25,2.29.12,4.09.12,10.95.12,14.32,0,5.17-.12,9.39-.48,12.87,3.49-.96,7.34-1.44,16-1.93,5.17-.24,10.23-.72,15.16-1.68l2.04,15.28c-15.88.6-30.2,1.93-47.29,3.37.36-13.48.6-24.43.6-33.09,0-14.68-.72-26.23-2.17-55.23,12.63-1.56,20.46-3.61,34.77-3.61,3.25,0,6.98.12,11.07.36l-.24,13.36ZM142.59,107.45c.24,12.75.36,25.27.36,60.4v26.95h-15.52c.96-10.59,1.56-31.16,1.56-50.05,0-3.25-.24-32.25-.36-36.7l13.96-.6ZM240.17,106.97c-.36,5.9-.48,12.15-.48,18.53,0,26.71,2.53,54.51,3.25,69.19l-13.96.84c-1.08-8.42-3.37-45.48-3.73-52.94-4.93,9.02-22.62,45-25.87,51.98l-10.35.96c-3.13-7.82-16.72-40.67-19.85-46.81v46.81h-14.32c0-21.78.24-39.71.24-55.83,0-11.31-.12-21.78-.36-32.01l13-1.44c12.03,23.58,17.57,39.47,27.67,64.13,10.71-18.65,22.14-43.44,30.8-64.01l13.96.6ZM299.54,178.2h-34.17c-1.56,5.9-3.01,11.79-4.21,17.57l-14.32-2.53c4.81-23.7,20.09-61.61,28.76-87.96h12.63c9.63,27.92,25.39,59.92,32.49,83.5l-15.16,3.61c-1.44-3.25-3.49-8.06-6.02-14.2ZM269.7,163.88h24.3c-4.45-10.83-8.18-21.3-12.75-35.5-4.93,15.52-8.06,24.19-11.55,35.5ZM303.03,110.58c20.82-2.53,33.69-3.73,48.61-3.73,2.29,0,4.21.12,5.41.24l-.72,13.96c-2.41.12-9.63.12-18.65.48.72,16.6,1.2,32.85,1.2,50.66,0,6.98,0,14.32-.24,21.9l-14.32,2.29c.24-7.46.36-14.8.36-21.9,0-17.69-.6-34.53-1.32-51.86-7.46.36-15.64,1.32-19.85,1.93l-.48-13.96Z"/>
    <path class="st2" d="M161.44,0C189.36,0,211.5,16.36,211.5,43.92c0,33.57-24.19,45.96-50.9,45.96-1.8,0-6.38.12-13.24.12.48-12.15,2.05-64.61,2.17-67.62.12-3.61.6-10.83,1.44-21.66C154.59.24,158.08,0,161.44,0M162.05,75.92c10.47-.96,20.45.6,27.92-6.26,5.29-4.81,7.34-13.36,7.34-21.78,0-16.97-8.18-30.56-26.35-32.37-2.29-.36-4.69-.36-7.1-.48-.6,14.2-1.8,35.5-1.8,58.12v2.77M100.92.48l12.88,3.25c-8.66,28.04-13.72,55.47-18.65,82.78l-16.97,1.68c-7.46-20.7-6.02-30.32-8.3-41.51-2.65,10.35-5.17,23.94-12.15,41.15l-16-.72c-3.49-15.28-10.59-67.5-13.84-83.38l13.96-3.13c6.26,24.67,6.38,47.41,9.51,65.34,5.53-18.05,11.79-40.31,14.56-54.51h15.04c1.32,17.81,2.89,25.75,5.05,51.74,3.73-21.9,7.82-43.68,14.92-62.69M235.93,1.44c.24,12.75.36,25.27.36,60.4v26.95h-15.52c.96-10.59,1.56-31.16,1.56-50.05,0-3.25-.24-32.25-.36-36.7l13.96-.6M134.49,1.44c.24,12.75.36,25.27.36,60.4v26.95h-15.52c.96-10.59,1.56-31.16,1.56-50.05,0-3.25-.24-32.25-.36-36.7l13.96-.6M277.68,28.16c6.62,0,17.81,2.89,17.81,15.16l-11.43,4.69c-1.8-4.09-4.93-5.17-9.99-5.17-6.14,0-14.92,1.2-15.52,5.29,4.69,5.17,25.75,6.02,33.69,8.9,5.17,1.8,11.91,6.98,11.91,13.6,0,14.8-16.72,21.66-34.05,21.66-10.59,0-25.15-2.41-25.15-15.16,0-3.49.96-6.02,3.01-7.82l12.15,1.32c-.36,1.32-.6,2.65-.6,3.97,0,4.33,12.75,4.33,15.64,4.33,5.29,0,11.91-1.68,14.44-5.9-1.56-2.17-7.1-4.93-10.47-5.53-10.47-1.8-35.62-2.89-35.62-17.69s19.25-21.66,34.17-21.66M288.23,105.29c9.63,27.92,25.39,59.92,32.49,83.5l-15.16,3.61c-1.44-3.25-3.49-8.06-6.02-14.2h-34.17c-1.56,5.9-3.01,11.79-4.21,17.57l-14.32-2.53c4.81-23.7,20.09-61.61,28.76-87.96h12.63M269.7,163.88h24.3c-4.45-10.83-8.18-21.3-12.75-35.5-4.93,15.52-8.06,24.19-11.55,35.5M61.13,105.65c-.24,10.47-1.57,87.6-1.57,87.6h-14.2c.24-3.61,1.2-29.36,1.32-32.37H15.04c-.12,4.57-.72,27.67-.72,32.61H0c.48-21.18.72-62.21.72-66.06,0-12.27,0-16.85-.12-21.3h14.44c.24,11.07.24,15.16.24,21.18v20.09c9.38,0,20.94-.12,31.28-.48-.12-5.29-.24-13-.24-17.57,0-11.19.24-17.09.24-23.7h14.56M167.74,106.25c12.03,23.58,17.57,39.47,27.67,64.13,10.71-18.65,22.14-43.44,30.8-64.01l13.96.6c-.36,5.9-.48,12.15-.48,18.53,0,26.71,2.53,54.51,3.25,69.19l-13.96.84c-1.08-8.42-3.37-45.48-3.73-52.94-4.93,9.02-22.62,45-25.87,51.98l-10.35.96c-3.13-7.82-16.72-40.67-19.85-46.81v46.81h-14.32c0-21.78.24-39.71.24-55.83,0-11.31-.12-21.78-.36-32.01l13-1.44M351.64,106.85c2.29,0,4.21.12,5.41.24l-.72,13.96c-2.41.12-9.63.12-18.65.48.72,16.6,1.2,32.85,1.2,50.66,0,6.98,0,14.32-.24,21.9l-14.32,2.29c.24-7.46.36-14.8.36-21.9,0-17.69-.6-34.53-1.32-51.86-7.46.36-15.64,1.32-19.85,1.93l-.48-13.96c20.82-2.53,33.69-3.73,48.61-3.73M104.32,106.97c3.25,0,6.98.12,11.07.36l-.24,13.36c-10.47.24-20.82.72-30.56,2.41.36,8.3.6,11.55.84,19.37,7.46-1.08,23.34-1.44,32.85-2.53l-.48,14.44c-11.43,1.2-24.67,1.32-32.25,2.29.12,4.09.12,10.95.12,14.32,0,5.17-.12,9.39-.48,12.87,3.49-.96,7.34-1.44,16-1.93,5.17-.24,10.23-.72,15.16-1.68l2.04,15.28c-15.88.6-30.2,1.93-47.29,3.37.36-13.48.6-24.43.6-33.09,0-14.68-.72-26.23-2.17-55.23,12.63-1.56,20.46-3.61,34.77-3.61M142.59,107.45c.24,12.75.36,25.27.36,60.4v26.95h-15.52c.96-10.59,1.56-31.16,1.56-50.05,0-3.25-.24-32.25-.36-36.7l13.96-.6M161.44-2.83c-3.48,0-7.12.25-10.84.75-1.33.18-2.35,1.26-2.45,2.59-.84,10.82-1.33,18.14-1.45,21.78-.04,1.01-.24,7.48-.52,16.43-.53,17.17-1.33,43.12-1.65,51.17-.03.77.25,1.52.79,2.08.53.56,1.27.87,2.04.87,4.55,0,8.14-.05,10.51-.09,1.21-.02,2.13-.03,2.73-.03,15.09,0,27.96-3.8,37.21-10.99,10.97-8.52,16.53-21.24,16.53-37.81,0-14.04-5.39-25.96-15.58-34.47-9.49-7.92-22.74-12.29-37.31-12.29h0ZM164.88,72.88c0-18.4.8-35.6,1.43-49.43.09-1.9.17-3.73.25-5.46,1.38.06,2.7.14,3.95.33.05,0,.11.02.16.02,15.12,1.5,23.8,12.27,23.8,29.55,0,8.8-2.34,15.98-6.41,19.68-5.01,4.6-11.52,4.85-19.07,5.13-1.34.05-2.72.1-4.11.18h0ZM100.92-2.35c-1.16,0-2.23.71-2.65,1.84-4.98,13.34-8.5,28.03-11.38,42.8-.34-3.22-.66-6.13-.97-8.91-.8-7.26-1.5-13.52-2.14-22.16-.11-1.48-1.34-2.62-2.83-2.62h-15.04c-1.36,0-2.52.96-2.78,2.29-1.89,9.67-5.77,24.73-10.74,41.72-.32-2.84-.62-5.76-.92-8.74-1.35-13.24-2.88-28.24-6.87-43.96-.32-1.28-1.48-2.14-2.75-2.14-.21,0-.41.02-.62.07L27.26.96c-1.51.34-2.47,1.82-2.16,3.33,1.47,7.18,3.73,21.85,6.12,37.37,2.86,18.52,5.81,37.67,7.73,46.08.28,1.24,1.36,2.14,2.64,2.2l16,.72s.09,0,.13,0c1.15,0,2.19-.7,2.63-1.77,4.11-10.13,6.7-19.04,8.66-26.73.83,6.99,2.25,15.22,6.5,26.99.41,1.13,1.48,1.87,2.67,1.87.09,0,.19,0,.28-.01l16.97-1.68c1.26-.13,2.28-1.07,2.51-2.32,4.56-25.22,9.72-53.81,18.57-82.45.23-.74.14-1.55-.24-2.23-.38-.68-1.02-1.17-1.78-1.36l-12.88-3.25c-.23-.06-.47-.09-.69-.09h0ZM235.93-1.39s-.08,0-.12,0l-13.96.6c-1.55.07-2.75,1.36-2.71,2.91.12,4.45.36,33.59.36,36.62,0,19.57-.62,39.58-1.55,49.8-.07.79.19,1.58.73,2.17.54.59,1.3.92,2.09.92h15.52c1.57,0,2.83-1.27,2.83-2.83v-26.95c0-35.12-.12-47.47-.36-60.46-.01-.76-.34-1.49-.89-2.01-.53-.5-1.22-.77-1.94-.77h0ZM134.49-1.39s-.08,0-.12,0l-13.96.6c-1.55.07-2.75,1.36-2.71,2.91.12,4.47.36,33.6.36,36.62,0,19.57-.62,39.58-1.55,49.8-.07.79.19,1.58.73,2.17.54.59,1.3.92,2.09.92h15.52c1.57,0,2.83-1.27,2.83-2.83v-26.95c0-35.12-.12-47.48-.36-60.46-.01-.76-.34-1.49-.89-2.01-.53-.5-1.22-.77-1.94-.77h0ZM277.68,25.32c-8.4,0-17.38,2.13-24.02,5.71-8.37,4.51-12.98,11.18-12.98,18.78,0,15.24,20.68,18.07,33.03,19.76,1.83.25,3.55.49,4.94.72,2.08.37,5.04,1.74,6.94,2.98-2.55,1.93-6.87,2.82-10.43,2.82-9.6,0-12.24-1.39-12.8-1.8.03-.86.19-1.82.5-2.92.22-.8.07-1.66-.39-2.34-.47-.69-1.21-1.13-2.04-1.22l-12.15-1.32c-.1-.01-.21-.02-.31-.02-.69,0-1.35.25-1.88.71-2.67,2.36-3.97,5.61-3.97,9.95,0,11.6,9.94,18,27.98,18s36.89-7.57,36.89-24.49c0-8.4-8.26-14.34-13.81-16.27-3.19-1.16-8.13-1.97-13.36-2.84-5.82-.96-13.39-2.21-17.21-4,1.89-.9,5.84-1.85,11.47-1.85,4.95,0,6.37,1.17,7.39,3.48.47,1.06,1.5,1.69,2.59,1.69.36,0,.72-.07,1.08-.21l11.43-4.69c1.06-.44,1.76-1.47,1.76-2.62,0-6.38-2.68-11.43-7.76-14.59-4.94-3.07-10.66-3.41-12.88-3.41h0ZM288.23,102.45h-12.63c-1.22,0-2.31.79-2.69,1.95-2.72,8.28-6.07,17.61-9.61,27.5-6.95,19.4-14.11,39.38-17.96,55.12-.14-2.27-.31-4.72-.48-7.32-.98-14.74-2.33-34.93-2.33-54.2,0-7.11.16-13.12.48-18.36.05-.76-.21-1.51-.72-2.07-.51-.57-1.22-.9-1.98-.93l-13.96-.6s-.08,0-.12,0c-1.14,0-2.17.68-2.61,1.73-9.3,22.08-19.25,43.05-27.78,58.59-1.52-3.76-2.95-7.33-4.34-10.81-6.43-16.09-11.98-29.98-21.22-48.09-.49-.96-1.47-1.55-2.52-1.55-.1,0-.21,0-.31.02l-13,1.44c-1.46.16-2.56,1.41-2.52,2.88.24,10.32.36,20.76.36,31.94,0,7.45-.05,15.35-.11,23.71-.07,10.03-.13,20.4-.13,32.12,0,1.57,1.27,2.83,2.83,2.83h14.32c1.57,0,2.83-1.27,2.83-2.83v-33.5c5.13,11.97,12.07,28.75,14.39,34.56.43,1.08,1.48,1.78,2.63,1.78.09,0,.18,0,.26-.01l10.35-.96c1-.09,1.88-.71,2.31-1.63,2.56-5.5,13.91-28.64,21.06-42.72.84,13.87,2.32,36.33,3.16,42.84.18,1.42,1.39,2.47,2.81,2.47.06,0,.11,0,.17,0l13.96-.84c1.12-.07,2.05-.77,2.45-1.74.25.12.51.21.79.26l14.32,2.53c.17.03.33.04.5.04,1.32,0,2.49-.92,2.77-2.26.97-4.67,2.16-9.7,3.62-15.31h30.09c2.12,5.12,3.95,9.42,5.32,12.51.46,1.04,1.49,1.68,2.59,1.68.22,0,.44-.03.66-.08l15.16-3.61c.09-.02.17-.05.26-.07-.04,1.6-.09,3.2-.14,4.81-.03.85.32,1.66.96,2.22.52.46,1.19.71,1.87.71.15,0,.3-.01.45-.04l14.32-2.29c1.34-.21,2.34-1.35,2.39-2.71.24-7.63.24-14.93.24-21.99,0-15.15-.34-30.04-1.08-47.93,4.35-.15,8.14-.21,11.04-.26,2.23-.04,3.83-.07,4.8-.12,1.45-.07,2.61-1.23,2.69-2.68l.72-13.96c.08-1.51-1.04-2.82-2.55-2.97-.77-.08-2.85-.25-5.7-.25-15.26,0-28.46,1.26-48.95,3.75-1.46.18-2.54,1.44-2.49,2.91l.48,13.96c.03.8.4,1.56,1.01,2.08.51.43,1.16.66,1.82.66.13,0,.27,0,.4-.03,4.03-.58,10.51-1.33,16.74-1.74.6,14.69,1.2,31.53,1.2,48.86,0,2.75-.02,5.54-.05,8.36-3.87-11.61-9.36-24.73-15.12-38.52-5.58-13.34-11.35-27.13-15.77-39.96-.39-1.14-1.47-1.91-2.68-1.91h0ZM273.56,161.05c1.4-4.41,2.77-8.55,4.31-13.18,1.04-3.13,2.17-6.51,3.41-10.31,2.98,8.93,5.65,16.27,8.53,23.49h-16.24ZM61.13,102.81h-14.56c-1.57,0-2.83,1.27-2.83,2.83,0,2.85-.04,5.55-.1,8.67-.07,4.07-.14,8.69-.14,15.04,0,3.86.08,9.88.18,14.83-9.54.29-19.21.37-25.56.38v-17.26c0-6.11,0-10.14-.24-21.24-.03-1.54-1.29-2.77-2.83-2.77H.6c-.77,0-1.5.31-2.03.86-.53.55-.82,1.29-.8,2.05.12,4.41.12,8.99.12,21.22,0,3.81-.24,44.84-.72,65.99-.02.76.27,1.5.81,2.05.53.55,1.26.85,2.03.85h14.32c1.57,0,2.83-1.27,2.83-2.83,0-4.24.45-22.08.65-29.77h25.94c0,.16-.01.33-.02.51-.3,7.75-.99,25.9-1.19,28.83-.05.78.22,1.55.76,2.13.54.57,1.29.9,2.07.9h14.2c1.55,0,2.81-1.24,2.83-2.79.01-.77,1.33-77.24,1.56-87.58.02-.76-.27-1.5-.81-2.05s-1.26-.85-2.03-.85h0ZM104.32,104.13c-10.45,0-17.66,1.09-25.3,2.24-3.08.46-6.26.95-9.82,1.39-1.47.18-2.56,1.47-2.48,2.95.22,4.49.43,8.57.62,12.3,1.03,20.28,1.54,30.46,1.54,42.79,0,9.32-.29,21.37-.6,33.01-.02.81.3,1.58.89,2.14.53.5,1.23.77,1.95.77.08,0,.16,0,.24-.01l5.99-.51c14.62-1.25,27.24-2.32,41.17-2.85.8-.03,1.55-.4,2.06-1.01.51-.61.75-1.41.64-2.2l-2.04-15.28c-.1-.77-.52-1.47-1.16-1.93-.49-.35-1.06-.53-1.65-.53-.18,0-.36.02-.54.05-4.36.85-9.04,1.37-14.75,1.64-5.98.33-9.76.67-12.76,1.17.14-2.55.2-5.56.2-9.29,0-2.7,0-7.76-.06-11.78,3.31-.31,7.4-.52,11.67-.75,5.67-.3,12.11-.64,17.99-1.26,1.41-.15,2.49-1.31,2.54-2.72l.48-14.44c.03-.82-.3-1.62-.91-2.18-.53-.49-1.21-.75-1.92-.75-.11,0-.21,0-.32.02-4.43.5-10.35.85-16.08,1.19-5.06.3-9.91.59-13.71.97-.12-3.37-.25-5.96-.39-8.85-.07-1.5-.15-3.09-.24-4.95,9.09-1.37,18.64-1.76,27.68-1.97,1.52-.03,2.74-1.26,2.77-2.78l.24-13.36c.03-1.52-1.15-2.79-2.67-2.88-4.12-.24-7.9-.37-11.24-.37h0ZM142.59,104.62s-.08,0-.12,0l-13.96.6c-1.55.07-2.75,1.36-2.71,2.91.12,4.48.36,33.6.36,36.62,0,19.58-.62,39.59-1.55,49.8-.07.79.19,1.58.73,2.17.54.59,1.3.92,2.09.92h15.52c1.57,0,2.83-1.27,2.83-2.83v-26.95c0-34.89-.12-47.73-.36-60.46-.01-.76-.34-1.49-.89-2.01-.53-.5-1.22-.77-1.94-.77h0Z"/>
  </g>
</svg>