<?xml version="1.0" encoding="UTF-8"?>
<svg id="Ebene_1" xmlns="http://www.w3.org/2000/svg" version="1.1" viewBox="0 0 362.06 202.9">
  <!-- Generator: Adobe Illustrator 29.5.0, SVG Export Plug-In . SVG Version: 2.1.0 Build 137)  -->
  <defs>
    <style>
      .st0 {
        fill: #f7a705;
      }
    </style>
  </defs>
  <path class="st0" d="M27.44,84.94c-6.39-17.9-13.28-43.57-15.34-57.74l-4.23.3h-.2c-3.15,0-5.7-2.66-5.7-5.9s2.46-5.7,6.1-6.1c3.34-.39,7.28-.59,11.21-.59,4.23,0,8.16.1,11.8.39,3.84.39,6.1,2.66,6.1,6s-2.36,5.9-5.9,5.9h-.2l-6.98-.29c3.25,16.43,6.1,27.84,10.52,42.1,4.92-11.31,9.44-25.97,13.57-43.67.79-2.95,2.95-4.62,6.2-4.62,2.95,0,5.41,1.97,5.9,4.72,3.74,18.59,7.28,32.36,11.51,43.67,6.39-17.61,9.44-28.23,11.51-40.43-2.36-.1-5.8-.69-7.77-1.28-2.85-.89-4.43-2.95-4.43-5.8,0-4.72,5.31-7.08,15.84-7.08h3.54c3.64,0,6.29.2,8.85.59,4.03.69,6,2.56,6,5.8,0,3.54-2.36,6-5.61,6l-3.93-.2c-2.85,19.38-12.79,49.87-19.48,59.8-.98,1.67-3.15,2.95-5.11,2.95-2.66,0-4.13-1.08-5.8-4.33-2.56-4.82-7.28-19.38-11.8-35.7-6,18.29-12.29,33.34-15.93,37.97-.98,1.38-2.56,2.16-4.33,2.16-3.05,0-5.02-1.57-5.9-4.62Z"/>
  <path class="st0" d="M114.19,88.58c-3.44,0-5.9-2.46-5.9-6s2.46-6,5.9-6h6.59c.3-8.26.49-18.69.49-29.8,0-8.75-.1-14.06-.2-21.15l-5.41-.1c-3.44-.2-5.8-2.46-6-6,0-3.34,2.75-6,6-6,2.56,0,5.41.2,10.23.2,7.08,0,10.43-.49,13.87-.49s5.7,2.46,5.7,5.9-2.46,5.9-6.2,6.1l-6.2.29c.1,3.44.1,6.1.1,17.41,0,13.57-.1,24.79-.39,33.84l5.11.2c3.44.1,6,2.66,6,6s-2.56,6-6,6c-4.82,0-9.84-.39-23.7-.39Z"/>
  <path class="st0" d="M151.76,81.79c0-3.25,2.56-6,5.71-6h.29l3.93.3c-.59-11.41-.88-22.92-.88-34.52,0-6.39.1-10.72.2-17.02l-4.62.29h-.29c-3.05,0-5.71-2.75-5.71-6s2.46-5.61,6-6c2.07-.2,6.39-.39,8.56-.39h3.84c16.13,0,26.75,2.16,34.33,6.98,9.34,6,13.57,15.44,13.57,30.29s-6.39,27.15-17.11,33.64c-5.61,3.34-15.15,5.21-26.75,5.21-3.93,0-8.46-.2-15.05-.79-3.44-.29-5.8-2.56-6-6ZM177.23,76.38c1.97,0,4.03-.1,7.57-.49,12.1-1.48,19.87-11.8,19.87-26.56,0-17.9-8.36-24.49-31.67-24.88-.1,6.29-.2,10.62-.2,17.11,0,11.7.29,23.21.89,34.72l3.54.1Z"/>
  <path class="st0" d="M226.51,88.58c-3.44,0-5.9-2.46-5.9-6s2.46-6,5.9-6h6.59c.29-8.26.49-18.69.49-29.8,0-8.75-.1-14.06-.2-21.15l-5.41-.1c-3.44-.2-5.8-2.46-6-6,0-3.34,2.75-6,6-6,2.56,0,5.41.2,10.23.2,7.08,0,10.43-.49,13.87-.49s5.71,2.46,5.71,5.9-2.46,5.9-6.2,6.1l-6.2.29c.1,3.44.1,6.1.1,17.41,0,13.57-.1,24.79-.39,33.84l5.12.2c3.44.1,6,2.66,6,6s-2.56,6-6,6c-4.82,0-9.84-.39-23.71-.39Z"/>
  <path class="st0" d="M269.09,87.5c-3.15-1.28-4.23-2.75-4.52-6.2l-.39-7.38v-.2c0-3.05,2.66-5.61,5.9-5.61,3.44,0,5.71,2.16,6,5.61l.29,4.03c1.77.49,4.23,1.28,9.25,1.28,5.51,0,9.25-2.36,9.25-5.9,0-2.16-1.97-3.05-12.49-5.51-12.2-2.85-17.41-7.87-17.41-16.52,0-10.23,8.16-16.43,21.44-16.43,3.93,0,8.56.49,13.77,1.57,3.44.69,5.31,2.85,5.31,6.2v7.08c0,3.64-2.75,6.29-6.49,6.29-3.34,0-5.51-2.36-5.51-6v-3.44c-2.36-.39-4.43-.49-7.18-.49-5.61,0-9.34,1.97-9.34,4.92,0,2.56,1.97,3.64,9.25,5.21,14.95,3.15,20.56,7.87,20.56,17.51s-9.15,17.02-21.25,17.02c-6.49,0-11.41-.89-16.43-3.05Z"/>
  <path class="st0" d="M56.16,185.45c-3.74,0-4.82,0-6,.1-3.05,0-5.7-2.75-5.7-6,0-3.54,2.56-6,6-6l4.23-.1c.49-5.41.79-12.69.79-19.47-11.8.49-21.64.69-30.98.69-.1,7.08-.29,11.8-.49,18.88,2.66,0,5.41.1,8.07.29,3.93.29,6,2.36,6,5.9,0,3.34-2.56,6-5.8,6h-.2c-9.25-.39-15.34-.49-20.85-.49h-3.25c-3.34,0-6-2.66-6-6s2.75-6,6-6h4.03c.39-9.44.59-18.98.59-28.43,0-6.79-.1-13.48-.29-20.26h-3.74c-3.54,0-5.9-2.56-5.9-6.49,0-2.95,2.56-5.31,5.9-5.51,3.54-.2,7.08-.2,10.72-.2s7.08,0,10.62.2c3.54.1,6,2.56,6,6s-2.56,6-6,6h-5.61c.2,6,.29,12.1.29,18.1,10.33,0,20.66-.2,30.98-.59.2-4.03.2-14.16-.1-17.41h-3.93c-3.34,0-5.8-2.46-6-6,0-3.15,2.66-5.8,5.7-5.9l8.46-.1c3.93,0,7.97.1,11.9.29,3.44.2,6,2.75,6,6s-2.56,6-5.7,6h-.29l-4.13-.2.2,14.85c0,12.1-.29,23.41-.98,34.03l5.9.3c3.34,0,6,2.66,6,6,0,3.64-2.36,6-6,6-7.28-.39-12.1-.49-16.43-.49Z"/>
  <path class="st0" d="M82.52,160.08c0-16.62,10.52-28.52,25.38-28.52,11.8,0,20.75,7.38,20.75,17.11,0,10.43-9.15,17.41-22.92,17.41-3.64,0-7.28-.49-10.72-1.57,1.38,5.21,6.39,9.05,11.9,9.05,7.97,0,12.39-3.74,14.36-5.21.98-.49,1.97-.79,3.05-.79,3.25,0,6,2.75,6,6,0,1.97-1.08,3.84-2.95,5.11-1.38,1.08-8.36,6.88-20.06,6.88-14.36,0-24.79-10.72-24.79-25.47ZM116.65,148.77c0-3.15-3.44-5.21-8.66-5.21-6.29,0-10.52,3.25-12.69,9.93,3.25.69,6.2.98,9.15.98,7.18,0,12.2-2.36,12.2-5.7Z"/>
  <path class="st0" d="M136.71,180.63c0-3.44,2.56-6,6-6,1.18.1,2.26.1,3.44.1.59-7.77.88-15.05.88-21.74,0-5.02,0-6.2-.1-7.87-1.28-.1-2.26-.1-6.1-.1-3.05-.1-5.31-2.36-5.61-5.41v-.49c0-3.34,2.56-6,6-6.1h.2c4.72,0,8.16.2,12.39.79,3.34.39,5.21,2.56,5.21,6v4.52c0,12.88-.29,23.21-.88,30.39,1.28,0,2.56-.2,3.74-.2,3.05,0,5.61,2.66,5.8,6,0,3.15-2.36,5.7-5.61,6-3.25.2-6.49.29-9.83.29l-9.54-.2c-3.54-.1-6-2.56-6-6ZM145.66,119.46c0-4.13.49-10.92.89-12.69.79-3.54,3.15-5.51,6.49-5.51s6,2.75,6,6c0,3.64-.29,7.48-1.08,12.88-.49,3.64-2.95,6-6.1,6-3.74,0-6.2-2.66-6.2-6.69Z"/>
  <path class="st0" d="M173.49,179.95c0-3.34,2.66-6,6-6h2.26c.2-4.33.3-8.66.3-12.98,0-6.49-.1-11.41-.39-15.84-1.67.3-3.34.89-5.02.89-3.25,0-6-2.66-6-5.8,0-2.85,1.77-5.21,4.43-6,2.66-.79,6.39-1.28,8.95-1.28,3.54,0,6,1.18,7.87,3.74,4.43-3.15,8.26-4.52,12.79-4.52,6.29,0,10.92,2.36,14.46,7.48,4.72-4.33,9.93-6.39,15.83-6.39,8.95,0,15.64,8.07,15.64,19.08,0,9.93-.79,14.07-1.08,21.44l1.67-.2h.79c3.05,0,5.51,2.56,5.51,5.61,0,4.23-3.25,6.59-8.95,6.59-6.49,0-11.02-4.33-11.02-10.43,0-5.21,1.08-13.18,1.08-21.25,0-5.51-1.57-8.85-4.13-8.85-4.23,0-9.64,2.75-12,6.1,0,10.03-1.28,19.67-1.28,23.02h3.44c3.25,0,5.7,2.56,5.7,5.8,0,3.74-2.95,6.2-7.67,6.2-9.05,0-13.38-3.74-13.38-11.31,0-6.29,1.28-12.98,1.28-20.26s-1.77-10.62-5.41-10.62-9.05,2.26-11.41,4.62c.29,3.44.39,7.48.39,12.79s-.1,9.15-.39,12.79l2.66.2c3.74.29,5.9,2.56,5.9,6s-2.46,6-5.61,6c-2.26,0-8.46-.59-17.21-.59-3.54,0-6-2.46-6-6Z"/>
  <path class="st0" d="M265.35,170.7c0-11.11,9.54-18.29,24.2-18.29,1.87,0,3.44.1,5.31.49l.1-1.77c0-6.1-2.66-9.05-8.16-9.05-3.54,0-6.29,1.57-9.84,5.7-1.18,1.18-2.75,1.77-4.52,1.77-3.15,0-5.8-2.66-5.8-5.7,0-1.77.49-3.15,1.67-4.52,5.11-6.2,11.41-9.25,18.88-9.25,11.61,0,19.67,8.56,19.67,20.75,0,4.33-.39,7.77-.39,14.16,0,4.43.29,6.79.98,7.87,1.67,0,2.66-.3,3.64-.3,3.34,0,6,2.56,6,5.9,0,4.13-3.15,6.39-8.85,6.39-4.53,0-8.26-1.77-10.52-4.92-4.23,3.64-8.95,5.31-14.75,5.31-10.03,0-17.61-6.2-17.61-14.56ZM294.66,169.42c-.1-1.18-.2-2.75-.2-4.52-1.38-.39-2.36-.49-5.02-.49-7.28,0-12.2,2.36-12.2,5.8,0,1.87,2.26,3.15,5.8,3.15,3.93,0,7.57-1.28,11.61-3.93Z"/>
  <path class="st0" d="M327.41,145.03l-5.02.2c-3.15,0-5.8-2.75-5.8-6s2.56-5.8,6-6l5.8-.2.88-11.31c.2-3.64,2.66-6,6.2-6,3.25,0,5.7,2.56,5.7,5.9v.49l-.79,10.62h10.03c3.64.1,6,2.46,6,6s-2.46,6-6,6l-10.92.1-.59,17.8v1.97c0,7.97,2.07,11.11,7.08,11.11,3.74,0,7.08-1.38,8.36-1.38,3.54,0,6.2,2.46,6.2,5.9,0,2.85-1.77,5.11-4.43,5.9-2.36.79-7.08,1.48-10.13,1.48-12.2,0-19.08-8.06-19.08-22.52v-1.48l.59-18.59h-.1Z"/>
</svg>