<?xml version="1.0" encoding="UTF-8"?>
<svg id="Ebene_2" xmlns="http://www.w3.org/2000/svg" version="1.1" viewBox="0 0 447.34 601.79">
  <!-- Generator: Adobe Illustrator 29.5.0, SVG Export Plug-In . SVG Version: 2.1.0 Build 137)  -->
  <defs>
    <style>
      .st0 {
        fill: #b09690;
      }
    </style>
  </defs>
  <path class="st0" d="M30.98,33.28l-1.2-4.23-5.85-.1c-2.72,0-5.75.05-8.46.16l-1.41,4.39,3.55-.16h.1c1.78,0,3.08,1.36,3.08,3.19s-1.31,3.19-3.19,3.19l-13.01.21c-1.99,0-3.19-1.25-3.19-3.34,0-1.36,1.04-2.66,2.3-2.93,1.46-.31,2.82-.57,4.08-1.04,2.4-7.73,5.69-16.04,10.03-25.18l-4.6.21c-1.57,0-2.93-1.41-3.03-3.19,0-1.78,1.25-3.03,3.19-3.19,3.61-.21,4.49-.31,8.1-.31,2.35,0,5.38.21,6.01.42,1.31.42,1.93,1.15,2.3,2.56,2.46,9.51,4.91,19.07,7.63,28.58.58,1.83,1.83,2.98,3.34,2.98.42,0,1.62-.21,1.99-.21,1.83,0,3.13,1.25,3.13,3.03,0,1.52-.78,2.61-2.3,3.13-.73.26-1.83.42-2.98.42-4.91,0-7.94-2.72-9.61-8.57ZM23.2,22.57l4.81.05c-1.41-5.43-2.66-10.24-3.76-14.84-2.61,5.49-4.7,9.87-6.37,14.84l5.33-.05Z"/>
  <path class="st0" d="M59.93,39.6c-1.83-.21-2.98-1.41-2.98-3.24s1.31-3.13,3.19-3.13c.73,0,1.46.16,2.19.21.37-8.36.26-18.23-.47-26.59-.94.05-1.83.16-2.72.26h-.26c-1.62,0-2.93-1.46-2.93-3.19,0-1.57,1.25-2.98,2.87-3.19,2.98-.37,6.22-.57,9.56-.57,11.39,0,17.5,4.13,17.5,11.91,0,2.72-1.41,5.22-3.81,6.74,4.65,1.78,7.11,5.12,7.11,9.67,0,7.63-6.22,11.76-17.66,11.76-4.39,0-8.57-.21-11.6-.63ZM79.36,12.02c0-3.87-3.29-5.49-11.18-5.49l.42,10.66c7.21,0,10.76-1.72,10.76-5.17ZM70.95,33.91c8.15,0,11.86-1.67,11.86-5.38s-3.71-5.49-11.44-5.49c-1.36,0-1.99,0-2.67.05,0,3.6,0,7.16-.1,10.76.63.05,1.25.05,2.35.05Z"/>
  <path class="st0" d="M103.92,20.27c0-12.33,7.16-19.38,19.7-19.38,3.66,0,6.9.57,8.46,1.57,1.46.84,2.3,1.93,2.3,3.66v5.59c0,1.72-1.25,2.93-3.19,3.08-1.78,0-3.13-1.41-3.13-3.19l.1-3.87c-1.72-.37-3.03-.47-4.91-.47-3.61,0-6.95.94-8.99,2.51-2.67,1.99-3.97,5.38-3.97,10.29,0,8.99,3.97,13.48,12.02,13.48,2.19,0,4.18-.26,5.96-.73l.05-3.29c0-1.78,1.46-3.19,3.19-3.19,1.88,0,3.19,1.31,3.19,3.19l-.16,5.9c-.05,1.57-.42,2.19-1.57,2.61-3.08,1.2-6.95,1.88-10.61,1.88-11.44,0-18.44-7.47-18.44-19.64Z"/>
  <path class="st0" d="M149.64,36.83c0-1.72,1.36-3.19,3.03-3.19h.16l2.09.16c-.31-6.06-.47-12.17-.47-18.34,0-3.4.05-5.69.1-9.04l-2.46.16h-.16c-1.62,0-3.03-1.46-3.03-3.19s1.31-2.98,3.19-3.19c1.1-.1,3.4-.21,4.55-.21h2.04c8.57,0,14.21,1.15,18.23,3.71,4.96,3.19,7.21,8.2,7.21,16.09s-3.4,14.42-9.09,17.87c-2.98,1.78-8.05,2.77-14.21,2.77-2.09,0-4.49-.1-7.99-.42-1.83-.16-3.08-1.36-3.19-3.19ZM163.17,33.96c1.04,0,2.14-.05,4.02-.26,6.43-.78,10.55-6.27,10.55-14.11,0-9.51-4.44-13.01-16.82-13.22-.05,3.34-.1,5.64-.1,9.09,0,6.22.16,12.33.47,18.44l1.88.05Z"/>
  <path class="st0" d="M199.22,35.89c0-1.78,1.41-3.19,3.19-3.19l2.93.21c-.26-8.46-.42-16.98-.42-26.23l-4.08.1h-.1c-1.62,0-2.93-1.41-2.93-3.19s1.36-3.13,3.19-3.19c7.78-.26,16.41-.42,25.39-.42,1.93,0,3.19,1.25,3.19,3.19l-.21,6.06c-.05,1.93-1.31,3.19-3.19,3.19s-3.19-1.25-3.19-3.19l.1-2.93-3.4-.05c-2.82,0-5.75.1-8.41.16v3.08c0,4.6,0,5.8.05,7.26h3.19c2.4,0,4.18-.05,8.31-.16h.1c1.83,0,3.08,1.31,3.08,3.19,0,1.78-1.31,3.08-3.19,3.19-3.24.1-5.9.16-8.52.16h-2.93c.05,3.03.16,6.11.31,10.03l6.06.1,5.96-.1.37-2.93c.26-1.67,1.51-2.82,3.08-2.82,1.93,0,3.29,1.31,3.29,3.24v.37l-.58,5.38c-.26,2.04-1.25,2.98-3.19,3.03-2.82.1-5.59.16-8.41.16-5.8,0-11.08-.16-15.88-.52-1.78,0-3.19-1.41-3.19-3.19Z"/>
  <path class="st0" d="M246.5,39.92c-1.83-.16-2.93-1.25-3.03-2.93v-.21c0-1.93,1.25-3.24,3.24-3.29l2.98.05c.21-5.49.26-9.2.26-12.38,0-4.86-.16-9.4-.42-13.9l-3.13.05h-.21c-1.78-.05-3.08-1.36-3.08-3.19s1.2-3.08,3.08-3.19c8.41-.47,15.2-.73,20.74-.73h2.56c1.93.05,3.34,1.04,3.34,2.87-.1,2.25-.16,4.49-.16,6.74,0,1.83-1.2,3.13-3.08,3.29h-.1c-1.72,0-3.13-1.36-3.19-3.03l.05-3.4h-2.25c-3.45,0-6.17.05-8.2.21.37,3.92.31,9.51.37,12.33,2.93.21,6.53.21,10.45-.05,1.88-.1,3.08,1.25,3.08,3.13s-1.36,3.19-3.34,3.24l-4.34.05-5.85-.05c0,2.56-.16,5.69-.26,8.25,2.3.16,4.81.16,7.11.57,1.83.37,2.77,1.36,2.77,2.98v.26c0,1.83-1.31,3.08-3.13,3.08h-.1c-4.39-.42-9.51-.57-16.14-.78Z"/>
  <path class="st0" d="M286.53,21.21c-.21-11.44,7.11-19.59,17.82-19.8,4.02-.05,9.04.73,11.75,1.88,1.04.57,1.62,1.52,1.62,2.72l.1,6.17c.05,1.83-1.31,3.19-3.13,3.24-1.88,0-3.19-1.25-3.24-3.13l-.05-3.76c-2.35-.52-4.49-.78-6.9-.73-7.31.16-11.75,5.28-11.6,13.48.16,8.73,4.55,13.11,13.06,12.96,2.19-.05,4.44-.42,6.48-1.04l.05-5.33c-.47.05-.89.05-2.46.05-1.51.05-1.93.05-2.46,0-1.88-.05-3.19-1.36-3.24-3.13,0-1.72,1.36-3.19,2.98-3.24h.16l3.45.05c2.93-.05,5.9-.26,9.4-.68h.26c1.78-.05,2.98,1.1,3.03,2.87.05,1.93-1.1,3.19-3.13,3.45l-1.62.16-.05,7.58c-.05,1.83-.42,2.56-1.83,3.19-3.71,1.67-6.58,2.3-10.71,2.4-12.38.21-19.54-6.74-19.75-19.33Z"/>
  <path class="st0" d="M365,39.65c-1.99,0-2.56,0-3.19.05-1.62,0-3.03-1.46-3.03-3.19,0-1.88,1.36-3.19,3.19-3.19l2.25-.05c.26-2.87.42-6.74.42-10.34-6.27.26-11.5.37-16.46.37-.05,3.76-.16,6.27-.26,10.03,1.41,0,2.87.05,4.28.16,2.09.16,3.19,1.25,3.19,3.13,0,1.78-1.36,3.19-3.08,3.19h-.1c-4.91-.21-8.15-.26-11.08-.26h-1.72c-1.78,0-3.19-1.41-3.19-3.19s1.46-3.19,3.19-3.19h2.14c.21-5.02.31-10.08.31-15.1,0-3.6-.05-7.16-.16-10.76h-1.99c-1.88,0-3.13-1.36-3.13-3.45,0-1.57,1.36-2.82,3.13-2.93,1.88-.1,3.76-.1,5.69-.1s3.76,0,5.64.1c1.88.05,3.19,1.36,3.19,3.19s-1.36,3.19-3.19,3.19h-2.98c.1,3.19.16,6.43.16,9.61,5.49,0,10.97-.1,16.46-.31.1-2.14.1-7.52-.05-9.25h-2.09c-1.78,0-3.08-1.31-3.19-3.19,0-1.67,1.41-3.08,3.03-3.13l4.49-.05c2.09,0,4.23.05,6.32.16,1.83.1,3.19,1.46,3.19,3.19s-1.36,3.19-3.03,3.19h-.16l-2.2-.1.11,7.89c0,6.43-.16,12.43-.52,18.08l3.13.16c1.78,0,3.19,1.41,3.19,3.19,0,1.93-1.25,3.19-3.19,3.19-3.87-.21-6.43-.26-8.72-.26Z"/>
  <path class="st0" d="M392.69,40.44c-1.83,0-3.13-1.31-3.13-3.19s1.31-3.19,3.13-3.19h3.5c.16-4.39.26-9.93.26-15.83,0-4.65-.05-7.47-.1-11.23l-2.87-.05c-1.83-.1-3.08-1.31-3.19-3.19,0-1.78,1.46-3.19,3.19-3.19,1.36,0,2.87.1,5.43.1,3.76,0,5.54-.26,7.37-.26s3.03,1.31,3.03,3.13-1.31,3.13-3.29,3.24l-3.29.16c.05,1.83.05,3.24.05,9.25,0,7.21-.05,13.17-.21,17.97l2.72.1c1.83.05,3.19,1.41,3.19,3.19s-1.36,3.19-3.19,3.19c-2.56,0-5.22-.21-12.59-.21Z"/>
  <path class="st0" d="M423.88,39.03c-1.46-.73-1.93-1.67-1.93-4.08l.05-5.17c0-1.67,1.41-3.03,3.19-3.03,1.93,0,3.13,1.2,3.13,3.19v3.97c1.15.31,1.67.37,2.77.37,3.97,0,5.54-2.61,5.54-9.25,0-6.27-1.31-15.36-1.31-18.13l-4.86-.16c-1.93-.1-3.34-1.41-3.34-3.19s1.41-3.19,3.08-3.19h.1c3.34.1,5.33.21,7.47.21,1.46,0,2.93-.05,6.22-.31h.37c1.83,0,2.98,1.15,2.98,3.08,0,1.72-1.25,2.98-3.24,3.24-1.15.16-1.78.21-2.4.21,0,3.13,1.31,11.34,1.31,18.13,0,10.55-4.08,15.73-12.44,15.73-2.14,0-4.6-.57-6.69-1.62Z"/>
  <path class="st0" d="M26.23,95.25c-2.46-5.85-4.23-8.99-6.27-11.18-2.19,2.35-4.18,4.34-6.37,6.79l.21,5.33c1.52.05,2.98.05,4.49.16,1.93,0,3.19,1.25,3.19,3.19,0,1.83-1.31,3.19-3.08,3.19h-.1c-1.1-.1-1.99-.1-5.54-.1-2.82,0-5.69.05-8.15.21h-.21c-1.78,0-2.98-1.31-2.98-3.19s1.2-3.08,3.19-3.19l2.82-.1c-.16-4.39-.26-7.42-.26-10.08,0-5.33.21-10.61.63-15.94h-1.72c-1.99-.1-3.19-1.36-3.19-3.4,0-1.67,1.41-2.98,3.19-2.98h2.4c3.19,0,4.7-.05,8.2-.16h.1c1.72,0,2.93,1.31,2.93,3.19s-1.31,3.13-3.19,3.19l-2.35.1c-.42,4.13-.68,8.93-.68,12.85,3.76-4.23,7.99-9.25,12.17-13.27-1.31-.57-2.09-1.67-2.09-2.87,0-1.72,1.36-3.19,2.87-3.19h.1l3.34.05c2.51,0,5.07-.1,7.99-.31h.26c1.67,0,2.93,1.36,2.93,3.13s-1.25,3.13-3.19,3.24l-3.66.21c-2.61,2.09-6.43,6.17-9.77,9.72,2.46,2.35,4.7,6.06,7.11,11.81,1.15,2.72,3.24,8.52,6.37,8.52.89,0,1.36-.1,1.67-.1,1.72,0,3.08,1.36,3.08,3.13,0,1.41-.78,2.51-2.09,3.03-.68.21-1.72.37-2.72.37-4.91,0-8.25-3.24-11.65-11.34Z"/>
  <path class="st0" d="M58.57,96.92l1.62-.16c-.05-1.57-.05-2.82-.05-7.52,0-6.27.16-12.59.47-18.91l-2.61-.1c-1.83-.05-3.08-1.31-3.19-3.19,0-1.83,1.36-3.19,3.19-3.19,1.15,0,4.39.31,8.36.31l6.48-.1c1.78,0,3.19,1.41,3.19,3.19,0,1.88-1.2,3.08-3.19,3.19l-4.28.1h-1.57c-.31,5.28-.52,12.64-.52,18.55,0,4.65,0,5.85.1,7.31l4.34-.05c2.56,0,5.07.05,7.58.16.05-.37.05-.68.05-1.72v-.16c0-1.25-.16-2.56-.16-3.97,0-1.67,1.41-2.98,3.19-2.98,1.93,0,3.03,1.25,3.13,3.5l.1,4.91c0,2.25,0,2.87-.1,3.6-.16,2.14-1.36,3.29-3.4,3.29-3.19,0-3.4-.31-10.34-.31-5.8,0-9.98.57-12.17.57s-3.29-1.15-3.29-3.08c0-1.78,1.25-3.08,3.08-3.24Z"/>
  <path class="st0" d="M99.9,102.25c-1.72,0-2.98-1.36-2.98-3.13,0-1.67,1.25-2.98,3.08-3.19l2.77-.21c.16-7.89.89-18.08,1.93-26.7l-2.82-.1h-.1c-1.93-.1-3.19-1.36-3.19-3.13s1.25-3.13,3.08-3.24c.78,0,2.72.21,4.86.21h1.04c.42-.05.78-.05,1.93-.05,3.4,0,4.54.68,5.49,3.24,1.88,6.79,3.97,15.31,6.69,22,2.98-6.32,6.32-15.94,9.25-22.15.84-2.14,2.19-3.08,4.65-3.34,2.67-.26,5.07-.47,7.47-.63h.16c1.78,0,3.19,1.2,3.4,2.87v.31c0,1.67-1.15,2.98-2.82,3.13l-2.56.26c.1,5.8.37,11.91.37,17.92,0,3.29-.1,6.22-.26,9.04.78,0,1.83.05,2.25.16,1.99.31,2.98,1.25,2.98,3.19s-1.31,3.13-3.08,3.13c-1.36,0-2.19-.1-5.02-.21h-1.1c-2.25,0-4.13.21-6.79.37-1.78,0-3.03-1.31-3.03-3.19s1.25-3.08,3.19-3.24c1.15-.05,2.61-.16,3.71-.16h.52c.16-3.08.26-5.8.26-8.2,0-4.86,0-10.87-.16-15.94-3.08,7.05-6.11,14.89-8.15,19.33-1.31,2.87-2.98,4.28-5.17,4.39h-.21c-1.99,0-3.5-.94-4.49-2.82-2.09-4.28-3.4-8.41-6.43-18.55-.73,5.02-1.41,15.36-1.51,21.84l2.35.1c1.88,0,3.08,1.25,3.08,3.19,0,1.67-1.31,3.08-2.87,3.13h-.1c-4.13,0-7.68.1-11.29.37h-.37Z"/>
  <path class="st0" d="M160.56,98.33c0-1.72,1.31-2.98,3.13-3.03l1.93-.05c-.21-6.74-.31-11.91-.31-17.5,0-4.91,0-6.37.05-8.15l-2.46.05h-.1c-1.78,0-3.03-1.36-3.03-3.24,0-1.78,1.41-3.08,3.29-3.13l5.54-.16h.42c3.61,0,5.28,1.04,7,4.18,2.51,4.55,9.3,16.09,14.26,24.24-.05-1.15-.05-2.09-.05-5.12,0-5.43.21-9.56.52-17.14l-3.45-.05c-1.78-.05-3.19-1.41-3.19-3.19,0-1.88,1.36-3.24,3.29-3.19,5.17.21,7.84.1,11.91-.31h.1c1.78,0,2.98,1.31,2.98,3.19,0,1.78-1.31,2.98-3.19,3.19l-1.99.21c-.42,4.65-.63,12.38-.63,23.56v5.22c0,2.25-1.57,3.81-3.92,3.81-2.04,0-3.55-.89-4.91-2.82-4.02-5.75-8.25-12.75-16.04-26.38-.05.78-.05,1.52-.05,5.49,0,6.95.1,13.79.31,17.24l4.91.05c1.93,0,3.19,1.36,3.19,3.4,0,1.67-1.41,2.98-3.19,2.98l-7.84-.1c-3.34,0-4.23,0-5.38.1-1.88,0-3.13-1.36-3.13-3.34Z"/>
  <path class="st0" d="M216.1,82.5c0-11.18,7.42-19.85,16.98-19.85,11.23,0,18.39,7.47,18.39,19.17,0,13.01-6.48,20.58-17.61,20.58-10.45,0-17.76-8.15-17.76-19.91ZM245.15,82.55c0-8.83-4.18-13.48-12.12-13.48-6.06,0-10.55,5.85-10.55,13.74s4.65,13.22,11.7,13.22,10.97-4.96,10.97-13.48Z"/>
  <path class="st0" d="M268.71,102.56c-1.93,0-3.24-1.31-3.24-3.19,0-1.78,1.36-3.13,3.29-3.19l2.51-.1-.1-10.5c0-5.64.1-10.61.26-15.78h-3.13c-1.88,0-3.13-1.25-3.13-3.24,0-1.78,1.41-3.08,3.29-3.08l3.87-.05h1.1c15.05,0,22.78,4.39,22.78,12.9s-5.9,12.54-17.71,12.54h-.99c.05,2.35.05,4.75.16,7.11,2.09.05,4.13.21,6.37.47,2.09.21,3.29,1.36,3.29,3.19s-1.36,3.19-3.08,3.19c-1.57,0-2.77-.42-10.24-.42-1.78,0-3.5.16-5.28.16ZM289.82,76.65c0-4.08-3.19-5.85-12.02-6.69-.21,3.45-.31,7-.31,12.75,8.57.37,12.33-1.93,12.33-6.06Z"/>
  <path class="st0" d="M324.77,102.04v-.16c-9.25-1.46-14.89-9.04-14.89-19.96s7.47-19.96,17.55-19.96c10.76,0,17.19,7.31,17.19,19.54,0,11.29-4.96,18.76-13.48,20.27,0,3.19.68,4.23,2.82,4.23,1.15,0,2.14-.42,2.93-.73.21-.1.37-.1.84-.1,1.72,0,3.19,1.41,3.19,3.13,0,1.1-.42,1.93-1.25,2.56-1.36.89-3.71,1.52-5.96,1.52-5.69,0-8.93-3.76-8.93-10.34ZM338.25,81.51c0-8.46-3.76-13.22-10.5-13.22s-11.49,5.59-11.49,13.69c0,8.57,4.28,13.74,11.39,13.74s10.61-4.86,10.61-14.21Z"/>
  <path class="st0" d="M380.88,95.3c-1.46-4.08-2.04-5.22-3.13-6.22-1.41-1.25-2.98-1.67-6.53-1.67h-.47v1.15c0,2.25.16,5.17.37,7.58.99.1,1.78.16,2.56.16,1.83,0,3.24,1.41,3.24,3.19,0,1.88-1.31,3.19-3.24,3.19-4.08,0-7.84-.21-11.02-.63-1.88-.21-3.08-1.36-3.19-3.19,0-1.78,1.41-3.29,3.08-3.29.1,0,.21.05.37.05.68.1,1.1.21,1.78.26-.21-4.08-.31-8.2-.31-12.28,0-5.17.1-9.56.37-13.69l-3.24-.05c-1.78,0-3.08-1.31-3.19-3.19,0-1.78,1.41-3.19,3.19-3.19,3.45,0,7.52.1,12.64.26,9.61.37,15.15,4.44,15.15,11.18,0,4.65-2.25,7.94-6.95,10.08,3.08,2.09,3.92,6.95,5.49,10.61,1.36,3.29,2.77,4.7,4.7,4.7l.78-.05c1.62,0,3.03,1.46,3.03,3.19,0,1.93-1.46,3.19-3.71,3.19-5.54,0-8.62-2.98-11.76-11.34ZM382.92,75.13c0-3.45-3.76-5.07-11.81-5.07-.26,3.45-.42,6.37-.42,8.99l.05,2.35c7.21,0,12.17-2.56,12.17-6.27Z"/>
  <path class="st0" d="M412.55,102.09c-1.67-.52-2.56-1.41-2.98-2.93-.42-1.46-.73-3.19-1.04-5.54l-.05-.52c0-1.88,1.36-3.29,3.08-3.29s2.87.99,3.13,2.61c.26,1.62.47,2.72.73,3.87.89.21,2.98.73,5.64.73,4.96,0,8.04-1.99,8.04-5.17,0-4.65-7.52-5.64-11.49-7.16-5.54-2.4-7.68-5.22-7.68-9.98,0-6.01,5.7-11.23,13.17-11.23,3.29,0,7.58.89,9.61,1.83.94.47,1.41,1.1,1.57,2.09.42,2.61.78,5.43.78,6.17,0,1.78-1.31,3.03-3.08,3.03-1.57,0-3.03-1.1-3.13-2.35-.16-1.78-.31-2.98-.47-3.66-2.14-.52-3.24-.73-4.86-.73-4.28,0-7.21,2.25-7.21,4.91,0,3.29,3.71,3.87,7.73,5.22,7.63,2.56,11.44,6.43,11.44,11.7,0,7.05-5.59,11.65-14.16,11.65-3.13,0-6.06-.42-8.78-1.25Z"/>
  <path class="st0" d="M11.03,159.41c1.36-.16,2.87-.21,4.81-.21l.16-26.18c-2.61,0-5.22,0-7.84-.1l-.47,3.13c-.21,1.36-1.57,2.4-3.13,2.4-1.83,0-3.13-1.2-3.13-2.98,0-.42,0-.52.05-.63l.84-5.49c.26-1.83,1.41-2.72,3.34-2.72,3.24.16,6.69.21,10.87.21,5.02,0,9.93-.16,16.35-.47,1.93,0,3.13,1.1,3.24,2.93l.26,5.69c0,1.78-1.36,3.19-3.19,3.19s-3.13-1.25-3.19-3.19l-.05-2.25c-2.51.16-5.07.21-7.58.26l-.16,26.18c1.2,0,2.35.05,4.7.21,1.99.16,3.19,1.36,3.19,3.19s-1.31,3.19-3.19,3.19c-2.72-.1-4.65-.26-8.15-.26-4.02,0-6.53.26-7.73.26-1.78,0-3.19-1.41-3.19-3.19s1.25-2.98,3.19-3.19Z"/>
  <path class="st0" d="M54.13,151.52v-.31l.21-18.65-2.25.1h-.1c-1.67,0-2.98-1.41-2.98-3.19s1.2-2.98,3.19-3.19c2.09-.16,3.87-.26,5.33-.26,1.78,0,3.76.1,6.11.26,2.09.16,3.19,1.25,3.19,3.19s-1.31,3.19-3.08,3.19h-.1l-2.93-.1c0,7.21-.21,13.01-.21,18.02,0,6.74,2.04,9.09,7.73,9.09,6.01,0,8.41-2.93,8.46-10.24v-.31c0-4.28-.1-7.52-.42-16.09l-1.93.16c-1.88,0-3.19-1.31-3.19-3.19,0-1.78,1.1-2.98,2.93-3.13,3.97-.37,7.89-.37,10.03-.37,1.78,0,3.19,1.41,3.19,3.19s-1.41,3.19-3.08,3.19h-.1l-1.46-.05v.21c.31,8.57.42,12.23.42,16.82,0,10.19-5.54,16.2-14.84,16.2s-14.11-5.22-14.11-14.52Z"/>
  <path class="st0" d="M117.61,163.64c-4.34-9.04-8.73-21.53-11.39-32.18-1.25.05-1.99.1-2.87.21h-.37c-1.72,0-3.03-1.31-3.03-3.13s1.15-2.98,3.19-3.19c2.09-.21,4.7-.31,7.89-.31h3.55c1.88,0,3.19,1.25,3.19,3.13s-1.31,3.19-3.19,3.19h-1.83c2.67,10.14,5.07,17.5,7.84,23.93l8.46-24.24-1.62.1h-.21c-1.67,0-2.98-1.36-2.98-3.19s1.31-3.08,3.19-3.19c2.77-.21,6.79-.31,10.66-.31,1.88,0,3.19,1.31,3.19,3.19,0,1.57-1.51,3.19-2.98,3.19h-2.3c-4.08,10.76-7.47,20.9-12.17,32.03-.68,1.62-1.93,2.51-3.5,2.51-1.25,0-2.14-.57-2.72-1.72Z"/>
  <path class="st0" d="M167.45,163.9c-3.4-9.51-7.05-23.15-8.15-30.67l-2.25.16h-.1c-1.67,0-3.03-1.41-3.03-3.13s1.31-3.03,3.24-3.24c1.78-.21,3.87-.31,5.96-.31,2.25,0,4.34.05,6.27.21,2.04.21,3.24,1.41,3.24,3.19s-1.25,3.13-3.13,3.13h-.1l-3.71-.16c1.72,8.73,3.24,14.79,5.59,22.36,2.61-6.01,5.02-13.79,7.21-23.2.42-1.57,1.57-2.46,3.29-2.46,1.57,0,2.87,1.04,3.13,2.51,1.99,9.87,3.87,17.19,6.11,23.2,3.4-9.35,5.02-14.99,6.11-21.47-1.25-.05-3.08-.37-4.13-.68-1.52-.47-2.35-1.57-2.35-3.08,0-2.51,2.82-3.76,8.41-3.76h1.88c1.93,0,3.34.1,4.7.31,2.14.37,3.19,1.36,3.19,3.08,0,1.88-1.25,3.19-2.98,3.19l-2.09-.1c-1.52,10.29-6.79,26.49-10.34,31.77-.52.89-1.67,1.57-2.72,1.57-1.41,0-2.19-.57-3.08-2.3-1.36-2.56-3.87-10.29-6.27-18.97-3.19,9.72-6.53,17.71-8.46,20.17-.52.73-1.36,1.15-2.3,1.15-1.62,0-2.66-.84-3.13-2.46Z"/>
  <path class="st0" d="M231.3,165.99c-2.25,0-4.49-.05-6.74-.16-1.78-.1-3.08-1.46-3.08-3.19,0-1.62,1.31-3.03,2.93-3.13h.16l3.45.05c1.46-2.14,5.07-7.58,10.08-13.43-2.98-3.76-5.8-7.89-8.88-12.96l-2.25.1h-.1c-1.83,0-3.24-1.36-3.24-3.13,0-1.88,1.36-3.19,3.34-3.24,1.93-.05,5.75-.21,8.41-.21,1.62,0,1.93,0,2.3.05,2.04.16,3.19,1.31,3.19,3.19,0,1.78-1.36,3.13-3.08,3.13h-.1l-1.31-.05c2.14,3.4,4.08,6.17,5.96,8.52l7.26-8.52-1.36.05c-1.62,0-3.03-1.46-3.03-3.19,0-1.83,1.31-3.13,3.19-3.19l2.14-.05c2.77,0,6.17.16,7.99.37,2.14.26,3.29,1.41,3.29,3.19s-1.31,3.13-2.98,3.13h-.1l-1.62-.05-10.76,12.85,9.93,13.32,2.04.05c1.93,0,3.19,1.25,3.19,3.19,0,1.83-1.36,3.19-3.19,3.19-4.75-.1-7.21-.16-10.29-.16-1.78,0-3.03-1.31-3.03-3.19s1.51-3.19,3.71-3.19l-6.69-8.67c-.68.78-3.6,4.6-6.69,8.78l.84.05c1.83,0,3.19,1.36,3.19,3.19,0,1.67-1.46,3.13-3.19,3.19l-4.86.1Z"/>
  <path class="st0" d="M284.75,166.51c-1.62,0-2.87-1.41-2.87-3.19s1.41-3.13,3.19-3.19l5.54-.26-.05-6.74c-4.7-7.47-8.31-14.11-10.81-20.01l-2.09.05c-1.78,0-3.19-1.41-3.19-3.19s1.31-3.13,3.19-3.19l5.33-.1c2.82,0,4.65.05,5.9.21,1.99.21,3.08,1.31,3.19,3.19,0,1.72-1.46,3.19-3.19,3.19-.84-.1-1.36-.1-2.19-.1.94,1.99,3.92,8.46,7.05,13.48,1.78-3.03,3.76-6.84,6.79-13.32-.94.16-1.31.26-1.99.26-1.72,0-3.19-1.41-3.19-3.13,0-1.57.94-2.82,2.35-3.13,1.46-.31,5.17-.57,8.15-.57,1.88,0,3.13.1,3.66.26,1.57.47,2.35,1.52,2.35,3.03,0,1.72-1.36,3.19-2.98,3.19l-1.31-.05c-3.08,6.95-6.63,13.53-10.71,19.85l.1,6.79c1.78.05,3.03.1,4.7.26,1.99.21,3.19,1.41,3.19,3.19s-1.31,3.19-3.03,3.19h-.16c-3.4-.16-5.75-.26-7.84-.26-2.98,0-6.01.1-8.99.31h-.1Z"/>
  <path class="st0" d="M340.39,164.84c-4.08,0-8.2.16-12.7.21-1.78,0-3.19-1.41-3.19-3.19,0-.78.26-1.41.94-2.25,6.63-8.05,13.95-16.98,20.58-26.23-3.76-.21-8.2-.31-12.02-.31h-2.25l-.42,3.81c-.21,1.78-1.46,2.87-3.34,2.87-1.78,0-3.03-1.25-3.03-3.13,0-.21.05-.37.05-.57l.73-6.01c.21-1.99,1.25-3.03,3.19-3.03,10.45,0,16.82.16,22.73.57,1.72.1,2.87,1.31,2.87,2.98,0,.89-.21,1.46-.78,2.3-6.53,9.3-13.43,18.13-19.75,25.97,1.04-.05,2.4-.05,5.38-.05,4.02,0,7.16.1,9.72.37l.26-3.71c.16-1.93,1.36-3.13,3.4-3.13,1.72,0,2.98,1.31,2.98,3.03v.31l-.47,6.64c-.1,1.88-1.41,3.19-3.19,3.19-3.76-.42-7.47-.63-11.7-.63Z"/>
  <path class="st0" d="M3.5,282.61c0-5.9,5.07-9.72,12.85-9.72.99,0,1.83.05,2.82.26l.05-.94c0-3.24-1.41-4.81-4.34-4.81-1.88,0-3.34.84-5.22,3.03-.63.63-1.46.94-2.4.94-1.67,0-3.08-1.41-3.08-3.03,0-.94.26-1.67.89-2.4,2.72-3.29,6.06-4.91,10.03-4.91,6.17,0,10.45,4.55,10.45,11.02,0,2.3-.21,4.13-.21,7.52,0,2.35.16,3.6.52,4.18.89,0,1.41-.16,1.93-.16,1.78,0,3.19,1.36,3.19,3.13,0,2.19-1.67,3.4-4.7,3.4-2.4,0-4.39-.94-5.59-2.61-2.25,1.93-4.75,2.82-7.84,2.82-5.33,0-9.35-3.29-9.35-7.73ZM19.07,281.93c-.05-.63-.1-1.46-.1-2.4-.73-.21-1.25-.26-2.67-.26-3.87,0-6.48,1.25-6.48,3.08,0,.99,1.2,1.67,3.08,1.67,2.09,0,4.02-.68,6.17-2.09Z"/>
  <path class="st0" d="M47.34,288.09v-.21c.31-2.77,1.31-10.61,1.31-22.99,0-3.6-.05-5.49-.1-7.47-.63,0-2.4.31-2.77.31-1.78,0-3.19-1.31-3.19-3.03,0-1.52.94-2.72,2.4-3.19.99-.31,2.4-.47,4.18-.47,3.55,0,5.64,1.67,5.75,4.49.05,2.04.1,3.4.1,5.49s0,2.66-.05,3.4c2.4-1.2,3.87-1.57,6.11-1.57,7.26,0,12.12,5.38,12.12,13.38,0,8.93-4.96,15.1-12.17,15.1-3.03,0-5.64-1.31-7.37-3.66,0,2.25-1.25,3.71-3.19,3.71-1.83,0-3.13-1.36-3.13-3.29ZM66.88,276.6c0-4.81-2.04-7.37-5.9-7.37-2.09,0-4.86,1.1-6.17,2.4-.05,2.51-.26,5.07-.42,7.58,1.36,3.45,4.23,5.75,7.16,5.75s5.33-3.66,5.33-8.36Z"/>
  <path class="st0" d="M88.19,277.17c0-9.35,5.22-14.89,14.11-14.89,2.14,0,4.49.31,6.84.89,1.46.42,2.3,1.46,2.35,2.98.05.57.05.99.05,2.77s0,2.25-.05,2.82c-.1,1.93-1.36,3.19-3.19,3.19s-3.19-1.41-3.19-3.19l.05-2.87c-.84-.1-1.88-.21-2.72-.21-5.38,0-7.89,2.61-7.89,8.36,0,4.91,2.4,7.58,6.84,7.58,1.72,0,3.6-.47,5.75-1.46.68-.26,1.25-.42,1.67-.42,1.72,0,3.13,1.41,3.13,3.24,0,1.04-.63,2.14-1.57,2.66-3.03,1.62-6.11,2.4-9.2,2.4-7.63,0-13.01-5.69-13.01-13.85Z"/>
  <path class="st0" d="M127.75,277.91c0-8.88,4.65-14.68,11.81-14.68,2.19,0,4.34.52,6.22,1.52l.37-7.84h-.89c-1.36,0-1.78,0-2.19-.05-1.83-.1-3.19-1.41-3.19-3.13,0-1.83,1.31-3.19,2.98-3.19h.21l3.13.05h.1l3.19-.05c1.93,0,3.13,1.2,3.13,3.19v.47c-.52,10.14-.84,18.5-.84,22.94,0,4.86.68,7.21,2.09,7.21,1.99,0,3.19,1.2,3.19,3.19s-1.36,3.19-3.4,3.19c-2.3,0-3.87-.84-5.75-3.03-2.67,2.46-5.7,3.76-8.78,3.76-6.69,0-11.39-5.59-11.39-13.53ZM145.67,281.98c-.16-1.72-.26-3.66-.26-6.01l.1-4.6c-2.04-1.2-3.87-1.78-5.85-1.78-3.71,0-5.59,2.82-5.59,8.36,0,4.39,1.99,7.11,5.28,7.11,1.93,0,4.13-1.04,6.32-3.08Z"/>
  <path class="st0" d="M170.22,276.97c0-8.83,5.59-15.15,13.48-15.15,6.27,0,11.02,3.92,11.02,9.09,0,5.54-4.86,9.25-12.17,9.25-1.93,0-3.87-.26-5.7-.84.73,2.77,3.4,4.81,6.32,4.81,4.23,0,6.58-1.99,7.63-2.77.52-.26,1.04-.42,1.62-.42,1.72,0,3.19,1.46,3.19,3.19,0,1.04-.58,2.04-1.57,2.72-.73.57-4.44,3.66-10.66,3.66-7.63,0-13.17-5.69-13.17-13.53ZM188.35,270.96c0-1.67-1.83-2.77-4.6-2.77-3.34,0-5.59,1.72-6.74,5.28,1.72.37,3.29.52,4.86.52,3.81,0,6.48-1.25,6.48-3.03Z"/>
  <path class="st0" d="M212.44,291.18h-.1c-1.78-.05-3.03-1.36-3.03-3.13,0-1.67,1.31-3.03,3.08-3.19,1.15-.1,2.3-.26,3.45-.31-.05-6.11-.16-9.51-.42-13.69l-2.46.1h-.1c-1.52,0-2.93-1.52-2.93-3.19,0-1.78,1.46-3.19,3.19-3.19l2.04-.1-.1-2.66c0-8.2,3.6-12.38,10.66-12.38,5.49,0,10.03,3.76,10.03,8.31,0,1.78-1.36,3.19-3.13,3.19-1.52,0-2.77-.94-3.08-2.35-.47-1.93-1.62-2.77-3.87-2.77-2.82,0-4.18,1.52-4.18,4.7l.05,3.76,2.66-.05c1.57,0,3.13.05,4.65.16,1.78.1,2.93,1.41,2.93,3.19s-1.36,3.19-3.19,3.19l-6.79-.1c.26,4.75.37,8.93.42,13.64,2.67-.16,4.23-.21,5.7-.21,1.83,0,3.13,1.25,3.13,3.03,0,1.88-1.36,3.29-3.19,3.29-5.43.05-10.19.31-15.05.78h-.37Z"/>
  <path class="st0" d="M246.82,296.14c0-2.09,1.46-4.13,4.02-5.64-1.83-.68-3.08-2.4-3.08-4.23,0-2.3,1.88-4.91,4.54-6.37-2.09-1.15-3.81-4.44-3.81-7.26,0-6.01,4.75-10.29,11.44-10.29,2.67,0,4.13.47,7.05,1.04.42.05.78.1,1.2.1.94,0,1.78-.21,2.67-.68.73-.37,1.2-.47,1.62-.47,1.83,0,3.19,1.41,3.19,3.24,0,1.1-.58,2.14-1.62,2.72-.89.47-1.99.84-3.13.99.47,1.41.68,2.35.68,3.4,0,5.9-4.6,9.98-11.34,9.98-.31,0-1.67-.16-1.99-.21-1.88,1.15-3.03,1.93-3.71,2.61,2.09.1,5.07.16,7.84.16,8.05,0,12.28,2.72,12.28,7.94,0,5.59-6.84,9.98-15.57,9.98-7.73,0-12.28-2.61-12.28-7ZM268.5,292.95c0-.89-3.71-1.46-9.2-1.46h-1.88c-1.88,1.04-4.28,3.24-4.6,4.18.84.73,3.4,1.25,6.01,1.25,5.07,0,9.67-1.88,9.67-3.97ZM265.42,272.68c0-2.4-2.35-4.13-5.59-4.13s-5.17,1.52-5.17,3.76c0,2.61,2.3,4.18,6.17,4.18,2.72,0,4.6-1.57,4.6-3.81Z"/>
  <path class="st0" d="M299.8,291.23c-3.5,0-6.37-.1-8.41-.37-1.83-.16-3.08-1.46-3.08-3.19,0-1.83,1.41-3.19,3.19-3.19l1.46.05c-.05-1.04-.05-1.88-.05-5.07,0-7,.37-14.42,1.04-22.26-1.04,0-2.14.16-3.24.16-1.57,0-2.93-1.46-2.93-3.19s1.36-2.98,3.19-3.13c1.62-.1,3.92-.21,5.38-.21l1.41.05c1.62,0,2.72,1.2,2.72,2.93v.26c-.21,3.71-.68,8.1-.89,11.81,2.61-1.88,5.07-2.77,7.68-2.77,5.43,0,8.57,3.97,8.57,10.81,0,3.76-1.15,9.09-1.15,10.71-.05,0,1.78-.31,2.3-.31,1.88,0,3.19,1.31,3.19,3.08,0,1.67-.84,2.77-2.35,3.19-1.41.31-2.4.42-3.76.42-3.5,0-5.75-2.25-5.75-5.75,0-2.61,1.2-7.58,1.2-11.65,0-2.82-.78-4.23-2.3-4.23-2.72,0-6.11,1.93-7.89,4.55-.16,1.36-.21,3.13-.21,5.54s.05,4.13.21,5.22l2.09.1c1.78,0,3.19,1.41,3.19,3.19,0,1.88-1.25,3.19-3.19,3.24h-1.62Z"/>
  <path class="st0" d="M332.56,287.89c0-1.83,1.36-3.19,3.19-3.19.63.05,1.2.05,1.83.05.31-4.13.47-7.99.47-11.55,0-2.66,0-3.29-.05-4.18-.68-.05-1.2-.05-3.24-.05-1.62-.05-2.82-1.25-2.98-2.87v-.26c0-1.78,1.36-3.19,3.19-3.24h.1c2.51,0,4.34.1,6.58.42,1.78.21,2.77,1.36,2.77,3.19v2.4c0,6.84-.16,12.33-.47,16.14.68,0,1.36-.1,1.99-.1,1.62,0,2.98,1.41,3.08,3.19,0,1.67-1.25,3.03-2.98,3.19-1.72.1-3.45.16-5.22.16l-5.07-.1c-1.88-.05-3.19-1.36-3.19-3.19ZM337.31,255.39c0-2.19.26-5.8.47-6.74.42-1.88,1.67-2.93,3.45-2.93s3.19,1.46,3.19,3.19c0,1.93-.16,3.97-.58,6.84-.26,1.93-1.57,3.19-3.24,3.19-1.99,0-3.29-1.41-3.29-3.55Z"/>
  <path class="st0" d="M355.39,300.27c-1.04-.68-1.57-1.57-1.57-2.72,0-1.78,1.41-3.24,3.08-3.24.63,0,1.2.16,1.72.42,1.62.94,4.02,1.52,6.32,1.52,1.78,0,2.46-.94,2.46-3.55,0-3.55-.63-15.05-.63-22.99l-3.13.21c-1.83,0-3.19-1.36-3.19-3.19,0-1.62,1.1-2.87,2.72-3.08,1.72-.21,3.97-.31,6.84-.31,1.99,0,3.19,1.15,3.19,3.03v.1c-.05.73-.05,1.31-.05,3.55,0,7.42.63,14.05.63,23.04,0,5.8-3.5,9.61-8.78,9.61-3.34,0-7.42-.99-9.61-2.4ZM366.57,255.44v-.31l.47-6.48c.16-1.88,1.62-3.19,3.45-3.19s3.19,1.36,3.19,3.19v.26l-.57,6.58c-.16,1.88-1.52,3.19-3.24,3.19-1.93,0-3.29-1.36-3.29-3.24Z"/>
  <path class="st0" d="M403.77,280.31c-.78-.73-1.78-1.04-3.29-1.04,0,1.31.11,2.93.26,4.91l1.67-.05h.31c1.78.1,3.08,1.46,3.08,3.24s-1.25,3.13-2.98,3.13c-4.65,0-7.63.63-10.34.63h-.16c-1.93-.05-3.08-1.2-3.08-3.08,0-1.72,1.25-3.08,2.98-3.24l2.19-.21c-.21-5.28-.26-8.57-.26-11.44,0-5.54.16-10.81.52-16.3h-5.07c-1.83,0-3.19-1.36-3.19-3.19s1.41-3.19,3.19-3.19h8.26c1.93,0,3.19,1.2,3.24,3.03v.1c0,3.5-.52,7.05-.57,10.61,2.4-1.41,5.28-2.19,8.05-2.19,5.54,0,9.61,3.55,9.61,8.36,0,4.23-2.77,7.16-7.78,8.25,2.93,2.66,4.44,8.05,8.99,8.05,1.62,0,2.98,1.36,3.08,3.19,0,1.25-.78,2.46-1.93,2.93-.47.21-1.2.31-2.09.31-7.78,0-10.81-9.2-14.68-12.8ZM400.95,273.78c7.37,0,10.92-1.1,10.92-3.4,0-1.2-1.36-1.99-3.4-1.99-2.61,0-5.9,1.04-8.05,2.56-.05.37-.05.73-.05,1.99v.84h.57Z"/>
  <path class="st0" d="M1.1,344.29c0-1.72,1.36-3.19,2.98-3.19h.21l2.09.16c.42-8.1.63-16.41.63-24.71l-.05-5.9-3.4.21h-.16c-1.67,0-3.03-1.41-3.03-3.13,0-1.52.94-2.72,2.35-3.08,1.04-.26,2.25-.42,3.19-.42,5.07,0,7.42,2.09,7.42,6.64v3.71c0,9.3-.21,18.08-.58,26.8h1.83c1.88,0,3.03,1.2,3.03,3.19,0,1.72-1.41,3.13-3.19,3.19l-3.5.1c-2.51,0-4.65-.1-6.64-.37-2.04-.21-3.19-1.36-3.19-3.19Z"/>
  <path class="st0" d="M30.72,344.34c0-1.78,1.41-3.19,3.19-3.19h1.2c.1-2.3.16-4.6.16-6.9,0-3.45-.05-6.06-.21-8.41-.89.16-1.78.47-2.66.47-1.72,0-3.19-1.41-3.19-3.08,0-1.52.94-2.77,2.35-3.19,1.41-.42,3.4-.68,4.75-.68,1.88,0,3.19.63,4.18,1.99,2.35-1.67,4.39-2.4,6.79-2.4,3.34,0,5.8,1.25,7.68,3.97,2.51-2.3,5.28-3.4,8.41-3.4,4.75,0,8.31,4.28,8.31,10.14,0,5.28-.42,7.47-.58,11.39l.89-.1h.42c1.62,0,2.93,1.36,2.93,2.98,0,2.25-1.72,3.5-4.75,3.5-3.45,0-5.85-2.3-5.85-5.54,0-2.77.58-7,.58-11.29,0-2.93-.84-4.7-2.19-4.7-2.25,0-5.12,1.46-6.37,3.24,0,5.33-.68,10.45-.68,12.23h1.83c1.72,0,3.03,1.36,3.03,3.08,0,1.99-1.57,3.29-4.08,3.29-4.81,0-7.11-1.99-7.11-6.01,0-3.34.68-6.9.68-10.76s-.94-5.64-2.87-5.64-4.81,1.2-6.06,2.46c.16,1.83.21,3.97.21,6.79s-.05,4.86-.21,6.79l1.41.1c1.99.16,3.13,1.36,3.13,3.19s-1.31,3.19-2.98,3.19c-1.2,0-4.49-.31-9.14-.31-1.88,0-3.19-1.31-3.19-3.19Z"/>
  <path class="st0" d="M89.24,343.71v-.21c0-2.04,1.31-3.29,3.29-3.29h.63c.42-3.24.63-6.48.63-9.72,0-2.4-.05-4.23-.21-5.8-.26-.05-.47-.1-.68-.1-.63,0-1.15.21-1.67.21h-.16c-1.78-.05-2.98-1.15-3.08-2.93v-.16c0-1.52.99-2.82,2.46-3.19.73-.16,1.41-.26,1.93-.26l.89.05c2.3.05,4.6,1.1,5.69,2.66,2.19-1.83,4.81-2.87,7.42-2.98h.31c5.49,0,9.09,3.76,9.09,9.46,0,3.81-.68,9.04-.68,11.44,0,1.25.21,1.62.89,1.62h1.25c1.78,0,3.19,1.31,3.24,3.03v.1c0,1.99-1.25,3.13-3.6,3.24h-.37c-4.91,0-7.78-2.56-7.78-6.95,0-3.4.68-9.35.68-12.49,0-2.19-.57-3.08-2.04-3.08-2.61,0-5.64,1.46-7.47,3.6l.1,3.55c0,2.82-.16,5.69-.47,8.62l1.41.05c1.62.1,2.87,1.41,2.93,3.08v.1c0,1.83-1.36,3.13-3.29,3.19-.68-.05-1.25-.05-3.45-.05l-4.86.05c-1.67,0-2.93-1.15-3.03-2.87Z"/>
  <path class="st0" d="M133.39,333.16c0-8.05,6.17-14.73,13.58-14.73s13.06,5.9,13.06,14.26-5.75,14.79-13.74,14.79c-7.52,0-12.9-5.96-12.9-14.32ZM153.66,332.74c0-4.86-2.61-7.94-6.69-7.94s-7.16,3.71-7.16,8.52,2.56,7.78,6.58,7.78,7.26-3.55,7.26-8.36Z"/>
  <path class="st0" d="M173.78,355.63c0-1.78,1.41-3.19,3.19-3.19h1.46c-.42-7.11-.58-11.96-.58-15.99,0-3.5.1-6.64.31-9.4v-.05c0-.52-.63-.84-1.78-.89-1.88-.1-3.19-1.46-3.19-3.4,0-1.62,1.41-2.98,3.19-2.98,3.76,0,5.8,1.04,7.05,3.66,2.66-2.56,5.33-3.71,8.62-3.71,5.96,0,10.19,5.64,10.19,13.58,0,9.2-4.44,14.99-11.44,14.99-2.14,0-4.7-.78-6.37-1.93,0,1.93.1,4.02.37,6.17l2.82.05c1.83.1,3.19,1.46,3.19,3.19,0,1.83-1.31,3.19-3.19,3.19l-10.66-.1c-1.93,0-3.19-1.25-3.19-3.19ZM195.93,333.26c0-4.34-1.57-7.21-3.92-7.21-2.77,0-5.85,2.25-7.63,5.59-.1.99-.16,2.4-.16,3.87s.05,2.77.16,3.87c1.25,1.57,3.5,2.51,5.85,2.51,3.71,0,5.69-3.03,5.69-8.62Z"/>
  <path class="st0" d="M231.19,358.6h-.05c-1.67-.05-2.93-1.41-2.93-3.13s1.36-3.08,3.24-3.24l2.82-.21.21-6.95c-1.83,1.46-3.66,2.09-6.01,2.09-6.84,0-11.49-5.75-11.49-14.11s5.38-14.37,12.17-14.37c2.51,0,4.08.57,5.69,2.04.47-1.15,1.31-1.72,2.51-1.72,1.93,0,3.61.21,5.38.21,1.88,0,3.19,1.31,3.19,3.19,0,1.72-1.46,3.19-3.19,3.19-.68-.05-1.31-.05-1.99-.16.16,3.08.21,6.48.21,11.02,0,5.12-.16,10.19-.31,15.31l2.46-.05h.1c2.09.05,3.29,1.25,3.29,3.29,0,1.78-1.36,3.08-3.19,3.08-4.81,0-8.52.16-11.81.52h-.31ZM234.49,337.44c.05-.73.05-1.41.05-3.81,0-1.93-.05-3.81-.16-5.43-1.25-1.93-3.24-3.08-5.12-3.08-3.29,0-5.9,3.45-5.9,7.78,0,5.07,1.88,7.89,5.22,7.89,1.93,0,4.13-1.25,5.9-3.34Z"/>
  <path class="st0" d="M262.39,348.05h-.21c-1.83-.1-3.08-1.46-3.08-3.24,0-1.57,1.15-2.77,2.93-3.14l1.31-.1c.1-1.62.1-2.93.1-8.05s0-6.48-.1-8.05l-1.78.1h-.21c-1.78,0-2.98-1.31-2.98-3.19,0-1.72,1.36-3.08,3.19-3.19l1.25-.05c4.44,0,6.48,1.62,6.74,5.38,3.92-4.02,7.26-6.32,9.25-6.32,1.72,0,2.87,1.25,2.98,3.13v.21c0,1.83-.16,3.13-.21,4.96,0,1.88-1.25,3.19-2.98,3.19s-2.82-1.25-2.82-3.13c0-.52,0-.68.05-.84-1.31.68-3.92,2.77-6.11,4.96v3.03c0,4.7,0,6.01-.05,7.42l3.81-.1h1.1c1.93.1,3.19,1.36,3.19,3.19s-1.46,3.19-3.55,3.19c-4.49.05-8.2.26-11.7.63h-.1Z"/>
  <path class="st0" d="M298.86,347.48c-1.67-.68-2.25-1.46-2.4-3.29l-.21-3.92v-.1c0-1.62,1.41-2.98,3.13-2.98,1.83,0,3.03,1.15,3.19,2.98l.16,2.14c.94.26,2.25.68,4.91.68,2.93,0,4.91-1.25,4.91-3.13,0-1.15-1.04-1.62-6.64-2.93-6.48-1.52-9.25-4.18-9.25-8.78,0-5.43,4.34-8.73,11.39-8.73,2.09,0,4.54.26,7.31.84,1.83.37,2.82,1.52,2.82,3.29v3.76c0,1.93-1.46,3.34-3.45,3.34-1.78,0-2.93-1.25-2.93-3.19v-1.83c-1.25-.21-2.35-.26-3.81-.26-2.98,0-4.96,1.04-4.96,2.61,0,1.36,1.04,1.93,4.91,2.77,7.94,1.67,10.92,4.18,10.92,9.3s-4.86,9.04-11.29,9.04c-3.45,0-6.06-.47-8.72-1.62Z"/>
  <path class="st0" d="M335.43,325.79l-2.67.1c-1.67,0-3.08-1.46-3.08-3.19s1.36-3.08,3.19-3.19l3.08-.1.47-6.01c.1-1.93,1.41-3.19,3.29-3.19,1.72,0,3.03,1.36,3.03,3.13v.26l-.42,5.64h5.33c1.93.05,3.19,1.31,3.19,3.19s-1.31,3.19-3.19,3.19l-5.8.05-.31,9.46v1.04c0,4.23,1.1,5.9,3.76,5.9,1.99,0,3.76-.73,4.44-.73,1.88,0,3.29,1.31,3.29,3.13,0,1.52-.94,2.72-2.35,3.13-1.25.42-3.76.78-5.38.78-6.48,0-10.14-4.28-10.14-11.96v-.78l.31-9.87h-.05Z"/>
  <path class="st0" d="M369.44,337.5c0-3.5.47-7.78.47-10.97l-2.09-.05c-1.72,0-3.19-1.46-3.19-3.19,0-1.83,1.41-3.19,3.19-3.19l4.13.05c2.66,0,4.34,1.72,4.34,4.49,0,4.34-.47,9.3-.47,13.06,0,3.13.68,4.13,2.77,4.13,3.24,0,6.79-2.35,8.1-5.38l-.05-3.87c0-2.25.05-4.49.16-6.69l-1.72-.05c-1.78-.1-3.19-1.52-3.19-3.19,0-1.88,1.36-3.19,3.19-3.19,1.04,0,4.23.26,4.91.31,1.93.16,3.08,1.36,3.19,3.4-.16,2.77-.21,6.17-.21,9.51l.11,5.96c.1,2.3.1,3.19,1.72,3.19,1.72,0,3.08,1.36,3.19,3.19,0,1.78-1.41,3.19-3.19,3.19-3.24,0-5.38-1.25-6.69-3.97-2.09,2.46-5.69,3.97-9.4,3.97-6.01,0-9.25-3.76-9.25-10.71Z"/>
  <path class="st0" d="M13.53,403.67c-2.19-5.38-6.17-14.47-9.04-20.22l-1.36.05c-1.67.05-3.03-1.31-3.13-3.08-.05-1.78,1.31-3.19,3.08-3.24l8.99-.37c1.72-.05,3.13,1.25,3.24,3.08.16,1.78-1.2,3.08-3.03,3.29l-.73.05c1.83,3.87,3.6,8.99,5.49,14.05,2.35-4.55,5.02-11.86,5.64-14.11-1.83-.26-3.19-1.62-3.24-3.34.1-1.67,1.62-3.08,3.34-3.08,1.62.05,5.12.42,7.89.84,1.88.21,3.03,1.51,2.93,3.45,0,1.72-1.31,2.93-3.08,2.87h-.21l-1.31-.21c-2.3,6.06-7.16,18.39-10.14,21.37-.52.52-1.41.89-2.25.89-1.25,0-2.56-.94-3.08-2.3Z"/>
  <path class="st0" d="M73.67,403.62c-1.88-4.18-3.81-8.99-5.9-14.68-1.78,3.97-3.6,8.57-5.59,14.05-.58,1.57-1.52,2.25-3.03,2.25-1.36,0-2.3-.58-2.82-1.72-3.24-6.84-5.64-13.48-8.46-20.32h-.47c-1.72,0-3.19-1.46-3.19-3.19s1.46-3.19,3.19-3.19l8.83-.05c1.57,0,2.93,1.41,3.03,3.19,0,1.72-1.46,3.19-3.19,3.19h-1.36c1.41,4.13,2.87,7.99,4.39,11.49,2.04-5.59,4.02-10.45,6.06-14.89.58-1.25,1.62-1.99,2.77-1.99,1.25,0,2.25.73,2.77,2.14,1.57,4.49,3.45,9.61,5.7,14.79,1.15-3.19,2.19-7.05,3.24-11.18-1.93,0-3.55-1.46-3.55-3.19,0-1.83,1.36-3.19,3.19-3.19l8.05-.05c1.83,0,3.19,1.36,3.19,3.19,0,1.72-1.46,3.19-3.19,3.19h-1.31c-2.82,8.83-4.65,15.73-6.95,20.22-.52.99-1.51,1.67-2.56,1.67-1.25,0-2.35-.68-2.82-1.72Z"/>
  <path class="st0" d="M105.8,404.51c-2.19-.21-3.19-1.2-3.19-3.19,0-1.83,1.31-3.19,2.98-3.19h.21l1.88.1,6.95-7.79-6.37-7.89-.89.05h-.63c-1.72-.11-2.77-1.31-2.77-3.19,0-1.72,1.25-3.03,2.98-3.13,1.31-.16,4.13-.37,5.75-.42h1.2c2.09.16,3.29,1.31,3.29,3.19,0,1.31-.73,2.51-1.83,2.87l3.4,4.75,3.71-4.44c-.89-.84-1.31-1.57-1.31-2.4,0-1.78,1.31-3.19,2.98-3.19h.21c1.52.11,3.03.21,4.55.21h1.1c1.83,0,3.08,1.31,3.08,3.19,0,1.78-1.36,3.19-3.19,3.19h-.94l-6.48,7.31,6.48,7.78h.84c1.88,0,3.19,1.31,3.19,3.19,0,1.78-1.31,3.08-3.19,3.19-.52.05-.89.05-2.46.05l-3.97-.11c-1.88-.05-3.19-1.36-3.19-3.19,0-1.2.63-2.19,1.78-2.87l-3.55-4.28-3.66,4.39c1.15.42,1.99,1.62,1.99,2.93,0,1.78-1.36,3.13-3.13,3.13-2.82,0-5.54-.11-7.78-.26Z"/>
  <path class="st0" d="M151.99,416h-.05c-1.57,0-2.98-1.46-2.98-3.19s1.36-3.08,3.08-3.19l3.81-.26c.89-1.88,1.67-3.92,2.46-5.8-4.23-8.52-7.11-15.05-9.09-20.53l-1.36-.05c-1.72,0-3.08-1.36-3.19-3.19,0-1.72,1.41-3.19,3.03-3.19h.16l3.81.1c1.78,0,3.5-.05,5.28-.16h.21c1.78,0,2.98,1.25,2.98,3.19,0,1.72-1.25,2.98-3.19,3.19l-.94.11c1.36,4.18,3.66,9.82,5.54,13.53,1.31-2.77,2.87-7.31,4.86-13.32-2.14,0-3.55-1.25-3.55-3.24,0-1.83,1.25-3.19,2.93-3.19h.26l5.02.1h.26l2.77-.05c1.78,0,3.03,1.31,3.03,3.19,0,1.72-1.36,3.13-2.98,3.13h-.94c-2.61,7.16-5.75,14.89-10.5,25.91h4.96c1.99.05,3.19,1.25,3.19,3.19s-1.2,3.08-3.08,3.19c-4.86,0-9.98.16-15.67.52h-.1Z"/>
  <path class="st0" d="M189.76,400.38c0-1.15.31-1.88,1.2-2.77,4.75-5.02,10.29-9.88,15.05-15.36-3.5-.26-6.37-.37-9.09-.37l.05,3.03v.1c0,1.83-1.36,3.13-3.19,3.13-1.93,0-3.13-1.25-3.19-3.24l-.16-5.75v-.1c0-1.83,1.57-3.24,3.55-3.24,4.08,0,15.26.52,16.61.78,1.88.37,3.19,1.78,3.19,3.5,0,1.04-.31,1.93-.99,2.93-3.76,5.38-9.87,10.71-14,15.05,1.31.1,3.08.16,4.39.16,1.67,0,3.34-.1,5.07-.21-.05-.1-.05-.26-.05-1.15,0-2.04,1.25-3.5,3.13-3.66,1.93,0,3.34,1.31,3.34,3.19v.68c0,1.93-.1,3.45-.31,4.02-.47,1.41-1.2,2.14-2.19,2.25-3.24.26-6.95.37-10.4.37-2.87,0-6.22-.16-8.83-.37-1.88-.21-3.19-1.41-3.19-2.98Z"/>
  <path class="st0" d="M2.98,509.99c0-11.75,5.49-19.17,13.48-19.17s13.11,6.95,13.11,18.96c0,13.43-4.91,20.22-12.7,20.22-8.25,0-13.9-6.9-13.9-20.01ZM22.89,509.63c0-8.31-1.93-12.43-6.43-12.43s-6.64,4.6-6.64,13.06c0,9.04,2.61,13.22,6.84,13.22s6.22-3.76,6.22-13.85Z"/>
  <path class="st0" d="M45.56,526.77c0-1.78,1.41-3.19,3.19-3.19h2.46c.26-3.24.37-12.9.37-17.14,0-3.45-.05-6.06-.21-8.41-1.83.26-2.04.42-3.81.89-.31.05-.52.11-.84.11-1.78,0-3.19-1.36-3.19-3.13,0-1.41.78-2.46,2.35-3.08,1.1-.47,4.75-1.15,6.06-1.15,3.03,0,5.33,1.83,5.64,4.54.26,1.83.37,4.91.37,9.35,0,4.91-.1,15-.37,18.02h2.56c1.83,0,3.08,1.25,3.19,3.19,0,1.78-1.41,3.13-3.19,3.13h-11.39c-1.78,0-3.19-1.36-3.19-3.13Z"/>
  <path class="st0" d="M77.43,526.19c0-.89.37-1.57.99-2.3l10.4-12.91c2.35-2.93,5.07-6.64,5.17-9.87.05-1.67-.73-3.87-3.92-3.87-2.4,0-4.54,1.36-5.33,4.08-.37,1.36-1.67,2.35-3.08,2.35-1.78,0-3.13-1.41-3.13-3.19,0-.26.05-.52.1-.84.63-4.65,5.28-8.88,11.75-8.78,5.9.1,10.55,4.07,10.55,10.19,0,4.54-3.45,8.99-5.85,12.33-2.51,3.45-4.96,6.27-7.99,9.77l9.2.11.57-3.4c.26-1.31,1.57-2.35,3.03-2.35,1.88,0,3.24,1.36,3.24,3.19,0,.21-.05.47-.1.84-.21,1.04-.68,4.28-.73,4.96-.21,2.04-1.36,3.19-3.19,3.19l-18.44-.37c-1.93-.05-3.24-1.31-3.24-3.13Z"/>
  <path class="st0" d="M117.35,526.5c-.47-.37-1.57-1.15-1.57-2.77,0-1.78,1.36-3.19,3.08-3.19.05,0,.94,0,1.67.42,2.09,1.51,5.12,2.51,7.68,2.51,3.71,0,5.85-2.61,5.85-5.38,0-4.39-3.97-4.91-7.94-4.91-1.72,0-3.08-1.41-3.08-3.19s1.46-3.19,3.19-3.19c4.6,0,6.79-2.56,6.79-5.75,0-2.3-1.78-3.81-4.44-3.81s-4.54,1.57-5.07,3.92c-.37,1.62-1.62,2.3-2.98,2.3-1.93,0-3.24-1.31-3.24-3.19,0-4.75,5.54-9.4,11.18-9.4,6.17,0,10.87,3.45,10.87,10.03,0,3.08-1.67,6.37-4.44,8.15,3.81,1.98,5.8,4.6,5.8,9.04,0,6.27-5.22,11.81-12.12,11.81-3.71,0-8.72-1.52-11.23-3.4Z"/>
  <path class="st0" d="M171.37,526.98v-6.06h-3.4c-4.55,0-7.99-.26-10.87-.84-1.36-.26-2.35-1.46-2.35-2.87,0-.47.16-1.2.47-1.83l11.39-22.94c.47-.94,1.51-1.57,2.66-1.57,1.78,0,3.24,1.36,3.24,3.03,0,.68-.1,1.15-.42,1.78l-9.14,18.65c2.04.1,4.02.21,6.06.21h2.35v-8.25c0-1.83,1.46-3.19,3.45-3.19,1.62,0,2.93,1.41,2.93,3.19v8.05c.73,0,2.14-.1,2.87-.16,1.72,0,3.08,1.31,3.08,3.03,0,1.93-1.25,3.29-3.08,3.34l-2.87.16v6.27c0,1.72-1.36,2.72-3.19,2.82-1.72,0-3.19-1.1-3.19-2.82Z"/>
  <path class="st0" d="M196.4,525.2c-.58-.58-.89-1.36-.89-2.3,0-1.62,1.52-3.08,3.24-3.08.78,0,1.62.37,2.25.94,1.83,1.83,4.13,2.77,6.69,2.77,4.28,0,6.9-2.82,6.9-6.58,0-3.34-2.25-5.43-5.9-5.43-1.72,0-3.5.68-4.75,1.78-.31.26-1.04.94-2.35.94-1.83,0-3.08-1.46-3.08-3.5l.78-15.78c.1-1.72,1.25-2.82,2.82-2.93,4.08-.26,6.11-.05,12.12.31l.26-1.99c.21-1.62,1.46-2.77,3.03-2.77,1.88,0,3.24,1.2,3.24,2.93v.31l-.63,5.22c-.21,1.72-1.31,2.82-3.24,2.66-3.66-.26-7.47-.63-11.18-.73-.16,2.66-.37,6.63-.52,7.84,1.15-.37,2.51-.52,3.45-.52,7.31,0,12.33,4.7,12.33,11.6,0,7.37-5.43,13.01-13.22,13.01-4.44,0-8.2-1.57-11.34-4.7Z"/>
  <path class="st0" d="M237.41,510.99c0-12.91,5.7-20.17,13.43-20.17,5.49,0,10.24,3.5,10.24,7.58,0,1.83-1.31,3.13-3.19,3.13-.68,0-1.15-.11-1.57-.37-.84-.47-1.25-1.46-1.46-1.83-.99-1.57-2.04-2.14-4.08-2.14-3.76,0-6.58,3.13-6.95,11.7,2.19-1.93,4.96-2.93,8.1-2.93,5.75,0,10.24,3.66,10.24,10.61,0,8.57-5.07,13.38-11.81,13.38-8.1,0-12.96-7.31-12.96-18.97ZM255.75,516.79c0-2.56-1.57-4.49-3.92-4.49-2.51,0-5.33,1.41-7.31,3.66,1.04,5.17,3.03,7.63,5.85,7.63,3.13,0,5.38-2.87,5.38-6.79Z"/>
  <path class="st0" d="M283.81,526.5c0-6.32,5.12-21.05,11.08-28.37-4.13,0-7.42-.1-9.87-.31-.1,1.78-.31,3.71-.63,5.12-.31,1.31-1.67,2.35-3.03,2.35-1.93,0-3.24-1.25-3.24-3.03,0-.47,0-.57.05-.73.37-1.83.58-4.44.58-7.21,0-1.78,1.31-3.19,2.98-3.19h.21c5.9.58,11.23.78,18.65.78,1.99,0,3.5,1.41,3.5,3.19,0,1.15-.52,1.72-1.04,2.35-7.47,8.67-12.38,20.48-12.38,29.05,0,1.72-1.88,3.19-3.66,3.19s-3.19-1.46-3.19-3.19Z"/>
  <path class="st0" d="M316.78,519.61c0-4.23,2.72-7.47,6.43-9.56-3.03-1.41-5.33-4.49-5.33-8.52,0-6.74,5.17-10.61,12.12-10.61,6.32,0,10.87,3.71,10.87,9.87,0,4.44-2.67,6.9-5.49,8.99,3.24,1.93,6.58,5.22,6.58,9.77,0,6.37-5.17,10.34-13.01,10.34s-12.17-3.66-12.17-10.29ZM335.38,518.77c0-2.14-2.61-4.34-6.11-5.8-3.5,1.88-6.11,4.13-6.11,6.58,0,2.98,2.51,4.49,6.32,4.49s5.9-1.93,5.9-5.28ZM334.28,501.06c0-2.72-1.93-3.81-4.28-3.81-2.87,0-5.54,1.36-5.54,4.29,0,2.19,1.51,3.76,4.6,5.38,3.55-1.88,5.22-3.5,5.22-5.85Z"/>
  <path class="st0" d="M358.31,526.03c-.58-.47-.94-1.36-.99-2.3,0-1.67,1.52-3.19,3.19-3.19.37,0,.78.1,1.25.26,1.04.42,2.77,2.61,7.21,2.61,3.24,0,6.17-6.01,6.64-10.08-1.99,1.57-4.6,2.4-7.47,2.4-6.01,0-10.76-5.22-10.76-11.23,0-8.31,5.17-13.74,12.38-13.74,7.68,0,12.64,6.84,12.64,18.76,0,10.5-5.43,20.27-13.58,20.27-6.06,0-9.51-2.93-10.5-3.76ZM375.66,505.76c-.68-6.06-2.82-8.62-6.11-8.62s-5.85,2.72-5.85,7.21c0,2.67,1.98,5.02,4.91,5.02s5.7-1.41,7.05-3.6Z"/>
  <path class="st0" d="M4.23,595.79c0-.57.1-1.1.37-1.51l2.14-4.34c-.68-.99-1.04-1.98-1.04-3.03,0-2.56,1.93-4.44,4.44-4.44,2.35,0,4.23,1.99,4.23,4.54,0,1.72-.99,3.61-1.25,4.18l-2.51,5.28c-.89,1.83-1.67,2.4-3.13,2.4-1.83,0-3.24-1.31-3.24-3.08Z"/>
  <path class="st0" d="M32.08,595.79c0-.57.1-1.1.37-1.51l2.14-4.34c-.68-.99-1.04-1.98-1.04-3.03,0-2.56,1.93-4.44,4.44-4.44,2.35,0,4.23,1.99,4.23,4.54,0,1.72-.99,3.61-1.25,4.18l-2.51,5.28c-.89,1.83-1.67,2.4-3.13,2.4-1.83,0-3.24-1.31-3.24-3.08ZM34.64,573.58l-.05-7.11c0-1.93,1.31-3.24,3.24-3.24,1.83,0,3.13,1.36,3.19,3.24l.1,7.11v.1c0,1.83-1.31,3.13-3.24,3.13s-3.24-1.31-3.24-3.24Z"/>
  <path class="st0" d="M60.09,573.58l-.05-7.11c0-1.93,1.31-3.24,3.24-3.24,1.83,0,3.13,1.36,3.19,3.24l.1,7.11v.1c0,1.83-1.31,3.13-3.24,3.13s-3.24-1.31-3.24-3.24ZM60.5,590.3l-.05-7.11c0-1.93,1.31-3.24,3.24-3.24,1.83,0,3.13,1.36,3.19,3.24l.1,7.11v.1c0,1.83-1.31,3.13-3.24,3.13s-3.24-1.31-3.24-3.24Z"/>
  <path class="st0" d="M95.4,579.8l-10.55.21h-.1c-1.88,0-3.24-1.31-3.24-3.19,0-1.78,1.41-3.13,3.34-3.19l10.55-.21h.1c1.93,0,3.29,1.31,3.29,3.19s-1.31,3.13-3.4,3.19Z"/>
  <path class="st0" d="M132.71,601.59l-19.59.21c-1.99,0-3.34-1.31-3.34-3.19,0-1.78,1.46-3.19,3.34-3.19l19.59-.21c1.99,0,3.4,1.31,3.4,3.19s-1.36,3.19-3.4,3.19Z"/>
  <path class="st0" d="M151.47,591.61v-.37l.42-5.33c.16-1.93,1.46-3.13,3.4-3.13,1.72,0,3.03,1.46,3.03,3.4v.31l-.37,5.33c-.16,1.93-1.36,3.08-3.29,3.08s-3.19-1.31-3.19-3.29ZM151.99,577.03v-.31c.26-5.12.42-9.61.42-14.32v-.1l-.1-7.31c0-1.93,1.41-3.4,3.24-3.4,2.04,0,3.19,1.36,3.24,3.76.05,1.1.05,1.98.05,5.22,0,4.75-.1,9.77-.42,16.67-.1,1.88-1.46,3.19-3.45,3.19-1.72,0-2.98-1.46-2.98-3.4Z"/>
  <path class="st0" d="M187.67,567.78c3.55-1.67,5.8-2.66,5.8-5.64,0-2.3-2.61-4.02-6.17-4.02-1.99,0-3.29.21-4.96.84l.16,3.5v.1c0,1.25-1.2,2.51-2.67,2.77-.1.05-.21.05-.63.05-1.51,0-2.66-.99-2.93-2.51-.1-.37-.16-.89-.16-1.31l-.16-4.86v-.16c0-.94.37-1.62,1.2-2.19,1.99-1.46,6.58-2.61,10.55-2.61,6.95,0,12.12,4.44,12.12,10.34,0,4.7-2.19,7.89-7.16,10.34-3.81,1.93-5.17,2.19-5.17,4.02-.16,1.93-1.36,3.08-3.19,3.08h-.21c-1.83,0-3.08-1.31-3.08-3.24v-.37c0-3.71,1.72-5.85,6.63-8.15ZM180.93,590.04v-.37l.42-5.33c.16-1.93,1.46-3.13,3.4-3.13,1.72,0,3.03,1.46,3.03,3.4v.31l-.37,5.33c-.16,1.93-1.36,3.08-3.29,3.08s-3.19-1.31-3.19-3.29Z"/>
  <path class="st0" d="M242.37,593.59c-.73,0-1.15-.16-1.78-.73-1.46-1.41-1.99-2.3-3.45-3.71-3.4,2.77-6.43,3.81-10.81,3.81-6.84,0-11.86-4.7-11.86-11.13,0-4.96,2.67-9.04,7.37-11.29-.94-1.93-1.41-3.71-1.41-5.38,0-6.01,4.13-9.72,10.82-9.72,2.19,0,4.02.26,6.69.99,1.41.37,2.35,1.67,2.4,3.29l.16,4.65c0,1.93-1.36,3.29-3.34,3.29-1.83,0-3.29-1.41-3.29-3.13l-.1-2.3c-.21,0-1.46-.21-3.24-.21-2.14,0-3.45,1.04-3.45,2.82,0,3.61,3.87,6.17,9.46,13.38.68-1.98,1.15-3.87,1.46-5.54.31-1.46,1.57-2.46,3.13-2.46h.1l5.85.16c2.09,0,3.45,1.36,3.45,3.34,0,1.72-1.41,3.19-3.13,3.19l-3.55-.05c-.47,2.04-2.14,6.48-2.61,6.95l2.72,2.98h.21c1.46-.16,3.08-.47,4.23-.47,1.78,0,3.08,1.36,3.08,3.24s-1.1,3.19-3.13,3.45l-5.59.58h-.37ZM232.81,584.14c-2.35-3.19-4.7-5.96-6.95-8.15-3.19,1.04-4.86,3.08-4.86,5.96,0,2.61,2.19,4.39,5.49,4.39,2.25,0,4.96-.94,6.32-2.19Z"/>
</svg>