<?xml version="1.0" encoding="UTF-8"?>
<svg id="Text" xmlns="http://www.w3.org/2000/svg" version="1.1" viewBox="0 0 1237.48 579.41">
  <!-- Generator: Adobe Illustrator 29.5.0, SVG Export Plug-In . SVG Version: 2.1.0 Build 137)  -->
  <defs>
    <style>
      .st0 {
        fill: #ccb9af;
      }

      .st1 {
        fill: #3c3c3b;
      }

      .st2 {
        fill: #72c1a3;
      }

      .st3 {
        fill: #adb2d6;
      }

      .st4 {
        fill: #3b578d;
      }

      .st5 {
        fill: #7d993b;
      }

      .st6 {
        fill: #7b0a1f;
      }

      .st7 {
        fill: #ecf0f5;
      }

      .st8 {
        fill: #ba9893;
      }

      .st8, .st9, .st10, .st11, .st12, .st13, .st14, .st15, .st16, .st17, .st18 {
        stroke: #fff;
        stroke-miterlimit: 10;
      }

      .st19 {
        fill: #dde1e9;
      }

      .st20 {
        fill: #f5f6f9;
      }

      .st21 {
        fill: #ebe3dd;
      }

      .st22 {
        fill: #fbfaf8;
      }

      .st23 {
        fill: #8ec0e5;
      }

      .st24 {
        fill: #f7f4f1;
      }

      .st25 {
        fill: #fbd190;
      }

      .st26 {
        fill: #d86160;
      }

      .st9 {
        fill: #b20933;
      }

      .st10 {
        fill: #aba49e;
      }

      .st27 {
        fill: #486fb5;
      }

      .st28 {
        fill: #f39d99;
      }

      .st29 {
        fill: #e5eada;
      }

      .st30 {
        fill: #9c785f;
      }

      .st31 {
        fill: #c7e0f0;
      }

      .st32 {
        fill: #f3f3ea;
      }

      .st33 {
        fill: #dbe7ea;
      }

      .st34 {
        fill: #f5eaf0;
      }

      .st35 {
        fill: #ad5e2b;
      }

      .st36 {
        fill: #c795ad;
      }

      .st37 {
        fill: #bac755;
      }

      .st38 {
        fill: #f9f7f4;
      }

      .st39 {
        fill: #fdfefd;
      }

      .st40 {
        fill: #e5efea;
      }

      .st41 {
        fill: #fbeed6;
      }

      .st42 {
        fill: #e7843b;
      }

      .st43 {
        fill: #ebd5dd;
      }

      .st44 {
        fill: #fbf5e8;
      }

      .st45 {
        fill: #dc8e07;
      }

      .st46 {
        fill: #fbf3a9;
      }

      .st47 {
        fill: #386473;
      }

      .st48 {
        fill: #f1f5f4;
      }

      .st49 {
        fill: #edf1ee;
      }

      .st50 {
        fill: #f1d2d6;
      }

      .st51 {
        fill: #6f96b2;
      }

      .st11 {
        fill: #f7a600;
      }

      .st52 {
        fill: #f0f3dd;
      }

      .st53 {
        fill: #f08281;
      }

      .st54 {
        fill: #eef3f5;
      }

      .st55 {
        fill: #5d69ad;
      }

      .st56 {
        fill: #a3b7d9;
      }

      .st57 {
        fill: #fae4e7;
      }

      .st58 {
        fill: #eeeeba;
      }

      .st12 {
        stroke-width: .5px;
      }

      .st12, .st59 {
        fill: #fff;
      }

      .st13 {
        fill: #1d1d1b;
      }

      .st60 {
        fill: #7c8990;
      }

      .st61 {
        fill: #5a9780;
      }

      .st62 {
        fill: #f5f1e7;
      }

      .st63 {
        fill: #5a6469;
      }

      .st64 {
        fill: #e0e374;
      }

      .st65 {
        fill: #e6342b;
      }

      .st66 {
        fill: #f3f4d8;
      }

      .st67 {
        fill: #575756;
      }

      .st68 {
        fill: #fcfbf2;
      }

      .st69 {
        fill: #eeeef5;
      }

      .st70 {
        fill: #e8dbc7;
      }

      .st71 {
        fill: #a6c4cd;
      }

      .st72 {
        fill: #fbebec;
      }

      .st73 {
        fill: #b8c0c8;
      }

      .st74 {
        fill: #fdf9de;
      }

      .st75 {
        fill: #51814c;
      }

      .st76 {
        fill: #dddddc;
      }

      .st14 {
        fill: #8d5352;
      }

      .st77 {
        fill: #dc8d99;
      }

      .st78 {
        fill: #ded3cb;
      }

      .st79 {
        fill: #375c35;
      }

      .st80 {
        fill: #7d4d24;
      }

      .st81 {
        fill: #e5dbd3;
      }

      .st82 {
        fill: #8e2a5e;
      }

      .st83 {
        fill: #a9a8a7;
      }

      .st84, .st18 {
        fill: #69513f;
      }

      .st85 {
        fill: #533313;
      }

      .st86 {
        fill: #ebd50f;
      }

      .st87 {
        fill: #421536;
      }

      .st88 {
        fill: #50899e;
      }

      .st89 {
        fill: #faf1f2;
      }

      .st15 {
        fill: #49080b;
      }

      .st90 {
        fill: #f9e8ea;
      }

      .st91 {
        fill: #f6c0c0;
      }

      .st16 {
        fill: #f3ebe5;
      }

      .st92 {
        fill: #fefdef;
      }

      .st93 {
        fill: #cdc9c7;
      }

      .st94 {
        fill: #a28f71;
      }

      .st95 {
        fill: #adb05c;
      }

      .st17 {
        fill: #6b2324;
      }

      .st96 {
        fill: #a8bfa5;
      }

      .st97 {
        fill: #fbf2ec;
      }

      .st98 {
        fill: #5a722b;
      }

      .st99 {
        fill: #f0eeef;
      }

      .st100 {
        fill: #dde2ac;
      }

      .st101 {
        fill: #f2c19f;
      }

      .st102 {
        fill: #bfa694;
      }

      .st103 {
        fill: #dae3ee;
      }

      .st104 {
        fill: #fad6d4;
      }

      .st105 {
        fill: #f2edea;
      }

      .st106 {
        fill: #f7f2ee;
      }

      .st107 {
        fill: #e8f1f8;
      }

      .st108 {
        fill: #f7f7ef;
      }

      .st109 {
        fill: #4a5287;
      }

      .st110 {
        fill: #bdcc9f;
      }

      .st111 {
        fill: #dedfec;
      }

      .st112 {
        fill: #edf1f7;
      }

      .st113 {
        fill: #fff042;
      }

      .st114 {
        fill: #dce5da;
      }

      .st115 {
        fill: #8f9b42;
      }

      .st116 {
        fill: #d5ba92;
      }

      .st117 {
        fill: #f9e5db;
      }

      .st118 {
        fill: #bbddce;
      }

      .st119 {
        fill: #b02b1e;
      }
    </style>
  </defs>
  <g>
    <rect class="st17" x="597.39" y="56.54" width="44.82" height="60.8" rx="8" ry="8"/>
    <path class="st13" d="M634.21,57.04c4.14,0,7.5,3.37,7.5,7.5v44.79c0,4.14-3.37,7.5-7.5,7.5h-28.81c-4.14,0-7.5-3.37-7.5-7.5v-44.79c0-4.14,3.37-7.5,7.5-7.5h28.81M634.21,56.04h-28.81c-4.68,0-8.5,3.83-8.5,8.5v44.79c0,4.68,3.83,8.5,8.5,8.5h28.81c4.68,0,8.5-3.83,8.5-8.5v-44.79c0-4.68-3.83-8.5-8.5-8.5h0Z"/>
  </g>
  <g>
    <path class="st14" d="M603.41,159.82h32.79c3.32,0,6.01,2.7,6.01,6.01v15.56c0,3.32-2.69,6.01-6.01,6.01h-32.79c-3.32,0-6.01-2.69-6.01-6.01v-15.56c0-3.32,2.69-6.01,6.01-6.01Z"/>
    <path class="st13" d="M636.2,160.32c3.04,0,5.51,2.47,5.51,5.51v15.56c0,3.04-2.47,5.51-5.51,5.51h-32.79c-3.04,0-5.51-2.47-5.51-5.51v-15.56c0-3.04,2.47-5.51,5.51-5.51h32.79M636.2,159.32h-32.79c-3.58,0-6.51,2.93-6.51,6.51v15.56c0,3.58,2.93,6.51,6.51,6.51h32.79c3.58,0,6.51-2.93,6.51-6.51v-15.56c0-3.58-2.93-6.51-6.51-6.51h0Z"/>
  </g>
  <g>
    <path class="st15" d="M603.41.5h32.79c3.32,0,6.01,2.7,6.01,6.01v15.56c0,3.32-2.69,6.01-6.01,6.01h-32.79c-3.32,0-6.01-2.69-6.01-6.01V6.51c0-3.32,2.69-6.01,6.01-6.01Z"/>
    <path class="st13" d="M636.2,1c3.04,0,5.51,2.47,5.51,5.51v15.56c0,3.04-2.47,5.51-5.51,5.51h-32.79c-3.04,0-5.51-2.47-5.51-5.51V6.51c0-3.04,2.47-5.51,5.51-5.51h32.79M636.2,0h-32.79c-3.58,0-6.51,2.93-6.51,6.51v15.56c0,3.58,2.93,6.51,6.51,6.51h32.79c3.58,0,6.51-2.93,6.51-6.51V6.51c0-3.58-2.93-6.51-6.51-6.51h0Z"/>
  </g>
  <g>
    <rect class="st8" x="597.39" y="219.44" width="44.82" height="27.59" rx="6.01" ry="6.01"/>
    <path class="st13" d="M636.2,219.94c3.04,0,5.51,2.47,5.51,5.51v15.56c0,3.04-2.47,5.51-5.51,5.51h-32.79c-3.04,0-5.51-2.47-5.51-5.51v-15.56c0-3.04,2.47-5.51,5.51-5.51h32.79M636.2,218.94h-32.79c-3.58,0-6.51,2.93-6.51,6.51v15.56c0,3.58,2.93,6.51,6.51,6.51h32.79c3.58,0,6.51-2.93,6.51-6.51v-15.56c0-3.58-2.93-6.51-6.51-6.51h0Z"/>
  </g>
  <rect class="st55" x="488.76" y="56.04" width="45.82" height="61.8" rx="8.5" ry="8.5"/>
  <rect class="st3" x="488.76" y="159.32" width="45.82" height="28.59" rx="6.51" ry="6.51"/>
  <rect class="st111" x="488.76" y="218.94" width="45.82" height="28.59" rx="6.51" ry="6.51"/>
  <rect class="st69" x="488.76" y="276.56" width="45.82" height="28.59" rx="6.51" ry="6.51"/>
  <rect class="st109" x="488.76" width="45.82" height="28.59" rx="6.51" ry="6.51"/>
  <rect class="st82" x="542.83" y="56.04" width="45.82" height="61.8" rx="8.5" ry="8.5"/>
  <rect class="st36" x="542.83" y="159.32" width="45.82" height="28.59" rx="6.51" ry="6.51"/>
  <rect class="st43" x="542.83" y="218.94" width="45.82" height="28.59" rx="6.51" ry="6.51"/>
  <rect class="st34" x="542.83" y="276.56" width="45.82" height="28.59" rx="6.51" ry="6.51"/>
  <rect class="st87" x="542.83" width="45.82" height="28.59" rx="6.51" ry="6.51"/>
  <rect class="st88" x="326.55" y="56.04" width="45.82" height="61.8" rx="8.5" ry="8.5"/>
  <rect class="st71" x="326.55" y="159.32" width="45.82" height="28.59" rx="6.51" ry="6.51"/>
  <rect class="st33" x="326.55" y="218.94" width="45.82" height="28.59" rx="6.51" ry="6.51"/>
  <rect class="st54" x="326.55" y="276.56" width="45.82" height="28.59" rx="6.51" ry="6.51"/>
  <rect class="st47" x="326.55" width="45.82" height="28.59" rx="6.51" ry="6.51"/>
  <rect class="st23" x="434.69" y="56.04" width="45.82" height="61.8" rx="8.5" ry="8.5"/>
  <rect class="st31" x="434.69" y="159.32" width="45.82" height="28.59" rx="6.51" ry="6.51"/>
  <rect class="st107" x="434.69" y="218.94" width="45.82" height="28.59" rx="6.51" ry="6.51"/>
  <rect class="st20" x="434.69" y="276.56" width="45.82" height="28.59" rx="6.51" ry="6.51"/>
  <rect class="st51" x="434.69" width="45.82" height="28.59" rx="6.51" ry="6.51"/>
  <rect class="st27" x="380.62" y="56.04" width="45.82" height="61.8" rx="8.5" ry="8.5"/>
  <rect class="st56" x="380.62" y="159.32" width="45.82" height="28.59" rx="6.51" ry="6.51"/>
  <rect class="st103" x="380.62" y="218.94" width="45.82" height="28.59" rx="6.51" ry="6.51"/>
  <rect class="st7" x="380.62" y="276.56" width="45.82" height="28.59" rx="6.51" ry="6.51"/>
  <rect class="st4" x="380.62" width="45.82" height="28.59" rx="6.51" ry="6.51"/>
  <rect class="st2" x="272.48" y="56.04" width="45.82" height="61.8" rx="8.5" ry="8.5"/>
  <rect class="st118" x="272.48" y="159.32" width="45.82" height="28.59" rx="6.51" ry="6.51"/>
  <rect class="st40" x="272.48" y="218.94" width="45.82" height="28.59" rx="6.51" ry="6.51"/>
  <rect class="st48" x="272.48" y="276.56" width="45.82" height="28.59" rx="6.51" ry="6.51"/>
  <rect class="st61" x="272.48" width="45.82" height="28.59" rx="6.51" ry="6.51"/>
  <rect class="st75" x="218.41" y="56.04" width="45.82" height="61.8" rx="8.5" ry="8.5"/>
  <rect class="st96" x="218.41" y="159.32" width="45.82" height="28.59" rx="6.51" ry="6.51"/>
  <rect class="st114" x="218.41" y="218.94" width="45.82" height="28.59" rx="6.51" ry="6.51"/>
  <rect class="st49" x="218.41" y="276.56" width="45.82" height="28.59" rx="6.51" ry="6.51"/>
  <rect class="st79" x="218.41" width="45.82" height="28.59" rx="6.51" ry="6.51"/>
  <rect class="st5" x="164.34" y="56.04" width="45.82" height="61.8" rx="8.5" ry="8.5"/>
  <rect class="st110" x="164.34" y="159.32" width="45.82" height="28.59" rx="6.51" ry="6.51"/>
  <rect class="st29" x="164.34" y="218.94" width="45.82" height="28.59" rx="6.51" ry="6.51"/>
  <rect class="st32" x="164.34" y="276.56" width="45.82" height="28.59" rx="6.51" ry="6.51"/>
  <rect class="st98" x="164.34" width="45.82" height="28.59" rx="6.51" ry="6.51"/>
  <rect class="st80" x="1083.52" y="56.04" width="45.82" height="61.8" rx="8.5" ry="8.5"/>
  <rect class="st102" x="1083.52" y="159.32" width="45.82" height="28.59" rx="6.51" ry="6.51"/>
  <rect class="st81" x="1083.52" y="218.94" width="45.82" height="28.59" rx="6.51" ry="6.51"/>
  <rect class="st105" x="1083.52" y="276.56" width="45.82" height="28.59" rx="6.51" ry="6.51"/>
  <rect class="st85" x="1083.52" width="45.82" height="28.59" rx="6.51" ry="6.51"/>
  <rect class="st67" x="1137.59" y="56.04" width="45.82" height="61.8" rx="8.5" ry="8.5"/>
  <rect class="st83" x="1137.59" y="159.32" width="45.82" height="28.59" rx="6.51" ry="6.51"/>
  <rect class="st76" x="1137.59" y="218.94" width="45.82" height="28.59" rx="6.51" ry="6.51"/>
  <rect class="st99" x="1137.59" y="276.56" width="45.82" height="28.59" rx="6.51" ry="6.51"/>
  <rect class="st1" x="1137.59" width="45.82" height="28.59" rx="6.51" ry="6.51"/>
  <rect class="st30" x="1029.45" y="56.04" width="45.82" height="61.8" rx="8.5" ry="8.5"/>
  <rect class="st0" x="1029.45" y="159.32" width="45.82" height="28.59" rx="6.51" ry="6.51"/>
  <rect class="st21" x="1029.45" y="218.94" width="45.82" height="28.59" rx="6.51" ry="6.51"/>
  <rect class="st106" x="1029.45" y="276.56" width="45.82" height="28.59" rx="6.51" ry="6.51"/>
  <rect class="st84" x="1029.45" width="45.82" height="28.59" rx="6.51" ry="6.51"/>
  <rect class="st60" x="1191.65" y="56.04" width="45.82" height="61.8" rx="8.5" ry="8.5"/>
  <rect class="st73" x="1191.65" y="159.32" width="45.82" height="28.59" rx="6.51" ry="6.51"/>
  <rect class="st19" x="1191.65" y="218.94" width="45.82" height="28.59" rx="6.51" ry="6.51"/>
  <rect class="st112" x="1191.65" y="276.56" width="45.82" height="28.59" rx="6.51" ry="6.51"/>
  <rect class="st63" x="1191.65" width="45.82" height="28.59" rx="6.51" ry="6.51"/>
  <g>
    <rect class="st11" x="867.32" y="56.54" width="44.82" height="60.8" rx="8" ry="8"/>
    <path class="st13" d="M904.14,57.04c4.14,0,7.5,3.37,7.5,7.5v44.79c0,4.14-3.37,7.5-7.5,7.5h-28.81c-4.14,0-7.5-3.37-7.5-7.5v-44.79c0-4.14,3.37-7.5,7.5-7.5h28.81M904.14,56.04h-28.81c-4.68,0-8.5,3.83-8.5,8.5v44.79c0,4.68,3.83,8.5,8.5,8.5h28.81c4.68,0,8.5-3.83,8.5-8.5v-44.79c0-4.68-3.83-8.5-8.5-8.5h0Z"/>
  </g>
  <rect class="st25" x="866.82" y="159.32" width="45.82" height="28.59" rx="6.51" ry="6.51"/>
  <rect class="st41" x="866.82" y="218.94" width="45.82" height="28.59" rx="6.51" ry="6.51"/>
  <rect class="st44" x="866.82" y="276.56" width="45.82" height="28.59" rx="6.51" ry="6.51"/>
  <rect class="st45" x="866.82" width="45.82" height="28.59" rx="6.51" ry="6.51"/>
  <rect class="st113" y="56.04" width="45.82" height="61.8" rx="8.5" ry="8.5"/>
  <rect class="st46" y="159.32" width="45.82" height="28.59" rx="6.51" ry="6.51"/>
  <rect class="st74" y="218.94" width="45.82" height="28.59" rx="6.51" ry="6.51"/>
  <rect class="st92" y="276.56" width="45.82" height="28.59" rx="6.51" ry="6.51"/>
  <rect class="st86" width="45.82" height="28.59" rx="6.51" ry="6.51"/>
  <g>
    <rect class="st16" x="921.81" y="56.54" width="44.82" height="60.8" rx="8" ry="8"/>
    <path class="st13" d="M958.63,57.04c4.14,0,7.5,3.37,7.5,7.5v44.79c0,4.14-3.37,7.5-7.5,7.5h-28.81c-4.14,0-7.5-3.37-7.5-7.5v-44.79c0-4.14,3.37-7.5,7.5-7.5h28.81M958.63,56.04h-28.81c-4.68,0-8.5,3.83-8.5,8.5v44.79c0,4.68,3.83,8.5,8.5,8.5h28.81c4.68,0,8.5-3.83,8.5-8.5v-44.79c0-4.68-3.83-8.5-8.5-8.5h0Z"/>
  </g>
  <rect class="st24" x="921.31" y="159.32" width="45.82" height="28.59" rx="6.51" ry="6.51"/>
  <rect class="st22" x="921.31" y="218.94" width="45.82" height="28.59" rx="6.51" ry="6.51"/>
  <rect class="st39" x="921.31" y="276.56" width="45.82" height="28.59" rx="6.51" ry="6.51"/>
  <rect class="st78" x="921.31" width="45.82" height="28.59" rx="6.51" ry="6.51"/>
  <rect class="st116" x="975.38" y="56.04" width="45.82" height="61.8" rx="8.5" ry="8.5"/>
  <rect class="st70" x="975.38" y="159.32" width="45.82" height="28.59" rx="6.51" ry="6.51"/>
  <rect class="st62" x="975.38" y="218.94" width="45.82" height="28.59" rx="6.51" ry="6.51"/>
  <rect class="st38" x="975.38" y="276.56" width="45.82" height="28.59" rx="6.51" ry="6.51"/>
  <rect class="st94" x="975.38" width="45.82" height="28.59" rx="6.51" ry="6.51"/>
  <rect class="st53" x="759.1" y="56.04" width="45.82" height="61.8" rx="8.5" ry="8.5"/>
  <rect class="st91" x="759.1" y="159.32" width="45.82" height="28.59" rx="6.51" ry="6.51"/>
  <rect class="st57" x="759.1" y="218.94" width="45.82" height="28.59" rx="6.51" ry="6.51"/>
  <rect class="st89" x="759.1" y="276.56" width="45.82" height="28.59" rx="6.51" ry="6.51"/>
  <rect class="st26" x="759.1" width="45.82" height="28.59" rx="6.51" ry="6.51"/>
  <rect class="st65" x="704.64" y="56.04" width="45.82" height="61.8" rx="8.5" ry="8.5"/>
  <rect class="st28" x="704.64" y="159.32" width="45.82" height="28.59" rx="6.51" ry="6.51"/>
  <rect class="st104" x="704.64" y="218.94" width="45.82" height="28.59" rx="6.51" ry="6.51"/>
  <rect class="st72" x="704.64" y="276.56" width="45.82" height="28.59" rx="6.51" ry="6.51"/>
  <rect class="st119" x="704.64" width="45.82" height="28.59" rx="6.51" ry="6.51"/>
  <rect class="st37" x="110.27" y="56.04" width="45.82" height="61.8" rx="8.5" ry="8.5"/>
  <rect class="st64" x="56.2" y="56.04" width="45.82" height="61.8" rx="8.5" ry="8.5"/>
  <rect class="st100" x="110.27" y="159.32" width="45.82" height="28.59" rx="6.51" ry="6.51"/>
  <rect class="st52" x="110.27" y="218.94" width="45.82" height="28.59" rx="6.51" ry="6.51"/>
  <rect class="st108" x="110.27" y="276.56" width="45.82" height="28.59" rx="6.51" ry="6.51"/>
  <rect class="st58" x="56.2" y="159.32" width="45.82" height="28.59" rx="6.51" ry="6.51"/>
  <rect class="st66" x="56.2" y="218.94" width="45.82" height="28.59" rx="6.51" ry="6.51"/>
  <rect class="st68" x="56.2" y="276.56" width="45.82" height="28.59" rx="6.51" ry="6.51"/>
  <rect class="st115" x="110.27" width="45.82" height="28.59" rx="6.51" ry="6.51"/>
  <rect class="st95" x="56.2" width="45.82" height="28.59" rx="6.51" ry="6.51"/>
  <path class="st18" d="M205.98,497.11c.57,7.02-.11,13.34-1.95,18.77-1.77,5.49-4.66,10.23-8.41,14.29s-8.4,7.45-13.82,10.11c-2.73,1.34-5.69,2.57-8.88,3.67-3.21,1.1-6.67,2.05-10.39,2.87-1.49.32-3.06.71-4.65,1.06-1.62.33-3.27.54-4.97.6-1.72-.03-3.48-.2-5.27-.49-1.8-.29-3.62-.64-5.46-.97-1.84-.33-3.69-.56-5.55-.68-1.86-.11-3.72-.08-5.56.12-1.85.19-3.66.54-5.44.99-1.79.45-3.55.95-5.28,1.44-1.73.48-3.45.87-5.15,1.14-1.71.17-3.41.17-5.09,0-1.69-.28-3.37-.67-5-1.08-4.29-1.07-8.39-2.42-12.18-4.04-3.8-1.62-7.29-3.43-10.42-5.36-6.26-3.85-11.35-8.22-15.37-13.03-1.92-2.3-3.61-4.73-5.03-7.3s-2.59-5.29-3.47-8.15c-.45-1.39-.84-2.84-1.16-4.32s-.57-3-.77-4.55c-.2-1.54-.33-3.1-.4-4.67-.08-1.55-.1-3.11-.07-4.67.03-2.52.21-4.96.54-7.33.16-1.16.36-2.31.6-3.43.24-1.12.52-2.23.85-3.33.33-1.11.71-2.22,1.15-3.35.44-1.13.93-2.28,1.49-3.46.57-1.21,1.19-2.45,1.88-3.72.69-1.28,1.45-2.61,2.26-3.96.86-1.45,1.78-2.92,2.76-4.49.98-1.57,2.02-3.24,3.11-4.94,1.11-1.8,2.25-3.61,3.43-5.43s2.39-3.62,3.62-5.37c1.22-1.71,2.45-3.35,3.71-4.87,1.25-1.51,2.51-2.89,3.81-4.17,1.29-1.24,2.61-2.39,3.95-3.44,1.35-1.04,2.72-1.98,4.12-2.84,1.4-.84,2.82-1.6,4.26-2.3,1.44-.69,2.9-1.34,4.39-1.94,1.48-.59,2.99-1.13,4.5-1.6,1.52-.47,3.05-.89,4.59-1.27,1.54-.38,3.1-.72,4.67-1.01,1.56-.29,3.14-.55,4.73-.78,1.59-.22,3.19-.41,4.81-.54,1.62-.15,3.26-.25,4.91-.29s3.3-.02,4.94.06,3.26.22,4.88.44c1.62.19,3.23.46,4.81.77,1.59.32,3.16.68,4.71,1.09s3.08.87,4.58,1.39c1.51.52,2.99,1.11,4.45,1.76,1.46.65,2.89,1.38,4.3,2.18s2.8,1.67,4.15,2.61c1.36.94,2.69,1.94,3.98,2.99,3.9,3.14,7.54,6.7,10.91,10.61,4.49,5.22,8.48,11.03,11.8,17.23,3.34,6.05,6.09,12.28,8.18,18.5,2.05,6.17,3.41,12.38,3.9,18.47h.01Z"/>
  <path class="st30" d="M197.39,486.77c.5,6.15-.09,11.68-1.71,16.43-1.55,4.8-4.08,8.96-7.36,12.51s-7.35,6.52-12.1,8.85c-2.39,1.17-4.98,2.25-7.78,3.21-2.81.96-5.83,1.8-9.09,2.51-1.3.28-2.68.62-4.07.93-1.42.29-2.86.47-4.35.52-1.5-.03-3.04-.18-4.62-.43-1.57-.25-3.17-.56-4.78-.85-1.61-.28-3.23-.49-4.86-.59-1.63-.1-3.25-.07-4.87.1s-3.21.47-4.76.86c-1.56.39-3.1.83-4.62,1.26-1.52.42-3.02.77-4.51,1-1.49.15-2.98.15-4.46,0-1.48-.24-2.95-.59-4.38-.95-3.75-.94-7.34-2.12-10.66-3.53-3.33-1.41-6.38-3.01-9.12-4.69-5.48-3.37-9.94-7.19-13.45-11.41-1.68-2.02-3.16-4.14-4.41-6.4-1.25-2.25-2.27-4.63-3.04-7.13-.4-1.22-.74-2.48-1.02-3.78s-.5-2.63-.67-3.98-.29-2.71-.35-4.09c-.07-1.36-.09-2.72-.06-4.09.02-2.2.18-4.35.47-6.41.14-1.02.32-2.02.53-3.01.21-.98.46-1.95.74-2.92.29-.97.62-1.95,1.01-2.93.38-.99.82-2,1.3-3.03.5-1.06,1.04-2.14,1.65-3.26s1.27-2.28,1.98-3.47c.75-1.27,1.56-2.56,2.42-3.93.86-1.38,1.77-2.83,2.73-4.33.97-1.57,1.97-3.16,3-4.75,1.04-1.6,2.09-3.17,3.17-4.7,1.07-1.5,2.15-2.93,3.25-4.27,1.09-1.33,2.2-2.53,3.34-3.65,1.13-1.09,2.28-2.09,3.46-3.01,1.18-.91,2.38-1.74,3.61-2.48,1.22-.73,2.47-1.4,3.73-2.01,1.26-.61,2.54-1.18,3.84-1.7,1.3-.52,2.61-.99,3.94-1.4s2.67-.78,4.02-1.12c1.35-.33,2.71-.63,4.08-.89s2.75-.48,4.14-.68c1.39-.2,2.8-.36,4.21-.47,1.42-.14,2.85-.22,4.3-.25s2.89-.02,4.32.05c1.43.07,2.86.19,4.27.38,1.42.17,2.82.4,4.21.68s2.77.6,4.12.95c1.36.36,2.69.76,4.01,1.22,1.32.46,2.62.97,3.9,1.54s2.53,1.21,3.77,1.91,2.45,1.46,3.64,2.29c1.19.83,2.35,1.7,3.49,2.62,3.42,2.75,6.6,5.87,9.55,9.29,3.93,4.57,7.42,9.66,10.33,15.09,2.92,5.3,5.33,10.75,7.16,16.2,1.79,5.4,2.98,10.84,3.42,16.17v.02Z"/>
  <path class="st10" d="M436.28,508.38c-.57,3.96-2.41,7.95-5.45,11.76.72,4.31.17,8.29-1.5,11.8-1.71,3.43-4.55,6.47-8.45,8.85-1.05,3.98-3.21,7.23-6.28,9.64-3.32,2.31-7.78,3.91-13.35,4.74-3.85,3.15-8.63,5.46-14.04,6.8-1.35.33-2.74.6-4.15.79-1.42.18-2.86.28-4.28.29-1.07.01-2.13-.04-3.19-.14-1.06-.1-2.11-.27-3.12-.51-.67-.17-1.32-.36-1.97-.59-.64.12-1.26.21-1.86.25-.59.01-1.15-.07-1.66-.25-.47-.27-.88-.66-1.22-1.2-.34-.55-.63-1.23-.89-1.98-.26-.78-.51-1.61-.78-2.44-.29-.81-.61-1.61-.97-2.38-.38-.72-.8-1.4-1.26-2.01-.47-.59-.99-1.11-1.53-1.57-.59-.44-1.21-.82-1.87-1.12-.68-.29-1.4-.51-2.16-.68-.8-.11-1.63-.17-2.51-.17-.89.03-1.81.11-2.74.23-.94.17-1.87.35-2.76.52-.85.17-1.63.28-2.34.35-.65,0-1.21-.07-1.71-.22-.46-.19-.85-.47-1.19-.83-.53-.05-1.02-.13-1.48-.25-.46-.11-.91-.25-1.35-.42-.43-.17-.86-.38-1.28-.62-.42-.26-.84-.55-1.24-.88-.41-.33-.8-.69-1.18-1.06-.38-.38-.75-.75-1.11-1.13-.35-.38-.68-.74-1-1.11-.31-.37-.61-.73-.89-1.1-.51-.68-.94-1.4-1.3-2.15-.35-.75-.62-1.54-.8-2.36-.35-1.63-.37-3.41-.03-5.36-1.2-.87-2.1-1.87-2.66-3.03-.55-1.12-.77-2.45-.73-3.97-.02-1.01.03-2.08.15-3.21.03-.56.07-1.13.12-1.7.02-.56.05-1.12.07-1.68,0-.56.01-1.13.04-1.73.02-.6.08-1.23.16-1.91-.66-.03-1.31-.05-1.95-.09-.64-.04-1.23-.13-1.76-.25-.51-.14-.99-.34-1.43-.59-.45-.26-.88-.55-1.29-.88-.43-.3-.83-.63-1.2-.98-.37-.34-.71-.69-1-1.06s-.5-.78-.61-1.27c-.03-.27-.01-.56.03-.87.05-.32.13-.67.23-1.04.17-.52.34-1.09.52-1.71.17-.62.32-1.28.45-1.97.04-.35.07-.72.1-1.09.02-.37.03-.75.03-1.13.01-.39.03-.78.05-1.18.02-.41.06-.81.12-1.22.05-.41.12-.83.19-1.25.22-1.26.48-2.59.78-3.96-.72-1.2-1.38-2.46-1.97-3.75-.6-1.29-1.12-2.6-1.56-3.87-.86-2.54-1.41-4.91-1.65-7.14-.27-2.1-.33-4.17-.2-6.21-.01-2,1.01-8.89,1.85-10.86,3.63-10.45,6.85-12.27,9.98-16.49,1.29-.61,2.62-1.2,3.98-1.78.61-1.15,1.25-2.26,1.9-3.31.64-1.06,1.3-2.06,1.99-2.99,1.36-1.91,2.84-3.59,4.53-5,1.65-1.4,3.54-2.55,5.64-3.44s4.41-1.52,6.9-1.86c3.05-3.53,6.81-5.88,10.98-6.82,4.16-.94,8.7-.41,13.29,1.66,4.73-1.27,9.28-1.05,13.3.6,4.03,1.64,7.52,4.69,10.23,8.94,4.81,1.36,8.85,3.81,11.89,7.11s5.1,7.46,5.95,12.26c4.39,2.92,7.54,6.35,9.36,10,1.79,3.68,2.27,7.71,1.31,12.09,3.57,3.35,5.73,6.92,6.41,10.6.74,3.78.01,7.93-2.18,12.43,2.33,4.1,3.12,8.16,2.55,12.11h0Z"/>
  <g>
    <rect class="st9" x="651.46" y="56.54" width="44.82" height="60.8" rx="8" ry="8"/>
    <path class="st13" d="M688.28,57.04c4.14,0,7.5,3.37,7.5,7.5v44.79c0,4.14-3.37,7.5-7.5,7.5h-28.81c-4.14,0-7.5-3.37-7.5-7.5v-44.79c0-4.14,3.37-7.5,7.5-7.5h28.81M688.28,56.04h-28.81c-4.68,0-8.5,3.83-8.5,8.5v44.79c0,4.68,3.83,8.5,8.5,8.5h28.81c4.68,0,8.5-3.83,8.5-8.5v-44.79c0-4.68-3.83-8.5-8.5-8.5h0Z"/>
  </g>
  <rect class="st77" x="650.96" y="159.32" width="45.82" height="28.59" rx="6.51" ry="6.51"/>
  <rect class="st50" x="650.96" y="218.94" width="45.82" height="28.59" rx="6.51" ry="6.51"/>
  <rect class="st90" x="650.96" y="276.56" width="45.82" height="28.59" rx="6.51" ry="6.51"/>
  <rect class="st6" x="650.96" width="45.82" height="28.59" rx="6.51" ry="6.51"/>
  <path class="st93" d="M326.88,485c-.69-1.09-1.31-2.25-1.88-3.42-.57-1.18-1.07-2.36-1.48-3.53-.83-2.32-1.35-4.48-1.58-6.5-.25-1.92-.31-3.81-.19-5.67,0-1.82.35-3.64,1.14-5.44-2.08-15.13,10.88-19.84,11.66-21.11.58-1.05,1.19-2.06,1.8-3.02s1.25-1.87,1.9-2.73c1.29-1.74,2.71-3.27,4.32-4.56,1.57-1.27,8.83-5.55,13.37-5.96,2.9-3.22,7.34-4.23,11.31-5.08,3.97-.86,8.3-.37,12.67,1.51,4.52-1.16,8.84-.95,12.68.55s7.17,4.28,9.75,8.15c4.58,1.24,8.43,3.48,11.33,6.49,2.9,3.01,4.86,6.79,5.67,11.17,4.19,2.66,7.19,5.78,8.92,9.12,1.71,3.35,2.13,14.29,1.21,18.28,3.41,3.05,6.72,6.11,7.37,9.47.7,3.44-1.05,9.46-3.14,13.56,2.21,3.74-.03,8.99-2.92,12.46.68,3.93.15,7.56-1.43,10.75-1.63,3.13-4.33,5.9-8.05,8.07-1.01,3.62-3.06,6.58-5.98,8.79-3.16,2.1-7.42,3.56-12.73,4.31-3.66,2.87-8.23,4.98-13.38,6.2-1.29.3-2.61.54-3.96.72-1.35.17-2.72.26-4.08.27-1.02,0-2.03-.04-3.04-.13s-2-.25-2.97-.46c-.63-.15-1.26-.33-1.87-.54-.61.11-1.2.19-1.78.23-.56,0-1.09-.07-1.58-.23-.45-.24-.84-.6-1.16-1.1-.33-.5-.6-1.12-.85-1.8-.24-.72-.49-1.47-.74-2.23-.28-.74-.59-1.47-.92-2.17-.37-.66-.77-1.27-1.2-1.83-.45-.54-.94-1.01-1.46-1.44-.56-.4-1.15-.74-1.78-1.02-.65-.27-1.33-.46-2.06-.62-.76-.1-1.55-.16-2.39-.15-.85.02-1.73.1-2.61.21-.9.15-1.78.32-2.63.47-.81.15-1.56.26-2.23.32-.62,0-1.15-.06-1.63-.19-.44-.18-.81-.43-1.13-.76-.51-.04-.97-.12-1.41-.22-.44-.11-.87-.23-1.28-.39-.42-.15-.83-.34-1.22-.56-.41-.23-.8-.5-1.18-.8-.39-.3-.76-.63-1.13-.96-.37-.34-.72-.69-1.05-1.03s-.65-.68-.95-1.01c-.3-.33-.58-.67-.85-1-.48-.62-.9-1.27-1.24-1.96-.33-.69-.59-1.4-.76-2.15-.34-1.49-.35-3.11-.03-4.89-1.14-.79-1.99-1.7-2.53-2.76-.52-1.02-.73-2.23-.69-3.63-.02-.92.03-1.89.14-2.92.03-.51.07-1.02.12-1.54.02-.51.04-1.02.07-1.54,0-.51.01-1.03.04-1.57.02-.54.07-1.12.15-1.74-.63-.03-1.25-.05-1.86-.09s-1.18-.11-1.68-.22c-.49-.13-.95-.31-1.37-.54-.43-.24-.84-.51-1.23-.8-.41-.28-.79-.58-1.14-.89-.36-.31-.68-.63-.95-.97-.28-.34-.48-.71-.59-1.16-.02-.24-.01-.5.03-.79s.12-.6.22-.94c.15-.48.32-1,.49-1.56.17-.56.31-1.16.44-1.79.04-.32.07-.65.09-.99s.03-.68.04-1.04c0-.35.02-.71.04-1.08.02-.37.06-.74.11-1.11s.11-.75.18-1.14c.21-1.15.46-2.36.74-3.61l-.03-.02Z"/>
  <rect class="st42" x="812.86" y="56.16" width="45.82" height="61.8" rx="8.5" ry="8.5"/>
  <rect class="st101" x="812.86" y="159.45" width="45.82" height="28.59" rx="6.51" ry="6.51"/>
  <rect class="st117" x="812.86" y="219.06" width="45.82" height="28.59" rx="6.51" ry="6.51"/>
  <rect class="st97" x="812.86" y="276.69" width="45.82" height="28.59" rx="6.51" ry="6.51"/>
  <rect class="st35" x="812.86" y=".12" width="45.82" height="28.59" rx="6.51" ry="6.51"/>
  <g>
    <line class="st12" x1="887.88" y1="431.19" x2="887.89" y2="85.6"/>
    <polygon class="st12" points="889.93 87.25 889.56 87.6 887.89 85.79 886.21 87.6 885.84 87.25 887.89 85.06 889.93 87.25"/>
  </g>
  <g>
    <path class="st59" d="M864.82,450.3c0-2.84,1.57-4.92,4.4-4.92s4.15,2.08,4.15,4.73c0,3.11-1.5,5.14-4.33,5.14s-4.21-2.08-4.21-4.94h-.01ZM872.46,450.23c0-2.63-1.32-4.08-3.27-4.08s-3.45,1.46-3.45,4.15,1.37,4.16,3.34,4.16,3.37-1.4,3.37-4.23h.01ZM867.38,445.04v-2.03h1.01v2.03h-1.01ZM870.01,445.04v-2.03h1.01v2.03h-1.01Z"/>
    <path class="st59" d="M876.93,455.08v-8.77h-2.91v-.76h6.69v.76h-2.9v8.77h-.88Z"/>
    <path class="st59" d="M882.75,454.32h5.54v.76h-6.64v-.63l5.32-8.14h-5.16v-.76h6.26v.66l-5.32,8.11h0Z"/>
    <path class="st59" d="M892.26,455.08v-8.77h-2.91v-.76h6.69v.76h-2.9v8.77h-.88Z"/>
    <path class="st59" d="M900.49,445.54l3.29,9.53h-.97l-1.03-3.07h-3.85l-1.03,3.07h-.87l3.24-9.53h1.22ZM899.87,446.27l-1.67,4.96h3.33l-1.66-4.96h0Z"/>
    <path class="st59" d="M906.9,454.32h4.37v.76h-5.25v-9.53h.88v8.77Z"/>
    <path class="st59" d="M860.29,470.88h-.88v-4.52h-5.03v4.52h-.88v-9.53h.88v4.24h5.03v-4.24h.88v9.53Z"/>
    <path class="st59" d="M864.2,470.88h-.88v-9.53h.88v9.53Z"/>
    <path class="st59" d="M873.57,469.54c-.32.8-1.53,1.5-2.92,1.5-2.87,0-4.08-1.98-4.08-4.82,0-3.31,1.73-5.04,4.4-5.04,1.96,0,3.27.88,3.44,3.11l-.83.09c-.18-1.79-1.11-2.45-2.65-2.45-2.15,0-3.46,1.54-3.46,4.21,0,3.28,1.51,4.17,3.33,4.17s2.78-1.4,2.78-2.61v-.99h-2.86v-.78h3.66v4.94h-.66l-.14-1.34h-.01Z"/>
    <path class="st59" d="M883.96,470.88h-.88v-4.52h-5.03v4.52h-.88v-9.53h.88v4.24h5.03v-4.24h.88v9.53Z"/>
    <path class="st59" d="M887.87,470.12h4.37v.76h-5.25v-9.53h.88v8.77Z"/>
    <path class="st59" d="M895.31,470.88h-.88v-9.53h.88v9.53Z"/>
    <path class="st59" d="M904.68,469.54c-.32.8-1.53,1.5-2.92,1.5-2.87,0-4.08-1.98-4.08-4.82,0-3.31,1.73-5.04,4.4-5.04,1.96,0,3.27.88,3.44,3.11l-.83.09c-.18-1.79-1.11-2.45-2.65-2.45-2.15,0-3.46,1.54-3.46,4.21,0,3.28,1.51,4.17,3.33,4.17s2.78-1.4,2.78-2.61v-.99h-2.86v-.78h3.66v4.94h-.66l-.14-1.34h-.01Z"/>
    <path class="st59" d="M915.07,470.88h-.88v-4.52h-5.03v4.52h-.88v-9.53h.88v4.24h5.03v-4.24h.88v9.53Z"/>
    <path class="st59" d="M919.82,470.88v-8.77h-2.91v-.76h6.69v.76h-2.9v8.77h-.88Z"/>
    <path class="st59" d="M892.18,479.3c0,1.49-.83,2.59-2.08,4.08l-2.09,2.53h4.31v.76h-5.31v-.68l2.3-2.86c1.38-1.7,1.96-2.46,1.96-3.78,0-1.19-.67-1.65-1.69-1.65-1.4,0-1.73.78-1.9,1.73l-.79-.16c.26-1.66,1.3-2.3,2.78-2.3s2.5.68,2.5,2.33h.01Z"/>
  </g>
  <g>
    <line class="st12" x1="1052.23" y1="431.19" x2="1052.23" y2="79.68"/>
    <polygon class="st12" points="1054.27 81.34 1053.91 81.68 1052.23 79.87 1050.55 81.68 1050.18 81.34 1052.23 79.14 1054.27 81.34"/>
  </g>
  <g>
    <path class="st59" d="M1045.65,454.37l-2.23-8.43-2.29,8.43h-1.03l-2.11-9.53h.93l1.74,8.48,2.26-8.48h1.01l2.25,8.61,1.7-8.61h.87l-2,9.53h-1.12.02Z"/>
    <path class="st59" d="M1051.56,454.37h-.88v-9.53h.88v9.53Z"/>
    <path class="st59" d="M1054.59,454.37v-9.53h2.77c3.3,0,4.73,1.78,4.73,4.62s-1.54,4.91-4.95,4.91h-2.55ZM1057.2,453.6c2.59,0,3.96-1.45,3.96-3.95,0-3.15-1.48-4.06-3.88-4.06h-1.8v8.01h1.73,0Z"/>
    <path class="st59" d="M1065.33,454.37h-.88v-9.53h.88v9.53Z"/>
    <path class="st59" d="M1022.32,470.17h-.88v-4.52h-5.03v4.52h-.88v-9.53h.88v4.24h5.03v-4.24h.88v9.53Z"/>
    <path class="st59" d="M1029.01,460.63l3.29,9.53h-.97l-1.03-3.07h-3.84l-1.03,3.07h-.87l3.24-9.53h1.21ZM1028.39,461.36l-1.67,4.96h3.33l-1.66-4.96h0Z"/>
    <path class="st59" d="M1040.06,467.03v-6.4h.88v6.44c0,2.19-1.24,3.25-3.46,3.25-2.37,0-3.33-1.16-3.33-3.27v-6.43h.88v6.37c0,1.88.96,2.54,2.53,2.54s2.5-.62,2.5-2.51h0Z"/>
    <path class="st59" d="M1045.62,470.17v-8.77h-2.91v-.76h6.69v.76h-2.9v8.77h-.88,0Z"/>
    <path class="st59" d="M1052.13,470.17h-.88v-9.53h5.39v.76h-4.5v3.71h4.17v.78h-4.17v4.28h-.01Z"/>
    <path class="st59" d="M1061.42,460.63l3.29,9.53h-.97l-1.03-3.07h-3.84l-1.03,3.07h-.87l3.24-9.53h1.21ZM1060.8,461.36l-1.67,4.96h3.33l-1.66-4.96h0Z"/>
    <path class="st59" d="M1073.58,470.17h-.96l-2.29-4.11h-2.5v4.11h-.87v-9.53h3.08c2.37,0,3.06,1.29,3.06,2.55,0,1.44-.76,2.29-1.92,2.65l2.41,4.33h-.01ZM1069.89,465.3c1.38,0,2.28-.47,2.28-2.09,0-1.47-.99-1.8-2.48-1.8h-1.87v3.9h2.07Z"/>
    <path class="st59" d="M1075.55,470.17v-9.53h3.13c2.25,0,2.86,1.03,2.86,2.33,0,1.37-.91,2.03-1.99,2.24v.03c1.58.21,2.3,1.07,2.3,2.37,0,1.95-1.44,2.57-3.5,2.57h-2.8ZM1078.05,464.91c1.08,0,2.57-.34,2.57-1.86s-.91-1.66-2.83-1.66h-1.37v3.52h1.63ZM1078.29,469.39c1.49,0,2.65-.22,2.65-1.82,0-1.71-1.42-1.9-3.08-1.9h-1.44v3.71h1.87,0Z"/>
    <path class="st59" d="M1085.04,469.4h4.64v.76h-5.52v-9.53h5.39v.76h-4.5v3.54h4.21v.78h-4.21v3.69h-.01Z"/>
  </g>
  <g>
    <path class="st59" d="M594.89,542.88c0-2.84,1.57-4.92,4.4-4.92s4.15,2.08,4.15,4.73c0,3.11-1.5,5.14-4.33,5.14s-4.21-2.08-4.21-4.94h-.01ZM602.53,542.81c0-2.63-1.32-4.08-3.27-4.08s-3.45,1.46-3.45,4.15,1.37,4.16,3.34,4.16,3.37-1.4,3.37-4.23h.01ZM597.45,537.62v-2.03h1.01v2.03h-1.01ZM600.08,537.62v-2.03h1.01v2.03h-1.01Z"/>
    <path class="st59" d="M607.01,547.66v-8.77h-2.91v-.76h6.69v.76h-2.9v8.77h-.88Z"/>
    <path class="st59" d="M612.83,546.89h5.54v.76h-6.64v-.63l5.32-8.14h-5.16v-.76h6.26v.66l-5.32,8.11h0Z"/>
    <path class="st59" d="M622.33,547.66v-8.77h-2.91v-.76h6.69v.76h-2.9v8.77h-.88Z"/>
    <path class="st59" d="M630.56,538.12l3.29,9.53h-.97l-1.03-3.07h-3.85l-1.03,3.07h-.87l3.24-9.53h1.22ZM629.94,538.85l-1.67,4.96h3.33l-1.66-4.96h0Z"/>
    <path class="st59" d="M636.97,546.89h4.37v.76h-5.25v-9.53h.88v8.77Z"/>
    <path class="st59" d="M578.51,563.46h-.88v-9.53h5.39v.76h-4.5v3.71h4.17v.78h-4.17v4.28h-.01Z"/>
    <path class="st59" d="M587.81,553.92l3.29,9.53h-.97l-1.03-3.07h-3.85l-1.03,3.07h-.87l3.24-9.53h1.22ZM587.19,554.65l-1.67,4.96h3.33l-1.66-4.96h0Z"/>
    <path class="st59" d="M599.96,563.46h-.96l-2.29-4.11h-2.5v4.11h-.87v-9.53h3.08c2.37,0,3.06,1.29,3.06,2.55,0,1.44-.76,2.29-1.92,2.65l2.41,4.33h-.01ZM596.27,558.58c1.38,0,2.28-.47,2.28-2.09,0-1.47-.99-1.8-2.48-1.8h-1.87v3.9h2.07,0Z"/>
    <path class="st59" d="M601.93,563.46v-9.53h3.13c2.25,0,2.86,1.03,2.86,2.33,0,1.37-.91,2.03-1.99,2.24v.03c1.58.21,2.3,1.07,2.3,2.37,0,1.95-1.44,2.57-3.5,2.57h-2.8ZM604.43,558.2c1.08,0,2.57-.34,2.57-1.86s-.91-1.66-2.83-1.66h-1.37v3.52h1.63ZM604.67,562.68c1.49,0,2.65-.22,2.65-1.82,0-1.71-1.42-1.9-3.08-1.9h-1.44v3.71h1.87Z"/>
    <path class="st59" d="M611.41,563.46h-.87v-9.53h2.91c2.44,0,3.17,1.29,3.17,2.8,0,2.25-1.38,3.09-3.61,3.09h-1.61v3.63h.01ZM612.99,559.05c1.51,0,2.71-.33,2.71-2.29,0-1.74-.99-2.07-3.11-2.07h-1.19v4.36h1.59Z"/>
    <path class="st59" d="M621.5,553.92l3.29,9.53h-.97l-1.03-3.07h-3.85l-1.03,3.07h-.87l3.24-9.53h1.22ZM620.88,554.65l-1.67,4.96h3.33l-1.66-4.96h0Z"/>
    <path class="st59" d="M627.91,562.69h4.37v.76h-5.25v-9.53h.88v8.77Z"/>
    <path class="st59" d="M635.35,562.69h4.64v.76h-5.52v-9.53h5.39v.76h-4.5v3.54h4.21v.78h-4.21v3.69h-.01Z"/>
    <path class="st59" d="M643.99,563.46v-8.77h-2.91v-.76h6.69v.76h-2.9v8.77h-.88Z"/>
    <path class="st59" d="M651.33,563.46v-8.77h-2.91v-.76h6.69v.76h-2.9v8.77h-.88Z"/>
    <path class="st59" d="M657.84,562.69h4.64v.76h-5.52v-9.53h5.39v.76h-4.5v3.54h4.21v.78h-4.21v3.69h-.01Z"/>
  </g>
  <g>
    <line class="st12" x1="619.8" y1="524.96" x2="619.81" y2="85.15"/>
    <polygon class="st12" points="621.85 86.8 621.48 87.14 619.81 85.34 618.13 87.14 617.76 86.8 619.81 84.6 621.85 86.8"/>
  </g>
  <g>
    <line class="st12" x1="944.09" y1="524.96" x2="944.09" y2="85.15"/>
    <polygon class="st12" points="946.14 86.8 945.77 87.14 944.09 85.34 942.41 87.14 942.05 86.8 944.09 84.6 946.14 86.8"/>
  </g>
  <g>
    <path class="st59" d="M919.31,542.88c0-2.84,1.57-4.92,4.4-4.92s4.15,2.08,4.15,4.73c0,3.11-1.5,5.14-4.33,5.14s-4.21-2.08-4.21-4.94h-.01ZM926.95,542.81c0-2.63-1.32-4.08-3.27-4.08s-3.45,1.46-3.45,4.15,1.37,4.16,3.34,4.16,3.37-1.4,3.37-4.23h.01ZM921.87,537.62v-2.03h1.01v2.03h-1.01ZM924.5,537.62v-2.03h1.01v2.03h-1.01Z"/>
    <path class="st59" d="M931.42,547.66v-8.77h-2.91v-.76h6.69v.76h-2.9v8.77h-.88Z"/>
    <path class="st59" d="M937.24,546.89h5.54v.76h-6.64v-.63l5.32-8.14h-5.16v-.76h6.25v.66l-5.32,8.11h.01Z"/>
    <path class="st59" d="M946.75,547.66v-8.77h-2.91v-.76h6.69v.76h-2.9v8.77h-.88Z"/>
    <path class="st59" d="M954.98,538.12l3.29,9.53h-.97l-1.03-3.07h-3.84l-1.03,3.07h-.87l3.24-9.53h1.21ZM954.36,538.85l-1.67,4.96h3.33l-1.66-4.96h0Z"/>
    <path class="st59" d="M961.39,546.89h4.37v.76h-5.25v-9.53h.88v8.77Z"/>
    <path class="st59" d="M926.58,563.46v-9.53h3.13c2.25,0,2.86,1.03,2.86,2.33,0,1.37-.91,2.03-1.99,2.24v.03c1.58.21,2.3,1.07,2.3,2.37,0,1.95-1.44,2.57-3.5,2.57h-2.8ZM929.08,558.2c1.08,0,2.57-.34,2.57-1.86s-.91-1.66-2.83-1.66h-1.37v3.52h1.63ZM929.32,562.68c1.49,0,2.65-.22,2.65-1.82,0-1.71-1.42-1.9-3.08-1.9h-1.44v3.71h1.87Z"/>
    <path class="st59" d="M936.07,562.69h4.64v.76h-5.52v-9.53h5.39v.76h-4.5v3.54h4.21v.78h-4.21v3.69h-.01Z"/>
    <path class="st59" d="M943.87,563.46h-.88v-9.53h.88v9.53Z"/>
    <path class="st59" d="M953.24,562.11c-.32.8-1.53,1.5-2.92,1.5-2.87,0-4.08-1.98-4.08-4.82,0-3.31,1.72-5.04,4.4-5.04,1.96,0,3.27.88,3.44,3.11l-.83.09c-.18-1.79-1.11-2.45-2.65-2.45-2.15,0-3.46,1.54-3.46,4.21,0,3.28,1.51,4.17,3.33,4.17s2.78-1.4,2.78-2.61v-.99h-2.86v-.78h3.66v4.94h-.66l-.15-1.34h0Z"/>
    <path class="st59" d="M957.72,562.69h4.64v.76h-5.52v-9.53h5.39v.76h-4.5v3.54h4.21v.78h-4.21v3.69h-.01Z"/>
    <path class="st59" d="M904.55,579.26h-.88v-4.52h-5.03v4.52h-.88v-9.53h.88v4.24h5.03v-4.24h.88v9.53Z"/>
    <path class="st59" d="M908.46,579.26h-.88v-9.53h.88v9.53Z"/>
    <path class="st59" d="M917.42,579.26l-5.08-8.59v8.59h-.84v-9.53h1.26l4.95,8.47v-8.47h.83v9.53h-1.12Z"/>
    <path class="st59" d="M923.29,579.26v-8.77h-2.91v-.76h6.69v.76h-2.9v8.77h-.88Z"/>
    <path class="st59" d="M929.79,578.49h4.64v.76h-5.52v-9.53h5.39v.76h-4.5v3.54h4.21v.78h-4.21v3.69h-.01Z"/>
    <path class="st59" d="M943.33,579.26h-.96l-2.29-4.11h-2.5v4.11h-.87v-9.53h3.08c2.37,0,3.06,1.29,3.06,2.55,0,1.44-.76,2.29-1.92,2.65l2.41,4.33h-.01ZM939.64,574.38c1.38,0,2.28-.47,2.28-2.09,0-1.47-.99-1.8-2.48-1.8h-1.87v3.9h2.07,0Z"/>
    <path class="st59" d="M951.63,577.91c-.32.8-1.53,1.5-2.92,1.5-2.87,0-4.08-1.98-4.08-4.82,0-3.31,1.72-5.04,4.4-5.04,1.96,0,3.27.88,3.44,3.11l-.83.09c-.18-1.79-1.11-2.45-2.65-2.45-2.15,0-3.46,1.54-3.46,4.21,0,3.28,1.51,4.17,3.33,4.17s2.78-1.4,2.78-2.61v-.99h-2.86v-.78h3.66v4.94h-.66l-.15-1.34h0Z"/>
    <path class="st59" d="M961.85,579.26h-.96l-2.29-4.11h-2.5v4.11h-.87v-9.53h3.08c2.37,0,3.06,1.29,3.06,2.55,0,1.44-.76,2.29-1.92,2.65l2.41,4.33h-.01ZM958.16,574.38c1.38,0,2.28-.47,2.28-2.09,0-1.47-.99-1.8-2.48-1.8h-1.87v3.9h2.07,0Z"/>
    <path class="st59" d="M969.67,576.12v-6.4h.88v6.44c0,2.19-1.24,3.25-3.46,3.25-2.37,0-3.33-1.16-3.33-3.27v-6.43h.88v6.37c0,1.88.96,2.54,2.53,2.54s2.5-.62,2.5-2.51h0Z"/>
    <path class="st59" d="M979.44,579.26l-5.08-8.59v8.59h-.84v-9.53h1.26l4.95,8.47v-8.47h.83v9.53h-1.12Z"/>
    <path class="st59" d="M983.59,579.26v-9.53h2.77c3.3,0,4.73,1.78,4.73,4.62s-1.54,4.91-4.95,4.91h-2.55ZM986.2,578.49c2.59,0,3.96-1.45,3.96-3.95,0-3.15-1.48-4.06-3.88-4.06h-1.8v8.01h1.73-.01Z"/>
  </g>
  <g>
    <path class="st59" d="M124.07,381.84l-1.84-7.33h-.03l-1.86,7.33h-1.96l-2.08-9.53h1.62l1.51,7.82h.03l1.94-7.82h1.67l1.98,7.89h.03l1.44-7.89h1.54l-2.02,9.53h-1.97Z"/>
    <path class="st59" d="M131.18,381.84h-1.54v-9.53h1.54v9.53Z"/>
    <path class="st59" d="M133.74,381.84v-9.53h3.09c3.31,0,4.73,1.78,4.73,4.62s-1.54,4.91-4.95,4.91h-2.87ZM136.59,380.59c2.36,0,3.38-1.32,3.38-3.52,0-2.7-1.16-3.52-3.27-3.52h-1.44v7.03h1.33Z"/>
    <path class="st59" d="M145.1,381.84h-1.54v-9.53h1.54v9.53Z"/>
    <path class="st59" d="M100.98,397.64h-1.54v-4.16h-4.24v4.16h-1.54v-9.53h1.54v4.02h4.24v-4.02h1.54v9.53Z"/>
    <path class="st59" d="M107.88,388.11l3.34,9.53h-1.69l-.9-2.61h-3.46l-.87,2.61h-1.57l3.17-9.53h1.98ZM106.9,389.53h-.03l-1.4,4.21h2.8l-1.38-4.21h0Z"/>
    <path class="st59" d="M118.31,394.19v-6.08h1.54v6.24c0,2.38-1.41,3.45-3.69,3.45-2.52,0-3.57-1.16-3.57-3.49v-6.2h1.54v6.04c0,1.66.63,2.36,2.11,2.36s2.07-.62,2.07-2.32Z"/>
    <path class="st59" d="M124.17,397.64v-8.24h-2.86v-1.29h7.23v1.29h-2.83v8.24s-1.54,0-1.54,0Z"/>
    <path class="st59" d="M131.63,397.64h-1.54v-9.53h5.74v1.29h-4.2v2.98h3.88v1.29h-3.88v3.98h0Z"/>
    <path class="st59" d="M141.07,388.11l3.34,9.53h-1.69l-.9-2.61h-3.46l-.87,2.61h-1.57l3.17-9.53h1.98ZM140.1,389.53h-.03l-1.4,4.21h2.8l-1.38-4.21h0Z"/>
    <path class="st59" d="M153.22,397.64h-1.67l-2.05-3.83h-1.82v3.83h-1.53v-9.53h3.45c2.37,0,3.11,1.29,3.11,2.63,0,1.42-.71,2.27-1.76,2.67l2.28,4.23h0ZM149.17,392.57c1.12,0,1.95-.37,1.95-1.73,0-1.13-.74-1.47-1.99-1.47h-1.45v3.2h1.49Z"/>
    <path class="st59" d="M154.83,397.64v-9.53h3.5c2.25,0,2.88,1.03,2.88,2.33s-.88,1.99-1.9,2.23v.04c1.55.18,2.25,1.03,2.25,2.33,0,1.95-1.49,2.61-3.56,2.61h-3.19.02ZM157.49,392.16c1,0,2.19-.24,2.19-1.5,0-1.13-.69-1.32-1.83-1.32h-1.49v2.82h1.13ZM157.77,396.4c1.26,0,2.19-.22,2.19-1.47,0-1.18-.87-1.51-1.95-1.51h-1.65v2.99h1.41,0Z"/>
    <path class="st59" d="M164.94,396.35h4.42v1.29h-5.97v-9.53h5.77v1.29h-4.23v2.82h3.96v1.28h-3.96v2.86h0Z"/>
  </g>
  <g>
    <path class="st59" d="M368.77,381.84l-1.84-7.33h-.03l-1.86,7.33h-1.96l-2.08-9.53h1.62l1.51,7.82h.03l1.94-7.82h1.67l1.98,7.89h.03l1.44-7.89h1.54l-2.02,9.53h-1.97Z"/>
    <path class="st59" d="M375.88,381.84h-1.54v-9.53h1.54v9.53Z"/>
    <path class="st59" d="M378.43,381.84v-9.53h3.09c3.31,0,4.73,1.78,4.73,4.62s-1.54,4.91-4.95,4.91h-2.87ZM381.29,380.59c2.36,0,3.38-1.32,3.38-3.52,0-2.7-1.16-3.52-3.27-3.52h-1.44v7.03h1.33Z"/>
    <path class="st59" d="M389.8,381.84h-1.54v-9.53h1.54v9.53Z"/>
    <path class="st59" d="M363.4,397.64h-1.54v-9.53h5.74v1.29h-4.2v2.98h3.88v1.29h-3.88v3.98h0Z"/>
    <path class="st59" d="M370.91,396.35h4.42v1.29h-5.97v-9.53h5.77v1.29h-4.23v2.82h3.96v1.28h-3.96v2.86h.01Z"/>
    <path class="st59" d="M378.78,396.34h4.21v1.3h-5.75v-9.53h1.54v8.23Z"/>
    <path class="st59" d="M386.39,396.34h4.21v1.3h-5.75v-9.53h1.54v8.23Z"/>
  </g>
  <g>
    <path class="st59" d="M648.96,450.3c0-2.84,1.57-4.92,4.4-4.92s4.15,2.08,4.15,4.73c0,3.11-1.5,5.14-4.33,5.14s-4.21-2.08-4.21-4.94h-.01ZM656.6,450.23c0-2.63-1.32-4.08-3.27-4.08s-3.45,1.46-3.45,4.15,1.37,4.16,3.34,4.16,3.37-1.4,3.37-4.23h.01ZM651.52,445.04v-2.03h1.01v2.03h-1.01ZM654.15,445.04v-2.03h1.01v2.03h-1.01Z"/>
    <path class="st59" d="M661.08,455.08v-8.77h-2.91v-.76h6.69v.76h-2.9v8.77h-.88Z"/>
    <path class="st59" d="M666.9,454.32h5.54v.76h-6.64v-.63l5.32-8.14h-5.16v-.76h6.26v.66l-5.32,8.11h0Z"/>
    <path class="st59" d="M676.4,455.08v-8.77h-2.91v-.76h6.69v.76h-2.9v8.77h-.88Z"/>
    <path class="st59" d="M684.63,445.54l3.29,9.53h-.97l-1.03-3.07h-3.85l-1.03,3.07h-.87l3.24-9.53h1.22ZM684.01,446.27l-1.67,4.96h3.33l-1.66-4.96h0Z"/>
    <path class="st59" d="M691.04,454.32h4.37v.76h-5.25v-9.53h.88v8.77Z"/>
    <path class="st59" d="M644.43,470.88h-.88v-4.52h-5.03v4.52h-.88v-9.53h.88v4.24h5.03v-4.24h.88v9.53Z"/>
    <path class="st59" d="M648.34,470.88h-.88v-9.53h.88v9.53Z"/>
    <path class="st59" d="M657.71,469.54c-.32.8-1.53,1.5-2.92,1.5-2.87,0-4.08-1.98-4.08-4.82,0-3.31,1.73-5.04,4.4-5.04,1.96,0,3.27.88,3.44,3.11l-.83.09c-.18-1.79-1.11-2.45-2.65-2.45-2.15,0-3.46,1.54-3.46,4.21,0,3.28,1.51,4.17,3.33,4.17s2.78-1.4,2.78-2.61v-.99h-2.86v-.78h3.66v4.94h-.66l-.14-1.34h-.01Z"/>
    <path class="st59" d="M668.1,470.88h-.88v-4.52h-5.03v4.52h-.88v-9.53h.88v4.24h5.03v-4.24h.88v9.53Z"/>
    <path class="st59" d="M672.01,470.12h4.37v.76h-5.25v-9.53h.88v8.77Z"/>
    <path class="st59" d="M679.45,470.88h-.88v-9.53h.88v9.53Z"/>
    <path class="st59" d="M688.83,469.54c-.32.8-1.53,1.5-2.92,1.5-2.87,0-4.08-1.98-4.08-4.82,0-3.31,1.73-5.04,4.4-5.04,1.96,0,3.27.88,3.44,3.11l-.83.09c-.18-1.79-1.11-2.45-2.65-2.45-2.15,0-3.46,1.54-3.46,4.21,0,3.28,1.51,4.17,3.33,4.17s2.78-1.4,2.78-2.61v-.99h-2.86v-.78h3.66v4.94h-.66l-.14-1.34h-.01Z"/>
    <path class="st59" d="M699.21,470.88h-.88v-4.52h-5.03v4.52h-.88v-9.53h.88v4.24h5.03v-4.24h.88v9.53Z"/>
    <path class="st59" d="M703.97,470.88v-8.77h-2.91v-.76h6.69v.76h-2.9v8.77h-.88Z"/>
    <path class="st59" d="M673.82,486.68v-8.22c-.46.28-1.62.46-2.05.46l-.09-.67c1.25-.11,2-.41,2.59-1.11h.41v9.53h-.86Z"/>
  </g>
  <g>
    <line class="st12" x1="673.74" y1="431.19" x2="673.74" y2="85.6"/>
    <polygon class="st12" points="675.79 87.25 675.42 87.6 673.75 85.79 672.07 87.6 671.7 87.25 673.75 85.06 675.79 87.25"/>
  </g>
</svg>