<?xml version="1.0" encoding="UTF-8"?>
<svg id="Ebene_1" xmlns="http://www.w3.org/2000/svg" xmlns:xlink="http://www.w3.org/1999/xlink" version="1.1" viewBox="0 0 1680 1526">
  <!-- Generator: Adobe Illustrator 29.5.0, SVG Export Plug-In . SVG Version: 2.1.0 Build 137)  -->
  <defs>
    <style>
      .st0 {
        fill: none;
      }

      .st1 {
        mask: url(#mask);
      }

      .st2 {
        fill: url(#Unbenannter_Verlauf);
      }

      .st3 {
        fill: url(#Unbenannter_Verlauf_2);
      }

      .st4 {
        fill: url(#Unbenannter_Verlauf_3);
      }

      .st5 {
        fill: url(#Unbenannter_Verlauf_6);
        fill-opacity: .5;
      }

      .st6 {
        fill: url(#Unbenannter_Verlauf_4);
        fill-opacity: .7;
      }

      .st7 {
        fill: url(#Unbenannter_Verlauf_5);
        fill-opacity: .2;
      }

      .st8 {
        fill: #e41d0c;
      }

      .st9 {
        clip-path: url(#clippath);
      }
    </style>
    <clipPath id="clippath">
      <rect class="st0" width="1680" height="1526"/>
    </clipPath>
    <mask id="mask" x="28.06" y="-246" width="2202.19" height="1822" maskUnits="userSpaceOnUse">
      <g id="mask0_3_224">
        <g id="Group">
          <g id="Group_2">
            <path id="Vector" class="st8" d="M103.53,179.49l65.3,55.23L28.06,416.37l1.58,1.23,140.72-181.58,192.87,163.13L30.94,551.7l-.69.32,21.83,139.29-23.15-1.87-.16,1.99,23.63,1.91,34.42,219.62-57.28-54.07-1.37,1.45,59.16,55.85,23.61,150.64,124.22-11.09,468.86,442.61-11.68,75.99,1.98.3,11.47-74.63,79.66,75.21,1.37-1.45-80.67-76.15,73.48-478.13,169.44,256.99,34.95,298.13,1.99-.23-34.48-294.19,169.17,256.59c-10.37,23.13-16.34,36.34-16.82,37.17l.84.54v1.01c.46,0,1.35-1.43,2.66-4.3,1.12-2.45,2.77-6.08,4.91-10.83,2.56-5.67,5.82-12.93,9.72-21.62l23.92,36.3,1.67-1.1-24.63-37.35c2.37-5.28,4.95-11.04,7.74-17.29,15.01-33.54,37.03-82.86,65.44-146.58,11.36-25.48,23.78-53.34,37.23-83.54l189.93,113.46-106.36,173.35,161.87-111.29,98.19,110.45,1.49-1.33-98.02-110.26,96.98-66.67,103.58-4.34-.08-2-100.39,4.21,101-69.43-1.13-1.65-103.62,71.24-150.38,6.3,144.91-259.43,4.67-14.51,104.56,48.58.84-1.81-104.78-48.69.74-2.3,104.56-297.75-1.89-.66-104.57,297.77-.67,2.09-222.17-103.23c13.34-29.99,27.2-61.12,41.55-93.38,9.57-21.5,19.14-43.02,28.68-64.47,9.29-4.81,71.8-38.9,130.87-71.26,34.44-18.87,65.67-36.04,87.95-48.34,12.48-6.89,22.19-12.28,28.86-16.02,7.63-4.27,11.44-6.66,11.44-7.17h-1.1l-.57-.74c-3.53,2.71-226.26,124.92-256.17,140.63,28.74-64.61,57.14-128.45,83.99-188.82l172.75,19.7.23-1.99-172.1-19.63c20.1-45.19,39.32-88.41,57.16-128.53l114.12,110.76,1.39-1.44-114.66-111.27c18.52-41.66,35.54-79.92,50.48-113.53l62.56,154.42,1.85-.75-63.29-156.2c38.33-86.19,62.7-141.01,63.28-142.34l-1.83-.81c-1.15,2.59-25.04,56.33-62.49,140.57l-73.45-181.3,137.64-173.77-1.57-1.24-137.57,173.69-82.69-27.15L1676.27,2.11l-1.39-1.44-217.08,209.53-345.14-113.32L1347.71,1.7l-.75-1.85-236.4,95.73-.25-1.76-.41.76L1074.15,1.04l-1.87.71,35.57,93.07L933.58.51l-.95,1.76,174.62,94.49-450.88,150.53c-5.85-10.53-35.34-64.79-63.94-117.41-17.29-31.82-34.82-64.06-48.04-88.35-6.61-12.14-12.15-22.3-16.05-29.42-4.28-7.81-6.64-11.72-7.08-11.72v1.05l-.81.53c1.1,1.66,36.24,66.33,70.23,128.86,16.43,30.22,32.65,60.06,44.78,82.34,6.07,11.14,11.11,20.39,14.65,26.85,1.77,3.23,3.16,5.77,4.12,7.49.11.2.21.39.31.56l-288.49,149.69L357.05,1.35l-2,.04,8.98,395.8-192.44-162.77L351.72,1.98l-1.58-1.22-180.08,232.37-65.16-55.11L29.58,98.87l-1.45,1.38,75.36,79.19.04.04h0ZM32.68,554.6l250.4,155.39-228.95-18.53-21.45-136.86ZM112.62,1064.66l-22.92-146.24,143.51,135.47-120.59,10.77ZM89.19,915.19l-34.75-221.7,232.35,18.8,474.46,294.44-525.39,46.91-146.68-138.46h0ZM1185.3,634.9l45.81,328.13c-11.89-11.21-74.59-71.02-135.41-129.04-35.31-33.69-70.82-67.57-97.53-93.01-13.35-12.72-24.5-23.34-32.32-30.77-3.91-3.72-6.99-6.64-9.09-8.63-1.23-1.16-2.05-1.93-2.62-2.44l83.94-81.02,147.22,16.79h0ZM1039.95,616.31l125.8-121.43,19.26,137.98-145.07-16.55h.01ZM890.6,760.46l62.11-59.95c6.61,6.13,75.19,71.56,141.61,134.93,34.51,32.92,68.83,65.67,94.55,90.18,27.9,26.59,37.73,35.96,41.34,39.26l-312.38,27.89-27.23-232.31ZM915.84,992.95l-133.96,11.96,38.33-249.43,68.44,5.54,27.19,231.93ZM952.66,697.78c-7.68-7.12-70.46-67.39-105.96-101.5l188.81,21.54-82.85,79.97h0ZM897.55,647.87c13.6,13.05,27.21,26.09,37.44,35.86,5.11,4.89,9.38,8.96,12.38,11.8,1.87,1.78,3.07,2.91,3.86,3.62l-62.05,59.89-68.67-5.56,24.05-156.49c5.85,5.62,29.39,28.24,52.98,50.87h.01ZM818.52,753.33l-227.18-18.39-223.6-333.38,475.03,194.01-24.25,157.76ZM770.67,1005.91l-6.09.54-473.41-293.79,299.05,24.2,180.45,269.05ZM771.94,1007.81l3.59,5.44-8.11-5.03,4.53-.4h-.01ZM704.4,1495.96l-466.57-440.45,526.27-46.99,13.89,8.62-73.59,478.83h0ZM778.46,1014.07l-4.25-6.45,5.32-.47-1.06,6.93h0ZM772.95,1005.72l-180.18-268.64,225.45,18.25-38.39,249.78-6.89.61h.01ZM781.58,1006.96l134.51-12.01,12.9,110.08-148.82-88.9,1.41-9.16h0ZM782.12,1019.62l147.16,87.91,19.29,164.54-166.45-252.45ZM1121.67,1534.62l-170.67-258.85-19.57-166.96,300.22,179.34c-48.65,109.2-88.35,198.2-109.98,246.47ZM1232.47,1286.31l-301.33-180.01-13.07-111.55,313.8-28.02,71.04,161.39c-24.73,55.55-48.48,108.9-70.44,158.18h0ZM1234.46,967.67c13.15,6.12,78.83,37.19,115.56,54.6-15.57,34.99-30.97,69.59-46.02,103.39l-69.54-157.99ZM1234.2,1287.34c20.83-46.77,44.13-99.08,69.8-156.74l118.51,269.23-188.31-112.49ZM1573.71,1397.06l-94.56,65.01-52.32-58.85,146.88-6.16ZM1477.49,1463.21l-153.9,105.8,101.25-165.04,52.66,59.23h0ZM1574.2,1126.44l-4.64,14.47-144.77,259.15-119.7-271.93c14.8-33.25,30.39-68.27,46.74-105.02l222.37,103.32h0ZM1350.83,1020.44c-87.61-41.5-110.2-52.11-116.14-54.83,60.86-33.25,171.04-93.35,185.39-100.8-23.04,51.79-46.32,104.11-69.24,155.63h-.01ZM1421.32,862c-.16.08-.29.14-.36.17l.02.05c-.93.31-3,1.42-8.4,4.31-5.19,2.78-12.59,6.77-21.45,11.57-15.68,8.49-37.51,20.36-64.88,35.28-42.6,23.21-85.16,46.46-92.97,50.73l-45.93-328.97,318.72,36.35c-27.05,60.82-55.69,125.22-84.74,190.52h0ZM1506.92,669.56l-319.86-36.48-19.53-139.93,174.99-168.91,222.11,215.54c-17.99,40.45-37.39,84.09-57.71,129.78ZM1458.32,212.47l83.92,27.55,74.22,183.19c-15.04,33.83-32.22,72.47-50.96,114.62l-221.54-214.98,114.36-110.39h0ZM1456.17,211.76l-113.65,109.7-228.96-222.19,342.61,112.49ZM1341.08,322.85l-173.9,167.85-.12-.86-55.91-390.12,229.93,223.12h0ZM1109.19,100.14l55.89,389.99.32,2.29-128.04,123.59-191.93-21.89,263.76-493.98ZM657.36,249.06l450.32-150.34-263.83,494.12c-6.63-12.24-49.61-91.64-92.64-171.03-23.39-43.17-46.79-86.33-64.36-118.69-8.79-16.18-16.12-29.67-21.26-39.1-2.57-4.72-4.6-8.43-5.98-10.95-1.23-2.24-1.85-3.37-2.27-3.93l.05-.03s-.01-.02-.02-.03v-.02ZM655.51,249.82c.1.16.19.29.26.4l-.03.02c2.17,3.4,169.2,311.89,185.9,342.73l-474.2-193.67,288.07-149.47h0ZM364.71,400.66l224.07,334.07-301.34-24.39-253.98-157.61,331.25-152.07Z"/>
          </g>
        </g>
      </g>
    </mask>
    <radialGradient id="Unbenannter_Verlauf" data-name="Unbenannter Verlauf" cx="-1086.12" cy="2686.84" fx="-1086.12" fy="2686.84" r="1" gradientTransform="translate(1135034.06 -438962) rotate(-90) scale(405 -422)" gradientUnits="userSpaceOnUse">
      <stop offset="0" stop-color="#fff"/>
      <stop offset=".34" stop-color="#fff" stop-opacity=".47"/>
      <stop offset=".62" stop-color="#fff" stop-opacity="0"/>
    </radialGradient>
    <radialGradient id="Unbenannter_Verlauf_2" data-name="Unbenannter Verlauf 2" cx="-1086.12" cy="2686.84" fx="-1086.12" fy="2686.84" r="1" gradientTransform="translate(1134457.07 -439609) rotate(-90) scale(405 -422)" gradientUnits="userSpaceOnUse">
      <stop offset="0" stop-color="#fff"/>
      <stop offset=".34" stop-color="#fff" stop-opacity=".47"/>
      <stop offset=".62" stop-color="#fff" stop-opacity="0"/>
    </radialGradient>
    <radialGradient id="Unbenannter_Verlauf_3" data-name="Unbenannter Verlauf 3" cx="-1086.55" cy="2687.91" fx="-1086.55" fy="2687.91" r="1" gradientTransform="translate(1333942.08 -515805.81) rotate(-90) scale(475 -496.05)" gradientUnits="userSpaceOnUse">
      <stop offset="0" stop-color="#fff"/>
      <stop offset=".39" stop-color="#fff" stop-opacity=".47"/>
      <stop offset=".87" stop-color="#fff" stop-opacity="0"/>
    </radialGradient>
    <radialGradient id="Unbenannter_Verlauf_4" data-name="Unbenannter Verlauf 4" cx="-1089.92" cy="2689.03" fx="-1089.92" fy="2689.03" r="1" gradientTransform="translate(1164882.07 -1428230.3) rotate(-120.66) scale(583.33 -643.08)" gradientUnits="userSpaceOnUse">
      <stop offset="0" stop-color="#fff"/>
      <stop offset=".39" stop-color="#fff" stop-opacity=".47"/>
      <stop offset=".87" stop-color="#fff" stop-opacity="0"/>
    </radialGradient>
    <radialGradient id="Unbenannter_Verlauf_5" data-name="Unbenannter Verlauf 5" cx="-1089.67" cy="2685.62" fx="-1089.67" fy="2685.62" r="1" gradientTransform="translate(452470.36 -1255349.94) rotate(-120.43) scale(784.44 -381.78)" gradientUnits="userSpaceOnUse">
      <stop offset="0" stop-color="#fff"/>
      <stop offset=".39" stop-color="#fff" stop-opacity=".47"/>
      <stop offset=".87" stop-color="#fff" stop-opacity="0"/>
    </radialGradient>
    <radialGradient id="Unbenannter_Verlauf_6" data-name="Unbenannter Verlauf 6" cx="-1085.56" cy="2683.98" fx="-1085.56" fy="2683.98" r="1" gradientTransform="translate(811824.25 -367779.05) rotate(-90) scale(339 -301.89)" gradientUnits="userSpaceOnUse">
      <stop offset="0" stop-color="#fff"/>
      <stop offset=".39" stop-color="#fff" stop-opacity=".47"/>
      <stop offset=".87" stop-color="#fff" stop-opacity="0"/>
    </radialGradient>
  </defs>
  <g class="st9">
    <g id="Diamant_1_dÃ_xBC_nn">
      <g id="Mask_group">
        <g class="st1">
          <g>
            <ellipse id="Ellipse_5" class="st2" cx="1189.52" cy="917" rx="422" ry="405"/>
            <ellipse id="Ellipse_6" class="st3" cx="612.52" cy="270" rx="422" ry="405"/>
            <path id="Ellipse_7" class="st4" d="M94,229c0-262.34,245.35-475,548-475S1190-33.34,1190,229s-245.35,475-548,475S94,491.34,94,229Z"/>
            <path id="Ellipse_8" class="st6" d="M939.31,735.21c-164.28-277.12-23.85-663.97,313.66-864.05,337.51-200.07,744.29-137.61,908.57,139.52,164.28,277.13,23.85,663.98-313.66,864.05-337.51,200.07-744.29,137.61-908.57-139.52Z"/>
            <path id="Ellipse_9" class="st7" d="M817.25,1043.42c-219.4-373.57-234.42-772.04-33.57-890,200.86-117.96,541.53,89.25,760.93,462.83,219.39,373.57,234.42,772.04,33.57,890-200.86,117.96-541.54-89.26-760.93-462.83Z"/>
            <path id="Ellipse_10" class="st5" d="M1257.52,173c0-187.23,149.31-339,333.5-339S1924.51-14.23,1924.51,173s-149.31,339-333.5,339-333.5-151.78-333.5-339Z"/>
          </g>
        </g>
      </g>
    </g>
  </g>
</svg>