<?xml version="1.0" encoding="UTF-8"?>
<svg id="Ebene_1" xmlns="http://www.w3.org/2000/svg" xmlns:xlink="http://www.w3.org/1999/xlink" version="1.1" viewBox="0 0 2263.86 2268.9">
  <!-- Generator: Adobe Illustrator 29.5.0, SVG Export Plug-In . SVG Version: 2.1.0 Build 137)  -->
  <defs>
    <style>
      .st0 {
        fill: none;
      }

      .st1 {
        mask: url(#mask);
      }

      .st2 {
        fill: url(#Unbenannter_Verlauf);
      }

      .st3 {
        fill: url(#Unbenannter_Verlauf_2);
      }

      .st4 {
        fill: url(#Unbenannter_Verlauf_3);
      }

      .st5 {
        fill: url(#Unbenannter_Verlauf_6);
        fill-opacity: .5;
      }

      .st6 {
        fill: url(#Unbenannter_Verlauf_4);
        fill-opacity: .7;
      }

      .st7 {
        fill: url(#Unbenannter_Verlauf_5);
        fill-opacity: .2;
      }

      .st8 {
        fill: #e41d0c;
      }

      .st9 {
        clip-path: url(#clippath);
      }
    </style>
    <clipPath id="clippath">
      <rect class="st0" x="368.93" y="294.45" width="1526" height="1680" transform="translate(-470.17 1095.62) rotate(-43.68)"/>
    </clipPath>
    <mask id="mask" x="-342.87" y="40.38" width="2198.02" height="2138.94" maskUnits="userSpaceOnUse">
      <g id="mask0_3_224">
        <g id="Group">
          <g id="Group_2">
            <path id="Vector" class="st8" d="M1218.48,2070.07l-5.15-85.37,228.59-23.63-.2-1.99-228.51,23.62-15.2-252.15,339.8,134.99.71.28,85.67-111.98,14.63,18.03,1.55-1.26-14.94-18.41,135.07-176.56.45,78.77h1.99s-.46-81.37-.46-81.37l92.65-121.1-93.8-82.19-3.65-644.76,63.03-44.03-1.15-1.64-61.9,43.24-.61-109.55h-1.99s.63,110.94.63,110.94l-396.56,277.04,68.86-300.02,191.49-231.16-1.54-1.28-188.97,228.1,68.76-299.55c23.89-8.47,37.57-13.28,38.5-13.5l-.19-.98.73-.7c-.32-.33-1.97.02-4.95,1.05-2.55.88-6.31,2.2-11.22,3.93-5.87,2.06-13.37,4.72-22.35,7.9l9.74-42.37-1.95-.45-10.01,43.61c-5.46,1.93-11.4,4.04-17.85,6.34-34.62,12.31-85.5,30.44-151.21,53.89-26.27,9.38-55,19.64-86.13,30.76l-49.1-215.72,198.83-42.78-192.27-40.22,12.08-147.29-1.99-.16-12.06,147.04-115.19-24.1-74.67-71.92-1.39,1.44,72.37,69.7-119.96-25.1-.41,1.96,123.08,25.75,108.4,104.41-287.71,74.35-13.72,6.64-37.07-109.17-1.89.64,37.14,109.41-2.17,1.05-287.56,129.99.83,1.82,287.58-130,1.97-.96,78.76,231.98c-30.9,11.06-62.99,22.53-96.23,34.43-22.16,7.93-44.33,15.86-66.43,23.78-9.89-3.4-77.72-25.07-141.91-45.44-37.43-11.88-71.42-22.61-95.7-30.23-13.6-4.27-24.21-7.57-31.52-9.81-8.36-2.57-12.72-3.67-13.09-3.32l.76.8-.14.92c4.4.68,246.6,77.38,278.62,88.16-66.58,23.83-132.36,47.38-194.57,69.65l-105.05-138.55-1.6,1.21,104.65,138.03c-46.56,16.67-91.1,32.61-132.43,47.42l1.3-159.03h-2s-1.3,159.76-1.3,159.76c-42.92,15.37-82.35,29.49-116.97,41.89l68.48-151.89-1.82-.82-69.27,153.64c-88.81,31.8-145.29,52.03-146.65,52.53l.68,1.88c2.67-.96,58.03-20.79,144.82-51.88l-80.41,178.32-220.73,20.45.19,1.99,220.63-20.44,37.47,78.56-300.4-12.27-.08,2,301.45,12.31,156.38,327.88-231.16-104.28-.82,1.82,232.49,104.87-1.1,1.4.83-.23-42.97,90.45,1.8.86,42.75-90,52.13,191.17,1.93-.53-52.25-191.55,420.24,222.16c-3.58,11.5-22.46,70.3-40.76,127.33-11.07,34.48-22.29,69.42-30.73,95.76-4.22,13.16-7.74,24.19-10.19,31.93-2.69,8.49-3.89,12.9-3.59,13.21l.76-.73.94.22c.44-1.94,22.95-72.02,44.7-139.78,10.51-32.75,20.89-65.09,28.63-89.25,3.87-12.08,7.08-22.12,9.3-29.14,1.11-3.51,1.99-6.27,2.57-8.15.07-.22.14-.42.19-.61l307.49,105.28-280.5,280.26,1.41,1.42,280.07-279.82,15.17,251.59-292.51,30.23.21,1.99,292.42-30.22,5.14,85.19-5.23,109.14,2,.1,5.23-109.19v-.06s0,0,0,0ZM1538.71,1862.27l-60.53-288.41,144.7,178.39-84.17,110.03ZM1852.42,1452.22l-89.94,117.57-1.12-197.35,91.07,79.78ZM1760.49,1572.39l-136.35,178.23-146.86-181.03-114.69-546.49,396.75,347.6,1.15,201.7h0ZM800.83,973.17l205.69-259.73c.1,16.34.14,102.99.18,187.05.02,48.8.03,97.88.08,134.77.02,18.44.04,33.84.06,44.62,0,5.4.02,9.64.04,12.53.01,1.69.02,2.82.04,3.58l-116.57-4.76-89.52-118.07h0ZM887.76,1091.13l-174.7-7.13,86.5-109.21,88.21,116.35h0ZM1095.15,1099.6l-86.25-3.52c-.13-9.01-.17-103.8-.2-195.6-.02-47.69-.03-95.13-.07-130.66-.04-38.54-.05-52.12-.15-57.01l235.89,206.67-149.22,180.12ZM1245.87,920.8l101.16,88.63-206.87,144.53-43.26-53.33,148.97-179.83ZM1006.96,1098c.15,10.47-.08,97.5-.24,146.73l-114.81-151.43,115.05,4.7h0ZM1008.92,1172.33c.05-18.85.08-37.7.08-51.84,0-7.07,0-12.97-.01-17.1,0-2.58-.02-4.23-.05-5.29l86.17,3.52,43.4,53.51-129.79,90.67c.02-8.11.13-40.76.21-73.45h0ZM1139.77,1156.66l143.58,177.01-86.71,391.94-187.72-477.55,130.85-91.4ZM1355.5,1016.85l4.6,4.03,114.43,545.28-189.01-233,69.98-316.31ZM1355.99,1014.62l1.46-6.35,1.96,9.34-3.42-3h0ZM1755.7,726.36l3.64,641.62-397.41-348.18-3.36-16,397.14-277.44h0ZM1356.02,1005.58l-1.73,7.53-4.01-3.52,5.74-4.02h0ZM1353.78,1015.33l-69.87,315.83-142.49-175.66,207.17-144.72,5.2,4.56h0ZM1348.72,1008.23l-101.57-88.99,70.71-85.35,38.47,169.03-7.6,5.31h0ZM1357.51,999.1l-38.04-167.14,105.69-127.58-67.64,294.72ZM1495.5,397.87l-69.36,302.19-107.24,129.45-77.61-340.99c112.58-40.22,204.36-72.97,254.21-90.66ZM1239.4,489.21l77.89,342.25-71.65,86.49-236.97-207.61,67.67-162.83c57.26-20.47,112.24-40.14,163.05-58.29h0ZM1007.56,707.81c-4.65-13.74-27.54-82.7-40.31-121.29,36.06-12.9,71.72-25.66,106.56-38.11l-66.25,159.4ZM1238.95,487.24c-48.21,17.23-102.14,36.5-161.57,57.76l112.89-271.64,48.68,213.88ZM1083.85,165.92l112.32,23.5-6.43,78.48-105.89-101.98ZM1198.14,189.83l182.8,38.25-189.29,40.74,6.47-78.99h.01ZM887.78,352.45l13.67-6.64,287.41-74.25-114.02,274.36c-34.27,12.26-70.36,25.17-108.23,38.72l-78.83-232.18h0ZM965.36,587.2c30.49,92.02,38.41,115.69,40.55,121.86-66.08-21.06-185.63-59.24-200.93-64.48,53.37-19.1,107.29-38.39,160.38-57.39h0ZM802.09,645.63c.17.06.3.11.37.14l.02-.05c.87.46,3.1,1.19,8.92,3.1,5.59,1.83,13.59,4.43,23.18,7.52,16.97,5.48,40.63,13.07,70.32,22.56,46.21,14.78,92.41,29.51,100.89,32.21l-206.22,260.4-193.81-255.62c62.67-22.44,129.03-46.19,196.32-70.28h0ZM603.79,716.61l194.5,256.54-87.72,110.76-243.01-9.92,2.51-309.49c41.68-14.92,86.64-31.03,133.72-47.88ZM306.76,1067.42l-38.03-79.72,81.24-180.19c34.85-12.48,74.67-26.74,118.09-42.3l-2.5,308.69-158.81-6.48h0ZM307.73,1069.46l157.83,6.44-2.59,319.04-155.24-325.48ZM467.55,1075.99l241.49,9.86-.54.68-243.55,309.84,2.59-320.38h0ZM466.61,1397.5l243.47-309.74,1.44-1.81,177.81,7.26,116.71,153.93-539.42,150.36ZM886.34,1621.46l-419.71-221.88,539.57-150.4c-4.27,13.25-32.02,99.17-59.73,185.11-15.07,46.73-30.13,93.46-41.4,128.51-5.63,17.53-10.33,32.15-13.6,42.38-1.64,5.12-2.92,9.15-3.79,11.89-.77,2.44-1.16,3.67-1.27,4.36l-.06-.02s0,.02,0,.04v.02ZM888.17,1622.27c.05-.18.08-.34.11-.46h.04c.96-3.91,108.74-337.75,119.51-371.13l187.39,476.72-307.04-105.13h0ZM1198.08,1728.43l86.89-392.76,190.46,234.79,61.4,292.54-338.74-134.57Z"/>
          </g>
        </g>
      </g>
    </mask>
    <radialGradient id="Unbenannter_Verlauf" data-name="Unbenannter Verlauf" cx="-4056.83" cy="2920.1" fx="-4056.83" fy="2920.1" r="1" gradientTransform="translate(-1642013.07 -1231505.31) rotate(-180) scale(405 -422)" gradientUnits="userSpaceOnUse">
      <stop offset="0" stop-color="#fff"/>
      <stop offset=".34" stop-color="#fff" stop-opacity=".47"/>
      <stop offset=".62" stop-color="#fff" stop-opacity="0"/>
    </radialGradient>
    <radialGradient id="Unbenannter_Verlauf_2" data-name="Unbenannter Verlauf 2" cx="-4056.83" cy="2920.1" fx="-4056.83" fy="2920.1" r="1" gradientTransform="translate(-1642082.57 -1230641.19) rotate(-180) scale(405 -422)" gradientUnits="userSpaceOnUse">
      <stop offset="0" stop-color="#fff"/>
      <stop offset=".34" stop-color="#fff" stop-opacity=".47"/>
      <stop offset=".62" stop-color="#fff" stop-opacity="0"/>
    </radialGradient>
    <radialGradient id="Unbenannter_Verlauf_3" data-name="Unbenannter Verlauf 3" cx="-4057.33" cy="2918.74" fx="-4057.33" fy="2918.74" r="1" gradientTransform="translate(-2392778.1 285332.11) rotate(136.32) scale(475 -496.05)" gradientUnits="userSpaceOnUse">
      <stop offset="0" stop-color="#fff"/>
      <stop offset=".39" stop-color="#fff" stop-opacity=".47"/>
      <stop offset=".87" stop-color="#fff" stop-opacity="0"/>
    </radialGradient>
    <radialGradient id="Unbenannter_Verlauf_4" data-name="Unbenannter Verlauf 4" cx="-4054.86" cy="2915.03" fx="-4054.86" fy="2915.03" r="1" gradientTransform="translate(-2443213.64 1772071.61) rotate(105.67) scale(583.33 -643.08)" gradientUnits="userSpaceOnUse">
      <stop offset="0" stop-color="#fff"/>
      <stop offset=".39" stop-color="#fff" stop-opacity=".47"/>
      <stop offset=".87" stop-color="#fff" stop-opacity="0"/>
    </radialGradient>
    <radialGradient id="Unbenannter_Verlauf_5" data-name="Unbenannter Verlauf 5" cx="-4056.26" cy="2917.82" fx="-4056.26" fy="2917.82" r="1" gradientTransform="translate(-1942039.13 2755709.99) rotate(105.9) scale(784.44 -381.78)" gradientUnits="userSpaceOnUse">
      <stop offset="0" stop-color="#fff"/>
      <stop offset=".39" stop-color="#fff" stop-opacity=".47"/>
      <stop offset=".87" stop-color="#fff" stop-opacity="0"/>
    </radialGradient>
    <radialGradient id="Unbenannter_Verlauf_6" data-name="Unbenannter Verlauf 6" cx="-4056.16" cy="2923.71" fx="-4056.16" fy="2923.71" r="1" gradientTransform="translate(-1603792.55 312162.14) rotate(136.32) scale(339 -301.89)" gradientUnits="userSpaceOnUse">
      <stop offset="0" stop-color="#fff"/>
      <stop offset=".39" stop-color="#fff" stop-opacity=".47"/>
      <stop offset=".87" stop-color="#fff" stop-opacity="0"/>
    </radialGradient>
  </defs>
  <g class="st9">
    <g id="Diamant_1_dÃ_xBC_nn">
      <g id="Mask_group">
        <g class="st1">
          <g>
            <ellipse id="Ellipse_5" class="st2" cx="1001.95" cy="775.31" rx="405" ry="422" transform="translate(-258.13 906.47) rotate(-43.68)"/>
            <ellipse id="Ellipse_6" class="st3" cx="932.45" cy="1639.43" rx="405" ry="422" transform="translate(-874.1 1097.61) rotate(-43.68)"/>
            <path id="Ellipse_7" class="st4" d="M1260.87,2042.77c-189.74,181.16-512.98,150.57-721.98-68.33s-224.62-543.21-34.88-724.37c189.74-181.16,512.98-150.57,721.98,68.33,209,218.9,224.62,543.21,34.88,724.37Z"/>
            <path id="Ellipse_8" class="st6" d="M1043.25,1081.81c-86.99,310.19-463.76,475.77-841.55,369.83-377.78-105.95-613.51-443.29-526.52-753.49C-237.82,387.95,138.95,222.37,516.73,328.32c377.78,105.94,613.51,443.29,526.52,753.49Z"/>
            <path id="Ellipse_9" class="st7" d="M1350.46,957.26c-118.68,416.66-396.51,702.69-620.52,638.88-224.02-63.81-309.42-453.31-190.73-869.97C657.9,309.51,935.72,23.47,1159.74,87.29c224.02,63.81,309.41,453.31,190.72,869.97Z"/>
            <path id="Ellipse_10" class="st5" d="M416.88,1239.91c-135.42,129.3-348.3,126.11-475.49-7.11-127.19-133.22-120.53-346.02,14.88-475.31,135.41-129.29,348.3-126.11,475.49,7.11,127.19,133.22,120.53,346.02-14.88,475.31Z"/>
          </g>
        </g>
      </g>
    </g>
  </g>
</svg>