<?xml version="1.0" encoding="UTF-8"?>
<svg id="Ebene_1" xmlns="http://www.w3.org/2000/svg" version="1.1" viewBox="0 0 1600 2330.03">
  <!-- Generator: Adobe Illustrator 30.2.1, SVG Export Plug-In . SVG Version: 2.1.1 Build 1)  -->
  <defs>
    <style>
      .st0 {
        fill: none;
        stroke: #fff;
        stroke-miterlimit: 19;
        stroke-width: 5px;
      }

      .st1 {
        fill: #d9d9d6;
      }

      .st2 {
        fill: #004af0;
      }

      .st3 {
        fill: #fff;
      }

      .st4 {
        fill: #d0d0ce;
      }
    </style>
  </defs>
  <path class="st4" d="M689.08,759.44h-1.35v251.25h22.86v-.11h-21.52v-251.14h.01ZM771.36,759.75c41.11,4.52,51.58,35.95,51.58,66.81v.7c-.05,8.42-.88,16.11-2.43,23.01-.24,1.2-.54,2.36-.87,3.51l-29.01,16.83c-4.09,4.09-9.01,6.95-14.62,8.81l7.37,16.88,12.87,29.57,37.28,84.72h-23.8l-14.31-33.15,13.34,33.26h24.97l-47.07-114.18c24.99-9.35,41.61-31.91,41.61-69.75,0-31.5-11.44-63.57-56.9-67.01M750.22,779.33h-39.32v.2h41.02c3.62,0,7.07.1,10.35.35-3.77-.38-7.79-.54-12.06-.54M723.16,882.31h-12.2v6.75l12.2-6.75ZM757.33,889.43l-23.85,13.17-.28.15h29.93l-.06-.15-5.73-13.17h-.01Z"/>
  <path class="st0" d="M485.32,839.94l47.6,45.14-47.6,45.11M427.39,885.07h105.52M1090.98,839.94l47.6,45.14-47.6,45.11M1033.05,885.07h105.52"/>
  <g>
    <path class="st2" d="M771.36,759.75c-3.31-.37-6.83-.55-10.55-.55h-71.73v.25h73.95c2.89,0,5.67.1,8.33.31h0Z"/>
    <path class="st2" d="M796.24,925.86l-12.87-29.57-7.37-16.88c-6.12,2.04-13.06,2.9-20.61,2.9h-32.24l-12.2,6.74v-6.74h-.35.35v-.21h-.05v-102.57h0v-.2h39.32c4.26,0,8.29.16,12.06.55h0c23.73,2.4,37.53,13.46,37.53,47.04,0,4.87-.24,9.35-.73,13.46l-75.56,41.73-.37.21h32.24c7.55,0,14.49-.86,20.61-2.9l-.11-.26,14.73-8.54c8.48-8.47,13.38-22.25,13.38-43.51h0c0,21.26-4.9,35.03-13.38,43.51l29.01-16.83c.32-1.15.62-2.31.86-3.51,1.55-6.9,2.38-14.59,2.43-23.01v-.7c0-30.85-10.46-62.29-51.57-66.8-2.66-.2-5.44-.31-8.33-.31h-73.95v251.14h21.82v-95.51l.05-.02,22.24-12.3h0l.28-.15,23.85-13.17,5.73,13.17.06.15h0l5.54,12.71,26.74,61.96h0l14.31,33.15h23.8l-37.28-84.72h.03Z"/>
  </g>
  <path class="st2" d="M1428.64,925.86l-12.87-29.57-7.48-17.15,43.74-25.37c.32-1.15.62-2.31.86-3.52,1.55-6.9,2.38-14.58,2.43-23.01v-.69c0-33.35-12.22-67.36-62.13-67.36h-71.73v251.39h21.81v-95.51l.05-.02,22.52-12.46,23.86-13.17,5.73,13.17,5.61,12.87,41.06,95.12h23.8l-37.28-84.72h.02,0ZM1343.29,779.33h39.32c31.07,0,49.59,8.67,49.59,47.58,0,4.87-.24,9.35-.73,13.46l-75.56,41.73-12.58,6.95v-6.95h-.05v-102.77h.01Z"/>
  <path class="st3" d="M227.38,1011.48l-48.61-107.21h-54.47v107.21h-22.75v-249.59h74.81c52.06,0,64.81,33.78,64.81,66.88,0,37.58-16.55,59.98-41.37,69.29l52.4,113.42h-24.82ZM217.04,829.11c0-38.61-19.31-47.23-51.71-47.23h-41.02v102.04h44.47c28.61,0,48.26-12.41,48.26-54.81h0Z"/>
  <path class="st1" d="M790.45,290.21h21.04l19.12,82.17,25.88.21-.06-.21h-24.9l-21.61-88.89-19.47,6.72ZM735.14,269.92l-4.64,17.57,53.18-17.7-48.54.13ZM769.45,140.1l-.37,1.4,27.45,94.43-26.74-95.83h-.34ZM753.1,121l-70.54,251.59,21.1-.17v-.04h-20.32l71.01-251.38h-1.25Z"/>
  <path class="st0" d="M494.31,203.03l47.6,45.14-47.6,45.11M436.38,248.16h105.52M1099.97,203.03l47.6,45.14-47.6,45.11M1042.04,248.16h105.52"/>
  <path class="st1" d="M768.27,139.91l-33.8,130h.67l33.93-128.42-.46-1.58h-.34,0ZM784.12,121l72.32,251.38h.83l-72.04-251.38h-1.11Z"/>
  <path class="st2" d="M1401.84,140.1h.34l34.3,122.9-73.58,24.49,38.94-147.39h0ZM1386.75,121l-71.01,251.38h22.98l16.74-58.9,86.86-29.99,21.62,88.89h25.72l-72.04-251.38h-30.87,0Z"/>
  <path class="st2" d="M769.22,140.1h.34l34.3,122.9-73.58,24.49,38.94-147.39h0ZM754.13,121l-71.01,251.38h22.98l16.74-58.9,86.86-29.99,21.62,88.89h25.72l-72.04-251.38h-30.87,0Z"/>
  <path class="st3" d="M266.03,373.97h-25.86l-21.72-80.32h-82.73l-21.37,80.32h-23.1l71.36-249.59h31.03l72.39,249.59ZM212.6,273.3l-34.47-129.96h-.34l-35.85,129.96h70.67,0Z"/>
  <path class="st2" d="M696.14,1882.72c0-15.22,7.21-26.84,26.45-26.84,21.02,0,26.04,16.22,28.23,30.24l12.42-1.6c-2.6-29.44-17.83-40.26-40.45-40.26s-40.46,15.02-40.46,38.46l.05,4.15,67.84,68.16c0,22.43-14.82,28.04-29.84,28.04-21.43,0-27.85-14.83-30.84-31.05l-13.02,2c3.4,26.25,17.62,40.26,43.87,40.26,22.23,0,43.66-10.42,43.66-41.06l-.17-2.38-67.73-68.12h0Z"/>
  <polygon class="st2" points="164.68 1901.82 100.8 1847.54 100.8 1847.67 86.86 1847.67 86.86 1992.55 100.8 1992.55 100.8 1865.15 164.68 1919.43 164.68 1992.55 178.62 1992.55 178.62 1847.67 164.68 1847.67 164.68 1901.82"/>
  <path class="st3" d="M494.02,1994.85c12.4,0,22.8-3.8,31.01-10.21l14.61,20,8.8-7.59-15.61-20.41c10.8-13.61,16.21-34.01,16.21-59.82,0-39.61-16.21-71.83-52.62-71.83s-56.43,31.42-56.43,74.83,17.01,75.03,54.02,75.03M454.01,1919.83c0-40.21,16.4-63.02,41.81-63.02s39.42,22.01,39.42,62.02c0,21.81-3.6,37.82-10.61,48.41l-21.61-29.41-8.8,7.41,23.01,30.41c-6.2,5.2-14.41,7.4-22.41,7.4-25.2,0-40.81-19.4-40.81-63.22"/>
  <path class="st3" d="M116.63,2252.11c33.81,0,40.62-33.41,40.62-77.02,0-39.42-5.6-72.83-38.41-72.83s-41.02,35.01-41.02,77.62c0,38.42,6.01,72.23,38.81,72.23M91.42,2178.49c0-41.22,5.8-64.42,26.61-64.42s25.41,21.6,25.41,62.41-4.6,64.43-26.01,64.43c-19.61,0-26-20.81-26-62.42M174.45,2121.67l1.2,10.4c5.6,0,20-2.8,25.81-7v124.64h13.41v-144.85h-7.21c-7.6,10.61-17.41,15.21-33.21,16.81M247.27,2137.27l12.01,2.4c2-14.41,5.4-26,23.01-26,12.4,0,21,7.2,21,24.8,0,20.01-6.81,32.22-24.6,57.62l-30.01,42.82v10.8h69.22v-11.4h-55.22v-.2l27.41-38.42c16.4-23,26-39.21,26-62.02,0-25.01-13.8-35.41-33.01-35.41-26.41,0-33.61,16.4-35.81,35.01M348.9,2217.7l-12.81,2.4c2.21,22.61,16.01,32.01,35.02,32.01,23.41,0,38.21-17.6,38.21-43.02,0-23-10.81-34.2-26.61-37.21v-.4c13.41-3.61,24.61-15.81,24.61-35.41,0-22.4-13.01-33.82-33.22-33.82-17.41,0-30.81,7.8-34.81,30.62l12.2,2.79c2.2-10,6-21.8,22.21-21.8s20.2,10,20.2,24.01c0,17.21-11.2,29.2-28.41,29.2h-7.81v11.61h8c19.21,0,29.81,7.41,29.81,30.41s-11.2,31.42-24.21,31.42c-17.61,0-20.41-10.01-22.41-22.81M483.14,2249.71h12.61v-37.41h14.41v-11.2h-14.41v-96.24h-17.01l-52.62,97.84v9.6h57.02v37.41h0ZM439.73,2201.1l43.41-82.63v82.63h-43.41ZM534.35,2216.7l-11.99,3.2c3.6,22.61,17.2,32.21,35.2,32.21,26.02,0,40.82-21.21,40.82-49.21,0-35.61-17.01-45.01-33.61-45.01-10.61,0-19.61,4.8-24.41,9.4l4-50.82h46.62v-11.61h-57.42l-5,72.23,9.8,4.4c6.41-7.4,13.61-12.4,24.61-12.4,14.2,0,21.8,11.2,21.8,34.01,0,27.81-13.6,37.42-26.2,37.42-16.4,0-22.21-12-24.22-23.81M682,2135.67l12.41-3.2c-3.01-21.4-14-30.21-30.01-30.21-33.41,0-44.21,38.61-44.21,80.23,0,37.21,6.59,69.62,38.21,69.62,24.81,0,37.41-20.61,37.41-48.82,0-23.41-10.2-41.61-32.01-41.61-13.4,0-23.8,8.21-30.41,17.4.41-28.41,6.2-65.41,30.21-65.41,9.8,0,16.4,5.4,18.4,22M633.8,2191.89c5.2-7.6,15-18.81,28.61-18.81s20.2,11.01,20.2,31.61c0,25.2-10.4,36.01-23.61,36.01-21.21,0-24.81-26.41-25.2-48.82M709.82,2116.47h62.42l-50.62,133.24h13.61l50.62-134.85v-10.01h-76.02v11.61h0ZM845.66,2174.68c15-8.6,25.61-21.61,25.61-39.41s-10.01-33.02-34.41-33.02-36.81,15.01-36.81,36.42c0,18.2,10.6,30.8,23.61,37.01-19.6,9.4-27.61,22.4-27.61,40.22,0,20.2,11.41,36.21,37.82,36.21,24.2,0,39.61-15.8,39.61-38.21s-13.81-32.22-27.81-39.22M834.26,2181.09c14.8,6.8,25.81,14.61,25.81,32.6,0,13.01-7.21,27.01-25.42,27.01s-25.2-11.01-25.2-25.61c0-13.61,5.4-24.41,24.81-34.01M813.25,2137.67c0-9,3.61-24.8,23.21-24.8,14.21,0,21.61,8.6,21.61,22.6,0,14.81-9.6,26.41-22.61,34.61-11.4-5.4-22.21-15.8-22.21-32.42M901.48,2218.7l-12.21,3.21c2.81,21.61,16.01,30.21,33.41,30.21,35.41,0,42.62-34.8,42.62-80.23,0-48.61-12.61-69.62-38.22-69.62s-37.41,21.41-37.41,49.82,12.01,42.41,32.01,42.41c13.81,0,25.21-8.6,30.41-17.21-.2,39.62-6,63.23-28.8,63.23-10.81,0-19.01-5-21.8-21.81M902.88,2150.28c0-25.81,10.4-36.61,23.81-36.61s24.6,11.4,25.01,50.61c-6.8,10.21-16.21,18.81-28.41,18.81-18.01,0-20.41-18.4-20.41-32.81"/>
  <polygon class="st2" points="1423.13 1598.15 1389.4 1652.71 1354.38 1598.15 1335.68 1598.15 1335.68 1742.71 1346.89 1742.71 1346.89 1610.39 1385.36 1671.54 1393.26 1671.54 1430.22 1610.6 1430.22 1742.71 1442.03 1742.71 1442.03 1598.15 1423.13 1598.15"/>
  <polygon class="st2" points="1203.82 1977.1 1176.76 1905.45 1163.44 1905.78 1135.75 1977.1 1114.99 1848.52 1101.72 1848.52 1127.29 1993.06 1143.64 1993.06 1169.98 1924.53 1195.55 1993.06 1212.86 1993.06 1237.08 1848.52 1224.59 1848.52 1203.82 1977.1"/>
  <path class="st2" d="M641.32,1944.91l-7.58-17.42-4.41-10.11,25.79-14.96.51-2.07c.92-4.07,1.4-8.59,1.43-13.56v-.41c0-19.66-7.21-39.71-36.63-39.71h-42.27v148.19h12.86v-56.3l.03-.02,13.28-7.33,14.06-7.77,3.38,7.77,3.3,7.58,24.21,56.07h14.03l-21.98-49.95h-.01ZM591.01,1858.53h23.18c18.31,0,29.23,5.11,29.23,28.05,0,2.87-.15,5.51-.43,7.93l-44.54,24.6-7.41,4.1v-4.1h-.03v-60.59h0Z"/>
  <polygon class="st2" points="948.56 1648.25 884.98 1669.55 884.98 1595.73 871.1 1595.73 871.1 1745.13 884.98 1745.13 884.98 1686.02 948.56 1664.73 948.56 1745.13 962.44 1745.13 962.44 1595.73 948.56 1595.73 948.56 1648.25"/>
  <path class="st2" d="M179.61,1741.61h-15.17l-12.74-52.4-51.2,17.67-9.86,34.72h-13.55l41.86-148.19h18.2l42.46,148.19h0ZM148.27,1677.13l-20.22-72.45h-.21l-22.95,86.88,43.38-14.43Z"/>
  <g>
    <polyline class="st0" points="859.63 1352.7 814.49 1400.3 769.38 1352.7"/>
    <line class="st0" x1="814.5" y1="1294.77" x2="814.5" y2="1400.3"/>
  </g>
  <path class="st3" d="M774.01,1860.12h36.21v133.24h13.41v-133.24h35.41v-11.6h-85.03v11.6ZM880.45,1948.95c0,36.21,17.61,46.82,43.41,46.82,31.81,0,45.62-16.61,45.62-49.41v-97.83h-13.4v99.63c0,25.41-8.01,36.02-31.21,36.02-21.21,0-31.01-8.81-31.01-36.02v-99.63h-13.41v100.43h0ZM990.49,1848.52l41.4,144.84h18.01l38.61-144.84h-13.4l-34.22,131.44-36.02-131.44h-14.39.01ZM1246.17,1993.36h14l33.81-64.02,34.81,64.02h15.81l-42.22-74.62,39.21-70.22h-14l-32.61,59.82-32.4-59.82h-15.41l39.21,71.22-40.21,73.62h0ZM1350.59,1848.52l40.82,88.42v56.42h13.4v-56.02l40.01-88.82h-13.4l-32.61,73.62h-.39l-33.41-73.62h-14.42,0ZM1455.23,1993.36h83.43v-11.6h-68.82l66.62-123.24v-10h-78.41v11.6h64.02l-66.83,123.64v9.6h-.01Z"/>
  <path class="st3" d="M261.94,1994.85c36.61,0,55.22-30.81,55.22-78.02,0-40.22-16.41-71.83-52.82-71.83s-56.22,30.62-56.22,74.82,16.61,75.03,53.82,75.03M222.13,1919.82c0-41.81,17.4-63.02,41.81-63.02s39.42,21.41,39.42,62.03c0,45.42-16.01,64.21-40.61,64.21-26.01,0-40.61-21-40.61-63.22M358.97,1992.45v-55.22h19.41c28.8,0,46.21-12.2,46.21-47.01,0-23.01-9.4-42.62-40.4-42.62h-38.42v144.85h13.2,0ZM377.58,1925.43h-18.61v-66.23h20.41c19.01,0,31.21,6.81,31.21,31.41,0,30.41-14.61,34.82-33.01,34.82"/>
  <path class="st3" d="M739.25,1672.88c0,43.21,15.41,73.23,52.01,73.23,17.41,0,32.81-10.6,37.02-22.81l2,20.41h10.01v-75.03h-47.01v11.81h34.4v15c0,18.41-11.2,39.42-34.01,39.42s-40.61-13.41-40.61-63.22c0-40.61,15.8-64.03,42.22-64.03,19.4,0,30.21,9.81,32.41,37.01l12.61-1.19c-2.2-33.81-19.2-47.22-44.41-47.22-34.82,0-56.62,26.42-56.62,76.63M997.94,1743.7h13.41v-144.85h-13.41v144.85ZM1048.35,1713.09l-12.61,2.2c.8,20.41,10.81,30.81,30.21,30.81s32.81-8.21,32.81-37.02v-110.24h-13.4v110.63c0,22.01-8.21,25.22-18.81,25.22-13.8,0-17.01-8.4-18.2-21.61M1133.77,1743.7h13.41v-55.02l14.61-17.6,45.01,72.62h15l-51.21-82.63,48.02-62.22h-14.01l-57.42,73.23v-73.23h-13.41v144.85h0ZM1244.21,1743.7h68.82v-11.6h-55.41v-133.25h-13.41v144.85h0Z"/>
  <path class="st3" d="M203.73,1740.87h37.01c26.4,0,45.01-9.4,45.01-39.01,0-19.81-9.21-32.81-29.22-36.02v-.4c13.41-3.2,25.01-13.21,25.01-34.01s-7.8-35.41-36.61-35.41h-41.22v144.85h.02,0ZM239.33,1729.06h-22.2v-56.41h17.41c20,0,37.01,2.79,37.01,28.8,0,24.2-14.01,27.61-32.22,27.61M236.14,1661.05h-19.01v-53.42h16.41c22.8,0,34.2,1.59,34.2,25.2s-18.01,28.22-31.6,28.22M305.36,1668.44c0,45.21,14.59,74.83,52.61,74.83,21.21,0,43.02-10.6,47.41-41.41l-11.8-2.6c-4.2,22.61-15.01,32.21-34.81,32.21-25.21,0-39.41-17.81-39.41-64.02,0-43.62,15.61-62.22,41.81-62.22,20.81,0,30.02,13.2,32.61,36.61l12.61-1.19c-1.21-18.41-6.8-47.22-45.22-47.22-28.8,0-55.81,18.2-55.81,75.03M432.6,1740.87h33.61c43.41,0,63.02-27.41,63.02-74.62,0-43.22-15.81-70.23-60.22-70.23h-36.41v144.85h0ZM466.8,1729.27h-20.81v-121.64h21.81c31.8,0,47.42,13.8,47.42,61.62,0,39.81-15.62,60.02-48.43,60.02M557.84,1740.87h71.62v-11.6h-58.23v-56.02h52.82v-11.81h-52.82v-53.82h56.43v-11.61h-69.82v144.85h0ZM656.86,1740.87h13.41v-65.02h52.21v-11.81h-52.21v-56.41h56.41v-11.61h-69.82v144.85h0Z"/>
</svg>