<?xml version="1.0" encoding="UTF-8"?>
<svg id="Ebene_1" xmlns="http://www.w3.org/2000/svg" version="1.1" viewBox="0 0 1600 757.1">
  <!-- Generator: Adobe Illustrator 30.2.1, SVG Export Plug-In . SVG Version: 2.1.1 Build 1)  -->
  <defs>
    <style>
      .st0 {
        fill: #004af0;
      }

      .st1 {
        stroke-width: 1.4px;
      }

      .st1, .st2 {
        fill: none;
        stroke: #fff;
        stroke-miterlimit: 19;
      }

      .st2 {
        stroke-width: 1.4px;
      }

      .st3 {
        fill: #fff;
      }

      .st4 {
        fill: #0026e8;
      }

      .st5 {
        fill: #d0d0ce;
      }
    </style>
  </defs>
  <g>
    <path class="st3" d="M1244.6,476.9h15.3v56.5h5.7v-56.5h15v-4.9h-36.1v4.9h0ZM1289.8,514.6c0,15.3,7.5,19.8,18.4,19.8s19.3-7,19.3-21v-41.5h-5.7v42.2c0,10.8-3.4,15.3-13.2,15.3s-13.2-3.7-13.2-15.3v-42.2h-5.7v42.6ZM1336.4,472l17.6,61.4h7.6l16.4-61.4h-5.7l-14.5,55.7-15.3-55.7h-6.1,0ZM1444.8,533.4h5.9l14.3-27.1,14.8,27.1h6.7l-17.9-31.6,16.6-29.8h-5.9l-13.8,25.4-13.7-25.4h-6.5l16.6,30.2-17.1,31.2h0ZM1489.1,472l17.3,37.5v23.9h5.7v-23.8l17-37.7h-5.7l-13.8,31.2h-.2l-14.2-31.2h-6.1,0ZM1533.5,533.4h35.4v-4.9h-29.2l28.2-52.2v-4.2h-33.2v4.9h27.1l-28.3,52.4v4.1h0Z"/>
    <path class="st3" d="M1027.5,534c15.5,0,23.4-13.1,23.4-33.1s-7-30.5-22.4-30.5-23.8,13-23.8,31.7,7,31.8,22.8,31.8M1010.6,502.2c0-17.7,7.4-26.7,17.7-26.7s16.7,9.1,16.7,26.3-6.8,27.2-17.2,27.2-17.2-8.9-17.2-26.8M1068.7,533v-23.4h8.2c12.2,0,19.6-5.2,19.6-19.9s-4-18.1-17.1-18.1h-16.3v61.4h5.6ZM1076.6,504.6h-7.9v-28.1h8.7c8.1,0,13.2,2.9,13.2,13.3s-6.2,14.8-14,14.8"/>
    <path class="st3" d="M1229.9,397.5c0,18.3,6.5,31,22.1,31s13.9-4.5,15.7-9.7l.8,8.6h4.2v-31.8h-19.9v5h14.6v6.4c0,7.8-4.8,16.7-14.4,16.7s-17.2-5.7-17.2-26.8,6.7-27.1,17.9-27.1,12.8,4.2,13.7,15.7l5.3-.5c-.9-14.3-8.1-20-18.8-20s-24,11.2-24,32.5M1339.6,427.5h5.7v-61.4h-5.7v61.4ZM1360.9,414.6l-5.3.9c.3,8.7,4.6,13.1,12.8,13.1s13.9-3.5,13.9-15.7v-46.7h-5.7v46.9c0,9.3-3.5,10.7-8,10.7s-7.2-3.6-7.7-9.2M1397.2,427.5h5.7v-23.3l6.2-7.5,19.1,30.8h6.4l-21.7-35,20.4-26.4h-5.9l-24.3,31v-31h-5.7v61.4h0ZM1444,427.5h29.2v-4.9h-23.5v-56.5h-5.7v61.4h0Z"/>
    <path class="st3" d="M1002.8,426.3h15.7c11.2,0,19.1-4,19.1-16.5s-3.9-13.9-12.4-15.3v-.2c5.7-1.4,10.6-5.6,10.6-14.4s-3.3-15-15.5-15h-17.5v61.4h0ZM1017.9,421.3h-9.4v-23.9h7.4c8.5,0,15.7,1.2,15.7,12.2s-5.9,11.7-13.7,11.7M1016.6,392.5h-8.1v-22.6h7c9.7,0,14.5.7,14.5,10.7s-7.6,12-13.4,12M1045.9,395.6c0,19.2,6.2,31.7,22.3,31.7s18.2-4.5,20.1-17.6l-5-1.1c-1.8,9.6-6.4,13.7-14.8,13.7s-16.7-7.5-16.7-27.1,6.6-26.4,17.7-26.4,12.7,5.6,13.8,15.5l5.3-.5c-.5-7.8-2.9-20-19.2-20s-23.7,7.7-23.7,31.8M1099.9,426.3h14.2c18.4,0,26.7-11.6,26.7-31.6s-6.7-29.8-25.5-29.8h-15.4v61.4ZM1114.4,421.4h-8.8v-51.6h9.2c13.5,0,20.1,5.9,20.1,26.1s-6.6,25.5-20.5,25.5M1153,426.3h30.4v-4.9h-24.7v-23.8h22.4v-5h-22.4v-22.8h23.9v-4.9h-29.6v61.4h0ZM1195,426.3h5.7v-27.6h22.1v-5h-22.1v-23.9h23.9v-4.9h-29.6v61.4h0Z"/>
    <path class="st3" d="M1211.6,486.5c0-6.5,3.1-11.4,11.2-11.4s11,6.9,12,12.8l5.3-.7c-1.1-12.5-7.6-17.1-17.2-17.1s-17.2,6.4-17.2,16.3v1.8s28.8,28.9,28.8,28.9c0,9.5-6.3,11.9-12.7,11.9-9.1,0-11.8-6.3-13.1-13.2l-5.5.8c1.4,11.1,7.5,17.1,18.6,17.1s18.5-4.4,18.5-17.4v-1c0,0-28.8-28.9-28.8-28.9h0Z"/>
  </g>
  <polygon class="st0" points="986.3 494.6 959.2 471.6 959.2 471.6 953.3 471.6 953.3 533.1 959.2 533.1 959.2 479 986.3 502.1 986.3 533.1 992.2 533.1 992.2 471.6 986.3 471.6 986.3 494.6"/>
  <g>
    <path class="st3" d="M1125.9,534c5.3,0,9.7-1.6,13.2-4.3l6.2,8.5,3.7-3.2-6.6-8.7c4.6-5.8,6.9-14.4,6.9-25.4,0-16.8-6.9-30.5-22.3-30.5s-23.9,13.3-23.9,31.7,7.2,31.8,22.9,31.8M1108.9,502.2c0-17,6.9-26.7,17.7-26.7s16.7,9.3,16.7,26.3-1.5,16-4.5,20.5l-9.2-12.5-3.7,3.1,9.8,12.9c-2.6,2.2-6.1,3.1-9.5,3.1-10.7,0-17.3-8.2-17.3-26.8"/>
    <path class="st3" d="M965.9,643.1c14.3,0,17.2-14.2,17.2-32.7s-2.4-30.9-16.3-30.9-17.4,14.8-17.4,32.9,2.5,30.6,16.5,30.6M955.2,611.9c0-17.5,2.5-27.3,11.3-27.3s10.8,9.2,10.8,26.5-2,27.3-11,27.3-11-8.8-11-26.5M990.4,587.8l.5,4.4c2.4,0,8.5-1.2,10.9-3v52.8h5.7v-61.4h-3.1c-3.2,4.5-7.4,6.5-14.1,7.1M1021.3,594.4l5.1,1c.8-6.1,2.3-11,9.8-11s8.9,3,8.9,10.5-2.9,13.7-10.4,24.4l-12.7,18.2v4.6h29.3v-4.8h-23.4c0,0,11.6-16.4,11.6-16.4,6.9-9.8,11-16.6,11-26.3s-5.8-15-14-15-14.2,7-15.2,14.8M1064.4,628.5l-5.4,1c.9,9.6,6.8,13.6,14.8,13.6s16.2-7.5,16.2-18.2-4.6-14.5-11.3-15.8v-.2c5.7-1.5,10.4-6.7,10.4-15s-5.5-14.3-14.1-14.3-13.1,3.3-14.8,13l5.2,1.2c.9-4.2,2.5-9.2,9.4-9.2s8.6,4.2,8.6,10.2-4.8,12.4-12.1,12.4h-3.3v4.9h3.4c8.2,0,12.6,3.1,12.6,12.9s-4.8,13.3-10.3,13.3-8.7-4.2-9.5-9.7M1121.3,642.1h5.3v-15.9h6.1v-4.8h-6.1v-40.8h-7.2l-22.3,41.5v4.1h24.2v15.9ZM1102.9,621.5l18.4-35v35h-18.4ZM1143,628.1l-5.1,1.4c1.5,9.6,7.3,13.7,14.9,13.7,11,0,17.3-9,17.3-20.9s-7.2-19.1-14.2-19.1-8.3,2-10.3,4l1.7-21.5h19.8v-4.9h-24.3l-2.1,30.6,4.2,1.9c2.7-3.1,5.8-5.3,10.4-5.3s9.2,4.8,9.2,14.4-5.8,15.9-11.1,15.9-9.4-5.1-10.3-10.1M1205.6,593.7l5.3-1.4c-1.3-9.1-5.9-12.8-12.7-12.8-14.2,0-18.8,16.4-18.8,34s2.8,29.5,16.2,29.5,15.9-8.7,15.9-20.7-4.3-17.6-13.6-17.6-10.1,3.5-12.9,7.4c.2-12,2.6-27.7,12.8-27.7s6.9,2.3,7.8,9.3M1185.2,617.6c2.2-3.2,6.4-8,12.1-8s8.6,4.7,8.6,13.4-4.4,15.3-10,15.3c-9,0-10.5-11.2-10.7-20.7M1217.4,585.6h26.5l-21.5,56.5h5.8l21.5-57.2v-4.2h-32.2v4.9ZM1275,610.3c6.4-3.7,10.9-9.2,10.9-16.7s-4.2-14-14.6-14-15.6,6.4-15.6,15.4,4.5,13.1,10,15.7c-8.3,4-11.7,9.5-11.7,17s4.8,15.3,16,15.3,16.8-6.7,16.8-16.2-5.8-13.7-11.8-16.6M1270.2,613c6.3,2.9,10.9,6.2,10.9,13.8s-3.1,11.5-10.8,11.5-10.7-4.7-10.7-10.9,2.3-10.3,10.5-14.4M1261.3,594.6c0-3.8,1.5-10.5,9.8-10.5s9.2,3.7,9.2,9.6-4.1,11.2-9.6,14.7c-4.8-2.3-9.4-6.7-9.4-13.7M1298.7,628.9l-5.2,1.4c1.2,9.2,6.8,12.8,14.2,12.8,15,0,18.1-14.8,18.1-34s-5.3-29.5-16.2-29.5-15.9,9.1-15.9,21.1,5.1,18,13.6,18,10.7-3.7,12.9-7.3c0,16.8-2.5,26.8-12.2,26.8s-8.1-2.1-9.2-9.2M1299.3,599.9c0-10.9,4.4-15.5,10.1-15.5s10.4,4.8,10.6,21.5c-2.9,4.3-6.9,8-12.1,8-7.6,0-8.7-7.8-8.7-13.9"/>
  </g>
  <polygon class="st0" points="1519.8 365.8 1505.6 389 1490.7 365.8 1482.8 365.8 1482.8 427.1 1487.5 427.1 1487.5 371 1503.8 396.9 1507.2 396.9 1522.9 371.1 1522.9 427.1 1527.9 427.1 1527.9 365.8 1519.8 365.8"/>
  <polygon class="st0" points="1426.9 526.5 1415.4 496.1 1409.8 496.3 1398 526.5 1389.2 472 1383.6 472 1394.4 533.3 1401.3 533.3 1412.5 504.2 1423.4 533.3 1430.7 533.3 1441 472 1435.7 472 1426.9 526.5"/>
  <path class="st0" d="M1188.4,512.9l-3.2-7.4-1.9-4.3,10.9-6.3.2-.9c.4-1.7.6-3.6.6-5.8v-.2c0-8.3-3.1-16.8-15.5-16.8h-17.9v62.8h5.4v-23.9h0l5.6-3.1,6-3.3,1.4,3.3,1.4,3.2,10.3,23.8h5.9l-9.3-21.2h0ZM1167,476.2h9.8c7.8,0,12.4,2.2,12.4,11.9s0,2.3-.2,3.4l-18.9,10.4-3.1,1.7v-1.7h0v-25.7h0Z"/>
  <polygon class="st0" points="1318.6 387.1 1291.7 396.1 1291.7 364.8 1285.8 364.8 1285.8 428.1 1291.7 428.1 1291.7 403.1 1318.6 394.1 1318.6 428.1 1324.5 428.1 1324.5 364.8 1318.6 364.8 1318.6 387.1"/>
  <path class="st0" d="M992.6,426.7h-6.4l-5.4-22.2-21.7,7.5-4.2,14.7h-5.8l17.8-62.8h7.7l18,62.8h0ZM979.3,399.3l-8.6-30.7h0l-9.7,36.8,18.4-6.1Z"/>
  <g>
    <g>
      <g>
        <path class="st3" d="M77.7,426.9h-6.4l-5.4-19.9h-20.5l-5.3,19.9h-5.7l17.7-61.8h7.7s17.9,61.8,17.9,61.8ZM64.5,402l-8.5-32.2h0l-8.9,32.2h17.5Z"/>
        <path class="st3" d="M87.3,365.1h17.6c12.3,0,15.6,6.7,15.6,15.1s-4.9,13.1-10.7,14.5v.2c8.5,1.4,12.5,6.9,12.5,15.4,0,12.6-7.9,16.7-19.2,16.7h-15.8v-61.8h0ZM114.6,380.8c0-10.1-4.9-10.8-14.6-10.8h-7v22.8h8.1c5.8,0,13.5-2.2,13.5-12h0ZM116.2,410.1c0-11.1-7.3-12.3-15.8-12.3h-7.4v24.1h9.5c7.8,0,13.8-1.5,13.8-11.8h0Z"/>
        <path class="st3" d="M153.2,364c16.4,0,18.8,12.3,19.3,20.2l-5.4.5c-1.1-10-5-15.6-13.9-15.6s-17.9,7.9-17.9,26.6,6.1,27.3,16.8,27.3,13.1-4.1,14.9-13.8l5,1.1c-1.9,13.2-11.2,17.7-20.2,17.7-16.2,0-22.5-12.6-22.5-31.9s11.5-32,23.8-32h0Z"/>
        <path class="st3" d="M182.4,365.1h15.5c19,0,25.7,11.5,25.7,30s-8.4,31.9-26.9,31.9h-14.4v-61.8h0ZM217.7,396.3c0-20.4-6.7-26.3-20.2-26.3h-9.3v51.9h8.9c14,0,20.7-8.6,20.7-25.6h0Z"/>
        <path class="st3" d="M234.6,365.1h29.8v5h-24.1v23h22.6v5h-22.6v23.9h24.8v5h-30.6v-61.8h0Z"/>
        <path class="st3" d="M275.6,365.1h29.8v5h-24.1v24.1h22.3v5h-22.3v27.8h-5.7v-61.8h0Z"/>
        <path class="st3" d="M335.5,364c10.8,0,18,5.7,19,20.2l-5.4.5c-.9-11.6-5.5-15.8-13.8-15.8s-18,10-18,27.3,7.6,27,17.3,27,14.5-9,14.5-16.8v-6.4h-14.7v-5h20.1v32h-4.3l-.9-8.7c-1.8,5.2-8.4,9.7-15.8,9.7-15.6,0-22.2-12.8-22.2-31.3s9.3-32.7,24.2-32.7h0Z"/>
        <path class="st3" d="M367.2,365.1h5.7v27.6h26.2v-27.6h5.7v61.8h-5.7v-29.2h-26.2v29.2h-5.7v-61.8Z"/>
        <path class="st3" d="M419.2,365.1h5.7v61.8h-5.7v-61.8Z"/>
        <path class="st3" d="M447.2,423.1c4.5,0,8-1.4,8-10.8v-47.2h5.7v47.1c0,12.3-5.5,15.8-14,15.8s-12.5-4.4-12.9-13.1l5.4-.9c.5,5.6,1.9,9.2,7.8,9.2h0Z"/>
        <path class="st3" d="M474.6,365.1h5.7v31.3l24.5-31.3h6l-20.5,26.6,21.9,35.3h-6.4l-19.2-31-6.2,7.5v23.5h-5.7v-61.8h0Z"/>
        <path class="st3" d="M520.5,365.1h5.7v56.9h23.7v5h-29.4v-61.8h0Z"/>
        <path class="st3" d="M559.8,365.1h8.5l16.8,56.1,16.2-56.1h8.6v61.8h-5.4v-55.7l-16.1,55.7h-6.9l-16.7-55.8v55.8h-5.1v-61.8Z"/>
      </g>
      <g>
        <path class="st3" d="M39.2,473.3h8l25.7,54.6v-54.6h5.3v61.8h-7.3l-26.5-55.3v55.3h-5.3s0-61.8,0-61.8Z"/>
        <path class="st3" d="M89.2,504.1c0-18.9,8.4-31.9,24-31.9s22.6,13.5,22.6,30.7-7.9,33.3-23.6,33.3-23-13.1-23-32h0ZM112.5,531.1c10.5,0,17.3-8,17.3-27.4s-6.6-26.5-16.8-26.5-17.8,9-17.8,26.9,6.2,27,17.3,27h0Z"/>
      </g>
    </g>
    <g>
      <path class="st3" d="M147.3,535.1v-61.8h16.4c13.2,0,17.2,8.4,17.2,18.2,0,14.9-7.4,20.1-19.7,20.1h-8.3v23.6h-5.6ZM175,491.6c0-10.5-5.2-13.4-13.3-13.4h-8.7v28.3h7.9c7.9,0,14.1-1.9,14.1-14.9h0Z"/>
      <path class="st3" d="M188,504.1c0-18.5,8-31.9,24.1-31.9s22.5,13.8,22.5,30.7-2.3,19.7-6.9,25.5l6.7,8.7-3.8,3.2-6.2-8.5c-3.5,2.7-7.9,4.4-13.2,4.4-15.8,0-23.1-12.9-23.1-32h0ZM211.4,531.1c3.4,0,6.9-.9,9.6-3.2l-9.8-13,3.8-3.2,9.2,12.5c3-4.5,4.5-11.4,4.5-20.7,0-17.1-6.5-26.5-16.8-26.5s-17.9,9.7-17.9,26.9,6.7,27,17.4,27h0Z"/>
    </g>
    <g>
      <path class="st3" d="M275.9,535.1l-12-26.6h-13.5v26.6h-5.6v-61.8h18.5c12.9,0,16.1,8.4,16.1,16.6s-4.1,14.9-10.2,17.2l13,28.1h-6.1ZM273.4,489.9c0-9.6-4.8-11.7-12.8-11.7h-10.2v25.3h11c7.1,0,12-3.1,12-13.6h0Z"/>
      <path class="st3" d="M304.7,531.4c6.4,0,12.7-2.4,12.7-12,0-18.2-29-8.1-29-30.8s7.3-16.4,17.2-16.4,16.1,4.6,17.2,17.2l-5.3.7c-.9-6-3.1-12.9-12-12.9s-11.3,5-11.3,11.4c0,17.3,29,7.9,29,30.1s-9.1,17.5-18.6,17.5-17.2-6-18.7-17.2l5.5-.8c1.3,6.9,4,13.2,13.1,13.2h0Z"/>
    </g>
    <g>
      <path class="st3" d="M327.4,473.3h36.3v5h-15.1v56.9h-5.7v-56.9h-15.5v-5Z"/>
      <path class="st3" d="M371.5,473.3h5.7v42.5c0,11.6,4.2,15.4,13.2,15.4s13.3-4.5,13.3-15.4v-42.5h5.7v41.8c0,14-5.9,21.1-19.5,21.1s-18.5-4.5-18.5-20v-42.9Z"/>
      <path class="st3" d="M423.4,473.3l15.4,56.1,14.6-56.1h5.7l-16.5,61.8h-7.7l-17.7-61.8h6.2Z"/>
      <path class="st3" d="M467.1,473.3l9.2,55,11.9-55h6.8l11.5,55,9.2-55h5.5l-10.8,61.8h-7.7l-11.4-54.7-11.7,54.7h-7.3l-11.4-61.8h5.9Z"/>
      <path class="st3" d="M541,503.7l-16.7-30.4h6.6l13.8,25.5,13.9-25.5h6l-16.7,30,18,31.9h-6.8l-14.9-27.3-14.4,27.3h-6l17.2-31.4h0Z"/>
      <path class="st3" d="M573.2,473.3l14.3,31.4h.2l13.9-31.4h5.7l-17.1,37.9v23.9h-5.7v-24.1l-17.4-37.8h6.2Z"/>
    </g>
    <path class="st3" d="M613,531l28.5-52.8h-27.3v-5h33.5v4.3l-28.4,52.6h29.4v5h-35.6v-4.1Z"/>
    <g>
      <g>
        <path class="st3" d="M34.2,613.5c0-18.2,2.9-33.1,17.5-33.1s16.4,14.3,16.4,31.1-2.9,32.9-17.3,32.9-16.6-14.4-16.6-30.8ZM51.2,639.6c9.1,0,11.1-10.8,11.1-27.5s-2-26.7-10.8-26.7-11.4,9.9-11.4,27.5,2.7,26.7,11.1,26.7h0Z"/>
        <path class="st3" d="M88.4,581.5h3.1v61.8h-5.7v-53.2c-2.5,1.8-8.6,3-11,3l-.5-4.4c6.8-.7,10.9-2.7,14.2-7.2Z"/>
        <path class="st3" d="M119.3,580.4c8.2,0,14.1,4.4,14.1,15.1s-4.1,16.7-11.1,26.5l-11.7,16.4h0c0,0,23.6,0,23.6,0v4.9h-29.6v-4.6l12.8-18.3c7.6-10.8,10.5-16.1,10.5-24.6s-3.7-10.6-9-10.6c-7.5,0-9,5-9.8,11.1l-5.1-1c.9-7.9,4-15,15.3-15h0Z"/>
        <path class="st3" d="M155.7,639.4c5.6,0,10.3-3.8,10.3-13.4s-4.5-13-12.7-13h-3.4v-5h3.3c7.3,0,12.1-5.1,12.1-12.5s-2.1-10.2-8.6-10.2-8.5,5-9.5,9.3l-5.2-1.2c1.7-9.7,7.4-13.1,14.9-13.1s14.2,4.9,14.2,14.4-4.8,13.6-10.5,15.1v.2c6.8,1.3,11.4,6.1,11.4,15.9s-6.3,18.4-16.3,18.4-14-4-14.9-13.7l5.5-1c.9,5.5,2.1,9.7,9.6,9.7h0Z"/>
        <path class="st3" d="M202.2,627.4h-24.3v-4.1l22.5-41.8h7.3v41.1h6.1v4.8h-6.1v16h-5.4v-16h0ZM202.2,622.6v-35.3l-18.5,35.3h18.5Z"/>
        <path class="st3" d="M233.1,639.4c5.4,0,11.2-4.1,11.2-16s-3.2-14.5-9.3-14.5-7.8,2.1-10.5,5.3l-4.2-1.9,2.1-30.8h24.5v5h-19.9l-1.7,21.7c2.1-2,5.9-4,10.4-4,7.1,0,14.4,4,14.4,19.2s-6.3,21-17.4,21-13.5-4.1-15-13.8l5.1-1.4c.9,5,3.3,10.2,10.3,10.2h0Z"/>
      </g>
      <g>
        <path class="st3" d="M274.3,585.3c-10.2,0-12.7,15.8-12.9,27.9,2.8-3.9,7.3-7.4,13-7.4,9.3,0,13.7,7.8,13.7,17.8s-5.4,20.8-16,20.8-16.3-13.8-16.3-29.7,4.6-34.2,18.9-34.2,11.5,3.8,12.8,12.9l-5.3,1.4c-.9-7.1-3.7-9.4-7.9-9.4h0ZM272.4,639.5c5.6,0,10.1-4.6,10.1-15.4s-2.9-13.5-8.6-13.5-10,4.8-12.2,8c.2,9.6,1.7,20.8,10.8,20.8h0Z"/>
        <path class="st3" d="M294.1,581.5h32.5v4.3l-21.6,57.6h-5.8l21.6-56.9h-26.6v-5h0Z"/>
        <path class="st3" d="M363.9,628c0,9.6-6.6,16.3-16.9,16.3s-16.1-6.8-16.1-15.5,3.4-13.2,11.8-17.2c-5.5-2.7-10.1-8-10.1-15.8s5.8-15.5,15.7-15.5,14.7,6.2,14.7,14.1-4.5,13.2-10.9,16.8c6,3,11.9,6.8,11.9,16.7h0ZM336.6,628.6c0,6.2,3,10.9,10.8,10.9s10.9-6,10.9-11.5-4.7-11-11-13.9c-8.3,4.1-10.6,8.7-10.6,14.5h0ZM347.7,609.3c5.5-3.5,9.6-8.5,9.6-14.8s-3.2-9.7-9.2-9.7-9.9,6.8-9.9,10.6c0,7.1,4.6,11.5,9.5,13.8Z"/>
        <path class="st3" d="M384.6,639.4c9.7,0,12.2-10.1,12.3-27-2.2,3.7-7.1,7.3-13,7.3-8.5,0-13.7-6.6-13.7-18.1s5-21.3,16-21.3,16.3,9,16.3,29.7-3.1,34.2-18.2,34.2-13.1-3.7-14.3-12.9l5.2-1.4c1.2,7.2,4.7,9.3,9.3,9.3h0s0,0,0,0ZM384.6,614.9c5.2,0,9.2-3.7,12.1-8-.2-16.7-4.7-21.6-10.7-21.6s-10.2,4.6-10.2,15.6,1,14,8.7,14Z"/>
      </g>
    </g>
  </g>
  <path class="st2" d="M796.1,361.3l20.9,19.6-20.9,19.6M727.9,380.9h89.1"/>
  <path class="st5" d="M338.6,82.8h8.9l8.1,34.8h11c0,0,0,0,0,0h-10.6l-9.2-37.7-8.3,2.9h0ZM315.1,74.2l-2,7.4,22.5-7.5h-20.6ZM329.7,19.2l-.2.6,11.6,40-11.3-40.6h-.1ZM322.7,11.1l-29.9,106.7h9c0,0-8.6,0-8.6,0l30.1-106.6h-.5Z"/>
  <path class="st1" d="M213,45.9l20.2,19.1-20.2,19.1M188.4,65h44.7M469.8,45.9l20.2,19.1-20.2,19.1M445.2,65h44.7"/>
  <path class="st0" d="M311.3,82.8l-9.6,34.8h1.1l7.1-25,28.6-9.9h-27.2ZM344.4,71.3l-8.6,2.9h9.6s-4.2-14.4-4.2-14.4l3.2,11.5h0ZM329.2,19.1l-14.3,55.1h.3l14.4-54.4-.2-.7h-.2ZM335.9,11.1l30.7,106.6h.4l-30.5-106.6s-.5,0-.5,0Z"/>
  <path class="st4" d="M329.2,19.1h.1l.2.7.2-.6h.1l11.3,40.6,4.2,14.3h-9.6s-22.5,7.5-22.5,7.5l2-7.4h-.3l14.3-55.1h0ZM323.3,11.1l-30.1,106.6h8.6l9.6-34.8h27.2l8.3-2.9,9.2,37.7h10.6l-30.7-106.6h-12.6Z"/>
  <path class="st0" d="M597.8,19.2h.1l14.5,52.1-31.2,10.4,16.5-62.5h0ZM591.4,11.1l-30.1,106.6h9.7l7.1-25,36.8-12.7,9.2,37.7h10.9l-30.5-106.6s-13.1,0-13.1,0Z"/>
  <g>
    <path class="st3" d="M116.2,118.4h-11l-9.2-34.1h-35.1l-9.1,34.1h-9.8L72.4,12.5h13.2l30.7,105.8ZM93.6,75.7l-14.6-55.1h-.2l-15.2,55.1h30Z"/>
    <path class="st5" d="M1182,11.5h-.6v106.5h9.7c0,0-9.1,0-9.1,0V11.5h0ZM1216.9,11.6c17.4,1.9,21.9,15.2,21.9,28.3v.3c0,3.6-.4,6.8-1,9.8,0,.5-.2,1-.4,1.5l-12.3,7.1c-1.7,1.7-3.8,2.9-6.2,3.7l3.1,7.2,5.5,12.5,15.8,35.9h-10.1l-6.1-14.1,5.7,14.1h10.6l-20-48.4c10.6-4,17.6-13.5,17.6-29.6s-4.8-26.9-24.1-28.4M1207.9,19.9h-16.7c0,0,17.4,0,17.4,0,1.5,0,3,0,4.4.2-1.6-.2-3.3-.2-5.1-.2M1196.4,63.6h-5.2v2.9l5.2-2.9ZM1210.9,66.6l-10.1,5.6h-.1c0,0,12.7,0,12.7,0h0c0,0-2.4-5.7-2.4-5.7h0Z"/>
  </g>
  <path class="st1" d="M1095.6,45.6l20.2,19.1-20.2,19.1M1071,64.8h44.7M1352.4,45.6l20.2,19.1-20.2,19.1M1327.8,64.8h44.7"/>
  <g>
    <g>
      <path class="st0" d="M1216.9,11.6c-1.4-.2-2.9-.2-4.5-.2h-30.4c0,0,31.3,0,31.3,0,1.2,0,2.4,0,3.5.1Z"/>
      <path class="st0" d="M1227.4,82.1l-5.5-12.5-3.1-7.2c-2.6.9-5.5,1.2-8.7,1.2h-13.7l-5.2,2.9v-2.9h-.2.2c0,0,0,0,0,0V20h0c0,0,16.7,0,16.7,0,1.8,0,3.5,0,5.1.2h0c10.1,1,15.9,5.7,15.9,19.9s0,4-.3,5.7l-32,17.7h-.2c0,0,13.7,0,13.7,0,3.2,0,6.1-.4,8.7-1.2h0c0-.1,6.2-3.7,6.2-3.7,3.6-3.6,5.7-9.4,5.7-18.4h0c0,9-2.1,14.9-5.7,18.4l12.3-7.1c.1-.5.3-1,.4-1.5.7-2.9,1-6.2,1-9.8v-.3c0-13.1-4.4-26.4-21.9-28.3-1.1,0-2.3-.1-3.5-.1h-31.3v106.5h9.2v-40.5h0l9.4-5.2h.1c0,0,10.1-5.7,10.1-5.7l2.4,5.6h0c0,0,2.3,5.5,2.3,5.5l11.3,26.3h0l6.1,14.1h10.1l-15.8-35.9h0Z"/>
    </g>
    <path class="st0" d="M1495.6,82.1l-5.5-12.5-3.2-7.3,18.6-10.8c.1-.5.3-1,.4-1.5.7-2.9,1-6.2,1-9.8v-.3c0-14.1-5.2-28.6-26.3-28.6h-30.4v106.6h9.2v-40.5h0l9.6-5.3,10.1-5.6,2.4,5.6,2.4,5.5,17.4,40.3h10.1l-15.8-35.9h0ZM1459.4,19.9h16.7c13.2,0,21,3.7,21,20.2s0,4-.3,5.7l-32,17.7-5.3,2.9v-2.9h0V19.9Z"/>
    <path class="st3" d="M986.2,118.4l-20.6-45.5h-23.1v45.5h-9.7V12.5h31.7c22.1,0,27.5,14.3,27.5,28.4s-7,25.4-17.5,29.4l22.2,48.1h-10.5,0ZM981.8,41c0-16.4-8.2-20-21.9-20h-17.4v43.3h18.8c12.1,0,20.5-5.3,20.5-23.2h0Z"/>
  </g>
</svg>