<?xml version="1.0" encoding="UTF-8"?>
<svg id="Ebene_1" data-name="Ebene 1" xmlns="http://www.w3.org/2000/svg" viewBox="0 0 1552.04 666.57">
  <path d="M77.36,191.85c-49.44,0-68.65-38.68-68.65-94C8.71,33.04,36.63,0,79.66,0c31.25,0,52.77,16.91,55.58,59.68l-12.29,1.28c-3.33-37.91-18.44-49.95-44.06-49.95-35.09,0-57.12,30.48-57.12,85.81,0,67.62,25.1,84.27,57.63,84.27,15.88,0,32.53-4.61,43.8-11.27v-64.29h-48.15v-12.81h59.94v82.22c-16.65,11.27-35.86,16.91-57.63,16.91ZM233.7,191.85c-30.74,0-53.79-12.55-53.79-58.91V3.33h12.81v129.87c0,36.63,14.34,47.39,42.26,47.39,31.51,0,42.78-13.83,42.78-47.39V3.33h12.81v126.02c0,41.24-15.88,62.5-56.86,62.5ZM340.39,188.78V3.33h54.3c37.14,0,46.11,25.1,46.11,47.9,0,14.6-4.35,28.18-8.97,35.86-5.38,3.59-14.09,7.17-19.21,9.22l-6.66,2.82,43.29,89.65h-13.83l-41.5-85.04-40.98,15.88v69.16h-12.55ZM408.27,86.06c6.4-2.56,9.99-4.35,13.32-6.92,3.33-7.17,5.64-15.37,5.64-27.92,0-29.2-15.37-36.12-40.73-36.12h-33.55v91.96l55.33-21ZM541.22,191.85c-49.44,0-68.65-38.68-68.65-94,0-64.8,27.92-97.85,70.95-97.85,31.25,0,52.77,16.91,55.58,59.68l-12.29,1.28c-3.33-37.91-18.44-49.95-44.06-49.95-35.09,0-57.12,30.48-57.12,85.81,0,67.62,25.1,84.27,57.63,84.27,15.88,0,32.53-4.61,43.8-11.27v-64.29h-48.15v-12.81h59.94v82.22c-16.65,11.27-35.86,16.91-57.63,16.91ZM644.55,188.78V3.33h12.81v174.43h71.72v11.01h-84.53ZM757.28,188.78v-25.36h16.39v25.36h-16.39ZM185.67,426.14v-185.45h44.31c56.35,0,76.84,34.58,76.84,89.91,0,61.22-25.36,95.54-80.43,95.54h-40.73ZM227.93,414.35c43.8,0,65.57-26.64,65.57-79.66,0-64.04-21.77-82.22-64.55-82.22h-30.48v161.88h29.46ZM346.63,426.14v-185.45h12.81v185.45h-12.81ZM424.12,367.99l60.45-20.49-26.9-98.62-33.55,119.11ZM466.9,240.69l53.28,185.45h-14.6l-18.44-68.13-66.34,22.54-12.81,45.59h-12.55l53.53-185.45h17.93ZM563.4,426.14h-11.53l11.27-185.45h12.55l55.07,142.16,55.84-142.16h12.29l11.78,185.45h-12.29l-10.25-159.32-51.48,130.89,11.53,28.43h-13.06l-61.99-160.09-9.73,160.09ZM809.83,429.21c-48.15,0-67.62-40.98-67.62-96.31s24.59-95.54,70.44-95.54,66.6,40.21,66.6,91.7c0,62.24-25.1,100.15-69.41,100.15ZM810.86,417.43c32.79,0,55.07-24.08,55.07-85.81,0-54.05-21-82.48-53.53-82.48s-56.86,28.43-56.86,84.01,19.72,84.27,55.33,84.27ZM918.93,426.14v-185.45h12.04l89.39,99.13v-99.13h12.04v185.45h-12.04v-68.39l-89.39-99.13v167.52h-12.04ZM1083.14,426.14v-185.45h44.31c56.35,0,76.84,34.58,76.84,89.91,0,61.22-25.36,95.54-80.43,95.54h-40.73ZM1125.41,414.35c43.8,0,65.57-26.64,65.57-79.66,0-64.04-21.77-82.22-64.55-82.22h-30.48v161.88h29.46ZM1356.37,429.21c-48.15,0-67.62-40.98-67.62-96.31s24.59-95.54,70.44-95.54,66.6,40.21,66.6,91.7c0,62.24-25.1,100.15-69.41,100.15ZM1357.39,417.43c32.79,0,55.07-24.08,55.07-85.81,0-54.05-21-82.48-53.53-82.48s-56.86,28.43-56.86,84.01,19.72,84.27,55.33,84.27ZM1465.47,426.14v-185.45h86.58v11.27h-73.77v77.1h68.39v11.78h-68.39v85.3h-12.81ZM46.36,663.5v-174.43H0v-11.01h104.25v11.01h-45.08v174.43h-12.81ZM135.4,663.5v-185.45h12.81v96.05l83.5-28.69v-67.37h12.55v185.45h-12.55v-106.56l-83.5,28.69v77.87h-12.81ZM295.11,663.5v-185.45h86.58v11.27h-73.77v73.77h68.9v11.78h-68.9v77.35h75.56v11.27h-88.37ZM491.04,605.35l60.45-20.49-26.9-98.62-33.55,119.11ZM533.82,478.05l53.28,185.45h-14.6l-18.44-68.13-66.34,22.54-12.81,45.59h-12.55l53.53-185.45h17.93ZM623.41,663.5v-185.45h12.81v174.43h71.72v11.01h-84.53ZM757.14,663.5h-12.55v-185.45h47.9c38.42,0,49.95,25.1,49.95,52.25,0,18.7-3.84,32.27-9.99,40.73-12.29,6.4-19.72,9.22-26.64,11.78l-48.67,18.7v61.99ZM797.36,574.1c12.04-4.61,19.47-7.68,25.36-11.53,4.35-6.66,6.15-16.39,6.15-32.27,0-30.99-16.65-40.47-42.52-40.47h-29.2v99.38l40.21-15.11ZM874.54,614.32c4.1,21.26,14.09,40.98,39.96,40.98,20.24,0,39.96-7.43,39.96-43.54,0-9.22-1.28-20.49-4.1-24.85-1.79-1.28-4.1-2.56-10.25-4.87l-57.63-21.26c-3.84-1.54-5.38-2.56-6.4-3.33-5.64-8.97-8.71-20.75-8.71-33.3,0-30.22,20.24-49.44,49.69-49.44s46.36,14.34,50.2,50.97l-12.29,1.54c-3.33-18.19-9.22-40.73-38.17-40.73-26.64,0-35.86,15.88-35.86,37.4,0,8.45,1.28,17.42,4.35,23.31,2.31,1.54,5.64,2.56,7.94,3.59l55.07,21c9.22,3.59,12.04,5.12,14.09,6.66,3.07,4.61,5.89,18.19,5.89,31.76,0,43.54-26.64,56.35-53.53,56.35-33.04,0-48.15-19.72-53.02-50.2l12.81-2.05ZM998.78,663.5v-25.36h16.39v25.36h-16.39Z" fill="#fff" stroke-width="0"/>
</svg>