<?xml version="1.0" encoding="UTF-8"?>
<svg id="Ebene_1" xmlns="http://www.w3.org/2000/svg" xmlns:xlink="http://www.w3.org/1999/xlink" version="1.1" viewBox="0 0 1526 1680">
  <!-- Generator: Adobe Illustrator 29.5.0, SVG Export Plug-In . SVG Version: 2.1.0 Build 137)  -->
  <defs>
    <style>
      .st0 {
        fill: none;
      }

      .st1 {
        mask: url(#mask);
      }

      .st2 {
        fill: url(#Unbenannter_Verlauf);
      }

      .st3 {
        fill: url(#Unbenannter_Verlauf_2);
      }

      .st4 {
        fill: url(#Unbenannter_Verlauf_3);
      }

      .st5 {
        fill: url(#Unbenannter_Verlauf_6);
        fill-opacity: .5;
      }

      .st6 {
        fill: url(#Unbenannter_Verlauf_4);
        fill-opacity: .7;
      }

      .st7 {
        fill: url(#Unbenannter_Verlauf_5);
        fill-opacity: .2;
      }

      .st8 {
        fill: #e41d0c;
      }

      .st9 {
        clip-path: url(#clippath);
      }
    </style>
    <clipPath id="clippath">
      <rect class="st0" width="1526" height="1680"/>
    </clipPath>
    <mask id="mask" x="-50" y="28.06" width="1822" height="2202.19" maskUnits="userSpaceOnUse">
      <g id="mask0_3_224">
        <g id="Group">
          <g id="Group_2">
            <path id="Vector" class="st8" d="M1346.51,103.53l-55.23,65.3-181.65-140.77-1.23,1.58,181.58,140.72-163.13,192.87L974.3,30.94l-.32-.69-139.29,21.83,1.87-23.15-1.99-.16-1.91,23.63-219.62,34.42,54.07-57.28-1.45-1.37-55.85,59.16-150.64,23.61,11.09,124.22L27.65,704.02l-75.99-11.68-.3,1.98,74.63,11.47-75.21,79.66,1.45,1.37,76.15-80.67,478.13,73.48-256.99,169.44-298.13,34.95.23,1.99,294.19-34.48L-10.78,1120.7c-23.13-10.37-36.34-16.34-37.17-16.82l-.54.84h-1.01c0,.46,1.43,1.35,4.3,2.66,2.45,1.12,6.08,2.77,10.83,4.91,5.67,2.56,12.93,5.82,21.62,9.72l-36.3,23.92,1.1,1.67,37.35-24.63c5.28,2.37,11.04,4.95,17.29,7.74,33.54,15.01,82.86,37.03,146.58,65.44,25.48,11.36,53.34,23.78,83.54,37.23l-113.46,189.93-173.35-106.36,111.29,161.87-110.45,98.19,1.33,1.49,110.26-98.02,66.67,96.98,4.34,103.58,2-.08-4.21-100.39,69.43,101,1.65-1.13-71.24-103.62-6.3-150.38,259.43,144.91,14.51,4.67-48.58,104.56,1.81.84,48.69-104.78,2.3.74,297.75,104.56.66-1.89-297.77-104.57-2.09-.67,103.23-222.17c29.99,13.34,61.12,27.2,93.38,41.55,21.5,9.57,43.02,19.14,64.47,28.68,4.81,9.29,38.9,71.8,71.26,130.87,18.87,34.44,36.04,65.67,48.34,87.95,6.89,12.48,12.28,22.19,16.02,28.86,4.27,7.63,6.66,11.44,7.17,11.44v-1.1l.74-.57c-2.71-3.53-124.92-226.26-140.63-256.17,64.61,28.74,128.45,57.14,188.82,83.99l-19.7,172.75,1.99.23,19.63-172.1c45.19,20.1,88.41,39.32,128.53,57.16l-110.76,114.12,1.44,1.39,111.27-114.66c41.66,18.52,79.92,35.54,113.53,50.48l-154.42,62.56.75,1.85,156.2-63.29c86.19,38.33,141.01,62.7,142.34,63.28l.81-1.83c-2.59-1.15-56.33-25.04-140.57-62.49l181.3-73.45,173.77,137.64,1.24-1.57-173.69-137.57,27.15-82.69,208.8,216.32,1.44-1.39-209.53-217.08,113.32-345.14,95.18,235.05,1.85-.75-95.73-236.4,1.76-.25-.76-.41,93.54-35.75-.71-1.87-93.07,35.57,94.31-174.27-1.76-.95-94.49,174.62-150.53-450.88c10.53-5.85,64.79-35.34,117.41-63.94,31.82-17.29,64.06-34.82,88.35-48.04,12.14-6.61,22.3-12.15,29.42-16.05,7.81-4.28,11.72-6.64,11.72-7.08h-1.05l-.53-.81c-1.66,1.1-66.33,36.24-128.86,70.23-30.22,16.43-60.06,32.65-82.34,44.78-11.14,6.07-20.39,11.11-26.85,14.65-3.23,1.77-5.77,3.16-7.49,4.12-.2.11-.39.21-.56.31l-149.69-288.49,396.41-9-.04-2-395.8,8.98,162.77-192.44,232.44,180.13,1.22-1.58-232.37-180.08,55.11-65.16,79.15-75.32-1.38-1.45-79.19,75.36-.04.04h-.01ZM971.4,32.68l-155.39,250.4,18.53-228.95,136.86-21.45ZM461.34,112.62l146.24-22.92-135.47,143.51-10.77-120.59ZM610.81,89.19l221.7-34.75-18.8,232.35-294.44,474.46-46.91-525.39,138.46-146.68h-.01ZM891.1,1185.3l-328.13,45.81c11.21-11.89,71.02-74.59,129.04-135.41,33.69-35.31,67.57-70.82,93.01-97.53,12.72-13.35,23.34-24.5,30.77-32.32,3.72-3.91,6.64-6.99,8.63-9.09,1.16-1.23,1.93-2.05,2.44-2.62l81.02,83.94-16.79,147.22h0ZM909.69,1039.95l121.43,125.8-137.98,19.26,16.55-145.07h0ZM765.54,890.6l59.95,62.11c-6.13,6.61-71.56,75.19-134.93,141.61-32.92,34.51-65.67,68.83-90.18,94.55-26.59,27.9-35.96,37.73-39.26,41.34l-27.89-312.38,232.31-27.23ZM533.05,915.84l-11.96-133.96,249.43,38.33-5.54,68.44-231.93,27.19ZM828.22,952.66c7.12-7.68,67.39-70.46,101.5-105.96l-21.54,188.81-79.97-82.85h0ZM878.13,897.55c-13.05,13.6-26.09,27.21-35.86,37.44-4.89,5.11-8.96,9.38-11.8,12.38-1.78,1.87-2.91,3.07-3.62,3.86l-59.89-62.05,5.56-68.67,156.49,24.05c-5.62,5.85-28.24,29.39-50.87,52.98h-.01ZM772.67,818.52l18.39-227.18,333.38-223.6-194.01,475.03-157.76-24.25ZM520.09,770.67l-.54-6.09,293.79-473.41-24.2,299.05-269.05,180.45ZM518.19,771.94l-5.44,3.59,5.03-8.11.4,4.53h.01ZM30.04,704.4L470.49,237.83l46.99,526.27-8.62,13.89L30.03,704.4h.01ZM511.93,778.46l6.45-4.25.47,5.32-6.93-1.06h0ZM520.28,772.95l268.64-180.18-18.25,225.45-249.78-38.39-.61-6.89h0ZM519.04,781.58l12.01,134.51-110.08,12.9,88.9-148.82,9.16,1.41h0ZM506.38,782.12l-87.91,147.16-164.54,19.29,252.45-166.45ZM-8.62,1121.67l258.85-170.67,166.96-19.57-179.34,300.22c-109.2-48.65-198.2-88.35-246.47-109.98ZM239.69,1232.47l180.01-301.33,111.55-13.07,28.02,313.8-161.39,71.04c-55.55-24.73-108.9-48.48-158.18-70.44h0ZM558.33,1234.46c-6.12,13.15-37.19,78.83-54.6,115.56-34.99-15.57-69.59-30.97-103.39-46.02l157.99-69.54ZM238.66,1234.2c46.77,20.83,99.08,44.13,156.74,69.8l-269.23,118.51,112.49-188.31ZM128.94,1573.71l-65.01-94.56,58.85-52.32,6.16,146.88ZM62.79,1477.49l-105.8-153.9,165.04,101.25-59.23,52.66h0ZM399.56,1574.2l-14.47-4.64-259.15-144.77,271.93-119.7c33.25,14.8,68.27,30.39,105.02,46.74l-103.32,222.37h-.01ZM505.56,1350.83c41.5-87.61,52.11-110.2,54.83-116.14,33.25,60.86,93.35,171.04,100.8,185.39-51.79-23.04-104.11-46.32-155.63-69.24h0ZM664,1421.32c-.08-.16-.14-.29-.17-.36l-.05.02c-.31-.93-1.42-3-4.31-8.4-2.78-5.19-6.77-12.59-11.57-21.45-8.49-15.68-20.36-37.51-35.28-64.88-23.21-42.6-46.46-85.16-50.73-92.97l328.97-45.93-36.35,318.72c-60.82-27.05-125.22-55.69-190.52-84.74h.01ZM856.44,1506.92l36.48-319.86,139.93-19.53,168.91,174.99-215.54,222.11c-40.45-17.99-84.09-37.39-129.78-57.71ZM1313.53,1458.32l-27.55,83.92-183.19,74.22c-33.83-15.04-72.47-32.22-114.62-50.96l214.98-221.54,110.39,114.36h-.01ZM1314.24,1456.17l-109.7-113.65,222.19-228.96-112.49,342.61ZM1203.15,1341.08l-167.85-173.9.86-.12,390.12-55.91-223.12,229.93h-.01ZM1425.86,1109.19l-389.99,55.89-2.29.32-123.59-128.04,21.89-191.93,493.98,263.76ZM1276.94,657.36l150.34,450.32-494.12-263.83c12.24-6.63,91.64-49.61,171.03-92.64,43.17-23.39,86.33-46.79,118.69-64.36,16.18-8.79,29.67-16.12,39.1-21.26,4.72-2.57,8.43-4.6,10.95-5.98,2.24-1.23,3.37-1.85,3.93-2.27l.03.05s.02-.01.03-.02h.02ZM1276.18,655.51c-.16.1-.29.19-.4.26l-.02-.03c-3.4,2.17-311.89,169.2-342.73,185.9l193.67-474.2,149.47,288.07h.01ZM1125.34,364.71l-334.07,224.07,24.39-301.34,157.61-253.98,152.07,331.25Z"/>
          </g>
        </g>
      </g>
    </mask>
    <radialGradient id="Unbenannter_Verlauf" data-name="Unbenannter Verlauf" cx="734.35" cy="2767.3" fx="734.35" fy="2767.3" r="1" gradientTransform="translate(-296804.57 1168989.83) scale(405 -422)" gradientUnits="userSpaceOnUse">
      <stop offset="0" stop-color="#fff"/>
      <stop offset=".34" stop-color="#fff" stop-opacity=".47"/>
      <stop offset=".62" stop-color="#fff" stop-opacity="0"/>
    </radialGradient>
    <radialGradient id="Unbenannter_Verlauf_2" data-name="Unbenannter Verlauf 2" cx="734.35" cy="2767.3" fx="734.35" fy="2767.3" r="1" gradientTransform="translate(-296157.57 1168412.83) scale(405 -422)" gradientUnits="userSpaceOnUse">
      <stop offset="0" stop-color="#fff"/>
      <stop offset=".34" stop-color="#fff" stop-opacity=".47"/>
      <stop offset=".62" stop-color="#fff" stop-opacity="0"/>
    </radialGradient>
    <radialGradient id="Unbenannter_Verlauf_3" data-name="Unbenannter Verlauf 3" cx="733.66" cy="2767.85" fx="733.66" fy="2767.85" r="1" gradientTransform="translate(-347263.54 1373600.08) scale(475 -496.05)" gradientUnits="userSpaceOnUse">
      <stop offset="0" stop-color="#fff"/>
      <stop offset=".39" stop-color="#fff" stop-opacity=".47"/>
      <stop offset=".87" stop-color="#fff" stop-opacity="0"/>
    </radialGradient>
    <radialGradient id="Unbenannter_Verlauf_4" data-name="Unbenannter Verlauf 4" cx="731.08" cy="2767.39" fx="731.08" fy="2767.39" r="1" gradientTransform="translate(541699.33 1749894.72) rotate(-30.66) scale(583.33 -643.08)" gradientUnits="userSpaceOnUse">
      <stop offset="0" stop-color="#fff"/>
      <stop offset=".39" stop-color="#fff" stop-opacity=".47"/>
      <stop offset=".87" stop-color="#fff" stop-opacity="0"/>
    </radialGradient>
    <radialGradient id="Unbenannter_Verlauf_5" data-name="Unbenannter Verlauf 5" cx="730.71" cy="2764.92" fx="730.71" fy="2764.92" r="1" gradientTransform="translate(40870.13 1201720.39) rotate(-30.43) scale(784.44 -381.78)" gradientUnits="userSpaceOnUse">
      <stop offset="0" stop-color="#fff"/>
      <stop offset=".39" stop-color="#fff" stop-opacity=".47"/>
      <stop offset=".87" stop-color="#fff" stop-opacity="0"/>
    </radialGradient>
    <radialGradient id="Unbenannter_Verlauf_6" data-name="Unbenannter Verlauf 6" cx="735.28" cy="2765.83" fx="735.28" fy="2765.83" r="1" gradientTransform="translate(-247959.19 836531.39) scale(339 -301.89)" gradientUnits="userSpaceOnUse">
      <stop offset="0" stop-color="#fff"/>
      <stop offset=".39" stop-color="#fff" stop-opacity=".47"/>
      <stop offset=".87" stop-color="#fff" stop-opacity="0"/>
    </radialGradient>
  </defs>
  <g class="st9">
    <g id="Diamant_1_dÃ_xBC_nn">
      <g id="Mask_group">
        <g class="st1">
          <g>
            <ellipse id="Ellipse_5" class="st2" cx="609" cy="1189.52" rx="405" ry="422"/>
            <ellipse id="Ellipse_6" class="st3" cx="1256" cy="612.52" rx="405" ry="422"/>
            <path id="Ellipse_7" class="st4" d="M1297,94c262.34,0,475,245.35,475,548s-212.66,548-475,548-475-245.35-475-548S1034.66,94,1297,94Z"/>
            <path id="Ellipse_8" class="st6" d="M790.79,939.31c277.12-164.28,663.97-23.85,864.05,313.66,200.07,337.51,137.61,744.29-139.52,908.57-277.13,164.28-663.98,23.85-864.05-313.66-200.07-337.51-137.61-744.29,139.52-908.57Z"/>
            <path id="Ellipse_9" class="st7" d="M482.58,817.25c373.57-219.4,772.04-234.42,890-33.57,117.96,200.86-89.25,541.53-462.83,760.93-373.57,219.39-772.04,234.42-890,33.57-117.96-200.86,89.26-541.54,462.83-760.93Z"/>
            <path id="Ellipse_10" class="st5" d="M1353,1257.52c187.23,0,339,149.31,339,333.5s-151.77,333.5-339,333.5-339-149.31-339-333.5,151.78-333.5,339-333.5Z"/>
          </g>
        </g>
      </g>
    </g>
  </g>
</svg>