<?xml version="1.0" encoding="UTF-8"?>
<svg id="Ebene_1" data-name="Ebene 1" xmlns="http://www.w3.org/2000/svg" version="1.1" viewBox="0 0 1082 410.54">
  <defs>
    <style>
      .cls-1 {
        fill: #e5f4fe;
        stroke-width: 0px;
      }
    </style>
  </defs>
  <path class="cls-1" d="M889.61,187.31l-2.06-30.27c-.43-4.96-.51-11.79-3.87-20.14-1.68-4.17-4.49-8.38-7.38-11.44-2.91-3.14-5.95-5.52-8.76-7.44-5.74-3.91-10.15-5.96-15.06-8.65-4.77-2.7-9.8-4.74-14.71-7.12-39.99-17.54-82.75-24.58-124.18-27.78-20.79-1.64-41.4-2.3-61.77-2.73-20.38-.45-40.77-.69-61.17-.68-84.6.04-169.24,4.55-253.59,12.48-51.83,4.83-103.21,8.49-147.02,29.78-1.08.52-2.11,1.06-3.08,1.6l-1.42.82c-.4.27-.87.54-1.84.94-3.23,1.61-6.73,3.34-10.52,7.99-1.12,1.41-2.08,3.28-2.72,5.24-1.37-1.4-3.53.61-3.35,3.87,1.84,35.45,3.69,70.87,5.53,106.27l.65,13.4c.31,4.8.67,10.69,3.33,17.24,1.3,3.23,3.41,6.58,5.63,9.07,2.23,2.56,4.57,4.53,6.74,6.19,4.45,3.29,7.84,5.34,11.59,7.89l22.11,14.73,11.05,7.38c3.63,2.4,7.48,5.11,12.1,7.65,4.59,2.51,10.08,4.87,16.37,5.74,6.3.84,12.18.04,17.21-1.14,5.09-1.2,9.43-2.72,13.58-4.03l12.64-4.05,50.6-16.12,50.81-16.06c4.48-1.5,9.33-3.3,14.15-6.17,4.91-2.85,9.24-6.92,12.56-10.99,6.67-8.27,10.42-16.65,14.93-23.4,17.77-28.09,44.68-50.9,75.79-61.63,7.76-2.63,15.81-4.44,23.79-5.59,7.77-1.04,15.02-.47,19.15,2.21,4,2.2,7.62,8.97,11.5,17,3.77,7.7,7.23,15.55,10.35,23.53,3.12,7.98,5.92,16.09,8.36,24.31,1.25,4.12,2.33,8.19,3.44,12.43,1.16,4.36,2.4,9.46,5.27,14.93,2.67,5.53,8.25,11.01,13.2,13.79,5.06,3.02,9.53,4.67,13.47,6.41l24.47,10.49c32.61,14.04,65.25,28.1,97.91,42.17,4.48,1.93,9.45,1.09,13.01-1.76l.28-.23c12.23-9.84,24.52-19.72,36.82-29.61l47.35-37.96,11.85-9.47c3.86-3.12,8.34-6.54,12.88-11.24,4.47-4.56,9.15-11.1,11.5-18.66,2.33-7.37,2.58-14.25,2.47-20.16-.17-6.02-.63-10.86-.95-15.92l-1.04-15.13ZM183.56,137.74s.1-.08.14-.13c-.29.32-.27.27-.14.13ZM184.37,136.83s-.09-.07-.14-.12h.15s0,.01.05.04l-.07.08ZM850.9,226c-.39,1.37-.18.95-1.25,2.5-1.06,1.37-3.29,3.54-6.47,6.19l-10.82,8.92-76.23,62.88-8.85-3.69c-31.03-12.92-62.5-26.35-94.29-40.05l-11.41-4.96c-1.08-.49-1.8-.88-2.33-1.2-.11-.29-.3-.77-.56-1.63-.65-2.03-1.74-6.72-3-11.38-4.92-18.29-11.35-36.27-19.26-53.68-1.98-4.36-4.05-8.65-6.22-12.97-2.28-4.42-5.24-10.25-10.69-16.64-2.71-3.15-6.2-6.46-10.28-9.2-4.02-2.74-8.32-4.81-12.49-6.25-8.41-2.88-15.98-3.42-22.59-3.39-6.66.08-12.42.88-17.59,1.82-5.36.79-10.57,2.16-15.8,3.48-10.37,2.89-20.33,6.86-29.84,11.56-18.96,9.55-35.93,22.3-50.24,37.36-7.21,7.49-13.78,15.55-19.6,24.14-3.01,4.18-5.66,8.78-8.27,13.08-2.43,4.25-4.34,7.76-5.99,10.37-1.64,2.67-2.93,4.23-3.7,5.05-.42.43-.52.55-.99.9-.47.33-1.2.78-2.27,1.28-2.12,1.02-5.49,2.2-9.79,3.63l-12.55,4.25c-16.71,5.7-33.33,11.51-49.82,17.45-16.47,5.93-32.93,12.02-49.05,18.19-3.77,1.47-6.76,2.54-8.85,3.11-2.24.53-2.74.79-4.22.73-3.07.01-10.07-3.92-17.79-8.38-7.51-4.18-14.99-8.35-22.45-12.5-7.17-3.89-14.32-7.76-21.44-11.62-2.67-1.65-3.81-2.29-4.99-3.9-1.23-1.75-2.18-4.94-2.85-8.77-1.4-8.27-2.79-16.51-4.18-24.71-4.97-28.17-10.71-55.78-17.24-82.81.13.1.26.23.39.32,3.96,2.38,6.18,1.64,7.81,1.29,1.64-.5,2.73-1.29,3.74-2.21.55-.54,1.12-1.24,1.66-2.02.56,1.39,1.1,2.91,1.54,4.57.3,1.02.66,2.8.72,3.09-.12.22.54.31.95.44,7.23,1.92,16.24,2.37,26.53.61,148.39-24.7,299.24-35.71,449.7-33.99,37.36.47,73.99,2.48,108.53,9.93,17.26,3.69,33.81,9,49.35,15.96,3.93,1.66,7.7,3.59,11.44,5.57,3.95,1.95,7.4,3.98,8.47,4.91.04.01.06.04.1.05.23.89.61,3.84.93,8.3l4.65,56.13c.23,3.78.08,6.57-.23,7.89ZM1059.93,101.02l-.46-.07-3.19-.43c-35.37-4.75-72.21-5.98-105.86,11.74-3.34-13.91-9.97-28.13-19.93-39.61-20.55-23.68-49.39-34.39-74.72-40.44-24.77-6.27-49.86-11.38-74.99-15.5-25.29-4.12-49.94-7.36-75.64-10.1-25.96-2.42-51.21-3.19-76.38-3.86l-77.59-1.64C525.17.44,499.07,0,472.86,0c-52.39-.08-105.49,2.23-158.44,9.08-32.55,4.24-64.84,9.6-95.4,18.22-15.34,4.28-29.94,9.44-44.36,15.5-14.62,6.4-30.49,14.75-42.92,29.05-4.85,5.61-7.78,11.48-8.96,16.48-.66,2.46-.86,4.74-.76,6.76.02,1.09.15,2.08.36,3.01-30.9,2.48-61.68,3.01-92.45,2.2l-5.99-.17c-2.31,0-5.32-.16-9.43,1.22-2.03.72-4.34,1.99-6.21,3.85-1.87,1.84-3.21,4.12-3.96,6.15-1.47,4.1-1.4,7.18-1.44,9.58l.1,23.87c-.07,15.82-.39,31.68-.87,47.57-.49,17.94-1.66,35.83-2.02,54.48-.17,9.31-.12,18.76.4,28.36l.48,7.23.31,3.63c.23,1.22.21,4.48,3.17,10.21,1.5,2.83,4.27,6.3,7.87,8.74,3.53,2.46,7.35,3.69,10.13,4.2,5.68.97,8.58.34,9.78.4l6.74-.18c18.64-.51,37.21-1.63,55.83-2.34,10.54-.4,21.15,1.52,29.46-9.81,3.76,7,8,13.65,12.63,19.88,14.82,19.82,32.66,35.94,50.42,51.07l13.44,11.25c4.65,3.79,9.72,7.73,15.67,11.1,5.85,3.38,13.11,5.99,20,6.93,6.88,1,13.43.87,19.52.48,23.73-1.74,46.97-5.12,70.02-10.2,23.02-5.02,45.67-11.7,67.72-19.97,11.03-4.11,21.93-8.6,32.62-13.54,10.7-5.06,21.16-9.63,32.06-16.7,5.33-3.5,10.72-8.07,14.98-12.98,4.31-4.88,7.83-9.86,11.18-14.61,7.38-10.86,12.09-21.88,16.8-32.48,4.65-10.54,9.11-20.96,14.57-29.61,2.74-4.23,5.81-7.83,8.82-10.12.77-.42,1.5-.87,2.22-1.37.75-.28,1.47-.42,2.17-.74,1.33-.26,3.36-.45,3.86-.33.99.19,3.29,1.84,5.36,6.1,2.05,3.97,3.75,9.01,5.2,14.25,2.93,10.54,5.2,21.92,8.17,33.42,3.03,11.51,6.47,23.38,12.97,35.04,3.27,5.75,7.49,11.62,13.1,16.33,5.13,3.8,9.94,7.9,15.44,11.37,11.19,6.69,22.86,10.79,33.71,14.72l32.63,11.75,65.27,23.58c10.82,3.83,23.12,8.68,37.91,8.65,15.08-.07,28.53-6.43,39.12-13.26,10.81-7.07,19.56-14.39,28.81-21.35l27.58-21.18,29.73-22.8,14.87-11.39c4.93-3.81,9.9-7.47,15.24-11.9,1.33-1.11,2.66-2.26,4-3.47,2.46,4.83,5.55,7.97,8.72,7.32,34.43-6.98,69.13-12.48,103.89-17.67l6.52-.97,3.4-.51c1.42-.23,3.22-.53,5.56-1.16,2.28-.62,5.16-1.58,8.37-3.35,3.2-1.75,6.81-4.59,9.49-7.99,5.55-7.01,6.87-14.2,7.36-18.76.46-4.69.17-8.16.13-10.16l-.21-6.39-.25-12.78c-.23-17.05.03-34.09.63-51.11.56-16.54,3.29-33.6,5.99-50.75,2.24-14.26-7.49-27.63-21.75-29.88ZM951.26,193.54c.15-1.66.32-3.35.48-5.03,1.78.5,3.57,1.11,5.35,1.89,4.97,2.17,9.9,5.94,14.69,9.09.69.45,1.37.8,2.05,1.18-2.72-.15-5.44-.27-8.1-.15-4.14.18-8.6-4.67-12.82-2.58-.75.36-1.49.95-2.23,1.79l.59-6.19ZM94.56,201.44c-4.89-2.35-9.9-5.63-15.08-8.52,3.35-.76,7.4-.61,11.28-.1,4.93.64,9.89,1.73,14.81,2.06,2.18.15,4.3,1.6,6.42,2.79-.41,2.97-.8,5.96-1.15,8.98-5.49-.57-10.78-2.58-16.28-5.22ZM126.66,128.89c-1.18-5.89-2.8-11.52-4.89-16.82.89-.68,1.79-1.33,2.68-2.04.06-.05.15-.05.21,0l1.92,1.4c2.31,1.69,3.78,4.99,3.73,8.55-.03,2.76-1.01,6.05-3.64,8.91ZM65.43,259.82l-21.75,2.42c-1.15-11.56-1.68-23.45-2.01-35.64l-1.38-51.6c-.42-11.81-.08-23.98.29-36.31,26.18-.81,52.19-6.3,76.73-23.36,2.58,14.02,1.93,29.24.03,45.07-4.05-.91-8.02-2.47-12.07-4.38-5.76-2.7-11.58-6.76-17.8-9.91-3.23-1.63-6.55-2.59-10.14-3.85-2.14-.77-5.04-4.23-5.6,9.78-.16,5.52,1.05,16.01,2.36,25.07.86,5.95,1.71,11.23,2.31,14.15-3.07-1.53-6.17-2.52-9.33-3.78-1.99-.83-4.25-4.38-5.13,9.54-.66,11,2.06,42.19,3.3,41.8,9.7-2.98,19.63.72,29.24,1.49,4.23.33,8.12,5.72,12.66,4.22.69-.22,1.41-.62,2.15-1.2.06,1.26.08,2.51.17,3.78.16,2.26.46,4.53.74,6.8-14.89,2.19-29.81,4.16-44.76,5.91ZM911.56,177.47l-5.9,71.95c-.49,6.27-.92,11.32-1.65,14.18-.36,1.49-.67,2.24-1.19,3.3-.51,1.03-1.23,2.19-2.21,3.48-3.84,5.23-12.64,11.9-22.45,19.57l-56.86,44.6-28.35,22.26c-8.99,7.1-17.12,12.6-23.53,14.76-2.77.92-5.01,1.33-7.38,1.36-2.44.05-5.56-.38-9.24-1.29-3.68-.9-7.93-2.32-12.65-3.99l-14.81-5.29c-19.84-7.15-39.83-14.36-59.93-21.6-10.02-3.64-20.07-7.29-30.14-10.95-9.71-3.54-17.98-6.99-24.12-11.01l-9.35-7.29c-1.2-1.14-2.79-3.17-4.38-6.07-3.25-5.8-6.13-14.5-8.54-24.02-2.49-9.6-4.55-20.05-7.5-31.71-1.53-5.87-3.19-12.01-6.03-19.1-1.56-3.65-3.12-7.31-5.89-11.67-1.17-2.01-3.07-4.47-4.84-6.65-2.22-2.42-4.37-4.71-7.57-7.02-5.91-4.54-14.82-8.01-22.74-8.24-6.78-.02-12.91.52-18.92,2.85-11.95,4.25-20.22,12.04-25.24,18.31l-2.08,2.5-1.67,2.35-3.27,4.74c-1.72,2.95-3.71,6.1-5.15,8.92-3.09,5.78-5.69,11.34-8.02,16.56-4.71,10.43-8.78,20.34-12.92,27.9-3.1,5.9-10.43,16.05-14.31,19.87-3.61,3.78-10.46,7.87-20.01,12.55-9.19,4.67-18.59,8.91-28.04,13.01-37.94,16.12-77.88,27.37-118.39,33.72-5.06.82-10.14,1.52-15.22,2.15-5.18.7-9.89,1.22-13.74,1.4-8.15.13-10.64-.04-17.94-4.18-6.62-3.97-15.86-11.42-23.95-17.48-8.23-6.31-16.19-12.63-23.72-19.16-15.04-13.05-28.45-27.01-37.87-43.15-9.67-15.99-13.88-34.64-14.85-54.65-.67-14.13-.03-28.6.4-43,2.35-5.05,5.28-11.42,9.41-19.33.42-.81,1.34-4.13,1.13-4.08-3.97.98-7.27,1.7-10.28,2.1-.11-9.07-.69-18.06-2.03-26.65,5.55-2.73,8.86-7.03,10.61-11.62,1.75-4.65,2.08-10.56-.62-16.21,4.51-.65,9.25-1.79,14.42-3.12,5.91-1.67,13.08-4.09,23.18-8.37,4.67-1.96,9.73-3.76,15.08-5.49l16.72-5.08c11.18-3.5,22.54-6.32,33.85-9.33,22.69-5.74,45.64-10.33,68.75-14.14,46.25-7.49,93.26-10.99,140.71-12.14,47.51-1.36,95.15-.12,143.71.11,24.06.15,47.99.28,71.6,1.03,11.79.39,23.51.94,34.94,1.85,5.58.47,11.39,1.06,17.39,1.7l17.69,1.98c23.54,2.76,46.84,6.09,69.86,10.38,11.52,2.14,22.97,4.53,34.36,7.16,5.53,1.28,11.8,2.76,16.51,4.04,4.98,1.39,9.81,3.03,14.39,4.92,9.16,3.77,17.35,8.59,23.67,14.31,6.34,5.77,10.52,12.15,13.57,20.12,6.02,16.05,5.5,37.82,3.54,61.08ZM1033.08,255.64c-.06,1.08-.15,1.93-.29,2.25-.16.71-.61,0,.29-2.25ZM1036.54,196.82c-1.38,17.68-2.54,35.45-3.21,53.29l-26.16,1.95c-18.91,1.48-37.73,3.56-56.61,5.24-1.79.16-3.58.25-5.36.35.27-2.82.49-5.52.77-8.18l1.16-12.36c7.72-2.37,15.18-.83,23.17,1.99,5.8,2.06,11.88,5.44,18.08,7.94,3.21,1.29,6.39,1.94,9.65,2.92,1.98.63,4.49,3.94,3.85-9.99-.54-11-6.43-41.75-7.59-41.24-3.77,1.63-7.7,2.12-11.68,2.19.31-1.55.63-3.64.95-6.53,1.23-10.93,1.24-42.23-.17-41.92-9.68,2.18-19.4-.82-29.17-.69.1-5.23.04-10.54-.3-15.96,29.59-1.64,59.22-.89,88.64,1.7-2.35,19.65-4.46,39.39-6.03,59.3Z"/>
</svg>