<?xml version="1.0" encoding="UTF-8"?>
<svg id="uuid-d9f2ab73-8ac6-4290-a299-40a72225f96e" data-name="Ebene 2" xmlns="http://www.w3.org/2000/svg" viewBox="0 0 5442.52 3461.97">
  <defs>
    <style>
      .uuid-56c0c759-7c5f-41d9-9fb3-1335a1752e9d {
        fill: #fedcab;
      }

      .uuid-56c0c759-7c5f-41d9-9fb3-1335a1752e9d, .uuid-440ec4be-d425-418d-8f60-9aae92286ae1, .uuid-125523c5-0ef6-4f74-98cd-c9fe5fe4dd04 {
        stroke-width: 0px;
      }

      .uuid-440ec4be-d425-418d-8f60-9aae92286ae1 {
        fill: #cfe3f5;
      }

      .uuid-125523c5-0ef6-4f74-98cd-c9fe5fe4dd04 {
        fill: #cfe3f5;
      }
    </style>
  </defs>
  <g>
    <path class="uuid-125523c5-0ef6-4f74-98cd-c9fe5fe4dd04" d="M269.13,1180.57H20v-206.02h754.61v206.02h-245.55v661.18h-259.93v-661.18Z"/>
    <path class="uuid-125523c5-0ef6-4f74-98cd-c9fe5fe4dd04" d="M1486.12,1630.93v210.81h-622.85v-867.2h592.92v206.02h-332.99v135.34h280.28v197.64h-280.28v117.39h362.92Z"/>
    <path class="uuid-125523c5-0ef6-4f74-98cd-c9fe5fe4dd04" d="M1841.95,1206.91c0,52.71,56.28,69.47,173.67,82.65l259.93,15.58c189.25,17.96,310.23,85.05,310.23,252.73,0,209.62-173.69,304.25-511.46,304.25-289.88,0-507.88-29.94-516.26-294.66l237.15-31.14c9.6,75.46,22.78,138.94,286.28,138.94,208.42,0,249.15-27.55,249.15-80.25,0-41.93-27.55-64.68-111.41-73.07l-289.86-16.77c-201.22-21.56-342.57-79.06-342.57-265.92s155.72-286.27,500.68-286.27c310.21,0,476.71,40.73,483.91,263.52l-241.95,26.35c0-80.26-29.95-106.61-250.35-106.61-203.62,0-237.15,25.15-237.15,70.67Z"/>
    <path class="uuid-125523c5-0ef6-4f74-98cd-c9fe5fe4dd04" d="M2881.7,1180.57h-249.13v-206.02h754.61v206.02h-245.55v661.18h-259.93v-661.18Z"/>
    <path class="uuid-125523c5-0ef6-4f74-98cd-c9fe5fe4dd04" d="M269.13,2877.12v-867.2h588.12v206.02h-328.19v149.72h263.51v196.44h-263.51v315.02h-259.93Z"/>
    <path class="uuid-125523c5-0ef6-4f74-98cd-c9fe5fe4dd04" d="M2249.15,2666.31v210.81H938.75v-867.2h1280.45v206.02h-1008.54v135.34h872v197.64h-872v117.39h1038.49Z"/>
    <path class="uuid-125523c5-0ef6-4f74-98cd-c9fe5fe4dd04" d="M2576.23,2250.67c0,50.31,45.53,64.68,197.65,69.47l452.75,13.18c267.13,7.19,400.07,79.06,400.07,255.13,0,209.61-173.67,315.02-664.78,315.02-450.38,0-668.38-38.33-676.75-300.65l245.55-31.14c9.58,75.46,17.95,142.54,438.4,142.54,355.74,0,396.47-34.74,396.47-87.45,0-43.12-21.58-67.07-138.96-70.67l-513.84-17.96c-277.9-9.58-397.67-89.84-397.67-263.52,0-185.66,155.72-292.26,659.98-292.26,463.55,0,630.05,46.72,637.22,269.51l-247.93,26.35c0-80.26-26.35-110.2-397.67-110.2s-390.49,32.34-390.49,82.65Z"/>
    <path class="uuid-125523c5-0ef6-4f74-98cd-c9fe5fe4dd04" d="M3903.47,2215.94h-249.13v-206.02h754.61v206.02h-245.55v661.18h-259.93v-661.18Z"/>
  </g>
  <g>
    <path class="uuid-440ec4be-d425-418d-8f60-9aae92286ae1" d="M385.25,3170.02c-4.78,1.55-8.51,4.01-11.11,7.41-2.64,3.4-3.94,7.72-3.94,12.97,0,9.27,4.69,16.37,14.13,21.31,9.4,4.94,23.99,10.04,43.77,15.29l25.94,6.95c25.31,6.8,45.77,17.61,61.37,32.43,15.6,14.82,23.41,36.29,23.41,64.39,0,25.64-6.34,46.95-19.01,63.93-12.67,16.99-29.49,29.5-50.48,37.52-21.01,8.03-44.01,12.05-69.03,12.05-22.55,0-43.46-2.4-62.76-7.19-19.3-4.78-36.37-15.43-51.18-31.96-14.83-16.52-22.71-40.68-23.63-72.5l88.94-12.04c1.54,11.42,3.78,20.77,6.71,28.02,2.93,7.26,7.88,13.13,14.83,17.61,6.95,4.48,16.9,6.72,29.88,6.72,8.03,0,14.98-.93,20.84-2.78,5.87-1.86,10.43-4.94,13.67-9.27,3.24-4.33,4.86-9.73,4.86-16.21,0-7.41-2.79-13.35-8.34-17.84-5.55-4.47-13.58-8.11-24.09-10.89l-25.02-6.49c-1.23-.3-2.47-.61-3.7-.93-22.55-5.86-40.91-11.8-55.12-17.84-14.21-6.02-26.49-15.9-36.83-29.64-10.36-13.74-15.53-32.2-15.53-55.36s5.87-42.85,17.62-59.06c11.73-16.21,27.55-28.49,47.48-36.83,19.93-8.33,42.07-12.5,66.47-12.5s44.78,2.55,63,7.64c18.22,5.1,33.36,14.98,45.4,29.64,12.04,14.67,18.53,35.44,19.45,62.3l-90.79,10.19c0-10.19-1.47-18.14-4.4-23.86-2.93-5.71-7.26-9.72-12.98-12.04-5.72-2.31-13.36-3.47-22.93-3.47-6.47,0-12.12.78-16.9,2.32Z"/>
    <path class="uuid-440ec4be-d425-418d-8f60-9aae92286ae1" d="M778.53,3398.63c-25.96-30.41-38.92-72.03-38.92-124.84,0-33.98,6.32-64.23,18.99-90.8,12.67-26.55,31.73-47.48,57.21-62.76,25.48-15.29,56.9-22.93,94.27-22.93,54.66,0,94.8,15.67,120.43,47.02,25.64,31.34,38.46,72.34,38.46,122.99,0,55.9-13.82,99.37-41.46,130.4-27.64,31.03-69.56,46.56-125.76,46.56s-97.28-15.21-123.22-45.63ZM885.31,3068.8c-9.73,8.81-22.47,13.21-38.22,13.21s-29.11-4.4-39.15-13.21c-10.03-8.8-15.05-20.45-15.05-34.97s5.02-26.17,15.05-34.97c10.05-8.8,23.1-13.2,39.15-13.2s28.49,4.4,38.22,13.2c9.72,8.81,14.59,20.47,14.59,34.97s-4.88,26.18-14.59,34.97ZM938.12,3357.86c8.8-5.71,15.67-15.59,20.6-29.65,4.95-14.04,7.42-32.96,7.42-56.74s-2.09-41.69-6.27-55.59c-4.16-13.9-10.5-23.93-18.99-30.12-8.49-6.17-19.52-9.26-33.12-9.26-14.52,0-26.47,3.17-35.89,9.5-9.42,6.33-16.53,16.44-21.32,30.34-4.78,13.9-7.17,32.28-7.17,55.13,0,24.09,2.24,43.01,6.71,56.74,4.47,13.75,11.27,23.55,20.38,29.42,9.11,5.87,20.77,8.8,34.97,8.8,12.98,0,23.85-2.85,32.66-8.57ZM1006.67,3068.8c-9.73,8.81-22.64,13.21-38.68,13.21s-29.04-4.4-38.92-13.21c-9.9-8.8-14.83-20.45-14.83-34.97s4.93-26.17,14.83-34.97c9.88-8.8,22.84-13.2,38.92-13.2s28.94,4.4,38.68,13.2c9.73,8.81,14.59,20.47,14.59,34.97s-4.86,26.18-14.59,34.97Z"/>
    <path class="uuid-440ec4be-d425-418d-8f60-9aae92286ae1" d="M1506.03,3357.16v81.53h-237.18v-335.38h100.52v253.85h136.65Z"/>
    <path class="uuid-440ec4be-d425-418d-8f60-9aae92286ae1" d="M1704.52,3103.32h134.66c56.51,0,98.34,14.12,125.53,42.38,27.17,28.27,40.77,68.34,40.77,120.21s-14.52,95.59-43.55,126.47c-29.02,30.88-72.57,46.32-130.62,46.32h-126.77v-335.38ZM1873.91,3350.69c11.42-7.41,19.23-17.75,23.39-31.04,4.18-13.27,6.25-30.57,6.25-51.87,0-22.55-2.31-40.14-6.95-52.81-4.64-12.67-12.12-21.78-22.45-27.33-10.36-5.56-24.64-8.34-42.86-8.34h-26.25v182.51h19.3c21.61,0,38.13-3.71,49.57-11.12Z"/>
    <path class="uuid-440ec4be-d425-418d-8f60-9aae92286ae1" d="M2446.24,3357.16v81.53h-240.88v-335.38h229.29v79.67h-128.77v52.35h122.28v76.43h-122.28v45.39h140.36Z"/>
    <path class="uuid-440ec4be-d425-418d-8f60-9aae92286ae1" d="M2739.22,3242.29v196.41h-90.79v-335.38h114.88l93.12,200.11v-200.11h89.86v335.38h-112.57l-94.49-196.41Z"/>
  </g>
  <g>
    <path class="uuid-56c0c759-7c5f-41d9-9fb3-1335a1752e9d" d="M4643.72,918.17c-3.06,0-6.12-.07-9.18-.2-46.93-2.05-94.7-22.56-131.07-56.26-37.77-35-59.64-79.94-61.58-126.53-3.15-75.46,39.74-150.59,131.12-229.66,59.45-51.45,126.99-97.08,199.7-135.93-26.41-29.27-57.21-56.03-91.92-79.7-76.27-52-167.11-86.84-262.71-100.76-86.3-12.57-178.07-10.88-280.55,5.16-81.05,12.68-169,34.36-276.77,68.2-109.41,34.36-250.89,83.79-374.92,161.71-126.04,79.18-221.29,180.24-275.46,292.25l-15.08-7.29c55.54-114.85,152.93-218.29,281.63-299.14,125.65-78.94,268.45-128.84,378.81-163.51,108.59-34.1,197.31-55.96,279.2-68.77,104.16-16.3,197.57-18,285.56-5.19,98.1,14.28,191.37,50.07,269.73,103.5,37.07,25.28,69.85,54,97.78,85.51,174.19-89.92,376.45-141.32,567.9-141.32,23.86,0,47.5.8,70.95,2.42l-1.15,16.71c-207.44-14.33-434.11,36.66-626.53,135.24,30.36,36.81,54.28,77.12,70.93,119.87,17.5,44.96,26.68,93.34,26.55,139.9-.14,50.09-10.58,96.55-31.03,138.1-20.97,42.6-54.74,80.45-95.1,106.58-39.66,25.68-83.3,39.11-126.79,39.11ZM4783.96,382.53c-72.87,38.66-140.53,84.21-199.99,135.66-87.26,75.52-128.26,146.27-125.34,216.29,1.76,42.14,21.73,82.96,56.23,114.94,33.5,31.05,77.39,49.93,120.41,51.81,43.01,1.88,86.62-10.65,126.13-36.23,37.85-24.51,69.52-59.99,89.17-99.92,19.32-39.24,29.18-83.23,29.31-130.74.12-44.49-8.67-90.75-25.41-133.78-16.41-42.15-40.2-81.84-70.51-118.03Z"/>
    <path class="uuid-56c0c759-7c5f-41d9-9fb3-1335a1752e9d" d="M5179.02,444.68l-10.74-12.86c89.68-74.88,211.77-172.63,244.61-198.87-35.89-27.48-171.7-133.56-229.6-208.84l13.28-10.21c64.21,83.47,233.29,210.92,234.99,212.2l8.66,6.5-8.47,6.75c-1.48,1.18-148.89,118.64-252.72,205.34Z"/>
  </g>
</svg>