<?xml version="1.0" encoding="UTF-8"?>
<svg id="uuid-4b8418cf-be71-449b-9dc8-d199e9c9cd67" xmlns="http://www.w3.org/2000/svg" version="1.1" viewBox="0 0 1920 336.1">
  <defs>
    <style>
      .cls-1 {
        fill: #fedcab;
        stroke-width: 0px;
      }
    </style>
  </defs>
  <path class="cls-1" d="M1344.7,221.1l2-4.9,4-9.5c.7-1.6,1.6-3.7,1.7-6.9,0-1.6,0-3.3-.4-4.6s-1.1-2.6-1.6-3.6c-1.1-2-2.2-3.3-3.3-4.9s-2.2-2.9-3.6-4.4c-9.5-11.5-21.7-20.1-33.9-27.2-6.2-3.7-12.4-7-18.5-10.2-6.2-3.3-12.4-6.3-18.8-9.5-26.1-12.8-52.6-24.1-79.9-34.5-16.5-6.3-32.9-13.1-49.6-13.1h-2.2c-1.3,0-2.6,0-4.4.9-.4.3-1.1.7-1.6,1.1,0-.7-1.1-.3-1.6.7-4.9,11.1-9.5,22.3-14.4,33.3l-1.7,4.2c-.7,1.6-1.3,3.3-1.6,5.7,0,1.1,0,2.6.4,3.6.3,1.1.7,2,1.1,2.9.9,1.7,1.6,2.9,2.4,4.2l4.6,7.9,2.2,4c.7,1.3,1.6,2.6,2.6,4.2s2.4,3,4.2,4.2,3.7,1.7,5.6,2.2,3.3.7,4.9.9l4.4.7,17.9,2.6,18.1,2.6c1.6,0,3.3.4,5.3.3,2,0,4-.7,5.6-1.6,3.3-1.6,5.7-3.6,8.2-4.9,9.8-6,21.4-8.9,32.5-7.5,2.9.4,5.6,1.1,8.2,1.7,2.6.9,4.6,2.2,5.6,3.6s.9,4,.9,6.9,0,6-.4,8.9c-.3,2.9-.7,5.7-1.1,8.9-.3,1.6-.4,2.9-.9,4.4-.3,1.6-.7,3.3-.7,5.3s.9,4.6,2,6.2c1.1,1.7,2.2,2.9,3,4l6,6.9,23.7,27.6c1.1,1.3,2.6,1.7,4.2,1.3h0c5.3-1.1,10.6-2.4,15.7-3.6l20.4-4.4,5-1.1c1.7-.4,3.6-.7,5.7-1.6,2-.7,4.4-2,6.3-4,1.7-2,2.9-4,3.7-5.7s1.6-3.3,2.2-5l-.7.7h.4ZM1137.3,94.4h0ZM1137.7,94.4h0ZM1330.1,220.1c-.4,1.1-.9,2-1.3,2.4s0,.3-.7.7c-.4.3-1.6.7-2.9.9l-4.6,1.1-32.9,7.8-2.2-2.4c-7.5-8.6-15.2-17.5-23-26.6l-2.6-3.3c-.3-.3-.4-.7-.4-.7v-.7c0-.7.4-2.2.9-4,1.3-6.3,2-12.8,2.2-19.4v-4.9c0-1.7,0-4-.7-6.6-.4-1.3-.9-2.9-1.7-4.4-.9-1.6-1.7-2.6-2.9-3.7-2.2-2.2-4.4-3.6-6.3-4.4s-4-1.6-5.7-2.2-3.6-.9-5.3-1.3c-3.6-.7-7.3-.9-10.8-.9-7.3,0-14.4,1.3-21,4-3.3,1.1-6.6,2.6-9.8,4.4-1.6.9-3,1.7-4.4,2.6s-2.4,1.7-3.3,2.2c-.9.7-1.6.9-2,1.1h-1.3c-.9,0-2,0-3.6-.4l-4.4-.7c-6-.7-11.9-1.6-17.9-2.2-6-.7-11.9-1.3-17.7-1.7-1.3,0-2.4-.3-3-.4-.7,0-.9,0-1.3-.4-.9-.4-2.4-2.6-4.2-5.3-1.7-2.4-3.3-4.9-5-7.3-1.6-2.2-3.3-4.6-4.9-6.9-.7-.9-.9-1.3-.9-2s0-1.7.4-3l2.4-8.2c2.6-9.3,5-18.8,7.3-28h0c.9,1.3,1.7,1.6,2.2,1.6h1.6c.3,0,.4,0,.9-.4,0,.4,0,1.1-.3,1.6,0,.4,0,.9-.3,1.1v.3c2,1.7,4.6,3,7.9,4.2h0c49.3,14.8,97.3,34.3,143.2,57.5,11.5,5.7,22.3,11.9,31.9,19.4,4.6,3.7,9.1,7.9,12.8,12.4.9,1.1,1.7,2.2,2.6,3.3s1.7,2.4,1.7,2.9h0c0,.3-.4,1.3-.9,2.6l-7,17.9-.7.9h0v-.5Z"/>
  <path class="cls-1" d="M1411.9,215.6h0l-.9-.7c-10.2-6.9-21.2-12.8-34.3-12.4,1.1-4.9,1.1-10.2,0-15.2-2.6-10.4-9.9-18.1-16.8-23.7-6.6-5.7-13.8-11.1-20.6-16.1-7-5-14.1-9.8-21.7-14.5-7.5-4.6-15.2-8.6-22.7-12.8l-23.7-12.2c-7.9-4.2-15.9-8.2-23.9-12.2-16.1-7.9-32.7-15.2-50-21.2-10.6-3.6-21.4-6.9-32-8.9-5.3-1.1-10.6-1.6-15.9-2-5.6-.3-11.5,0-17.5,2.4-2.4,1.1-4.2,2.4-5.3,3.7-.7.7-.9,1.3-1.3,2,0,.4-.3.7-.4,1.1-9.9-4-19.4-8.3-28.7-13.2l-1.7-.9c-.7-.4-1.6-.9-3-1.1-.7,0-1.6,0-2.4.3s-1.6.7-2.2,1.3c-1.1,1.1-1.6,2-1.7,2.6l-3.6,7.3c-2.4,4.9-4.9,9.8-7.5,14.4-2.9,5.6-6,10.8-8.9,16.4-1.6,2.9-2.9,5.7-4.2,8.9l-.9,2.2-.4,1.1c0,.4-.7,1.3-.7,3.6s.4,2.6,1.1,4,1.7,2.2,2.4,2.9c1.6,1.1,2.6,1.3,2.9,1.6l2.2.9c5.7,2.6,11.8,5,17.5,7.8,3.3,1.6,6.2,3.7,10.6,1.3,0,2.6.4,5.3.9,7.9,1.6,8.3,4.6,15.9,7.8,23.3l2.4,5.6c.9,1.7,1.7,3.7,3,5.7s3,3.7,5,5c2,1.3,4,2.2,6,3,7.5,3,15.2,5.6,23,7.5,7.8,2,15.7,3.3,23.9,4,8.2.7,7.9.7,12.2.7s7.9.3,12.4-.3c2.2-.3,4.4-.9,6.6-1.7,2-.9,4-1.7,5.6-2.9,4-2.2,7-4.9,9.9-7.5,3-2.6,6-5,8.9-6.9,1.6-.9,2.9-1.6,4.2-1.7h1.6c.4,0,1.1.4,1.3.4s.7,1.1.7,2.6,0,3.3-.4,5c-.7,3.7-1.7,7.5-2.6,11.5s-1.6,8.2-1.3,12.8c0,2.2.4,4.6,1.6,7,1.1,2,1.7,4,3,5.7,2.4,3.7,5.3,6.9,8.2,9.5l8.2,8.6,16.5,17.1c2.6,2.9,5.7,6.2,10.4,8.3s9.8,2.4,13.9,1.7c4.4-.4,8.2-1.6,12.2-2.2l11.8-2.4,12.6-2.4,6.2-1.3c2-.4,4.2-.9,6.3-1.3.7,0,1.1-.3,1.7-.4,0,1.7.4,3.3,1.6,3.6h0c11.8,3,23.3,6.6,34.5,10.2l2.2.7,1.1.4c.4,0,1.1.4,1.7.4s1.7.3,3,.3,2.9-.4,4.2-1.1c2.6-1.3,4.2-3.3,5-4.6s1.3-2.4,1.6-3l.9-2,1.7-4c2.4-5.3,5-10.4,7.9-15.5,2.6-5,6.2-9.8,9.5-14.5,2.9-4,1.7-9.5-2.2-12.4l-.3,1.1h0ZM1364.6,227.5c.3-.4.7-.9.9-1.6l1.3,1.3c1.1,1.3,2.2,3.3,3,5,0,.3.3.4.4.7-.9-.4-1.6-.9-2.4-1.3-1.3-.7-2-2.6-3.6-2.6s-.7,0-.9,0l1.1-1.7v.3h.1ZM1123.6,77.1l.4.7c.4.9.4,2.2,0,3s-1.3,1.7-2.4,2.2c.4-2,.9-4,1.1-6h1.1-.3.1ZM1082.7,114.1l-7-2.4c1.3-3.7,3-7.5,4.9-11.2l7.3-16.1c1.6-3.7,3.6-7.3,5.6-11.1,8.2,3.7,17.1,6,27.2,4.4-1.3,4.6-3.7,9.3-6.9,13.9-1.1-.9-2-2-3-3-1.3-1.7-2.6-3.7-4-5.7-.7-1.1-1.6-1.7-2.6-2.6-.4-.4-.9-2-3.3,2.2-.9,1.7-2.2,5-3,7.9-.7,2-1.1,3.7-1.3,4.6-.7-.9-1.6-1.7-2.4-2.6-.4-.4-.7-2-3,2.2-1.7,3.3-5.7,13.2-5.3,13.2h0c3.3.7,6,3.3,8.9,4.9,1.3.7,1.6,2.9,3.3,3.3h.9c0,.4-.4.9-.4,1.3-.3.7-.4,1.3-.9,2.2-4.9-1.6-9.8-3.3-14.5-4.9l.3-.4h-.5ZM1100.4,100.6c-1.1-1.6-2.2-3-3.3-4.9,1.1.3,2.4.9,3.6,1.7,1.3.9,2.9,2,4.2,2.9.7.4,1.1,1.1,1.6,1.7-.7.9-1.1,1.7-1.7,2.6-1.6-1.1-2.9-2.4-4.2-4v-.3h-.1ZM1337.4,243.5c-2,1.1-5.7,1.7-9.9,2.6l-24.1,5-12.2,2.6c-3.7.9-7,1.3-9.5.9-1.1,0-1.7-.4-2.4-.7-.7-.4-1.7-.9-2.6-1.7s-2-2-3.3-3l-3.7-4c-5-5-9.9-10.4-15.1-15.7-2.4-2.6-5-5.3-7.5-7.9-2.4-2.6-4.4-4.9-5.7-7l-1.7-3.7c0-.4-.4-1.3-.4-2.4,0-2.2.3-5.3,1.1-8.6.7-3.3,1.6-6.9,2.4-10.8s.9-4.2,1.1-6.9v-4.4c0-.9-.3-1.7-.4-2.6-.3-1.1-.7-2.2-1.3-3.3-1.1-2.2-3.3-4.6-5.7-6-2-1.1-4-1.7-6.2-2-4.4-.4-7.9.7-10.6,1.7l-1.1.4-.9.4-1.7.9c-.9.7-2,1.3-2.9,2-1.7,1.3-3.6,2.6-4.9,4-3,2.4-5.7,4.9-8.2,6.6-1.7,1.3-5.6,3.3-7.3,4s-4.4.9-7.9.9-7,0-10.6-.3c-14.1-.7-28-3.3-41.4-7.5-1.7-.4-3.3-1.1-5-1.6-1.7-.7-3.3-1.1-4.4-1.6-2.4-1.1-3.3-1.6-4.9-4-1.6-2.2-3-6-4.6-9.1s-3-6.3-4.4-9.5c-2.6-6.2-4.6-12.6-5-19-.4-6.3.9-12.8,3.7-19,2-4.4,4.4-8.9,6.6-13.2,1.6-1.1,3.3-2.6,5.7-4.4.3,0,1.1-1.1.9-1.1-1.3-.3-2.4-.7-3.6-.9,1.3-2.9,2.4-5.6,3.3-8.3,2.2,0,3.7-.9,5-2s2.2-2.9,2.2-5h0c1.6.4,3,.9,4.9,1.1,2,.4,4.6.7,8.3.9h0c1.7,0,3.6.3,5.6.7l6,.9c4,.7,7.9,1.6,11.8,2.2,7.8,1.7,15.5,3.7,23.3,6,15.2,4.6,30.3,10.6,45.1,17.5,14.8,6.9,29.2,14.4,44,21.7,7.3,3.7,14.5,7.3,22,11.1,3.6,2,7,3.7,10.4,5.7,1.6,1.1,3.3,2,5,3l5,3.3c6.9,4.4,13.5,8.9,19.8,13.8,3.3,2.4,6.3,4.9,9.5,7.3,1.6,1.3,3.3,2.6,4.4,3.7,1.3,1.1,2.6,2.4,3.7,3.7,2.2,2.6,4,5.3,5,7.9s1.3,5.3,1.1,8.2c-.7,5.7-4,12.4-8.2,19.2l-12.6,21.2c-1.1,1.7-2,3.3-2.6,4.2-.4.4-.4.7-.9.9-.3.3-.7.4-1.1.7l-.3.4h-.1ZM1380.1,259.6l.4-.7c0,.4-.4.7-.4.7ZM1390.3,241.5c-3,5.3-6.2,10.4-9.1,15.9l-8.3-3.3c-6-2.4-12.2-4.6-18.1-6.9-.7,0-1.1-.4-1.7-.7.4-.9.9-1.6,1.6-2.4l2.2-3.6c2.6.4,4.9,2,6.9,4.2,1.6,1.6,2.9,3.6,4.4,5,.9.9,1.7,1.6,2.4,2.4.4.4.7,1.7,2.6-2.4,1.6-3.6,4.4-13.8,4-13.8h0c-1.3,0-2.6-.4-4-1.1.3-.4.7-1.1,1.3-1.7,2-3,6.9-12.8,6.2-12.8h0c-3.3-.9-5.7-3-8.9-4.6.9-1.6,1.6-3.3,2.2-4.9,9.3,4,18.4,8.6,27,13.9-3.7,5.7-7.3,11.5-10.8,17.2l.3-.7h-.1Z"/>
  <path class="cls-1" d="M252.2,263.6c.3,0,.7-.4,1.1-.9,1.3-1.3,2.2-3,2.4-4.4.4-2.9,0-4.4-.4-5.7h0c-6.9-15.1-14.4-29.4-23.3-43.4l-2.4-8.2c-.4-1.7-2.4-2.6-4.2-2.2h0c-.4-.9-1.1-1.6-1.6-2.4-3-4.4-6.3-8.9-9.5-12.8-3-4.2-6.2-8.2-8.6-12.2-1.3-2-2.4-4-3.3-6-.4-1.1-.9-2-1.3-2.9v-.9c-.9-1.3-1.6-2.4-2.4-3.6-2-2.2-4.9-3.6-7.8-3.6s-5.7.9-7.9,2.9c-.4.4-1.1,1.1-1.3,1.6,0,.3-.4.7-.4.9v.4c-.3,0-.7.9-.7.9l-1.7,3.3-3.7,6.9c-4.9,9.1-10.6,18.1-16.4,27.4-22-33.9-38.9-70.7-51.7-109-1.6-4.4-6.3-6.9-10.8-5.3-1.7.7-3.3,1.7-4.2,3l-9.5,13.5c-12.2,17.7-26.3,36.1-38.1,55.5-9.9,16.5-17.7,34.3-21,52.9,0-.4-.4-.9-.7-1.3-3.6-8.6-6.6-17.5-9.1-26.6-.7-2.2-1.1-4.4-1.7-6.9l-1.7-7c-.7-2.6-1.6-5.6-3-8.6-1.6-3-4-6.3-7.3-8.9-3.7-2.6-9.1-1.7-11.9,2v.3l-1.1,1.7c-9.8,14.5-20.1,30-27.6,46.4-7.5,16.4-12.8,33.3-11.5,52,0,.7,1.1.9,1.3.4,5.3-12.4,11.1-24.7,16.8-36.9,2,3.3,3.7,7.3,7,10.6.4.4.7.9,1.3,1.3s1.7,1.3,3.6,1.3,1.7-.3,2.4-.7,1.1-.7,1.3-1.1c.7-.7,1.1-1.3,1.3-1.6,1.1-1.7,2.4-3.3,3.6-5,.7-.9,1.3-2,2-3,.7,1.7,1.1,3.6,1.6,5,.4,2.2.9,4.4,1.3,6.6v.9c0,.4.3.9.4,1.3.3,1.1.7,2.4,2.2,4.4.7.9,1.7,1.7,3,2.4s2.6,1.1,4.2.9c1.6,0,2.9-.4,4-.9s2-1.1,2.6-1.6c1.3-1.1,2.2-2.2,2.9-3,.4-.4.7-.9.9-1.6l.7-.9,2-3.3c3.7,8.6,8.3,16.8,13.2,24.7,3.6,5.7,6.6,11.9,14.1,13.8,6,1.3,12.8-7,9.5-11.1h0c-10.2-12.4-18.8-26.3-25.4-40.9,8.9-17.2,18.5-34,28.7-50.4,1.6,2.4,3,5.6,4.4,8.6,1.3,2.6,2.4,5.6,4.2,8.3,1.6,2.9,3.7,5.6,6.6,7.8h0c1.1.9,2.4.9,3.6.4,3.7-2,6.2-5,7.9-8.2s2.9-6.2,4-9.3,2.4-6.3,3.7-9.5c1.6,2.9,2.9,5.6,4.4,8.3l4.4,8.6c1.6,2.9,3.3,6,5.7,9.1.4.4.7.7,1.1,1.3.4.4,1.3,1.3,2.6,2.2s4,1.6,6.2,1.3c2.4,0,4.4-1.6,5.7-2.4,2.4-2.2,3-3.7,3.7-5.3l1.1-2.6,2.6-6.2c3.6,7.3,7.3,14.4,11.2,21.4,2,3.7,4,7.3,6.2,10.6,1.1,1.7,2.4,3,4,4.4,0,0,.4.3.7.4-.9,1.6-1.7,3-2.6,4.6-9.1,16.5-16.4,33.9-17.5,53.3,0,.7,1.1,1.1,1.3.4,9.3-16.5,19-32.9,28.6-49.3h0c.7.3,1.3.9,2,1.7,1.3,2,2.9,5.3,4.4,8.2,3.3,5.7,6.9,11.2,10.8,16.5.3.4.7.9,1.3,1.3s1.6,1.1,2.6,1.3,2.4,0,3.3-.4,1.6-1.1,2-1.6c.9-1.1,1.3-2.2,1.7-3l.9-2.2c1.1-3,2.2-6,3.3-9.1s2-6.2,3-9.3v.4c1.3,2.9,3,5.7,5.3,8.3s2.4,2.6,3.7,3.7l1.1.9.4.4h.3l.4.4c1.1.7,2.4,1.6,4.6,1.7,1.3.3,3.3.4,5.6-.4,2.2-.7,4.2-2.9,4.9-4.2.9-1.3,1.1-2,1.1-2.2l.7-1.1,2.4-4.9.4-.7c2.4,4.6,4.6,9.5,6.9,14.1,1.3,3,2.4,6.2,4,9.1.9,1.3,1.7,2.6,2.9,4,.3.3.7.7.9.9l.4.4h.3s.3-.4.4-1.1c.3-.7.7-2.2,2.2-3.3.3,0,.4-.4.7-.4.4-.3,1.1-.4,1.7-.7,1.3-.4,2.9,0,3.6.7,1.3,1.1,1.1,1.7,1.1,2.2s-.3.9-.7,1.6c-.3.7-1.1,1.7-2.2,1.7s-.7,0-.9-.4v-3.6c0-.3-.3-.4-.7-.4s-.7-.3-1.3,0-1.3.7-1.7,1.3c-.9,1.1-1.1,2.2-1.1,2.9s0,1.7.3,2.6c0,.3.3.4.4.9,0,.3.4.4.7.9,0,0,.3.3.4.4.3,0,.4.4.7.4s.4.3.9.4c.4,0,.7,0,1.1.3,1.6.4,3.3,0,4.6-.7.5-.3,1.1-.5,1.3-.7l.4.9h0l.9.4ZM-4,203.7c-2.4-4-7.8-5-11.8-2.6-1.3.9-2.4,2-3,3.3h0c-.7,1.6-1.3,2.9-2.2,4.4-.7,1.1-1.1,2.2-2,3-.7-.7-1.3-1.6-2-2.2-1.1-1.3-2.6-2.6-4.4-4v-.4c7-13.9,14.8-27.4,23.7-40.2v.3c1.6,3.7,2.2,8.6,3.3,13.9,1.1,5,2.2,10.2,3.6,15.5,1.1,4.6,2.6,9.1,4,13.5-.3,0-.7-.3-.9-.4h0c-.9,2.4-1.7,4.9-2.9,7.3-1.6-4-3.6-7.8-5.7-11.2h.4ZM.4,230.4H.4ZM103.9,162.5l-9.1-14.8c-2.4-4-7.8-5.3-11.8-2.6-1.7,1.1-2.9,2.6-3.6,4.4v.4l-2.4,6.9c-1.6,4.9-3.6,9.8-5.6,14.4-.3.7-.7,1.3-.9,1.7-.9-1.1-1.7-2.2-2.9-3.6-2-2.4-4.4-4.9-7.3-7-1.1-.9-2.4-1.6-3.7-2,12.4-19.4,25.7-38.5,39.4-57,6.2,19.2,13.2,38.2,21.4,56.9l-2.6-1.7s-.3.4-.4.7h0c-1.6,4.4-3,9.1-4.6,13.5-2-3-4-6.6-6.2-9.9h.3ZM192.1,166.9h0c0-.4,0,0,0,0ZM201.2,206.6c-1.6-4.4-6.2-6.9-10.6-5.3-3,1.1-5,3.7-5.7,6.6h0c-.7,4.6-1.6,9.1-2.6,13.5-.9,4-2.2,7.9-3.7,12.2-1.7-2-3.6-4-5.6-6l-3.3-3c-1.3-1.1-2.6-2.2-4.4-3-1.1-.7-2.4-.9-3.6-1.1h0c.3,0,.7-.4.9-.7l.4-.4c.7-.7,1.1-1.6,1.3-2.4.4-1.3.4-2.6.4-3.7,8.2-13.9,16.4-27.6,24.6-41.5.4.9.7,1.7,1.1,2.6,2.4,5.3,5.7,10.2,8.9,14.8,3,4.6,6.2,8.9,9.1,13.2,2.2,3.3,4.2,6.3,6.2,9.8-1.1,2.6-2.2,5.6-3.3,8.2l-2,4.6c-1.1-1.3-2-2.6-2.9-4.2-2.2-4-3.7-8.6-5.6-13.8l.4-.3h0v-.3Z"/>
  <path class="cls-1" d="M220.9,111.9c2,0,4,.4,6,0,1.7,0,3.7,1.1,5.6,0,1.6-1.1,2.6-4.6.9-14.1,0-.3-.4-1.3-.4-1.3-2,3.6-5.3,3.6-8.2,2.4-.7-.3-1.3-.7-1.7-.9,0-1.7-.4-3.6-.9-5.3.4,0,.9-.4,1.3-.7.9-.4,2.6.4,3-.7.7-1.1,0-4.4-3.3-13.5,0-.3-.7-1.3-.7-1.3-.9,3.3-3,4.2-5.7,4.2.4-.7.9-1.3,1.1-2,.4-.7,2.2-.4,2-1.3,0-1.1-2.2-3.3-7.3-11.8,0-.3-.9-1.1-.9-1.1-.9,3.6-2.2,5.3-4.2,7.3-.7-.4-1.3-.7-2-.9-.9-.4-2-.7-3-.7-.3-1.7,0-3.6-.4-5.3-.4-2.2,5-5-9.8-5h.3c1.1,0,2.4,0,3.7-.3.3,0,1.6-.3,1.3-.3,0,0-.4-.3-.4-.4l-5.3-3.7c-1.6-1.1-3.7-.7-4.9.9s-.7,3.3.4,4.4c2.4,2.2,2.4,4.9,1.6,7.8-.4,1.1-1.1,2.4-1.7,3.7-2,.4-3.6,1.3-4.9,2.2-1.1.7-2,1.6-3,2.4-1.7-1.3-3.3-2.9-5.3-4-1.3-.7-2.2-2.9-4-2.9s-4.4,2.4-8.2,11.2c0,.3-.4,1.3-.4,1.3,3-2,5.6-.3,7,2.2.7,1.3,1.1,2.9,1.6,4.4v.3c-1.3-1.1-2.9-2-4.4-2.6-1.3-.4-2.4-2.6-4.2-2.2s-4,3.3-4.9,13.1v1.6c1.7-2.6,4.2-1.7,5,.4.7,1.1.9,2.6.9,4v.7c-.7-.4-1.3-.9-2-1.1-.9-.4-1.6-.4-2.4-.7-.4,0-1.6-1.1,0,3.3.7,1.7,2,5,3.3,7.9.7,1.6,1.1,2.6,1.6,3.7.4.9.7,1.6.7,1.6h0c.7-1.1,2.2-.3,3-.4.4,0,.9,1.6,1.3.9,0-.3.4-1.3.9-3,.7,1.1,1.3,2.2,2.2,3,0,.3.4.4.7.7-1.1.7-2.2,1.3-3.6,2-2,1.1-4.4,2-6.3,3.7-1.1.9-1.7,2-2.6,3-.4.7-2,1.3,2.4,2.9,1.7.7,5.3,1.3,8.3,2,1.6.3,2.9.4,4,.7,1.1,0,1.7.3,1.7,0h0c-.3-.9,0-1.7.9-2.4.7-.7,1.3-1.1,2-1.7s2.2.3,2.2-.7-.3-1.7-.9-4.4h.3c2,.9,4,1.3,6.2,1.7-.3.4-.7.9-.9,1.3-1.1,1.3-2.4,2.6-3.6,4-.7.7-.9,1.6-1.6,2.2-.3.4-1.6,1.1,3.3,1.3,1.7,0,5.6,0,8.6-.3,3,0,5.7-.4,5.7-.4h0c-.9-1.7.4-3.7.7-5.6v-.4c.3.4.4,1.1.7,1.6,1.3,2.6-2.9,8.9,15.2,1.7.3,0,1.3-.7,1.3-.7-3.7-1.3-4.9-4.2-5.3-7.5h0c1.6.7,3,1.6,4.6,2.2,3.7,1.6,5.6,9.3,15.9-7.3,0-.3.4-1.3.4-1.3-4.6.9-8.3-.9-11.9-3.6.3-.7.7-1.3.9-2.2v-.7l.4.4h.1ZM163.4,104.6c.4-.4.9-.9,1.6-1.6.4-.4.9-.9,1.3-1.6,0,1.6-.3,2.9,0,4.4-.4,0-.9-.4-1.3-.7-.4,0-.9-.4-1.1-.7h-.5ZM179.5,109.2c-.7-2-.4-5.7.4-9.8s1.1-4,1.7-6.2,1.3-4.4,2.2-6.6c.7-2.2,1.7-4.6,3-7,.7-.9,1.3-2,2.2-2.9h.3c1.1,0,3-.7,5-1.1-.4,1.3-.7,2.9-.9,4.2-.3,3,0,6,.9,6.2h0c4.2,1.3,7.9,4.2,10.2,7.9,2.2,3.7,2.9,8.3,2,12.8-.4,2.2-1.6,4.4-2.2,4.9-.7.7-2,1.6-4.2,2.2-4.4,1.3-9.5,1.6-13.9.4-2-.4-3.6-1.1-4.9-2.2-1.1-.9-1.6-1.7-2-2.9h.1Z"/>
  <path class="cls-1" d="M1698,239.5c1.3-1.3,2-3.3,2-4.6s0-2.4-.4-3l-.4-1.7c-.4-1.7-.7-3.7-.7-5.6,0-3.7.3-7.3,1.3-10.8,1.1-3.3-.9-6.9-4.2-7.9-.4,0-1.1-.3-1.6-.3h-1.7c-2.6,0-5.6-.4-8.2-.9s-5.3-1.1-7.8-1.7c-1.3-.4-2.6-.7-3.7-1.3-1.3-.4-2.4-.9-4-1.6-1.7-.7-3.7-1.7-6.3-2-2.4-.3-5.7.4-7.9,3.3-.7.9-.9,2-.9,3-7.8-2.4-15.1-5.6-22.3-9.1-7.9-4-15.2-8.2-22.7-13.2-3.7-2.4-7.8-4.9-11.9-7.3s-8.6-4.6-13.1-6.3c-8.9-3.7-18.1-6.3-27.2-8.3-7.9-1.7-15.9-3.6-24.1-5s-16.1-3-24.3-4c-13.8-1.6-27.4-1.3-40.9,3,0-.7,0-1.3-.3-2-.7-3-3.3-6-7.9-5h0c-2.2.4-4.4,1.1-7,2.4-2.4,1.3-4.9,3.7-6.2,6.3-1.6,2.6-1.7,4.9-2.2,6.6l-1.1,4.6c-1.3,6.2-2.6,12.6-3.7,19.2-2,13.1-2.9,26.7.3,40.9.4,1.1.7,3,2.6,5.3.9,1.1,2.2,2.2,3.3,2.6,1.1.7,2.2.9,2.9,1.1.7,0,1.3.3,1.6.4h1.1c0,.3,2.4.7,2.4.7,3,.7,6.3,1.3,9.5,1.7,6.3,1.1,12.8,2,19.2,2.9,12.8,1.6,25.7,2.6,38.7,2.9,11.1.4,22.6.7,34.3.7s11.8,0,17.5-.4c2.9,0,5.7-.4,8.9-.7,2.9-.3,5.7-.7,8.6-1.1,11.5-1.6,23-3.6,33.9-6.9,10.2-3.3,19.2-7.3,30-9.8v5.6c0,.4,0,1.1.3,1.7,0,.7.7,1.7,1.6,2.6.9.7,1.7,1.1,2.4,1.1h1.1l2,.4c5.3.9,10.6,2,15.9,3,2.6.7,5.6,1.3,8.6,1.6s6.6,0,10.2-1.6c.7-.4,1.3-.7,2.6-1.7h.4v.3ZM1689.4,229.4h0ZM1607.2,208.6h0c1.1.9,1.7,2.6,1.7,3.7s-.7,2.4-1.6,3c-1.3,1.3-3.3,0-3.3-.7s-.4-1.1-.4-2,0-1.6.3-2h0c0-.7,1.1-2,2.4-4,.7-.9,1.7-1.7,3.3-2.6-1.7,2.2-2.9,3.7-2.6,4l.3.4h0ZM1451.5,221.4h0c-.3,0,0,0,0,0ZM1508.5,230.8c-13.1-1.1-25.9-2.9-38.5-5.3-5.7-1.1-11.2-2.4-16.8-3.7l-.4-2.6c-.3-2.9-.4-6-.4-8.9,0-12.4,2.6-25.3,6.2-38.1.4-2,1.1-4,1.6-6,.3-.9.4-1.6.7-1.7,0-.3,0,0,0,0-.4.3-.7,0,0-.9.7-.7,1.7-1.7,3.3-3,.4-.4,1.1-.9,1.3-1.6,15.2,1.3,30.3,3,45.4,5.6,17.2,2.6,34.3,5.3,50.6,10.4,8.9,2.6,17.1,6.2,24.7,10.8,4,2.4,7.8,5,11.8,7.8,0,.3,0,.7-.3.9-.7,1.7-1.7,3.7-2.6,5.3-.4.9-.9,1.6-1.3,2.2,0,.3-.9.4.7.9-1.1,1.3-2,2.9-2.4,4.4-.7,2.2-.7,4.2-.7,6s.3,3.7.9,5.7c.3,1.1.7,2.2,1.3,3.3h0c-.3,0-1.3.7-1.3.7,3,.4,3,2.6,1.7,4.4-.7.9-2,1.7-3,2.4-.4.3-.7.4-1.1.7-2.6.3-5.6.7-8.2.9-24.1,2-48.4,2-72.5,0l-.4-.4h-.4ZM1623.4,226v-.4c-.3-.9,1.1-2.4,0-3h-1.1v-.3c1.6-2.4,2.6-5.3,3-8.3v-2.4c3.3,1.7,6.3,3.3,9.8,5,5.6,2.6,10.8,5.7,17.2,3.6v4.9c-10.4-1.1-20.1,0-29.4,1.6l.4-.4v-.3ZM1675,227.7h-.9c1.3-1.6,2.6-4,4.6-7.8,1.7.3,3.6.4,5.3.4,0,3,.4,6.3,1.1,9.5v.3c-.9,0-2-.3-2.9-.4-2.4-.7-4.9-1.1-7-1.7l-.3-.3h.1Z"/>
  <path class="cls-1" d="M1549.3,185.3c-2.2-1.7-6-3.3-10.8-3-.3,0-1.3.4-1.3.4,2.2,2.4,2.9,6,2.6,9.3,0,3.6-1.3,7-2.6,10.6-1.6,4-3.3,7.8-5,11.5-.9,2-1.6,4-2.4,6-.4,1.3-2,2.2,2.6,4.2,3.6,1.6,14.1,2.6,14.1,1.7h0c.4-7.9,2.9-15.5,4.2-23.3.4-3.3,2.9-7,2.4-11.5s-1.3-4.4-3.6-6.3l-.3.4h0Z"/>
  <path class="cls-1" d="M1479.6,171.4l-1.7-1.7c-.7-.4-1.3-1.6-2.2-2-.9-.7-2-1.1-3-.9-.4,0-1.1.4-1.1.9s0,1.3.4,1.7c.3.3.3,1.6,0,1.6-.9,0-2-.7-2.4-1.1h0v8.6c-.3,4.6-1.1,9.3-2,13.8-1.1,4.9-2.6,9.9-4.2,14.8-.7,2.6-1.1,5-1.7,7.8,0,.7-.7,1.6-.4,2.2,0,0,.4-.3,1.1-.7s1.7-1.1,3.6-1.1,2.6,1.1,3,2.4c.7,1.3.9,3,1.6,4.6.7,1.3,2,2.6,3.6,2.6s3.3-1.1,4-2.4h0c.4-1.1.7-2.2.7-2.9v-7c0-2.4.4-4.9.7-7.3.4-4.9,1.1-9.5,1.3-14.4.3-4.2,2.2-8.3,1.7-12.8,0-2.2-1.1-4.4-3-6.6h.4v-.3Z"/>
  <path class="cls-1" d="M1469.1,168.7h0c0-.3-.4-.4-.4,0s0,.7.7,1.1h0v-1.1h-.3Z"/>
  <path class="cls-1" d="M1531,213.6c2.6-7.8,4.2-15.7,4.6-23.9.4-4.6,1.1-9.8-3.3-13.2.3-1.3,0-2.6-.3-3.3-.4-1.1-1.1-1.7-1.6-2.2-.9-.9-1.7-1.3-2.6-1.7s-1.7-.7-2.9-.7h-15.5c-6.3,0-12.6.3-19,.4h0c-1.7,0-3,1.3-3.3,2.9-1.7,13.9-3.3,27.6-3.7,42.1,0,1.1,0,2.4.4,4s1.7,3.6,3.3,4.6c1.7,1.1,3.3,1.6,4.6,1.7h14.1l10.6.4h3.6c.4,0,1.3,0,2.4-.4s2.9-1.3,4-2.6,1.3-2.2,1.6-2.6c.9-2,1.6-3.7,2.2-5.6l.7.3h.1ZM1522.9,175.4c-3,.9-5.6,2.4-5,4.2h0c.9,6.2,1.1,12.4.4,18.5-.4,3-.9,6.2-1.7,9.1-.3.9-.4,1.7-.7,2.6l-16.8.7h-1.7v-3c0-8.6,1.6-17.5,2.6-26.3,3.6-.4,6.9-1.1,10.4-2.2,3-.9,6.2-2,9.3-3.6,1.6-.7,3-1.6,4.6-2.4.7-.4,1.7-.9,3-.9s1.3,0,2.2.9l.7.7c0,.4.4.7.4,1.3v.4c-2.2-.9-5.3-.7-7.9,0h.3-.1Z"/>
  <path class="cls-1" d="M1724.3,179.6c3.7-3.6,11.8-3.7,7.3-15.5l-1.3-3.7s-.3-.4-.4-.3c0,0-.3,0-.3.4v2.6l-2.4-4c-2.9,5.3-7.5,8.9-12.8,11.8-3,1.7-6.6,3-9.9,4.6-1.7.9-3.3,1.7-4.9,2.6-1.1.4-2.6.3,0,4.4,2,3.3,9.3,11.1,9.9,10.4h0c4.4-5.3,10.4-9.1,15.5-13.8l-.7.3h0Z"/>
  <path class="cls-1" d="M1722.8,216.2h0c4.6-3.7,11.2-4.9,17.9-7.8,2.9-1.1,6.9-1.1,9.8-3.3,2.9-2.2,4.6-7.3.4-16.4,0-.3-.9-1.1-.9-1.1-1.3,2.9-3.7,5-6.3,6.3s-6,2.2-9.3,2.9c-3.6.7-7.5.7-11.5,1.3-2,.3-4,.9-6.2,1.6-1.3.4-3,0-1.7,4.6,1.1,3.6,7.5,12.4,7.9,11.9v-.3h0Z"/>
  <path class="cls-1" d="M1760.2,228.4h0c-6.6,0-13.1-2.2-19.4-3.6-2.6-.4-5.3-2.6-8.3-2.6s-6.3,2.4-11.5,11.1c0,.3-.4,1.6-.4,1.3,7-.9,13.1.9,19.2,3.6,3.3,1.3,6.6,3.3,9.8,4.9,1.7.9,3.3,1.6,5,2.2,1.1.4,2,1.7,3.6-2.6,1.3-3.6,2.6-14.1,1.6-14.4l.7.3h-.1Z"/>
  <path class="cls-1" d="M1748.1,270.4c-4.9-4.4-8.6-9.9-13.5-14.5-2-2-3-5.3-6-6.9-2.6-1.6-7-1.1-15.1,4.9-.3,0-.9,1.1-.9,1.1,6.3,1.7,10.6,6.2,13.8,11.5,1.7,2.9,3,6.2,4.4,9.1.7,1.6,1.6,3,2.2,4.6.4.9,0,2.4,4.4,0,3.3-2,11.2-9.1,10.6-9.8h.1Z"/>
  <path class="cls-1" d="M1691.4,264.2c-.3,0-1.3.4-1.3.4,4.4,3.6,6,8.3,6.3,13.5.3,2.9,0,5.7,0,8.9s.3,2.9.4,4.4c0,.9-.7,2.2,3.7.9,3.7-1.1,13.2-5.7,12.8-6.2h0c-2.6-4.4-3.6-9.5-5.6-14.1-1.7-4,2.6-11.1-16.8-7.8h.4Z"/>
  <path class="cls-1" d="M1983.4,137.8c-.7-2.2-2-5-4.4-7s-4.9-2.9-6.9-3.3-3.3-.4-4.4-.7h-3.6c-2.4-.4-5-.7-7.8-.7-5.3,0-11.2.7-17.1,3.3-4.6,2.2-8.3,5-11.8,7.8-2.4,2.2-5,4.4-7.5,6.6,2.2-17.5,3-35.2,2.4-52.6-.3-6.3-.9-12.8-1.6-19.2-.4-3-.9-6.2-1.3-9.5-.4-3-.9-6.3-2.2-9.9-.7-1.7-1.3-3.6-2.4-5s-2.6-3-4-4c-3-2.2-6.6-2.9-9.9-2.6-4,.4-7.3,2.6-9.1,5.3-.4-3.3-1.3-6.6-2.6-9.9-1.1-2.6-2.6-5.3-4.9-7.5-2.2-2.4-5-4.4-7.8-5.6-2.6-1.3-6.6-2.2-9.8-2-1.6,0-2.9,0-4.2.4-.7,0-1.1,0-2,.4-.9,0-1.7.4-2.6.7-1.7.7-3.7,1.7-4.6,2.6l-1.3,1.1-.7.4-.9.9c-2.4,2.2-4.2,5-5.3,7.9v.4c-2.6-.4-5.3-1.1-8.3-1.1s-5.7.4-8.6,1.3-5.7,2.6-8.2,5.3c-2,2.2-4,4.9-5,7.5s-1.7,4.9-1.7,7h-9.8c-2.2.3-4.9.7-7.3,2s-5.3,3.3-7,5.7-2.6,5-3.3,7.3c-.4,2.2-.9,4.4-1.1,6.2-2.6,27.6-3,55.7-.4,83.3,1.1,11.9,2.2,24.3,4.9,37.4,1.3,6.3,3.3,12.8,6,19.2.7,1.6,1.3,3,2.2,4.6.7,1.6,1.6,3,2.2,4.2s.9,2,1.1,2.6c0,.7.3.7.3,1.3,0,1.1-.4,3.7-1.3,6.9-.7,3-1.6,6-2.2,9.1-1.3,6-2.4,12.2-3,18.1-1.1,9.8-1.3,19.7-.4,29.4-1.1-2.2-2.4-4.6-4-7-.3-.4-1.6-.4-1.6,0-.4,7.3-.4,14.8,0,22h0c0,2.2,1.7,3.6,3.3,3.6,18.5.9,36.9,2,55.5,2.6,13.9.3,27.9.7,41.8,0,7.3-.4,14.4-1.1,21.7-2,2.4-.3,5-.3,7.3-1.1l2.4-.9c4.2-1.6,6.2-6.2,5-10.2-.9-3.3-3.3-6-6-6.9,0-1.1-.4-2-.7-3h0l-7.3-19.7-3.7-9.8c-1.1-3-2-6-2.4-8.3-.7-4.6.9-10.6,3.3-16.1s5.7-11.1,9.8-16.4,8.3-10.4,13.1-15.5,9.3-10.2,14.1-14.8c9.5-9.3,19.8-17.1,31.3-20.1,3.6-.9,6-4,6.2-7.3h0c.4-4.9.4-9.9.4-14.8v-3.7c0-1.6-.3-3-.9-5.3l.7-.9h-.1ZM1814.3,72.7h-.3q0,0,0,0h.3ZM1841.6,301.1c-7.8,0-15.7-.7-23.9-1.3-6.9-.4-13.5-.7-20.4,0,0-.4-.3-.7-.4-1.1,2.6-12.4,5.6-24.6,8.9-36.8,1.1-4.4,2.4-8.9,3.7-13.2.7.9,1.7,2,3.7,2.2,1.1,0,2,0,2.9-.3.9-.4,1.6-.9,2-1.3.9-.9,1.1-1.3,1.3-1.7l.9-1.3,1.7-2.4.4-.7c.7.7,1.3,1.6,2.2,2.2,1.1.7,2,1.3,3.3,1.6,1.1.3,2.4.4,4,0,1.3-.3,2.9-1.1,3.7-2,1.6-1.7,2.2-3.3,2.9-4.2,0,0,.4.4.9.7l1.6,1.6,3,3c.4.7,1.3,1.3,2.4,2.2.7.4,1.3.9,2.2,1.1s2,.4,2.9.3c.9,0,1.7-.4,2.6-.7.7-.4,1.6-.9,2-1.6,1.1-1.1,1.6-2,2.2-2.9,0-.3.3-.4.4-.7v.7c.7.7.9,1.3,1.6,2.4s2,2.6,4.2,3.7,4.9,1.1,6.9.7,3.3-1.3,4.6-2.2c.3,0,.4-.4.7-.4h.3c.4.7,1.3,1.6,2.4,2.2s2.6,1.6,5.3,1.7c1.1,0,2.6,0,4.2-.4,0,2.2.7,4.4,1.1,6.3.7,2.9,1.6,5.6,2.4,7.9,3.6,10.2,6.2,20.4,12.2,28.6-20.8,3.7-42.2,5-63.2,5.3v.7h.1ZM1838.9,241h0ZM1860.5,241.9v-.3c0-.3.4-.4.4,0l-.4.4v-.3h0ZM1881.3,238.6h0ZM1881.7,243.6h0c.4-.4.7-.4,0,0ZM1938.3,176.3c-5,4.4-9.8,9.3-14.1,13.9-4.4,4.6-9.1,9.3-13.5,14.4-6.9,7.8-13.2,16.8-17.7,27.2h-1.3c-2,0-4.4.7-6.3,2.2l-3.6-2.9c-2.9-2.4-6.9-2.4-9.8,0h0c-1.1.9-1.7,1.7-2.4,2.4-.3-.4-.7-.7-.9-1.1-.7-.7-1.3-1.3-2.4-2.2-.4-.4-1.1-.7-1.7-1.1-.7-.3-1.6-.4-2.2-.7h-2.4c-.7,0-1.6,0-2.2.3-1.6.4-2.9,1.1-4.2,1.7-1.7,1.3-2.6,2.4-3.6,3.6l-1.3-1.3-.9-.9c-.4-.3-.9-.7-1.3-1.1-1.1-.7-2.6-1.7-5-2.2-1.3-.3-2.9-.3-4.2,0s-2.9.7-4.2,1.6c-.9.7-1.7,1.1-2.2,1.7v-.4c-2.6-3.7-7.9-4.9-11.8-2.4-1.1.7-2,1.7-2.6,2.9-.9,1.6-1.7,3.3-2.4,5,.3-1.1.4-2,.7-3,.4-1.7.4-4,0-6-.3-2-.9-4-1.7-5.6-.7-1.7-1.6-3-2.2-4.6-.7-1.3-1.3-2.9-2-4.2-1.3-2.9-2.4-5.7-3.3-8.9-2-6-3.3-12.2-4.4-18.5-2-12.6-2.9-25.7-3.6-38.7-.4-13.9,0-28,.9-42.1.4-7,1.1-13.9,2-20.8l.7-5c0-1.7.4-3,.9-4.2s.7-1.7,1.1-2c.3-.3.4-.3,1.1-.4,1.1-.4,4-.4,7.3-.3,1.3,0,2.4.3,3,.4v16.8c-.3,9.1-1.3,17.9,3.6,25.9,3.7,6.3,14.5,3.3,14.4-4h0l-.7-20.4v-10.2l-.3-5c0-2,0-4.2-.9-6.9-.4-2-1.7-4.6-3.6-6.6,0-1.7,0-3.6.3-5,.3-1.7.7-3.3,1.6-4.4.7-1.1,1.7-2,2.9-2.2,1.3-.4,2.6-.4,4-.3,1.6.3,2.6.9,4,1.6s2.9,1.3,4.6,2.2c0,0,.4.3.7.4v7.5c0,3.6,0,7,.3,11.1s.7,7.8,1.3,11.8c0,1.1.4,1.7.7,2.6l.7,2.4c.4,1.7.9,3.3,1.3,5,1.7,6.9,3.6,13.9,6,22.1,0,.4,1.3.7,1.6,0,2-8.2,2.9-16.5,2.6-25,0-2,0-4.2-.4-6.2,0-2-.4-4-.4-5.7,0-4-.3-7.8-.3-11.8s0-7.9-.4-12.2l-.4-6v-5.3c0-1.6.4-3.3,1.1-4.6.3-.7.7-1.1,1.1-1.7,0-.3.4-.4.7-.7l.9-.7c.9-.7,1.6-1.1,2-1.3.4,0,.7-.3,1.6-.4,1.7,0,3.6-.4,4.9,0,1.3,0,2.6.7,4,1.7,1.1.9,2.2,1.7,2.9,3,1.6,2.4,2.2,6,2.6,9.8.3,3.7,0,7.8,0,12.2l-.4,12.8c-.3,8.9-.3,17.9-.4,26.7,0,5.6-1.1,10.8,3.7,15.7,4,3.7,14.5,1.7,14.4-2.9h0c-.9-16.5-1.6-33.2-1.7-49.7v-6.2c0-2-.3-4.4-.4-6.6v-.4c.7-1.1,2-2.2,3.3-3,1.7-1.1,3.7-1.3,5.7-.9s4,1.6,5.3,3.3c1.3,1.6,2,3.7,2.4,6.3s.4,6,.7,9.1c0,3,.3,6.2.4,9.3v18.5c-.3,21.4-2,42.7-5.3,63.9-1.6,1.3-2.9,2.4-4.4,3.7l3.6,1.7c-.3,1.6-.4,2.9-.7,4.4-.4,2,1.1,3.7,2.9,4.2,1.1,0,2.2,0,3-.9h0c1.1-1.1,2.2-2,3.3-3l3.3,1.7c.4-2,.7-3.7.9-5.7,5.6-4.9,10.8-9.8,16.4-14.5,4-3.6,7.8-6.6,11.9-8.2s9.1-1.7,13.9-1.6c1.6,0,3,.3,4.6.4,1.6,0,3.3.4,4.4.4s1.7.7,1.6.7c0,0,0,.3.3,1.3v8.9c0,1.7,0,3.6-.3,5.3-5.6,1.7-10.8,4.2-15.5,7-6,3.6-11.2,7.9-16.4,12.4l-1.1-.7h-.1Z"/>
  <path class="cls-1" d="M1374.3-5.7c.4-1.7-.7-3.3-2.4-3.7-.7,0-1.3,0-2,.3-2,.9-4,1.6-6,2.2l-1.3-1.1v1.6c-4.6.9-9.5.9-14.1,0-3.3-.7-6.6-2.2-9.3-4-.7-.4-1.3-.9-2-1.3l-.9-.7s-.7-.4-2.2-1.1c-.7,0-1.7-.4-2.9-.3-1.1,0-2,.4-2.6.9-1.6.9-2.2,1.6-2.6,2.2s-.7,1.1-1.1,1.3l-.9,1.1-1.7,2.2c-2.4,3-4.6,6.3-7,9.8-1.6,2-3.7,3.6-.9,7.5.3.4.9.9,1.3,1.6-2.4,1.6-4,4-2.6,5.7h0c3.7,4.9,8.9,7.5,13.8,9.1s9.8,2.2,14.5,2c1.3,0,2.6,0,4-.4-8.2,10.8-17.5,22.1-16.1,38.1-.7,0-1.3,0-1.7.3-3.7.7-7.5,2.2-10.6,4.4-3.3,2.2-6.2,5.3-8.2,9.1-2,3.7-2.9,8.3-2.2,12.6.7,4.2,2.2,8.3,4.9,11.5,2.4,3.3,5.7,6,9.5,7.8,3.6,1.7,7.5,2.6,11.5,2.6,6.6,0,13.9-1.6,19.8-6.3,6-4.9,9.8-11.2,10.4-18.8.4-3.7-.3-7.9-2-11.5-2-4-5.3-6.9-9.1-7.9-2.4-.9-4.9-.9-7-.4-1.6-.9-3-1.7-4.6-2.2-1.3-.4-2.6-.7-4-.9,7.9-15.1,17.7-29,27.9-42.7.7-.9,1.6-2,2.2-3,.7-.4,1.6-.9,2.2-1.6l-1.1-.4c.9-1.6,1.6-3.7,1.3-6.2,0-2.6-2.4-4.9-5-4.6-.9,0-1.6.3-2.2.7l-.7.4c-5.7,3.6-12.4,5.3-18.5,4.9-2.2,0-4.4-.4-6.3-.9s-4-1.3-5.3-2.2h0c1.7-3,3.3-6,5-9.1,1.1.4,2.4,1.1,3.7,1.3,4.2,1.3,8.6,2.2,13.1,2.4,4,0,7.9.3,12.2-.3.7,0,1.3,0,1.7-.3,1.1,2.4,2.4,4.9,4.4,7.8,0,.3,1.3.7,1.3.4.7-3.6,1.3-6.9,2-10.4.7-.4,1.6-.7,2.2-1.1l-1.7-1.3c.4-2,.9-4,1.1-6h0l-.7-.7h0l-.4-.4ZM1337.4,82.7c1.7,0,5,.9,8.2.7,1.1,0,2.4-.4,3.3-1.3,1.1,2.6,1.3,6,.4,9.1-1.3,4.4-4.4,8.3-8.3,10.6-4,2-8.9,2.2-13.1.7-2.2-.9-4-2-5.6-3.7-1.6-1.6-2.4-3.6-2.6-5.6-.3-1.7,0-3.6.7-5s2-2.6,3.3-3.7c1.6-1.1,3.3-1.7,5.3-2,1.7-.3,3.7,0,4.6.4.7.4.9.9,1.1.9l.7-.7c.4-.3,1.1-.7,2.2-.7l-.3.4h.1Z"/>
  <path class="cls-1" d="M900.1,50c-.4-1.7-.9-3.3-1.6-4.9-.3-.7-.7-1.6-.9-2.2l-.4-1.1c0-.4-.3-.7-.7-1.3-.3-.4-.7-.9-1.3-1.3s-1.6-1.1-2.6-1.1-2.2,0-2.9.3-1.1.4-1.6.7c-1.1.7-2.2,1.3-3,2.2-1.7,1.7-2.9,3.7-4,5.7-1.7,3.7-2.4,7.5-3.3,10.4-.7,3-1.3,6.2-2,9.3-.4,2-1.7,3.7,2.9,5.7,2.2.9,6.6,1.3,9.9,1.3.3.7.4,1.3.9,2.2,0,.3,1.1,1.1,1.1.9.7-1.3,1.3-2.4,2-3.7.3,0,.4-.3.4-.4h0c2.2-3.7,4.6-7.5,6.3-12.2,1.1-3,1.6-6.9.9-10.4h-.3.1Z"/>
  <path class="cls-1" d="M966.3,55.9c-.4-.4-.7-1.1-1.3-1.6-.9-.9-2-1.6-3-2.2-2.2-.9-4-.9-5-.7-2.4.3-4,.9-5.6,1.7-.7.4-1.6.9-2.2,1.3s-1.1.7-1.7,1.1c-1.1.7-2.4,1.3-3.6,2-2.2,1.3-4.6,3-6.3,5-.7.7-1.1,1.3-1.6,2.2-.7,0-1.3.9-1.7,4-.3,2,0,5.6.4,8.6s1.3,5.6,2.2,5.6h.7c.3.3.9.7.9.7,0-.4.4-.7.4-.9,4.9-1.3,9.5-2.9,13.9-5.6,5-2.9,9.5-6.3,13.2-11.2,2-2.4,2.2-5.7.9-8.3h0c-.3-.7-.4-1.1-.9-1.6l.4-.3h0v.3ZM958,64.8h-.7.7s.4,0,0,0Z"/>
  <path class="cls-1" d="M930,166.2c1.3,2,3,4,5.6,5.3,1.3.7,2.6,1.1,4.4,1.3,1.6,0,3.3-.3,4.9-.9,2.9-1.3,5-3.7,6.2-6.3,1.3-3,1.6-6.2,1.1-9.1s-1.1-5.3-2-7.8c-2-4.9-5-9.3-9.1-12.8-4-3.7-9.1-6.6-14.5-8.3-.9-.3-1.7-.4-2.6-.9-.9,0-1.7-.4-2.6-.3-1.7,0-3.6.9-4.9,3.3-1.1,2-.9,5.6-.4,8.6.4,2.2.9,4,1.3,5-1.6.4-3.3.9-4.9,1.7-.3,0-.9,1.3-.7,1.3,6.6,2.2,12.2,7.5,15.2,13.9.9,1.7,1.7,3.7,2.9,5.7h.3v.4Z"/>
  <path class="cls-1" d="M908.7,150.1c0-.9-.4-1.6-1.1-2-1.3-3.6-2.4-7-4.9-9.9-1.1-1.6-1.6-4.2-3.6-5,.3,0,.4-.3.9-.4.7-.3,1.6-.4,2.4-.9,2.2-.7,5-1.1,9.3-3.6,2-1.1,4.2-3.3,5.3-5.7,1.6-2.6,2-6,1.6-8.6,0-.4,0-.9-.3-1.3.7,0,1.3-.3,2-.3,3,0,6.2,1.3,8.6,3.3.4.4.9.7,1.3,1.1l1.3,1.3c1.1.9,2,2.2,4.2,3,1.1.4,2.6.7,4,.3,1.6-.4,2.9-1.3,3.7-2.4,1.7-2.2,2.2-4.6,1.7-7.3-.7-2.9-2-4.6-3.6-6.2s-2.6-2.4-4-3.6c-2.6-2-5.6-3.6-8.6-4.9-3.3-1.3-6.9-1.7-10.4-2.2-2.2,0-4.9-1.1-5.6,4,0,1.1,0,3,.4,4.9-.9-.9-1.7-1.6-2.9-2.2s-2.2-1.3-3.3-1.7c-.7-.3-1.3-.4-2-.7-.7,0-1.1,0-1.7-.4-2.2-.4-4.4,0-6.6,0h-.4c.3-1.1.4-2.4.4-3.6v-2.6c1.1-.3,2.2-.7,3.3-1.1h0s.4,0,1.1.4c0,.3.4.7.7.9,0,.3,1.1.9,1.1.9v-.3h0c.3,0,.4.4.7.7l.4.4h0l.3-.3h.3l.7-.4c1.7-.9,3.7-1.7,5.6-2.6.9-.4,1.7-.7,3-1.6,1.3-.7,2.9-1.6,4.6-3.3s1.7-2,2.4-3.3c.9-1.7,1.1-3.6,1.1-5s-.3-3.3-.9-4.9-1.7-3.3-3.7-4.9c-1.7-1.3-4-2-6.2-2.2-2,0-4.2.4-5.6,1.1-2.9,1.6-4.2,2.9-5.3,4l-1.1,1.3c-.4.4-.7.7-.9,1.1-.7.7-1.1,1.6-1.6,2.4-.4,1.1-.9,2.2-.9,3.6-.7.3-1.6.7-2.4,1.1s-1.7,1.1-2.6,2h-.3c-1.6-1.1-3.6-2-5.3-2.2-3.7-.9-7.5,0-9.8,1.6-2.4,1.3-4,2.6-5,4s-2.2,2.6-2.9,3.7c-1.1,2-2.2,4-3.3,6-.7,1.1-1.1,2.2-1.6,3.3,0-.3-.3-.4-.4-.7-.4-.4-.7-.9-.9-1.1-.4-.7-1.1-1.1-1.6-1.7-2.2-2.2-4.4-4.2-7.3-5.6-2.2-1.1-4.6-3.7-7.8-3.6-2.2,0-4.9,2-6.3,7.5h-.9c-3,0-6.3,1.7-6.9,5.6h0v.4h-.9c-1.6,0-2.6.3-3.3.4-.7-.9-1.3-1.6-2-2.2,5-2.9,9.9-6,14.8-9.5.4-.4,0-1.6-.4-1.3-15.5,3-30.5,7.5-45.4,12.4-14.8,4.9-29.2,9.8-44,13.8-1.7.4-2.9,2.2-2.6,4h0c.9,6.3,2,12.8,3.6,19.2.7,3,1.6,6.2,2.4,9.3l.7,2.4c.3.7.4,1.7.9,2.6.4,1.1,1.1,2.4,2.6,3.6,1.6,1.3,3.7,1.7,5,1.7h5c0-.3,4.4-.9,4.4-.9l8.9-1.1,17.5-2.4c11.8-1.6,23.4-3.3,35.2-5.3,2.6-.4,5.3-.9,8.2-1.6-.3,1.6-.4,2.9-.7,4.4-.4,3.7-.9,7.3-1.3,10.8-.7,7-1.3,14.1-1.7,21l-.9,10.4c0,1.7-.4,3.3-.4,4.9l-.4,2.2v3c-.7,7.5-.9,14.4-1.1,21.4,0,2.6,1.1,5,3.3,6.6h0c1.1.9,1.6,1.3,2.4,1.7.7.4,1.6.9,2.2,1.3,1.6.9,3,1.7,4.6,2.4s3,1.6,4.9,2.2c.9.3,1.6.7,2.4.9l1.3.4,1.6.4c4,1.1,8.2,1.3,11.8,1.1,3.7,0,6.9-.9,9.9-1.3,2-.4,4-.7,6-.7,3.6-.3,6.6-2.6,7.5-6v-.4c3.6-12.6,8.3-25.4,11.9-38.7,3.6-13.2,5.7-27.4,4-41.1v-2.6l-.3.7h0l.8.5ZM881.7,147.9v.4-.4h0ZM899.7,156.7c0,.7,0,1.1-.3,1.7-.7-.7-1.3-1.1-2-1.6h2.2v-.3h0ZM879.1,114.5h0ZM879.5,115.2h0ZM900.7,91.9h0c.3,0,0,0,0,0ZM912.4,79.4s-.3,0-.7.3c0,0,.3,0,.4-.3,0,0,.4,0,.3,0h0ZM878,99.5c1.3-2,2.4-3.7,3.7-4.9s2-.9,2.2-.7c.4,0,.9,1.7.3,3,0,.3,0,.4-.4.9-.3.4-.4.7-.9.9-.7.7-1.3,1.3-2.2,1.7-1.7,1.3-4,2.4-6.2,4.4-.4.3-.7.7-1.1.9v-.4c.3,0,4.4-6,4.4-6h.3ZM869.5,111.9c.3-.3.4-.7.7-.9-.3.7-.4,1.6-.7,2.4-.3,1.7,0,4,1.1,5.7.9,1.7,2.2,3,3.7,4.2,3.3,2.2,7.9,1.7,10.8,0,2.9-1.6,4.9-3.7,6.6-5.3.9-.9,1.7-1.7,2.4-2.4s1.6-1.1,2.2-1.6c1.7-.9,3.3-1.6,4.9-1.3.7,0,1.3,0,1.7.4.4,0,.9.7,1.1,1.1.4.4.4.9.7,1.3v.4s-.3.3-2.2.9c-1.7.4-4.4.9-7.8,2-1.6.4-3.6,1.6-5.3,2.6-1.7,1.3-3,2.9-4.2,4.4-2.2,3.3-3.3,6.9-4,10.4-.3,2-.4,4-.4,6-4-1.3-7.8-3-11.2-5.7-4.4-3-7.5-7-13.8-8.2-2.6-3.6-4.4-7.8-5.6-11.9-.7-2.4-.9-4.9-1.1-7.3.3.3.7.4.7.3h.3c.3,0,0,0,0,0,.4,0,.7.3,1.3.7s1.6,1.1,2.6,2,2.2,1.7,3.7,2.6c1.7.9,4.2,1.3,6.3.7s3.7-2,4.9-3.3l.3-.3h.3ZM848.8,103.4h-.3c0-.3-.3-.7-.4-.9,0,0,.3.3.4.4,0,0,0,.3.3.4h0ZM776.7,130.7h-1.7c-.3,0-.4-.3.3-.4h2-.4v.4h-.1ZM766.5,142.8l-.4-1.3h0c0,.3.4.7.9,1.1,0,0,.3.3.4.4h-.7l-.3-.3h0ZM814.7,134.5c1.7-2.2,3.3-5.6,4.9-10.2,0-.3,0-1.6-.3-1.6-9.9,3.7-19.7,5-29.9,6.2-2.9.3-5.6.7-8.3.9h-2.2c0,.3-1.6-2.9-1.6-2.9-.7-1.6-.7-3.6-5.3-2.2-2.2.7-6,3-8.6,5.3-.4-2-.9-4.2-1.1-6.2,13.1-3.6,25.7-7.8,37.6-12.6,3.3-1.3,6.6-2.9,9.8-4.4.4,0,.7,0,1.1.3,1.1,0,2.2.4,3,.4s1.6,0,2.2.3c1.3,0,2.2.9,2,1.1v.3c0,.3,0,.9.7,2,.4.9,2,2.2,3,2.6s2,.4,2.4.7c2.4.4,4.9.4,7.5,0h.9s-1.1.4-2.2.4-1.3-.3-1.6,0c0,0,.4.7.7.9,1.1,1.6,2.4,2.9,3.6,4.4.4.4.7,1.3,1.6,1.3.9,2.6,2,5.3,3.3,7.8-7.5,1.7-15.2,3.3-22.7,4.6l-.4.7h0ZM887.3,207.9c.7-3,1.6-6.2,1.7-9.3.4-2.6,2.4-5.6,2-8.6s-3.3-6.2-12.8-9.1h-1.6c2.4,6,1.3,11.9-.9,17.5-1.3,3-3,6-4.6,8.9-.9,1.6-1.6,3-2.2,4.4-.4.9-2,1.6,2.4,3.6,2.9,1.1,9.9,2.6,12.8,2.9-.9,2.9-1.7,5.7-2.6,8.3-4.6.4-9.1,1.3-12.8,1.3s-4,0-5.7-.4c-.9,0-1.7-.4-2.6-.9s-2-.7-2.9-1.1c-2-.9-3.7-1.7-5.6-2.9-.7-.4-1.6-.9-2.2-1.3.4-4.9.7-9.5,1.3-14.1,0-1.3.3-2.9.4-4v-.9l.3-.7c0-.9.4-1.7.4-2.6.4-3,.9-6.2,1.3-9.1,1.3-10.8,2.4-21.4,4.2-31.6.4-2.6,1.1-5.3,1.6-7.8,4.9,3,9.9,5.7,15.7,7.5,2.4.7,5,1.3,7.8,1.7,0,.7.4,1.3.7,2,1.1,2,2.6,3.3,4,4.4.7.4,1.3,1.1,2.2,1.6.7.4,1.1.9,1.1.9h-1.1v2.2c0,1.6,0,3,.3,4.6,0,1.6.4,3,.4,4.6s-.7,2.2,4,1.1h.4c-2.2,9.1-4.9,18.1-7.5,27.2l.3-.4h.1Z"/>
  <path class="cls-1" d="M1479.8,68.5c.4-.7.7-2,0-3,0,0,0-.4-.3-.4-.4,0-.7,0-1.1.3,0,.3,0,.7.3,1.1,0,1.1-.4,1.6-.7,1.6h-1.1c.3.4.4.9.7,1.6v.4c.3,0,.4,0,.7-.3.4-.3.7-.4,1.1-1.1h.4Z"/>
  <path class="cls-1" d="M1758.1,121.7c1.6-2.4,2.2-5,2.2-7.5s-.4-5.7-.7-8.2l-1.1-7-2.2-14.4-4.4-28.6c-.4-2.6-2.6-4.4-5-4.6h0c-6-.3-11.9-.7-17.9-.9-.4-14.4-2-28.6-5.3-42.4-3.3-14.8-8.3-29.2-15.5-42.7-3-5.7-6.2-11.9-10.2-17.9s-8.9-11.8-14.4-16.1c-5.6-4.6-12.2-7.9-19-9.8-4.9-1.1-9.9-1.3-14.8-.4,1.3-2,2.6-4.2,3.3-6.6,2-5,2.6-10.8,1.7-16.5-.9-6-3.7-11.5-7.5-16.1-4-4.4-9.1-8.2-15.1-9.9-3.7-1.1-6.6-2-9.1-2s-3.7.4-6,2c-1.7,1.1-4.6,3.6-6,6.3-.7,1.3-.9,3-.4,4.4.4,1.6,1.6,2.6,3,3.3h0c2.9.9,5.3,1.3,7.5,1.6s4,.4,5.6.9c2.6.7,5.3,2,7.5,4,4.4,4,6.2,9.8,5,15.5-.4,2.9-1.7,5.6-3.6,7.5-1.7,2.2-4.4,4.2-7.5,5.7-3,1.7-6.6,3.3-10.2,4.6s-7,2.4-10.2,2.9c-2.6.4-5,0-6.6-.4-.9-.4-1.6-.9-2.2-1.6s-1.3-1.6-2-2.4c-1.3-2-2.6-4.6-3.3-7.3-.9-2.6-1.3-5.6-1.6-8.2s0-5.6.3-8.2c.4-2.6,1.1-5.3,2.2-8.2,1.1-2.9,2.6-5.7,4.9-8.6,2.2-2.9,4.9-6,8.9-8.6.4-.3,0-1.6-.4-1.3-9.9,1.3-17.9,7.3-23,14.5-5,7.8-6.6,17.1-5.3,25.4,0,1.1.4,2.2.7,3.3-5.7,1.3-11.2,2.9-17.1,4.9-7.9,2.9-15.7,6.9-22.6,12.8-3.3,2.9-6.3,6.3-9.1,9.9-2.6,3.6-4.6,7.3-6.3,11.1-3.6,7.5-6.3,14.4-9.3,21.7-5,12.2-12.2,24.6-16.5,38.5-2.2,6.9-3.3,14.1-3,21.7,0,2.9.7,6,1.3,8.9-1.3,0-2.6-.3-4-.4-2.6,0-6,0-8.9.7-5.7,1.3-11.2,4-15.1,8.9-3,3.7-3.3,7.3-2.4,9.1s2.4,2.2,4.2,2.2,3.6-.4,5.3-.9c.7,0,1.6-.4,2.4-.7v-.3c0-.3,0-.4-.3-.7,0-.3,0-.4.4-.4,0,0,.4,0,.7.4,0,0,.4.4.4.7.9-.3,1.7-.4,2.9-.9h0c1.7-.7,3.7-1.1,5.7-1.1s4.4,0,6.6.7c4.9.9,9.9,2.4,15.9,3.7,12.2,2.6,24.6,2,35.8.9l16.5-1.7c5.6-.7,11.1-.9,16.5-1.3,11.1-.7,22.1-1.3,33.2-1.7,42.1-1.3,84,0,126.3,1.6.9,4.6,1.6,9.3,2.4,13.9-13.8.4-27.4-.7-40.9-.9-3,0-6.2-.4-9.5-.9s-7-.4-10.6.3c-3.7.7-7.5,2.4-10.4,5.6s-4.6,7.8-3.7,13.1c0,.4.9,1.3.9,1.1,3.6-4.4,9.9-6.6,16.4-7s13.5.4,20.4,1.1c7.3.9,14.8,2.2,22.1,3.6,3.7.7,7.8,1.1,11.5,1.6,2.2.3,4.4,1.6,6.6-2.6.4,2.2.7,4.2,1.1,6.3l1.7,10.4c.3,1.6.3,2.6.3,3.3h0c-.7,0-1.7.4-3.3.4l-10.6.9c-50.1,4.2-104.1,4.6-157.2,4.9-13.2,0-26.6,0-39.5.4-6.6,0-13.1,0-19.7.4-6.3,0-12.8.3-19,.4-2.6,0-4.6-.4-5.3-1.1-.4-.3-.9-.9-1.3-1.7s-.7-2.4-1.1-4c-1.3-6.2-2.9-12.4-4.4-18.4-1.6-6.2-3-12.2-4.9-18.1-.9-2.9-1.6-5.6-2.4-8.3h-2c-.3,0-.7-.3-.7-.3,0,0-.3,0-.4-.4,0,0-.3-.3-.3-.4v.9l.4,2.4,1.6,10.4,2.9,21,1.3,10.4c.3,1.7.4,3.6.9,5.6s1.1,4.4,2.6,6.6,4,3.6,6,4.4c2.2.9,4.2,1.1,6.2,1.3,2,0,3.7,0,5.6.3h5.3c28,1.1,56.3,1.6,84.5,1.6s56.3-.7,84.5-2c14.1-.7,28.3-1.3,42.2-2.2s14.1-.9,21.2-1.6l5.3-.4c1.7,0,4-.4,6.2-1.1s4.9-2.4,6.6-4.9l-1.6.7h0v-.5ZM1621.1,47.5c-15.9,0-31.9.7-47.7,1.7-4,.3-7.9.4-11.9.9-4,.3-7.9.7-11.9,1.1-7.8.7-15.2,1.3-22.3.9-4.4,0-8.3-.9-12.6-1.7-3-.7-6.6-1.7-10.4-2.6.4-4.2,1.3-8.2,2.2-12.4,11.1-.7,22,0,32.9.7,5.7,0,11.8,2.2,17.7,2s12.2-2.9,18.8-11.8c0-.3.3-1.6,0-1.6-13.2,1.3-26.1,0-39.4-2-7-1.1-14.1-2.4-21.2-3.3-1.3,0-2.6-.3-4-.4.3-.9.7-1.6.9-2.4,5-13.8,11.5-27,17.9-40.5,3.6-7.3,6.9-14.4,11.1-20.4s9.3-10.2,15.5-13.2c6.3-3.3,13.5-5.6,21-6.9.9,0,1.7-.3,2.6-.4-6.3,5-12.6,10.8-17.9,17.2-3.7,4.6-8.6,8.9-11.1,14.8-1.1,2.9-1.6,5.6-1.1,8.6s1.6,6.9,2,12.6c0,.4.9,1.3.9,1.1,2.6-2.9,4.4-6,6-8.9s2.9-5.7,4.4-8.2c3-5,6.9-9.8,11.2-13.8,4.6-4.4,10.2-7.8,15.5-10.8,2.9-1.6,5.6-3.3,8.3-4.6.9-.4,2-.7,2.6-1.6,1.1,0,2.4.3,3.6.4,4.6,0,9.1-.7,13.2-2,4.4-1.3,8.6-2.9,12.8-4.6.7-.3,1.3-.7,2-.9.3.3.4.7.9.9l3.3,3.7c1.1,1.1,2,2.2,2.9,3.3,3.6,4.6,6.6,9.5,9.1,14.5,2.2,4.4,2.6,9.9,4.6,14.5,2,4.9,6,8.9,15.9,13.8h1.6c-3.7-12.8-6.6-24.7-11.8-36.9-2.6-6.6-5.7-13.1-9.9-19.2-.9-1.3-1.7-2.4-2.4-3.6,11.5,3.6,22.1,9.8,30.7,18.1,4.9,4.6,9.1,9.9,12.6,15.7,3.6,5.7,6.3,11.9,9.1,18.1,5.6,13.8,8.9,27.9,10.4,42.2.9,7.5,1.3,14.8,1.3,22.3s-.4,5.3,0,7.8c-29.9-1.3-59.6-2.4-89.8-2.2l-.3-.4h0v.3ZM1748.4,115.2h0ZM1748.4,115.2h0Z"/>
  <path class="cls-1" d="M1476.3,67.5h.4c-.3-.4-.7-.7-.7-.4l.3.4h0Z"/>
  <path class="cls-1" d="M-44.2-32.5h0c.3-2,1.1-4,2.2-5.6.3,4.6.4,9.3.4,13.9s0,8.3-.7,12.6c-.4,4.2-1.1,8.6-1.6,13.1-.7,8.9-1.1,17.5-1.3,26.3,0,8.9,0,17.5.4,26.1l.4,13.1v6.6c.4,2.2.7,4.6,1.1,7s1.6,5,3.3,7.5c1.6,2.4,4,4.2,6.6,5.6,5.3,2.4,10.8,2.2,15.7.9,4.9-1.6,9.5-4.2,13.1-8.3,3-4,5.3-8.6,6.3-13.2,2.6-10.2,2.2-19.8,2.2-29.2s0-18.8-.3-28.3c-.3-17.2-.9-34.5-1.6-51.6.7,1.1,1.1,2,2,3,.7,1.1,1.3,3,4.9-.4,1.3-1.3,3.3-4.4,4.6-7.3s2.6-5,2.6-5h0c-1.1-.3-2.4-1.6-3.6-3.6-1.1-1.7-2.4-4.4-3.7-6.3-1.7-2.6-1.1-7-6.2-7.5-.3-1.1-.9-2.2-1.7-3.3-.7-25.9-.9-51.6,0-77.2.4-.4.7-.9.4-1.1h0c0-.3-.3-.4-.4-.7,0-2.4,0-4.9.3-7.3.9-19.2,2.6-38.1,5-57.5,2.4-19.2,4.6-39.1,3.6-59.6l-.4-4.6c0-1.6-.3-3-.4-4.9-.4-3.6-1.1-7.5-3-11.5-2-4.2-5.3-7.8-9.1-10.2s-7.8-4-11.9-4.6-8.3-.4-12.4.7c-2,.4-4,1.3-5.7,2.4s-3.3,2.2-4.9,3.6c-6,5.3-8.9,12.4-9.3,19-.3,3.7.4,6.3,1.6,8.2v1.7c.4,4.2.7,8.6.9,12.8.4,8.6.7,17.2.9,25.9.4,17.2.4,34.5.7,52,0,8.6,0,17.2.3,26.1-.4,1.7-.4,4,0,6.2,0,5.3.3,10.8.4,16.1-.7.7-1.3,1.3,0,3.3v.4c.3,8.6.9,17.5,1.1,25.9,0,8.6-.3,17.1-.9,25.7l-.9,13.1v1.1h-.7v2.6c-1.3,4.6-4.2,7.5-7.8,10.6-2,1.7-4.4,3.6-6.3,5.6-1.1,1.1-2,2.2-2.9,3.3-.7.7-2,1.1,2.2,3.3,3.3,1.7,13.8,4.6,13.8,4.2l.7-.4h0ZM-25.9-154.6l1.1.7c3.3,2,5.3,5.6,7.3,9.3.9,2,2,4,2.9,6.2,0,.3,0,.4.3.9v8.6c-2.2-2.2-4-4.4-4.9-6.6-.4-1.1-.4-2.2-.4-2.9.3-2.2-1.3-4.4-3.7-4.6-.9,0-1.7,0-2.6.4l-3.3,1.7c-.3,0-.4.3-.9.4,0-1.6,0-2.9-.3-4.4v-4.4h0c1.3-1.7,2.6-3.3,4.2-4.9.4-.4.7-.7.9-.7l-.3.3q-.3,0,0,.3l-.3-.3h0ZM-21.9-42.8c-.7-.7-1.3-1.3-2-2.2-1.1-1.6-2-3-3-4.4-.7-.9-1.6-1.7-2.6-2.6v-5.3c2.4-.4,4.9-.3,7.5,0,2.2.4,4.4,1.3,6.6,2-.7,2.2-1.6,4.2-2.4,6.2-1.1,2.2-2.4,4.2-4,6.2v.3h-.1ZM-28.2-120.1h0c.4-1.1,1.1-2.2,2-3.3,1.7,2.4,3.3,4.6,4.9,5.6,1.1.7,2.4.7,4.9.4.7,0,1.3,0,2.2-.3v6c0,13.5.4,27.2,1.1,40.7-3.7.7-7.8.4-11.5.9-1.1,0-2.4-.3-3.7-.4.4-8.2.9-16.5.9-25s0-8.6-.4-12.8c-.3-3.7-.4-7.5-.7-11.5h.7l-.3-.3h-.1ZM-12.4,73.7c-.7,1.6-1.6,2.9-2.4,4-.7.9-1.7,1.7-2.9,2.4-2.2,1.6-5.3,2.2-7.8,2.2s-2-.3-2.6-.7c-.7-.3-1.1-.7-1.6-1.1-.9-.9-1.6-3-1.7-6.3,0-1.6,0-3.7-.3-5.6v-6c-.4-4-.4-7.9-.7-11.9-.4-15.9-.4-31.9,1.1-47.5.4-4,.9-7.8,1.3-11.8.7-4.4.9-8.9,1.1-13.2v-10.4c.7.7,1.6,1.1,2.4,1.6s1.6.9,2.4,1.3,2.4.9,4.2.9,4-1.1,5-2,1.7-1.6,2.4-2.2c0,0,.3-.3.4-.4.4,9.9.9,19.8,1.3,29.9.7,17.9,1.1,36.1,1.3,54,0,8.9-.4,17.1-3,23h-.3l.4-.3ZM-29.8-283.3h0c1.7-2.4,4.2-4.4,6.6-5,2.4-.9,5.6-.9,8.2,0s4.6,2.6,5.7,4.6c1.1,2.2,1.7,5.7,2.2,10.2,1.7,17.1.4,34.6-1.3,52.4l-2.9,27c-.9,9.1-1.6,18.1-2,27.4v3.7c-.3,0-.7-.4-.9-.7-.7-.4-1.3-.9-2-1.3s-1.3-.9-2.2-1.1c-.7-.4-1.6-.7-2.2-.9-.9-.3-1.3-.4-2.9-.7-1.3,0-3.3-.4-5.6.3-.7,0-1.3.4-1.7.7-.4-8.9-.9-17.9-1.6-26.7-.9-15.9-2.2-31.6-4.2-46.8-.9-7.8-2-15.2-3.3-22.7-.4-2.4-.9-4.6-1.3-7,.9,0,1.6-.4,2.4-.9,3-2.2,5.6-7.3,9.3-12.6l-.4.4h.3ZM-43.6-284.6h1.7c.4,0,1.3.4,2,.9.4.3,1.1,1.1,1.3,1.6.4,1.1.4,1.6.4,2.2s0,.9-.4,1.3c-.3.4-.9,1.3-2.4,2-.7.3-1.6.3-2.2,0v-1.1c-.3-.4-.4-.7-.4-.9h1.1c.9,0,1.7-.4,2-.7s.4-.4.7-.9c0-.3.3-.4,0-1.1v-.7c0-.3-.1-.5-.4-.7,0-.3-.4-.4-.7-.7s-.7-.4-.9-.7c-.4-.3-.9-.3-1.3-.4h-.7c-.4,0-.4-.1,0-.4l.3.3h0v-.3ZM-45.6-278.6h0Z"/>
  <path class="cls-1" d="M91-41.1c1.6-2.6,2.6-5,2.6-5h0c-1.1-.3-2.4-1.6-3.6-3.6-1.1-1.7-2.4-4.4-3.7-6.3-1.3-2.2-1.1-5.7-4-7v-5c-.4-9.3-.7-18.8-1.3-28-.4-8.9-.3-17.9.3-27l.9-13.9c0-2.4.3-4.6.4-7v-7.3c0-9.8-.9-19-.9-28s0-8.9.7-13.1l.9-6.9c.3-2.4.4-4.9.7-7,.9-9.5,1.1-19,1.1-28.6s-.3-19-.7-28.3l-.7-13.9c0-2.4-.3-5-.7-7.9s-1.6-6.3-3.6-9.5c-2-3.3-5-6-8.6-7.5-3.3-1.6-7-2.2-10.4-2.4-6.6,0-12.8,2-18.1,6-1.3.9-2.6,2-3.7,3.3l-1.7,2c-.4.7-.9,1.3-1.3,1.7-1.7,2.4-3,5.3-4.2,7.9-2,5.6-2.9,10.8-3.3,15.9s-.4,9.9-.4,14.8v14.1c.4,9.3.7,18.8.9,28,1.7,50.6,4.9,103.9,3.3,156.6-1.6,2.2-3.6,4.2-5.7,6.2-2,1.7-4.4,3.6-6.3,5.6-1.1,1.1-2,2.2-2.9,3.3-.7.7-2,1.1,2.2,3.3,2.4,1.3,8.6,3,11.8,4-.4,6.9-.9,13.8-1.6,20.6-1.6,16.5-3.6,33.6-3.7,50.9,0,8.6,0,17.2,1.1,25.9l.9,6.3c.4,2.2.9,4.4,1.6,7,.7,2.4,1.7,4.9,3.3,7.5,1.7,2.6,4.2,4.6,6.6,6,4.9,2.6,9.8,3.7,14.4,4,2.4,0,4.9,0,7.3-.7,1.3-.3,2.4-.7,3.7-1.1,1.6-.7,2.4-1.3,3.3-2,3.7-2.6,6.9-5.7,9.5-9.5,2.4-3.7,4.2-8.2,4.4-12.6v-3.3l-.4-2.9c0-.7-.3-1.3-.4-2,2.4-3,4.2-9.3,4-17.9h0c-.4-25.3-.9-50.1-1.6-75.4.7,0,1.6-.4,3-2,1.3-1.3,3-4.4,4.6-7.3l.3-.7h0l-.3-.5ZM55.3-42.8c-.7-.7-1.3-1.3-2-2.2-1.1-1.6-2-3-3-4.4-1.1-1.6-2.6-2.9-5-4.4h0v-2.6c1.1-.4,2.4-.7,3.6-.7,2.4,0,4.6.4,7,1.3,1.7.7,3.6,1.6,5.6,2.4-.4,1.6-1.1,3-2,4.6-1.1,2.2-2.4,4.2-4,6.2v-.3h-.1ZM55.7-155.2l.4.4c.4.3.7.4.9.7.7.4,1.1,1.1,1.3,1.7.7,1.3,1.1,2.9,1.6,4.9.4,2.2,1.1,4.4,2,7.3v.7c-.4-.4-.9-.7-1.6-1.1l-2.2-1.3c-.9-.4-1.7-.4-2.6,0l-2.6,1.3c-2.4,1.1-5.6,2.2-8.9,3.6,0-2,0-4.2-.3-6.2,1.1-1.7,2.4-3.3,4-5,1.6-1.6,3.3-3,5-4.6l2.4-2.2h.7ZM55.7-155.4h.3c.4-.4.7-.7.7-.7,0,0-.4.4-.9.4h0v.3h0ZM44.9-121.4c2,1.1,3.6,2,3.6,2,0-.7.9-1.6,2-2.4.9-.9,2.2-1.7,3.3-2.6.9-.4,1.6-1.1,2.4-1.6,0,.3,0,.7.4,1.1.4.9,1.7,2.4,4,4,1.1.9,2.6,1.6,4.4,2.2,0,3.7-.4,7.8-.4,11.5v15.5c.4,4.9.7,9.9.7,15.1v8.6c-3.3,0-6.9-.9-10.4-.9s-4.6-1.7-7.3-1.1c-.9.3-1.6.7-2.2,1.6.3-17.7,0-35.2-.4-52.6v-.3h.1ZM66-135.5c-.4-.4-.7-.9-1.1-1.3h1.1v1.3ZM42.5-274.1c.9-4.2,2.4-8.2,4.9-11.2,2.2-2.9,5.6-4.9,9.1-5.7,3.6-.8,7.3-.4,9.5,1.1,1.1.9,2,1.7,2.4,3.3.7,1.3.9,3.3,1.1,5.3,0,2,.3,4.4.4,6.9v7.3c.3,0,.7,14.4.7,14.4.4,19.2,0,38.1-2.9,56.9-1.3,10.4-1.1,20.6-.7,30.3v1.6c-.7-.7-1.6-1.1-2.2-1.6l-2.6-1.3c-.9-.4-1.7-.7-2.6-.9-1.1-.3-2.6-.7-5.3-.4-1.3,0-2.6.7-3.6,1.1-1.1.4-1.7,1.1-2.2,1.6-.9.9-1.6,1.7-2,2s-.7.4-1.1.9c-.4.4-1.1.9-1.6,1.3-1.1-28.3-2.4-56.3-2.4-84.6s-.4-19.4,1.6-27.9h-.4,0ZM74.8,69.8c-.4,1.7-1.1,3.3-2,4.9-1.7,3-4.6,6.2-7.8,8.3-.9.4-1.6,1.1-2.4,1.6l-.7.4h-.4c-.3.4-.7.4-1.1.4-1.6.4-3.6.4-5.6.4-3.7,0-7.8-1.1-10.6-3-1.3-.9-2.6-2-3.3-3.3-.9-1.6-1.3-3.3-1.7-5.3s-.7-4-.9-6.2c0-2.2-.4-4.4-.4-6.6-.3-4.4-.4-8.9-.4-13.1,0-8.9.7-17.7,1.3-26.6.9-8.9,1.7-17.7,2.6-26.6.9-8.9,1.7-17.9,2.4-26.7,0-1.6,0-2.9.3-4.4.7.7,1.3,1.3,2.2,2,1.3,1.1,2.9,2.2,4.4,3,.9.4,1.6.9,2.4,1.3s2.4.9,4.2.9,4-1.1,5-2,1.7-1.6,2.4-2.2c.4-.4.9-.9,1.3-1.3v17.2c0,24.6-.7,48.7,4.2,70.7,1.1,4.6,2.6,7.5,4.2,8.9v1.6c.4,2.4.3,3.7,0,5.6h.3-.1Z"/>
  <path class="cls-1" d="M139.7-193.7c2.9,2.2,6,4.2,9.8,5.7,3.6,1.6,7.8,2.6,12.2,2.4,2.2,0,4.6-.4,6.9-1.1s4.6-1.7,6.9-3.7c2.4-2,4.4-5.3,5-8.3s.4-6,0-8.6c-1.3-4.9-4-7.9-6.2-10.6-2.4-2.6-4.4-4.2-6.3-6.2l-3-2.9-3-2.6c-2.2-1.7-4.4-3.6-6.6-5-4.6-3-9.3-5.7-14.8-7.5-1.3-.4-2.6-.9-4.2-1.1-1.1,0-2.2-.4-3.3-.7,0-1.6-.4-3.3-.9-5-.4-1.1-.9-2-1.3-2.9-.7-1.1-1.6-2-2.4-2.9-1.7-1.6-3.7-2.6-5.7-3.3s-4.4-1.1-6.9-.7c-2.4.3-5.3,1.3-7.5,3.3-2.4,2.2-3.6,4.4-4.2,6.6s-.7,3.7-.9,5v5.6c-.3,6.6-.9,13.2-1.7,19.8s-1.1,6.6-1.6,9.8-.9,4-.9,7.5.4,3.7,1.3,6c.9,2,2.2,3.7,3.7,5,3,2.4,6.6,3.6,10.2,3.6s2.6,0,4-.7c0,5.6.3,11.1.3,16.5.3,24.3-.3,48.8-1.1,73.4-.9,26.6-2.4,52.9-4,79.1l-.7,10.2c0,1.7,0,3-.4,4.9v1.3c-1.7-1.1-3.3-2.2-4.9-3.3-1.3-1.1-2.9-2-4-3-.9-.7-1.1-2.2-4,1.7-2.2,3-6.9,12.8-5.7,13.1h0c5.7,2,11.2,4.4,17.2,6l-.9,9.8c-.9,8.3-2.6,16.5,1.6,24.3,3.3,6.2,14.1,4.4,14.5-2.6h0c.4-9.8,1.1-19.4,1.7-29.2,3.3-1.1,6.2-4.9,7.5-13.8,0-.3,0-1.6-.3-1.6-2,1.3-4.2,2-6.3,2.2l.4-5.7c0-3.6,0-6.6.3-9.9l.4-19.2c.4-25.4,1.1-51,1.1-76.7s1.7-45.5.7-68.8c-.4-9.5-1.3-19.2-2.9-28.6,1.3,2,2.9,3.7,4.4,5.6,2.2,2.6,4.6,5,7.8,7.3l-.9.7h0ZM129.4-233.7v-.3l1.3-2.6c.3.3.7.4.9.7l3.6,2.4c4.6,3.3,9.3,6.9,13.9,10.6,2.2,1.7,4.4,3.6,6.9,5.6,2.2,1.7,4.4,3.7,6.3,5.6,2.2,2,4,3.7,4.9,5.7.9,1.7.9,3.7.3,4.6-.3.4-.7.7-1.3,1.1s-1.7.7-2.9.7c-2.2.3-4.2,0-6.3-1.1-2.2-.9-4.4-2.2-6.2-4-2-1.6-3.7-3.6-5.3-5.7-3.6-4.4-6.2-9.3-7.9-14.4-1.1-3.3-.9-6.3-6-8.3-.4,0-1.1-.4-1.7-.4h-.4Z"/>
  <path class="cls-1" d="M1028.8,50.9c.7,1.6,1.6.3,1.1-1.1-6.6-22.3-7.8-46.4-3.6-69.4h0c.4-2.2-1.1-4.4-3.3-4.9h-2.2c-7.5,2.9-14.5,6.3-21.2,10.6,2.2-12.4,6.9-24.6,13.2-35.4,1.7-.4,3.6-.9,5-1.3l-2.2-3.3,2.6-4c1.1-1.6.9-3.7-.7-4.9-.9-.7-1.7-.9-2.9-.7-1.6.4-3,.9-4.4,1.1l-2.2-3.6c-1.3,1.7-2.4,3.6-3.6,5.3-5.7,1.7-11.5,4-17.1,6.6-2.6-19.2-.4-39.1,6.3-57.5.4,0,1.1,0,1.6-.3l-.9-1.1c.9-2.2,1.7-4.2,2.6-6.3.9-1.7,0-4-1.7-4.9-.7-.4-1.6-.4-2.2-.3h0c-2.2.4-4.4.9-6.6,1.3l-1.1-1.3c-.3.7-.4,1.1-.7,1.7-17.9,3.7-35.4,9.9-51.7,18.4-3.6-3.7-6.6-7.8-9.5-11.9-1.1-1.3-2-2.9-2.9-4.4l-.7-1.1c-.3-.4-.7-.9-1.3-1.6s-2-1.3-3.3-1.3-2.6.4-3.3.9c-.7.4-1.3.9-1.6,1.1l-1.1.9-2,1.6-4,3.3c-2.9,2.2-6,4.4-9.1,6.6l-4.6,3.3-1.1.9h-.3s0,.3-.4.4c-.4.4-1.1.9-1.7,2.2-.9,1.3-1.3,3.7-.9,5.6.3,2,1.1,3,1.6,3.7.4.7.9,1.1,1.1,1.3l.4.7c2.2,3,4.6,6.2,7,9.3.4.7.9,1.6,1.6,2.2-.7.4-1.3,1.1-2,1.6-2.2,2-4.6,4-6.9,6-4.4,4.2-8.9,8.2-13.1,12.8-4.2,4.6-7.9,9.8-11.1,15.5s-5.6,11.9-6.3,18.5c-.4,3,1.7,6,4.9,6.3h1.7c19.7-2.9,40.1-.9,58.8,5.7-7.3,4.6-13.2,11.2-17.1,19-2,3.7-.4,8.3,3.3,10.4,1.3.7,2.9.9,4.4.7h.3c3-.4,6.2-.9,9.3-1.1,8.2-.9,16.4-1.1,23.7,0,1.1,0,2.2.4,3,.7-5.3,4.2-9.5,9.8-11.9,16.4-1.7,4.6.7,9.9,5.3,11.8,1.1.4,2.2.7,3.3.7h.3c5.7,0,11.5,0,17.2.7,9.8,1.1,19.2,3.6,28.3,6.2,9.1,2.9,17.7,5.7,26.7,8.3,7,2,10.8.4,11.1-3.3,0-3.6-3.7-9.5-11.9-13.5h0c-17.5-8.6-36.5-13.8-55.9-15.2,2.9-2,6.3-3,9.8-3.3,4.4-.3,7.5-4,7.3-8.3,0-2.2-1.1-4.2-2.9-5.6h0c-4.6-4-10.2-6.9-15.9-8.6-5.6-1.7-11.2-2.6-17.1-3-4-.3-7.8-.3-11.8,0,3.3-2.2,7-3.7,10.8-4.4,4.4-.9,7-5,6.3-9.5-.4-2.6-2.2-4.6-4.4-5.6h0c-21.7-10.6-46.2-15.5-70.4-13.9,1.3-2.9,2.9-6,4.9-8.6,4.2-6.2,9.5-11.9,15.5-17.5,11.8-11.1,24.7-20.6,38.7-28.6,14.1-7.9,29.9-14.1,46-18.4-6,19.4-7.5,40.7-4,61,.9,5.3,6,8.9,11.2,7.9.9,0,1.7-.4,2.6-.9,2-1.1,4-2,6-2.9-4.9,11.8-7.8,23.9-8.3,36.2v.9c-.3,4.2,2.9,7.8,7,7.9,2,0,3.7-.4,5-1.7,5.3-4.2,10.8-8.2,16.8-11.2-.9,22.3,3.7,44,12.8,61.9l-.3-.7h.5ZM913-108.3c.3.4.7.9.9,1.1,2.6,3,6.2,5.6,11.5,6.9-5,2.9-9.9,5.7-14.5,8.9-2.4-2.2-4.9-4.6-7-7l-.7-.7c3.3-3,6.6-6.2,9.9-9.3v.3h-.1ZM898.5-95.1h0ZM898.8-103.9h0Z"/>
  <path class="cls-1" d="M1465.1,10.5c.7-2.9,0-5.7-2-7.5,3-2.6,5.7-5.3,5.3-6h0c-6-5.6-11.8-11.2-19.4-14.8-3-1.6-6.2-4.4-10.2-4.6-1.3,0-2.9.3-4.4,1.1h0l.4-6.2v-3c0-.7.3-.7.3-2.2s0-1.6-.4-2.6c-.3-1.1-1.1-2.6-2-3.6-1.7-2-3-2.4-3.6-2.6l-1.3-.7-2.6-1.3-5.6-2.6c-7.3-3.6-14.8-6.9-22.3-9.8-3.7-1.6-7.8-2.9-11.5-4.2-2-.7-4-1.3-5.7-1.7l-2.9-.9-3.3-.9c-.9,0-2.9-.7-5.6,0s-4.4,2.2-5.3,3.3c-1.1,1.1-1.3,2-2,2.9-.4.9-.9,1.7-1.1,2.9-1.1,3.7-.7,7.5.4,10.4.4,1.6,1.1,2.9,2.2,4.4.9,1.6,2,2.6,2.9,3.6,2,2,4.2,3.6,6,4.6,2,1.1,3.6,2,5,2.9l4.9,2.4c2.2,1.1,4.4,2.2,6.9,3.3-.4,1.3-.4,3.3,0,6.6-.9.7-1.7,1.3-2.4,2.2-1.7,2.6-1.7,7,2,10.6h0c15.9,14.8,37.6,22.6,59.2,21.4-4,16.8-7.9,33.3-12.2,50.1l-7.3,30.7-3.7,15.2-.9,3.7v.7c-5.7.3-11.8-.9-17.9-2.9-5.6-1.7-11.1-4.2-16.8-6.6v-1.1c.4-3.7.7-7.3,1.1-11.1.7-7.3,1.1-14.8,1.6-22.1,1.3-29.6.4-58.8-7.3-85.8-.3-.9-1.6-.4-1.6.4-.9,31.2-2.4,62.4-4.6,93.5l-1.7,23.3v2.9c-.3,1.1-.4,1.7-.4,3.3s0,1.6.4,2.4c.3.9.7,1.7,1.3,2.6,1.3,1.6,2.6,2,3.7,2.6,3.7,1.6,7.3,3,11.1,4.6,7.3,2.9,15.2,5.6,23.4,6.6,2,.3,4.2.4,6.2.4h3.3c1.1,0,2.4,0,4-.7,1.6-.4,3-1.3,4.4-2.9s2-2.9,2.2-4.2c.4-1.3.7-2.2.9-3l.7-2.9c8.3-32.7,17.5-65.2,26.3-97.7l2.4-9.5-.4-.3h0l-.3.7ZM1421.4-27.6h0l.7.4-.4-.3-.3-.3h0ZM1372.6-52.2h0ZM1373.9-46c-.4-.4-.9-1.1-1.1-1.6s-.4-1.1-.7-1.7v-1.7h0c1.7.7,3.6,1.3,5.3,1.7,14.4,5.3,28.3,11.9,41.4,19.7l-.7,4.6c-.4,4-1.1,8.2-1.7,12.2-.4,2.2-1.1,4.4-1.3,6.3-.4-.3-.9-.4-1.3-.9,0-4.6-.3-9.1-.3-13.8v-2.2c0-.9-.4-2-1.1-2.9-1.3-1.7-2.9-2.4-3.7-2.9l-5-2.4c-3.6-1.6-6.9-3.3-10.4-4.9l-10.2-5c-3.3-1.7-6.6-3.3-8.6-5.3l-.4.7h-.3ZM1432,.3c.4-3.6.9-6.9,1.3-10.4,4.2,0,8.3,2.2,11.5,4.9,2.2,1.7,3.7,4,5.3,6.3-6,.7-12.2.3-18.1-.9h0Z"/>
  <path class="cls-1" d="M867.2,34h0c-2.9-4.9-5.6-9.8-7.9-14.5-7-14.1-12.2-29.4-17.5-44.8v-.3c-1.3-3.7-2.6-7.5-4-11.2-3.3-9.5-7-19-11.5-28.3,2-1.3,3.7-2.9,5.3-4.6,1.7-1.7,3-3.7,4.4-6,1.1-2,2.2-4.2,2.9-6.3,1.6-4.2,2.2-8.6,2.6-12.6s.7-8.2.3-12.6-1.3-9.1-3.6-13.5-5.3-8.3-9.1-11.5c-3.7-3-7.9-5.3-12.4-6.6-4.4-1.6-9.3-2-13.9-1.7-7.9.4-15.7,2.4-22.7,6.2-3.6,1.7-6.9,4-10.2,6.9-3,2.9-6.2,6.3-8.2,11.1-1.7,3.7-2.2,8.3-1.7,12.4-2.9,1.7-5.7,3.7-8.6,5.7-1.7,1.6-4.4,2.4-6.3,4-4.2-3.6-8.6-6.9-13.1-9.9-1.1-.9-2.2-1.6-3.3-2.4-3.3-2.4-7.8-2.2-10.6.4l-.9.7c-3.6,2.9-6.3,6.3-8.2,10.4s-2.2,8.2-1.1,12.2h-.7c-.7,0-1.1,1.1-.4,1.3,5,3,9.9,6.3,14.5,9.8h0c-1.7.9-2.9,2.2-3.6,3-.7.9-1.1,1.7-1.6,2.2-1.1,1.7-2.4,3.6-3.3,5.6-.7,1.7-3,2.9-2.9,5,0,2,2.4,4.9,11.5,8.6.3,0,1.3.4,1.3.4-.7-1.6-.9-3-.7-4.4,1.1,3.6,5.3,6.2,11.2,5.6h0c5.3-.9,10.6-1.6,15.9-2.9,5.7,5.6,11.1,11.2,16.4,17.2-2.9,2.2-6.6,3.3-9.8,5.3-1.7,1.1-5.3.3-5.7,3.6-3.3-3.7-6.9-7.5-10.8-11.1-6.2-5.7-13.2-10.8-20.4-14.1-.9-.4-1.3.9-.7,1.3,12.6,10.8,22.1,25.3,31.9,39.5,4.9,7.3,9.9,14.5,15.5,21.4,5.6,6.9,11.2,13.5,17.1,19.8l9.5,10.6c.7,3.6,1.7,6.9,2.6,6.6h0c.9-.3,1.7-.7,2.6-.9l2.6,3,8.9,9.8,2.2,2.4c.7.9,1.3,1.6,2.4,2.6.4.4,1.3,1.1,2.2,1.6s2.2.7,3,.7,2,0,2.6-.4,1.1-.4,1.7-.4c11.8-3.7,22.7-9.9,32.3-18.1.4-.3,1.1-.4,1.6-.9,1.3-.7,2.9-.9,2.9-3.3,2.6-2.6,5.3-5.3,7.5-8.3,1.1-1.6,1.1-3.3.3-4.9h-.7v-.3ZM852.7,35.3v.3c-1.3-1.6-2.6-2.4-3-2h0c-4.2,3.7-9.1,7-13.5,10.2-1.1.7-2,1.1-2.6,1.3s0,0,0,0c0,0-.3-.3-.4-.7-.4-.7-.9-1.7-1.6-2.6-.4-1.1-.9-2.2-1.3-3.3-.9-2.2-1.7-4.4-3.3-6.3-1.3-1.7-2.9-3.3-5.3-4.6,0-1.3,0-3-.4-4.6-.4-1.3-1.1-2.6-1.6-3.6,1.6-1.1,3-2.2,4.9-3.3.3.4.4.7.9,1.1,0,.3,1.1,1.1,1.1.9,0-1.7.7-3,1.6-4.2,0,0,.4,0,.4-.3.7-.4,1.3-.7,2-1.1s1.6-.9,2.4-1.7c.3,0,.7-.4.9-.7h0c2-.7,4-.7,6.2-.9,2,4.9,4.2,9.8,6.6,14.5,2,4,4.2,7.8,6.3,11.5l-.3.3h0ZM832.6,47.4h0ZM832.6,47.5h0ZM832.6,47.4h0ZM790.2-125.4h.3c.7,1.3,1.3,2.4,2,3.6l-4.6-2.2c.9-.4,1.7-.9,2.4-1.1v-.3h0ZM825.4-108.6h.4c0,2.6,0,5.6-.3,8.6-4.2-.7-8.2-1.7-12.4-2.2-2.9-.4-6.2-2.6-9.5-1.7h0c3.3-2,7.3-3,11.2-3.7,3.3-.4,6.9-.7,10.2-.9h.4ZM813.2-88.9h0c2.6,1.1,5.3,2.4,7.9,3.7-.7,1.3-1.6,2.2-2.4,3s-.9.7-1.3.9c-1.3-2.6-2.9-5.3-4.4-7.8h.3-.1ZM784.2-86.9c-2.6-2-5-4.2-7-6.3,1.7.4,3.3.7,5,.9,1.6,0,3.3.9,4.9,1.3-.9,1.6-1.7,2.9-2.9,4.2h0ZM795.1-73.8c1.7-2,3.6-4.4,5-6.6,3,5.3,6.2,10.6,9.1,16.1-5.6,3-10.4,6.3-14.1,9.9-2,1.7-5,2.6-6.9,4.9-2.9-3.7-6-7.3-9.1-10.8,6-3.6,11.5-7.9,16.1-13.2l-.3-.3h.1ZM797.1-40.2c2.2-2.2,5-4,7.9-5.6,3-1.7,6.3-2.6,9.3-3.6.7,0,1.6-.4,2.2-.4,2.6,5.7,5,11.8,7.5,17.9-3.6,2.6-7.5,5-11.1,7.9-.7.4-1.3.9-2.2,1.3-.4,0-.9.4-1.1.7h0c-4.4-5.7-8.9-11.5-13.5-17.5.3-.3.7-.7.9-.9h0ZM824.4.7c-1.6,1.1-4.2,1.3-5,3.3v.3c-1.6.9-3,1.7-4.6,2.6s-2.9,1.6-4.4,2.2l-1.1.7v-.3l-1.1-2.2c-1.7-3-3.6-6-5.3-8.9-.4-.7-.7-1.3-1.1-1.7,3-2.6,6.6-4.9,10.4-6.3.9,0,1.7,0,2.4-.4,1.3-.4,2.2-.9,2.9-1.6h0c1.1,1.6,2.4,3,3.6,4.2s2.2,2.2,3,3,1.3,2,1.6,2.4c0,.4,0,.9-.3,1.3-.3.3-.7.4-.9.7v.7h-.3ZM807.6,10.5c-.7.4-1.3.7-1.6.7s0-.4,1.1-.7h.5ZM830.7-13.7c-.9-.4-1.7-.7-2.9-.7s-2.9,0-4.9-.4c2-.9,4-1.7,6.2-2.6.4,1.3.9,2.6,1.6,4v-.3h0ZM808.7-127.3c3.6.9,6.6,2.4,9.3,4.4-3.3,1.1-6.3,2.2-9.8,3.6-3,1.3-7.5.3-9.5,4.2h0c.4-2.9,1.3-6,2-9.1,0-1.1.3-2.4.4-3.6,2.6,0,5,0,7.5.7v-.3h.1ZM785.2-123c.7,3.6.4,7,.9,10.4.3,2.2-1.1,4.6-.3,6.9,0,.4.4.9.9,1.3-1.6-.3-2.9-.7-4.2-1.3-2.2-1.1-4.4-2.6-6.3-4.2-.3-.7-.7-1.3-1.3-1.3h-.4c-.4-.3-.7-.4-1.1-.7.4-.9.9-1.7,1.6-2.4,2.6-3.6,6.2-6.3,10.4-8.6h-.3ZM760.6-89.3c1.7-.9,3.3-1.3,5-2l.7.7c2.9,2.9,6.2,4.6,9.8,5.7,1.7.7,3.6.9,5.3,1.3-.7.7-1.3,1.3-2.2,2-2.9,2.4-6,4.6-9.3,6.6-.9.4-2,1.1-2.9,1.6-1.3-1.6-2.6-2.9-4.2-4.4-2.6-2.6-5.6-5.6-8.3-8.2,1.7-1.3,3.7-2.4,6-3.6l.3.3h0ZM722.1-82.6h0c.7-2,1.6-4,2.6-5.7,9.1,6.2,17.7,13.1,25.9,20.8-1.3.3-2.6.7-4,.9-8.3-5.7-17.2-10.4-26.6-13.5,1.1-.7,1.7-1.6,2.2-2.4h-.3ZM725.7-59.9c-1.7.9-2.9,2-3.6,3.3-.7,0-1.1-.4-1.6-1.1s-.9-1.6-1.1-2.4c0-1.1.4-2.2,1.3-3,1.7-1.6,5.6-.9,8.3-.9s1.3,0,2-.3c.4.4,1.1.9,1.6,1.3-2.4.9-4.9,2-7.3,3.3l.3-.3h0ZM764.5-53.7c11.2,11.9,21.7,24.6,32.3,37.6-.4.3-.9.7-1.3.9-.3,0-.4.4-.7.7-9.3-13.5-19.7-27-31.6-38.5.4,0,1.1-.4,1.6-.4l-.3-.3h0ZM757.5-13.7c1.7-1.1,3.6-1.7,5.7-2.2s4.9-.4,7-.7c1.3,0,2.4-.4,3.6-.7.7,0,2,.7,0-3.7,0-.3-.3-.7-.4-.9,4.6,6,9.1,12.2,13.2,18.4-1.7.9-3.7,1.7-5.7,2.2-2.9.9-6,1.6-9.1,2.2-.7,0-1.1.4-1.7.7-4.2-5-8.6-10.2-12.8-15.5l.3.3h0ZM781.3,14.2c2.4-1.6,5-2.9,7.8-4.4.9,1.1,1.7,2,2.6,3l6.2,7.9c.9.9,2,2.2,4.2,3.3,1.1.4,2.4,1.1,3.7,1.1h1.1c.4.4.9.7,1.3,1.1s.7.9.7.9c0,0,0-.3-.3,0,0,.3-.7.7-1.1,1.3-.4.4-1.1,1.1-1.7,1.6-2,1.6-4.4,2.4-6.6,2.9-2.9-3-5.7-6.2-8.6-9.3-3-3.3-6-6.3-8.9-9.8l-.4.3h-.1ZM818.2,63.5h0ZM820.1,56.6l-2.9-3.3c-2.6-3-5.3-6-8.2-9.1,2.4-1.6,4.4-3.6,6.3-5.7,0,.3.4.7.4.9,1.3,2.4,2.6,4.9,3.7,7.5l2,3.7c.7,1.3,1.6,2.6,2.6,4.2-1.6.7-2.9,1.1-4.4,1.6l.3.3h.1Z"/>
  <path class="cls-1" d="M359.9,186.3h.4c.4,0,.7,0,.4-.3-.3-.4-1.1-.7-2-1.1,0,0,.3.4.4.7,0,0,.4.4.7.4v.3h.1Z"/>
  <path class="cls-1" d="M696.8,121c4.9-4.9,8.9-10.6,12.2-16.4,3.3-5.7,6-11.8,8.3-17.7,2.2-6,4.2-11.9,6-18.1,3.6-12.2,5.7-25,6-38.2.3-11.2-.9-23-4.4-34.5-3.6-11.5-9.3-22.6-17.2-31.9-8.2-9.3-18.5-17.5-30.9-21.7-12.4-4.4-26.1-4.4-38.5-.9-12.4,3.3-23.7,10.6-31.9,20.4-8.2,9.8-13.1,21.4-14.4,33.2-1.3,11.1.3,22.1,4.6,31.3-.4,0-.9.3-1.3.4-1.3.9-2.9,1.7-4.2,3h0c-10.2,9.8-16.5,22.3-19.8,35.4-1.6,6.3-2.4,13.2-2.6,19.8,0,6.6.4,13.8,2.6,20.6,1.1,3.6,2.6,6.9,4.9,10.2s4.6,6,7.5,8.3c2.2,1.7,4.4,3.6,6.9,4.9-.3,1.1-.4,2.6,0,4.4s1.6,4,3.3,5.3c.3.3,1.1.9,1.7,1.1.7.4,1.6.7,2.4.9h2.4c.7,0,1.3,0,2.2-.3,2.9-.9,4.6-2,6-4,4.2,1.1,8.3,2.2,12.6,2.9,6.3,1.1,12.8,1.7,19.4,1.7,13.1,0,26.7-2.2,39.1-8.3,6.2-3,11.9-7.3,16.8-12.2h.3v.3ZM615.5,122.5c-2-.7-4-1.1-5.7-2-.3,0-.4-.4-.7-.7-.3,0-1.1-.9-1.1-.9v.7c-2.9-1.1-5.7-2.4-8.2-4-4.6-2.9-8.2-6.3-10.2-10.8-4.4-8.6-4-21.4-1.6-32.5.9-3.6,2-6.9,3.3-9.9s2.9-6.2,4.4-9.1c3-5.3,6.2-10.2,9.5-15.2.9.9,1.7,1.7,2.6,2.4,1.7,1.3,3.7,2.4,5.6,3.3h0c-10.6,6.2-17.2,16.8-18.5,28-.7,5.6,0,11.2,1.3,16.8,1.6,5.6,4,10.8,8.2,15.5,2.4,2.6,5.3,4.9,8.6,6.3s6.6,2.6,10.2,3c6.9,1.1,13.5.4,19.8-.4,5.7-.9,11.5-2.6,17.2-4.9v.4h0l.3.7v.4c1.7,4.2,6.6,6.2,10.6,4.4,3.7-1.6,5.7-5.3,4.9-9.1,0-.4,0-.9-.3-1.3,1.6,0,3-.4,4.2-1.7h0c4-4.9,6-10.2,7.8-14.5l4.9-12.8,4.9-12.8c1.6-4.4,3.3-8.9,4.6-13.5s2.6-9.8,3-15.1.3-10.8-1.1-16.4c-.9-3-2-6.2-3.3-8.9,0-.7.4-1.3.7-2.4,0-1.1,0-2.6-.4-4.2-.3-.7-.7-1.6-1.1-2l-.4-.4-.4-.4c-.4-.4-.9-.9-1.6-1.3s-1.6-.9-2.4-.9h-1.7c-1.6-2-3.3-4-4.9-5.7-2.6-2.9-5.3-6.2-9.1-9.8-1.7-1.7-4-3.3-6.3-4.9s-5.3-2.6-8.2-3.3c-5.7-1.3-11.5-.9-16.8.4-5.3,1.6-10.2,4.2-14.1,7.5-8.2,6.9-12.8,17.1-13.1,26.6,0,5.7,1.3,11.2,4.2,15.9-1.7,1.3-3.6,2.9-4.6,4.9-1.3,2.2-2,4.4-2.4,6.6-.4,2.4-.4,5-.3,7.5-2.9-1.6-5.3-4-7.5-6.9-.7-.7-1.1-1.6-1.6-2.4.3-.9.4-1.6.4-2.4,0-1.7-.7-3.3-2.2-4.4-.4-.4-1.1-.7-2-.9-.4-1.3-.9-2.9-1.3-4.4-2.6-10.4-1.7-22,1.7-32.3,3.4-10.3,10.2-19.7,19.2-26.1,8.9-6.6,19.8-10.2,30.7-10.6,11.1-.4,22,2.9,31.2,9.1s16.5,14.8,22,24.7c5.3,9.9,8.2,20.8,9.1,32,.9,11.2,0,22.6-2.4,33.9-1.3,6-2.9,11.9-4.9,17.9-2,6-4,11.8-6.6,17.2-4.9,11.1-11.5,21.2-20.6,28-8.9,6.9-20.1,10.4-31.9,11.1-11.5.9-23.7-.7-34.9-3.7l-.7.4h0v.3ZM630.6,7.1c2.2-7.5,7.3-14.4,14.1-18.4,6.9-4,15.5-4.9,21.7-1.1,3,1.7,6,4.6,8.9,7.9,2.2,2.6,4.4,5.3,6.3,7.9-1.6,1.3-3,2.6-4.6,3.7-4,2.9-7.9,5.6-11.9,7.9-3.6,2.2-8.2,3-11.5,5.7-1.7,1.3-3.3,3.3-4.2,6.3-2.9-3.6-6.6-5.6-10.4-6.6-2.6-.7-5.7-.9-8.9,0-.7-4.6-.4-9.3,1.1-13.9l-.7.3h.1ZM654.9,91.9c0-7-.9-14.1-2.2-21-.4-3-1.3-6.2-2-9.3s-1.7-6.2-2.6-8.9c-.7-2.6-.9-5,0-6.3.4-.7,1.1-1.3,1.3-1.6h.7s.7.7,1.3,1.6,1.1,2.2,1.6,3.6c1.1,3,2.2,6.2,2.9,9.1.9,2.9,1.1,5.6,1.1,8.3s-.3,6-.4,9.5v13.9c-.7.4-1.3.7-1.7,1.1h.3-.1ZM630.3,35.6c.9-1.1,1.7-.9,2.9-.7.9.4,2,1.1,2.6,2,.3.4.4.9.3,1.1,0,0,0,.9.7,2.2-.4.9-.9,1.7-1.1,2.6-.4,1.3-.7,2.9-.9,4v2c-1.3-.9-2.6-2.2-3.6-3.6-1.1-1.7-1.7-3.7-2-5.6,0-1.7.3-3.7,1.1-4.6v.4h0ZM689.2,17.9h.3c.7,1.7.9,3.6,1.1,5.6-2.2-1.1-4-1.6-4.2-1.3h0c-2.4,6-7.8,10.2-12.8,13.9-5,3.7-5.6,1.7-7.8,3.7-.7.7-1.1,1.3-1.7,2.4-.9-1.7-2-3.6-3.7-5.3s-2-1.7-3.3-2.6c5.3-3.3,11.1-6,16.8-8.9,4.9-2.4,10.2-4.6,15.1-7.3l.4-.3h0ZM672.8,78.6v-9.8c-.4-3.6-1.1-7.8-2-11.2-.4-1.6-.9-2.9-1.6-4.2,4.6-2.9,9.3-5,14.1-7.8,1.3-.7,2.9-1.6,4.2-2.4-1.1,3.6-2.6,7-4.2,10.6l-10.6,24.7h0ZM630.6,58.6c1.7,0,3.7-.4,5.6-1.6.4,1.6.9,2.9,1.1,4,1.3,5,2.4,10.2,3.3,15.5,1.3,6.3,2.9,12.6,5.7,19.2-4.2,1.6-8.6,2.6-13.1,3.3-4.9.7-9.8.7-13.5-.4s-6.2-3-8.6-6.3c-1.7-2.6-3-6.3-3.6-9.9s0-7,.3-10.4c.4-3.3,1.1-6.6,2.2-10.4s2.2-7.9,4.9-13.2h.3c.7-.3,1.6-.7,2.2-.9.9,2.6,2,5.3,4,7.3,2.2,2.4,5.6,4,8.9,4h.4Z"/>
  <path class="cls-1" d="M533.9,12.8c-1.1-3.6-2-6.9-2.9-9.8s-1.3-6-1.6-8.9c0-1.7-.3-3.7-.3-5.6v-3.7h0v-3c-.3-.7-.4-1.1-.4-1.6-.4-1.7-1.1-3-1.6-4.4s-1.1-2.4-1.7-3.6-1.3-2.2-2.2-3.6l-.7-.9-.9-1.1c-.7-.9-2-2-3.3-2.9-2.4-1.6-4.9-2.2-6.6-2.4h-4.4c-2,0-4,.4-6,.7-4,.4-7.9,1.3-11.8,2.4-2.4.7-4.2,1.7-5.3,2.9-5.3.4-10.6,1.1-15.9,1.6-6.2.7-12.4,1.3-18.5,2.2-.9,0-1.6.3-2.6.4-.7,0-1.1.3-1.7.4-.4,0-.9.4-1.3.7-1.7.9-3.3,1.7-4.6,3-2.9,2.4-5.3,6-6.2,9.9-.7,4,0,7.5.4,10.6l1.6,9.1,3,18.1,1.6,9.1c.4,3,.9,6.2,1.7,9.3s2,6.3,3.7,9.5c.9,1.6,2.2,3,3.6,4.2,1.3,1.3,2.9,2.2,4,3,2.6,1.7,3.6,2.9,4.4,5.3.7,2.2,1.1,5.6,1.6,8.3.9,6.2,1.7,12.2,2.2,18.1s.9,12.2.7,18.1c0,6-.9,11.9-1.6,18.1-1.6,12.2-3.6,24.7-2.4,37.8.4,3.3.9,6.6,1.7,9.8.9,3.3,2,6.3,3.7,9.8,1.7,3,4.4,6.3,7.9,8.3,3.7,2,7.3,2.6,10.6,3,5.6.7,10.8.7,16.4-.3.7,0,0,.4-.9.7-.9,0-2.2.4-3.3.7-.7,0-.9,0-1.3.3-.3,0-1.6,0,3,0s14.4-.4,14.4-.4h0c-.9-.3.4-.7.4-.9s6.3-.7-10.8-.4c8.3-1.6,16.5-5,23.7-10.2,1.6-1.1,2.9-2.2,4.2-3.6,1.3-1.1,2.6-2.4,4.2-4.4,1.3-1.7,2.6-4.4,3-7s0-4.9,0-6.9c-.4-2-.9-3.7-1.1-5.3-.4-1.7-.9-3.3-1.3-4.9-.9-3.3-1.7-6.6-2.6-9.8-3.7-13.1-7.9-25.7-11.2-38.2-1.6-6.2-3-12.6-4.2-18.8-.4-3-.9-6.2-1.3-9.5l-.4-4.6v-4.2c0-2.9.4-5.6,1.3-7,.4-.9.9-1.6,1.3-2s.9-.7,2-1.3c1.1-.4,2.6-1.1,4.4-2,2-.9,4.4-2.4,6.3-4.4,4-3.7,6.2-8.3,7.5-13.1,1.1-4.6,1.3-9.1.9-13.5-.4-4.2-1.6-8.2-2.4-11.8h-.3.1ZM515.5-15.9h.4c.3,0,2.4,0-.4,0ZM518.7,35.8c-.7,1.7-1.7,3-3,4-.7.4-1.7,1.1-3.3,1.7s-3.3,1.6-5.3,2.9-4,3.3-5.6,5.3-2.4,4.2-3,6.3c-2.6,8.3-1.7,16.1-1.1,22.6.9,6.6,2,13.2,3.6,19.8,3,13.1,7.3,25.4,11.2,37.6,2,6.2,4,12.2,5.7,18.1.9,3,1.7,6,2.4,9.1.4,1.6.7,2.6.7,3.6v1.3s-.3.4-.9,1.3l-2.6,2.6c-2,1.7-4.2,3.3-6.6,4.6-4.6,2.6-9.9,4.6-15.2,5.6-2.6.4-5.3.7-7.9.7s-2.6,0-4-.3c-1.3,0-2.6-.3-3.7-.7-2.2-.7-2.6-.9-4-2-1.1-1.1-2.2-3-3-5.6-3-8.6-3.3-18.8-2-29.6,1.1-10.8,3.3-22.3,4-34.9.4-12.6-.9-24.7-2.4-36.5l-.7-4.4c0-1.6-.4-2.9-.7-4.9-.4-1.7-.9-4-1.7-6.2-.4-1.1-1.1-2.4-2-3.6s-1.7-2.2-2.6-3c-2-1.7-3.6-2.9-4.6-3.6-1.1-.9-1.7-1.3-2.2-1.6-.9-.7-1.6-2-2.4-3.7-.7-1.7-1.3-4.2-1.7-6.9-.4-2.9-1.1-5.7-1.6-8.3-1.1-5.7-2.2-11.5-3.6-17.1-1.1-5.6-2.4-11.2-3.7-16.8-.7-2.6-.9-4.4-.7-5.6,0-1.1.7-2.4,2-3.7s1.3-1.3,2.2-1.7c0,0,.4-.3.7-.4h0c.3.4-2.4-6.3-1.1-2.9l.4.9.7,1.7h1.3c2.4-.9,5.3-1.6,7.9-2.2,5.6-1.1,10.8-2.4,16.1-3.6,2.9-.7,5.7-1.3,8.9-2,1.6,3,6.3,5.7,13.2,5.7h12.2c1.1,1.6,2.4,4.2,2.9,5.7h0v2.4c0,1.7,0,3.6.3,5.3.3,3.6.9,7,1.6,10.6.7,3.6,1.7,6.9,2.9,9.9,2,6.2,3.7,11.8,3.7,16.4s-.4,4.6-1.1,6.3v-.9h0l-.5.4ZM511.6-15.2h0Z"/>
  <path class="cls-1" d="M511.2,34.3v-.4c-3-15.1-3.7-30.5-2.6-45.8.3-4-2.6-7.5-6.6-7.8h-1.3l-3-.4-12.2-.9-8.9,9.9c-1.1-.9-2.6-1.7-5.3-2.6-1.1-.3-2.4-.4-4-.7-1.6,0-3,0-4.6.3,1.1-.7,2.2-1.6,3.3-2.2.4-.3.3-1.6-.3-1.6-5,.4-9.9,1.7-14.1,4h-.4c-1.6,1.1-2.4,2.9-2.2,4.6,1.3,7.3,2.6,14.5,4,22l1.7,11.1.7,5.6c.3,1.7.4,3.7,1.1,6,.4,1.1.9,2.2,1.7,3.6.9,1.1,2.2,2.2,3.7,2.9s2.9.7,4,.7h14.1c7.5-.4,15.1-1.1,22.7-2l4.4-.7c2.4-.4,4.2-2.6,4-5.3h.3ZM475.6-10.2h.4c-.4.4-.9.3-.4,0ZM465,34.5h0ZM465.1,34.3h0ZM473.7,29.9h-4.6v-.7c-2-13.2-5-26.3-11.8-38.2.4-.7,1.1-1.1,1.7-1.6-.7,1.3-.7,2.9,0,4.2h0c1.6,3.3,3.3,6,6.2,8.9,1.3,1.3,3,2.6,5.6,3.7.7.3,1.3.4,2,.7.7,0,1.6.3,2.2.4h2.4c.7,0,1.3,0,1.7-.3,4.6-1.1,8.3-4,10.8-7.5.7-1.1,1.3-2.2,1.7-3.6h1.1c0,10.8,1.3,21.7,3.3,32.5-1.1,0-2.2.4-3.3.4-6.2.9-12.6,1.1-19,1.1l-.3-.3h0l.3.3Z"/>
  <path class="cls-1" d="M491.7,143.9c-.4,1.3-.4,3.6,0,6-.4,0-.9.4-1.3.7-3,1.7-5.3,5-6,8.3s-.3,6.9,2,9.9c1.1,1.6,2.6,3,5.3,3.7,2.4.4,4.4,0,6-.4,3-.9,6.6-2,9.8-5,1.6-1.7,2.9-4,3.6-6.6s.4-5.3-.3-7.8-2-4.9-4-6.9-4.2-3.3-6.6-4.4c-1.3-.7-2.9-1.3-4.4-1.1-1.6,0-2.9,1.1-4,3.6h-.1ZM497,159.2h0ZM495.7,158.6v.3h-.4v.4-.9c.3,0,.4,0,.4.3h0Z"/>
  <path class="cls-1" d="M1097.7,13.8c-3.3,2.6-4,7.8-1.1,11.1,1.7,2,4.2,3,6.6,2.9h0l19.4-1.3c1.6,7.9,3.3,15.9,4.9,23.9.9,4.4,5.3,7.3,9.8,6.3,3-.7,5.6-2.9,6.2-6h0l4-14.1,1.6-5.6h1.3c0,.3,7.3,1.3,7.3,1.3l14.4,2.4h.4c4.6.9,8.9-2.2,9.8-6.9.4-2.2,0-4.4-1.6-6.2l-1.1-1.7c-2.2-3-4.9-5.3-7.5-7.3s-5-3.6-7.3-4.9c-1.6-1.1-3-2-4.2-3l4.9-4.9c3.6-3.7,7-7.3,10.6-11.5.4-.4.9-1.1,1.6-1.7l.4-.7v-.4c.3,0,.7-.7.7-.7v-.4c.4-.4.7-.7.9-1.1v-.4s.4-.4.7-1.1c0-.7.3-1.3.3-2,0-1.6-.3-2.9-.7-4.2,0-.4-.7-1.7-1.6-2.6s-2-1.7-3.3-2.4-2.6-.9-3.7-.9h-3.4c-.4,0-.7.3-.9.4-.4,0-.7.4-1.1.4l-.7.4-1.1.7-1.7,1.1c-2.4,1.6-4.4,3-6.6,4.6-4.2,3-8.3,6.3-12.4,10.2l-2,2c-.9-1.3-1.6-2.2-2.4-3.3-1.7-2.2-3.6-4-5.3-5.7-3.7-3.6-7.8-6.6-11.9-9.3-2.2-1.3-4.2-2.4-6.6-3.3-2.2-.9-4.6-1.7-6.3-1.6-.4,0-.9,1.3-.4,1.3,1.3.7,3.3,2,4.9,3.3l.4.4c-3,.9-5.7,4-5,8.2h0c.7,5,1.6,9.9,3,14.5.7,2.4,1.6,4.6,2.6,7-1.7,1.1-3.6,2.4-5.3,3.7-3.7,2.9-7,5.7-10.4,8.3l-.4.4h-.7ZM1141-3.6h0ZM1131.1-5.5l.9,1.7c.7,1.3,1.3,2.4,2.4,3.7,1.1,1.1,2.6,2.9,5.3,3.3,1.3,0,2.6,0,3.7-.4.7-.3,1.1-.7,1.7-1.1h0c-1.1,1.1-1.3,2.9-.4,4.2h0c1.6,3,4,5.6,6.3,7.5s4.9,3.7,7.3,5h.3l-7.5-1.6-6-1.1h-2.2c-.9,0-2.2.7-3,1.3s-1.6,1.7-1.7,2.2-.4.9-.4,1.3l-.9-5c-.4-2.9-2.6-5-5.6-5.7,2.4-2.6,3-6.3,1.3-9.8,0,0,0-.4-.4-.7l-.4-.9c-.4-.7-.9-1.6-1.3-2.2-1.1-2.4-2-5.3-2.6-8.2.9,1.3,2,2.9,2.6,4.2.3.4.4.9.7,1.3v.7h0Z"/>
  <path class="cls-1" d="M384.1,90.5c3.7-5,6.9-10.2,9.9-15.7,2.9-5.6,5.6-11.5,7-17.7,1.7-6.2,2.6-12.2,3.7-17.9.4-2.9.9-6,1.1-9.3s0-3.6,0-5,0-3.3-.4-4.9c-.7-6.3-2.2-12.6-4.4-18.8-1.1-3-2.4-6.2-4-9.1-.9-1.6-1.7-3-2.6-4.4s-1.7-2.6-2.6-3.7c-3.7-5-8.2-9.8-12.8-13.9-4-3.7-8.3-7-13.1-10.2-2.2-1.6-4.6-3-7-4.6s-5.3-3-7.9-4.2c-5.6-2.4-11.5-4-17.5-4.9s-12.2-.7-18.1.4c-3,.4-6,1.3-8.9,2.4l-2.2.9-1.3.7c-.9.4-2,.7-3.3,1.1-2.4.9-5.3,1.7-8.3,3.3l-6.6,3.7c-4.4,2.6-9.1,5.3-13.2,8.9-2.4,2-4.6,4.4-6.3,7-1.1-.9-2.2-1.6-3.6-2.4-.9-.4-1.6-1.1-2.4-1.6,0-1.6-.7-2.9-1.3-4.2-1.6-2.4-4.9-3.7-7.9-2h0c-1.3.9-2.6,1.6-4,2.4-1.7-2.2-3.3-4.6-4.6-7-2-3.3-6.2-4.6-9.5-2.6-.3,0-.7.4-.9.7-10.2,7.9-20.4,16.1-30.3,24.6l-7.3,6.3-3.7,3.3-.9.9c-.4.3-.7.7-1.1,1.1-.9.9-2,2-2.9,4-.4.9-.9,2.2-.9,3.3v3.7c.4,2.2,1.3,3.6,2,4.4,1.1,1.6,2,3,3.3,4.4.4.4.9.9,1.3,1.6h-.3c-2.4,2-4.4,4.2-6.3,6.2-2.4,2.6-2.6,6.6-.7,9.5h0l8.9,12.6,1.1,1.6c.4.4.7.9,1.3,1.7.7.9,2,2.4,4.9,3.6,1.3.4,3,.7,4.6.4,1.6,0,2.6-.7,3.6-1.1,1.7-.9,2.4-1.7,2.9-2.2l1.3-1.1c.9-.7,1.7-1.6,2.6-2.2.4-.4,1.1-.7,1.6-1.1h0c.3.7.4,1.1.7,1.6s.4.9.7,1.1c.4.9,1.1,1.7,2.2,2.6.9.9,2.6,1.7,4.6,1.7s2,0,2.6-.4c.7-.3,1.3-.7,1.7-.9l2-1.3,4-2.6,8.2-5,16.4-9.9,8.3-5.3,2-1.3c.7-.4,1.3-.9,2.2-1.6,1.6-1.3,3.6-2.6,5.6-5.6,1.1-1.7,2-4.2,2.2-6.9,0-2.6-.7-5.3-1.7-7-2-3.3-4.6-4.4-7.3-4.6.9-1.6,1.6-3.3,2.2-4.9.4-1.3.9-2.4,1.3-4.2.4-1.6.9-3.6.4-5.7,0-1.1-.7-2.2-1.1-3s-1.3-1.6-1.7-2c-.7-.4-1.3-.9-1.7-1.1-.4,0-.7-.4-1.1-.7,2.4-1.7,5.3-3.3,8.2-4.6,4.9-2.2,10.2-4,15.5-6.2l4-1.6c1.1-.4,2.4-.9,3.7-1.1,2.6-.7,5.6-1.1,8.3-2.2,1.7-.7,3.6-1.1,5.3-1.6l1.3,3.6c.7,1.7,1.3,3.6,1.7,5,.4,1.7.9,3.3,1.1,4.9v.4c.3,1.7,1.7,2.9,3.6,2.6h.3c3.7-.9,7.5-.4,11.5.7s7.9,3,12.2,4.6c4,1.6,7.8,3.3,11.2,5.6,3.3,2.2,6.6,4.9,8.3,7.8.4.7.7,1.1,1.1,1.7l1.1,2.2,2.2,4.4c1.6,2.9,2.9,6,3.7,8.6,0,.7.4,1.3.4,1.7v6.3c0,3,0,6.2-.9,8.3-.3,1.1-.9,2-.7,1.6,0-.3,0,0-.7.7-.4.4-1.1,1.1-1.7,2.4-.7,1.1-1.3,3.3-1.1,5.3,0,2.2,1.1,4,1.7,5,.9,1.1,1.6,1.7,2,2.2l.9.9c.4.4,1.1,1.1,1.6,1.7,1.1,1.1,1.7,2.2,3,3.7,1.3,1.7,4,4.6,6.6,6,.7.3,1.3.4,1.7.7-1.1,2.6-2.2,5-3.6,7.8-2.6,5-6.2,10.2-9.5,14.8-2.2,2.9-4.6,5-6.6,7.5-1.1,1.1-2,2.2-2.6,3.6-4.9-4-9.9-7.5-15.7-10.6-.7-1.3-2-2.4-3.3-3-2.4-1.3-5.3-1.7-7.3,0h0c-1.1,1.1-2.4,2.2-3.7,3.3,0-.3,0-.7-.3-.9-.3-.4-.4-.7-.4-.9l-.4-.7c-.4-.7-1.1-1.6-1.6-2.2-.3-.4-.4-.7-.9-1.1s-1.1-.9-1.7-1.3c-.9-.4-1.7-.7-2.9-.7s-2,.3-2.9.7c-1.7.9-2.4,1.7-3,2.2l-1.7,1.6c-1.1,1.1-2.4,2-3.6,2.9-2.4,1.7-4.9,3.7-7.5,5.6l-15.7,10.6c-5.6,3.7-10.8,7.9-16.1,12.8-.9.9-1.6,1.3-2.4,2.2-.4.4-.9.9-2,2.9-.4.9-.9,2.6-.7,4.9,0,1.1.4,2.2,1.1,3,.4.9,1.1,1.6,1.6,2,1.1,1.1,1.7,1.3,2,1.6,0,0-.4-.3-.7-.4h-.3v-.4h0c.4.4,1.3.9,2.2,1.3,1.1.4,2.2.9,4,1.1.9,0,1.7,0,2.9-.4-1.3,2-2.9,3.7-4.2,5.7-2,2.6-1.7,6.3.3,8.9h0l7.3,8.9,3.6,4.4,1.7,2.2.9,1.1c.3.4.9,1.1,2,2,.4.4,1.1.9,2,1.3.4,0,.9.4,1.3.7h4.2c.4,0,.9,0,1.3-.4.7-.3,1.3-.4,1.7-.7,1.7-.9,2.6-1.6,3.7-2.4.4-.4,1.1-.9,1.3-1.1l1.1-.9,2.2-2c.9-.9,1.7-1.6,2.6-2.4,1.1,1.6,2.2,3.3,4.2,5.3s6.6,3,9.8,1.1h.4c9.1-6.3,18.8-12.8,28-20.6,2.2-2,4.6-4,6.9-6.2l1.7-1.7c.4-.4,1.1-1.3,2-2.4.4-.4.9-1.1,1.1-2,.4-.7.7-1.7,1.1-2.6,0-.9.3-1.7.4-2.4v-2.2c0-2.6-.9-4.9-1.6-6.6-.9-1.7-1.7-3.3-2.6-4.9-.3-.4-.4-.7-.9-1.1,1.6,0,3,0,4.6-1.3h0c5.6-4.2,9.9-9.3,13.8-14.4h-.5.3ZM217.3-14.4c4.9-3.7,9.8-7.5,14.8-11.2,0,0,0,.3.3.4,1.3,1.7,2.6,3.6,4,5.3-5.3,4.6-10.8,9.1-16.8,13.1-2.6,1.7-5.3,3.6-8.2,4.9-1.3.7-2.6,1.6-4.2,2.2s-2.9,1.6-4.4,2.4c-1.6.9-3,1.7-4.6,2.9-.4-.7-.9-1.3-1.3-2,0-.4-.4-.7-.7-1.1l1.7-1.6c6.3-5,12.6-10.2,19.2-15.2h.3ZM201.2,9.1l.3.3s0,.3.3.4c0,0-.4-.4-.7-.7h.3-.1ZM201.5,8.2h-1.1s-.3-.3-.4-.4h.4c.3.1.5.3.7.4.3,0,.4,0,.3,0h.3-.1ZM195.6,1.6h0ZM212.3,31c-2.2,1.6-4.6,3.3-6.9,4.9-1.1.9-2.2,1.7-3.3,2.6,0,0-.3,0-.4.3l-.4-.7-2.2-3.3-4.4-6.9-.7-.9c1.6-1.3,3-2.6,4.6-3.7h0c.7,0,1.1,0,2-.4,1.1-.4,2.2-1.1,3-2h0l.7-.9c.9-.9,1.7-2,2.9-2.9,2-1.7,4.4-3.6,6.9-5.3,5.3-3.6,10.6-7.5,15.2-11.8,4.2-3.6,9.3-6.2,13.1-10.2,1.6-1.6,2.6-3.3,3.7-5.6,1.3-.3,2.4-.9,3.6-1.7h0c2.9-2.6,5.6-4.9,7.9-8.9v-.3c.3.4.7.9,1.1,1.3l2.6,3.3s.3.3.4.4v.3c0,.4.7,1.1,1.1.9v.3c.3.3.7.7.9.9l.7.7c.9.7,1.1,1.1,1.1,1.3,0,0,0,.9-.3,1.7-.3.9-1.1,2-1.6,3-.7,1.1-1.3,2.2-2,3.3-5.7,8.6-13.8,15.7-22.3,22-8.6,6.2-18.1,11.5-27.2,17.9v.3h.3ZM375.9-9.5c-.7-1.1-2-3.3-3.3-4.9s-2.9-3-4.4-4.4c-3.6-2.9-7.3-5.3-11.1-7.3-2-1.1-3.7-2-5.7-2.9s-4-1.7-5.6-2.4c-3.3-1.3-7-3-11.9-4.2-3-.7-6.6-.9-10.2-.7-.9-1.6-2-2.9-3-4-.7-.9-1.3-1.6-2.2-2.4,1.3,0,2.9-.3,4.2-.3,10.6-.4,21.4,2.2,30.5,7.8,9.3,5.6,17.9,12.6,24.7,21,1.7,2.2,3.6,4.6,5.3,7,.9,1.1,1.6,2.4,2.2,3.6s1.3,2.4,1.7,3.7c2.2,5,3.7,10.6,4.6,16.1.4,2.9.7,5.6.7,8.3s0,5-.7,7.9c-.4,2.6-1.1,5.7-1.7,8.6,0,.4,0,.9-.3,1.1-.3-.3-.7-.4-.9-.9l-3.3-3.6c-.7-.7-1.1-1.1-1.7-1.6l.7-1.3c.3-.7.4-1.3.7-1.7.7-2.4.9-4.4,1.1-6.3v-5.7c0-1.7,0-3.6-.4-5.3v-2.6c-.3,0-.4-1.3-.4-1.3,0-.4-.3-1.3-.4-1.7-.7-2.4-1.3-4.2-2.2-6-.7-1.7-1.6-3.3-2.4-4.9-1.7-3-3.3-6-5-8.6l.7-.3h-.3ZM284.5,124.4v-.7s0-.3.3-.4c0-.3.3-.7.4-1.1l.4-.7c0-.3.4-.7.7-.9l.4-.4h0v-.4c.4-.7.7-1.1.4-1.6,1.1-1.1,2.4-2.4,3.7-3.6.4-.4,1.1-.9,1.6-1.3-.3.7-.4,1.1-.7,1.7-2.6,3-5,6.2-7.5,9.5l.3-.3h.1ZM299.2,150.8h.3-.3ZM308,143.5l-3.6,3-1.7,1.6c-.7.4-1.3,1.1-1.7,1.3h-.3l-.7-.9-8.9-11.2c4.9-6.2,9.9-12.2,15.2-17.7,4-4,7.8-7.3,12.2-10.4s9.1-6,14.1-9.1c3-2,6.2-3.7,9.1-6.2s5-5.6,6.2-9.5v-.7c3.6,4.4,6.9,8.9,10.4,13.2-.9.9-2,1.7-2.9,2.4v-.4c0-.3-.9-1.1-.9-.9-5.7,8.9-13.5,15.5-22,21.4-4.4,3.3-9.3,6.2-13.9,9.3-2.4,1.6-4.6,3.3-7,4.9-1.6,1.1-3.6,1.3-1.7,5.6,0,.4.4.9.9,1.3-.9.7-1.7,1.6-2.6,2.2l-.3.7h0v.3ZM359.2,120.3s0,.4-.4.9c-.4.7-1.7,1.7-2.6,2.9-2,2-4,3.7-6.2,5.6-7.8,6.3-15.9,12.4-24.3,18.1-.7-.9-1.3-2-2-2.9,0,0,0-.3-.3-.4,6.2-6,12.8-11.2,19-17.2,4.9-4.6,12.2-7.3,13.9-15.2,1.6,2.4,2.9,5,3,7.5v1.1l-.3-.3h.1Z"/>
</svg>