<?xml version="1.0" encoding="UTF-8"?>
<svg id="uuid-d8bc85b5-dab5-472d-8f47-cc1c93b2863d" data-name="Ebene 1" xmlns="http://www.w3.org/2000/svg" viewBox="0 0 1920 1372.15">
  <defs>
    <style>
      .uuid-39830c4d-be7d-45a4-9b82-e9348e214995 {
        fill: #fedcab;
      }

      .uuid-39830c4d-be7d-45a4-9b82-e9348e214995, .uuid-adae1184-d65a-41a1-b141-ed1eb635f348, .uuid-2a6d24e7-c719-48bc-a53b-6a364452cbde, .uuid-007775e7-7f24-42a8-8a25-db1dfa42956a {
        stroke-width: 0px;
      }

      .uuid-adae1184-d65a-41a1-b141-ed1eb635f348 {
        fill: #cfe3f5;
      }

      .uuid-2a6d24e7-c719-48bc-a53b-6a364452cbde {
        fill: #cfe3f5;
      }

      .uuid-007775e7-7f24-42a8-8a25-db1dfa42956a {
        fill: #feddac;
      }
    </style>
  </defs>
  <g>
    <path class="uuid-007775e7-7f24-42a8-8a25-db1dfa42956a" d="M483.82,91.74c-20.2,0-37.71-.97-50.61-3.41-3.17-.6-5.25-3.65-4.65-6.82.6-3.17,3.65-5.24,6.82-4.65,40.42,7.63,130.51.12,202.91-5.92,34.35-2.87,64.02-5.34,83.67-5.84,151.83-3.89,268.73.52,381.78,4.78,148.52,5.6,288.8,10.88,485.23-4.52,3.21-.25,6.02,2.15,6.27,5.36.25,3.21-2.15,6.02-5.36,6.27-197.1,15.46-337.71,10.16-486.58,4.55-112.87-4.25-229.58-8.65-381.05-4.77-19.31.49-48.82,2.96-83,5.81-50.64,4.23-109.87,9.17-155.44,9.17Z"/>
    <path class="uuid-007775e7-7f24-42a8-8a25-db1dfa42956a" d="M578.21,174c-.36,0-.72-.03-1.08-.1-126.46-23.71-147.53-87.23-148.36-89.92l-1.41-4.56L567.71,2.6c2.83-1.55,6.37-.51,7.92,2.32,1.55,2.83.51,6.37-2.32,7.92l-131.51,71.98c2.84,5.65,9.35,16.25,22.49,28.02,32.74,29.31,80.6,43.15,114.99,49.6,3.17.59,5.25,3.64,4.66,6.81-.53,2.8-2.98,4.76-5.73,4.76Z"/>
  </g>
  <g>
    <path class="uuid-adae1184-d65a-41a1-b141-ed1eb635f348" d="M1270.5,419.02c-.13,0-.26,0-.39-.01-90.96-5.96-149.45-10.47-192.16-13.77q-112.38-8.67-301.14-3.71c-21.96.58-46.48,1.22-74.01,1.93-62.36,1.6-177.33-.22-238.48-11.77-3.17-.6-5.25-3.65-4.65-6.81.6-3.17,3.65-5.25,6.82-4.65,59.83,11.3,176.52,13.09,236.02,11.57,27.53-.71,52.04-1.35,74-1.93q189.36-4.98,302.34,3.74c42.68,3.29,101.13,7.8,192.02,13.76,3.21.21,5.65,2.99,5.44,6.2-.2,3.09-2.77,5.45-5.82,5.45Z"/>
    <path class="uuid-adae1184-d65a-41a1-b141-ed1eb635f348" d="M620.98,492.92c-.61,0-1.23-.1-1.85-.3-81.15-27.05-153.19-98.25-157.7-102.77-2.04-1.88-2.81-4.67-2.06-7.55.78-2.98,3.37-7.72,16.68-17.93,9.03-6.94,21.12-14.86,34.04-22.3,32.07-18.48,65.03-31.86,90.42-36.71,3.17-.6,6.22,1.47,6.82,4.64s-1.47,6.22-4.64,6.82c-23.75,4.54-54.89,17.14-85.43,34.58-26.28,15.01-41.17,27.18-45.47,32.27,12.86,12.36,79.4,74.01,151.01,97.88,3.06,1.02,4.71,4.32,3.69,7.38-.81,2.44-3.09,3.99-5.53,3.99Z"/>
  </g>
  <path class="uuid-007775e7-7f24-42a8-8a25-db1dfa42956a" d="M1900.67,1081.3c-7.95-1.84-13.83-2.3-18.96-4.51-57.2-24.66-107.79-58.19-142.57-111.28-23.21-35.43-34.08-75.96-44.48-116.5-27.45-107.07-34.11-215.83-28.41-325.9,5.84-112.67,18.01-224.68,31.51-336.6,3.84-31.82,5.81-63.9,10.59-95.56,4.01-26.56,16.99-47.54,45.52-54.57,20.98-5.16,40.15-2.27,57.91,11.02,28.04,20.98,50.55,47.28,73.07,73.65,5.05,5.91,9.52,12.4,15.03,17.82,8.72,8.57,11.67,18.93,9.26,30.24-7.82,36.69-13.86,74-25,109.69-28.73,92.01-37.58,186.32-38.35,281.96-.74,91.79,6.33,183.22,10.84,274.8,3.91,79.59,19.82,156.56,40.95,232.85.93,3.37,1.63,6.81,3.08,12.91Z"/>
  <path class="uuid-adae1184-d65a-41a1-b141-ed1eb635f348" d="M1369.15,298.98c13.08-1.82,23.49,2.4,31.93,9.18,16.59,13.34,33.25,26.93,47.81,42.37,27.23,28.86,48.54,62.07,67.45,97.02,19.26,35.59,24.62,72.57,15.71,111.75-12.12,53.32-24.9,106.49-36.49,159.92-3.68,16.97-6.14,34.55-6.33,51.89-.86,76.75-2.35,153.55-.36,230.25,1.51,58.22,8.67,116.26,11.91,174.46,1.92,34.51,4.11,69.48.69,103.7-3.71,37.1-26.93,63.67-60.43,80.25-13.29,6.58-26.85,6.24-40-1.37-28.13-16.27-48.4-40.5-67.93-65.73-16.22-20.97-22.68-45.04-23.37-70.72-2.43-90.34-5.77-180.69-5.86-271.04-.07-63.23,10.13-125.88,22.26-187.86,18.39-93.99,38.55-187.63,57.75-281.46,11.1-54.25,5.11-107.61-9.23-160.45-1.92-7.06-3.54-14.2-5.52-22.18Z"/>
  <g>
    <path class="uuid-39830c4d-be7d-45a4-9b82-e9348e214995" d="M122.93,121.65h-6.59v-51.85h30.29v5.73h-23.7v17.97h21.91v5.73h-21.91v22.41Z"/>
    <path class="uuid-39830c4d-be7d-45a4-9b82-e9348e214995" d="M162.1,115.92h24.63v5.73h-31.22v-51.85h30.29v5.73h-23.7v17.11h22.27v5.73h-22.27v17.54Z"/>
    <path class="uuid-39830c4d-be7d-45a4-9b82-e9348e214995" d="M196.69,121.65v-51.85h15.97c17.97,0,25.71,9.67,25.71,25.13s-8.38,26.71-26.93,26.71h-14.75ZM211.52,116.07c13.53,0,20.05-7.52,20.05-20.19,0-15.75-7.16-20.48-19.48-20.48h-8.81v40.67h8.24Z"/>
    <path class="uuid-39830c4d-be7d-45a4-9b82-e9348e214995" d="M268.31,122.51c-16.26,0-22.77-10.46-22.77-25.99,0-17.47,9.38-27.64,24.13-27.64,10.88,0,18.48,5.3,19.26,17.4l-6.16.64c-1-8.09-4.65-12.32-13.18-12.32-10.74,0-17.26,7.09-17.26,21.34s6.02,20.91,16.4,20.91c8.24,0,12.25-3.58,13.89-10.88l5.94,1.22c-1.79,11.46-11.17,15.32-20.27,15.32Z"/>
    <path class="uuid-39830c4d-be7d-45a4-9b82-e9348e214995" d="M320.15,69.81l18.05,51.85h-7.23l-5.23-15.4h-19.91l-5.08,15.4h-6.66l17.47-51.85h8.59ZM315.78,75.82h-.07l-8.31,24.78h16.69l-8.31-24.78Z"/>
    <path class="uuid-39830c4d-be7d-45a4-9b82-e9348e214995" d="M347.58,121.65v-51.85h17.83c12.25,0,15.61,5.59,15.61,12.67s-4.65,10.88-10.31,12.17v.14c8.45,1.07,12.39,5.66,12.39,12.82,0,10.6-7.95,14.04-19.19,14.04h-16.33ZM361.62,92.51c5.66,0,12.75-1.58,12.75-9.09,0-6.45-3.72-8.16-10.81-8.16h-9.45v17.26h7.52ZM362.98,116.14c7.52,0,13.18-1.15,13.18-8.95,0-6.87-5.16-9.24-11.74-9.24h-10.31v18.19h8.88Z"/>
  </g>
  <g>
    <path class="uuid-2a6d24e7-c719-48bc-a53b-6a364452cbde" d="M135.82,402.86c-16.26,0-22.77-10.46-22.77-25.99,0-17.47,9.38-27.64,24.13-27.64,10.88,0,18.48,5.3,19.26,17.4l-6.16.64c-1-8.09-4.65-12.32-13.18-12.32-10.74,0-17.26,7.09-17.26,21.34s6.02,20.91,16.4,20.91c8.24,0,12.25-3.58,13.89-10.88l5.94,1.22c-1.79,11.46-11.17,15.32-20.27,15.32Z"/>
    <path class="uuid-2a6d24e7-c719-48bc-a53b-6a364452cbde" d="M172.49,402h-6.59v-51.85h30.29v5.73h-23.7v17.97h21.91v5.73h-21.91v22.41Z"/>
    <path class="uuid-2a6d24e7-c719-48bc-a53b-6a364452cbde" d="M211.66,396.27h24.63v5.73h-31.22v-51.85h30.29v5.73h-23.7v17.11h22.27v5.73h-22.27v17.54Z"/>
    <path class="uuid-2a6d24e7-c719-48bc-a53b-6a364452cbde" d="M248.25,389.54c.93,4.44,2.22,7.73,9.09,7.73,5.23,0,9.81-2.86,9.81-10.03s-4.37-9.81-10.88-9.81h-4.65v-5.51h3.29c7.23,0,11.53-3.79,11.53-9.52,0-4.3-2-7.73-8.16-7.73s-7.88,2.65-9.17,7.38l-5.8-1.29c1.72-8.66,8.02-11.53,15.68-11.53,9.09,0,13.96,4.87,13.96,12.25,0,7.81-5.51,11.39-10.1,12.53v.21c6.73,1.22,11.03,5.23,11.03,13.18,0,9.31-6.59,15.47-16.69,15.47-8.09,0-14.11-3.44-15.11-12.03l6.16-1.29Z"/>
    <path class="uuid-2a6d24e7-c719-48bc-a53b-6a364452cbde" d="M291.58,402h-6.59v-51.85h30.29v5.73h-23.7v17.97h21.91v5.73h-21.91v22.41Z"/>
    <path class="uuid-2a6d24e7-c719-48bc-a53b-6a364452cbde" d="M324.38,350.16h24.78v5.73h-19.69l-1.5,16.69c2.36-1.93,5.59-3.51,10.17-3.51,7.09,0,14.11,3.8,14.11,15.83,0,10.67-6.52,17.97-17.33,17.97-7.45,0-14.18-3.44-15.47-12.1l6.09-1.5c.79,4.08,2.79,7.95,9.45,7.95,5.16,0,10.46-3.29,10.46-12.1,0-7.59-4.08-10.46-9.38-10.46-3.65,0-6.73,1.58-9.24,3.94l-4.44-2,2-26.42Z"/>
  </g>
  <g>
    <path class="uuid-39830c4d-be7d-45a4-9b82-e9348e214995" d="M31.15,38.53c2.25,20.24.52,40.63-2.11,60.74-.73,5.6-1.54,11.2-2.35,16.79-.22,1.56.38,3.13,2.04,3.59,1.37.38,3.36-.47,3.59-2.04,2.95-20.44,5.94-41.01,5.7-61.71-.07-5.81-.4-11.6-1.04-17.37-.17-1.57-1.22-2.92-2.92-2.92-1.44,0-3.09,1.34-2.92,2.92h0Z"/>
    <path class="uuid-39830c4d-be7d-45a4-9b82-e9348e214995" d="M51.91,41.09c.23,22.82-.95,45.66-3.58,68.33-.73,6.27-1.57,12.52-2.52,18.75-.24,1.56.39,3.14,2.04,3.59,1.38.38,3.35-.47,3.59-2.04,3.48-22.82,5.57-45.85,6.16-68.93.17-6.57.21-13.13.15-19.7-.04-3.75-5.87-3.76-5.83,0h0Z"/>
    <path class="uuid-39830c4d-be7d-45a4-9b82-e9348e214995" d="M13.8,76.11c17.63-.02,35.25-.04,52.88-.06l15.14-.02c3.75,0,3.76-5.84,0-5.83-17.63.02-35.25.04-52.88.06l-15.14.02c-3.75,0-3.76,5.84,0,5.83h0Z"/>
    <path class="uuid-39830c4d-be7d-45a4-9b82-e9348e214995" d="M9.25,101.15c19.47,2.94,38.94,5.87,58.42,8.81l16.51,2.49c1.56.23,3.14-.39,3.59-2.04.38-1.38-.47-3.35-2.04-3.59-19.47-2.94-38.94-5.87-58.42-8.81-5.5-.83-11.01-1.66-16.51-2.49-1.56-.23-3.14.39-3.59,2.04-.38,1.38.47,3.35,2.04,3.59h0Z"/>
  </g>
  <g>
    <path class="uuid-2a6d24e7-c719-48bc-a53b-6a364452cbde" d="M31.15,318.24c2.25,20.24.52,40.63-2.11,60.74-.73,5.6-1.54,11.2-2.35,16.79-.22,1.56.38,3.13,2.04,3.59,1.37.38,3.36-.47,3.59-2.04,2.95-20.44,5.94-41.01,5.7-61.71-.07-5.81-.4-11.6-1.04-17.37-.17-1.57-1.22-2.92-2.92-2.92-1.44,0-3.09,1.34-2.92,2.92h0Z"/>
    <path class="uuid-2a6d24e7-c719-48bc-a53b-6a364452cbde" d="M51.91,320.8c.23,22.82-.95,45.66-3.58,68.33-.73,6.27-1.57,12.52-2.52,18.75-.24,1.56.39,3.14,2.04,3.59,1.38.38,3.35-.47,3.59-2.04,3.48-22.82,5.57-45.85,6.16-68.93.17-6.57.21-13.13.15-19.7-.04-3.75-5.87-3.76-5.83,0h0Z"/>
    <path class="uuid-2a6d24e7-c719-48bc-a53b-6a364452cbde" d="M13.8,355.82c17.63-.02,35.25-.04,52.88-.06l15.14-.02c3.75,0,3.76-5.84,0-5.83-17.63.02-35.25.04-52.88.06l-15.14.02c-3.75,0-3.76,5.84,0,5.83h0Z"/>
    <path class="uuid-2a6d24e7-c719-48bc-a53b-6a364452cbde" d="M9.25,380.87c19.47,2.94,38.94,5.87,58.42,8.81l16.51,2.49c1.56.23,3.14-.39,3.59-2.04.38-1.38-.47-3.35-2.04-3.59-19.47-2.94-38.94-5.87-58.42-8.81l-16.51-2.49c-1.56-.23-3.14.39-3.59,2.04-.38,1.38.47,3.35,2.04,3.59h0Z"/>
  </g>
</svg>