<?xml version="1.0" encoding="UTF-8"?>
<svg id="uuid-3458f34b-0b70-40f9-b723-a50e35a0615d" data-name="Ebene 1" xmlns="http://www.w3.org/2000/svg" viewBox="0 0 1920 695.32">
  <defs>
    <style>
      .uuid-43f88543-5ef3-49cd-882d-8ef90f455f8c {
        fill: #cfe3f5;
        stroke-width: 0px;
      }
    </style>
  </defs>
  <path class="uuid-43f88543-5ef3-49cd-882d-8ef90f455f8c" d="M24.84,22.45H.44V2.27h73.89v20.17h-24.04v64.74h-25.45V22.45ZM144,66.54v20.64h-60.99V2.27h58.06v20.17h-32.61v13.25h27.45v19.35h-27.45v11.49h35.54ZM178.85,25.02c0,5.16,5.51,6.8,17.01,8.09l25.45,1.53c18.53,1.76,30.38,8.33,30.38,24.75,0,20.53-17.01,29.79-50.08,29.79-28.39,0-49.73-2.93-50.55-28.85l23.22-3.05c.94,7.39,2.23,13.61,28.03,13.61,20.41,0,24.4-2.7,24.4-7.86,0-4.11-2.7-6.33-10.91-7.16l-28.38-1.64c-19.7-2.11-33.54-7.74-33.54-26.04S169.11.16,202.89.16c30.38,0,46.68,3.99,47.38,25.8l-23.69,2.58c0-7.86-2.93-10.44-24.51-10.44-19.94,0-23.22,2.46-23.22,6.92ZM280.66,22.45h-24.39V2.27h73.89v20.17h-24.04v64.74h-25.45V22.45ZM24.84,188.57v-84.92h57.59v20.17h-32.14v14.66h25.8v19.23h-25.8v30.85h-25.45ZM218.72,167.93v20.64H90.41v-84.92h125.38v20.17h-98.76v13.25h85.39v19.35h-85.39v11.49h101.69ZM250.75,127.23c0,4.93,4.46,6.33,19.35,6.8l44.33,1.29c26.16.7,39.17,7.74,39.17,24.98,0,20.53-17.01,30.85-65.09,30.85-44.1,0-65.45-3.75-66.27-29.44l24.04-3.05c.94,7.39,1.76,13.96,42.93,13.96,34.83,0,38.82-3.4,38.82-8.56,0-4.22-2.11-6.57-13.61-6.92l-50.31-1.76c-27.21-.94-38.94-8.8-38.94-25.8,0-18.18,15.25-28.62,64.62-28.62,45.39,0,61.69,4.57,62.4,26.39l-24.28,2.58c0-7.86-2.58-10.79-38.94-10.79s-38.24,3.17-38.24,8.09ZM380.71,123.83h-24.39v-20.17h73.89v20.17h-24.04v64.74h-25.45v-64.74ZM24.84,468.68H.44v-20.17h73.89v20.17h-24.04v64.74h-25.45v-64.74ZM144,512.78v20.64h-60.99v-84.92h58.06v20.17h-32.61v13.25h27.45v19.35h-27.45v11.49h35.54ZM178.85,471.26c0,5.16,5.51,6.8,17.01,8.09l25.45,1.53c18.53,1.76,30.38,8.33,30.38,24.75,0,20.53-17.01,29.79-50.08,29.79-28.39,0-49.73-2.93-50.55-28.85l23.22-3.05c.94,7.39,2.23,13.61,28.03,13.61,20.41,0,24.4-2.7,24.4-7.86,0-4.11-2.7-6.33-10.91-7.16l-28.38-1.64c-19.7-2.11-33.54-7.74-33.54-26.04s15.25-28.03,49.03-28.03c30.38,0,46.68,3.99,47.38,25.8l-23.69,2.58c0-7.86-2.93-10.44-24.51-10.44-19.94,0-23.22,2.46-23.22,6.92ZM280.66,468.68h-24.39v-20.17h73.89v20.17h-24.04v64.74h-25.45v-64.74ZM24.84,634.8v-84.92h57.59v20.17h-32.14v14.66h25.8v19.23h-25.8v30.85h-25.45ZM218.72,614.16v20.64H90.41v-84.92h125.38v20.17h-98.76v13.25h85.39v19.35h-85.39v11.49h101.69ZM250.75,573.46c0,4.93,4.46,6.33,19.35,6.8l44.33,1.29c26.16.7,39.17,7.74,39.17,24.98,0,20.53-17.01,30.85-65.09,30.85-44.1,0-65.45-3.75-66.27-29.44l24.04-3.05c.94,7.39,1.76,13.96,42.93,13.96,34.83,0,38.82-3.4,38.82-8.56,0-4.22-2.11-6.57-13.61-6.92l-50.31-1.76c-27.21-.94-38.94-8.8-38.94-25.8,0-18.18,15.25-28.62,64.62-28.62,45.39,0,61.69,4.57,62.4,26.39l-24.28,2.58c0-7.86-2.58-10.79-38.94-10.79s-38.24,3.17-38.24,8.09ZM380.71,570.06h-24.39v-20.17h73.89v20.17h-24.04v64.74h-25.45v-64.74ZM799.18,468.68h-24.39v-20.17h73.89v20.17h-24.04v64.74h-25.45v-64.74ZM918.34,512.78v20.64h-60.99v-84.92h58.06v20.17h-32.61v13.25h27.45v19.35h-27.45v11.49h35.54ZM953.19,471.26c0,5.16,5.51,6.8,17.01,8.09l25.45,1.53c18.53,1.76,30.38,8.33,30.38,24.75,0,20.53-17.01,29.79-50.08,29.79-28.39,0-49.73-2.93-50.55-28.85l23.22-3.05c.94,7.39,2.23,13.61,28.03,13.61,20.41,0,24.4-2.7,24.4-7.86,0-4.11-2.7-6.33-10.91-7.16l-28.38-1.64c-19.7-2.11-33.54-7.74-33.54-26.04s15.25-28.03,49.03-28.03c30.38,0,46.68,3.99,47.38,25.8l-23.69,2.58c0-7.86-2.93-10.44-24.51-10.44-19.94,0-23.22,2.46-23.22,6.92ZM1055,468.68h-24.39v-20.17h73.89v20.17h-24.04v64.74h-25.45v-64.74ZM799.18,634.8v-84.92h57.59v20.17h-32.14v14.66h25.8v19.23h-25.8v30.85h-25.45ZM993.06,614.16v20.64h-128.31v-84.92h125.38v20.17h-98.76v13.25h85.39v19.35h-85.39v11.49h101.69ZM1025.09,573.46c0,4.93,4.46,6.33,19.35,6.8l44.33,1.29c26.16.7,39.17,7.74,39.17,24.98,0,20.53-17.01,30.85-65.09,30.85-44.1,0-65.45-3.75-66.27-29.44l24.04-3.05c.94,7.39,1.76,13.96,42.93,13.96,34.83,0,38.82-3.4,38.82-8.56,0-4.22-2.11-6.57-13.61-6.92l-50.31-1.76c-27.21-.94-38.94-8.8-38.94-25.8,0-18.18,15.25-28.62,64.62-28.62,45.39,0,61.69,4.57,62.4,26.39l-24.28,2.58c0-7.86-2.58-10.79-38.94-10.79s-38.24,3.17-38.24,8.09ZM1155.05,570.06h-24.39v-20.17h73.89v20.17h-24.04v64.74h-25.45v-64.74ZM810.55,663.48c-.47.15-.83.39-1.09.73-.26.33-.39.76-.39,1.27,0,.91.46,1.6,1.38,2.09.92.48,2.35.98,4.29,1.5l2.54.68c2.48.67,4.48,1.72,6.01,3.18,1.53,1.45,2.29,3.55,2.29,6.3,0,2.51-.62,4.6-1.86,6.26-1.24,1.66-2.89,2.89-4.94,3.67-2.06.79-4.31,1.18-6.76,1.18-2.21,0-4.26-.24-6.15-.7s-3.56-1.51-5.01-3.13c-1.45-1.62-2.22-3.98-2.31-7.1l8.71-1.18c.15,1.12.37,2.03.66,2.74.29.71.77,1.29,1.45,1.72.68.44,1.65.66,2.93.66.79,0,1.47-.09,2.04-.27.57-.18,1.02-.48,1.34-.91s.48-.95.48-1.59c0-.73-.27-1.31-.82-1.75-.54-.44-1.33-.79-2.36-1.07l-2.45-.64c-.12-.03-.24-.06-.36-.09-2.21-.57-4.01-1.16-5.4-1.75-1.39-.59-2.59-1.56-3.61-2.9-1.01-1.35-1.52-3.15-1.52-5.42s.57-4.2,1.72-5.78c1.15-1.59,2.7-2.79,4.65-3.61,1.95-.82,4.12-1.22,6.51-1.22s4.38.25,6.17.75c1.78.5,3.27,1.47,4.45,2.9,1.18,1.44,1.81,3.47,1.9,6.1l-8.89,1c0-1-.14-1.78-.43-2.34-.29-.56-.71-.95-1.27-1.18-.56-.23-1.31-.34-2.25-.34-.63,0-1.19.08-1.65.23ZM849.06,685.87c-2.54-2.98-3.81-7.05-3.81-12.22,0-3.33.62-6.29,1.86-8.89,1.24-2.6,3.11-4.65,5.6-6.15,2.49-1.5,5.57-2.25,9.23-2.25,5.35,0,9.28,1.53,11.79,4.6,2.51,3.07,3.77,7.08,3.77,12.04,0,5.47-1.35,9.73-4.06,12.77-2.71,3.04-6.81,4.56-12.31,4.56s-9.53-1.49-12.07-4.47ZM859.51,653.57c-.95.86-2.2,1.29-3.74,1.29s-2.85-.43-3.83-1.29c-.98-.86-1.47-2-1.47-3.42s.49-2.56,1.47-3.42c.98-.86,2.26-1.29,3.83-1.29s2.79.43,3.74,1.29c.95.86,1.43,2,1.43,3.42s-.48,2.56-1.43,3.42ZM864.68,681.88c.86-.56,1.53-1.53,2.02-2.9.48-1.37.73-3.23.73-5.56s-.2-4.08-.61-5.44c-.41-1.36-1.03-2.34-1.86-2.95-.83-.6-1.91-.91-3.24-.91-1.42,0-2.59.31-3.51.93-.92.62-1.62,1.61-2.09,2.97-.47,1.36-.7,3.16-.7,5.4,0,2.36.22,4.21.66,5.56.44,1.35,1.1,2.31,2,2.88.89.57,2.03.86,3.42.86,1.27,0,2.34-.28,3.2-.84ZM871.4,653.57c-.95.86-2.22,1.29-3.79,1.29s-2.84-.43-3.81-1.29c-.97-.86-1.45-2-1.45-3.42s.48-2.56,1.45-3.42c.97-.86,2.24-1.29,3.81-1.29s2.83.43,3.79,1.29c.95.86,1.43,2,1.43,3.42s-.48,2.56-1.43,3.42ZM920.29,681.81v7.98h-23.22v-32.84h9.84v24.86h13.38ZM939.73,656.95h13.19c5.53,0,9.63,1.38,12.29,4.15,2.66,2.77,3.99,6.69,3.99,11.77s-1.42,9.36-4.26,12.38c-2.84,3.02-7.11,4.54-12.79,4.54h-12.41v-32.84ZM956.32,681.17c1.12-.73,1.88-1.74,2.29-3.04.41-1.3.61-2.99.61-5.08,0-2.21-.23-3.93-.68-5.17-.45-1.24-1.19-2.13-2.2-2.68-1.01-.54-2.41-.82-4.2-.82h-2.57v17.87h1.89c2.12,0,3.73-.36,4.85-1.09ZM1012.36,681.81v7.98h-23.59v-32.84h22.45v7.8h-12.61v5.13h11.97v7.48h-11.97v4.45h13.74ZM1041.05,670.56v19.23h-8.89v-32.84h11.25l9.12,19.59v-19.59h8.8v32.84h-11.02l-9.25-19.23ZM799.18,22.45h-24.39V2.27h73.89v20.17h-24.04v64.74h-25.45V22.45ZM918.35,66.54v20.64h-60.99V2.27h58.06v20.17h-32.61v13.25h27.45v19.35h-27.45v11.49h35.54ZM953.19,25.02c0,5.16,5.51,6.8,17.01,8.09l25.45,1.53c18.53,1.76,30.38,8.33,30.38,24.75,0,20.53-17.01,29.79-50.08,29.79-28.39,0-49.73-2.93-50.55-28.85l23.22-3.05c.94,7.39,2.23,13.61,28.03,13.61,20.41,0,24.4-2.7,24.4-7.86,0-4.11-2.7-6.33-10.91-7.16l-28.38-1.64c-19.7-2.11-33.54-7.74-33.54-26.04S943.45.16,977.23.16c30.38,0,46.68,3.99,47.38,25.8l-23.69,2.58c0-7.86-2.93-10.44-24.51-10.44-19.94,0-23.22,2.46-23.22,6.92ZM1055,22.45h-24.39V2.27h73.89v20.17h-24.04v64.74h-25.45V22.45ZM799.18,188.57v-84.92h57.59v20.17h-32.14v14.66h25.8v19.23h-25.8v30.85h-25.45ZM993.06,167.93v20.64h-128.31v-84.92h125.38v20.17h-98.76v13.25h85.39v19.35h-85.39v11.49h101.69ZM1025.09,127.23c0,4.93,4.46,6.33,19.35,6.8l44.33,1.29c26.16.7,39.17,7.74,39.17,24.98,0,20.53-17.01,30.85-65.09,30.85-44.1,0-65.45-3.75-66.27-29.44l24.04-3.05c.94,7.39,1.76,13.96,42.93,13.96,34.83,0,38.82-3.4,38.82-8.56,0-4.22-2.11-6.57-13.61-6.92l-50.31-1.76c-27.21-.94-38.94-8.8-38.94-25.8,0-18.18,15.25-28.62,64.62-28.62,45.39,0,61.69,4.57,62.4,26.39l-24.28,2.58c0-7.86-2.58-10.79-38.94-10.79s-38.24,3.17-38.24,8.09ZM1155.05,123.83h-24.39v-20.17h73.89v20.17h-24.04v64.74h-25.45v-64.74ZM810.55,217.25c-.47.15-.83.39-1.09.73-.26.33-.39.76-.39,1.27,0,.91.46,1.6,1.38,2.09.92.48,2.35.98,4.29,1.5l2.54.68c2.48.67,4.48,1.72,6.01,3.18,1.53,1.45,2.29,3.55,2.29,6.3,0,2.51-.62,4.6-1.86,6.26-1.24,1.66-2.89,2.89-4.94,3.67-2.06.79-4.31,1.18-6.76,1.18-2.21,0-4.26-.24-6.15-.7-1.89-.47-3.56-1.51-5.01-3.13-1.45-1.62-2.22-3.98-2.31-7.1l8.71-1.18c.15,1.12.37,2.03.66,2.74.29.71.77,1.29,1.45,1.72.68.44,1.65.66,2.93.66.79,0,1.47-.09,2.04-.27.57-.18,1.02-.48,1.34-.91s.48-.95.48-1.59c0-.73-.27-1.31-.82-1.75-.54-.44-1.33-.79-2.36-1.07l-2.45-.64c-.12-.03-.24-.06-.36-.09-2.21-.57-4.01-1.16-5.4-1.75-1.39-.59-2.59-1.56-3.61-2.9-1.01-1.35-1.52-3.15-1.52-5.42s.57-4.2,1.72-5.78c1.15-1.59,2.7-2.79,4.65-3.61,1.95-.82,4.12-1.22,6.51-1.22s4.38.25,6.17.75c1.78.5,3.27,1.47,4.45,2.9,1.18,1.44,1.81,3.47,1.9,6.1l-8.89,1c0-1-.14-1.78-.43-2.34-.29-.56-.71-.95-1.27-1.18-.56-.23-1.31-.34-2.25-.34-.63,0-1.19.08-1.65.23ZM849.06,239.64c-2.54-2.98-3.81-7.05-3.81-12.22,0-3.33.62-6.29,1.86-8.89,1.24-2.6,3.11-4.65,5.6-6.15,2.49-1.5,5.57-2.25,9.23-2.25,5.35,0,9.28,1.53,11.79,4.6,2.51,3.07,3.77,7.08,3.77,12.04,0,5.47-1.35,9.73-4.06,12.77-2.71,3.04-6.81,4.56-12.31,4.56s-9.53-1.49-12.07-4.47ZM859.52,207.34c-.95.86-2.2,1.29-3.74,1.29s-2.85-.43-3.83-1.29c-.98-.86-1.47-2-1.47-3.42s.49-2.56,1.47-3.42c.98-.86,2.26-1.29,3.83-1.29s2.79.43,3.74,1.29c.95.86,1.43,2,1.43,3.42s-.48,2.56-1.43,3.42ZM864.69,235.64c.86-.56,1.53-1.53,2.02-2.9.48-1.37.73-3.23.73-5.56s-.2-4.08-.61-5.44c-.41-1.36-1.03-2.34-1.86-2.95-.83-.6-1.91-.91-3.24-.91-1.42,0-2.59.31-3.51.93-.92.62-1.62,1.61-2.09,2.97-.47,1.36-.7,3.16-.7,5.4,0,2.36.22,4.21.66,5.56.44,1.35,1.1,2.31,2,2.88.89.57,2.03.86,3.42.86,1.27,0,2.34-.28,3.2-.84ZM871.4,207.34c-.95.86-2.22,1.29-3.79,1.29s-2.84-.43-3.81-1.29c-.97-.86-1.45-2-1.45-3.42s.48-2.56,1.45-3.42c.97-.86,2.24-1.29,3.81-1.29s2.83.43,3.79,1.29c.95.86,1.43,2,1.43,3.42s-.48,2.56-1.43,3.42ZM920.3,235.58v7.98h-23.22v-32.84h9.84v24.86h13.38ZM939.73,210.72h13.19c5.53,0,9.63,1.38,12.29,4.15,2.66,2.77,3.99,6.69,3.99,11.77s-1.42,9.36-4.26,12.38c-2.84,3.02-7.11,4.54-12.79,4.54h-12.41v-32.84ZM956.32,234.94c1.12-.73,1.88-1.74,2.29-3.04.41-1.3.61-2.99.61-5.08,0-2.21-.23-3.93-.68-5.17s-1.19-2.13-2.2-2.68c-1.01-.54-2.41-.82-4.2-.82h-2.57v17.87h1.89c2.12,0,3.73-.36,4.85-1.09ZM1012.36,235.58v7.98h-23.59v-32.84h22.45v7.8h-12.61v5.13h11.97v7.48h-11.97v4.45h13.74ZM1041.05,224.33v19.23h-8.89v-32.84h11.25l9.12,19.59v-19.59h8.8v32.84h-11.02l-9.25-19.23ZM1525.52,21.86h-24.39V1.69h73.89v20.17h-24.04v64.74h-25.45V21.86ZM1709.67,65.96v20.64h-128.31V1.69h125.38v20.17h-98.76v13.25h85.39v19.35h-85.39v11.49h101.69ZM1742.64,23.73c0,5.28,6.57,7.16,14.66,9.27l6.57,1.76c10.79,2.93,21.46,8.91,21.46,24.51,0,20.53-17.01,28.74-35.07,28.74-12.67,0-34.01-1.99-34.83-28.27l22.52-3.05c.94,7.39,2.7,13.25,13.02,13.25,5.98,0,9.97-1.99,9.97-7.16,0-3.87-3.29-5.98-8.21-7.27l-6.33-1.64c-12.31-3.17-28.15-6.69-28.15-26.27,0-18.18,15.25-27.45,33.31-27.45,15.37,0,31.67,3.4,32.37,25.22l-22.99,2.58c0-7.86-3.29-9.97-10.2-9.97-4.81,0-8.09,1.64-8.09,5.75ZM1581.83,187.98v-84.92h57.59v20.17h-32.14v14.66h25.8v19.23h-25.8v30.85h-25.45ZM1708.38,167.34v20.64h-60.99v-84.92h58.06v20.17h-32.61v13.25h27.45v19.35h-27.45v11.49h35.54ZM1740.4,126.64c0,4.93,4.46,6.33,19.35,6.8l44.33,1.29c26.16.7,39.17,7.74,39.17,24.98,0,20.53-17.01,30.85-65.09,30.85-44.1,0-65.45-3.75-66.27-29.44l24.04-3.05c.94,7.39,1.76,13.96,42.93,13.96,34.83,0,38.82-3.4,38.82-8.56,0-4.22-2.11-6.57-13.61-6.92l-50.31-1.76c-27.21-.94-38.94-8.8-38.94-25.8,0-18.18,15.25-28.62,64.62-28.62,45.39,0,61.69,4.57,62.4,26.39l-24.28,2.58c0-7.86-2.58-10.79-38.94-10.79s-38.24,3.17-38.24,8.09ZM1870.37,123.24h-24.39v-20.17h73.89v20.17h-24.04v64.74h-25.45v-64.74ZM1540.92,220c-.51.16-.9.43-1.18.79-.28.36-.42.82-.42,1.38,0,.98.5,1.74,1.5,2.26,1,.52,2.55,1.06,4.64,1.62l2.75.74c2.69.72,4.86,1.87,6.51,3.44,1.66,1.57,2.48,3.85,2.48,6.83,0,2.72-.67,4.98-2.02,6.78-1.34,1.8-3.13,3.13-5.36,3.98-2.23.85-4.67,1.28-7.32,1.28-2.39,0-4.61-.25-6.66-.76-2.05-.51-3.86-1.64-5.43-3.39-1.57-1.75-2.41-4.32-2.51-7.69l9.44-1.28c.16,1.21.4,2.2.71,2.97.31.77.84,1.39,1.57,1.87.74.48,1.79.71,3.17.71.85,0,1.59-.1,2.21-.29.62-.2,1.11-.52,1.45-.98s.52-1.03.52-1.72c0-.79-.3-1.42-.88-1.89-.59-.47-1.44-.86-2.56-1.16l-2.65-.69c-.13-.03-.26-.07-.39-.1-2.39-.62-4.34-1.25-5.85-1.89-1.51-.64-2.81-1.69-3.91-3.15-1.1-1.46-1.65-3.42-1.65-5.87s.62-4.55,1.87-6.27c1.24-1.72,2.92-3.02,5.04-3.91,2.11-.88,4.46-1.33,7.05-1.33s4.75.27,6.68.81c1.93.54,3.54,1.59,4.82,3.15,1.28,1.56,1.97,3.76,2.06,6.61l-9.63,1.08c0-1.08-.16-1.92-.47-2.53-.31-.61-.77-1.03-1.38-1.28-.61-.25-1.42-.37-2.43-.37-.69,0-1.29.08-1.79.25ZM1582.65,244.26c-2.75-3.23-4.13-7.64-4.13-13.25,0-3.6.67-6.82,2.01-9.63,1.34-2.82,3.37-5.04,6.07-6.66,2.7-1.62,6.04-2.43,10-2.43,5.8,0,10.06,1.66,12.78,4.99,2.72,3.33,4.08,7.68,4.08,13.05,0,5.93-1.47,10.54-4.4,13.84-2.93,3.29-7.38,4.94-13.34,4.94s-10.32-1.61-13.07-4.84ZM1593.98,209.26c-1.03.93-2.38,1.4-4.06,1.4s-3.09-.47-4.15-1.4c-1.06-.93-1.6-2.17-1.6-3.71s.53-2.78,1.6-3.71c1.07-.93,2.45-1.4,4.15-1.4s3.02.47,4.06,1.4c1.03.93,1.55,2.17,1.55,3.71s-.52,2.78-1.55,3.71ZM1599.58,239.93c.93-.61,1.66-1.65,2.19-3.15.53-1.49.79-3.5.79-6.02s-.22-4.42-.67-5.9c-.44-1.48-1.11-2.54-2.01-3.2-.9-.65-2.07-.98-3.51-.98-1.54,0-2.81.34-3.81,1.01-1,.67-1.75,1.74-2.26,3.22-.51,1.48-.76,3.43-.76,5.85,0,2.56.24,4.56.71,6.02.47,1.46,1.2,2.5,2.16,3.12s2.2.93,3.71.93c1.38,0,2.53-.3,3.47-.91ZM1606.86,209.26c-1.03.93-2.4,1.4-4.1,1.4s-3.08-.47-4.13-1.4c-1.05-.93-1.57-2.17-1.57-3.71s.52-2.78,1.57-3.71c1.05-.93,2.42-1.4,4.13-1.4s3.07.47,4.1,1.4c1.03.93,1.55,2.17,1.55,3.71s-.52,2.78-1.55,3.71ZM1659.84,239.86v8.65h-25.17v-35.59h10.67v26.93h14.5ZM1680.9,212.92h14.29c6,0,10.43,1.5,13.32,4.5,2.88,3,4.33,7.25,4.33,12.76s-1.54,10.14-4.62,13.42c-3.08,3.28-7.7,4.91-13.86,4.91h-13.45v-35.59ZM1698.88,239.17c1.21-.79,2.04-1.88,2.48-3.29.44-1.41.66-3.24.66-5.5,0-2.39-.25-4.26-.74-5.6s-1.29-2.31-2.38-2.9c-1.1-.59-2.61-.88-4.55-.88h-2.79v19.37h2.05c2.29,0,4.05-.39,5.26-1.18ZM1759.6,239.86v8.65h-25.56v-35.59h24.33v8.45h-13.66v5.55h12.97v8.11h-12.97v4.82h14.89ZM1790.69,227.67v20.84h-9.63v-35.59h12.19l9.88,21.23v-21.23h9.53v35.59h-11.94l-10.03-20.84ZM1843.98,87.03V22.25h-53.87V2.06h129.91v20.18h-50.58v64.78h-25.47ZM1548.22,673.01l-2.75-.74c-2.1-.56-3.65-1.1-4.64-1.62-1-.52-1.5-1.28-1.5-2.26,0-.56.14-1.02.42-1.38.28-.36.67-.62,1.18-.79.51-.16,1.11-.25,1.79-.25,1.02,0,1.83.12,2.43.37.61.25,1.07.67,1.38,1.28.31.61.47,1.45.47,2.53l9.63-1.08c-.1-2.85-.79-5.05-2.06-6.61-1.28-1.56-2.88-2.6-4.82-3.15s-4.16-.81-6.69-.81-4.94.44-7.05,1.33c-2.11.88-3.79,2.19-5.04,3.91-1.25,1.72-1.87,3.81-1.87,6.27s.55,4.42,1.65,5.87c1.1,1.46,2.4,2.51,3.91,3.15,1.51.64,3.46,1.27,5.85,1.89.13.03.26.07.39.1l2.66.69c1.11.29,1.97.68,2.56,1.16.59.48.88,1.11.88,1.89,0,.69-.17,1.26-.52,1.72-.34.46-.83.79-1.45.98-.62.2-1.36.29-2.21.29-1.38,0-2.43-.24-3.17-.71-.74-.47-1.26-1.1-1.57-1.87-.31-.77-.55-1.76-.71-2.97l-9.44,1.28c.1,3.38.93,5.94,2.51,7.69,1.57,1.75,3.38,2.88,5.43,3.39,2.05.51,4.27.76,6.66.76,2.65,0,5.1-.43,7.32-1.28,2.23-.85,4.01-2.18,5.36-3.98,1.34-1.8,2.02-4.06,2.02-6.78,0-2.98-.83-5.26-2.48-6.83-1.66-1.57-3.83-2.72-6.51-3.44ZM1596.61,658.52c-3.97,0-7.3.81-10,2.43-2.7,1.62-4.73,3.84-6.07,6.66-1.34,2.82-2.02,6.03-2.02,9.63,0,5.6,1.38,10.02,4.13,13.25,2.75,3.23,7.11,4.84,13.07,4.84s10.41-1.65,13.34-4.94c2.93-3.29,4.4-7.91,4.4-13.84,0-5.37-1.36-9.72-4.08-13.05-2.72-3.33-6.98-4.99-12.78-4.99ZM1601.77,683.02c-.52,1.49-1.25,2.54-2.19,3.15-.94.61-2.09.91-3.47.91-1.51,0-2.74-.31-3.71-.93s-1.69-1.66-2.16-3.12c-.47-1.46-.71-3.46-.71-6.02,0-2.42.25-4.37.76-5.85.51-1.47,1.26-2.55,2.26-3.22,1-.67,2.27-1.01,3.81-1.01,1.44,0,2.61.33,3.51.98.9.66,1.57,1.72,2.01,3.2.44,1.47.66,3.44.66,5.9s-.26,4.53-.79,6.02ZM1598.62,648.07c-1.05.93-1.57,2.17-1.57,3.71s.52,2.78,1.57,3.71c1.05.93,2.42,1.4,4.13,1.4s3.07-.47,4.1-1.4c1.03-.93,1.55-2.17,1.55-3.71s-.52-2.78-1.55-3.71c-1.03-.93-2.4-1.4-4.1-1.4s-3.08.47-4.13,1.4ZM1585.77,648.07c-1.06.93-1.6,2.17-1.6,3.71s.53,2.78,1.6,3.71c1.07.93,2.45,1.4,4.15,1.4s3.02-.47,4.05-1.4c1.03-.93,1.55-2.17,1.55-3.71s-.52-2.78-1.55-3.71c-1.03-.93-2.38-1.4-4.05-1.4s-3.09.47-4.15,1.4ZM1645.34,659.15h-10.67v35.59h25.17v-8.65h-14.5v-26.93ZM1695.19,659.15h-14.29v35.59h13.45c6.16,0,10.78-1.64,13.86-4.91,3.08-3.28,4.62-7.75,4.62-13.42s-1.44-9.76-4.33-12.76c-2.88-3-7.32-4.5-13.32-4.5ZM1701.36,682.11c-.44,1.41-1.27,2.51-2.48,3.29-1.21.79-2.97,1.18-5.26,1.18h-2.05v-19.37h2.79c1.93,0,3.45.29,4.55.89,1.1.59,1.89,1.56,2.38,2.9.49,1.34.74,3.21.74,5.6,0,2.26-.22,4.1-.66,5.5ZM1744.71,681.27h12.97v-8.11h-12.97v-5.55h13.66v-8.45h-24.33v35.59h25.56v-8.65h-14.89v-4.82ZM1803.13,680.39l-9.88-21.23h-12.19v35.59h9.63v-20.84l10.03,20.84h11.94v-35.59h-9.53v21.23ZM1525.52,532.83h25.45v-64.74h24.04v-20.17h-73.89v20.17h24.39v64.74ZM1709.67,512.19h-101.69v-11.49h85.39v-19.35h-85.39v-13.25h98.76v-20.17h-125.38v84.92h128.31v-20.64ZM1750.96,516.18c-10.32,0-12.08-5.86-13.02-13.25l-22.52,3.05c.82,26.27,22.17,28.27,34.83,28.27,18.06,0,35.07-8.21,35.07-28.74,0-15.6-10.67-21.58-21.46-24.51l-6.57-1.76c-8.09-2.11-14.66-3.99-14.66-9.27,0-4.1,3.29-5.75,8.09-5.75,6.92,0,10.2,2.11,10.2,9.97l22.99-2.58c-.7-21.82-17.01-25.22-32.37-25.22-18.06,0-33.31,9.27-33.31,27.45,0,19.59,15.83,23.11,28.15,26.27l6.33,1.64c4.93,1.29,8.21,3.4,8.21,7.27,0,5.16-3.99,7.16-9.97,7.16ZM1639.41,569.47v-20.17h-57.59v84.92h25.45v-30.85h25.8v-19.23h-25.8v-14.66h32.14ZM1705.45,569.47v-20.17h-58.06v84.92h60.99v-20.64h-35.54v-11.49h27.45v-19.35h-27.45v-13.25h32.61ZM1843.27,605.95c0-17.24-13.02-24.28-39.17-24.98l-44.33-1.29c-14.9-.47-19.35-1.88-19.35-6.8s3.29-8.09,38.24-8.09,38.94,2.93,38.94,10.79l24.28-2.58c-.7-21.82-17.01-26.39-62.4-26.39-49.38,0-64.62,10.44-64.62,28.62,0,17.01,11.73,24.87,38.94,25.8l50.31,1.76c11.49.35,13.61,2.7,13.61,6.92,0,5.16-3.99,8.56-38.82,8.56-41.17,0-41.99-6.57-42.93-13.96l-24.04,3.05c.82,25.69,22.17,29.44,66.27,29.44,48.09,0,65.09-10.32,65.09-30.85ZM1895.82,634.22v-64.74h24.04v-20.17h-73.89v20.17h24.39v64.74h25.45ZM1843.98,533.26h25.47v-64.78h50.58v-20.19h-129.91v20.19h53.87v64.78Z"/>
</svg>