<?xml version="1.0" encoding="UTF-8"?>
<svg id="uuid-55517753-ad56-46ae-b720-4a891e87e9b3" data-name="Ebene 1" xmlns="http://www.w3.org/2000/svg" viewBox="0 0 1920 1380.87">
  <defs>
    <style>
      .uuid-c4d2d702-2839-416c-b2c4-a9f236d18617 {
        opacity: .1;
      }

      .uuid-40c7286a-bfaa-4bf8-9041-99f54492b34d {
        fill: #3e0505;
        stroke-width: 0px;
      }

      .uuid-a89e94e0-2ce2-44d4-a914-351dc224bcad {
        opacity: .3;
      }

      .uuid-4cea9996-9c70-4d95-97f8-157c1aa93039 {
        opacity: .5;
      }
    </style>
  </defs>
  <g class="uuid-a89e94e0-2ce2-44d4-a914-351dc224bcad">
    <path class="uuid-40c7286a-bfaa-4bf8-9041-99f54492b34d" d="M1.81,650.08v-13.95l13.63-3.49c3.8-.95,6.34-2.22,7.61-6.02l64.99-189.26-39.94-.95,1.9-15.85h72.28l63.72,189.26c6.66,19.97,10.78,26.63,20.61,26.63,3.8,0,8.88-.95,14.9-2.85l3.49,14.58c-7.61,3.8-15.53,5.39-23.46,5.39-19.34,0-28.21-11.73-35.51-34.55l-13.63-42.8H60.77l-19.02,57.06,25.68,2.85v13.95H1.81ZM67.11,557.51h79.25l-38.99-120.15-40.26,120.15Z"/>
    <path class="uuid-40c7286a-bfaa-4bf8-9041-99f54492b34d" d="M356.55,650.08l-2.54-21.56-.95-.32c-15.22,14.27-31.7,25.68-57.06,25.68-35.82,0-59.28-23.14-59.28-80.84,0-61.82,26.63-88.13,65.94-88.13,19.34,0,37.41,6.66,49.77,15.53v-64.04c0-3.17-1.27-5.39-4.12-6.34l-19.34-6.02,2.54-13.32h42.16v216.84c0,5.07.32,5.71,5.07,6.34l16.48,2.22v13.95h-38.68ZM352.43,523.59c-10.46-10.14-29.48-20.29-49.45-20.29-32.34,0-45.33,27.58-45.33,69.11,0,49.45,18.39,62.77,41.21,62.77s38.99-12.68,53.58-29.8v-81.79Z"/>
    <path class="uuid-40c7286a-bfaa-4bf8-9041-99f54492b34d" d="M549.94,628.84c-13.31,18.07-36.77,25.04-58.97,25.04-56.11,0-71.01-39.63-71.01-83.38,0-56.11,31.07-85.59,75.45-85.59,31.7,0,54.84,17.75,54.84,46.6,0,45.65-37.09,48.19-108.1,47.24,2.22,30.43,12.05,55.79,50.41,55.79,19.65,0,32.65-6.66,43.11-19.02l14.27,13.32ZM528.7,531.19c0-16.48-13.63-27.58-35.82-27.58-26.95,0-47.55,14.9-50.41,57.7,68.79.32,86.23-.63,86.23-30.12Z"/>
    <path class="uuid-40c7286a-bfaa-4bf8-9041-99f54492b34d" d="M573.39,650.08v-14.27l21.24-1.9c4.44-.32,5.07-1.59,5.07-6.34v-190.85c0-3.49-.95-5.71-4.12-6.66l-19.34-6.02,2.54-13.32h42.16v216.84c0,5.07.32,5.71,5.07,6.34l20.61,2.22v13.95h-73.23Z"/>
    <path class="uuid-40c7286a-bfaa-4bf8-9041-99f54492b34d" d="M665.01,650.08v-14.27l21.24-1.9c4.44-.32,5.07-1.59,5.07-6.34v-190.85c0-3.49-.95-5.71-4.12-6.66l-19.34-6.02,2.54-13.32h42.16v216.84c0,5.07.32,5.71,5.07,6.34l20.61,2.22v13.95h-73.23Z"/>
    <path class="uuid-40c7286a-bfaa-4bf8-9041-99f54492b34d" d="M887.24,628.84c-13.31,18.07-36.77,25.04-58.97,25.04-56.11,0-71.01-39.63-71.01-83.38,0-56.11,31.07-85.59,75.45-85.59,31.7,0,54.84,17.75,54.84,46.6,0,45.65-37.09,48.19-108.1,47.24,2.22,30.43,12.05,55.79,50.41,55.79,19.66,0,32.65-6.66,43.11-19.02l14.27,13.32ZM866,531.19c0-16.48-13.63-27.58-35.82-27.58-26.95,0-47.55,14.9-50.41,57.7,68.79.32,86.23-.63,86.23-30.12Z"/>
    <path class="uuid-40c7286a-bfaa-4bf8-9041-99f54492b34d" d="M1096.15,653.88c-72.28,0-104.93-50.09-104.93-118.88s38.04-118.56,109.37-118.56,103.35,50.09,103.35,113.81c0,74.82-36.46,123.64-107.79,123.64ZM1097.42,635.18c50.41,0,84.64-33.6,84.64-101.76,0-63.4-32.02-98.28-82.11-98.28s-86.55,35.19-86.55,99.86,33.29,100.18,84.01,100.18ZM1059.69,360.64h24.41v42.48h-24.41v-42.48ZM1116.44,360.64h24.41v42.48h-24.41v-42.48Z"/>
    <path class="uuid-40c7286a-bfaa-4bf8-9041-99f54492b34d" d="M1340.25,645c-12.05,4.75-25.68,8.88-40.9,8.88-27.58,0-40.9-13.95-40.9-39.31v-105.57c0-1.9,0-3.17-2.54-3.17h-23.46v-14.27c23.46-3.17,28.85-11.41,32.97-42.8h14.27v36.14c0,1.9,0,3.17,2.54,3.17h47.24v17.75h-49.77v100.81c0,20.29,5.71,28.21,24.09,28.21,10.46,0,21.24-2.85,30.43-6.34l6.02,16.49Z"/>
    <path class="uuid-40c7286a-bfaa-4bf8-9041-99f54492b34d" d="M1359.28,650.08v-13.32l98.91-130.93h-70.06c-2.54,0-3.17,1.9-3.49,4.12l-3.8,20.92-16.8.95v-43.75h121.74v13.95l-98.28,130.29h74.82c2.54,0,3.17-1.9,3.49-4.12l3.8-24.09,16.8-.95v46.92h-127.12Z"/>
    <path class="uuid-40c7286a-bfaa-4bf8-9041-99f54492b34d" d="M1614.8,645c-12.05,4.75-25.68,8.88-40.9,8.88-27.58,0-40.9-13.95-40.9-39.31v-105.57c0-1.9,0-3.17-2.54-3.17h-23.46v-14.27c23.46-3.17,28.85-11.41,32.97-42.8h14.27v36.14c0,1.9,0,3.17,2.54,3.17h47.24v17.75h-49.77v100.81c0,20.29,5.71,28.21,24.09,28.21,10.46,0,21.24-2.85,30.43-6.34l6.02,16.49Z"/>
    <path class="uuid-40c7286a-bfaa-4bf8-9041-99f54492b34d" d="M1767.28,653.56c-17.75,0-26.31-9.51-27.9-23.78l-.95-.32c-16.17,15.53-32.97,24.41-57.06,24.41-39.63,0-45.65-27.26-45.65-42.16,0-31.7,19.66-45.97,57.06-49.77,15.22-1.59,30.12-2.22,45.33-2.85v-17.75c0-26.63-5.39-38.36-36.14-38.36-21.24,0-37.41,0-37.72,25.68l-20.29-2.54c0-37.41,34.87-41.21,58.33-41.21,43.43,0,57.06,12.68,57.06,55.79v79.89c0,10.46,2.85,15.53,11.73,15.53,4.44,0,8.24-.63,14.9-2.85l3.17,14.9c-6.02,3.17-15.22,5.39-21.88,5.39ZM1738.12,575.89c-13.95.32-27.58.95-41.53,2.54-30.43,3.49-38.68,13-38.68,30.75,0,19.02,11.1,26.95,27.58,26.95,21.88,0,40.9-13.31,52.63-28.85v-31.39Z"/>
    <path class="uuid-40c7286a-bfaa-4bf8-9041-99f54492b34d" d="M1802.79,650.08v-14.27l21.24-1.9c4.44-.32,5.07-1.59,5.07-6.34v-190.85c0-3.49-.95-5.71-4.12-6.66l-19.34-6.02,2.54-13.32h42.16v216.84c0,5.07.32,5.71,5.07,6.34l20.61,2.22v13.95h-73.23Z"/>
  </g>
  <g class="uuid-c4d2d702-2839-416c-b2c4-a9f236d18617">
    <path class="uuid-40c7286a-bfaa-4bf8-9041-99f54492b34d" d="M2.44,286.43v-11.41l13.31-3.49c3.8-.95,6.34-1.9,7.61-5.71L89.94,69.59l-39.63-.63,1.59-12.05h64.99l64.67,192.43c6.66,20.61,11.1,27.26,20.92,27.26,3.8,0,8.88-.95,14.9-2.85l3.17,11.1c-7.93,3.8-14.27,5.07-20.92,5.07-17.44,0-25.68-11.41-32.65-33.6l-15.53-48.5H58.55l-21.24,64.35,25.68,2.85v11.41H2.44ZM63.31,194.18h83.38l-40.9-125.86-42.48,125.86Z"/>
    <path class="uuid-40c7286a-bfaa-4bf8-9041-99f54492b34d" d="M353.07,286.43l-1.9-22.51c-15.53,14.27-32.97,26.31-58.97,26.31-35.51,0-59.6-22.83-59.6-79.89,0-61.5,26.31-88.13,66.57-88.13,19.66,0,37.09,8.24,50.72,19.34v-72.28c0-3.17-1.27-5.39-4.12-6.34l-19.66-6.02,2.54-9.83h37.41v219.69c0,5.07.32,5.71,5.07,6.34l16.8,2.22v11.1h-34.87ZM349.89,157.72c-11.1-11.1-30.75-22.19-52.94-22.19-34.24,0-48.5,29.17-48.5,74.18,0,53.89,21.87,67.21,45.02,67.21,24.41,0,41.53-13.63,56.43-30.43v-88.76Z"/>
    <path class="uuid-40c7286a-bfaa-4bf8-9041-99f54492b34d" d="M540.43,265.51c-12.36,17.75-34.87,24.73-56.11,24.73-55.8,0-69.43-39.94-69.43-83.38,0-55.16,30.12-84.96,73.23-84.96,30.43,0,53.26,17.44,53.26,45.65,0,46.28-37.09,48.19-110.64,46.92,2.22,32.97,13,62.14,53.89,62.14,20.29,0,35.51-6.97,45.33-19.66l10.46,8.56ZM431.06,201.16c74.5.32,93.52-2.22,93.52-34.24,0-17.44-13.63-31.07-37.73-31.07-29.48,0-52.63,17.44-55.79,65.31Z"/>
    <path class="uuid-40c7286a-bfaa-4bf8-9041-99f54492b34d" d="M565.79,286.43v-11.41l22.51-1.9c4.44-.32,5.07-1.58,5.07-6.34V69.91c0-3.49-.95-5.71-4.12-6.66l-19.66-6.02,2.22-10.14h37.09v219.69c0,5.07.32,5.71,5.07,6.34l21.87,2.22v11.1h-70.06Z"/>
    <path class="uuid-40c7286a-bfaa-4bf8-9041-99f54492b34d" d="M655.5,286.43v-11.41l22.51-1.9c4.44-.32,5.07-1.58,5.07-6.34V69.91c0-3.49-.95-5.71-4.12-6.66l-19.66-6.02,2.22-10.14h37.09v219.69c0,5.07.32,5.71,5.07,6.34l21.87,2.22v11.1h-70.06Z"/>
    <path class="uuid-40c7286a-bfaa-4bf8-9041-99f54492b34d" d="M875.19,265.51c-12.36,17.75-34.87,24.73-56.11,24.73-55.8,0-69.43-39.94-69.43-83.38,0-55.16,30.12-84.96,73.23-84.96,30.43,0,53.26,17.44,53.26,45.65,0,46.28-37.09,48.19-110.64,46.92,2.22,32.97,13,62.14,53.89,62.14,20.29,0,35.51-6.97,45.33-19.66l10.46,8.56ZM765.82,201.16c74.5.32,93.52-2.22,93.52-34.24,0-17.44-13.63-31.07-37.73-31.07-29.48,0-52.63,17.44-55.79,65.31Z"/>
    <path class="uuid-40c7286a-bfaa-4bf8-9041-99f54492b34d" d="M1088.23,290.24c-71.33,0-104.3-50.41-104.3-117.93s38.04-119.52,108.74-119.52,102.71,49.77,102.71,113.49c0,74.82-36.77,123.95-107.15,123.95ZM1089.18,276.61c53.89,0,90.35-36.46,90.35-107.15,0-65.62-34.24-103.03-87.5-103.03s-91.62,37.72-91.62,105.88,33.6,104.3,88.77,104.3ZM1054.62,39.79V.17h20.61v39.63h-20.61ZM1109.47,39.79V.17h20.61v39.63h-20.61Z"/>
    <path class="uuid-40c7286a-bfaa-4bf8-9041-99f54492b34d" d="M1327.58,281.36c-10.78,5.07-23.46,8.88-38.04,8.88-25.36,0-38.68-13.63-38.68-36.14v-112.54c0-1.9,0-3.17-2.54-3.17h-23.46v-9.51c22.51-3.17,26.63-10.14,30.75-40.58h11.1v33.92c0,1.9,0,3.17,2.54,3.17h47.55v13h-50.09v108.1c0,20.61,6.66,30.12,25.36,30.12,10.78,0,21.56-3.8,30.75-7.61l4.75,12.36Z"/>
    <path class="uuid-40c7286a-bfaa-4bf8-9041-99f54492b34d" d="M1347.87,286.43v-10.14l102.71-137.27h-77.35c-2.54,0-3.17,1.9-3.49,4.12l-3.8,22.83-12.36.63v-41.21h118.25v10.46l-103.03,136.95h83.06c2.54,0,3.17-1.9,3.49-4.12l3.8-25.68,12.36-.95v44.38h-123.64Z"/>
    <path class="uuid-40c7286a-bfaa-4bf8-9041-99f54492b34d" d="M1596.41,281.36c-10.78,5.07-23.46,8.88-38.04,8.88-25.36,0-38.68-13.63-38.68-36.14v-112.54c0-1.9,0-3.17-2.54-3.17h-23.46v-9.51c22.51-3.17,26.63-10.14,30.75-40.58h11.1v33.92c0,1.9,0,3.17,2.54,3.17h47.55v13h-50.09v108.1c0,20.61,6.66,30.12,25.36,30.12,10.78,0,21.56-3.8,30.75-7.61l4.75,12.36Z"/>
    <path class="uuid-40c7286a-bfaa-4bf8-9041-99f54492b34d" d="M1664.57,290.24c-37.72,0-43.75-27.26-43.75-41.21,0-31.7,19.34-43.75,56.43-47.55,16.17-1.59,31.39-2.22,47.24-2.85v-21.87c0-29.17-6.02-41.21-39.31-41.21-22.51,0-40.26,1.27-40.9,28.21l-14.9-2.22c0-36.14,33.92-39.63,56.11-39.63,42.48,0,54.85,12.68,54.85,55.48v83.06c0,10.78,2.85,15.85,12.05,15.85,4.44,0,8.56-.63,15.53-2.85l3.17,11.1c-6.02,3.17-14.9,5.39-19.97,5.39-16.17,0-25.36-9.83-26.63-26-16.17,16.17-36.14,26.31-59.92,26.31ZM1724.49,211.3c-15.22.32-30.43,1.27-45.65,2.85-32.97,3.49-41.53,13.95-41.53,32.97,0,20.29,11.1,29.8,28.85,29.8,24.09,0,45.65-13.95,58.33-30.12v-35.51Z"/>
    <path class="uuid-40c7286a-bfaa-4bf8-9041-99f54492b34d" d="M1785.99,286.43v-11.41l22.51-1.9c4.44-.32,5.07-1.58,5.07-6.34V69.91c0-3.49-.95-5.71-4.12-6.66l-19.66-6.02,2.22-10.14h37.09v219.69c0,5.07.32,5.71,5.07,6.34l21.87,2.22v11.1h-70.06Z"/>
  </g>
  <g class="uuid-4cea9996-9c70-4d95-97f8-157c1aa93039">
    <path class="uuid-40c7286a-bfaa-4bf8-9041-99f54492b34d" d="M1.17,1013.72v-17.12l13.63-3.49c4.12-.95,6.66-2.54,7.93-6.34l62.45-179.43-39.94-.95,2.22-22.19h81.79l62.77,184.82c6.34,19.66,10.46,26,20.29,26,3.8,0,8.56-.95,14.58-2.85l4.12,19.02c-7.61,4.12-17.12,6.02-26.95,6.02-21.87,0-31.7-12.05-39.63-35.82l-12.05-37.73h-87.81l-16.8,50.09,25.68,2.85v17.12H1.17ZM71.87,920.52h73.55l-35.51-111.91-38.04,111.91Z"/>
    <path class="uuid-40c7286a-bfaa-4bf8-9041-99f54492b34d" d="M347.99,1013.72l-2.54-20.92-1.27-.32c-14.58,13.95-31.07,25.04-55.8,25.04-36.14,0-59.92-23.46-59.92-81.79,0-62.45,28.21-88.13,66.26-88.13,19.02,0,36.14,6.34,48.5,15.22v-59.28c0-3.17-1.27-5.39-4.12-6.34l-19.02-6.02,2.85-16.8h48.5v213.67c0,5.07.32,5.71,5.07,6.34l16.17,2.22v17.12h-44.7ZM342.6,888.5c-9.51-7.93-26.63-17.12-43.43-17.12-29.8,0-41.53,26-41.53,63.72,0,44.07,14.9,58.33,37.09,58.33,18.7,0,33.92-12.36,47.87-26.31v-78.62Z"/>
    <path class="uuid-40c7286a-bfaa-4bf8-9041-99f54492b34d" d="M543.59,992.16c-14.58,18.39-39.31,25.36-62.45,25.36-57.06,0-73.23-39.31-73.23-83.38,0-57.38,32.34-86.55,78.3-86.55,33.6,0,56.75,18.39,56.75,48.19,0,44.38-36.77,48.19-104.62,47.24,1.9,26.95,11.1,49.46,45.65,49.46,18.7,0,32.02-6.34,43.11-18.39l16.48,18.07ZM438.34,921.15c61.18,0,77.04-.95,77.04-25.68,0-14.9-12.05-24.73-31.7-24.73-23.78,0-42.8,13.31-45.33,50.41Z"/>
    <path class="uuid-40c7286a-bfaa-4bf8-9041-99f54492b34d" d="M558.17,1013.72v-17.44l19.65-1.9c4.44-.32,5.07-1.58,5.07-6.34v-184.19c0-3.49-.95-5.71-4.12-6.66l-19.02-6.02,2.85-16.8h49.14v213.67c0,5.07.32,5.71,5.07,6.34l19.02,2.22v17.12h-77.67Z"/>
    <path class="uuid-40c7286a-bfaa-4bf8-9041-99f54492b34d" d="M645.99,1013.72v-17.44l19.65-1.9c4.44-.32,5.07-1.58,5.07-6.34v-184.19c0-3.49-.95-5.71-4.12-6.66l-19.02-6.02,2.85-16.8h49.14v213.67c0,5.07.32,5.71,5.07,6.34l19.02,2.22v17.12h-77.67Z"/>
    <path class="uuid-40c7286a-bfaa-4bf8-9041-99f54492b34d" d="M872.66,992.16c-14.58,18.39-39.31,25.36-62.45,25.36-57.06,0-73.23-39.31-73.23-83.38,0-57.38,32.34-86.55,78.3-86.55,33.6,0,56.75,18.39,56.75,48.19,0,44.38-36.77,48.19-104.62,47.24,1.9,26.95,11.1,49.46,45.65,49.46,18.7,0,32.02-6.34,43.11-18.39l16.48,18.07ZM767.4,921.15c61.18,0,77.04-.95,77.04-25.68,0-14.9-12.05-24.73-31.7-24.73-23.78,0-42.8,13.31-45.33,50.41Z"/>
    <path class="uuid-40c7286a-bfaa-4bf8-9041-99f54492b34d" d="M1082.52,1017.52c-73.55,0-105.88-49.77-105.88-119.83s38.04-117.61,110.32-117.61,104.3,50.41,104.3,114.13c0,74.82-36.14,123.32-108.74,123.32ZM1084.1,993.11c45.97,0,77.04-30.43,77.04-95.74,0-60.87-28.85-92.89-74.82-92.89s-79.57,32.34-79.57,93.2,30.75,95.42,77.35,95.42ZM1042.57,766.44v-46.28h29.48v46.28h-29.48ZM1101.86,766.44v-46.28h29.48v46.28h-29.48Z"/>
    <path class="uuid-40c7286a-bfaa-4bf8-9041-99f54492b34d" d="M1329.79,1007.7c-12.68,5.07-27.9,9.83-44.07,9.83-30.43,0-44.06-14.26-44.06-42.8v-98.91c0-1.9,0-3.17-2.54-3.17h-23.14v-18.39c24.73-3.17,31.7-13,35.82-45.33h18.7v38.68c0,1.9,0,3.17,2.54,3.17h46.6v21.87h-49.14v93.52c0,19.97,4.75,27.58,22.83,27.58,9.83,0,20.92-2.85,29.48-6.34l6.97,20.29Z"/>
    <path class="uuid-40c7286a-bfaa-4bf8-9041-99f54492b34d" d="M1341.52,1013.72v-17.12l94.79-124.59h-62.77c-2.54,0-3.17,1.9-3.49,4.12l-3.8,19.97-21.56,1.27v-46.6h126.81v17.75l-94.15,123.96h66.89c2.85,0,3.17-2.22,3.49-4.12l3.8-23.46,21.87-.95v49.77h-131.88Z"/>
    <path class="uuid-40c7286a-bfaa-4bf8-9041-99f54492b34d" d="M1597.67,1007.7c-12.68,5.07-27.9,9.83-44.07,9.83-30.43,0-44.06-14.26-44.06-42.8v-98.91c0-1.9,0-3.17-2.54-3.17h-23.14v-18.39c24.73-3.17,31.7-13,35.82-45.33h18.7v38.68c0,1.9,0,3.17,2.54,3.17h46.6v21.87h-49.14v93.52c0,19.97,4.75,27.58,22.83,27.58,9.83,0,20.92-2.85,29.48-6.34l6.97,20.29Z"/>
    <path class="uuid-40c7286a-bfaa-4bf8-9041-99f54492b34d" d="M1649.66,1017.52c-40.9,0-45.97-27.26-45.97-43.43,0-31.7,19.97-45.97,57.7-49.77,14.26-1.59,28.53-2.22,42.8-2.54v-17.75c0-22.83-4.44-34.24-32.02-34.24-19.34,0-32.97.63-33.29,24.09l-27.9-2.85c0-38.99,36.46-43.43,61.5-43.43,45.02,0,60.23,12.68,60.23,56.43v76.72c0,10.14,2.85,15.22,11.41,15.22,4.12,0,7.61-.63,13.95-2.54l3.17,18.39c-6.34,2.85-15.85,5.39-24.73,5.39-19.02,0-27.26-10.15-29.17-23.46l-1.27-.32c-14.9,14.58-32.02,24.09-56.43,24.09ZM1704.19,942.39c-12.05.32-23.78.95-35.82,2.22-27.26,2.85-34.87,10.46-34.87,27.58,0,15.85,8.24,22.51,23.14,22.51,18.7,0,37.09-12.68,47.55-24.41v-27.9Z"/>
    <path class="uuid-40c7286a-bfaa-4bf8-9041-99f54492b34d" d="M1773.3,1013.72v-17.44l19.66-1.9c4.44-.32,5.07-1.58,5.07-6.34v-184.19c0-3.49-.95-5.71-4.12-6.66l-19.02-6.02,2.85-16.8h49.14v213.67c0,5.07.32,5.71,5.07,6.34l19.02,2.22v17.12h-77.67Z"/>
  </g>
  <g>
    <path class="uuid-40c7286a-bfaa-4bf8-9041-99f54492b34d" d="M151.75,1316.81h-77.67l-11.1,32.97,25.04,2.85v24.73H-.41v-24.73l13.95-3.49c4.44-.95,7.29-3.49,8.56-7.61l55.16-154.39-38.99-1.59,2.54-37.72h106.2l59.6,173.72c6.34,18.39,10.14,24.73,19.97,24.73,3.49,0,8.24-.95,13.63-2.85l6.02,30.12c-7.29,4.12-21.56,7.29-36.14,7.29-28.21,0-39.94-13-49.45-39.31l-8.88-24.73ZM116.25,1195.08h-2.85l-29.48,87.5h58.97l-26.63-87.5Z"/>
    <path class="uuid-40c7286a-bfaa-4bf8-9041-99f54492b34d" d="M357.5,1377.36l-3.17-17.75-2.22-.32c-13.31,13-28.85,21.87-51.99,21.87-37.41,0-61.5-23.78-61.5-84.33,0-63.72,32.02-87.81,67.21-87.81,18.39,0,32.65,6.34,44.7,15.22v-48.19c0-3.17-1.27-5.39-4.12-6.34l-17.44-6.02,3.49-25.68h63.72v206.06c0,4.75.32,5.39,5.07,6.02l15.22,2.22v25.04h-58.97ZM348.62,1255.31c-7.93-5.39-18.07-9.51-27.26-9.51-23.46,0-32.65,21.87-32.65,50.09,0,30.75,8.88,47.87,28.85,47.87,10.78,0,22.51-6.34,31.07-13.63v-74.82Z"/>
    <path class="uuid-40c7286a-bfaa-4bf8-9041-99f54492b34d" d="M571.17,1354.85c-17.75,19.02-45.33,26.31-71.33,26.31-58.97,0-78.62-38.68-78.62-83.06,0-61.18,35.19-89.4,85.6-89.4,37.72,0,61.5,19.66,61.5,51.99,0,43.43-36.14,50.41-96.37,50.09,1.59,16.48,8.88,32.65,34.24,32.65,16.48,0,29.8-7.29,43.12-18.07l21.87,29.48ZM470.99,1279.09c42.48,0,54.53-1.58,54.53-18.07,0-11.73-8.56-18.07-21.24-18.07-15.85,0-31.07,8.56-33.29,36.14Z"/>
    <path class="uuid-40c7286a-bfaa-4bf8-9041-99f54492b34d" d="M579.09,1377.36v-25.04l15.85-2.22c4.44-.64,5.07-1.59,5.07-6.34v-167.39c0-3.49-.95-5.71-4.12-6.66l-17.44-6.02,3.49-25.68h65.94v205.75c0,5.07.32,5.71,5.07,6.34l15.53,2.22v25.04h-89.4Z"/>
    <path class="uuid-40c7286a-bfaa-4bf8-9041-99f54492b34d" d="M672.93,1377.36v-25.04l15.85-2.22c4.44-.64,5.07-1.59,5.07-6.34v-167.39c0-3.49-.95-5.71-4.12-6.66l-17.44-6.02,3.49-25.68h65.94v205.75c0,5.07.32,5.71,5.07,6.34l15.53,2.22v25.04h-89.4Z"/>
    <path class="uuid-40c7286a-bfaa-4bf8-9041-99f54492b34d" d="M918.94,1354.85c-17.75,19.02-45.33,26.31-71.33,26.31-58.97,0-78.62-38.68-78.62-83.06,0-61.18,35.19-89.4,85.6-89.4,37.72,0,61.5,19.66,61.5,51.99,0,43.43-36.14,50.41-96.37,50.09,1.59,16.48,8.88,32.65,34.24,32.65,16.48,0,29.8-7.29,43.12-18.07l21.87,29.48ZM818.76,1279.09c42.48,0,54.53-1.58,54.53-18.07,0-11.73-8.56-18.07-21.24-18.07-15.85,0-31.07,8.56-33.29,36.14Z"/>
    <path class="uuid-40c7286a-bfaa-4bf8-9041-99f54492b34d" d="M1115.81,1381.17c-76.72,0-109.05-49.14-109.05-117.93s38.04-119.52,113.49-119.52,107.47,51.67,107.47,115.4c0,74.5-36.46,122.05-111.91,122.05ZM1117.71,1342.17c35.51,0,59.6-21.88,59.6-80.21,0-54.85-21.87-78.3-57.7-78.3s-62.14,24.09-62.14,78.62,23.78,79.89,60.23,79.89ZM1066.35,1128.82v-55.8h42.48v55.8h-42.48ZM1131.66,1128.82v-55.8h42.48v55.8h-42.48Z"/>
    <path class="uuid-40c7286a-bfaa-4bf8-9041-99f54492b34d" d="M1369.74,1368.49c-13.63,6.66-33.6,12.68-51.67,12.68-37.73,0-51.99-15.22-51.99-51.04v-83.06c0-1.9,0-3.17-2.54-3.17h-22.19v-28.21c27.9-3.17,38.99-17.12,42.48-51.67h30.12v45.01c0,2.22,0,3.17,2.54,3.17h44.7v31.7h-47.24v75.77c0,18.7,4.44,25.99,21.56,25.99,8.88,0,18.07-2.22,25.68-5.07l8.56,27.9Z"/>
    <path class="uuid-40c7286a-bfaa-4bf8-9041-99f54492b34d" d="M1378.61,1377.36v-26.63l84.96-108.74h-44.38c-2.85,0-3.17,2.22-3.49,4.12l-3.8,17.75-33.6,1.9v-53.57h139.17v27.26l-83.38,108.42h46.6c2.85,0,3.17-2.22,3.49-4.12l3.8-21.88,34.55-1.58v57.06h-143.93Z"/>
    <path class="uuid-40c7286a-bfaa-4bf8-9041-99f54492b34d" d="M1654.42,1368.49c-13.63,6.66-33.61,12.68-51.67,12.68-37.73,0-51.99-15.22-51.99-51.04v-83.06c0-1.9,0-3.17-2.54-3.17h-22.19v-28.21c27.9-3.17,38.99-17.12,42.48-51.67h30.12v45.01c0,2.22,0,3.17,2.54,3.17h44.7v31.7h-47.24v75.77c0,18.7,4.44,25.99,21.56,25.99,8.88,0,18.07-2.22,25.68-5.07l8.56,27.9Z"/>
    <path class="uuid-40c7286a-bfaa-4bf8-9041-99f54492b34d" d="M1701.66,1381.17c-39.94,0-46.92-27.26-46.92-46.92,0-31.7,21.24-45.02,59.28-49.14,11.73-1.27,24.41-1.59,36.46-1.9v-17.12c0-14.9-1.58-25.04-21.24-25.04-15.22,0-23.14,2.22-23.14,20.92l-44.7-3.49c0-42.8,38.99-49.77,68.16-49.77,48.19,0,67.53,13.32,67.53,57.7v69.75c0,9.51,3.17,13.95,11.09,13.95,3.49,0,6.34-.32,11.1-1.9l3.49,26.95c-6.66,2.85-17.12,5.71-31.39,5.71-22.51,0-32.65-10.78-35.5-21.87h-1.9c-11.73,12.04-26.95,22.19-52.31,22.19ZM1750.48,1310.47c-7.29,0-14.26.32-21.56.95-18.7,1.58-25.04,6.97-25.04,18.39s7.93,15.85,18.7,15.85,20.92-4.75,27.9-11.41v-23.78Z"/>
    <path class="uuid-40c7286a-bfaa-4bf8-9041-99f54492b34d" d="M1830.37,1377.36v-25.04l15.85-2.22c4.44-.64,5.07-1.59,5.07-6.34v-167.39c0-3.49-.95-5.71-4.12-6.66l-17.44-6.02,3.49-25.68h65.94v205.75c0,5.07.32,5.71,5.07,6.34l15.53,2.22v25.04h-89.4Z"/>
  </g>
</svg>