<?xml version="1.0" encoding="UTF-8"?>
<svg id="uuid-ba6775ef-2563-47f1-a357-3351d08c6298" data-name="uuid-1e8eb78c-7d5a-44b2-9b07-741e58e54a73" xmlns="http://www.w3.org/2000/svg" viewBox="0 0 1080 1080">
  <defs>
    <style>
      .uuid-133ad27a-c6e8-45ea-bbef-ce1f95c65266 {
        fill: #3e0505;
        stroke-width: 0px;
      }
    </style>
  </defs>
  <path class="uuid-133ad27a-c6e8-45ea-bbef-ce1f95c65266" d="M307.72,1080c-250.15,0-293.82-170.74-293.82-293.82,0-198.53,133.01-281.92,371.24-307.72,73.46-7.95,152.87-9.93,228.31-11.92v-107.21c0-93.3-9.92-156.84-133.01-156.84-95.3,0-144.93,13.9-144.93,131.04l-279.92-21.85C55.59,43.68,299.78,0,482.42,0c301.76,0,422.87,83.39,422.87,361.32v436.77c0,59.55,19.84,87.36,69.48,87.36,21.84,0,39.71-2,69.49-11.92l21.84,168.75c-41.7,17.86-107.2,35.73-196.55,35.73-140.95,0-204.48-67.5-222.34-136.98h-11.92c-73.46,75.43-168.75,138.96-327.57,138.96ZM613.45,637.29c-45.66,0-89.33,1.98-135,5.95-117.14,9.92-156.84,43.68-156.84,115.14s49.63,99.27,117.12,99.27,131.03-29.78,174.71-71.46v-148.9Z"/>
</svg>