<?xml version="1.0" encoding="UTF-8"?>
<svg id="uuid-fc2039b9-cc15-4c97-821a-f51ec4aaf40b" xmlns="http://www.w3.org/2000/svg" xmlns:xlink="http://www.w3.org/1999/xlink" version="1.1" viewBox="0 0 1866.3 529.1">
  <defs>
    <style>
      .cls-1 {
        clip-path: url(#clippath);
      }

      .cls-2 {
        fill: none;
      }

      .cls-2, .cls-3 {
        stroke-width: 0px;
      }

      .cls-3 {
        fill: #ba9893;
      }
    </style>
    <clipPath id="clippath">
      <rect class="cls-2" x="2.5" y="3.3" width="1861.3" height="522.5"/>
    </clipPath>
  </defs>
  <g class="cls-1">
    <path class="cls-3" d="M1184.6,108.2h10.8v-12.5h-10.8v12.5ZM1051.7,108.2v-17.7h-5.7l-1.8,10c-.2,1.1-.6,1.3-1.8,1.3h-32.6V33.3c0-1.6.1-2.1,1.8-2.2l9.5-.9v-5.2h-28.1v5.1l7.2.8c1.6.1,1.8.6,1.8,2.3v66.8c0,1.7-.2,2.1-1.8,2.3l-7.2.8v5.1h58.8ZM821,31.1l14.1,43.6h-28.7l14.6-43.6ZM806.5,108.2v-5l-9.3-1,6.9-20.7h33.2l4.9,15.5c2.7,8.2,5.9,12.5,12.9,12.5s5.7-.6,8.5-2l-1.3-5.3c-2.2.7-4,1-5.4,1-3.5,0-5.1-2.4-7.5-9.6l-23.1-68.6h-26.2l-.7,5.8,14.5.3-23.6,68.6c-.5,1.4-1.4,1.9-2.8,2.2l-4.9,1.3v5h23.8ZM646.8,108.2v-5.2s-12.6-.9-12.6-.9c-1.7-.1-1.9-.6-1.9-2.2V31.5h20.2c1.3,0,1.6.1,1.8,1.3l1.8,10h5.7v-17.7h-66.8v17.7h5.7l1.8-10c.2-1.1.6-1.3,1.9-1.3h20.1v68.5c0,1.7-.2,2.2-1.9,2.3l-11.8.8v5.1h35.8ZM464.7,108.2v-20h-5.9l-2.2,12.3c-.2,1.1-.6,1.3-1.8,1.3h-40.3l49.5-71.2v-5.5h-57.7v18.7l6-.3,2.2-10.7c.2-1.1.6-1.3,1.8-1.3h38.2l-49.7,71.4v5.3h60.1ZM260,108.2v-5.2l-12.6-.9c-1.7-.1-1.8-.6-1.8-2.2V31.5h20.2c1.3,0,1.6.1,1.8,1.3l1.8,10h5.7v-17.7h-66.8v17.7h5.7l1.8-10c.2-1.1.6-1.3,1.8-1.3h20.1v68.5c0,1.7-.2,2.2-1.8,2.3l-11.8.8v5.1h35.8ZM10.5,66.5c0-23.4,13-36.2,31.4-36.2s29.8,12.6,29.8,35.6-12.4,36.9-30.7,36.9-30.4-12.8-30.4-36.3M79.5,64.8c0-23.1-11.8-41.2-37.4-41.2S2.5,41.7,2.5,66.5s11.8,43.1,38,43.1,39.1-17.7,39.1-44.8M27.3,18.7h8.8V3.4h-8.8v15.4ZM47.8,18.7h8.8V3.4h-8.8v15.4Z"/>
    <path class="cls-3" d="M1379.9,524.4h10.8v-12.5h-10.8v12.5ZM1246.8,524.4v-5l-7.7-.9c-1.7-.2-1.8-.5-1.8-2.3v-66.7c0-1.7.1-2,1.8-2.2l7.7-.9v-5h-26.3v5.1l7.2.8c1.6.1,1.8.6,1.8,2.3v28.8h-42.7v-28.8c0-1.7.1-2,1.8-2.2l7.7-.9v-5h-26.3v5.1l7.2.8c1.6.1,1.8.6,1.8,2.3v66.8c0,1.7-.2,2.1-1.8,2.3l-7.2.8v5.1h26.3v-5l-7.7-.9c-1.7-.2-1.8-.5-1.8-2.3v-31.5h42.7v31.6c0,1.7-.2,2.1-1.8,2.3l-7.2.8v5.1h26.3ZM1037,504.1h-5.4l-1.8,10.2c-.2,1.1-.7,1.6-1.5,1.9-4.8,2.2-12.1,2.8-17.9,2.8-19.3,0-31.2-12.8-31.2-36.8s12.6-35.7,32.1-35.7,11.9,1.3,16.3,2.9c1.3.5,1.4,1.1,1.5,2.1l1.9,10.8,5.8.3v-16.8c-5.5-3.7-14.7-6.1-25-6.1-27.2,0-40.6,18.1-40.6,42.4s11,43.6,38.8,43.6,21.2-1.8,27.1-6v-15.7ZM841.5,524.4v-5.1l-8.9-.9c-1.7-.2-1.8-.5-1.8-2.3v-66.7c0-1.7.1-2,1.8-2.2l8.9-.9v-5.1h-28.6v5.1l8.4.8c1.6.1,1.8.6,1.8,2.3v66.8c0,1.7-.2,2.1-1.8,2.3l-8.4.8v5.1h28.6ZM625.3,517.6v-69.7h15.7c21,0,33.9,7.9,33.9,35.4s-11.9,34.4-34.6,34.4h-15.1ZM639.8,524.4c29.8,0,43.2-17.3,43.2-42.8s-12.4-40.3-41.2-40.3h-33.2v5.1l7.2.8c1.6.1,1.8.6,1.8,2.3v66.8c0,1.7-.2,2.1-1.8,2.3l-7.2.8v5.1h31.2Z"/>
    <path class="cls-3" d="M1848.6,316.3v-5.2l-12.6-.9c-1.7-.1-1.8-.6-1.8-2.2v-68.5h20.2c1.3,0,1.6.1,1.8,1.3l1.8,10h5.7v-17.7h-66.8v17.7h5.7l1.8-10c.2-1.1.6-1.3,1.8-1.3h20.1v68.5c0,1.7-.2,2.2-1.8,2.3l-11.8.8v5.1h35.8ZM1672.5,283.3v-5.2h-29.8l-1.1,6.3h16.8v22.4c0,1.4-.7,1.7-1.5,2-4.2,1.1-11.5,2.1-17.1,2.1-22.1,0-35.2-12.8-35.2-36.8s12.7-35.7,32.1-35.7,12.3,1.3,16.7,2.9c1.3.5,1.4,1.1,1.5,2.1l2,10.8,5.8.3v-16.8c-5.5-3.7-15-6.1-25.4-6.1-27.2,0-40.7,18.1-40.7,42.4s11.8,43.6,42.7,43.6,20.1-1.3,26.6-4.4v-27.9c0-1.1.5-1.5,1.8-1.6l4.8-.5ZM1466.2,316.3v-17.7h-5.7l-1.8,10c-.2,1.1-.6,1.3-1.8,1.3h-32.6v-32.4h32.2v-6.4h-32.2v-31.5h30.1c1.3,0,1.7.4,2,1.5l1.6,9,5.8.3v-17.2h-56.3v5.1l7.2.8c1.6.1,1.8.6,1.8,2.3v66.8c0,1.7-.2,2.1-1.8,2.3l-7.2.8v5.1h58.8ZM1249.1,316.3l19.4-74.8c.5-1.7.8-2.1,2.4-2.3l6.2-1v-5h-25.2l-1.1,5,10.7,1.1-17.4,68.9-16.7-57.8h-8.9l-16.9,56.6-17-67.8,10.4-1.1v-5h-26.3l-1.1,5,7.1,1.1c1.5.2,1.9.7,2.3,2.2l19.6,74.8h9l17.1-56.6,16.5,56.6h9.8ZM1039.7,316.3v-17.7h-5.7l-1.8,10c-.2,1.1-.6,1.3-1.8,1.3h-32.6v-32.4h32.2v-6.4h-32.2v-31.5h30.1c1.3,0,1.7.4,2,1.5l1.6,9,5.8.3v-17.2h-56.3v5.1l7.2.8c1.6.1,1.8.6,1.8,2.3v66.8c0,1.7-.2,2.1-1.8,2.3l-7.2.8v5.1h58.8ZM804.5,309.5v-32.4h17.7c11.6,0,20.5,4.7,20.5,16.6s-10.1,15.8-23.1,15.8h-15.2ZM804.5,270.5v-30.7h14c12.9,0,18.7,3.4,18.7,14.5s-11,16.2-20.4,16.2h-12.3ZM820.3,316.3c18,0,30.6-5.4,30.6-22.4s-6.4-19.3-19.5-20.8v-.3c7-2.3,14-8.4,14-19.3s-5.3-20.3-24.9-20.3h-32.5v5.1l7.2.8c1.6.1,1.8.6,1.8,2.3v66.8c0,1.7-.2,2.1-1.8,2.3l-7.2.8v5.1h32.4Z"/>
  </g>
</svg>