<?xml version="1.0" encoding="UTF-8"?>
<svg id="Ebene_2" data-name="Ebene 2" xmlns="http://www.w3.org/2000/svg" viewBox="0 0 1600 716.25">
  <defs>
    <style>
      .cls-1 {
        fill: #000;
        font-family: KitschText-Medium, 'Kitsch Text';
        font-size: 70px;
        font-weight: 500;
      }

      .cls-2 {
        fill: #005587;
        stroke-width: 0px;
      }

      .cls-3 {
        letter-spacing: .01em;
      }

      .cls-4 {
        fill: none;
        stroke: #658eb4;
        stroke-miterlimit: 10;
        stroke-width: 2px;
      }

      .cls-5 {
        letter-spacing: 0em;
      }
    </style>
  </defs>
  <g>
    <path class="cls-2" d="M360.18,176.48l14.31-11.52,22.61,18.71c11.59-.42,19.54-4.47,19.54-13.96s-7.54-14.31-21.92-21.57l-4.82-2.44c-12-6.07-24.78-14.31-24.78-27.5,0-18.29,19.33-27.08,47.11-27.08l21.57,15.29-14.24,11.45-21.64-18.08c-6.14.91-14.1,5.86-14.1,14.1,0,7.05,5.86,11.52,15.15,16.26l4.54,2.3c14.52,7.33,31.83,16.4,31.83,31.27,0,18.57-22.13,28.62-52.7,28.62l-22.47-15.84Z"/>
    <path class="cls-2" d="M498.87,174.39l1.88,4.4-21.78,12.77-15.56-.84c-16.54-6-21.99-18.01-21.99-31.06,0-22.61,20.94-39.16,42.85-39.16,5.93.91,15.42,7.61,15.42,21.29,0,2.93-.91,6.07-3.21,8.93l-36.85,9.42c.56,5.51,2.3,11.38,7.33,16.12l9.14,5.93,22.75-7.82ZM459.51,156.24v.35l24.43-9.56c.35-1.81.56-3.77.56-5.58,0-2.79-1.19-5.37-2.65-7.26-2.58-1.88-5.23-3.35-8.79-4.54-6.42,3.77-13.54,11.73-13.54,26.59Z"/>
    <path class="cls-2" d="M561.45,174.39l1.88,4.4-21.78,12.77-15.56-.84c-16.54-6-21.99-18.01-21.99-31.06,0-22.61,20.94-39.16,42.85-39.16,5.93.91,15.42,7.61,15.42,21.29,0,2.93-.91,6.07-3.21,8.93l-36.85,9.42c.56,5.51,2.3,11.38,7.33,16.12l9.14,5.93,22.75-7.82ZM522.08,156.24v.35l24.43-9.56c.35-1.81.56-3.77.56-5.58,0-2.79-1.19-5.37-2.65-7.26-2.58-1.88-5.23-3.35-8.79-4.54-6.42,3.77-13.54,11.73-13.54,26.59Z"/>
    <path class="cls-2" d="M604.06,93.14c-8.17,1.74-10.96,9.77-11.31,29.04l21.22-1.26-1.81,6.91-19.4-.84v74.67l-16.19,8.45h-1.61v-83.11l-9.14.14.77-3.7,8.45-3c0-22.47,17.17-32.95,36.78-32.95,2.65,0,5.16.28,7.82.77l2.79,15.22-12.35,6.28-6-16.61Z"/>
    <path class="cls-2" d="M665.42,174.39l1.88,4.4-21.78,12.77-15.56-.84c-16.54-6-21.99-18.01-21.99-31.06,0-22.61,20.94-39.16,42.85-39.16,5.93.91,15.42,7.61,15.42,21.29,0,2.93-.91,6.07-3.21,8.93l-36.85,9.42c.56,5.51,2.3,11.38,7.33,16.12l9.14,5.93,22.75-7.82ZM626.05,156.24v.35l24.43-9.56c.35-1.81.56-3.77.56-5.58,0-2.79-1.19-5.37-2.65-7.26-2.58-1.88-5.23-3.35-8.79-4.54-6.42,3.77-13.54,11.73-13.54,26.59Z"/>
    <path class="cls-2" d="M669.51,192.05l1.19-6.14,8.17-1.05v-86.69l-9.49,1.19-1.12-4.19,21.85-9.14,6.56,3.42v92.62l9.07,3.91-1.47,4.75h-23.87l-10.89,1.33Z"/>
    <path class="cls-2" d="M785.06,182.27l-.84,6.35-22.13,3.77c-3.21-1.68-5.16-4.68-6.28-7.4v-4.61l-22.89,12c-8.1-2.58-14.31-6.42-19.68-11.31-1.95-5.16-3.56-11.59-3.56-20.03,0-23.73,19.12-39.16,41.46-40.55,1.4.63,3,1.4,4.68,2.23v-24.71l-9.49,1.12-1.12-4.19,21.85-9.14,6.49,3.49v82.99c0,4.47.42,10.75,2.16,11.52l9.35-1.54ZM740.6,182l15.22-7.33v-37.2l-13.26-8.65c-7.75,3.77-14.73,10.96-14.73,28.27,0,6.21.63,12.49,1.88,17.31l10.89,7.61Z"/>
  </g>
  <g>
    <polygon class="cls-2" points="1054.49 183.32 1025.11 185.83 1025.11 99.01 1037.88 99.01 1039.69 92.87 995.93 92.87 994.19 97.61 1004.87 101.52 1004.87 184.93 995.72 185.97 994.47 192.12 1006.54 190.79 1068.45 190.79 1072.99 162.24 1062.17 162.24 1054.49 183.32"/>
    <path class="cls-2" d="M1114.76,182.27l-9.14-5.93c-5.03-4.75-6.77-10.61-7.33-16.12l36.85-9.42c2.3-2.86,3.21-6,3.21-8.93,0-13.68-9.49-20.38-15.42-21.29-21.92,0-42.85,16.54-42.85,39.16,0,13.05,5.44,25.06,21.99,31.06l15.56.84,21.78-12.77-1.88-4.4-22.75,7.82ZM1098.15,156.31c0-14.87,7.12-22.82,13.54-26.59,3.56,1.19,6.21,2.65,8.79,4.54,1.47,1.88,2.65,4.47,2.65,7.26,0,1.81-.21,3.77-.56,5.58l-24.43,9.56v-.35Z"/>
    <path class="cls-2" d="M1216.28,183.88c-1.68-.77-2.23-7.33-2.09-10.05v-49.76l-6.56-3.49-21.85,9.21,1.12,4.12,9.49-1.12v41.6l-15.84,7.68-9.14-7.26c-.35-1.12-.49-2.16-.49-3.98v-46.76l-6.56-3.49-21.85,9.21,1.12,4.12,9.49-1.12v44.11c.63,7.26,13.68,15.42,19.68,15.56l23.59-12.14v4.75c1.19,2.72,3.14,5.72,6.28,7.4l22.54-3.77-1.47-5.79-7.47.98Z"/>
    <path class="cls-2" d="M1262.91,180.81l-5.79-5.3c-.42-.91-.56-2.02-.56-3.35v-45.09l18.43.7,1.26-7.05-19.68,1.54.84-16.47c-.84-.49-8.38-1.88-9.7-1.68l-7.05,15.29-10.26,3.77-.7,4.05,9.14-.14v50.25c0,6,10.26,15.15,17.52,15.15-.28-.14,18.08-10.47,21.92-13.19l-1.74-3.63-13.61,5.16Z"/>
    <path class="cls-2" d="M1341.54,183.88c-1.68-.77-2.23-7.33-2.16-10.05v-36.15c-3.77-10.96-17.24-15.63-22.82-17.1l-31.9,12.28.07.07h-.07l6.56,18.15,12.7-4.96c-1.19-3.84-2.23-8.65-2.72-12.84l7.19-2.3c5.1,1.4,11.03,5.1,13.26,9v14.52l-36.92,11.1c-1.05,3-1.47,5.1-1.47,7.12,0,9.28,5.23,16.12,14.03,19.75l24.36-11.8v4.4c1.12,2.72,3.07,5.72,6.28,7.4l22.54-3.77-1.47-5.79-7.47.98ZM1321.64,175.78l-15.29,6.07c-2.09-1.33-5.79-3.7-5.79-10.68,0-1.95.56-3.91,1.54-4.96l19.54-7.26v16.82Z"/>
    <path class="cls-2" d="M1381.46,128.67l13.89,11.8,12.35-9.21-13.75-10.68c-21.99,0-35.53,8.17-35.53,20.31,0,10.33,7.89,15.22,14.52,19.05l5.79,3.77c7.33,4.26,11.8,7.05,11.8,12.28,0,4.89-2.65,8.17-10.33,8.17l-14.59-12.14-12.35,9.14,14.52,11.17c23.38,0,38.95-6.7,38.95-20.59,0-8.58-9.63-14.94-18.08-19.96l-5.51-3.56c-5.93-3.35-8.58-6.49-8.58-11.17,0-3.56,2.3-8.38,6.91-8.38Z"/>
    <path class="cls-2" d="M1444.84,129.72l14.45,12.98,13.61-9.7-15.42-12.42c-25.13.56-44.53,16.89-44.53,39.09,0,13.26,5.44,25.13,21.99,31.13l15.56.84,21.78-12.77-1.88-4.4-22.68,7.82-9.07-5.86c-6.14-5.72-7.54-13.4-7.54-20.17,0-15.36,7.33-23.1,13.75-26.52Z"/>
    <path class="cls-2" d="M1544.13,182.13v-46c-.56-7.26-13.68-15.42-19.68-15.56l-23.59,12.14v-43.41l-6.56-3.49-21.85,9.21,1.12,4.19,9.49-1.19v86.9l-8.17,1.05-1.19,6.14,10.89-1.33h23.03l1.26-4.75-8.03-2.51v-44.88l15.91-7.68,9.07,7.26c.35,1.12.56,2.16.56,3.98v42.65l-6.14,1.05-.91,5.58,8.65-.7h23.73l1.47-4.75-9.07-3.91Z"/>
  </g>
  <g>
    <path class="cls-2" d="M471.3,391.77l10.61,3.91-1.68,4.75h-27.57l-12.07,1.33,1.33-6.14,9.07-1.05v-54.44l2.16-16.54-31.41,75.17-12.56,2.3-32.39-75.38,1.12,14.17v51.93l10.68,3.91-1.68,4.75h-14.38l-12.07,1.33,1.26-6.14,9.14-1.05v-83.41l-10.68-3.91,1.74-4.75h8.93l17.38-1.4,32.73,81.1,33.43-79.71h15.15l12.14-1.26-1.33,6.07-9.07,1.05v83.41Z"/>
    <path class="cls-2" d="M530.77,330.21c17.66,5.03,25.55,18.08,25.55,31.97,0,23.73-19.26,38.11-41.67,39.92h-.63c-16.96-4.82-25.55-16.19-25.55-32.25,0-22.82,18.29-36.22,33.71-38.32l8.58-1.33ZM519.67,312.91l-14.59,7.26-6.98-14.24,14.52-7.19,7.05,14.17ZM523.93,392.47c8.58-3.77,14.17-12.91,14.17-25.41,0-10.19-2.71-17.23-7.19-21.43-4.48-4.2-9.63-5.93-9.63-5.93-8.79,3.7-14.59,12.84-14.59,25.62,0,10.05,3.17,16.15,7.26,20.94s9.98,6.21,9.98,6.21ZM547.24,312.91l-14.59,7.26-6.98-14.24,14.59-7.19,6.98,14.17Z"/>
    <path class="cls-2" d="M558.45,390.8l12.35-9.14,14.59,12.14c7.68,0,10.33-3.28,10.33-8.17,0-5.23-4.47-8.03-11.8-12.28l-5.79-3.77c-6.63-3.84-14.52-8.72-14.52-19.05,0-12.14,13.54-20.31,35.53-20.31l13.75,10.68-12.35,9.21-13.89-11.8c-4.61,0-6.91,4.82-6.91,8.38,0,4.68,2.65,7.82,8.58,11.17l5.51,3.56c8.45,5.03,18.08,11.38,18.08,19.96,0,13.89-15.56,20.59-38.95,20.59l-14.52-11.17Z"/>
    <path class="cls-2" d="M675.57,384.1l1.88,4.4-21.78,12.77-15.57-.84c-16.54-6-21.99-18.01-21.99-31.06,0-22.61,20.94-39.16,42.86-39.16,5.93.91,15.42,7.61,15.42,21.29,0,2.93-.91,6.07-3.21,8.93l-36.85,9.42c.56,5.51,2.3,11.38,7.33,16.12l9.14,5.93,22.75-7.82ZM636.2,365.95v.35l24.43-9.56c.35-1.81.56-3.77.56-5.58,0-2.79-1.19-5.37-2.65-7.26-2.58-1.88-5.23-3.35-8.79-4.54-6.42,3.77-13.54,11.73-13.54,26.59Z"/>
    <path class="cls-2" d="M711.1,348.36v43.41l10.68,3.84-1.68,4.82-25.06.07-12.07,1.33,1.26-6.14,9.07-1.05v-52.14l-9.49,1.12-1.12-4.12,21.85-9.21,6.56,3.49v8.86l17.59-12.42c2.79,0,8.1,2.72,13.47,6.63l-9.07,13.54c-4.19-3.91-6.35-5.72-11.52-9l-10.47,6.98Z"/>
    <path class="cls-2" d="M817.78,391.77l9.07,3.91-1.47,4.75h-23.73l-8.65.7.91-5.58,6.14-1.05v-42.65c0-1.81-.21-2.86-.56-3.98l-9.07-7.26-15.91,7.68v45.02l8.03,2.44-1.26,4.68h-23.03l-10.89,1.33,1.19-6.14,8.17-1.05v-52.14l-9.49,1.19-1.12-4.19,21.85-9.21,6.56,3.49v8.72l23.59-12.21c6,.14,19.12,8.31,19.68,15.56v46Z"/>
  </g>
  <g>
    <path class="cls-2" d="M1036.4,357.09l-11.45-.28v32.59l10.68,3.91-1.68,4.75h-27.57l-12.07,1.33,1.26-6.14,9.14-1.05v-83.41l-10.68-3.91,1.74-4.75h8.93l46.69-1.68c13.12,5.03,23.52,12.56,23.52,27.08s-11.52,26.52-26.94,30.36l5.03,1.47,29.45,33.64,1.74,3.77-17.24,7.33-30.57-45.02ZM1038.14,304.88l-13.19,1.61v41.53l17.17,3.84c7.54-2.79,13.19-12.07,13.19-21.92,0-9.21-1.4-14.8-4.68-18.84l-12.49-6.21Z"/>
    <path class="cls-2" d="M1143.26,381.72l1.88,4.4-21.78,12.77-15.56-.84c-16.54-6-21.99-18.01-21.99-31.06,0-22.61,20.94-39.16,42.85-39.16,5.93.91,15.42,7.61,15.42,21.29,0,2.93-.91,6.07-3.21,8.93l-36.85,9.42c.56,5.51,2.3,11.38,7.33,16.12l9.14,5.93,22.75-7.82ZM1103.89,363.58v.35l24.43-9.56c.35-1.81.56-3.77.56-5.58,0-2.79-1.19-5.37-2.65-7.26-2.58-1.88-5.23-3.35-8.79-4.54-6.42,3.77-13.54,11.73-13.54,26.59Z"/>
    <path class="cls-2" d="M1151.64,399.38l1.19-6.14,8.17-1.05v-52.14l-9.49,1.19-1.12-4.19,21.85-9.21,6.56,3.49v58.07l9.07,3.91-1.47,4.75h-23.87l-10.89,1.33ZM1166.5,319.33l-7.68-15.7,16.05-7.96,7.75,15.7-16.12,7.96Z"/>
    <path class="cls-2" d="M1202.76,334.33l-9.14.14.7-4.05,10.26-3.77,7.05-15.29c1.33-.21,8.86,1.19,9.7,1.68l-.84,16.47,19.68-1.54-1.26,7.05-18.43-.7v45.09c0,1.33.14,2.44.56,3.35l5.79,5.3,13.61-5.16,1.74,3.63c-3.84,2.72-22.19,13.05-21.92,13.19-7.26,0-17.52-9.14-17.52-15.15v-50.25Z"/>
    <path class="cls-2" d="M1315.14,389.4l9.07,3.91-1.47,4.75h-23.73l-8.65.7.91-5.58,6.14-1.05v-42.65c0-1.81-.21-2.86-.56-3.98l-9.07-7.26-15.91,7.68v44.88l8.03,2.51-1.26,4.75h-23.03l-10.89,1.33,1.19-6.14,8.17-1.05v-86.9l-9.49,1.19-1.12-4.19,21.85-9.21,6.56,3.49v43.41l23.59-12.14c6,.14,19.12,8.31,19.68,15.56v46Z"/>
  </g>
  <g>
    <path class="cls-2" d="M360.18,581.47l14.31-11.52,22.61,18.71c11.59-.42,19.54-4.47,19.54-13.96s-7.54-14.31-21.92-21.57l-4.82-2.44c-12-6.07-24.78-14.31-24.78-27.5,0-18.29,19.33-27.08,47.11-27.08l21.57,15.29-14.24,11.45-21.64-18.08c-6.14.91-14.1,5.86-14.1,14.1,0,7.05,5.86,11.52,15.15,16.26l4.54,2.3c14.52,7.33,31.83,16.4,31.83,31.27,0,18.57-22.13,28.62-52.7,28.62l-22.47-15.84Z"/>
    <path class="cls-2" d="M478.98,596.54l-15.56-.84c-16.54-6-21.99-17.87-21.99-31.13,0-22.2,19.4-38.53,44.53-39.09l15.42,12.42-13.61,9.7-14.45-12.98c-6.42,3.42-13.75,11.17-13.75,26.52,0,6.77,1.4,14.45,7.54,20.17l9.07,5.86,22.68-7.82,1.88,4.4-21.78,12.77Z"/>
    <path class="cls-2" d="M575.48,587.05l9.07,3.91-1.47,4.75h-23.73l-8.65.7.91-5.58,6.14-1.05v-42.65c0-1.81-.21-2.86-.56-3.98l-9.07-7.26-15.91,7.68v44.88l8.03,2.51-1.26,4.75h-23.03l-10.89,1.33,1.19-6.14,8.17-1.05v-86.9l-9.49,1.19-1.12-4.19,21.85-9.21,6.56,3.49v43.41l23.59-12.14c6,.14,19.12,8.31,19.68,15.56v46Z"/>
    <path class="cls-2" d="M654.91,587.82l1.47,5.79-22.54,3.77c-3.21-1.68-5.16-4.68-6.28-7.4v-4.4l-24.36,11.8c-8.79-3.63-14.03-10.47-14.03-19.75,0-2.02.42-4.12,1.47-7.12l36.92-11.1v-14.52c-2.23-3.91-8.17-7.61-13.26-9l-7.19,2.3c.49,4.19,1.54,9,2.72,12.84l-12.7,4.96-6.56-18.15h.07l-.07-.07,31.9-12.28c5.58,1.47,19.05,6.14,22.82,17.1v36.15c-.07,2.72.49,9.28,2.16,10.05l7.47-.98ZM612.27,586.77l15.29-6.07v-16.82l-19.54,7.26c-.98,1.05-1.54,3-1.54,4.96,0,6.98,3.7,9.35,5.79,10.68Z"/>
    <path class="cls-2" d="M688.69,543.64v43.41l10.68,3.84-1.68,4.82-25.06.07-12.07,1.33,1.26-6.14,9.07-1.05v-52.14l-9.49,1.12-1.12-4.12,21.85-9.21,6.56,3.49v8.86l17.59-12.42c2.79,0,8.1,2.72,13.47,6.63l-9.07,13.54c-4.19-3.91-6.35-5.72-11.52-9l-10.47,6.98Z"/>
    <path class="cls-2" d="M792.52,587.05l9.07,3.91-1.47,4.75h-23.73l-8.65.7.91-5.58,6.14-1.05v-42.65c0-1.81-.21-2.86-.56-3.98l-9.07-7.26-15.91,7.68v45.02l8.03,2.44-1.26,4.68h-23.03l-10.89,1.33,1.19-6.14,8.17-1.05v-52.14l-9.49,1.19-1.12-4.19,21.85-9.21,6.56,3.49v8.72l23.59-12.21c6,.14,19.12,8.31,19.68,15.56v46Z"/>
    <path class="cls-2" d="M808.02,597.03l1.19-6.14,8.17-1.05v-52.14l-9.49,1.19-1.12-4.19,21.85-9.21,6.56,3.49v58.07l9.07,3.91-1.47,4.75h-23.87l-10.89,1.33ZM822.88,516.97l-7.68-15.7,16.05-7.96,7.75,15.7-16.12,7.96Z"/>
    <path class="cls-2" d="M859.14,531.98l-9.14.14.7-4.05,10.26-3.77,7.05-15.29c1.33-.21,8.86,1.19,9.7,1.68l-.84,16.47,19.68-1.54-1.26,7.05-18.43-.7v45.09c0,1.33.14,2.44.56,3.35l5.79,5.3,13.61-5.16,1.74,3.63c-3.84,2.72-22.2,13.05-21.92,13.19-7.26,0-17.52-9.14-17.52-15.15v-50.25Z"/>
    <path class="cls-2" d="M945.24,589.7l5.65-14.31,11.24-.84-2.58,21.01-4.33,1.81-34.2-3-10.26,3-9.35-4.89,41.6-59.61-22.26.28c-.91,2.79-1.33,9.77-.84,14.38l-11.59.84-3.07-20.87,4.61-2.02,34.41,3,8.45-3,10.82,4.61-41.46,59.88,23.17-.28Z"/>
  </g>
  <polyline class="cls-4" points="268.93 597 192.93 597 192.93 93 268.93 93"/>
  <text class="cls-1" transform="translate(124.85 649.22) rotate(-90)"><tspan x="0" y="0">O</tspan><tspan class="cls-3" x="50.55" y="0">r</tspan><tspan x="82.24" y="0">tsbezeic</tspan><tspan class="cls-5" x="327.1" y="0">h</tspan><tspan x="370.06" y="0">nungen</tspan></text>
</svg>