<?xml version="1.0" encoding="UTF-8"?>
<svg id="Ebene_2" data-name="Ebene 2" xmlns="http://www.w3.org/2000/svg" viewBox="0 0 1600 904.25">
  <defs>
    <style>
      .cls-1 {
        letter-spacing: -.01em;
      }

      .cls-2 {
        fill: #000;
        font-family: KitschText-Medium, 'Kitsch Text';
        font-size: 70px;
        font-weight: 500;
      }

      .cls-3 {
        fill: #005587;
        stroke-width: 0px;
      }

      .cls-4 {
        stroke: #658eb4;
        stroke-width: 2px;
      }

      .cls-4, .cls-5 {
        fill: none;
        stroke-miterlimit: 10;
      }

      .cls-6 {
        letter-spacing: 0em;
      }

      .cls-5 {
        stroke: #00477a;
        stroke-width: 9px;
      }
    </style>
  </defs>
  <path class="cls-3" d="M361.99,542.45h50.31s0,12.65,0,12.65h-18.25s0,52.43,0,52.43h-13.62s0-52.43,0-52.43h-18.44s0-12.65,0-12.65ZM432.13,607.53h13.61s0-65.08,0-65.08h-13.61s0,65.08,0,65.08ZM510.55,581.75l14.97,25.78h-15.74s-13.33-23.56-13.33-23.56h-12.46s0,23.56,0,23.56h-13.62s0-65.08,0-65.08h29.74c15.55,0,21.73,11.78,21.73,21.05,0,6.47-3.38,14.49-11.3,18.25ZM508.13,563.4c0-3.67-2.51-8.5-8.11-8.5h-16.03s0,16.7,0,16.7h16.03c5.6,0,8.11-4.73,8.11-8.21ZM595.36,574.22c0,20.47-9.66,34.47-28.68,34.47-18.54,0-28.29-13.61-28.29-34.18,0-20.28,10.62-33.22,28.49-33.22,19.22,0,28.49,15.16,28.49,32.93ZM581.64,574.41c0-12.26-4.54-20.96-14.77-20.96-9.37,0-14.78,7.24-14.78,21.05,0,14.39,4.93,22.02,14.58,22.02,10.04,0,14.97-7.73,14.97-22.11ZM626.4,542.45h-13.62s0,65.08,0,65.08h43.74s0-12.65,0-12.65h-30.13s0-52.43,0-52.43ZM703.27,569.48c-11.78-3.09-19.79-3.19-19.79-9.17,0-4.64,4.44-7.34,10.24-7.34,6.37,0,9.75,3.76,10.43,8.3h13.91c-1.16-9.56-7.53-19.99-24.33-19.99-14.2,0-23.95,7.63-23.95,19.22,0,11.01,8.69,15.93,16.13,17.86,13.23,3.38,20.09,3.38,20.09,9.95,0,5.21-5.12,8.5-12.36,8.5-6.76,0-11.2-4.25-11.88-9.85h-14.1c1.06,10.62,8.69,21.73,25.69,21.73,15.64,0,26.27-8.5,26.27-20.66,0-9.95-5.31-15.64-16.32-18.54ZM814.27,542.45v25.59s-23.08,0-23.08,0v-25.59s-13.62,0-13.62,0v65.08s13.62,0,13.62,0v-26.84s23.08,0,23.08,0v26.84s13.62,0,13.62,0v-65.08s-13.62,0-13.62,0ZM904.09,574.22c0,20.47-9.66,34.47-28.68,34.47-18.54,0-28.29-13.61-28.29-34.18,0-20.28,10.62-33.22,28.49-33.22,19.22,0,28.49,15.16,28.49,32.93ZM890.38,574.41c0-12.26-4.54-20.96-14.77-20.96-9.37,0-14.78,7.24-14.78,21.05,0,14.39,4.93,22.02,14.58,22.02,10.04,0,14.97-7.73,14.97-22.11ZM961.7,585.71c-1.35,7.24-5.89,10.82-12.65,10.82-9.75,0-15.74-7.44-15.74-21.63,0-14,5.6-21.44,15.35-21.44,6.66,0,11.01,3.57,12.26,10.14h13.91c-2.03-12.75-10.82-22.31-26.27-22.31-18.35,0-28.97,13.04-28.97,33.61,0,20.57,10.72,33.8,29.46,33.8,16.03,0,24.43-10.04,26.65-22.98h-14ZM1044.92,542.45h-13.61s0,25.59,0,25.59h-23.08s0-25.59,0-25.59h-13.61s0,65.08,0,65.08h13.61s0-26.84,0-26.84h23.08s0,26.84,0,26.84h13.61s0-65.08,0-65.08ZM1120.4,563.5c0,8.79-6.18,20.57-21.73,20.57h-15.64s0,23.47,0,23.47h-13.62s0-65.08,0-65.08h29.26c15.55,0,21.73,11.78,21.73,21.05ZM1106.69,563.4c0-3.67-2.51-8.5-8.11-8.5h-15.55s0,16.7,0,16.7h15.55c5.6,0,8.11-4.73,8.11-8.21ZM1150.94,542.45h-13.62s0,65.08,0,65.08h43.74s0-12.65,0-12.65h-30.13s0-52.43,0-52.43ZM1313.23,542.45h-50.31s0,12.65,0,12.65h18.44s0,52.43,0,52.43h13.61s0-52.43,0-52.43h18.25s0-12.65,0-12.65ZM1378.6,542.45h-46.45s0,65.08,0,65.08h46.45s0-12.46,0-12.46h-32.83s0-14.29,0-14.29h27.71s0-12.46,0-12.46h-27.71s0-13.42,0-13.42h32.83s0-12.46,0-12.46ZM1520.86,542.45h-13.62s0,39.49,0,39.49c0,10.53-4.15,14.58-11.78,14.58-7.15,0-11.3-4.06-11.3-14.58v-39.49s-13.62,0-13.62,0v40.17c0,19.12,10.82,26.07,24.92,26.07,14.58,0,25.4-6.95,25.39-26.07v-40.17ZM1226.22,555.65v.03s.02-.03.02-.03h-.02ZM1256.52,607.35h-13.6s-5.4-14.58-5.4-14.58h-13.34s-.02,0-.02,0h-13.34s-5.4,14.58-5.4,14.58h-13.6s23.75-65.08,23.75-65.08l8.59-.02h.01s.01,0,.01,0h0l8.59.02,23.76,65.08ZM1233.28,580.51l-9.09-24.82v-.03s-.01,0-.01,0v.03s-.01.07-.01.07v.06s-.01-.03-.01-.03v.03s-.01-.06-.01-.06l-.02-.07v-.03s-.01,0-.01,0v.03s-9.08,24.82-9.08,24.82h9.11s.02,0,.02,0h9.11ZM1457.64,607.35h-13.6s-5.4-14.58-5.4-14.58h-13.34s-.02,0-.02,0h-13.34s-5.4,14.58-5.4,14.58h-13.6s23.75-65.08,23.75-65.08l8.59-.02h.01s.01,0,.01,0h0l8.59.02,23.76,65.08ZM1434.41,580.51l-9.09-24.82v-.03s-.01,0-.01,0v.03s-.01.07-.01.07v.06s-.01-.03-.01-.03v.03s-.01-.06-.01-.06l-.02-.07v-.03s-.01,0-.01,0v.03s-9.08,24.82-9.08,24.82h9.11s.02,0,.02,0h9.11Z"/>
  <path class="cls-3" d="M1549.62,385.89c-25.42-49.96-39.01-183.15-42.51-272.56-.44-4.82-3.51-6.57-7.89-3.95-22.79,15.78-42.51,31.12-57.42,45.58-2.19,2.19-3.07,3.95-2.63,7.45l4.82,58.24c-85.46,40.76-106.5,64.87-106.5,102.56,0,52.59,27.17,103.44,68.37,103.44,18.41,0,38.13-12.27,64.43-39.45,3.95,13.59,7.89,24.98,12.71,33.75,2.19,3.5,4.82,4.38,8.33,2.63,17.97-7.45,39.45-18.41,56.1-29.8,3.07-1.75,3.94-4.82,2.19-7.89h0ZM1443.99,366.61c-20.16,0-38.13-46.02-38.13-78.01,0-14.9,6.14-21.92,41.64-32.44,4.38,39.88,9.64,75.82,16.22,104.75-8.77,4.38-14.47,5.7-19.73,5.7h0ZM1317.77,217.98c0,117.45,6.57,145.51,17.09,166.54,1.75,3.07.88,6.13-2.19,8.32-19.29,12.71-38.13,22.35-63.11,32.87-3.07,1.76-6.13,1.32-8.33-1.75-7.45-10.08-14.03-29.36-14.9-86.78,0,0-6.24-165.87-1.32-174.8,4.92-8.93,37.25-35.88,66.62-52.97,4.39-2.63,7.45-.87,7.45,3.95-.44,23.67-1.32,57.72-1.32,104.62h0ZM1162.62,226.34c-34.62,0-98.61,39.01-103,81.52-5.26,53.91,24.1,118.78,81.08,118.78,22.79,0,60.48-17.1,88.1-39.88,2.19-2.19,3.51-4.38,2.63-7.89-1.32-7.01-3.94-14.47-6.14-19.72-1.75-3.94-4.82-4.82-8.76-2.19-17.97,10.95-27.17,14.02-32.87,14.02-10.96,0-23.67-12.27-34.63-28.49l78.89-45.14c2.19-1.32,4.38-3.07,5.26-4.38.88-1.75.88-3.51,0-6.57-9.64-33.31-42.95-60.04-70.56-60.04h0ZM1134.57,315.75c-6.14-13.59-9.64-26.73-9.64-35.94,0-11.4,6.57-18.85,14.47-18.85,11.83,0,27.17,11.83,34.18,25.42l-39.01,29.37h0ZM1060.5,267.1c.44,3.51-.44,6.13-3.5,7.89l-25.42,14.85c4.34,73.35,2.91,77.09-3.36,99.96-8.69,31.73-36.05,73.17-68.48,91.58-3.07,1.75-5.7,1.75-8.33,0-6.57-4.38-11.3-8.8-16.56-14.93-2.63-3.07-1.93-5.49.44-8.77,26.28-36.4,23.78-90.86,21.25-124.84l-20.17,11.61c-3.51,2.19-6.93.49-8.38-2.93-3.2-6.93-5.8-14.33-7.7-21.78-.87-3.51,0-5.7,3.07-7.89l30.13-17.41s-.7-10.45-5.7-36.7c-3.69-19.39-6.92-34.24-6.94-45.74-.05-30.76,62.67-91.03,81.08-100.68,10.08-5.26,24.54-3.51,37.69,1.76,20.16,8.33,28.41,13.34,46.82,29.99,2.63,2.63,3.07,5.7.44,8.77-14.9,17.1-26.74,29.37-43.39,43.83-2.63,2.63-5.7,2.63-8.77-.44-16.21-15.34-37.61-29.99-48.57-29.99-5.26,0-8.76,3.07-8.76,7.89,0,12.27,13.15,38.76,24.98,80.83l22.35-13.59c3.5-2.19,6.57-1.32,8.33,2.63,2.94,7.24,5.79,15.24,7.45,24.11h0ZM676.58,226.34c-34.62,0-98.61,39.01-103,81.52-5.26,53.91,24.1,118.78,81.08,118.78,22.79,0,60.48-17.1,88.1-39.88,2.19-2.19,3.51-4.38,2.63-7.89-1.31-7.01-3.94-14.47-6.14-19.72-1.75-3.94-4.82-4.82-8.76-2.19-17.97,10.95-27.17,14.02-32.87,14.02-10.96,0-23.67-12.27-34.62-28.49l78.89-45.14c2.19-1.32,4.38-3.07,5.26-4.38.87-1.75.87-3.51,0-6.57-9.64-33.31-42.95-60.04-70.56-60.04h0ZM648.52,315.75c-6.13-13.59-9.64-26.73-9.64-35.94,0-11.4,6.57-18.85,14.46-18.85,11.83,0,27.17,11.83,34.19,25.42l-39.01,29.37h0ZM838.55,344.02c4.96,9.21,10.35,17.69,17.88,24.7,6.2,5.77,13.21,7.28,20.82,3.8,8.23-3.76,16.25-7.99,24.24-12.26,6.53-3.48,8.93-2.91,11.51,3.99,1.99,5.31,3.6,10.77,5.16,16.23,1.11,3.87.25,7.32-3.18,9.83-19.94,14.57-41.34,26.39-65.82,30.94-30,5.57-54.67-4.77-73.49-28.31-18.49-23.13-24.58-50.34-24.58-79.47,0-22.85,9.72-40.85,25.88-56.04,15.37-14.45,33.19-24.73,53.16-31.48,15.79-5.35,31.17-4.67,46.23,2.33,21.53,10,38.26,24.97,47.98,47.03.8,1.82,1.44,3.73,2.01,5.64,2.88,9.58,1.88,11.89-6.73,16.78-25.82,14.64-51.61,29.32-77.4,43.99-1.17.67-2.3,1.42-3.68,2.29h0ZM825.6,314.58c7.39-5.79,14.26-11.18,21.13-16.56,6.98-5.47,13.97-10.93,21.1-16.51-7.5-10.48-16.23-19-27.78-24.07-12.71-5.57-23.1,1.28-23.11,15.14,0,14.31,4.01,27.84,8.66,42.01h0ZM838.55,344.02c4.96,9.21,10.35,17.69,17.88,24.7,6.2,5.77,13.21,7.28,20.82,3.8,8.23-3.76,16.25-7.99,24.24-12.26,6.53-3.48,8.93-2.91,11.51,3.99,1.99,5.31,3.6,10.77,5.16,16.23,1.11,3.87.25,7.32-3.18,9.83-19.94,14.57-41.34,26.39-65.82,30.94-30,5.57-54.67-4.77-73.49-28.31-18.49-23.13-24.58-50.34-24.58-79.47,0-22.85,9.72-40.85,25.88-56.04,15.37-14.45,33.19-24.73,53.16-31.48,15.79-5.35,31.17-4.67,46.23,2.33,21.53,10,38.26,24.97,47.98,47.03.8,1.82,1.44,3.73,2.01,5.64,2.88,9.58,1.88,11.89-6.73,16.78-25.82,14.64-51.61,29.32-77.4,43.99-1.17.67-2.3,1.42-3.68,2.29h0ZM825.6,314.58c7.39-5.79,14.26-11.18,21.13-16.56,6.98-5.47,13.97-10.93,21.1-16.51-7.5-10.48-16.23-19-27.78-24.07-12.71-5.57-23.1,1.28-23.11,15.14,0,14.31,4.01,27.84,8.66,42.01h0ZM491.81,148.93c-6.54.69-14.34,15.15-12.6,22.39,6.8,28.25,86.01,117.03,82.33,179.98-1.76,30.11-68.27,90.15-101.9,94.79-52.65,7.26-100.3-20.19-126.14-94.16-.8-3.44-.6-5.67,1.75-8.56,18.95-20.94,31.08-29.02,53.46-46.79,3.69-2.59,6.88-1.6,8.21,2.66,15.47,50.82,53.5,107.51,80.96,104.63,10.9-1.14,17.03-10.59,15.24-19.22-5.02-26.8-70.69-99.63-76.26-143.89-5.35-42.53,44.71-113.11,81.26-138.54,16.43-11.42,24.78-15.82,46.18-9.25,29.13,8.84,56.71,33.32,85.82,63.66,2.94,2.77,2.82,5.87.05,8.81-18.48,21.33-30.55,29.84-51.57,47.91-2.82,2.5-5.87,2.82-8.81.04-35.18-32.88-66.21-65.71-77.97-64.48h0Z"/>
  <g>
    <line class="cls-5" x1="763.31" y1="845.16" x2="836.69" y2="845.16"/>
    <line class="cls-5" x1="800" y1="881.85" x2="800" y2="808.48"/>
  </g>
  <polyline class="cls-4" points="268.93 608 192.93 608 192.93 90 268.93 90"/>
  <text class="cls-2" transform="translate(124.85 538.1) rotate(-90)"><tspan x="0" y="0">M</tspan><tspan class="cls-6" x="68.12" y="0">a</tspan><tspan x="104.38" y="0">r</tspan><tspan class="cls-1" x="135.25" y="0">k</tspan><tspan x="172.74" y="0">enlogo</tspan></text>
</svg>