<?xml version="1.0" encoding="UTF-8"?>
<svg id="uuid-5c7ef3bc-e77c-49b5-81a6-5bee153950a5" xmlns="http://www.w3.org/2000/svg" version="1.1" viewBox="0 0 1307 2617.4">
  <defs>
    <style>
      .cls-1 {
        fill: #005587;
      }

      .cls-1, .cls-2, .cls-3, .cls-4 {
        stroke-width: 0px;
      }

      .cls-2 {
        fill: #658eb4;
      }

      .cls-3 {
        fill: #fff;
      }

      .cls-4 {
        fill: #d7b072;
      }
    </style>
  </defs>
  <rect class="cls-1" width="1307" height="2617.4"/>
  <g>
    <g>
      <g>
        <path class="cls-4" d="M317.9,272h-3.3v-12.6h-13.5v12.6h-3.3v-27.7h3.3v12h13.5v-12h3.3v27.7Z"/>
        <path class="cls-4" d="M345.8,264.8h-12.3l-2.7,7.1h-3.4l10.5-27.7h3.5l10.5,27.7h-3.4l-2.7-7.1h0ZM334.6,261.7h10l-5-13.4-5,13.4h0Z"/>
        <path class="cls-4" d="M381.5,261.7c0,7.9-4.5,10.9-10.2,10.9s-10.1-2.9-10.1-10.9v-17.4h3.3v17.3c0,5.5,2.4,7.8,6.8,7.8s6.9-2.3,6.9-7.8v-17.3h3.3v17.4h0Z"/>
        <path class="cls-4" d="M395.7,263.8c.5,2.8,2.6,5.5,7.1,5.5s7-2.2,7-4.8c0-4.7-5-4.5-10.6-6.2-3.1-.9-6-2.8-6-7.1s3.7-7.6,9.4-7.6,9.6,4.8,10,8.4h-3.4c-.3-2.6-1.8-5.2-6.5-5.2s-6,1.7-6,4.4c0,4,4.5,3.8,10.4,5.6,3.3,1,6.2,3.1,6.2,7.6s-3.8,8.1-10.4,8.1-10-4.1-10.6-8.7h3.5,0Z"/>
        <path class="cls-4" d="M426.5,263.8c.5,2.8,2.6,5.5,7.1,5.5s7-2.2,7-4.8c0-4.7-5-4.5-10.6-6.2-3.1-.9-6-2.8-6-7.1s3.7-7.6,9.4-7.6,9.6,4.8,10,8.4h-3.4c-.3-2.6-1.8-5.2-6.5-5.2s-6,1.7-6,4.4c0,4,4.5,3.8,10.4,5.6,3.3,1,6.2,3.1,6.2,7.6s-3.8,8.1-10.4,8.1-10-4.1-10.6-8.7h3.5,0Z"/>
        <path class="cls-4" d="M473.3,252.6c-.7-3.5-3.4-5.7-7.4-5.7s-8.4,4-8.4,11.2,3.2,11.3,8.6,11.3,6.7-2.1,7.5-5.7h3.3c-.9,5.3-4.9,8.8-10.8,8.8s-12-5.8-12-14.4,4.3-14.4,11.8-14.4,10,3.7,10.8,8.8h-3.3Z"/>
        <path class="cls-4" d="M508,272h-3.3v-12.6h-13.5v12.6h-3.3v-27.7h3.3v12h13.5v-12h3.3v27.7Z"/>
        <path class="cls-4" d="M532.5,244.3c6,0,8.4,4.4,8.4,8.2s-1.6,6.5-5.6,7.6l7,11.9h-3.9l-6.7-11.5h-7.6v11.5h-3.3v-27.7h11.7,0ZM524.1,247.4v10h8.3c3.7,0,5.1-2.7,5.1-4.9s-1.3-5.1-5.1-5.1h-8.3Z"/>
        <path class="cls-4" d="M556.2,272h-3.3v-27.7h3.3v27.7Z"/>
        <path class="cls-4" d="M587.3,247.4h-15v8.9h12.5v3.1h-12.5v12.6h-3.3v-27.7h18.3v3.1h0Z"/>
        <path class="cls-4" d="M615.6,247.4h-8.3v24.6h-3.4v-24.6h-8.4v-3.1h20.1v3.1h0Z"/>
        <path class="cls-4" d="M649.6,269v-20.7l-6.2,3.9v-3.5l6.5-4.3h2.8v24.7h5.5v3h-14.7v-3h6Z"/>
      </g>
      <g>
        <path class="cls-3" d="M513.9,805.4v22.8c-3.4,1-7.3,1.5-12.1,1.5-25.7,0-33.4-15.5-37.8-35.4-16.5,23.8-43.1,37.3-72.7,37.3-57.2,0-93.5-48-93.5-118.8s38.8-115.8,97.4-115.8,49.9,11.2,66.4,33v-29.6h26.7v180.8c0,17,3.4,24.2,20.4,24.2h5.3,0ZM464,715.3c0-61.1-22.3-93.1-67.4-93.5-44.1-.5-72.2,36.3-72.2,91.6s25.7,93.5,68.3,93.5,71.2-33.4,71.2-91.6Z"/>
        <path class="cls-3" d="M747.5,734.7h-152.2l-35.4,93.5h-29.6l125-326.2h32l125,326.2h-29.1l-35.9-93.5h0ZM606,707.5h131.3l-65.9-172.1-65.4,172.1Z"/>
      </g>
      <g>
        <g>
          <path class="cls-3" d="M299.9,353.9h10.6v1.6h-12.3v-19.1h1.7v17.5h0Z"/>
          <path class="cls-3" d="M314.3,339.1h-1.7v-2.8h1.7v2.8ZM314.2,355.5h-1.5v-13.3h1.5v13.3Z"/>
          <path class="cls-3" d="M328.8,354.8c0,4.3-2.1,6.2-5.7,6.2s-4.6-1.7-5.1-4.1h1.6c.5,1.6,1.4,2.7,3.5,2.7s4.1-1.3,4.1-4.7v-1.5c-.9,1.5-2.4,2.3-4.2,2.3-3.5,0-5.5-2.8-5.5-7.1s2.1-6.6,5.6-6.6,3.2.7,4.1,2.1v-2h1.6v12.6h0ZM319.1,348.6c0,3.6,1.4,5.6,4,5.6s4.1-2.3,4.1-5.5-1.4-5.3-4-5.3-4.1,2-4.1,5.2h0Z"/>
          <path class="cls-3" d="M334.4,343.9c1-1.3,2.4-2,4.1-2,3.1,0,4.6,2.2,4.6,5.4v8.1h-1.6v-8c0-2.8-1.3-4-3.4-4s-3.9,1.5-3.9,4.5v7.5h-1.6v-19.1h1.6v7.5h0Z"/>
          <path class="cls-3" d="M349.7,342.2h3.4v1.4h-3.4v8.5c0,1.6.7,2,2.1,2h.7v1.3s-.5,0-1,0c-1.8,0-3.3-.9-3.3-3.5v-8.5h-2.3v-1.4h2.3v-5.6h1.6v5.6h0Z"/>
        </g>
        <g>
          <path class="cls-3" d="M306.1,433c4.3,0,5.9,2.6,5.9,5.3s-.6,2.8-1.9,3.9c1.6,1,2.3,2.6,2.3,4.2,0,2.6-1.6,5.8-5.9,5.8h-8.6v-19.1h8.2ZM301.2,436.1v4.6h5.2c1.8,0,2.3-1.4,2.3-2.4s-.6-2.2-2.6-2.2h-4.9,0ZM301.2,443.8v5.3h5.3c1.9,0,2.6-1.5,2.6-2.7s-.6-2.6-2.6-2.6h-5.3Z"/>
          <path class="cls-3" d="M314.7,445.1c0-4.1,2.2-7,6.2-7s6.2,2.9,6.2,7-2.3,7.3-6.2,7.3-6.2-2.7-6.2-7.3ZM323.9,445.1c0-2.6-1-4.2-3.1-4.2s-3.1,1.6-3.1,4.2,1,4.4,3.1,4.4,3.1-1.4,3.1-4.4Z"/>
          <path class="cls-3" d="M332.7,448.4c0,.9.3,1.1,1,1.1h.7v2.6s-.5.2-1.3.2c-1.6,0-3.4-.6-3.4-3.9v-15.3h3.1v15.3h0Z"/>
          <path class="cls-3" d="M345.1,439.3v-6.2h3.1v19.1h-3.1v-1.1c-.8.8-1.9,1.2-3.1,1.2-3.7,0-5.8-2.9-5.8-7.4s2.2-6.9,5.8-6.9,2.3.5,3.1,1.2h0ZM345.3,445.2c0-3-1.1-4.3-3-4.3s-2.9,1.6-2.9,4.2.8,4.5,2.9,4.5,3-1.5,3-4.3h0Z"/>
        </g>
        <g>
          <path class="cls-3" d="M313.1,387.8h-2.6l-9.7-16.3v16.3h-2.4v-20.3h2.6l9.7,16.1v-16.1h2.4v20.3Z"/>
          <path class="cls-3" d="M316.7,380.5c0-4.5,2.6-7.3,6.3-7.3s6.3,2.8,6.3,7.3-2.4,7.5-6.3,7.5-6.3-2.9-6.3-7.5ZM327,380.5c0-3.4-1.5-5.1-4-5.1s-4,1.7-4,5.1,1.5,5.4,4,5.4,4-1.8,4-5.4Z"/>
          <path class="cls-3" d="M339.9,375.7h-.8c-2.4,0-4.2,1.4-4.2,4.8v7.3h-2.3v-14.4h2.3v2.2c1-1.6,2.4-2.4,4.1-2.4s1,0,1,0v2.4h0Z"/>
          <path class="cls-3" d="M360.9,387.8h-2.3v-8.8c0-2.6-.9-3.7-2.7-3.7s-3.2,1.5-3.2,4.8v7.7h-2.3v-8.8c0-2.5-1-3.7-2.7-3.7s-3.3,1.4-3.3,4.3v8.2h-2.3v-14.4h2.3v1.5c1-1.1,2.1-1.7,3.7-1.7s3,.7,3.9,2.2c1-1.5,2.4-2.2,4.2-2.2,3,0,4.6,2.2,4.6,5.5v9.1h0Z"/>
          <path class="cls-3" d="M377.7,385.9v1.9s-.4,0-1,0c-1.2,0-2.3-.5-2.6-1.8-.8,1.1-2.5,1.9-4.1,1.9-3.9,0-6-3.1-6-7.6s2.3-7.1,6.3-7.1,2.7.6,3.7,1.5v-1.3h2.3v11.4c0,.8.4,1,1.2,1h.3,0ZM374.1,380.6c0-3.6-1.3-5.3-3.7-5.3s-4.1,2-4.1,5.1,1.3,5.5,3.9,5.5,4-1.8,4-5.3h0Z"/>
          <path class="cls-3" d="M382.8,384.4c0,1.4.5,1.6,1.6,1.6h.4v1.9s-.3,0-.9,0c-1.8,0-3.3-.6-3.3-3.7v-16.7h2.3v16.8h0Z"/>
        </g>
        <g>
          <path class="cls-3" d="M317.3,420.7h-3v-14.2l-5.4,12.2h-2.4l-5.4-12.2v14.2h-3v-20.3h3.3l6.3,14.8,6.3-14.8h3.3v20.3h0Z"/>
          <path class="cls-3" d="M333.1,416.3c-.8,3-2.9,4.6-6,4.6s-6.5-2.7-6.5-7.5,2.7-7.5,6.5-7.5,6.4,3.2,6.4,7.4,0,1,0,1h-9.9c.2,3,1.7,4,3.6,4s2.7-.6,3.2-2h2.8ZM323.5,412h7c-.1-2-1.2-3.5-3.5-3.5s-3.3,1.4-3.5,3.5h0Z"/>
          <path class="cls-3" d="M345.3,407.4v-7h2.8v20.3h-2.8v-1.4c-.9,1-2.2,1.6-3.6,1.6-3.9,0-6.1-3.1-6.1-7.7s2.3-7.3,6.1-7.3,2.7.5,3.6,1.5h0ZM345.4,413.4c0-3.3-1.2-4.9-3.5-4.9s-3.6,1.9-3.6,4.8,1.1,5.1,3.6,5.1,3.5-1.7,3.5-4.9Z"/>
          <path class="cls-3" d="M354.9,403.9h-2.8v-3.5h2.8v3.5ZM354.9,420.7h-2.8v-14.6h2.8v14.6Z"/>
          <path class="cls-3" d="M358.7,406.1h2.8v9c0,2.3,1.3,3.3,2.8,3.3,2,0,3.3-1.4,3.3-4.6v-7.6h2.8v14.6h-2.8v-1.3c-1,1-2.3,1.5-3.8,1.5-3.3,0-5-2.3-5-5.6v-9.2h0Z"/>
          <path class="cls-3" d="M374.3,420.7v-14.6h2.8v1.3c.9-1,2.1-1.5,3.6-1.5s3.2.7,3.9,2c1-1.4,2.4-2,4.2-2,3.2,0,4.6,2.3,4.6,5.6v9.2h-2.8v-9c0-2.3-.9-3.3-2.4-3.3s-2.8,1.5-2.8,4.8v7.5h-2.8v-9c0-2.3-.9-3.3-2.4-3.3s-3,1.4-3,4.4v7.9h-2.8Z"/>
        </g>
        <g>
          <path class="cls-3" d="M306.6,464.6c4.8,0,6.6,2.9,6.6,5.7s-.7,3-2,4.1c1.5,1.2,2.4,2.7,2.4,4.3,0,2.8-1.8,6.2-6.6,6.2h-9.3v-20.3h8.9ZM302,468.2v4.4h4.7c1.7,0,2.2-1.1,2.2-2.3s-.8-2.2-2.6-2.2h-4.4ZM302,476.2v4.9h4.9c1.7,0,2.5-1.4,2.5-2.6s-.8-2.4-2.5-2.4h-4.9Z"/>
          <path class="cls-3" d="M320.2,480.6c0,.8.6,1,1.1,1h.7v2.9s-.8.4-1.7.4c-2,0-4-.7-4-4.2v-16.2h3.9v16.1h0Z"/>
          <path class="cls-3" d="M330,469.9c1.2,0,2.2.4,2.9,1.1v-.8h3.9v10.7c0,.5.3.8.7.8h.7v3c-.5.1-.9.3-1.8.3s-2.1-.4-2.7-1.2c-1.1.9-2.3,1.3-3.6,1.3-4.1,0-6.5-3.1-6.5-7.8s2.7-7.4,6.4-7.4h0ZM330.4,481.6c1.8,0,2.7-1.3,2.7-4.2s-.9-4.2-2.7-4.2-2.8,1.6-2.8,4.1.9,4.3,2.8,4.3Z"/>
          <path class="cls-3" d="M349,475.2c-.3-1.4-1.1-1.9-2.3-1.9-1.9,0-2.9,1.3-2.9,4.2s1,4.2,3,4.2,2-.5,2.3-1.8h3.9c-.7,3.2-2.9,5.2-6.2,5.2s-7-2.9-7-7.6,2.7-7.6,6.8-7.6,5.8,2.2,6.3,5.3h-4Z"/>
          <path class="cls-3" d="M363.6,476.1l5.7,8.8h-4.5l-3.9-6.1-1.6,1.8v4.3h-3.9v-20.4h3.9v11.3l5-5.7h4.5l-5.2,6h0Z"/>
        </g>
      </g>
      <g>
        <path class="cls-2" d="M319.4,1088.9h-3.3v-15.9l-6,13.6h-2.7l-6-13.6v15.9h-3.3v-22.6h3.7l7,16.4,7-16.4h3.7v22.6h0Z"/>
        <path class="cls-2" d="M347.3,1077.4c0,7.2-3.2,12-9.6,12s-9.5-4.8-9.5-11.9,3.5-11.5,9.5-11.5,9.6,5.2,9.6,11.4h0ZM331.5,1077.5c0,5.6,2,8.8,6.1,8.8s6.2-3.2,6.2-8.8-2-8.4-6.2-8.4-6.1,3-6.1,8.4h0Z"/>
        <path class="cls-2" d="M364.5,1066.3c6.3,0,9.6,4.8,9.6,10.9s-3.3,11.7-9.7,11.7h-8.4v-22.6h8.5ZM359.4,1069.4v16.4h5.2c4.2,0,6.2-2.9,6.2-8.5s-2-7.9-6.2-7.9h-5.1Z"/>
        <path class="cls-2" d="M398.4,1069.4h-12.1v6.4h10v3.1h-10v6.8h12.1v3.1h-15.5v-22.6h15.5v3.1Z"/>
        <path class="cls-2" d="M416.8,1066.3c5,0,7.1,3.8,7.1,6.8s-1.4,5.2-4.5,6.3l5.5,9.5h-3.8l-5.2-9.1h-5.4v9.1h-3.3v-22.6h9.6ZM410.6,1069.4v7.2h6.3c2.7,0,3.8-2.1,3.8-3.6s-1.1-3.7-3.8-3.7h-6.3Z"/>
        <path class="cls-2" d="M449.9,1088.9h-3.3l-10-16.6v16.6h-3.3v-22.6h3.3l10,16.6v-16.6h3.3v22.6Z"/>
        <path class="cls-2" d="M475.3,1069.4h-12.1v6.4h10v3.1h-10v6.8h12.1v3.1h-15.5v-22.6h15.5v3.1Z"/>
      </g>
    </g>
    <g>
      <g>
        <path class="cls-3" d="M620.8,2347l3.3,13.5-48.5,13.2c-7.3-3.1-13.2-8.5-15.9-13.5v-21.5l-85.7,34.8c-33.8-13-45.4-33.6-45.4-57s2.6-23.7,7.8-36l123.3-40.9v-52.3c-5.4-10.6-15.2-21.5-37.4-25.1l-53.2,20.4c1.2,11.6,3.3,23.4,5.7,35.3l-19.2,5.9-14.9-47.6-.5-.7,91.4-35.5c21.8,4.5,49.7,22,54.7,42.8v153.4c0,5.9.5,12.3,5,15.1l29.6-4.3h0ZM559.8,2321.6v-65.6l-101.1,34.6c-2.4,4.5-4,12.1-4,20.4,0,26.3,21.1,35.7,29.1,39.3l76-28.6h0Z"/>
        <path class="cls-3" d="M935.1,2345.3l34.1,8.5-1.7,16.1-36.5-1.2h-15.2l-50.4,1.2-2.1-15.9,41.7-8.5-35.3-89.2-29.6.9h-70.3l-29.3-.7-34.8,89,41.7,8.5-2.1,15.9-50.4-1.2h-10.2l-36.5,1.2-1.7-16.1,34.1-8.5,112.7-280.7-5.9-16.6,2.8-4.3h27l117.9,301.5h0ZM839.3,2237.6l23.4.7-55.6-140.8-1.2-7.6-58.2,148.4,22.7-.7h68.9,0Z"/>
      </g>
      <g>
        <g>
          <path class="cls-3" d="M312.3,1893.3h.9l-1.1,5.2h-12.9c0,0-.1-.8-.1-.8l2.3-.5v-17.6l-2.3-.5v-.8c.1,0,2.5,0,2.5,0h10.5l-.2,4.3h-.9l-.2-3.2h-8v8.1h1.6s6.1,0,6.1,0l-.2,1.1h-7.6s0,8.8,0,8.8h8.2l1.2-4.1h0Z"/>
          <path class="cls-3" d="M327.3,1897.3l1.6.5v.7c0,0-2,0-2,0h-3.1c0,0,0-.6,0-.6l2.2-.5-3.6-5.2-3.5,5.2,2,.5v.7c0,0-2,0-2,0h-2.9c0,0,0-.6,0-.6l1.7-.5,4.2-6-3.9-5.6-1.6-.5v-.7c0,0,2,0,2,0h3.1c0,0,0,.6,0,.6l-2.2.5,3.4,4.9,3.2-4.9-2-.5v-.7c0,0,2,0,2,0h2.9c0,0,0,.6,0,.6l-1.7.5-3.9,5.6,4.1,5.9Z"/>
          <path class="cls-3" d="M333.3,1885.4h-1.9v-.7h2c0,0,.4-3.8.4-3.8h.8v3.7l4.4-.2-.2,1.1h-4.2v10.3c.4.8.9,1.3,2.3,1.8l2.8-.8.2.8-3.4,1.1c-1.6-.2-2.9-1.8-3.1-2.5v-10.8h0Z"/>
          <path class="cls-3" d="M350.1,1884.3c.8.1,1.3.3,1.7.7l-.2,1.3h-.3c-.6-.3-1.1-.5-1.7-.6l-3.7,2.1v9.5l2.4.5v.7c-.1,0-2.6,0-2.6,0h-2.9c0,0,0-.6,0-.6l1.9-.5v-11.5h-1.9v-.6c-.1,0,2.8-.8,2.8-.8l.3.2v2.4l4.2-2.5h0Z"/>
          <path class="cls-3" d="M366.2,1897.3l.2.7-2.8.8c-.4-.2-.7-.4-.8-.7v-1.4l-5.4,2.1c-2.1-.8-2.8-2.1-2.8-3.4s.2-1.4.5-2.2l7.6-2.5v-3.5c-.3-.7-.9-1.4-2.3-1.7l-3.6,1.3c0,.8.2,1.5.4,2.3l-.9.3-.9-2.8h0s5.4-2.2,5.4-2.2c1.4.3,2.9,1.4,3.2,2.5v9.8c0,.3,0,.7.3.9l1.9-.3h0ZM362.7,1895.7v-4.3l-6.6,2.2c-.2.3-.3.8-.3,1.3,0,1.7,1.4,2.4,1.9,2.6l5-1.9h0Z"/>
          <path class="cls-3" d="M391,1893.3h.9l-1.1,5.2h-12.9c0,0-.1-.8-.1-.8l2.3-.5v-17.6l-2.3-.5v-.8c.1,0,2.5,0,2.5,0h3.8c0,0,.1.8.1.8l-2.8.5v17.7h8.2l1.2-4.1h0Z"/>
          <path class="cls-3" d="M397,1898.4h-1.9c0,0,0-.6,0-.6l1.9-.5v-11.5h-1.9v-.6c-.1,0,2.8-.8,2.8-.8l.3.2v12.8l1.9.5v.7c0,0-2,0-2,0h-1,0ZM397.9,1878.6l.4,1.8-.9.4h-.8l-.4-1.8.9-.4h.8Z"/>
          <path class="cls-3" d="M414.7,1897.4l.5.6c0,3.3-2.8,7.7-7,7.7-3.1,0-5.5-2.5-5.5-4.9l2.5-2.3h-.4c-.8,0-1.5-.4-1.5-1.4,1.2-.6,2.9-1.3,4.4-2.1-2.7-.9-4.4-3.2-4.4-5,0-3.3,2.8-5.1,5.6-5.7l4.8-.9v1l-2.7.5c1.7.8,2.9,2.1,2.9,4,0,4.8-6.3,6.9-9.1,8.3v.2h9.9ZM414,1898.4h-7.5l-2.4,2.5c0,1.2,1.6,3.4,4.3,3.4s5.7-3,5.7-6h0ZM408.9,1894.3c2.1-1.2,3.8-2.9,3.8-5.3s-1.5-3.2-4-3.7c-2.1.7-3.9,1.9-3.9,4.5s1.2,3.3,4.1,4.4h0Z"/>
          <path class="cls-3" d="M428.9,1897.3l1.9.5v.7c0,0-2,0-2,0h-2.9c0,0,0-.6,0-.6l1.9-.5v-9.9c0-1-1.4-2-2.4-2l-5,2v9.8l1.9.5v.7c0,0-2,0-2,0h-2.9c0,0,0-.6,0-.6l1.9-.5v-18.9h-1.7v-.6c-.1,0,2.7-.8,2.7-.8l.3.2v9.3l5.4-2.1c1.1,0,3,1.5,3.2,2.5v10.4h0Z"/>
          <path class="cls-3" d="M435.6,1885.4h-1.9v-.7h2c0,0,.4-3.8.4-3.8h.8v3.7l4.4-.2-.2,1.1h-4.2v10.3c.4.8.9,1.3,2.3,1.8l2.8-.8.2.8-3.4,1.1c-1.6-.2-2.9-1.8-3.1-2.5v-10.8h0Z"/>
        </g>
        <g>
          <path class="cls-3" d="M312.4,1931.2h1.2l-1.1,5.3h-13.2c0,0-.1-.9-.1-.9l2.3-.5v-17.3l-2.3-.5v-1c.1,0,2.6,0,2.6,0h4.1c0,0,.1.9.1.9l-2.8.5v17.5h8c0,0,1.2-4,1.2-4Z"/>
          <path class="cls-3" d="M318.7,1936.5h-2.1c0,0-.1-.8-.1-.8l1.9-.5v-11.2h-1.9l-.2-.8,3.2-.9.5.2v12.8l1.9.5v.8c-.1,0-2.2,0-2.2,0h-1ZM319.7,1916.4l.4,1.9-1.1.5h-1l-.4-1.9,1.1-.5h1Z"/>
          <path class="cls-3" d="M336.7,1935.3l.6.7c0,3.3-3,7.7-7.2,7.8-3.2,0-5.6-2.4-5.6-4.9l2.4-2.2h-.1c-1,0-1.7-.5-1.7-1.7,1.3-.6,2.9-1.3,4.4-2.1-2.6-.9-4.3-3.2-4.3-4.9,0-3.3,2.9-5.2,5.8-5.7l4.9-.9v1.2l-2.6.5c1.5.8,2.7,2.2,2.7,3.9,0,4.8-6.2,6.9-9.1,8.2v.2h9.8ZM335.8,1936.6h-7.4l-2.3,2.4c0,1.2,1.6,3.2,4.2,3.2s5.5-2.8,5.5-5.7ZM330.8,1932.1c2-1.2,3.6-2.8,3.6-5.1s-1.4-3-3.8-3.5c-2,.7-3.7,1.9-3.7,4.3s1.2,3.2,3.9,4.3h0Z"/>
          <path class="cls-3" d="M351.4,1935.2l1.9.5v.8c-.1,0-2.2,0-2.2,0h-3c0,0,0-.8,0-.8l1.8-.5v-9.6c0-1-1.4-2-2.4-2l-4.8,1.9v9.7l1.8.5v.8c0,0-2.1,0-2.1,0h-3.1c0,0-.1-.8-.1-.8l1.9-.5v-18.7h-1.7l-.2-.7,3-1,.6.2v9.3s5.4-2.2,5.4-2.2c1.1,0,3.2,1.5,3.4,2.7v10.3h0Z"/>
          <path class="cls-3" d="M357.9,1923.5h-1.9v-.9h2c0-.1.6-3.9.6-3.9h.9v3.8l4.4-.2v1.2h-4.4v10.1c.4.8.8,1.3,2.2,1.8l2.8-.8.3.9-3.6,1.2c-1.7-.2-3.1-1.9-3.3-2.6v-10.7h0Z"/>
        </g>
        <g>
          <path class="cls-3" d="M314.6,1967.9c0,3.9-4,6.8-6.5,6.8h-9c0,0-.1-1-.1-1l2.3-.5v-17.1l-2.3-.5v-1.1c.1,0,2.8,0,2.8,0h7.8c2.4.8,3.9,1.8,3.9,4.2s-1.7,3.8-3.3,4.9c3.5.6,4.4,2.5,4.4,4.4h0ZM308.6,1955.9h-5.1v7.4h4.8c1.4-1,3.1-2.7,3.1-4.4s-1.1-2.5-2.8-2.9h0ZM307.4,1973.3c3.2-.2,5.2-3.1,5.2-5.2s-1.3-3.4-5-3.4h-4.1v7.9l3.8.6h0c0,0,0,0,0,0Z"/>
          <path class="cls-3" d="M330.3,1967.1c0,4.3-3.4,7-6.7,7.8-4.3-.8-6.3-3.6-6.3-6.9s3.4-7,6.7-7.8c4.3.8,6.3,3.6,6.3,6.9h0ZM328.3,1967.2c0-2.6-1.6-4.8-5-5.4-2.1,1-4.1,2.8-4.1,6.2s1.6,4.8,5,5.4c2.1-1,4.1-2.8,4.1-6.2Z"/>
          <path class="cls-3" d="M345.4,1967.1c0,4.3-3.4,7-6.7,7.8-4.3-.8-6.3-3.6-6.3-6.9s3.4-7,6.7-7.8c4.3.8,6.3,3.6,6.3,6.9h0ZM343.4,1967.2c0-2.6-1.6-4.8-5-5.4-2.1,1-4.1,2.8-4.1,6.2s1.6,4.8,5,5.4c2.1-1,4.1-2.8,4.1-6.2Z"/>
          <path class="cls-3" d="M356.1,1967.5l4.8,6.4v.8h-2.3v-.8l-3.9-5.8h-2.5v5.1l1.7.5v1c0,0-2.1,0-2.1,0h-3.3c0,0-.1-.9-.1-.9l1.9-.5v-18.4h-1.7l-.2-.8,3.1-1,.8.3v13.6h2.2l3.7-5.4v-.9h1.9v1l-4.1,5.8.4.2h0Z"/>
        </g>
        <g>
          <path class="cls-3" d="M315.1,2011.9v1h-2.4l-5.1-8.6h-3.8v6.9l3,.5-.2,1.3h-3.7c0,0-1,0-1,0h-2.8c0,0-.1-1.2-.1-1.2l2.2-.5v-16.8l-2.2-.5v-1.3c.1,0,2.9,0,2.9,0h8c2.4.8,4.1,2.2,4.1,5.2s-2.3,4.9-4.4,5.9l5.6,8.2h0ZM303.7,1994.3v8.3h4.5c1.6-.8,3.2-2.7,3.2-4.6s-1.2-3.4-2.8-3.7h-4.9Z"/>
          <path class="cls-3" d="M328.3,2010.3l.3,1.1-4.9,1.8c-2.8-.6-6.3-2.2-6.3-7.1s4.7-7.5,6.9-7.8c3,0,4.8,2,4.8,4.3s-.5,2.5-1,3.4h-8.5v.2c0,3,2.1,4.7,4.8,5.2l3.8-1.1h0ZM319.8,2004.8l6.8-.2c.3-.6.4-1.2.4-1.8,0-1.2-.8-2.8-3.5-2.8-1.3.6-3.3,1.8-3.8,4.7h0Z"/>
          <path class="cls-3" d="M343.4,2011.4l.8.9c0,3.4-3.1,7.8-7.5,7.8-3.3,0-5.8-2.4-5.8-4.9l2.3-2.1c-1,0-1.7-.8-1.7-2.1,1.3-.7,2.8-1.3,4.3-2-2.5-.9-4.2-3.1-4.2-4.8,0-3.4,3-5.3,6.1-5.8l5.2-.9v1.6s-2.5.4-2.5.4c1.4.9,2.4,2.2,2.4,3.8,0,4.7-6.2,6.8-9.1,8.1v.2h9.7,0ZM342.1,2013.1h-7.2l-2,2.3c0,1.1,1.6,3,4,3s5.3-2.7,5.3-5.2h0ZM337.4,2008.1c1.8-1.2,3.2-2.7,3.2-4.8s-1.3-2.8-3.5-3.3c-1.8.6-3.3,1.8-3.3,4s1.1,3,3.6,4.1h0Z"/>
          <path class="cls-3" d="M360.1,2011.2l.3,1.1-3.4.9c-.6-.2-1.1-.7-1.2-1.1v-1.2l-5.2,2.2c-1.2,0-3.5-1.6-3.6-2.9v-9.8h-1.9l-.2-1.1,3.5-1.1.9.3v10.6c0,.9,1.4,1.9,2.3,1.9l4.3-1.6v-9.1h-1.9l-.2-1.1,3.5-1.1.9.3v11.8c0,.4,0,.9.3,1l1.8-.3h0Z"/>
          <path class="cls-3" d="M365.5,2012.9h-2.3c0,0-.1-1-.1-1l1.8-.5v-18.2h-1.7l-.2-.8,3.3-1.2,1,.3v19.8l1.9.5v1.1c-.1,0-2.5,0-2.5,0h-1,0Z"/>
          <path class="cls-3" d="M384.9,2011.2l.3,1.1-3.4.9c-.5-.2-1.1-.7-1.2-1.1v-1.2l-5.2,2.2c-2.1-.8-3-2.1-3-3.7s.1-1.6.4-2.3l7.7-2.6v-2.8c-.4-.6-1.1-1.2-2.3-1.4l-2.9,1.1c0,.7.2,1.4.3,2l-1.6.5-1-3.1h0c0,0,6.1-2.4,6.1-2.4,1.3.3,3.3,1.3,3.8,2.9v9.1c0,.4,0,.9.3,1l1.8-.3h0ZM376.3,2011.2l4.2-1.6v-3.7l-5.7,2c-.1.3-.2.7-.2,1.2,0,1.5,1.2,2,1.7,2.2Z"/>
          <path class="cls-3" d="M396,1998.3c.8.1,1.4.4,1.8.8l-.4,2.2h-.3c-.7-.4-1.2-.5-1.8-.7l-3.4,1.8v8.9l2.4.5-.2,1.1h-3.1c0,0-.7,0-.7,0h-2.4c0,0-.1-1-.1-1l1.9-.6v-10.8h-1.9l-.2-1.1,3.5-1.1.8.3v2.3c.1,0,4.2-2.6,4.2-2.6h0Z"/>
        </g>
        <g>
          <path class="cls-3" d="M321.9,2032.8v16.4l2.2.6-.2,1.5h-3.1c0,0-1.3,0-1.3,0h-3c0,0-.2-1.4-.2-1.4l2.2-.6v-12.3l.3-2.2-6.8,16.2-2.1.4-7.1-16.7.2,2.1v12.4l2.2.6-.2,1.5h-3.1c0,0,0,0,0,0h-3.1c0,0-.2-1.4-.2-1.4l2.2-.6v-16.4l-2.2-.6.2-1.5h3.1c0,0,2.7,0,2.7,0l6.2,15.6.3,1.5,7-17.1h5.7c0,0,.2,1.5.2,1.5l-2.2.6h0Z"/>
          <path class="cls-3" d="M338.3,2048.4l.4,1.3-5.2,2c-2.7-.5-6.4-2.3-6.4-7.2s4.8-7.6,7.4-7.9c2.9,0,4.9,2,4.9,4.5s-.5,2.6-.9,3.5h-8.4c0,2.8,2,4.5,4.6,4.9l3.8-1.1ZM330.1,2043l6.3-.2c.2-.5.3-1,.3-1.6,0-1.1-.8-2.6-3.2-2.6-1.3.7-2.9,1.8-3.4,4.4h0Z"/>
          <path class="cls-3" d="M355.7,2049.3l.3,1.4-3.8.9c-.6-.2-1.3-.8-1.5-1.3v-1l-5,2.3c-1.8-.4-3.5-1.4-4.2-2.3-.4-1.2-.7-2.5-.7-4.2,0-5.4,3.8-8,7-8.7,1,.2,2,.6,3,1.3v-1.5c-.1,0-.1-4.5-.1-4.5h-1.7l-.3-1,3.6-1.4,1.4.4v18.7c0,.5,0,1,.4,1.1l1.6-.3h0ZM346.8,2049.1l3.9-1.3v-7.8c-.7-.6-2.1-1.3-3.4-1.3-1,.3-3.5,1.6-3.5,6.1s.1,2.1.4,2.9c.3.5,1.8,1.4,2.7,1.5h0Z"/>
          <path class="cls-3" d="M361.4,2051.2h-2.7c0,0-.1-1.3-.1-1.3l1.9-.6v-10.4h-1.9l-.2-1.3,3.8-1.2,1.2.4v12.5l1.9.6v1.4c-.1,0-2.9,0-2.9,0h-.9,0ZM362.9,2030.4l.5,2.5-1.6.8h-1.7l-.5-2.5,1.6-.8h1.7Z"/>
          <path class="cls-3" d="M383.2,2049.3l.3,1.4-3.8.9c-.6-.2-1.3-.9-1.5-1.3v-1l-5.2,2.3c-1.2,0-3.7-1.7-3.9-3.2v-9.4h-1.9l-.2-1.3,3.8-1.2,1.2.4v10.3c0,.9,1.3,1.9,2.2,1.9l3.9-1.3v-8.7h-1.9l-.2-1.3,3.8-1.2,1.2.4v11.6c0,.5,0,1,.4,1.1l1.6-.3h0Z"/>
          <path class="cls-3" d="M406.8,2049.4l1.8.6v1.4c-.1,0-2.9,0-2.9,0h-3.4c0,0-.1-1.2-.1-1.2l1.5-.6v-8.6c0-.9-1.3-1.9-2.2-1.9l-2.9,1v9.5l1.5.6v1.3c0,0-2.2,0-2.2,0h-3.6c0,0-.1-1.2-.1-1.2l1.5-.6v-8.6c0-.9-1.3-1.9-2.2-1.9l-2.9,1v9.5l1.5.6v1.3c-.1,0-2.2,0-2.2,0h-3.9c0,0-.1-1.3-.1-1.3l1.8-.6v-10.4h-1.9l-.2-1.3,3.8-1.2,1,.4v1.5c.1,0,4.4-1.9,4.4-1.9.9,0,2.6,1,3.4,2.1l4.6-2.1c1.2,0,3.7,1.7,3.9,3.2v9.8h0Z"/>
        </g>
        <g>
          <path class="cls-3" d="M317.6,2083.2c0,3.4-3.4,6.7-8.3,6.7h-10.8c0,.1-.2-2.2-.2-2.2l2.1-.6v-15.2l-2.1-.6.2-2.3h3.8c0,.1,9,.1,9,.1,2.7.6,5,1.8,5,4.7s-1.4,3.6-2.9,4.7c3.1.8,4.2,2.6,4.2,4.7h0ZM309,2072.3h-3.3v5.8h3.2c1-.9,2-2.2,2-3.4s-.7-2-1.9-2.3ZM309.2,2087.4c1.7-.8,3.1-2.3,3.1-4s-1.1-2.5-3.4-2.5h-3.1v5.5l3.4.9h0Z"/>
          <path class="cls-3" d="M334.7,2082c0,4.4-4.3,7.7-8.6,8.3-4.5-.8-7-3.9-7-7.5s4.3-7.7,8.6-8.3c4.5.8,7,3.9,7,7.5ZM330,2082.2c0-2.1-1.2-4-3.8-4.6-1.2.8-2.4,2-2.4,4.8s1.2,3.9,3.8,4.6c1.2-.8,2.5-2,2.5-4.8h0Z"/>
          <path class="cls-3" d="M340.2,2089.9h-3.1c0,.1-.2-1.9-.2-1.9l1.6-.6v-16.4h-1.8l-.4-1.5,4.4-1.9,2.5.7v19.1l1.8.6-.2,2h-3.5c0-.1-1.1-.1-1.1-.1Z"/>
          <path class="cls-3" d="M363.1,2087.1l.5,2.1-4.8,1.1c-.9-.2-1.9-1.3-2.2-1.9v-.5l-4.8,2.4c-2.2-.5-3.7-1.4-4.5-2.4-.5-1.2-.8-2.8-.8-4.4,0-5.5,4.4-8.4,7.8-9.1.8.3,1.7.8,2.5,1.3l-.2-1.8v-3h-1.8l-.4-1.5,4.3-1.9,2.5.7v17.8c0,.7,0,1.2.5,1.3l1.4-.3ZM353.7,2086.5l2.9-.7v-6.9h0c-.7-.5-1.8-1.1-2.9-1.2-.9.4-2.5,1.8-2.5,5.3s0,1.6.2,2.2c.3.5,1.4,1.3,2.3,1.3h0Z"/>
        </g>
        <g>
          <path class="cls-3" d="M319.4,2122.5c0,3-2.9,6.6-9.4,6.6h-11.9c0,.1-.3-2.9-.3-2.9l2-.7v-14l-2-.7.3-3h4.5c0,.1,9.8.1,9.8.1,3,.6,5.7,1.9,5.7,5s-1.2,3.6-2.7,4.6c2.9.9,4.1,2.7,4.1,4.9h0ZM309.2,2112.2h-2.1v4.7h2.2c.8-.9,1.3-1.9,1.3-2.8s-.5-1.7-1.4-1.9h0ZM310,2125.6c1-.7,2-1.6,2-3s-1-2-2.4-2h-2.5v4.1l2.9.9h0Z"/>
          <path class="cls-3" d="M324.9,2129.1h-3.5c0,.1-.2-2.6-.2-2.6l1.4-.7v-15.1h-1.8l-.6-1.9,5.1-2.5,3.6,1v18.5l1.8.7-.3,2.7h-4.3c0-.1-1.3-.1-1.3-.1h0Z"/>
          <path class="cls-3" d="M348.6,2125.5l.7,2.8-5.9,1.2c-1.1-.3-2.5-1.7-2.9-2.4l-4.6,2.4c-2.2-.8-3.8-2.5-3.8-5.1s0-1.6.1-2.1l8.3-2.7v-1.4c-.5-.4-1.3-.8-1.8-1l-.7.3c.2.7.4,1.3.5,1.6l-4.4,1.5-2.1-4.2,8.9-3.5c.9.2,5.1,1.2,6.1,4.5v6.8c0,.8.1,1.4.6,1.6l1.1-.4h0ZM339,2125h1.6v-2.9l-2.4,1c0,.1,0,.3,0,.7s.5,1.2.9,1.2h0Z"/>
          <path class="cls-3" d="M357,2129.5c-2.7-.3-7.3-3-7.3-7.8s5-8.2,9.9-8.8l4.4,2.5-3.2,3.9-3.2-2.1c-.8.9-1.5,1.8-1.5,3.9s.8,3.7,3.2,4.2l4-1,.7,2.3-6.9,3h0Z"/>
          <path class="cls-3" d="M381.4,2122l3.4,5.2v1.9h-6.9v-1.8l-2.2-4.1h-1.8v2.6l.8.7v2.7c-.1,0-2.3-.1-2.3-.1h-6.5c0,.1-.3-2.6-.3-2.6l1.8-.7v-15.1h-1.8l-.6-1.9,5.1-2.5,3.6,1v12.9h1.7l2.8-5.3v-1.7h5.4v1.9l-3.7,5.8,1.3.9h0Z"/>
        </g>
      </g>
      <g>
        <path class="cls-4" d="M317.9,1812.5h-3.3v-12.6h-13.5v12.6h-3.3v-27.7h3.3v12h13.5v-12h3.3v27.7Z"/>
        <path class="cls-4" d="M345.8,1805.4h-12.3l-2.7,7.2h-3.4l10.5-27.7h3.5l10.5,27.7h-3.4l-2.7-7.2h0ZM334.6,1802.2h10l-5-13.4-5,13.4h0Z"/>
        <path class="cls-4" d="M381.5,1802.2c0,7.9-4.5,10.8-10.2,10.8s-10.1-2.9-10.1-10.8v-17.4h3.3v17.3c0,5.6,2.4,7.8,6.8,7.8s6.9-2.3,6.9-7.8v-17.3h3.3v17.4h0Z"/>
        <path class="cls-4" d="M395.7,1804.3c.5,2.8,2.6,5.6,7.1,5.6s7-2.2,7-4.8c0-4.7-5-4.5-10.6-6.2-3.1-.9-6-2.8-6-7.1s3.7-7.6,9.4-7.6,9.6,4.8,10,8.4h-3.4c-.3-2.6-1.8-5.2-6.5-5.2s-6,1.7-6,4.4c0,4,4.5,3.8,10.4,5.6,3.3.9,6.2,3.1,6.2,7.6s-3.8,8.1-10.4,8.1-10-4.1-10.6-8.7h3.5Z"/>
        <path class="cls-4" d="M426.5,1804.3c.5,2.8,2.6,5.6,7.1,5.6s7-2.2,7-4.8c0-4.7-5-4.5-10.6-6.2-3.1-.9-6-2.8-6-7.1s3.7-7.6,9.4-7.6,9.6,4.8,10,8.4h-3.4c-.3-2.6-1.8-5.2-6.5-5.2s-6,1.7-6,4.4c0,4,4.5,3.8,10.4,5.6,3.3.9,6.2,3.1,6.2,7.6s-3.8,8.1-10.4,8.1-10-4.1-10.6-8.7h3.5Z"/>
        <path class="cls-4" d="M473.3,1793.1c-.7-3.5-3.4-5.7-7.4-5.7s-8.4,4-8.4,11.2,3.2,11.3,8.6,11.3,6.7-2.1,7.5-5.7h3.3c-.9,5.3-4.9,8.8-10.8,8.8s-12-5.8-12-14.4,4.3-14.3,11.8-14.3,10,3.7,10.8,8.8h-3.3Z"/>
        <path class="cls-4" d="M508,1812.5h-3.3v-12.6h-13.5v12.6h-3.3v-27.7h3.3v12h13.5v-12h3.3v27.7Z"/>
        <path class="cls-4" d="M532.5,1784.8c6,0,8.4,4.4,8.4,8.2s-1.6,6.5-5.6,7.7l7,11.9h-3.9l-6.7-11.6h-7.6v11.6h-3.3v-27.7h11.7,0ZM524.1,1787.9v9.9h8.3c3.7,0,5.1-2.7,5.1-4.9s-1.3-5.1-5.1-5.1h-8.3Z"/>
        <path class="cls-4" d="M556.2,1812.5h-3.3v-27.7h3.3v27.7Z"/>
        <path class="cls-4" d="M587.3,1787.9h-15v8.9h12.5v3.1h-12.5v12.6h-3.3v-27.7h18.3v3.1h0Z"/>
        <path class="cls-4" d="M615.6,1787.9h-8.3v24.6h-3.4v-24.6h-8.4v-3.1h20.1v3.1Z"/>
        <path class="cls-4" d="M645.5,1809.5h13.1v3h-16.9v-3.1s6.2-5.6,9.6-9.3c2.2-2.4,3.6-4.4,3.6-7.4s-1.7-5.5-5.2-5.5-4.8,1.8-5.3,4.4h-3.2c.6-4.2,3.6-7.4,8.5-7.4s8.5,3.8,8.5,8.4-2.4,6.9-5.1,9.6-4.7,4.7-7.6,7.2h0Z"/>
      </g>
      <g>
        <path class="cls-2" d="M319.5,1595.1h-3c0,0-1-3.8-1-3.8l-3.7-.3v17l2.8.7-.3,2.5h-5c0-.1-.9-.1-.9-.1h-5c0,.1-.3-2.4-.3-2.4l2.8-.7v-17l-3.7.3-1,3.7h-2.9c0-1.9-.1-3.9-.3-6l-.2-1.1h22c-.2,2.4-.4,4.8-.3,7.2h0Z"/>
        <path class="cls-2" d="M337,1593.8c1,.2,1.9.6,2.4,1.1l-.8,4.6h-.5c-1-.5-1.5-.7-2.5-.9l-3,1.1v8.6l2.6.7-.3,2.3h-5.1c0,0-.3,0-.3,0h-3.9c0,.1-.3-2.1-.3-2.1l2-.7v-10.3h-2.2l-.3-2.3,5.1-1.8,2,.8.3,2.4,4.5-3.2h0Z"/>
        <path class="cls-2" d="M362.7,1607.9l.6,2.3-5.4,1.2c-1-.3-2.1-1.4-2.4-2.1v-.5l-5.4,2.6c-2.4-.8-3.8-2.6-3.8-5s0-1.9.3-2.5l8.9-3v-2.1c-.6-.5-1.5-1-2.3-1.2l-1.7.7c.1.7.3,1.4.4,1.9l-3.6,1.2-1.8-4.2,8.5-3.3c1.1.2,4.8,1.4,5.7,4.2v8.6c0,.8,0,1.3.5,1.5l1.5-.4h0ZM352.5,1607.5l3-.9v-3.3l-4.2,1.6c0,.2-.1.5-.1,1,0,1,.9,1.6,1.3,1.6h0Z"/>
        <path class="cls-2" d="M387.9,1607.9l.6,2.3-5.4,1.2c-1-.3-2.1-1.4-2.4-2.1v-.6l-5.3,2.7c-2.4-.6-4.1-1.5-5-2.7-.6-1.3-.9-3.1-.9-4.8,0-6.1,4.9-9.3,8.7-10.1.9.3,1.9.8,2.8,1.5l-.3-2v-3.3h-2l-.5-1.7,4.8-2.1,2.8.8v19.8c0,.7.1,1.3.5,1.5l1.5-.4h0ZM377.5,1607.2l3.2-.8v-7.7h0c-.8-.5-2-1.2-3.2-1.3-1,.5-2.8,2-2.8,5.9s.1,1.8.3,2.4c.3.5,1.6,1.4,2.5,1.5h0Z"/>
        <path class="cls-2" d="M399.7,1611.1h-3.9c0,.1-.2-2.2-.2-2.2l2-.7v-10.3h-2.2l-.3-2.3,5.2-1.8,2.4.8v13.6l2,.7-.2,2.3h-3.9c0-.1-.9-.1-.9-.1h0ZM402.2,1586.8l.6,3.6-2.6,1.3h-3l-.6-3.6,2.6-1.3h3Z"/>
        <path class="cls-2" d="M413.4,1596.7h-2v-2.4l2.3-.4,2.1-4.3h2.6v4.6l5.1-.3v2.8h-5.1v9.3c.2.8.6,1.4,2.2,1.8l3-.7.6,2-5.8,2.3c-2.6,0-5.2-2.5-5.3-4.2v-10.6h0Z"/>
        <path class="cls-2" d="M435.6,1611.1h-3.9c0,.1-.2-2.2-.2-2.2l2-.7v-10.3h-2.2l-.3-2.3,5.2-1.8,2.4.8v13.6l2,.7-.2,2.3h-3.9c0-.1-.9-.1-.9-.1h0ZM438.1,1586.8l.6,3.6-2.6,1.3h-3l-.6-3.6,2.6-1.3h3Z"/>
        <path class="cls-2" d="M464.8,1602.2c0,4.9-4.8,8.6-9.6,9.3-5-.8-7.8-4.3-7.8-8.4s4.8-8.6,9.6-9.3c5,.8,7.8,4.3,7.8,8.4h0ZM459.6,1602.5c0-2.4-1.3-4.4-4.3-5.1-1.3.9-2.7,2.3-2.7,5.4s1.3,4.4,4.3,5.1c1.3-.9,2.7-2.3,2.7-5.4h0Z"/>
        <path class="cls-2" d="M490,1608.2l2,.7-.2,2.3h-3.9c0-.1-1.5-.1-1.5-.1h-3c0,.1-.1-2.1-.1-2.1l1.6-.7v-8c0-.9-1.3-2-2.3-1.9l-3.2.7v9.2l1.6.7v2.3c-.1,0-3.1-.1-3.1-.1h-5.4c0,.1-.2-2.2-.2-2.2l2-.7v-10.3h-2.2l-.3-2.3,5.1-1.8,2,.8.3,2.1,5.8-2.9c1.5,0,5,2.1,5.1,4.3v10.2h0Z"/>
      </g>
    </g>
    <g>
      <rect class="cls-2" x="390" y="1182.6" width="2" height="294"/>
      <polygon class="cls-2" points="382.8 1189.2 384.3 1190.6 391 1183.3 397.7 1190.6 399.1 1189.2 391 1180.4 382.8 1189.2"/>
      <polygon class="cls-2" points="382.8 1470 384.3 1468.6 391 1475.8 397.7 1468.6 399.1 1470 391 1478.8 382.8 1470"/>
    </g>
  </g>
</svg>