<svg width="730" height="345" viewBox="0 0 730 345" fill="none" xmlns="http://www.w3.org/2000/svg">
    <g clip-path="url(#clip0_2720_2)">
        <path
            d="M120.855 17.9492L105.914 21.5625V133.477L120.855 137.09L119.977 145.586L101.422 145H93.5117L74.957 145.586L74.0781 137.09L89.0195 133.477V82.3047L77.2031 82.8906H29.5469L15.0938 82.1094V133.477L30.1328 137.09L29.1562 145.586L10.6016 145H2.78907L-15.7656 145.586L-16.7422 137.09L-1.80077 133.477V21.5625L-16.7422 17.9492L-15.7656 9.45312L2.78907 10.0391H10.6016L29.1562 9.45312L30.1328 17.9492L15.0938 21.5625V72.1484L29.5469 71.5625H77.2031L89.0195 72.0508V21.5625L74.0781 17.9492L74.957 9.45312L93.5117 10.0391H101.422L119.977 9.45312L120.855 17.9492ZM187.848 48.418C216.656 53.8867 230.133 72.7344 230.133 94.707C230.133 123.516 206.793 141.973 184.234 147.148C155.426 141.68 141.949 122.93 141.949 100.859C141.949 72.0508 165.289 53.5938 187.848 48.418ZM189.215 135.43C202.594 128.887 214.801 117.461 214.801 95.5859C214.801 78.5938 204.449 64.5312 182.867 60.1367C169.488 66.6797 157.281 78.2031 157.281 99.9805C157.281 116.973 167.633 131.035 189.215 135.43ZM318.219 135.332L285.797 147.148C257.184 141.875 243.707 122.441 243.707 101.055C243.707 68.6328 271.734 52.2266 289.605 48.418L317.633 60.5273L311.09 71.3672L284.625 60.1367C276.715 64.9219 259.039 71.5625 259.039 100.566C259.039 121.27 274.371 132.402 290.973 135.43L316.07 128.105L318.219 135.332ZM423.688 67.9492V134.648L436.09 138.262L435.211 145.586L419.195 145H411.969L397.711 145.586L397.027 138.262L408.551 134.648V74.4922C408.551 68.3398 399.469 61.6992 393.414 61.6992L364.41 72.4414V134.648L375.934 138.262L375.25 145.586L360.895 145H353.766L337.75 145.586L336.871 138.262L349.176 134.648V14.043H337.75L336.188 8.37891L357.867 0.566406L364.41 2.71484V55.6445L364.02 63.5547L399.469 48.5156C407.477 48.8086 422.516 59.1602 423.688 67.9492ZM502.398 95.8789H454.742V85.2344H502.398V95.8789Z"
            fill="#658EB4" />
        <path
            d="M179.703 216.945C181.754 223.879 183.316 231.984 183.316 243.508C183.316 276.711 159.098 294.387 139.078 300.051C132.047 299.367 124.918 296.34 118.375 292.141V334.035L134.391 337.648L133.316 344.973L112.516 344.387H107.73L91.7148 344.973L90.8359 337.648L103.141 334.035V215.676H90.543L89.2734 208.645L112.223 201.418L117.398 203.566L118.082 216.652L153.141 201.516C163.102 203.957 175.016 210.5 179.703 216.945ZM142.008 288.527C148.648 285.5 168.082 273.879 168.082 246.145C168.082 235.891 167.301 231.105 166.031 225.441C163.59 220.852 153.336 215.09 147.672 214.406L118.375 224.953V279.152L118.473 279.055C123.355 283.059 131.949 287.258 142.008 288.527ZM224.918 298H218.57L203.238 298.586L202.359 291.262L214.176 287.648V167.141H202.75L201.188 161.477L222.867 153.664L229.41 155.812V287.648L241.715 291.262L240.934 298.586L224.918 298ZM335.953 288.82L347.574 286.965L349.332 294.387L326.676 300.148C323.062 298.879 319.645 295.559 318.473 293.117V285.5L284.098 300.051C270.133 294.777 264.469 285.988 264.469 275.246C264.469 271.438 265.445 264.797 267.398 260.012L318.473 242.727V223.977C315.738 219.973 311.344 215.969 303.141 214.602L284.098 222.023C284.586 226.516 285.367 231.105 286.344 235.5L275.504 239.016L268.766 218.605L268.473 218.117L308.805 202.395C317.203 204.152 330.973 211.281 333.707 221.535V281.984C333.609 284.914 334 287.746 335.953 288.82ZM279.215 272.805C279.215 282.473 287.027 285.793 290.25 287.062L318.473 276.32V251.809L280.68 264.895C279.801 266.652 279.215 269.387 279.215 272.805ZM373.844 281.105V211.965H361.539V204.25L375.016 203.078L380.777 178.176H389.078V203.566L418.766 201.906L417.887 211.965H389.078V276.613C391.324 281.496 394.156 285.305 403.727 288.332L421.988 283.352L424.332 290.773L398.062 300.148C385.855 298.977 375.406 287.16 373.844 281.105ZM482.926 288.43L508.023 281.105L510.172 288.332L477.555 300.148C459.098 296.438 435.66 285.598 435.66 253.273C435.66 220.559 466.617 203.566 481.559 201.418C501.188 201.418 513.395 214.895 513.395 230.031C513.395 237.746 510.172 246.34 507.047 252.883H450.895V254.152C450.895 273.879 464.566 285.012 482.926 288.43ZM476.578 213.137C467.691 217.336 454.801 225.148 451.676 244.582L496.988 243.312C498.844 239.504 499.723 235.402 499.723 231.398C499.723 223.391 494.254 213.137 476.578 213.137ZM602.555 288.82L614.176 286.965L615.934 294.387L593.277 300.148C589.664 298.879 586.246 295.559 585.074 293.117V285.5L550.699 300.051C536.734 294.777 531.07 285.988 531.07 275.246C531.07 271.438 532.047 264.797 534 260.012L585.074 242.727V223.977C582.34 219.973 577.945 215.969 569.742 214.602L550.699 222.023C551.188 226.516 551.969 231.105 552.945 235.5L542.105 239.016L535.367 218.605L535.074 218.117L575.406 202.395C583.805 204.152 597.574 211.281 600.309 221.535V281.984C600.211 284.914 600.602 287.746 602.555 288.82ZM545.816 272.805C545.816 282.473 553.629 285.793 556.852 287.062L585.074 276.32V251.809L547.281 264.895C546.402 266.652 545.816 269.387 545.816 272.805ZM716.227 288.723L727.848 286.77L729.605 294.191L707.047 300.051C703.336 298.684 700.016 295.461 698.746 293.02V285.207L663.883 300.148C655.973 299.758 640.934 289.406 639.664 280.617V215.676H627.066L625.895 208.645L649.039 201.418L654.898 203.566V274.172C654.898 280.324 663.883 286.965 669.938 286.867L698.746 276.223V215.676H686.148L684.977 208.645L708.121 201.418L713.98 203.566V281.789C713.98 284.719 714.273 287.551 716.227 288.723Z"
            fill="#658EB4" />
    </g>
    <defs>
        <clipPath id="clip0_2720_2">
            <rect width="730" height="345" fill="white" />
        </clipPath>
    </defs>
</svg>