<?xml version="1.0" encoding="UTF-8"?>
<svg id="uuid-88767663-1af4-42b3-a6c9-b96ed4d36ec4" data-name="Ebene 1" xmlns="http://www.w3.org/2000/svg" viewBox="0 0 1556.61 1453.71">
  <defs>
    <style>
      .uuid-453b25bf-164a-4f86-8895-c7ce1f588362 {
        fill: #9dbad7;
      }

      .uuid-453b25bf-164a-4f86-8895-c7ce1f588362, .uuid-16698ddc-efb6-45e8-b9c3-767176caad3d {
        stroke-width: 0px;
      }

      .uuid-16698ddc-efb6-45e8-b9c3-767176caad3d {
        fill: #005587;
      }
    </style>
  </defs>
  <path class="uuid-453b25bf-164a-4f86-8895-c7ce1f588362" d="M1124.37,954.43l-145.55-45.52c-301.27-77.39-317.05-79.54-413-95.44-133.08-22.04-311.08-33.53-395.43-16.7-8.03,1.58-8.72,4.42-2.17,9,16.35,11.45,33.34,20.94,57.26,32.71,11.97,5.89,22.12,7.52,36.26,8.21,156.94,7.65,380.79,64.33,520.25,100.74l157.51,41.35s42.9,11.11,149.82,42.53c78.99,23.21,290.72,85.42,338.14,96.84,47.87,11.53,19.93,0,32-23.98,6.22-12.37,17.84-18.53,5.02-23.74-86.1-35.01-240.37-94.12-340.12-126.03Z"/>
  <path class="uuid-453b25bf-164a-4f86-8895-c7ce1f588362" d="M482.75,823.92c-35.79-.04-76.84,3.81-84.06,6.72-3.9,1.57-136.04,343.66-136.04,343.66-10.57,27.84-7.19,38.95-1.01,45.9,1.8,2.09,5.09,3.17,8.82,3.18,29.65,1.97,52.35,2.64,76.16,1.95,3.82-.19,5.4-1.42,4.09-3.38-4.3-7.63,86.1-268.25,89.91-278.35,21.42-50.39,46.39-108.91,49.55-115.69.97-2.32-2.06-4.02-7.42-3.99ZM445,932.14c8-20.68,15.88-39.67,22.7-54.32l-22.7,54.32Z"/>
  <path class="uuid-453b25bf-164a-4f86-8895-c7ce1f588362" d="M1185.44,979.58c-35.79-.04-76.84,3.81-84.06,6.72-3.9,1.57-136.04,343.66-136.04,343.66-10.57,27.84-7.19,38.95-1.01,45.9,1.8,2.09,5.09,3.17,8.82,3.18,29.65,1.97,52.35,2.64,76.16,1.95,3.82-.19,5.4-1.42,4.09-3.38-4.3-7.63,86.1-268.25,89.91-278.35,21.42-50.39,46.39-108.91,49.55-115.69.97-2.32-2.06-4.02-7.42-3.99ZM1147.7,1087.81c8-20.68,15.88-39.67,22.7-54.32l-22.7,54.32Z"/>
  <path class="uuid-16698ddc-efb6-45e8-b9c3-767176caad3d" d="M1051.86,231.88c-25.02,48.48-109.45,64.21-150.71,52.85-69.13-21.47-77.57-112.22-47.89-173.96,25-48.55,109.4-64.21,150.67-52.87,69.13,21.47,77.61,112.23,47.93,173.97Z"/>
  <path class="uuid-453b25bf-164a-4f86-8895-c7ce1f588362" d="M1512.41,1031.87c-26.15,23.49-49.29,46.42-66.67,67.15-31.34,37.39-69.04,87.92-118.74,153.55-1.33,1.75-2.86,3.33-3.93,5.19-50.61,87.42-143.62,124.83-241.55,91.19-42.1-14.46-88.25-19.2-120.93-29.65l-145.55-45.52c-301.26-77.39-317.05-79.54-413-95.44-133.08-22.04-311.08-33.53-395.42-16.7-8.04,1.58-8.72,4.42-2.17,9.01,16.34,11.45,33.34,20.94,57.25,32.71,11.97,5.89,22.13,7.53,36.26,8.21,156.94,7.65,380.8,64.33,520.25,100.74l157.52,41.35s42.9,11.11,149.81,42.53c78.99,23.21,139.35,41.42,186.77,52.84,12.33,2.97,26,4.28,39.49,4.6,32.75.76,65.22-5.23,96.44-15.17,23.1-7.35,74.86-45.35,79.56-51.14l73.09-93.77c44.57-61.85,103.79-152.48,151.39-227.82,16.31-25.82-17.15-54.29-39.88-33.88Z"/>
  <path class="uuid-16698ddc-efb6-45e8-b9c3-767176caad3d" d="M1094.34,614.14l-42.35-133c-25.88-63.01-77.95-111.45-139.84-131.64l-164.17-60.82c-.14.11-143.59-57.88-143.59-57.88-59.73-37.15-44.57-184.12-45.79-187.02-16.44-34.97-57.6-53.78-94.32-38.33-37.64,17.09.95,216.97.95,216.97,24.7,59.84,62.34,87.24,122.19,112.06,0,0,40.58,18.3,68.98,31.53,15.88,8.04,43.12,23.02,44.1,23.86l-69.93,245.3c-2.61,9.18-6.3,17.98-9.81,26.86-26.14,66.11-3.57,142.59,56.07,183.53l149.15,101.88-14.11,83.22c.37.1-19.43,185.47-19.43,185.47-4.5,39.1,24.31,75.47,64.12,80.93,21.05,2.88,52.25-90.95,76.55-181.67l51.12-180.49c2.32-14.31.9-28.38-1.02-42.12-.75-5.36-14.33-22.18-15.27-22.12l-124.56-97.31,88.05-287.53,64.14,157.47c16.83,40.54,49.33,80.78,93.1,83.89,0,0,191.41,16.59,194.22-25.71,2.75-42.32-188.53-87.32-188.53-87.32Z"/>
</svg>