<?xml version="1.0" encoding="UTF-8"?>
<svg id="Ebene_2" data-name="Ebene 2" xmlns="http://www.w3.org/2000/svg" xmlns:xlink="http://www.w3.org/1999/xlink" version="1.1" viewBox="0 0 1498.4 1187.1">
  <defs>
    <style>
      .cls-1 {
        clip-path: url(#clippath);
      }

      .cls-2 {
        fill: none;
      }

      .cls-2, .cls-3, .cls-4, .cls-5 {
        stroke-width: 0px;
      }

      .cls-3 {
        fill: #1d1d1b;
      }

      .cls-4 {
        fill: #00497b;
      }

      .cls-6 {
        clip-path: url(#clippath-1);
      }

      .cls-7 {
        clip-path: url(#clippath-2);
      }

      .cls-8 {
        isolation: isolate;
      }

      .cls-5 {
        fill: #fff;
      }
    </style>
    <clipPath id="clippath">
      <rect class="cls-2" x="868.3" y="594.7" width="629.4" height="591.7"/>
    </clipPath>
    <clipPath id="clippath-1">
      <rect class="cls-2" x="85" y="424.5" width="1413.4" height="762.6"/>
    </clipPath>
    <clipPath id="clippath-2">
      <rect class="cls-2" x="75.6" y="525.7" width="478.2" height="522.7"/>
    </clipPath>
  </defs>
  <g class="cls-1">
    <g>
      <rect class="cls-3" x="-301.2" y="878.8" width="1346.6" height="1.2" transform="translate(-422.7 350.1) rotate(-33.4)"/>
      <rect class="cls-3" x="-274.9" y="878.8" width="1346.6" height="1.2" transform="translate(-418.3 364.5) rotate(-33.4)"/>
      <rect class="cls-3" x="-248.7" y="878.8" width="1346.6" height="1.2" transform="translate(-414 379) rotate(-33.4)"/>
      <rect class="cls-3" x="-222.5" y="878.8" width="1346.6" height="1.2" transform="translate(-409.7 393.4) rotate(-33.4)"/>
      <rect class="cls-3" x="-196.2" y="878.8" width="1346.6" height="1.2" transform="translate(-405.3 407.8) rotate(-33.4)"/>
      <rect class="cls-3" x="-170" y="878.8" width="1346.6" height="1.2" transform="translate(-400.9 422.3) rotate(-33.4)"/>
      <rect class="cls-3" x="-143.7" y="878.8" width="1346.6" height="1.2" transform="translate(-396.6 436.7) rotate(-33.4)"/>
      <rect class="cls-3" x="-117.5" y="878.8" width="1346.6" height="1.2" transform="translate(-392.3 451.2) rotate(-33.4)"/>
      <rect class="cls-3" x="-91.2" y="878.8" width="1346.6" height="1.2" transform="translate(-387.9 465.6) rotate(-33.4)"/>
      <rect class="cls-3" x="-65" y="878.8" width="1346.6" height="1.2" transform="translate(-383.6 480.1) rotate(-33.4)"/>
      <rect class="cls-3" x="-38.8" y="878.8" width="1346.7" height="1.2" transform="translate(-379.3 494.5) rotate(-33.4)"/>
      <rect class="cls-3" x="-12.5" y="878.8" width="1346.6" height="1.2" transform="translate(-374.9 509) rotate(-33.4)"/>
      <rect class="cls-3" x="13.7" y="878.7" width="1346.7" height="1.2" transform="translate(-370.6 523.4) rotate(-33.4)"/>
      <rect class="cls-3" x="40" y="878.7" width="1346.6" height="1.2" transform="translate(-366.2 537.9) rotate(-33.4)"/>
      <rect class="cls-3" x="66.2" y="878.7" width="1346.6" height="1.2" transform="translate(-361.9 552.3) rotate(-33.4)"/>
      <rect class="cls-3" x="92.5" y="878.7" width="1346.6" height="1.2" transform="translate(-357.4 566.4) rotate(-33.4)"/>
      <rect class="cls-3" x="118.7" y="878.7" width="1346.6" height="1.2" transform="translate(-353.2 581.2) rotate(-33.4)"/>
      <rect class="cls-3" x="145" y="878.7" width="1346.6" height="1.2" transform="translate(-348.8 595.3) rotate(-33.4)"/>
      <rect class="cls-3" x="171.2" y="878.7" width="1346.6" height="1.2" transform="translate(-344.5 610.1) rotate(-33.4)"/>
      <rect class="cls-3" x="197.5" y="878.7" width="1346.6" height="1.2" transform="translate(-340.1 624.1) rotate(-33.4)"/>
      <rect class="cls-3" x="223.7" y="878.7" width="1346.6" height="1.2" transform="translate(-335.9 639) rotate(-33.4)"/>
      <rect class="cls-3" x="249.9" y="878.5" width="1346.6" height="1.2" transform="translate(-331.5 653.4) rotate(-33.4)"/>
      <rect class="cls-3" x="276.2" y="878.5" width="1346.6" height="1.2" transform="translate(-327.1 667.9) rotate(-33.4)"/>
      <rect class="cls-3" x="302.4" y="878.5" width="1346.6" height="1.2" transform="translate(-322.8 682.3) rotate(-33.4)"/>
      <rect class="cls-3" x="328.7" y="878.5" width="1346.6" height="1.2" transform="translate(-318.5 696.8) rotate(-33.4)"/>
      <rect class="cls-3" x="354.9" y="878.5" width="1346.6" height="1.2" transform="translate(-314.1 711.2) rotate(-33.4)"/>
      <rect class="cls-3" x="381.2" y="878.5" width="1346.6" height="1.2" transform="translate(-309.8 725.7) rotate(-33.4)"/>
      <rect class="cls-3" x="407.4" y="878.5" width="1346.6" height="1.2" transform="translate(-305.5 740.1) rotate(-33.4)"/>
      <rect class="cls-3" x="433.6" y="878.5" width="1346.6" height="1.2" transform="translate(-301.1 754) rotate(-33.4)"/>
      <rect class="cls-3" x="459.9" y="878.5" width="1346.7" height="1.2" transform="translate(-296.8 769.5) rotate(-33.4)"/>
      <rect class="cls-3" x="486.1" y="878.5" width="1346.6" height="1.2" transform="translate(-292.4 782.9) rotate(-33.4)"/>
      <rect class="cls-3" x="512.4" y="878.5" width="1346.6" height="1.2" transform="translate(-288.1 797.9) rotate(-33.4)"/>
      <rect class="cls-3" x="538.6" y="878.5" width="1346.6" height="1.2" transform="translate(-283.7 811.8) rotate(-33.4)"/>
      <rect class="cls-3" x="564.9" y="878.5" width="1346.6" height="1.2" transform="translate(-279.4 826.8) rotate(-33.4)"/>
      <rect class="cls-3" x="591.1" y="878.5" width="1346.6" height="1.2" transform="translate(-275.1 840.7) rotate(-33.4)"/>
      <rect class="cls-3" x="617.4" y="878.5" width="1346.6" height="1.2" transform="translate(-270.7 855.7) rotate(-33.4)"/>
      <rect class="cls-3" x="643.6" y="878.5" width="1346.6" height="1.2" transform="translate(-266.4 869.5) rotate(-33.4)"/>
      <rect class="cls-3" x="669.8" y="878.5" width="1346.7" height="1.2" transform="translate(-262.1 884) rotate(-33.4)"/>
      <rect class="cls-3" x="696.1" y="878.3" width="1346.6" height="1.2" transform="translate(-257.7 898.4) rotate(-33.4)"/>
      <rect class="cls-3" x="722.3" y="878.3" width="1346.6" height="1.2" transform="translate(-253.4 912.8) rotate(-33.4)"/>
      <rect class="cls-3" x="748.6" y="878.3" width="1346.6" height="1.2" transform="translate(-249 927.3) rotate(-33.4)"/>
      <rect class="cls-3" x="774.8" y="878.3" width="1346.6" height="1.2" transform="translate(-244.7 941.7) rotate(-33.4)"/>
      <rect class="cls-3" x="801.1" y="878.3" width="1346.6" height="1.2" transform="translate(-240.4 956.2) rotate(-33.4)"/>
      <rect class="cls-3" x="827.3" y="878.3" width="1346.6" height="1.2" transform="translate(-236.1 970.6) rotate(-33.4)"/>
      <rect class="cls-3" x="853.6" y="878.3" width="1346.6" height="1.2" transform="translate(-231.7 985.1) rotate(-33.4)"/>
      <rect class="cls-3" x="879.8" y="878.3" width="1346.6" height="1.2" transform="translate(-227.4 999.5) rotate(-33.4)"/>
      <rect class="cls-3" x="906" y="878.3" width="1346.7" height="1.2" transform="translate(-223 1013.9) rotate(-33.4)"/>
      <rect class="cls-3" x="932.3" y="878.3" width="1346.6" height="1.2" transform="translate(-218.7 1028.3) rotate(-33.4)"/>
      <rect class="cls-3" x="958.5" y="878.3" width="1346.6" height="1.2" transform="translate(-214.4 1042.8) rotate(-33.4)"/>
      <rect class="cls-3" x="984.8" y="878.3" width="1346.6" height="1.2" transform="translate(-210 1057.2) rotate(-33.4)"/>
      <rect class="cls-3" x="1011" y="878.3" width="1346.6" height="1.2" transform="translate(-205.7 1071.6) rotate(-33.4)"/>
      <rect class="cls-3" x="1037.3" y="878.3" width="1346.6" height="1.2" transform="translate(-201.4 1086.1) rotate(-33.4)"/>
      <rect class="cls-3" x="1063.5" y="878.3" width="1346.6" height="1.2" transform="translate(-197 1100.5) rotate(-33.4)"/>
      <rect class="cls-3" x="1089.7" y="878.3" width="1346.7" height="1.2" transform="translate(-192.7 1115) rotate(-33.4)"/>
      <rect class="cls-3" x="1116" y="878.3" width="1346.6" height="1.2" transform="translate(-188.4 1129.4) rotate(-33.4)"/>
      <rect class="cls-3" x="1142.2" y="878.2" width="1346.6" height="1.2" transform="translate(-184 1143.8) rotate(-33.4)"/>
      <rect class="cls-3" x="1168.5" y="878.2" width="1346.6" height="1.2" transform="translate(-179.7 1158.3) rotate(-33.4)"/>
      <rect class="cls-3" x="1194.7" y="878.2" width="1346.6" height="1.2" transform="translate(-175.3 1172.7) rotate(-33.4)"/>
      <rect class="cls-3" x="1221" y="878.2" width="1346.6" height="1.2" transform="translate(-171 1187.2) rotate(-33.4)"/>
      <rect class="cls-3" x="1247.2" y="878.2" width="1346.6" height="1.2" transform="translate(-166.7 1201.6) rotate(-33.4)"/>
      <rect class="cls-3" x="1273.5" y="878.2" width="1346.6" height="1.2" transform="translate(-162.3 1216.1) rotate(-33.4)"/>
      <rect class="cls-3" x="1299.7" y="878.2" width="1346.6" height="1.2" transform="translate(-158 1230.5) rotate(-33.4)"/>
      <rect class="cls-3" x="1326" y="878.2" width="1346.5" height="1.2" transform="translate(-153.7 1244.9) rotate(-33.4)"/>
      <rect class="cls-3" x="1352.2" y="878.1" width="1346.7" height="1.2" transform="translate(-149.3 1259.3) rotate(-33.4)"/>
      <rect class="cls-3" x="1378.4" y="878" width="1346.6" height="1.2" transform="translate(-145 1273.8) rotate(-33.4)"/>
    </g>
  </g>
  <g class="cls-6">
    <path class="cls-4" d="M1498.3,1187.1h-630.6v-592.9h630.6v592.9ZM868.9,1185.9h628.2v-590.5h-628.2v590.5Z"/>
  </g>
  <rect class="cls-4" x="940.6" y="527" width="482.4" height="524.6"/>
  <path class="cls-5" d="M1423.6,1052.2h-483.6v-525.8h483.6v525.8ZM941.2,1051h481.2v-523.4h-481.2v523.4Z"/>
  <polygon class="cls-4" points="629.5 595.5 629.5 1184.4 0 1184.4 0 595.5 75.6 595.5 75.6 1048.4 553.8 1048.4 553.8 595.5 629.5 595.5"/>
  <rect class="cls-2" x="75.6" y="525.7" width="478.2" height="69.8"/>
  <g class="cls-7">
    <g>
      <rect class="cls-3" x="-1144.9" y="827.7" width="1346.6" height="1.2" transform="translate(-533.8 -122.8) rotate(-33.4)"/>
      <rect class="cls-3" x="-1118.7" y="827.7" width="1346.6" height="1.2" transform="translate(-529.5 -108.4) rotate(-33.4)"/>
      <rect class="cls-3" x="-1092.5" y="827.5" width="1346.6" height="1.2" transform="translate(-525.1 -94) rotate(-33.4)"/>
      <rect class="cls-3" x="-1066.2" y="827.5" width="1346.6" height="1.2" transform="translate(-520.8 -79.5) rotate(-33.4)"/>
      <rect class="cls-3" x="-1040" y="827.5" width="1346.6" height="1.2" transform="translate(-516.4 -65.1) rotate(-33.4)"/>
      <rect class="cls-3" x="-1013.7" y="827.5" width="1346.6" height="1.2" transform="translate(-512.1 -50.6) rotate(-33.4)"/>
      <rect class="cls-3" x="-987.5" y="827.5" width="1346.6" height="1.2" transform="translate(-507.8 -36.2) rotate(-33.4)"/>
      <rect class="cls-3" x="-961.2" y="827.5" width="1346.6" height="1.2" transform="translate(-503.4 -21.7) rotate(-33.4)"/>
      <rect class="cls-3" x="-935" y="827.5" width="1346.6" height="1.2" transform="translate(-499.1 -7.3) rotate(-33.4)"/>
      <rect class="cls-3" x="-908.7" y="827.5" width="1346.6" height="1.2" transform="translate(-494.7 7.2) rotate(-33.4)"/>
      <rect class="cls-3" x="-882.5" y="827.5" width="1346.7" height="1.2" transform="translate(-490.7 21.7) rotate(-33.4)"/>
      <rect class="cls-3" x="-856.3" y="827.4" width="1346.6" height="1.2" transform="translate(-486 36) rotate(-33.4)"/>
      <rect class="cls-3" x="-830" y="827.4" width="1346.6" height="1.2" transform="translate(-481.7 50.5) rotate(-33.4)"/>
      <rect class="cls-3" x="-803.8" y="827.4" width="1346.6" height="1.2" transform="translate(-477.4 64.9) rotate(-33.4)"/>
      <rect class="cls-3" x="-777.5" y="827.4" width="1346.6" height="1.2" transform="translate(-473 79.4) rotate(-33.4)"/>
      <rect class="cls-3" x="-751.3" y="827.4" width="1346.6" height="1.2" transform="translate(-468.7 93.8) rotate(-33.4)"/>
      <rect class="cls-3" x="-725" y="827.4" width="1346.6" height="1.2" transform="translate(-464.4 108.3) rotate(-33.4)"/>
      <rect class="cls-3" x="-698.8" y="827.4" width="1346.6" height="1.2" transform="translate(-460 122.7) rotate(-33.4)"/>
      <rect class="cls-3" x="-672.6" y="827.4" width="1346.7" height="1.2" transform="translate(-455.9 137.3) rotate(-33.4)"/>
      <rect class="cls-3" x="-646.3" y="827.3" width="1346.6" height="1.2" transform="translate(-451.3 151.6) rotate(-33.4)"/>
      <rect class="cls-3" x="-620.1" y="827.3" width="1346.6" height="1.2" transform="translate(-447 166) rotate(-33.4)"/>
      <rect class="cls-3" x="-593.8" y="827.3" width="1346.6" height="1.2" transform="translate(-442.6 180.5) rotate(-33.4)"/>
      <rect class="cls-3" x="-567.6" y="827.3" width="1346.6" height="1.2" transform="translate(-438.3 194.9) rotate(-33.4)"/>
      <rect class="cls-3" x="-541.3" y="827.3" width="1346.6" height="1.2" transform="translate(-434 209.4) rotate(-33.4)"/>
      <rect class="cls-3" x="-515.1" y="827.3" width="1346.6" height="1.2" transform="translate(-429.6 223.8) rotate(-33.4)"/>
      <rect class="cls-3" x="-488.9" y="827.3" width="1346.7" height="1.2" transform="translate(-425.3 238.3) rotate(-33.4)"/>
      <rect class="cls-3" x="-462.6" y="827.3" width="1346.6" height="1.2" transform="translate(-421 252.7) rotate(-33.4)"/>
      <rect class="cls-3" x="-436.4" y="827.3" width="1346.7" height="1.2" transform="translate(-416.6 267.2) rotate(-33.4)"/>
      <rect class="cls-3" x="-410.1" y="827.3" width="1346.6" height="1.2" transform="translate(-412.2 281.6) rotate(-33.4)"/>
      <rect class="cls-3" x="-383.9" y="827.3" width="1346.6" height="1.2" transform="translate(-407.9 296) rotate(-33.4)"/>
      <rect class="cls-3" x="-357.6" y="827.3" width="1346.6" height="1.2" transform="translate(-403.6 310.5) rotate(-33.4)"/>
      <rect class="cls-3" x="-331.4" y="827.3" width="1346.6" height="1.2" transform="translate(-399.2 324.9) rotate(-33.4)"/>
      <rect class="cls-3" x="-305.1" y="827.3" width="1346.6" height="1.2" transform="translate(-394.9 339.4) rotate(-33.4)"/>
      <rect class="cls-3" x="-278.9" y="827.3" width="1346.6" height="1.2" transform="translate(-390.6 353.8) rotate(-33.4)"/>
      <rect class="cls-3" x="-252.6" y="827.3" width="1346.6" height="1.2" transform="translate(-386.2 368.3) rotate(-33.4)"/>
      <rect class="cls-3" x="-226.4" y="827.2" width="1346.7" height="1.2" transform="translate(-382 383) rotate(-33.4)"/>
      <rect class="cls-3" x="-200.2" y="827.2" width="1346.6" height="1.2" transform="translate(-377.5 397.1) rotate(-33.4)"/>
      <rect class="cls-3" x="-173.9" y="827.2" width="1346.6" height="1.2" transform="translate(-373.2 411.6) rotate(-33.4)"/>
      <rect class="cls-3" x="-147.7" y="827.2" width="1346.6" height="1.2" transform="translate(-368.9 426) rotate(-33.4)"/>
      <rect class="cls-3" x="-121.4" y="827.2" width="1346.6" height="1.2" transform="translate(-364.5 440.5) rotate(-33.4)"/>
      <rect class="cls-3" x="-95.2" y="827.2" width="1346.6" height="1.2" transform="translate(-360.2 454.9) rotate(-33.4)"/>
      <rect class="cls-3" x="-68.9" y="827.2" width="1346.6" height="1.2" transform="translate(-355.8 469.4) rotate(-33.4)"/>
      <rect class="cls-3" x="-42.7" y="827.2" width="1346.6" height="1.2" transform="translate(-351.5 483.8) rotate(-33.4)"/>
      <rect class="cls-3" x="-16.4" y="827.2" width="1346.5" height="1.2" transform="translate(-347.1 497.9) rotate(-33.4)"/>
      <rect class="cls-3" x="9.8" y="827.1" width="1346.7" height="1.2" transform="translate(-342.9 513.1) rotate(-33.4)"/>
      <rect class="cls-3" x="36" y="827" width="1346.6" height="1.2" transform="translate(-338.5 527.1) rotate(-33.4)"/>
      <rect class="cls-3" x="62.3" y="827" width="1346.6" height="1.2" transform="translate(-334.1 541.6) rotate(-33.4)"/>
      <rect class="cls-3" x="88.5" y="827" width="1346.6" height="1.2" transform="translate(-329.7 555.7) rotate(-33.4)"/>
      <rect class="cls-3" x="114.8" y="827" width="1346.6" height="1.2" transform="translate(-325.4 570.5) rotate(-33.4)"/>
      <rect class="cls-3" x="141" y="827" width="1346.6" height="1.2" transform="translate(-321 584.5) rotate(-33.4)"/>
      <rect class="cls-3" x="167.2" y="827" width="1346.7" height="1.2" transform="translate(-316.8 599.4) rotate(-33.4)"/>
      <rect class="cls-3" x="193.5" y="827" width="1346.6" height="1.2" transform="translate(-312.4 613.4) rotate(-33.4)"/>
      <rect class="cls-3" x="219.7" y="827" width="1346.7" height="1.2" transform="translate(-308.1 628.3) rotate(-33.4)"/>
      <rect class="cls-3" x="246" y="827" width="1346.6" height="1.2" transform="translate(-303.7 642.3) rotate(-33.4)"/>
      <rect class="cls-3" x="272.2" y="827" width="1346.6" height="1.2" transform="translate(-299.4 657.1) rotate(-33.4)"/>
      <rect class="cls-3" x="298.5" y="827" width="1346.6" height="1.2" transform="translate(-295 671.2) rotate(-33.4)"/>
      <rect class="cls-3" x="324.7" y="827" width="1346.6" height="1.2" transform="translate(-290.7 686) rotate(-33.4)"/>
      <rect class="cls-3" x="351" y="827" width="1346.6" height="1.2" transform="translate(-286.3 700.1) rotate(-33.4)"/>
      <rect class="cls-3" x="377.2" y="827" width="1346.6" height="1.2" transform="translate(-282.1 714.9) rotate(-33.4)"/>
      <rect class="cls-3" x="403.4" y="827" width="1346.7" height="1.2" transform="translate(-277.7 729.4) rotate(-33.4)"/>
      <rect class="cls-3" x="429.7" y="827" width="1346.6" height="1.2" transform="translate(-273.4 743.8) rotate(-33.4)"/>
    </g>
  </g>
  <path class="cls-4" d="M554.4,1049H75v-523.9h479.4v523.9ZM76.2,1047.8h477v-521.5H76.2v521.5Z"/>
  <g class="cls-8">
    <g class="cls-8">
      <path class="cls-5" d="M239.2,1105h12.6v5.5h-1.8l-.6-3.6-8.1-.2v9.8l2-.2h6.3l-.2,1.9h-6.2l-1.9-.2v8.1l3.4.6-.2,1.5h-4.2c0,0-1.1,0-1.1,0h-3.2c0,0-.2-1.4-.2-1.4l2.6-.6v-19.3l-2.6-.6.2-1.5h3.2v.3Z"/>
      <path class="cls-5" d="M267.4,1126.4l.3,1.3-3.9,1c-.6-.2-1.2-.8-1.4-1.2v-1.3l-5.9,2.5c-2.4-.9-3.4-2.4-3.4-4.3s.2-1.8.5-2.6l8.8-3v-3.2c-.5-.7-1.2-1.4-2.6-1.6l-3.3,1.3c0,.8.2,1.6.4,2.3l-1.9.6-1.2-3.5h0l7-2.8c1.4.3,3.8,1.5,4.3,3.3v10.4c0,.5,0,1,.4,1.2l2-.3h0ZM257.5,1126.4l4.9-1.9v-4.2l-6.5,2.3c-.2.3-.3.8-.3,1.4,0,1.7,1.3,2.2,1.9,2.5h0Z"/>
      <path class="cls-5" d="M280.5,1111.6c.9,0,1.6.5,2.1.9l-.4,2.5h-.4c-.8-.4-1.3-.6-2.1-.8l-3.9,2v10.2l2.8.6-.2,1.2h-7.2c0,0-.2-1.1-.2-1.1l2.1-.6v-12.4h-2.2l-.2-1.2,4-1.2.9.4v2.6c.1,0,4.8-3,4.8-3h.1Z"/>
      <path class="cls-5" d="M300.8,1118.9c0,5.7-4.1,8.9-8,9.8-2.4-.3-4.3-1.2-5.8-2.5v-20.5h-2l-.3-1,3.7-1.3,1.1.4v10.5l5.9-2.6c1.7.4,3.8,1.4,4.6,2.5.4,1,.7,2.7.7,4.7h0ZM298.2,1119.1c0-1.5-.1-2.6-.4-3.5-.4-.8-2.2-1.6-3.2-1.7l-5,1.8v9.3c.5.5,2.5,1.4,4.1,1.6,1.3-.5,4.5-2.5,4.5-7.5h0Z"/>
      <path class="cls-5" d="M319.1,1126.5l2,.6v1.3c-.1,0-2.7,0-2.7,0h-3.8c0,0-.1-1.2-.1-1.2l2-.6v-20.4c-.4-.4-2.2-1.1-3.1-1.1-3.7,0-4.8,3.2-4.8,7l4.9-.3-.2,1.7h-4.8v13l2.8.6-.2,1.3h-3.6c0,0-.8,0-.8,0h-2.8c0,0-.2-1.2-.2-1.2l2.1-.6v-13.1h-2.1v-1.5h2.1c0-5.6,3.2-8.6,7.4-8.6s4.6.9,5.7,1.1v22l.2.2Z"/>
      <path class="cls-5" d="M339.7,1126.4l.3,1.3-3.9,1c-.6-.2-1.2-.8-1.4-1.2v-1.3l-5.9,2.5c-2.4-.9-3.4-2.4-3.4-4.3s.2-1.8.5-2.6l8.8-3v-3.2c-.5-.7-1.2-1.4-2.6-1.6l-3.3,1.3c0,.8.2,1.6.4,2.3l-1.9.6-1.2-3.5h0l7-2.8c1.4.3,3.8,1.5,4.3,3.3v10.4c0,.5,0,1,.4,1.2l2-.3h0ZM329.8,1126.4l4.9-1.9v-4.2l-6.5,2.3c-.2.3-.3.8-.3,1.4,0,1.7,1.3,2.2,1.9,2.5h0ZM329.9,1108.3h-1.4l-.5-2.3,1.4-.7h1.4l.5,2.3-1.4.7ZM335,1108.3h-1.4l-.5-2.3,1.4-.7h1.4l.5,2.3-1.4.7Z"/>
      <path class="cls-5" d="M349.7,1128.6c-4.9-.9-7.3-4.3-7.3-7.9,0-5.6,4.8-8.4,7.9-9.1l4.8,2.1-1.1,1.9-4.6-1.9c-1.4.8-4.4,2-4.4,7s2.6,5.5,5.5,6l4.3-1.3.4,1.2-5.6,2h.1Z"/>
      <path class="cls-5" d="M373.8,1126.5l2.1.6-.2,1.3h-2.8c0,0-1.2,0-1.2,0h-2.5c0,0-.1-1.2-.1-1.2l2-.6v-10.4c0-1.1-1.6-2.2-2.6-2.2l-5,1.9v10.7l2,.6v1.3c-.1,0-2.6,0-2.6,0h-4c0,0-.2-1.2-.2-1.2l2.1-.6v-20.8h-2l-.3-1,3.7-1.3,1.1.4v10.5l6-2.6c1.4,0,4,1.8,4.2,3.3v11.5h.3Z"/>
      <path class="cls-5" d="M391.5,1125.4l.4,1.2-5.6,2c-3.2-.6-7.2-2.5-7.2-8.1s5.3-8.6,7.9-8.9c3.4,0,5.5,2.3,5.5,4.9s-.6,2.8-1.1,3.9h-9.7v.2c0,3.4,2.4,5.3,5.5,5.9l4.3-1.3v.2ZM381.8,1119.1l7.8-.2c.3-.7.5-1.4.5-2.1,0-1.4-.9-3.1-4-3.1-1.5.7-3.8,2.1-4.3,5.4h0Z"/>
    </g>
  </g>
  <g class="cls-8">
    <g class="cls-8">
      <path class="cls-5" d="M1106.3,773.3h12.6v5.5h-1.8l-.6-3.6-8.1-.2v9.8l2-.2h6.3l-.2,1.9h-6.2l-1.9-.2v8.1l3.4.6-.2,1.5h-4.2c0,0-1.1,0-1.1,0h-3.2c0,0-.2-1.4-.2-1.4l2.6-.6v-19.3l-2.6-.6.2-1.5h3.2v.3Z"/>
      <path class="cls-5" d="M1134.5,794.7l.3,1.3-3.9,1c-.6-.2-1.2-.8-1.4-1.2v-1.3l-5.9,2.5c-2.4-.9-3.4-2.4-3.4-4.3s.2-1.8.5-2.6l8.8-3v-3.2c-.5-.7-1.2-1.4-2.6-1.6l-3.3,1.3c0,.8.2,1.6.4,2.3l-1.9.6-1.2-3.5h0l7-2.8c1.4.3,3.8,1.5,4.3,3.3v10.4c0,.5,0,1,.4,1.2l2-.3h-.1ZM1124.6,794.7l4.9-1.9v-4.2l-6.5,2.3c-.2.3-.3.8-.3,1.4,0,1.7,1.3,2.2,1.9,2.5h0Z"/>
      <path class="cls-5" d="M1147.5,779.9c.9,0,1.6.5,2.1.9l-.4,2.5h-.4c-.8-.4-1.3-.6-2.1-.8l-3.9,2v10.2l2.8.6-.2,1.2h-7.2c0,0-.2-1.1-.2-1.1l2.1-.6v-12.4h-2.2l-.2-1.2,4-1.2.9.4v2.6c0,0,4.8-3,4.8-3h0Z"/>
      <path class="cls-5" d="M1167.9,787.1c0,5.7-4.1,8.9-8,9.8-2.4-.3-4.3-1.2-5.8-2.5v-20.5h-2l-.3-1,3.7-1.3,1.1.4v10.5l5.9-2.6c1.7.4,3.8,1.4,4.6,2.5.4,1,.7,2.7.7,4.7h.1ZM1165.2,787.4c0-1.5,0-2.6-.4-3.5-.4-.8-2.2-1.6-3.2-1.7l-5,1.8v9.3c.5.5,2.5,1.4,4.1,1.6,1.3-.5,4.5-2.5,4.5-7.5h0Z"/>
      <path class="cls-5" d="M1186.2,794.8l2,.6v1.3c0,0-2.7,0-2.7,0h-3.8c0,0,0-1.2,0-1.2l2-.6v-20.4c-.4-.4-2.2-1.1-3.1-1.1-3.7,0-4.8,3.2-4.8,7l4.9-.3-.2,1.7h-4.8v13l2.8.6-.2,1.3h-3.6c0,0-.8,0-.8,0h-2.8c0,0-.2-1.2-.2-1.2l2.1-.6v-13.1h-2.1v-1.5h2.1c0-5.6,3.2-8.6,7.4-8.6s4.6.9,5.7,1.1v22l.2.2Z"/>
      <path class="cls-5" d="M1206.7,794.7l.3,1.3-3.9,1c-.6-.2-1.2-.8-1.4-1.2v-1.3l-5.9,2.5c-2.4-.9-3.4-2.4-3.4-4.3s.2-1.8.5-2.6l8.8-3v-3.2c-.5-.7-1.2-1.4-2.6-1.6l-3.3,1.3c0,.8.2,1.6.4,2.3l-1.9.6-1.2-3.5h0l7-2.8c1.4.3,3.8,1.5,4.3,3.3v10.4c0,.5,0,1,.4,1.2l2-.3h-.1ZM1196.8,794.7l4.9-1.9v-4.2l-6.5,2.3c-.2.3-.3.8-.3,1.4,0,1.7,1.3,2.2,1.9,2.5h0ZM1197,776.6h-1.4l-.5-2.3,1.4-.7h1.4l.5,2.3-1.4.7ZM1202,776.6h-1.4l-.5-2.3,1.4-.7h1.4l.5,2.3-1.4.7Z"/>
      <path class="cls-5" d="M1216.7,796.9c-4.9-.9-7.3-4.3-7.3-7.9,0-5.6,4.8-8.4,7.9-9.1l4.8,2.1-1.1,1.9-4.6-1.9c-1.4.8-4.4,2-4.4,7s2.6,5.5,5.5,6l4.3-1.3.4,1.2-5.6,2h0Z"/>
      <path class="cls-5" d="M1240.8,794.8l2.1.6-.2,1.3h-2.8c0,0-1.2,0-1.2,0h-2.5c0,0,0-1.2,0-1.2l2-.6v-10.4c0-1.1-1.6-2.2-2.6-2.2l-5,1.9v10.7l2,.6v1.3c0,0-2.6,0-2.6,0h-4c0,0-.2-1.2-.2-1.2l2.1-.6v-20.8h-2l-.3-1,3.7-1.3,1.1.4v10.5l6-2.6c1.4,0,4,1.8,4.2,3.3v11.5h.3Z"/>
      <path class="cls-5" d="M1258.6,793.7l.4,1.2-5.6,2c-3.2-.6-7.2-2.5-7.2-8.1s5.3-8.6,7.9-8.9c3.4,0,5.5,2.3,5.5,4.9s-.6,2.8-1.1,3.9h-9.7v.2c0,3.4,2.4,5.3,5.5,5.9l4.3-1.3v.2ZM1248.8,787.4l7.8-.2c.3-.7.5-1.4.5-2.1,0-1.4-.9-3.1-4-3.1-1.5.7-3.8,2.1-4.3,5.4h0Z"/>
    </g>
  </g>
  <g class="cls-8">
    <g class="cls-8">
      <path class="cls-4" d="M1170.8,1120.6c0,4.4-4.5,7.7-7.7,7.7h-10.5c0,0-.2-1.4-.2-1.4l2.6-.6v-19.3l-2.6-.6.2-1.5h3.2c0,0,9.1,0,9.1,0,2.8.9,4.7,2.1,4.7,4.9s-1.9,4.3-3.7,5.6c3.9.7,5,2.8,5,5.1h0ZM1163.6,1107h-5.6v8.2h5.3c1.5-1.1,3.4-3,3.4-4.9s-1.2-2.7-3-3.3h-.1ZM1162.3,1126.7c3.4-.4,5.6-3.4,5.6-5.8s-1.5-3.8-5.4-3.8h-4.5v8.7l4.3.8v.2h0Z"/>
      <path class="cls-4" d="M1178,1128.3h-2.8c0,0-.2-1.2-.2-1.2l2.1-.6v-12.4h-2.2l-.2-1.2,4-1.2,1,.4v14.5l2.1.6-.2,1.3h-2.8c0,0-1.1,0-1.1,0h.3ZM1179.5,1104.9l.5,2.6-1.5.8h-1.6l-.5-2.6,1.6-.8h1.5Z"/>
      <path class="cls-4" d="M1188.9,1128.3h-2.6c0,0-.2-1.2-.2-1.2l2-.6v-20.8h-2l-.3-1,3.7-1.3,1.1.4v22.7l2.1.6v1.3c0,0-2.9,0-2.9,0h-1.1.2Z"/>
      <path class="cls-4" d="M1212.4,1126.4l.3,1.3-3.9,1c-.6-.2-1.2-.8-1.4-1.2v-1.4l-5.8,2.6c-1.9-.4-3.9-1.6-4.7-2.5-.4-1.3-.7-2.7-.7-4.7,0-6.1,4-9.1,7.6-9.8,1.2,0,2.5.7,3.7,1.4v-1.6c0,0,0-5.7,0-5.7h-2l-.3-1,3.8-1.3,1.1.4v21.7c0,.5,0,1,.4,1.2l2-.3h0ZM1202.5,1126.4l4.9-1.8v-9.3h0c-.8-.6-2.5-1.6-4.1-1.6-1.2.2-4.4,1.8-4.4,7.3s0,2.6.4,3.7c.3.7,2.2,1.6,3.2,1.8h0Z"/>
    </g>
  </g>
  <g>
    <rect class="cls-4" x="1182.4" y="425.4" width="1.2" height="62.3"/>
    <polygon class="cls-4" points="1197.3 441.6 1183 426.3 1168.8 441.6 1168 440.8 1183 424.5 1198.1 440.8 1197.3 441.6"/>
  </g>
  <g class="cls-8">
    <g class="cls-8">
      <path class="cls-4" d="M303.8,788.9c0,4.4-4.5,7.7-7.7,7.7h-10.5c0,0-.2-1.4-.2-1.4l2.6-.6v-19.3l-2.6-.6.2-1.5h3.2c0,0,9.1,0,9.1,0,2.8.9,4.7,2.1,4.7,4.9s-1.9,4.3-3.7,5.6c3.9.7,5,2.8,5,5.1h-.1ZM296.5,775.3h-5.6v8.2h5.3c1.5-1.1,3.4-3,3.4-4.9s-1.2-2.7-3-3.3h0ZM295.3,795c3.4-.4,5.6-3.4,5.6-5.8s-1.5-3.8-5.4-3.8h-4.5v8.7l4.3.8v.2h0Z"/>
      <path class="cls-4" d="M310.9,796.6h-2.8c0,0-.2-1.2-.2-1.2l2.1-.6v-12.4h-2.2l-.2-1.2,4-1.2,1,.4v14.5l2.1.6-.2,1.3h-2.8c0,0-1.1,0-1.1,0h.3ZM312.4,773.2l.5,2.6-1.5.8h-1.6l-.5-2.6,1.6-.8h1.5Z"/>
      <path class="cls-4" d="M321.9,796.6h-2.6c0,0-.2-1.2-.2-1.2l2-.6v-20.8h-2l-.3-1,3.7-1.3,1.1.4v22.7l2.1.6v1.3c-.1,0-2.9,0-2.9,0h-1.1.2Z"/>
      <path class="cls-4" d="M345.3,794.6l.3,1.3-3.9,1c-.6-.2-1.2-.8-1.4-1.2v-1.4l-5.8,2.6c-1.9-.4-3.9-1.6-4.7-2.5-.4-1.3-.7-2.7-.7-4.7,0-6.1,4-9.1,7.6-9.8,1.2,0,2.5.7,3.7,1.4v-1.6c-.1,0-.1-5.7-.1-5.7h-2l-.3-1,3.8-1.3,1.1.4v21.7c0,.5,0,1,.4,1.2l2-.3h0ZM335.4,794.7l4.9-1.8v-9.3h0c-.8-.6-2.5-1.6-4.1-1.6-1.2.2-4.4,1.8-4.4,7.3s.1,2.6.4,3.7c.3.7,2.2,1.6,3.2,1.8h0Z"/>
    </g>
  </g>
  <rect class="cls-4" x="314.2" y="425.4" width="1.2" height="62.3"/>
  <polygon class="cls-4" points="300.5 441.6 299.7 440.8 314.8 424.5 329.8 440.8 329 441.6 314.8 426.3 300.5 441.6"/>
  <g class="cls-8">
    <g class="cls-8">
      <path class="cls-4" d="M565.5,1.7h12.8v5.6h-1.8l-.6-3.6-8.2-.2v9.9l2.1-.2h6.4l-.2,2h-6.3l-1.9-.2v8.2l3.5.6-.2,1.5h-4.3c0-.1-1.1-.1-1.1-.1h-3.2c0,.1-.2-1.4-.2-1.4l2.6-.6V3.7l-2.6-.6.2-1.5h3.2-.2Z"/>
      <path class="cls-4" d="M594.9,16.5c0,5-4.1,8.3-8,9.2-5-1-7.4-4.2-7.4-8.1s4.1-8.3,8-9.2c5,1,7.4,4.3,7.4,8.1ZM592.2,16.6c0-3-1.8-5.4-5.6-6.2-2.3,1.1-4.5,3.2-4.5,7s1.8,5.4,5.6,6.2c2.3-1.1,4.5-3.1,4.5-7Z"/>
      <path class="cls-4" d="M607.9,8.4c.9.1,1.7.5,2.1.9l-.4,2.5h-.4c-.8-.4-1.4-.6-2.1-.8l-3.9,2.1v10.4l2.8.6-.2,1.3h-7.2c0,.1-.2-1.2-.2-1.2l2.2-.6v-12.6h-2.2l-.2-1.2,4-1.3.9.4v2.7c0,0,4.9-3,4.9-3v-.2Z"/>
      <path class="cls-4" d="M636.2,23.5l2.2.6v1.3c0,0-2.9-.1-2.9-.1h-3.7c0,.1,0-1.2,0-1.2l1.9-.6v-10.5c0-1.1-1.6-2.2-2.6-2.2l-3.8,1.4v11.4l1.9.6v1.3c0,0-2.5-.1-2.5-.1h-3.9c0,.1,0-1.2,0-1.2l1.9-.6v-10.5c0-1.1-1.6-2.2-2.6-2.2l-3.8,1.4v11.4l1.9.6v1.3c0,0-2.5-.1-2.5-.1h-4.1c0,.1-.2-1.2-.2-1.2l2.2-.6v-12.6h-2.2l-.2-1.2,4-1.2.9.4v1.7l5-2.1c1.1,0,2.9,1.1,3.7,2.3l5.3-2.3c1.4,0,4,1.9,4.2,3.4v11.7-.3Z"/>
      <path class="cls-4" d="M664.1,22.3l.4,1.3-5.7,2.1c-3.2-.6-7.3-2.5-7.3-8.2s5.4-8.7,8-9.1c3.4,0,5.6,2.4,5.6,5s-.6,2.9-1.1,4h-9.8v.2c0,3.5,2.4,5.4,5.6,6l4.4-1.3h-.1ZM654.2,15.9l7.9-.2c.3-.7.5-1.4.5-2.1,0-1.4-1-3.2-4.1-3.2-1.6.7-3.8,2.1-4.4,5.5h0Z"/>
      <path class="cls-4" d="M671.1,25.3h-2.8c0,.1-.2-1.2-.2-1.2l2.2-.6v-12.6h-2.2l-.2-1.2,4.1-1.2,1,.4v14.7l2.2.6-.2,1.3h-2.8c0-.1-1.1-.1-1.1-.1h0ZM672.6,1.5l.5,2.6-1.6.8h-1.6l-.5-2.6,1.6-.8s1.6,0,1.6,0Z"/>
      <path class="cls-4" d="M694.3,23.5l2.2.6v1.3c0,0-2.9-.1-2.9-.1h-3.8c0,.1,0-1.2,0-1.2l2-.6v-10.5c0-1.1-1.6-2.2-2.6-2.2l-5.1,1.8v10.9l2,.6v1.3c0,0-2.6-.1-2.6-.1h-4.1c0,.1-.2-1.2-.2-1.2l2.2-.6v-12.6h-2.2l-.2-1.2,4-1.3.9.4v2.3c0,0,6.3-2.6,6.3-2.6,1.4,0,4,1.9,4.2,3.4v11.7h0Z"/>
      <path class="cls-4" d="M712,22.3l.4,1.3-5.7,2.1c-3.2-.6-7.3-2.5-7.3-8.2s5.4-8.7,8-9.1c3.4,0,5.6,2.4,5.6,5s-.6,2.9-1.1,4h-9.8v.2c0,3.5,2.4,5.4,5.6,6l4.4-1.3h-.1ZM702.1,15.9l7.9-.2c.3-.7.5-1.4.5-2.1,0-1.4-1-3.2-4.1-3.2-1.6.7-3.8,2.1-4.4,5.5h0Z"/>
      <path class="cls-4" d="M715.3,23.8l1-1.9,3.6,1.7c2.3,0,4.1-1.3,4.1-2.7s-1-2-2.9-2.7l-1-.5c-2.1-.9-3.9-1.9-3.9-4.4s3.3-5,6.4-5l3.9,1.7-1.1,1.9-3.5-1.6c-1.2,0-3.1,1.2-3.1,2.8s.8,1.8,2.7,2.6l.9.4c2.3,1,4.2,2.3,4.2,4.2s-3,5.3-7.3,5.3l-4-1.8h0Z"/>
      <path class="cls-4" d="M762.2,3.7v19.6l2.6.6-.2,1.5h-3.2c0-.1-1.4-.1-1.4-.1h-3.2c0,.1-.2-1.4-.2-1.4l2.6-.6v-9h-2.1c0,.1-8.3.1-8.3.1h-2.5c0-.1,0,8.9,0,8.9l2.6.6-.2,1.5h-3.2c0-.1-1.4-.1-1.4-.1h-3.2c0,.1-.2-1.4-.2-1.4l2.6-.6V3.7l-2.6-.6.2-1.5h3.2c0,.1,1.4.1,1.4.1h3.2c0-.1.2,1.4.2,1.4l-2.6.6v8.9h2.5c0-.1,8.3-.1,8.3-.1h2.1V3.7l-2.6-.6.2-1.5h3.2c0,.1,1.4.1,1.4.1h3.2c0-.1.2,1.4.2,1.4,0,0-2.6.6-2.6.6Z"/>
      <path class="cls-4" d="M783.9,16.5c0,5-4.1,8.3-8,9.2-5-1-7.4-4.2-7.4-8.1s4.1-8.3,8-9.2c5,1,7.4,4.3,7.4,8.1ZM781.2,16.6c0-3-1.8-5.4-5.6-6.2-2.3,1.1-4.5,3.2-4.5,7s1.8,5.4,5.6,6.2c2.3-1.1,4.5-3.1,4.5-7Z"/>
      <path class="cls-4" d="M793.6,25.7c-5-.9-7.4-4.3-7.4-8.1,0-5.7,4.9-8.5,8-9.2l4.9,2.1-1.1,1.9-4.6-2c-1.4.8-4.5,2-4.5,7.1s2.7,5.6,5.6,6.1l4.4-1.3.4,1.3-5.7,2.1h0Z"/>
      <path class="cls-4" d="M817.7,23.5l2.2.6-.2,1.3h-2.8c0-.1-1.3-.1-1.3-.1h-2.5c0,.1,0-1.2,0-1.2l2-.6v-10.5c0-1.1-1.6-2.2-2.6-2.2l-5.1,1.9v10.9l2,.6v1.3c0,0-2.6-.1-2.6-.1h-4c0,.1-.2-1.2-.2-1.2l2.2-.6V2.4h-2l-.3-1L806.2,0l1.1.4v10.6l6.1-2.6c1.4,0,4,1.9,4.2,3.4v11.7h0Z"/>
      <path class="cls-4" d="M838.8,15.7c0,5.8-4.2,8.9-7.7,9.9-1.2-.1-2.5-.7-3.6-1.4v7.3l2.8.6-.2,1.3h-3.6c0,0-.8,0-.8,0h-2.8c0,0-.2-1.2-.2-1.2l2.2-.6V10.9h-2.2l-.2-1.2,4-1.3.9.4v2.3c0,0,6.3-2.6,6.3-2.6,1.7.4,3.8,1.6,4.6,2.7.4,1.2.6,2.6.6,4.6h0ZM836.2,16.2c0-1.8,0-2.6-.4-3.6-.4-.8-2.2-1.8-3.2-1.9l-5.1,1.8v9.5h0c.9.7,2.4,1.4,4.1,1.6,1.2-.5,4.6-2.6,4.6-7.4h0Z"/>
      <path class="cls-4" d="M845,25.3h-2.7c0,.1-.2-1.2-.2-1.2l2.1-.6V2.4h-2l-.3-1L845.7,0l1.1.4v23.1l2.2.6v1.3c0,0-2.9-.1-2.9-.1h-1.1,0Z"/>
      <path class="cls-4" d="M867.6,23.3l.3,1.3-4,1c-.6-.2-1.2-.8-1.4-1.2v-1.3l-6,2.5c-2.4-.9-3.4-2.5-3.4-4.3s.2-1.8.5-2.7l8.9-3v-3.3c-.5-.7-1.2-1.4-2.7-1.6l-3.3,1.3c0,.8.2,1.6.4,2.4l-1.9.6-1.2-3.6h0l7.1-2.8c1.5.3,3.9,1.6,4.4,3.3v10.6c0,.5,0,1,.4,1.2l2-.3h0ZM857.5,23.4l4.9-1.9v-4.3l-6.6,2.3c-.2.3-.3.8-.3,1.4,0,1.7,1.4,2.3,1.9,2.5h0Z"/>
      <path class="cls-4" d="M872.2,10.2h-2.2v-1.3l2.4-.2,1-4.4h1.5v4.4l5.2-.3-.2,1.8h-5v11.3c.4.9.9,1.5,2.6,2.1l3.2-.9.4,1.3-4.6,1.6c-2.1-.2-4-2.3-4.2-3.3v-12.1h-.1Z"/>
      <path class="cls-4" d="M895.6,22.3l.4,1.3-5.7,2.1c-3.2-.6-7.3-2.5-7.3-8.2s5.4-8.7,8-9.1c3.4,0,5.6,2.4,5.6,5s-.6,2.9-1.1,4h-9.8v.2c0,3.5,2.4,5.4,5.6,6l4.4-1.3h-.1ZM885.8,15.9l7.9-.2c.3-.7.5-1.4.5-2.1,0-1.4-1-3.2-4-3.2-1.6.7-3.8,2.1-4.4,5.5Z"/>
      <path class="cls-4" d="M914.2,23.3l.3,1.3-4,1c-.6-.2-1.2-.8-1.4-1.2v-1.3l-6,2.5c-2.4-.9-3.4-2.5-3.4-4.3s.2-1.8.5-2.7l8.9-3v-3.3c-.5-.7-1.2-1.4-2.7-1.6l-3.3,1.3c0,.8.2,1.6.4,2.4l-1.9.6-1.2-3.6h0l7.1-2.8c1.5.3,3.9,1.6,4.4,3.3v10.6c0,.5,0,1,.4,1.2l2-.3h0ZM904.2,23.4l4.9-1.9v-4.3l-6.6,2.3c-.2.3-.3.8-.3,1.4,0,1.7,1.4,2.3,1.9,2.5h0Z"/>
      <path class="cls-4" d="M934.1,23.3l.3,1.3-3.9,1c-.6-.2-1.2-.8-1.5-1.2v-1.4l-6.1,2.6c-1.4,0-4-1.9-4.2-3.4v-11.4h-2.2l-.2-1.2,4.1-1.3,1,.4v12.4c0,1.1,1.6,2.2,2.6,2.2l5-1.9v-10.6h-2.2l-.2-1.2,4.1-1.3,1,.4v13.7c0,.5,0,1,.4,1.2l2-.3h0Z"/>
      <path class="cls-4" d="M936.9,23.8l1-1.9,3.6,1.7c2.3,0,4.1-1.3,4.1-2.7s-1-2-2.9-2.7l-1-.5c-2.1-.9-3.9-1.9-3.9-4.4s3.3-5,6.4-5l3.9,1.7-1.1,1.9-3.5-1.6c-1.2,0-3.1,1.2-3.1,2.8s.8,1.8,2.7,2.6l.9.4c2.3,1,4.2,2.3,4.2,4.2s-3,5.3-7.3,5.3l-4-1.8h0Z"/>
    </g>
  </g>
  <polygon class="cls-4" points="1246.3 215.2 1122.8 215.2 1122.8 94.9 387.6 94.9 387.6 215.2 264.6 215.2 264.6 213.2 385.6 213.2 385.6 92.9 1124.7 92.9 1124.7 213.2 1246.3 213.2 1246.3 215.2"/>
</svg>