<?xml version="1.0" encoding="UTF-8"?>
<svg id="uuid-3e0d7b96-6aa4-4ce2-acde-224d29607927" data-name="Ebene 1" xmlns="http://www.w3.org/2000/svg" viewBox="0 0 1600 474.68">
  <defs>
    <style>
      .uuid-6fe4a9c9-06e0-4b67-b49b-ff3c6cd302fb {
        fill: #9dbad7;
      }

      .uuid-6fe4a9c9-06e0-4b67-b49b-ff3c6cd302fb, .uuid-56d627c0-8908-4454-abd8-d30f0469067b, .uuid-ea98ac22-10d2-48c4-a20c-ec88870fe574 {
        stroke-width: 0px;
      }

      .uuid-56d627c0-8908-4454-abd8-d30f0469067b {
        fill: #005587;
      }

      .uuid-ea98ac22-10d2-48c4-a20c-ec88870fe574 {
        fill: #fff;
      }
    </style>
  </defs>
  <g>
    <circle class="uuid-ea98ac22-10d2-48c4-a20c-ec88870fe574" cx="802.16" cy="365.13" r="79.67"/>
    <path class="uuid-56d627c0-8908-4454-abd8-d30f0469067b" d="M808.29,405.99v.15c0,.2,0,.39-.02.58-.39,7.6-8.52,13.68-18.48,13.68s-18.52-6.39-18.52-14.26,8.29-14.25,18.52-14.25c2.94,0,5.7.52,8.17,1.47,6.06,2.3,10.26,7.09,10.34,12.64Z"/>
    <path class="uuid-6fe4a9c9-06e0-4b67-b49b-ff3c6cd302fb" d="M831.11,335.67c-1.31-1.32-2.86-23.85-2.8-24.89,0-.43-.91-.58-2.21-.35-6.64,1.16-27.95,8.09-28.67,8.89-.46.5-.26,16.83-.05,28.72l.03,24.18c.05,2.99.11,5.62.15,7.55,1.36.17,2.66.43,3.89.77,4,1.1,7.15,3.01,8.78,5.35-.44-1.96-.75-8.23-.89-13.67l-.03-24.18c-.09-4.2-.08-7.59.06-7.54.65.27,1.49.07,2.4-.09,7.4-.93,12.99-1.79,18.7-2.92.91-.19,1.4-.95.65-1.82Z"/>
  </g>
  <g>
    <circle class="uuid-ea98ac22-10d2-48c4-a20c-ec88870fe574" cx="112.22" cy="364.8" r="79.29"/>
    <path class="uuid-56d627c0-8908-4454-abd8-d30f0469067b" d="M137.94,323.16c-2.1,4.63-9.89,6.48-13.78,5.62-6.53-1.68-7.74-10.08-5.26-15.97,2.1-4.63,9.88-6.48,13.77-5.62,6.53,1.68,7.74,10.08,5.27,15.97Z"/>
    <path class="uuid-56d627c0-8908-4454-abd8-d30f0469067b" d="M136.74,353.75s-3.15-9.51-5.42-15.47c-.67-1.77-2.03-3.2-3.76-3.96-1.34-.58-2.38-.97-2.65-1.06l-13.96-5.21c-1.6-.6-3.33-.76-5.01-.46l-35.45,6.28c-1.55.27-2.94,1.09-3.94,2.31-.94,1.15-.81,2.89.3,3.87l1.42,1.25c1.49,1.31,3.5,1.88,5.45,1.54l31.16-5.38-5.91,21.08c-2.84,7.09-1.65,15.51,4.08,19.54l17.43,12.24-.49,28.52c-.16,3.49,2.56,6.48,6.05,6.64,1.85.09,4.01-8.46,5.59-16.68l3.56-19.79c.01-.72-.06-1.43-.2-2.12.04,0-1.86-4.79-4.04-6.34l-12.7-8.87,6.79-21.35s.03-.09.04-.14l3.88,8.73c1.86,3.53,4.23,3.72,7.78,3.89,0,0,20.83-.04,20.74-3.89-.1-3.85-20.74-5.18-20.74-5.18Z"/>
    <path class="uuid-56d627c0-8908-4454-abd8-d30f0469067b" d="M88.91,373.89l-16.2,15.46s-7.22,8.27-6.83,9.81c.38.49,2.56,2.17,3.01,2.51,1.53,1.14,8.6-3.45,15.29-8.51-.01-.02,6.03-4.38,7.76-5.6.57-.41,1.39-.99,2.31-1.64-3.41-2.74-5.21-7.25-5.33-12.03Z"/>
    <path class="uuid-6fe4a9c9-06e0-4b67-b49b-ff3c6cd302fb" d="M77.58,406.77c-2.58-3.1-6.01-7.52-9.05-11.62-3.87-5.48-8.35-11.86-8.86-12.61-.18-.25-.45-.19-.65.16-1.37,2.31-2.58,5.28-2.59,5.99,0,.7,17.16,23.95,17.16,23.95,2.18,2.95,3.35,3.63,4.23,3.79.26.05.49-.07.63-.31,1.31-1.76-.86-9.35-.86-9.35ZM67.63,393.93c-1.62-2.2-3.08-4.25-4.18-5.89l4.18,5.89Z"/>
    <path class="uuid-6fe4a9c9-06e0-4b67-b49b-ff3c6cd302fb" d="M134.85,422.16c-3.56.03-8.5-.1-12.99-.31-5.9-.42-12.76-.92-13.56-1-.27-.02-.39.2-.26.53.81,2.23,2.17,4.72,2.64,5.11.48.4,25.95,1.67,25.95,1.67,3.23.16,4.35-.26,4.95-.77.18-.15.22-.37.14-.61-.47-1.88-6.87-4.63-6.87-4.63ZM120.53,421.78c-2.41-.13-4.63-.27-6.36-.43l6.36.43Z"/>
  </g>
  <g>
    <circle class="uuid-ea98ac22-10d2-48c4-a20c-ec88870fe574" cx="1262.12" cy="362.66" r="79.63"/>
    <path class="uuid-56d627c0-8908-4454-abd8-d30f0469067b" d="M1277.82,314.49c-1.68,4.38-8.74,6.54-12.38,5.96-6.12-1.17-7.71-8.85-5.76-14.41,1.67-4.39,8.74-6.54,12.37-5.96,6.12,1.17,7.71,8.85,5.76,14.41Z"/>
    <path class="uuid-6fe4a9c9-06e0-4b67-b49b-ff3c6cd302fb" d="M1223.87,409.67c1.05-1.46,2.33-2.75,3.85-3.72.35-.22.83-.44,2.6-1.33,1.52-.76,8.56-2.33,10.24-2.58,1.3-.19,2.62.09,3.88.45,6.92,1.98,13.68,6.55,20.69,4.92,8.88-2.06,13.5-13.17,22.44-14.96,1.73-.35,3.6-.33,5.13-1.23,2.1-1.23,2.93-3.78,3.95-5.99,3.98-8.62,10.13-7.96,16.33-8.93,1.48-.23,2.84.88,2.94,2.38.66,9.67-.23,11.39-5.79,21.27-3.54,6.29-7.34,12.86-13.52,16.61-5.11,3.11-11.25,3.91-17.2,4.58-19.27,2.17-39.92,3.41-56.95-5.76-.48-.26-.85-.7-.98-1.23-.05-.2-.04-.33.05-.58.26-.81.66-1.56,1.16-2.25l1.18-1.65Z"/>
    <path class="uuid-56d627c0-8908-4454-abd8-d30f0469067b" d="M1251.26,380.66l-4.3-2.45c-2.28-1.58-4.23-3.48-5.73-5.73l-13.04,25.88s-3.65,9.24-2.84,10.44c.47.3,2.84,1.08,3.33,1.23,1.65.51,6.29-5.55,10.45-11.9-.02-.02-.02-.04-.04-.06.91-1.3,3.85-5.5,4.95-7.07,1.81-2.58,7.23-10.33,7.23-10.33Z"/>
    <path class="uuid-56d627c0-8908-4454-abd8-d30f0469067b" d="M1281.77,344.25l-5.3-10.39c-.5-.92-2.92-3.54-4.08-4.78-.41-.44-.87-.82-1.4-1.11-1.31-.71-2.7-1.27-4.14-1.64l-14.38-4.27h-.02c-1.19-.29-2.43-.21-3.57.23l-13.17,5.11c-3.56.97-5.52,2.45-6.84,6.4,0,0-6.59,14.49-1.86,15.96,4.44,1.38,9.77-13.33,9.77-13.33l11.11-3.55c.45-.12.87-.29,1.31-.44l-4.65,20.6c-2.54,5.97-.28,12.91,5.3,16.22l17.16,10.13-6.52,24.23c-1,3,.64,6.27,3.65,7.27,1.59.53,9.04-15.3,9.04-15.3l6.98-15.04c1.19-4.22-.6-8.72-4.36-10.98l-12.36-7.29,5.35-22.73,4.25,7.21c1.53,3.36,3.31,5.05,7.42,5.71,0,0,15.37,4.16,16.05-.74.64-4.6-14.73-7.48-14.73-7.48Z"/>
  </g>
  <g>
    <circle class="uuid-ea98ac22-10d2-48c4-a20c-ec88870fe574" cx="1032.14" cy="364.92" r="79.87"/>
    <path class="uuid-56d627c0-8908-4454-abd8-d30f0469067b" d="M1044.67,317.64c-.65,5.04-7.55,9.1-11.53,9.41-6.74.31-10.36-7.37-9.72-13.72.65-5.05,7.55-9.1,11.52-9.41,6.74-.31,10.36,7.37,9.72,13.72Z"/>
    <path class="uuid-6fe4a9c9-06e0-4b67-b49b-ff3c6cd302fb" d="M1066.09,349.76c-.18,17.29.48,55.65,1.25,58.36.13.4.06.79-.16,1.07-1.41,1.64-2.79,2.88-4.62,4.23-.22.23-.45.17-.61-.23-.55-1.3-1.03-3.78-1.09-11.18,0,0-.46-58.27-.1-59.42.36-1.15,2.73-4.62,4.88-6.82.32-.34.55-.11.55.51-.03,3.05-.1,44.34-.1,50.38v-36.91Z"/>
    <path class="uuid-56d627c0-8908-4454-abd8-d30f0469067b" d="M1001.75,423.5c.63.17,3.53.21,4.13.21,3.42,0,10.89-28.28,10.89-28.28l-11.79-8.81s-6.71,34.2-3.22,36.88ZM1060.7,349.09l-12.18,1.52-11.02-14.17c-2.64-2.65-6.16-4.1-9.9-4.1-6.42,0-11.99,4.34-13.35,10.59l-6.62,25.65c-.64,2.57-.62,7.54,1.28,9.45l24.37,16.75-3.04,21.32c0,4.19,3.42,7.61,7.4,7.61s7.61-27.31,7.61-27.31c.21-6.2-1.58-7.88-4.46-10.77l-11.15-11.16c.06-.12.12-.21.15-.33l4.54-18.92,5.32,5.33c1.86,1.42,3.78,2.23,5.81,2.23,0,0,24.37-6.46,24.37-10.66s-4.93-3.05-9.14-3.05Z"/>
    <path class="uuid-6fe4a9c9-06e0-4b67-b49b-ff3c6cd302fb" d="M998.29,369.41c-.14-7.25,5.8-23.53,10.45-34.14.22-.59-.04-.96-.7-.91-3.55.55-20.77-1.68-30.91,15.76-3.42,5.88-2.68,13.58,2.12,15.91,1.34.65,4.78,2.24,7.28,3.34,1.83.8,3.8,1.22,5.8,1.2,1.77-.01,3.62-.13,5.25-.37.46-.03.73-.34.7-.8h0Z"/>
  </g>
  <g>
    <circle class="uuid-ea98ac22-10d2-48c4-a20c-ec88870fe574" cx="1030.6" cy="105.9" r="81.73"/>
    <path class="uuid-56d627c0-8908-4454-abd8-d30f0469067b" d="M1016.22,99.78c-.4,16.53,1.05,53.19,2.73,55.78.28.38.14.76-.35,1.02-3.08,1.56-6.09,2.75-10.08,4.05-.49.22-.98.16-1.33-.22-1.19-1.24-2.24-3.61-2.38-10.68,0,0-1-55.69-.21-56.79.79-1.1,5.95-4.42,10.64-6.52.7-.32,1.19-.11,1.19.49-.07,2.91-.21,42.38-.21,48.15v-35.28Z"/>
    <path class="uuid-56d627c0-8908-4454-abd8-d30f0469067b" d="M1023.26,51.42c-2.44,0-4.43,1.98-4.43,4.42v20.28c0,.31-.25.56-.56.56h-3.56c-.29,0-.54-.22-.56-.51-.59-7.11-2.24-24.76-4.2-24.76-2.44,0-4.43,1.98-4.43,4.42v20.28c0,.31-.25.56-.56.56h-4.51c-.29,0-.54-.22-.56-.51-.59-7.11-2.24-24.76-4.2-24.76-2.44,0-4.43,1.98-4.43,4.42v18.49c0,2.05.26,4.09.79,6.07,1.61,6.03,6.13,17.3,17.46,17.58,10.75.27,15.24-10.12,16.98-16.48.73-2.67.95-5.44.7-8.19-.73-8.11-2.22-21.88-3.95-21.88Z"/>
    <path class="uuid-56d627c0-8908-4454-abd8-d30f0469067b" d="M1066.07,156.84c-1.09-1.67-2.08-17.6-2.53-33.11l-.04-37.58c-.04-1.44-.07-2.87-.1-4.28.05-12.93.11-27.95.16-29.71,0-.59-.49-.81-1.19-.49-2.09.94-10.41,5.57-15.65,9.11-2.65,1.79-4.82,4.18-6.37,6.98-3.29,5.95-7.97,17.8-3.63,31.91,3.67,11.94,10.11,16.46,14.81,18.15v5.2c.15,14.06.4,27.99.4,27.99.14,7.07,1.19,9.44,2.38,10.68.35.38.84.43,1.33.22,3.99-1.29,7-2.48,10.08-4.05.49-.27.63-.65.35-1.02ZM1063.33,78.95c-.08-5.26-.09-10.12,0-13.92v13.92Z"/>
  </g>
  <g>
    <circle class="uuid-ea98ac22-10d2-48c4-a20c-ec88870fe574" cx="801.76" cy="104.75" r="81.74"/>
    <path class="uuid-56d627c0-8908-4454-abd8-d30f0469067b" d="M824.36,82.7l-14.94-13.32c-2.55-2.05-6.2-2-8.67.13l-23.84,20.43c-1.63,1.42-2.5,3.46-2.37,5.59.11,2.13,1.22,4.07,3.01,5.27l17.41,11.59v23.61c0,3.75,3.06,6.81,6.81,6.81s6.81-34.06,6.81-34.06c0-2.29-1.14-4.39-3.03-5.67l-8.8-5.87,12.98-11.86,9.31,7.98c1.19.96,16.78,1.79,16.78,1.79,3.75,0,6.81-3.06,6.81-6.81s-18.27-5.63-18.27-5.63Z"/>
    <path class="uuid-56d627c0-8908-4454-abd8-d30f0469067b" d="M831.51,63.5c-1.95,4.47-9.39,6.38-13.13,5.61-6.29-1.51-7.58-9.55-5.3-15.24,1.94-4.48,9.38-6.38,13.13-5.61,6.29,1.51,7.59,9.55,5.3,15.24Z"/>
    <path class="uuid-6fe4a9c9-06e0-4b67-b49b-ff3c6cd302fb" d="M781.7,127.52c-.36,9.17-12.11,17.58-19.2,18.78-12.06,1.65-19.81-11.58-19.68-23.1.35-9.18,12.1-17.57,19.2-18.78,12.06-1.65,19.82,11.58,19.69,23.1Z"/>
    <path class="uuid-6fe4a9c9-06e0-4b67-b49b-ff3c6cd302fb" d="M860.98,124.56c-.36,9.05-11.95,17.35-18.95,18.54-11.91,1.63-19.55-11.43-19.43-22.8.35-9.06,11.94-17.34,18.95-18.54,11.91-1.63,19.56,11.43,19.43,22.8Z"/>
  </g>
  <g>
    <circle class="uuid-ea98ac22-10d2-48c4-a20c-ec88870fe574" cx="344.08" cy="105.41" r="82.29"/>
    <path class="uuid-6fe4a9c9-06e0-4b67-b49b-ff3c6cd302fb" d="M404.69,129.6c.24,2.73.01,5.45-.82,5.87-1.91.92-6.29,2.89-7.28,1.58l-1.33-3.2c-.39-.6-.49-1.77-1.68-1.77,0,0-3.38.99-3.46,1.56-.43,2.77-.17,5.73-.9,5.92-1.61.35-7.13,2.34-7.58.81l-1.12-3.83c-.18-.82-2.47-.88-2.47-.88-.72.07-2.02.35-2.15,1.07-.4,2.11-.23,3.63-.23,4.83,0,1.65-9.11,1.53-9.55,0l-.25-4.3c-.17-.76-.83-1.3-1.59-1.3,0,0-1.26-.17-2.72,0-.45.05-.84.35-.98.79-.57,1.74-1.91,6.08-2.36,6.19-1.61.35-8.37.15-8.82-1.38v-5.65s-14.2-1.29-14.2-1.29c-.62,2.39-1.34,8.02-2.53,8.13-1.65.11-6.46-1.06-6.68-2.64l.08-4.23c-.05-.65-.24-2.35-.87-2.46l-2.63-.62c-.67-.11-1.32.29-1.54.94-.73,2.17-1.24,6.26-1.86,6.32-1.65.11-6.46-1.05-6.68-2.63l-.19-4.77c-.05-.65-.53-1.19-1.17-1.29,0,0-1.2-.39-1.83-.49-.67-.11-1.32.29-1.54.95-.73,2.19-1.56,6.4-2.18,6.46-1.65.11-7.65-1.05-7.88-2.63l-.44-5.89c-.11-1.52-.17-3.04-.17-4.56v-3.1l7.68,1.01c1.27.24,2.55.41,3.84.5l29.87,3.91c2.92.5,6.06,1.07,9.43,1.71,11.63,2.2,22.29,1.98,31.1.84.78-.06,1.56-.17,2.32-.33,9.59-1.48,16.7-3.97,20.06-5.32.95-.38,1.71-1.13,2.21-1.35,0,0,.21,1.37.25,1.6l.84,4.9Z"/>
    <path class="uuid-56d627c0-8908-4454-abd8-d30f0469067b" d="M342.09,75.29s-10.66,2.59-11.48,1.37c-.9-1.42-.49-3.08.79-4.03l7.34-4.76q-1.21-2.17-3.67-2.34h-35.24c-2.25.34-2.82,1.8-2.82,4.07v43.53c0,1.08.7,2.03,1.74,2.35l1.58.48c2.46.76,4.99,1.21,7.56,1.37,5.39.33,17.37,1.48,38.82,5.47,25.71,4.78,46.62-2.12,53.19-4.69,1.39-.54,2.35-1.86,2.39-3.35.35-11.97-12.54-13.77-12.54-13.77l-35.97-1.95-2.84-4.41c-.33.08-10.59,2.55-11.39,1.36-.9-1.42-.49-3.08.79-4.03l7.44-4.34-1.35-3.07c-.65.17-10.49,2.66-11.28,1.48-.9-1.42-.49-3.08.79-4.03l6.92-4.48-.76-2.22Z"/>
  </g>
  <g>
    <circle class="uuid-ea98ac22-10d2-48c4-a20c-ec88870fe574" cx="115.23" cy="106.27" r="81.38"/>
    <path class="uuid-56d627c0-8908-4454-abd8-d30f0469067b" d="M71.28,113.43c-3.17-.84-6.41,1.01-7.27,4.17-.86,3.16,9.18,8.62,9.18,8.62l14.34-8.37-16.25-4.41ZM79.31,63.22c-2.93.83-2.67,12.23-2.67,12.23l14.5,8.46-4.36-16.49c-1.06-3.15-4.07-5.05-7.47-4.2ZM68.29,99.31c.51,0,1.03-.07,1.55-.21l16.25-4.4-14.34-8.36s-10.03,5.45-9.18,8.6c.71,2.64,3.1,4.36,5.71,4.36ZM75.31,142.09c-.84,3.16,1.05,6.4,4.21,7.23.51.14,1.02.2,1.52.2,2.62,0,10.1-20.9,10.1-20.9l-14.5,8.46-1.32,5ZM160.62,101.98c.52.14,1.04.21,1.55.21,2.61,0,5-1.73,5.71-4.37.86-3.15-9.18-8.62-9.18-8.62l-14.56,8.36,16.47,4.41ZM153.72,73.32c.84-3.16-1.05-6.4-4.21-7.23-3.16-.86-11.62,20.7-11.62,20.7l14.5-8.46,1.33-5ZM152.39,132.56l-14.21-6.21,4.08,14.25c.7,2.65,3.1,4.4,5.72,4.4.5,0,1.01-.06,1.52-.2,3.16-.83,2.89-12.24,2.89-12.24ZM144.15,114.97l14.35,8.37,5.01-1.36c3.16-.86,5.02-4.11,4.16-7.26-.64-3.16-23.52.25-23.52.25ZM118.1,59.75v16.83l11.93-12.05c2.3-2.33,2.28-6.07-.05-8.37-2.34-2.31-11.88,3.59-11.88,3.59ZM119.53,137.83l-1.43,16.39s10.72,4.74,11.88,3.6c2.33-2.3,2.35-6.04.05-8.37l-10.49-11.62ZM94.03,54.73c-2.33,2.3,11.88,20.42,11.88,20.42v-16.83l-3.5-3.54c-2.32-2.32-6.07-2.35-8.38-.05ZM94.03,157.82c2.33,2.3,6.08,2.28,8.38-.05l3.51-3.54v-16.83s-14.22,18.13-11.88,20.42Z"/>
    <path class="uuid-6fe4a9c9-06e0-4b67-b49b-ff3c6cd302fb" d="M168.88,137.86c-1.45,2.51-46.25-17.85-46.25-17.85,0,0-3.54,49.38-7.9,49.38s-7.9-3.53-7.9-7.89v-41.49l-35.45,20.68c-1.24.74-2.61,1.09-3.96,1.09-2.71,0-5.36-1.4-6.83-3.92-2.2-3.76,38.49-31.59,38.49-31.59,0,0-40.69-27.84-38.49-31.6,2.19-3.77,7.03-5.04,10.8-2.84l35.23,20.7v-41.49c0-4.36,3.54-7.89,7.9-7.89s7.9,49.38,7.9,49.38c0,0,44.06-21.61,46.25-17.85,2.2,3.76.93,8.59-2.84,10.79l-35.45,20.79,35.65,20.8c3.77,2.2,5.03,7.03,2.84,10.78Z"/>
  </g>
  <g>
    <circle class="uuid-ea98ac22-10d2-48c4-a20c-ec88870fe574" cx="1488.29" cy="104.61" r="81.74"/>
    <path class="uuid-56d627c0-8908-4454-abd8-d30f0469067b" d="M1539.72,126.92l-9.73-36.09c-1.19-4.4-5-7.44-9.5-7.44h-13.31c-4.32,0-8.12,3.04-9.31,7.44l-9.73,36.09c-.41,2.18,1.14,4.36,3.28,4.36h45.18c2.14,0,3.69-2.18,3.11-4.36Z"/>
    <path class="uuid-56d627c0-8908-4454-abd8-d30f0469067b" d="M1469.84,65.3c.18,5.21-6.12,10.48-10.09,11.46-6.77,1.45-11.72-5.72-12.14-12.26-.19-5.22,6.11-10.48,10.08-11.46,6.77-1.45,11.73,5.72,12.14,12.26Z"/>
    <path class="uuid-56d627c0-8908-4454-abd8-d30f0469067b" d="M1525.06,65.62c.18,5.21-6.12,10.48-10.09,11.46-6.77,1.45-11.72-5.72-12.14-12.26-.19-5.22,6.11-10.48,10.08-11.46,6.77-1.45,11.73,5.72,12.14,12.26Z"/>
    <path class="uuid-56d627c0-8908-4454-abd8-d30f0469067b" d="M1445.3,84.58h23.82c4.3,0,7.79,3.49,7.79,7.79v28.55c0,2.56-2.08,4.64-4.64,4.64h-30.13c-2.56,0-4.64-2.08-4.64-4.64v-28.55c0-4.3,3.49-7.79,7.79-7.79Z"/>
    <path class="uuid-56d627c0-8908-4454-abd8-d30f0469067b" d="M1446.96,103.49h22.06v52.25c0,1.61-1.31,2.91-2.91,2.91h-16.24c-1.61,0-2.91-1.31-2.91-2.91v-52.25h0Z"/>
    <path class="uuid-56d627c0-8908-4454-abd8-d30f0469067b" d="M1502.12,103.49h22.06v52.25c0,1.61-1.31,2.91-2.91,2.91h-16.24c-1.61,0-2.91-1.31-2.91-2.91v-52.25h0Z"/>
  </g>
  <g>
    <circle class="uuid-ea98ac22-10d2-48c4-a20c-ec88870fe574" cx="1259.45" cy="105.3" r="82.29"/>
    <path class="uuid-56d627c0-8908-4454-abd8-d30f0469067b" d="M1307.47,142.5c-.85-4.51-4.32-8.07-8.82-9.07l-27.49-7.45c-1.14-8.52-2.08-27.73-2.44-44.72.06-16.27.15-35.18.2-37.38,0-.75-.62-1.02-1.51-.61-5.94,2.65-12.47,6.82-13.47,8.21-1,1.38.27,71.47.27,71.47.01.6.03,1.18.05,1.73l-8.33,2.68-25.7,6.17c-1.51.36-2.69,1.51-3.1,3-1.06,3.93-2.95,11.35-2.24,12.06,6.29,2.35,12.81,4.07,19.47,4.96,36.02,4.8,74.61-3.03,74.61-3.03l-1.51-8ZM1268.65,60.09v17.52c-.11-6.62-.12-12.74,0-17.52Z"/>
    <path class="uuid-6fe4a9c9-06e0-4b67-b49b-ff3c6cd302fb" d="M1222.65,84.77c-8.45-.63-27.26-1.06-28.62-.43-.2.11-.39.04-.52-.17-.73-1.33-1.27-2.61-1.84-4.31-.1-.21-.06-.41.14-.55.66-.46,1.9-.83,5.52-.69,0,0,28.31.8,28.85,1.16.55.36,2.36,2.95,3.33,4.96.15.3.03.5-.28.48-1.49-.11-21.7-1.28-24.65-1.44l18.06.99Z"/>
    <path class="uuid-6fe4a9c9-06e0-4b67-b49b-ff3c6cd302fb" d="M1237.16,98.77c-8.45-.63-27.26-1.06-28.62-.43-.2.11-.39.04-.52-.17-.73-1.33-1.27-2.61-1.84-4.31-.1-.21-.06-.41.14-.55.66-.46,1.9-.83,5.52-.69,0,0,28.31.8,28.85,1.16.55.36,2.36,2.95,3.33,4.96.15.3.03.5-.28.48-1.49-.11-21.7-1.28-24.65-1.44l18.06.99Z"/>
  </g>
  <g>
    <circle class="uuid-ea98ac22-10d2-48c4-a20c-ec88870fe574" cx="587.84" cy="103.12" r="82.29"/>
    <path class="uuid-56d627c0-8908-4454-abd8-d30f0469067b" d="M625.06,72.88c-3.94,4.42-13.25,3.8-17.29,1.49-6.69-4.13-5.13-13.9-.33-19.6,3.94-4.43,13.25-3.8,17.28-1.49,6.69,4.13,5.13,13.91.34,19.6Z"/>
    <path class="uuid-6fe4a9c9-06e0-4b67-b49b-ff3c6cd302fb" d="M539.36,113.42c3.89-.82,6.85-3.23,9.71-5.57.42-.34.84-.69,1.27-1.03,4.61-3.68,9.36-4.86,14.13-3.52,3.81,1.07,7.23,3.41,10.53,5.66.81.55,1.62,1.11,2.48,1.67,3.99,2.62,8.11,5.32,12.92,6.1,1.62.26,5.5.42,5.6.42,2.42,0,5-.2,7.58-.61,4.65-.73,8.07-3.53,11.08-6,4.97-4.08,9.24-5.51,13.82-4.61,4.33.85,8.15,3.46,11.84,5.99.99.68,1.98,1.36,2.97,1.99.29.18.58.36.87.54l1.52.95-.03-1.1c-.07-3.11-.15-6.23-.23-9.34v-.27s-.22-.17-.22-.17c-3.86-3.14-8.21-6.18-13.85-7.19-4.68-.83-9.7-.22-14.52,1.78-3.83,1.59-6.7,3.93-9.73,6.42l-.36.3c-8.25,5.91-18.55,1.23-18.55,1.23-1.84-.99-6.28-4.02-6.28-4.02-3.83-3.02-7.8-6.15-12.64-7.81-4.61-1.58-9.97-1.58-15.09,0-4.26,1.31-8.14,3.61-12.21,7.22-1.96,1.74-4.29,2.49-6.3,2.99-.5.12-1.96.45-1.96.45v.47c-.07,2.35-.17,4.7-.29,7.05l-.03.66.66-.04c1.81-.11,3.58-.24,5.31-.6Z"/>
    <path class="uuid-6fe4a9c9-06e0-4b67-b49b-ff3c6cd302fb" d="M539.8,135.65c3.89-.82,6.85-3.23,9.71-5.57.42-.34.84-.69,1.27-1.03,4.61-3.68,9.36-4.86,14.13-3.52,3.81,1.07,7.23,3.41,10.53,5.66.81.55,1.62,1.11,2.48,1.67,3.99,2.62,8.11,5.32,12.92,6.1,1.62.26,5.5.42,5.6.42,2.42,0,5-.2,7.58-.61,4.65-.73,8.07-3.53,11.08-6,4.97-4.08,9.24-5.51,13.82-4.61,4.33.85,8.15,3.46,11.84,5.99.99.68,1.98,1.36,2.97,1.99.29.18.58.36.87.54l1.52.95-.03-1.1c-.07-3.11-.15-6.23-.23-9.34v-.27s-.22-.17-.22-.17c-3.86-3.14-8.21-6.18-13.85-7.19-4.68-.83-9.7-.22-14.52,1.78-3.83,1.59-6.7,3.93-9.73,6.42l-.36.3c-8.25,5.91-18.55,1.23-18.55,1.23-1.84-.99-6.28-4.02-6.28-4.02-3.83-3.02-7.8-6.15-12.64-7.81-4.61-1.58-9.97-1.58-15.09,0-4.26,1.31-8.14,3.61-12.21,7.22-1.96,1.74-4.29,2.49-6.3,2.99-.5.12-1.96.45-1.96.45v.47c-.07,2.35-.17,4.7-.29,7.05l-.03.66.66-.04c1.81-.11,3.58-.24,5.31-.6Z"/>
    <path class="uuid-56d627c0-8908-4454-abd8-d30f0469067b" d="M612.08,89.17c-1.08-5.33-4.23-10.01-8.65-12.82l-12.34-8.82h-.02c-1.08-.65-2.34-.95-3.59-.86l-14.52,1.03c-3.8-.13-6.18.73-8.68,4.23,0,0-10.89,12.27-6.68,15.15,3.95,2.71,13.67-10.16,13.67-10.16l12.02-.12c.28.01.56,0,.84-.02l-7.54,12.6s9.7,7,10.82,8.12c1.58,1.58,9.04,5.65,15.82,1.58,7.91-4.75,9.49-6.33,9.49-6.33l-.65-3.58Z"/>
  </g>
  <g>
    <circle class="uuid-ea98ac22-10d2-48c4-a20c-ec88870fe574" cx="342.2" cy="367.79" r="79.84"/>
    <path class="uuid-56d627c0-8908-4454-abd8-d30f0469067b" d="M364.58,321.2c-1.96,4.5-9.45,6.42-13.23,5.64-6.34-1.52-7.64-9.62-5.34-15.34,1.96-4.51,9.45-6.42,13.22-5.65,6.34,1.52,7.64,9.62,5.34,15.34Z"/>
    <path class="uuid-6fe4a9c9-06e0-4b67-b49b-ff3c6cd302fb" d="M313.46,352.66c-1.3,9.59-3.61,30.92-3.38,32.48.04.23-.02.44-.16.58-.88.81-1.72,1.41-2.81,2.03-.14.11-.26.06-.32-.17-.21-.76-.3-2.17.18-6.28,0,0,3.8-32.38,4.08-32.99.28-.61,1.81-2.38,3.13-3.45.2-.17.31-.03.26.32-.23,1.69-3.14,24.61-3.56,27.96l2.57-20.49Z"/>
    <path class="uuid-56d627c0-8908-4454-abd8-d30f0469067b" d="M323.65,373.52l-9.56,30.24,9.33-1.08s4.33-9.31,5.37-11.31c1.44-2.77,5.78-11.09,5.78-11.09l-4.55-1.86c-2.45-1.26-4.61-2.88-6.38-4.9Z"/>
    <path class="uuid-6fe4a9c9-06e0-4b67-b49b-ff3c6cd302fb" d="M374.58,359.87c-1.3,9.59-3.61,30.92-3.38,32.48.04.23-.02.44-.16.58-.88.81-1.72,1.41-2.81,2.03-.14.11-.26.06-.32-.17-.21-.76-.3-2.17.18-6.28,0,0,3.8-32.38,4.08-32.99.28-.61,1.81-2.38,3.13-3.45.2-.17.31-.03.26.32-.23,1.69-3.14,24.61-3.56,27.96l2.57-20.49Z"/>
    <path class="uuid-6fe4a9c9-06e0-4b67-b49b-ff3c6cd302fb" d="M356.58,409.2c-20.33-2.45-65.53-6.87-68.8-6.51-.48.07-.94-.04-1.24-.29-1.78-1.55-3.09-3.01-4.49-4.91-.24-.24-.15-.45.33-.54,1.59-.34,4.56-.47,13.27.44,0,0,68.61,7.24,69.93,7.73,1.32.49,5.15,3.18,7.51,5.49.36.35.07.53-.66.45-3.58-.43-52.17-5.93-59.27-6.72l43.43,4.86Z"/>
    <path class="uuid-56d627c0-8908-4454-abd8-d30f0469067b" d="M363.75,347.85l-5.14-10.07c-.17-1.33-4.4-5.27-4.55-5.26,0,0,0,0,0-.01-1.49-.89-3.09-1.59-4.77-2.02l-13.94-4.14h-.02c-1.2-.29-2.47-.16-3.62.29l-12.6,4.89c-3.45.94-5.35,2.37-6.63,6.2,0,0-6.38,14.04-1.8,15.47,4.3,1.34,9.46-12.91,9.46-12.91l10.77-3.44c.43-.12.85-.28,1.27-.43l-4.5,19.97c-2.47,5.79-.27,12.51,5.14,15.72l16.63,9.81-10.02,35.11,8.55.27,14.2-34.26c1.15-4.09-.58-8.45-4.23-10.64l-11.98-7.06,5.18-22.03,4.12,6.98c1.48,3.26,3.21,4.9,7.19,5.54,0,0,14.89,4.03,15.56-.72.62-4.46-14.28-7.25-14.28-7.25Z"/>
    <path class="uuid-6fe4a9c9-06e0-4b67-b49b-ff3c6cd302fb" d="M374.03,423.02c-20.33-2.46-65.53-6.85-68.81-6.45-.48.07-.94-.04-1.24-.3-1.77-1.61-3.08-3.13-4.47-5.12-.24-.25-.15-.47.33-.57,1.59-.37,4.56-.52,13.27.4,0,0,68.62,7.22,69.93,7.73,1.31.51,5.14,3.3,7.49,5.71.36.36.07.55-.66.47-3.58-.43-52.16-5.93-59.27-6.73l43.43,4.86Z"/>
  </g>
  <g>
    <circle class="uuid-ea98ac22-10d2-48c4-a20c-ec88870fe574" cx="571.97" cy="366.29" r="79.67"/>
    <path class="uuid-6fe4a9c9-06e0-4b67-b49b-ff3c6cd302fb" d="M555.97,348.22c1.45-.99,2.88-2.02,4.23-3.16.71-.6,1.4-1.26,2.04-1.95-.02.01-.04.02-.06.04-12.24-6.13-24.54-12.23-24.54-12.23-6.09-3.01-8.4-3.5-9.77-3.43-.42.02-.59.24-.53.59.06,2.62.29,4.69.82,6.95.1.37.39.61.79.63,1.65.16,14.45,6.06,27.29,12.29-.09.09-.18.18-.27.26Z"/>
    <path class="uuid-56d627c0-8908-4454-abd8-d30f0469067b" d="M602.47,331.83c-1.75,4.02-8.43,5.72-11.79,5.03-5.65-1.35-6.81-8.58-4.76-13.68,1.74-4.02,8.42-5.72,11.79-5.03,5.65,1.35,6.81,8.58,4.76,13.68Z"/>
    <path class="uuid-56d627c0-8908-4454-abd8-d30f0469067b" d="M575.03,376.53l-6.95-10.16c-.32-.47-.34-1.07-.06-1.56l1.97-2.86c-6.58-3.22-13.28-6.44-19.1-9.17,0,0-3.89,5.28-3.8,8.51.09,3.18.72,6.45,2.46,8.2l17.59,14.95-9.65,17.19,8.65,2.88,10.62-15.01c2.37-3.54,2.1-8.18-.55-11.42-.41-.5-.82-1-1.16-1.55Z"/>
    <path class="uuid-6fe4a9c9-06e0-4b67-b49b-ff3c6cd302fb" d="M585.4,421.26c-19.38-10.12-62.98-31.36-66.47-32.05-.52-.08-.93-.38-1.12-.79-1.04-2.52-1.65-4.79-2.13-7.62-.13-.38.07-.6.6-.56,1.77.13,4.85,1.01,13.22,5.18,0,0,65.92,32.89,67.01,33.96,1.09,1.06,3.65,5.71,4.9,9.39.2.55-.19.68-.88.32-3.42-1.78-49.91-25.53-56.71-28.99l41.58,21.16Z"/>
    <path class="uuid-56d627c0-8908-4454-abd8-d30f0469067b" d="M592.5,355.73l-2.43-11.96c-1.62-4.85-8.21-11.36-16.94-7.87l-4.05,2.11c-2.2,1.15-14,10.33-14.82,11.2l-3.37,3.57,19.1,9.17,6.3-5.42c3.34,1.71,28.99,14.53,30.55,11.33,1.55-3.18-14.34-12.13-14.34-12.13ZM576.34,356.48h.02c.57.28,1.12.57,1.65.85l-1.67-.85Z"/>
  </g>
</svg>