<?xml version="1.0" encoding="UTF-8"?>
<svg id="uuid-9e93a642-80cb-4882-abfc-32a5d417669b" xmlns="http://www.w3.org/2000/svg" xmlns:xlink="http://www.w3.org/1999/xlink" version="1.1" viewBox="0 0 1920 1628.5">
  <defs>
    <style>
      .cls-1 {
        fill: #005587;
      }

      .cls-1, .cls-2, .cls-3, .cls-4 {
        stroke-width: 0px;
      }

      .cls-2 {
        fill: #658eb4;
      }

      .cls-5 {
        isolation: isolate;
      }

      .cls-3 {
        fill: #fff;
      }

      .cls-4 {
        fill: #d7b072;
      }
    </style>
  </defs>
  <image class="cls-5" width="1008" height="854" transform="translate(-.5 .8) scale(1.9)" xlink:href="SFLD_Hausschriften_Desktop-1.png"/>
  <rect class="cls-1" x=".7" y=".9" width="1918.6" height="1627.3"/>
  <g>
    <g>
      <path class="cls-4" d="M92.8,359.7h-3.8v-14.5h-15.5v14.5h-3.8v-31.9h3.8v13.8h15.5v-13.8h3.8v31.9Z"/>
      <path class="cls-4" d="M124.9,351.5h-14.2l-3.1,8.2h-3.9l12.1-31.9h4l12.1,31.9h-3.9l-3.1-8.2h0ZM112,347.9h11.6l-5.8-15.4-5.8,15.4h0Z"/>
      <path class="cls-4" d="M166,347.8c0,9.1-5.2,12.5-11.7,12.5s-11.7-3.4-11.7-12.5v-20h3.8v19.9c0,6.4,2.8,9,7.9,9s7.9-2.6,7.9-9v-19.9h3.8v20Z"/>
      <path class="cls-4" d="M182.4,350.3c.6,3.2,3,6.4,8.1,6.4s8.1-2.5,8.1-5.5c0-5.4-5.7-5.2-12.2-7.1-3.6-1-7-3.2-7-8.1s4.2-8.7,10.8-8.7,11.1,5.5,11.5,9.7h-3.9c-.3-2.9-2.1-6-7.5-6s-6.9,2-6.9,5.1c0,4.6,5.2,4.4,11.9,6.4,3.8,1.1,7.2,3.6,7.2,8.8s-4.4,9.3-12,9.3-11.5-4.7-12.2-10h4Z"/>
      <path class="cls-4" d="M217.8,350.3c.6,3.2,3,6.4,8.1,6.4s8.1-2.5,8.1-5.5c0-5.4-5.7-5.2-12.2-7.1-3.6-1-7-3.2-7-8.1s4.2-8.7,10.8-8.7,11.1,5.5,11.5,9.7h-3.9c-.3-2.9-2.1-6-7.5-6s-6.9,2-6.9,5.1c0,4.6,5.2,4.4,11.9,6.4,3.8,1.1,7.2,3.6,7.2,8.8s-4.4,9.3-12,9.3-11.5-4.7-12.2-10h4Z"/>
      <path class="cls-4" d="M271.7,337.4c-.8-4.1-3.9-6.5-8.6-6.5s-9.7,4.6-9.7,12.9,3.6,13,9.9,13,7.7-2.4,8.6-6.5h3.8c-1,6.1-5.6,10.2-12.5,10.2s-13.8-6.7-13.8-16.6,4.9-16.5,13.5-16.5,11.5,4.3,12.4,10.2h-3.8,0Z"/>
      <path class="cls-4" d="M311.6,359.7h-3.8v-14.5h-15.5v14.5h-3.8v-31.9h3.8v13.8h15.5v-13.8h3.8v31.9Z"/>
      <path class="cls-4" d="M339.8,327.8c6.9,0,9.7,5.1,9.7,9.4s-1.9,7.5-6.5,8.8l8,13.7h-4.5l-7.7-13.3h-8.7v13.3h-3.8v-31.9h13.4ZM330.2,331.4v11.5h9.6c4.3,0,5.8-3.1,5.8-5.6s-1.5-5.8-5.8-5.8h-9.6Z"/>
      <path class="cls-4" d="M367.1,359.7h-3.8v-31.9h3.8v31.9Z"/>
      <path class="cls-4" d="M403,331.4h-17.2v10.2h14.3v3.6h-14.3v14.5h-3.8v-31.9h21.1v3.6h0Z"/>
      <path class="cls-4" d="M435.5,331.4h-9.6v28.3h-3.9v-28.3h-9.7v-3.6h23.1v3.6h0Z"/>
      <path class="cls-4" d="M474.7,356.2v-23.9l-7.1,4.5v-4.1l7.5-4.9h3.3v28.4h6.4v3.5h-17v-3.5h6.9Z"/>
    </g>
    <g>
      <path class="cls-3" d="M318.5,973.9v26.2c-3.9,1.1-8.4,1.7-14,1.7-29.6,0-38.5-17.9-43.5-40.7-19,27.3-49.7,43-83.7,43-65.9,0-107.7-55.2-107.7-136.7s44.7-133.4,112.2-133.4,57.5,12.8,76.5,38v-34h30.7v208.2c0,19.5,3.9,27.9,23.4,27.9h6.1ZM261,870.1c0-70.3-25.7-107.2-77.6-107.7-50.8-.6-83.2,41.9-83.2,105.5s29.6,107.7,78.7,107.7,82-38.5,82-105.5h0Z"/>
      <path class="cls-3" d="M587.5,892.5h-175.2l-40.7,107.7h-34l144-375.6h36.8l144,375.6h-33.5l-41.3-107.7h0ZM424.5,861.2h151.3l-75.9-198.1-75.4,198.1h0Z"/>
    </g>
    <g>
      <path class="cls-3" d="M1449.5,975.1l3.8,15.5-55.9,15.3c-8.4-3.5-15.3-9.8-18.3-15.5v-24.8l-98.7,40.1c-39-15-52.3-38.7-52.3-65.7s3-27.2,9-41.4l142-47.2v-60.2c-6.3-12.3-17.4-24.8-43.1-28.9l-61.3,23.4c1.4,13.3,3.8,27,6.5,40.6l-22.1,6.8-17.2-54.8-.5-.8,105.2-40.9c25.1,5.2,57.2,25.3,62.9,49.3v176.6c0,6.8.6,14.2,5.7,17.4l34.1-4.9h0ZM1379.2,945.9v-75.5l-116.4,39.8c-2.7,5.2-4.6,13.9-4.6,23.4,0,30.2,24.2,41.2,33.5,45.2l87.5-33Z"/>
      <path class="cls-3" d="M1811.4,973.2l39.2,9.8-1.9,18.5-42-1.4h-17.4l-58.1,1.4-2.4-18.3,48-9.8-40.6-102.7-34.1,1.1h-80.9l-33.8-.8-40.1,102.5,48,9.8-2.4,18.3-58.1-1.4h-11.7l-42,1.4-1.9-18.5,39.2-9.8,129.7-323.2-6.8-19.1,3.3-4.9h31.1l135.7,347.2h0ZM1701.1,849.2l27,.8-64-162.2-1.4-8.7-67,170.9,26.2-.8h79.3Z"/>
    </g>
    <g>
      <g>
        <path class="cls-3" d="M1094.3,452.7h1.1l-1.2,6h-14.8c0,0-.1-.9-.1-.9l2.7-.6v-20.2l-2.7-.6v-1c.1,0,2.8,0,2.8,0h12.1l-.2,5h-1.1l-.3-3.7h-9.2v9.3h1.9s7.1,0,7.1,0l-.2,1.3h-8.7s0,10.1,0,10.1h9.5l1.4-4.7h0Z"/>
        <path class="cls-3" d="M1111.5,457.3l1.8.6v.8c0,0-2.3,0-2.3,0h-3.6c0,0,0-.7,0-.7l2.5-.6-4.2-6-4,6,2.3.6v.8c0,0-2.3,0-2.3,0h-3.3c0,0,0-.7,0-.7l2-.6,4.8-6.9-4.4-6.4-1.8-.6v-.8c0,0,2.3,0,2.3,0h3.6c0,0,0,.7,0,.7l-2.5.6,3.9,5.6,3.7-5.6-2.3-.6v-.8c0,0,2.3,0,2.3,0h3.3c0,0,0,.7,0,.7l-2,.6-4.5,6.5,4.7,6.8h0Z"/>
        <path class="cls-3" d="M1118.4,443.7h-2.2v-.9h2.3c0-.1.5-4.4.5-4.4h.9v4.3l5.1-.2-.2,1.2h-4.9v11.9c.5.9,1,1.5,2.6,2.1l3.2-.9.3.9-3.9,1.3c-1.9-.2-3.3-2.1-3.6-2.9v-12.4h0Z"/>
        <path class="cls-3" d="M1137.8,442.4c.9.1,1.5.4,2,.8l-.3,1.6h-.3c-.7-.4-1.2-.6-1.9-.7l-4.2,2.5v10.9l2.8.6v.8c-.1,0-3,0-3,0h-3.3c0,0,0-.7,0-.7l2.2-.6v-13.3h-2.2l-.2-.7,3.4-1,.4.2v2.8l4.8-2.9h0Z"/>
        <path class="cls-3" d="M1156.3,457.3l.2.8-3.2.9c-.5-.2-.8-.5-.9-.8v-1.7l-6.2,2.5c-2.4-.9-3.2-2.4-3.2-4s.2-1.6.6-2.5l8.8-2.9v-4c-.3-.8-1-1.6-2.7-1.9l-4.1,1.5c0,.9.2,1.8.4,2.6l-1.1.3-1-3.3h0s6.3-2.5,6.3-2.5c1.6.3,3.4,1.6,3.7,2.9v11.2c0,.4,0,.8.3,1l2.2-.3h0ZM1152.3,455.5v-5l-7.6,2.6c-.2.3-.3.9-.3,1.5,0,2,1.6,2.7,2.2,3l5.8-2.2h0Z"/>
        <path class="cls-3" d="M1184.8,452.7h1.1l-1.2,6h-14.8c0,0-.1-.9-.1-.9l2.7-.6v-20.2l-2.7-.6v-1c.1,0,2.8,0,2.8,0h4.4c0,0,.2.9.2.9l-3.2.6v20.4h9.5l1.4-4.7h0Z"/>
        <path class="cls-3" d="M1191.8,458.6h-2.2c0,0,0-.7,0-.7l2.2-.6v-13.2h-2.2l-.2-.7,3.4-1,.4.2v14.8l2.2.6v.8c0,0-2.3,0-2.3,0h-1.1,0ZM1192.8,435.8l.5,2-1.1.5h-.9l-.5-2,1.1-.5h.9Z"/>
        <path class="cls-3" d="M1212.2,457.4l.6.6c0,3.8-3.3,8.8-8,8.9-3.6-.1-6.4-2.9-6.4-5.6l2.9-2.7h-.5c-.9,0-1.7-.5-1.7-1.7,1.4-.7,3.3-1.5,5.1-2.4-3.1-1-5.1-3.7-5.1-5.7,0-3.8,3.2-5.8,6.4-6.5l5.5-1v1.2l-3.1.6c1.9.9,3.3,2.4,3.3,4.6,0,5.5-7.2,8-10.5,9.5v.2h11.3,0ZM1211.4,458.6h-8.7l-2.8,2.9c0,1.4,1.9,4,5,4s6.5-3.4,6.5-6.9ZM1205.5,453.9c2.4-1.4,4.3-3.3,4.3-6.1s-1.7-3.7-4.6-4.2c-2.4.8-4.4,2.2-4.4,5.2s1.4,3.8,4.7,5.1h0Z"/>
        <path class="cls-3" d="M1228.5,457.3l2.2.6v.8c0,0-2.3,0-2.3,0h-3.3c0,0,0-.7,0-.7l2.2-.6v-11.4c0-1.1-1.7-2.3-2.7-2.3l-5.8,2.3v11.3l2.2.6v.8c0,0-2.3,0-2.3,0h-3.3c0,0,0-.7,0-.7l2.2-.6v-21.8h-2l-.2-.7,3.2-1,.4.2v10.8l6.2-2.4c1.3,0,3.5,1.7,3.7,2.9v12h0Z"/>
        <path class="cls-3" d="M1236.2,443.7h-2.2v-.9h2.3c0-.1.5-4.4.5-4.4h.9v4.3l5.1-.2-.2,1.2h-4.9v11.9c.5.9,1,1.5,2.6,2.1l3.2-.9.3.9-3.9,1.3c-1.9-.2-3.3-2.1-3.6-2.9v-12.4h0Z"/>
      </g>
      <g>
        <path class="cls-3" d="M1094.3,496.3h1.3l-1.2,6.1h-15.3c0,0-.1-1.1-.1-1.1l2.6-.6v-19.9l-2.6-.6v-1.1c.1,0,3,.1,3,.1h4.7c0-.1.2,1,.2,1l-3.2.6v20.1h9.2c0,0,1.4-4.6,1.4-4.6h0Z"/>
        <path class="cls-3" d="M1101.6,502.4h-2.4c0,0-.1-.9-.1-.9l2.2-.6v-13h-2.2l-.2-.9,3.6-1.1.6.2v14.7l2.2.6v1c-.1,0-2.6,0-2.6,0h-1.1,0ZM1102.8,479.3l.5,2.2-1.2.6h-1.1l-.5-2.2,1.2-.6h1.1Z"/>
        <path class="cls-3" d="M1122.3,501l.7.8c0,3.9-3.4,8.9-8.2,8.9-3.7-.1-6.5-2.8-6.5-5.7l2.8-2.6h-.2c-1.1,0-1.9-.6-1.9-1.9,1.5-.7,3.3-1.5,5-2.4-3-1.1-5-3.6-5-5.6,0-3.8,3.3-5.9,6.7-6.6l5.7-1v1.4s-3,.5-3,.5c1.8.9,3.1,2.5,3.1,4.5,0,5.5-7.2,7.9-10.5,9.4v.2h11.3,0ZM1121.3,502.5h-8.6l-2.6,2.8c0,1.4,1.9,3.7,4.8,3.7s6.3-3.3,6.3-6.5h0ZM1115.5,497.4c2.3-1.4,4.1-3.2,4.1-5.9s-1.7-3.5-4.4-4c-2.3.8-4.2,2.2-4.2,5s1.3,3.7,4.5,5h0Z"/>
        <path class="cls-3" d="M1139.2,500.9l2.1.6v1c-.1,0-2.5,0-2.5,0h-3.5c0,0,0-.9,0-.9l2.1-.6v-11c0-1.1-1.6-2.3-2.7-2.3l-5.5,2.2v11.1l2.1.6v1c0,0-2.4,0-2.4,0h-3.6c0,0-.1-.9-.1-.9l2.2-.6v-21.5h-2l-.2-.8,3.4-1.1.7.2v10.7s6.2-2.5,6.2-2.5c1.3,0,3.7,1.8,3.9,3.1v11.9h0Z"/>
        <path class="cls-3" d="M1146.7,487.5h-2.2v-1h2.3c0-.1.7-4.4.7-4.4h1.1v4.3l5.1-.2-.2,1.4h-4.9v11.6c.5.9,1,1.5,2.6,2.1l3.2-.9.3,1.1-4.2,1.4c-1.9-.2-3.5-2.2-3.8-3v-12.3h0Z"/>
      </g>
      <g>
        <path class="cls-3" d="M1096.9,538.6c0,4.5-4.6,7.8-7.5,7.8h-7.2s-3.1.1-3.1.1l-.2-1.3,2.6-.6v-19.7l-2.6-.6v-1.3c.1,0,3.2,0,3.2,0h8.9c2.7.9,4.5,2.1,4.5,4.8s-2,4.4-3.8,5.6c4,.7,5.1,2.8,5.1,5.1h0ZM1090,524.8h-5.9v8.5h5.5c1.6-1.1,3.6-3.1,3.6-5.1s-1.2-2.8-3.2-3.4h0ZM1088.5,544.9c3.7-.3,5.9-3.5,5.9-5.9s-1.5-4-5.7-4h-4.7v9.1l4.4.7h0c0,0,0,.1,0,.1Z"/>
        <path class="cls-3" d="M1114.9,537.7c0,5-3.9,8.1-7.7,9-5-1-7.2-4.2-7.2-7.9s3.9-8.1,7.7-9c5,1,7.2,4.2,7.2,7.9h0ZM1112.7,537.8c0-3-1.9-5.5-5.7-6.3-2.5,1.2-4.7,3.2-4.7,7.1s1.9,5.5,5.7,6.3c2.5-1.2,4.7-3.2,4.7-7.1Z"/>
        <path class="cls-3" d="M1132.3,537.7c0,5-3.9,8.1-7.7,9-5-1-7.2-4.2-7.2-7.9s3.9-8.1,7.7-9c5,1,7.2,4.2,7.2,7.9h0ZM1130,537.8c0-3-1.9-5.5-5.7-6.3-2.5,1.2-4.7,3.2-4.7,7.1s1.9,5.5,5.7,6.3c2.5-1.2,4.7-3.2,4.7-7.1Z"/>
        <path class="cls-3" d="M1144.7,538.2l5.5,7.3v.9h-2.6v-.9l-4.5-6.7h-2.9v5.8l2,.6v1.1c0,0-2.4,0-2.4,0h-3.8c0,0-.1-1-.1-1l2.1-.6v-21.2h-2l-.2-.9,3.6-1.2.9.3v15.7h2.5l4.2-6.2v-1.1h2.2v1.1l-4.7,6.6.4.3h0Z"/>
      </g>
      <g>
        <path class="cls-3" d="M1097.5,589.2v1.1h-2.8l-5.9-9.9h-4.4v7.9l3.4.6-.2,1.5h-4.2c0,0-1.1,0-1.1,0h-3.2c0,0-.2-1.4-.2-1.4l2.6-.6v-19.4l-2.6-.6.2-1.5h3.2c0,0,9.2,0,9.2,0,2.7.9,4.7,2.6,4.7,6s-2.7,5.6-5,6.8l6.4,9.5h0ZM1084.4,569v9.6h5.2c1.9-.9,3.6-3.1,3.6-5.3s-1.4-3.9-3.2-4.3h-5.6Z"/>
        <path class="cls-3" d="M1112.6,587.5l.4,1.2-5.7,2c-3.2-.6-7.3-2.5-7.3-8.1s5.4-8.6,8-9c3.4,0,5.5,2.3,5.5,5s-.6,2.8-1.1,4h-9.7v.2c0,3.4,2.4,5.3,5.6,5.9l4.3-1.3h0ZM1102.9,581.1l7.9-.2c.3-.7.5-1.4.5-2.1,0-1.4-.9-3.2-4-3.2-1.5.7-3.8,2.1-4.3,5.5h0Z"/>
        <path class="cls-3" d="M1130,588.7l.9,1c0,3.9-3.6,8.9-8.6,9-3.8,0-6.7-2.7-6.7-5.7l2.6-2.4c-1.2-.1-1.9-.9-1.9-2.4,1.5-.8,3.2-1.5,4.9-2.3-2.9-1.1-4.9-3.6-4.9-5.5,0-3.9,3.4-6.1,7-6.7l6-1.1v1.8s-2.8.5-2.8.5c1.6,1,2.8,2.5,2.8,4.4,0,5.4-7.1,7.9-10.5,9.3v.2h11.2ZM1128.6,590.7h-8.3l-2.3,2.6c0,1.3,1.8,3.4,4.6,3.4s6.1-3,6.1-6ZM1123.1,584.8c2.1-1.4,3.7-3.1,3.7-5.6s-1.5-3.2-4-3.8c-2.1.7-3.8,2.1-3.8,4.6s1.3,3.5,4.1,4.7h0Z"/>
        <path class="cls-3" d="M1149.3,588.4l.3,1.3-3.9,1c-.6-.2-1.2-.8-1.4-1.2v-1.3l-6.1,2.6c-1.4,0-4-1.9-4.2-3.4v-11.3h-2.2l-.2-1.2,4-1.2,1,.4v12.2c0,1.1,1.6,2.2,2.6,2.2l5-1.8v-10.5h-2.2l-.2-1.2,4-1.2,1,.4v13.6c0,.5,0,1,.4,1.2l2-.3h0Z"/>
        <path class="cls-3" d="M1155.5,590.4h-2.7c0,0-.2-1.2-.2-1.2l2.1-.6v-20.9h-2l-.3-1,3.8-1.3,1.1.4v22.9l2.1.6v1.3c-.1,0-2.9,0-2.9,0h-1.1,0Z"/>
        <path class="cls-3" d="M1177.8,588.5l.3,1.3-3.9,1c-.6-.2-1.2-.8-1.4-1.2v-1.3l-6,2.5c-2.4-.9-3.4-2.4-3.4-4.3s.2-1.8.5-2.6l8.9-3v-3.2c-.5-.7-1.2-1.4-2.7-1.6l-3.3,1.3c0,.8.2,1.6.4,2.3l-1.9.6-1.2-3.5h0c0,0,7-2.8,7-2.8,1.5.3,3.8,1.5,4.3,3.3v10.5c0,.5,0,1,.4,1.2l2-.3h0ZM1167.9,588.5l4.9-1.9v-4.2l-6.6,2.3c-.2.3-.2.8-.2,1.4,0,1.7,1.3,2.2,1.9,2.5Z"/>
        <path class="cls-3" d="M1190.7,573.7c.9.1,1.6.5,2.1.9l-.4,2.5h-.4c-.8-.4-1.3-.6-2.1-.8l-3.9,2v10.3l2.8.6-.2,1.2h-3.6c0,0-.8,0-.8,0h-2.8c0,.1-.2-1.2-.2-1.2l2.1-.6v-12.5h-2.2l-.2-1.2,4-1.2.9.4v2.6c.1,0,4.9-3,4.9-3h0Z"/>
      </g>
      <g>
        <path class="cls-3" d="M1105.3,613.4v18.9l2.5.7-.2,1.8h-3.5c0,0-1.5,0-1.5,0h-3.5c0,0-.2-1.7-.2-1.7l2.6-.7v-14.2l.3-2.5-7.8,18.7-2.5.5-8.2-19.2.2,2.4v14.3l2.5.7-.2,1.8h-3.5c0,0,0,0,0,0h-3.5c0,0-.2-1.7-.2-1.7l2.5-.7v-18.9l-2.5-.7.2-1.8h3.5c0,0,3.2,0,3.2,0l7.2,18,.3,1.7,8.1-19.7h6.5c0,0,.2,1.7.2,1.7l-2.5.7h0Z"/>
        <path class="cls-3" d="M1124.2,631.2l.4,1.5-6,2.3c-3.1-.6-7.4-2.6-7.4-8.3s5.5-8.8,8.5-9.2c3.3,0,5.6,2.3,5.6,5.2s-.6,3-1.1,4.1h-9.6c0,3.3,2.3,5.1,5.2,5.7l4.4-1.2h0ZM1114.7,625.1l7.2-.3c.3-.6.4-1.2.4-1.8,0-1.3-1-3-3.7-3-1.5.8-3.3,2.1-3.9,5.1h0Z"/>
        <path class="cls-3" d="M1144.2,632.3l.4,1.6-4.3,1.1c-.8-.2-1.5-1-1.7-1.5v-1.2l-5.7,2.7c-2.1-.5-4.1-1.6-4.8-2.6-.5-1.3-.8-2.9-.8-4.8,0-6.2,4.3-9.2,8-10,1.1.2,2.3.7,3.5,1.5l-.2-1.8v-5.2h-2l-.3-1.2,4.1-1.6,1.6.5v21.5c0,.6,0,1.1.4,1.3l1.9-.3h0ZM1134,632.1l4.5-1.6v-9c-.8-.6-2.4-1.5-3.9-1.6-1.2.3-4.1,1.9-4.1,7s.1,2.4.4,3.4c.3.6,2,1.6,3.1,1.7h0Z"/>
        <path class="cls-3" d="M1150.7,634.6h-3.1c0,0-.2-1.5-.2-1.5l2.1-.6v-12h-2.2l-.2-1.5,4.4-1.4,1.4.5v14.4l2.1.6-.2,1.6h-3.1c0,0-1.1,0-1.1,0h0ZM1152.6,610.6l.6,2.9-1.9.9h-2l-.6-2.9,1.9-1h2Z"/>
        <path class="cls-3" d="M1175.9,632.3l.4,1.6-4.3,1.1c-.8-.2-1.5-1-1.7-1.5v-1.2l-6,2.7c-1.4,0-4.3-2-4.5-3.7v-10.8h-2.2l-.2-1.5,4.4-1.4,1.4.5v11.9c0,1,1.5,2.2,2.5,2.2l4.5-1.6v-10h-2.2l-.2-1.5,4.4-1.4,1.4.5v13.3c0,.6,0,1.1.4,1.3l1.9-.3h0Z"/>
        <path class="cls-3" d="M1203.1,632.5l2.1.6-.2,1.6h-3.1c0,0-1.4,0-1.4,0h-2.5c0,0-.1-1.4-.1-1.4l1.8-.7v-9.9c0-1-1.5-2.2-2.5-2.2l-3.3,1.2v10.9l1.8.7v1.5c0,0-2.6,0-2.6,0h-4.2c0,0-.1-1.4-.1-1.4l1.8-.7v-9.9c0-1-1.5-2.2-2.6-2.2l-3.3,1.2v10.9l1.8.7v1.5c-.1,0-2.6,0-2.6,0h-4.5c0,0-.2-1.5-.2-1.5l2.1-.6v-12h-2.2l-.2-1.5,4.3-1.4,1.2.5.2,1.7,4.9-2.2c1.1,0,3,1.1,3.9,2.4l5.3-2.4c1.4,0,4.3,1.9,4.5,3.7v11.3h0Z"/>
      </g>
      <g>
        <path class="cls-3" d="M1100.3,671.4c0,3.9-3.9,7.7-9.6,7.7h-12.4c0,.1-.3-2.5-.3-2.5l2.4-.7v-17.5l-2.4-.7.3-2.6h4.3c0,.1,10.3.1,10.3.1,3.2.8,5.8,2.1,5.8,5.4s-1.6,4.2-3.3,5.4c3.6,1,4.8,3,4.8,5.5h0ZM1090.4,658.8h-3.8v6.6h3.7c1.2-1.1,2.3-2.5,2.3-3.9s-.8-2.3-2.2-2.7h0ZM1090.6,676.2c1.9-.9,3.5-2.6,3.5-4.6s-1.3-2.9-3.9-2.9h-3.6v6.4l4,1h0c0,.1,0,.1,0,.1Z"/>
        <path class="cls-3" d="M1120.1,670c0,5.1-5,8.9-9.9,9.6-5.2-.9-8.1-4.5-8.1-8.7s5-8.9,9.9-9.6c5.2.9,8.1,4.5,8.1,8.7ZM1114.7,670.3c0-2.5-1.3-4.6-4.4-5.3-1.4,1-2.8,2.3-2.8,5.6s1.3,4.5,4.4,5.3c1.4-1,2.8-2.3,2.8-5.5h0Z"/>
        <path class="cls-3" d="M1126.3,679.1h-3.5c0,.1-.2-2.2-.2-2.2l1.8-.7v-18.8h-2l-.5-1.7,5-2.2,2.9.8v21.9l2.1.7-.2,2.3h-4.1c0-.1-1.2-.1-1.2-.1h0Z"/>
        <path class="cls-3" d="M1152.7,675.9l.6,2.4-5.6,1.2c-1-.3-2.2-1.5-2.5-2.2v-.6l-5.5,2.8c-2.5-.6-4.3-1.6-5.2-2.8-.6-1.4-1-3.2-1-5,0-6.3,5-9.6,9-10.5,1,.4,1.9.9,2.9,1.5l-.3-2v-3.4h-2l-.5-1.7,5-2.2,2.9.8v20.5c0,.8,0,1.4.6,1.5l1.6-.4h0ZM1141.9,675.1l3.3-.8v-8h0c-.8-.6-2.1-1.2-3.3-1.3-1,.5-2.9,2.1-2.9,6.1s0,1.8.3,2.5c.3.5,1.6,1.5,2.6,1.5h0Z"/>
      </g>
      <g>
        <path class="cls-3" d="M1102.4,716.6c0,3.5-3.4,7.6-10.9,7.6h-13.7c0,.1-.4-3.3-.4-3.3l2.3-.8v-16.1l-2.3-.8.4-3.5h5.2c0,.1,11.2.1,11.2.1,3.4.7,6.6,2.2,6.6,5.8s-1.3,4.1-3.1,5.3c3.3,1.1,4.7,3.1,4.7,5.6h0ZM1090.7,704.7h-2.4v5.4h2.5c1-1,1.5-2.1,1.5-3.2s-.6-1.9-1.6-2.2ZM1091.6,720.3c1.2-.8,2.3-1.9,2.3-3.5s-1.1-2.3-2.7-2.3h-2.9v4.7l3.3,1.1h0Z"/>
        <path class="cls-3" d="M1108.7,724.3l-4,.2-.2-3.1,1.7-.8v-17.3h-2.1l-.7-2.2,5.9-2.8,4.1,1.2v21.2l2.1.8-.3,3.1-5-.2h-1.5Z"/>
        <path class="cls-3" d="M1136,720.1l.8,3.2-6.7,1.4c-1.3-.3-2.9-2-3.3-2.8l-5.3,2.8c-2.5-.9-4.4-2.8-4.4-5.8s0-1.8.1-2.4l9.6-3.1v-1.7c-.6-.5-1.5-.9-2.1-1.1l-.8.3c.2.8.4,1.5.5,1.8l-5.1,1.7-2.5-4.9,10.3-4c1,.2,5.9,1.3,7,5.2v7.8c0,1,.1,1.7.7,1.8l1.2-.4h0ZM1124.9,719.5h1.8v-3.3l-2.8,1.2c0,.2,0,.4,0,.8s.6,1.3,1,1.3h0Z"/>
        <path class="cls-3" d="M1145.8,724.7c-3.1-.4-8.4-3.4-8.4-9s5.8-9.5,11.3-10.1l5,2.9-3.6,4.5-3.7-2.5c-.9,1-1.7,2.1-1.7,4.4s.9,4.2,3.6,4.8l4.6-1.1.8,2.6-8,3.4h0Z"/>
        <path class="cls-3" d="M1173.8,716l3.9,6v2.2h-7.9v-2.1l-2.6-4.7h-2.1v3l1,.8v3.1c-.1,0-2.6-.2-2.6-.2h-2.5l-5,.2-.3-3.1,2.1-.8v-17.3h-2.1l-.7-2.2,5.9-2.8,4.1,1.2v14.9h2l3.2-6.1v-1.9h6.2v2.2l-4.3,6.7,1.5,1h0Z"/>
      </g>
    </g>
    <g>
      <g>
        <path class="cls-3" d="M72,454h12.2v1.8h-14.1v-22h2v20.1h0Z"/>
        <path class="cls-3" d="M88.6,437h-2v-3.2h2v3.2ZM88.5,455.9h-1.8v-15.3h1.8v15.3Z"/>
        <path class="cls-3" d="M105.3,455.1c0,4.9-2.5,7.1-6.5,7.1s-5.3-2-5.9-4.8h1.8c.6,1.9,1.6,3.1,4.1,3.1s4.7-1.5,4.7-5.5v-1.7c-1,1.7-2.7,2.6-4.8,2.6-4.1,0-6.3-3.3-6.3-8.2s2.4-7.6,6.5-7.6,3.7.8,4.7,2.5v-2.2h1.8v14.6h0ZM94.2,447.9c0,4.1,1.6,6.5,4.7,6.5s4.7-2.6,4.7-6.4-1.6-6.1-4.6-6.1-4.8,2.4-4.8,6Z"/>
        <path class="cls-3" d="M111.7,442.5c1.1-1.5,2.7-2.2,4.8-2.2,3.6,0,5.3,2.5,5.3,6.2v9.4h-1.8v-9.2c0-3.2-1.5-4.7-3.8-4.7s-4.5,1.7-4.5,5.2v8.7h-1.8v-22h1.8v8.6h0Z"/>
        <path class="cls-3" d="M129.4,440.5h3.9v1.6h-3.9v9.8c0,1.8.9,2.4,2.4,2.4h.8v1.5s-.6.1-1.2.1c-2.1,0-3.8-1-3.8-4.1v-9.7h-2.6v-1.6h2.6v-6.5h1.8v6.5h0Z"/>
      </g>
      <g>
        <path class="cls-3" d="M79.2,545.2c4.9,0,6.8,3,6.8,6.1s-.7,3.3-2.2,4.5c1.9,1.2,2.7,3,2.7,4.8,0,3-1.9,6.7-6.8,6.7h-9.9v-22h9.4ZM73.6,548.7v5.3h6c2.1,0,2.7-1.6,2.7-2.8s-.8-2.5-3-2.5h-5.6ZM73.6,557.5v6.1h6.1c2.2,0,3-1.7,3-3.1s-.8-3-3-3h-6.1Z"/>
        <path class="cls-3" d="M89,559c0-4.7,2.6-8.1,7.1-8.1s7.1,3.4,7.1,8.1-2.7,8.4-7.1,8.4-7.1-3.1-7.1-8.4ZM99.7,559c0-3-1.1-4.9-3.5-4.9s-3.5,1.9-3.5,4.9,1.1,5.1,3.5,5.1,3.5-1.6,3.5-5.1Z"/>
        <path class="cls-3" d="M109.8,562.8c0,1,.4,1.2,1.2,1.2h.8v3s-.5.3-1.5.3c-1.9,0-3.9-.7-3.9-4.5v-17.6h3.5v17.6h0Z"/>
        <path class="cls-3" d="M124.1,552.3v-7.2h3.5v22h-3.5v-1.2c-.9.9-2.2,1.4-3.6,1.4-4.2,0-6.7-3.3-6.7-8.5s2.6-8,6.7-8,2.7.5,3.6,1.4h0ZM124.2,559.1c0-3.4-1.2-5-3.5-5s-3.4,1.9-3.4,4.8.9,5.1,3.4,5.1,3.5-1.7,3.5-5h0Z"/>
      </g>
      <g>
        <path class="cls-3" d="M87.2,493.1h-3l-11.2-18.8v18.8h-2.8v-23.4h3l11.2,18.6v-18.6h2.8v23.4h0Z"/>
        <path class="cls-3" d="M91.4,484.7c0-5.2,3-8.4,7.2-8.4s7.2,3.2,7.2,8.4-2.8,8.7-7.2,8.7-7.2-3.3-7.2-8.7ZM103.3,484.7c0-4-1.7-5.9-4.6-5.9s-4.6,2-4.6,5.9,1.7,6.2,4.6,6.2,4.6-2.1,4.6-6.2Z"/>
        <path class="cls-3" d="M118.1,479.1h-.9c-2.7,0-4.9,1.6-4.9,5.5v8.4h-2.6v-16.5h2.6v2.6c1.2-1.9,2.8-2.8,4.7-2.8s1.2.1,1.2.1v2.7Z"/>
        <path class="cls-3" d="M142.2,493.1h-2.6v-10.2c0-3-1.1-4.2-3.1-4.2s-3.7,1.7-3.7,5.5v8.9h-2.6v-10.2c0-2.9-1.1-4.2-3.1-4.2s-3.8,1.6-3.8,5v9.4h-2.6v-16.5h2.6v1.7c1.1-1.2,2.4-1.9,4.3-1.9s3.5.8,4.4,2.5c1.1-1.7,2.8-2.5,4.9-2.5,3.5,0,5.3,2.5,5.3,6.4v10.4h0Z"/>
        <path class="cls-3" d="M161.6,490.9v2.2s-.4.1-1.1.1c-1.4,0-2.6-.5-3-2-1,1.3-2.9,2.1-4.8,2.1-4.5,0-6.9-3.6-6.9-8.8s2.7-8.2,7.2-8.2,3.2.7,4.2,1.7v-1.5h2.6v13.1c0,.9.4,1.2,1.4,1.2h.4ZM157.5,484.8c0-4.1-1.5-6.1-4.3-6.1s-4.7,2.3-4.7,5.9,1.5,6.3,4.5,6.3,4.6-2,4.6-6.1h0Z"/>
        <path class="cls-3" d="M167.4,489.1c0,1.6.6,1.8,1.8,1.8h.4v2.2s-.4.1-1,.1c-2.1,0-3.8-.7-3.8-4.3v-19.2h2.6v19.4h0Z"/>
      </g>
      <g>
        <path class="cls-3" d="M92,530.9h-3.4v-16.4l-6.2,14h-2.8l-6.2-14v16.4h-3.4v-23.4h3.8l7.2,17,7.2-17h3.8v23.4h0Z"/>
        <path class="cls-3" d="M110.2,525.8c-1,3.4-3.3,5.3-6.9,5.3s-7.5-3.1-7.5-8.6,3.1-8.6,7.4-8.6,7.3,3.7,7.3,8.5,0,1.2,0,1.2h-11.4c.2,3.4,2,4.6,4.2,4.6s3.1-.7,3.6-2.4h3.3ZM99.2,520.9h8.1c-.2-2.3-1.3-4.1-4-4.1s-3.8,1.6-4,4.1Z"/>
        <path class="cls-3" d="M124.3,515.6v-8.1h3.2v23.4h-3.2v-1.6c-1.1,1.1-2.5,1.8-4.2,1.8-4.5,0-7-3.5-7-8.9s2.7-8.4,7-8.4,3.1.6,4.2,1.7ZM124.4,522.5c0-3.8-1.4-5.7-4-5.7s-4.1,2.2-4.1,5.5,1.3,5.9,4.1,5.9,4-1.9,4-5.7h0Z"/>
        <path class="cls-3" d="M135.3,511.5h-3.3v-4h3.3v4ZM135.3,530.9h-3.2v-16.8h3.2v16.8Z"/>
        <path class="cls-3" d="M139.7,514.2h3.2v10.3c0,2.6,1.5,3.8,3.2,3.8,2.4,0,3.8-1.6,3.8-5.3v-8.8h3.2v16.8h-3.2v-1.5c-1.1,1.2-2.7,1.7-4.4,1.7-3.8,0-5.8-2.6-5.8-6.5v-10.5h0Z"/>
        <path class="cls-3" d="M157.7,530.9v-16.8h3.2v1.5c1-1.1,2.4-1.7,4.1-1.7s3.7.8,4.5,2.4c1.1-1.6,2.7-2.4,4.8-2.4,3.7,0,5.3,2.6,5.3,6.4v10.6h-3.2v-10.3c0-2.7-1-3.8-2.8-3.8s-3.3,1.7-3.3,5.5v8.6h-3.2v-10.3c0-2.7-1.1-3.8-2.8-3.8s-3.4,1.6-3.4,5v9.1h-3.2Z"/>
      </g>
      <g>
        <path class="cls-3" d="M79.8,581.4c5.6,0,7.6,3.3,7.6,6.6s-.8,3.4-2.2,4.7c1.7,1.3,2.8,3.2,2.8,4.9,0,3.3-2.1,7.2-7.6,7.2h-10.7v-23.4h10.2,0ZM74.5,585.7v5.1h5.4c1.9,0,2.6-1.2,2.6-2.6s-.9-2.5-2.9-2.5h-5.1ZM74.5,594.9v5.7h5.6c2,0,2.8-1.6,2.8-3s-.9-2.7-2.8-2.7h-5.6Z"/>
        <path class="cls-3" d="M95.4,600c0,.9.7,1.2,1.3,1.2h.8v3.4s-.9.4-2,.4c-2.3,0-4.6-.8-4.6-4.9v-18.7h4.5v18.6h0Z"/>
        <path class="cls-3" d="M106.6,587.5c1.4,0,2.5.5,3.4,1.2v-1h4.5v12.3c0,.6.3,1,.8,1h.8v3.5c-.5.2-1,.3-2,.3s-2.4-.4-3.2-1.4c-1.2,1-2.6,1.5-4.1,1.5-4.8,0-7.5-3.5-7.5-9s3.1-8.5,7.3-8.5h0ZM107.1,601.1c2.1,0,3.1-1.5,3.1-4.8s-1-4.8-3.1-4.8-3.3,1.8-3.3,4.7,1,4.9,3.3,4.9Z"/>
        <path class="cls-3" d="M128.6,593.7c-.4-1.6-1.3-2.2-2.7-2.2-2.2,0-3.4,1.5-3.4,4.8s1.2,4.8,3.5,4.8,2.3-.6,2.7-2h4.5c-.8,3.7-3.3,6-7.2,6s-8-3.3-8-8.8,3.1-8.7,7.9-8.7,6.7,2.5,7.2,6.1h-4.6,0Z"/>
        <path class="cls-3" d="M145.4,594.7l6.6,10.1h-5.2l-4.5-7-1.8,2v5h-4.5v-23.5h4.5v13l5.8-6.5h5.2l-6,6.9h0Z"/>
      </g>
    </g>
    <g>
      <path class="cls-4" d="M1100.7,359.7h-3.8v-14.5h-15.5v14.5h-3.8v-31.9h3.8v13.8h15.5v-13.8h3.8v31.9Z"/>
      <path class="cls-4" d="M1132.8,351.5h-14.2l-3.1,8.2h-3.9l12.1-31.9h4l12.1,31.9h-3.9l-3.1-8.2h0ZM1120,347.9h11.6l-5.8-15.4-5.8,15.4h0Z"/>
      <path class="cls-4" d="M1173.9,347.8c0,9.1-5.2,12.5-11.7,12.5s-11.7-3.4-11.7-12.5v-20h3.8v19.9c0,6.4,2.8,9,7.9,9s7.9-2.6,7.9-9v-19.9h3.8v20Z"/>
      <path class="cls-4" d="M1190.3,350.3c.6,3.2,3,6.4,8.1,6.4s8.1-2.5,8.1-5.5c0-5.4-5.7-5.2-12.2-7.1-3.6-1-7-3.2-7-8.1s4.2-8.7,10.8-8.7,11.1,5.5,11.5,9.7h-3.9c-.3-2.9-2.1-6-7.5-6s-6.9,2-6.9,5.1c0,4.6,5.2,4.4,11.9,6.4,3.8,1.1,7.2,3.6,7.2,8.8s-4.3,9.3-12,9.3-11.5-4.7-12.2-10h4Z"/>
      <path class="cls-4" d="M1225.8,350.3c.6,3.2,3,6.4,8.1,6.4s8.1-2.5,8.1-5.5c0-5.4-5.7-5.2-12.2-7.1-3.6-1-7-3.2-7-8.1s4.2-8.7,10.8-8.7,11.1,5.5,11.5,9.7h-3.9c-.3-2.9-2.1-6-7.5-6s-6.9,2-6.9,5.1c0,4.6,5.2,4.4,11.9,6.4,3.8,1.1,7.2,3.6,7.2,8.8s-4.3,9.3-12,9.3-11.5-4.7-12.2-10h4Z"/>
      <path class="cls-4" d="M1279.7,337.4c-.8-4.1-3.9-6.5-8.6-6.5s-9.7,4.6-9.7,12.9,3.7,13,9.9,13,7.7-2.4,8.6-6.5h3.8c-1,6.1-5.6,10.2-12.4,10.2s-13.8-6.7-13.8-16.6,4.9-16.5,13.5-16.5,11.5,4.3,12.4,10.2h-3.8Z"/>
      <path class="cls-4" d="M1319.6,359.7h-3.8v-14.5h-15.5v14.5h-3.8v-31.9h3.8v13.8h15.5v-13.8h3.8v31.9Z"/>
      <path class="cls-4" d="M1347.8,327.8c6.9,0,9.7,5.1,9.7,9.4s-1.9,7.5-6.5,8.8l8.1,13.7h-4.4l-7.7-13.3h-8.7v13.3h-3.8v-31.9h13.4,0ZM1338.2,331.4v11.5h9.6c4.3,0,5.8-3.1,5.8-5.6s-1.5-5.8-5.8-5.8h-9.6Z"/>
      <path class="cls-4" d="M1375.1,359.7h-3.8v-31.9h3.8v31.9Z"/>
      <path class="cls-4" d="M1410.9,331.4h-17.2v10.2h14.3v3.6h-14.3v14.5h-3.8v-31.9h21.1v3.6h0Z"/>
      <path class="cls-4" d="M1443.4,331.4h-9.6v28.3h-3.9v-28.3h-9.7v-3.6h23.2v3.6h0Z"/>
      <path class="cls-4" d="M1478,356.2h15.1v3.5h-19.5v-3.5s7.2-6.5,11-10.7c2.6-2.8,4.2-5.1,4.2-8.5s-2-6.3-6-6.3-5.6,2-6.1,5h-3.7c.7-4.8,4.2-8.5,9.8-8.5s9.8,4.4,9.8,9.7-2.8,8-5.8,11c-3.2,3.2-5.4,5.4-8.8,8.3h0Z"/>
    </g>
    <g>
      <g>
        <path class="cls-2" d="M94.5,1300.4h-3.8v-18.3l-6.9,15.6h-3.1l-6.9-15.6v18.3h-3.8v-26h4.2l8,18.9,8-18.9h4.2v26h0Z"/>
        <path class="cls-2" d="M126.6,1287.1c0,8.2-3.7,13.8-11,13.8s-11-5.5-11-13.7,4-13.3,11-13.3,11,6,11,13.2ZM108.5,1287.2c0,6.4,2.3,10.1,7.1,10.1s7.2-3.7,7.2-10.2-2.2-9.7-7.2-9.7-7.1,3.5-7.1,9.7h0Z"/>
        <path class="cls-2" d="M146.4,1274.4c7.3,0,11.1,5.5,11.1,12.6s-3.8,13.4-11.1,13.4h-9.7v-26h9.7ZM140.5,1278v18.8h6c4.8,0,7.1-3.4,7.1-9.8s-2.4-9.1-7.2-9.1h-5.9Z"/>
        <path class="cls-2" d="M185.4,1278h-14v7.4h11.5v3.6h-11.5v7.9h14v3.6h-17.8v-26h17.8v3.6h0Z"/>
        <path class="cls-2" d="M206.7,1274.4c5.8,0,8.2,4.3,8.2,7.8s-1.6,6-5.2,7.2l6.4,11h-4.4l-6-10.5h-6.2v10.5h-3.8v-26h11.1ZM199.4,1278v8.3h7.2c3.1,0,4.4-2.4,4.4-4.1s-1.2-4.2-4.4-4.2h-7.2Z"/>
        <path class="cls-2" d="M244.7,1300.4h-3.8l-11.6-19.2v19.2h-3.8v-26h3.8l11.6,19.1v-19.1h3.8v26Z"/>
        <path class="cls-2" d="M274,1278h-14v7.4h11.5v3.6h-11.5v7.9h14v3.6h-17.8v-26h17.8v3.6h0Z"/>
      </g>
      <g>
        <path class="cls-2" d="M1652.4,1282.9h-3.4c0-.1-1.2-4.4-1.2-4.4l-4.3-.4v19.6l3.2.8-.4,2.9h-5.8c0-.1-1-.1-1-.1h-5.8c0,.1-.4-2.8-.4-2.8l3.2-.8v-19.6l-4.3.4-1.2,4.3h-3.3c0-2.2-.1-4.6-.3-6.9l-.2-1.3h25.3c-.3,2.8-.4,5.5-.4,8.3h0Z"/>
        <path class="cls-2" d="M1672.6,1281.4c1.1.2,2.2.7,2.8,1.2l-.9,5.3h-.6c-1.1-.6-1.7-.8-2.8-1.1l-3.4,1.2v9.9l3.1.8-.3,2.6h-5.9c0-.1-.3-.1-.3-.1l-4.5.2-.3-2.6,2.4-.8v-11.9h-2.6l-.3-2.7,5.9-2.1,2.3.9.4,2.7,5.2-3.6h0Z"/>
        <path class="cls-2" d="M1702.2,1297.7l.7,2.7-6.2,1.4c-1.1-.3-2.5-1.7-2.8-2.4v-.6l-6.2,3c-2.8-1-4.4-2.9-4.4-5.7s0-2.2.3-2.9l10.2-3.5v-2.4c-.7-.6-1.7-1.2-2.7-1.4l-2,.8c.2.8.3,1.6.5,2.2l-4.2,1.4-2.1-4.8,9.8-3.8c1.3.3,5.5,1.6,6.5,4.9v9.9c0,.9,0,1.6.6,1.7l1.8-.4h0ZM1690.5,1297.2l3.4-1v-3.8l-4.8,1.8c0,.2-.2.6-.2,1.1,0,1.2,1,1.8,1.5,1.9h0Z"/>
        <path class="cls-2" d="M1731.2,1297.7l.7,2.7-6.2,1.4c-1.1-.3-2.5-1.7-2.8-2.4v-.7l-6.1,3.1c-2.8-.7-4.8-1.8-5.8-3.1-.6-1.6-1.1-3.6-1.1-5.6,0-7.1,5.6-10.7,10-11.6,1.1.4,2.2,1,3.2,1.7l-.3-2.3v-3.8h-2.3l-.6-1.9,5.6-2.5,3.2.9v22.8c0,.8.1,1.5.6,1.7l1.8-.4h0ZM1719.2,1296.8l3.7-.9v-8.9h0c-.9-.6-2.3-1.4-3.7-1.5-1.1.6-3.2,2.3-3.2,6.8s.1,2,.3,2.8c.3.6,1.8,1.6,2.9,1.7h0Z"/>
        <path class="cls-2" d="M1744.8,1301.3l-4.5.2-.3-2.6,2.3-.8v-11.9h-2.6l-.3-2.6,6-2.1,2.8.9v15.7l2.3.8-.3,2.6-4.5-.2h-1.1ZM1747.7,1273.3l.8,4.1-3,1.5h-3.4l-.7-4.1,3-1.5h3.4Z"/>
        <path class="cls-2" d="M1760.6,1284.8h-2.3v-2.8l2.7-.4,2.5-4.9h3.1v5.2l5.9-.4v3.2h-5.9v10.8c.2.9.6,1.6,2.6,2.1l3.5-.8.8,2.3-6.7,2.6c-3,0-6-2.9-6.1-4.8v-12.2h0Z"/>
        <path class="cls-2" d="M1786.2,1301.3l-4.5.2-.3-2.6,2.3-.8v-11.9h-2.6l-.3-2.6,6-2.1,2.8.9v15.7l2.3.8-.3,2.6-4.5-.2h-1.1ZM1789.1,1273.3l.8,4.1-3,1.5h-3.4l-.7-4.1,3-1.5h3.4Z"/>
        <path class="cls-2" d="M1819.8,1291.1c0,5.7-5.5,9.9-11.1,10.7-5.8-1-9-5-9-9.7s5.5-9.9,11.1-10.7c5.8,1,9,5,9,9.7ZM1813.8,1291.4c0-2.7-1.5-5.1-4.9-5.9-1.5,1.1-3.1,2.6-3.1,6.2s1.5,5.1,4.9,5.9c1.5-1.1,3.2-2.6,3.2-6.2h0Z"/>
        <path class="cls-2" d="M1848.8,1298l2.4.8-.3,2.6-4.5-.2h-1.7l-3.5.2-.2-2.6,1.8-.8v-9.2c0-1-1.5-2.3-2.6-2.2l-3.7.8v10.6l1.8.8-.2,2.6-3.5-.2h-1.7l-4.5.2-.3-2.6,2.4-.8v-11.9h-2.6l-.3-2.7,5.9-2.1,2.3.9.4,2.4,6.7-3.3c1.7,0,5.8,2.4,5.8,4.9v11.7h0Z"/>
      </g>
      <g>
        <rect class="cls-2" x="337.1" y="1293.6" width="1229.5" height="2.3"/>
        <polygon class="cls-2" points="344.9 1304.3 346.5 1302.6 338 1294.7 346.5 1286.9 344.9 1285.2 334.6 1294.7 344.9 1304.3"/>
        <polygon class="cls-2" points="1558.9 1304.3 1557.3 1302.6 1565.7 1294.7 1557.3 1286.9 1558.9 1285.2 1569.2 1294.7 1558.9 1304.3"/>
      </g>
    </g>
  </g>
</svg>