<?xml version="1.0" encoding="UTF-8"?>
<svg id="uuid-a0db5f47-184c-4a61-b163-c261486bd147" data-name="Ebene 1" xmlns="http://www.w3.org/2000/svg" viewBox="0 0 1920 818.14">
  <defs>
    <style>
      .uuid-fd40d44c-8ca3-4434-8d0c-2cb3bad9893b {
        fill: #00477a;
        stroke-width: 0px;
      }
    </style>
  </defs>
  <path class="uuid-fd40d44c-8ca3-4434-8d0c-2cb3bad9893b" d="M45.61,713.67h79.34s0,19.95,0,19.95h-28.78s0,82.69,0,82.69h-21.48s0-82.69,0-82.69h-29.08s0-19.95,0-19.95ZM156.23,816.31h21.47s0-102.64,0-102.64h-21.47s0,102.64,0,102.64ZM279.89,775.65l23.61,40.66h-24.82s-21.02-37.16-21.02-37.16h-19.64s0,37.16,0,37.16h-21.48s0-102.64,0-102.64h46.91c24.52,0,34.27,18.57,34.27,33.19,0,10.21-5.33,22.85-17.82,28.79ZM276.08,746.71c0-5.79-3.96-13.4-12.79-13.4h-25.28s0,26.34,0,26.34h25.28c8.83,0,12.79-7.46,12.79-12.94ZM413.64,763.77c0,32.29-15.23,54.37-45.23,54.37-29.24,0-44.62-21.47-44.62-53.91,0-31.98,16.75-52.39,44.93-52.39,30.3,0,44.93,23.91,44.93,51.93ZM392.01,764.08c0-19.34-7.15-33.05-23.3-33.05-14.78,0-23.3,11.42-23.3,33.2,0,22.69,7.77,34.72,23,34.72,15.84,0,23.6-12.18,23.6-34.87ZM462.59,713.67h-21.48s0,102.64,0,102.64h68.99s0-19.95,0-19.95h-47.51s0-82.69,0-82.69ZM583.84,756.31c-18.58-4.87-31.22-5.02-31.22-14.47,0-7.31,7-11.57,16.14-11.57,10.05,0,15.38,5.94,16.45,13.1h21.93c-1.83-15.07-11.88-31.52-38.38-31.52-22.39,0-37.77,12.03-37.77,30.31,0,17.36,13.71,25.13,25.43,28.17,20.87,5.33,31.68,5.33,31.68,15.69,0,8.22-8.07,13.4-19.49,13.4-10.66,0-17.66-6.7-18.73-15.53h-22.23c1.68,16.75,13.71,34.26,40.51,34.26,24.67,0,41.42-13.4,41.42-32.59,0-15.68-8.38-24.67-25.74-29.24ZM758.88,713.67v40.35s-36.39,0-36.39,0v-40.35s-21.48,0-21.48,0v102.64s21.48,0,21.48,0v-42.34s36.39,0,36.39,0v42.34s21.48,0,21.48,0v-102.64s-21.48,0-21.48,0ZM900.55,763.77c0,32.29-15.23,54.37-45.23,54.37-29.24,0-44.62-21.47-44.62-53.91,0-31.98,16.75-52.39,44.93-52.39,30.3,0,44.93,23.91,44.93,51.93ZM878.92,764.08c0-19.34-7.15-33.05-23.3-33.05-14.78,0-23.3,11.42-23.3,33.2,0,22.69,7.77,34.72,23,34.72,15.84,0,23.6-12.18,23.6-34.87ZM991.4,781.9c-2.13,11.42-9.29,17.06-19.95,17.06-15.38,0-24.83-11.73-24.83-34.11,0-22.09,8.83-33.81,24.21-33.81,10.51,0,17.36,5.64,19.34,15.99h21.93c-3.2-20.1-17.06-35.18-41.42-35.18-28.94,0-45.69,20.56-45.69,53,0,32.44,16.91,53.3,46.45,53.3,25.28,0,38.53-15.84,42.03-36.24h-22.08ZM1122.64,713.67h-21.47s0,40.35,0,40.35h-36.4s0-40.35,0-40.35h-21.47s0,102.64,0,102.64h21.47s0-42.34,0-42.34h36.4s0,42.34,0,42.34h21.47s0-102.64,0-102.64ZM1241.69,746.87c0,13.86-9.75,32.44-34.26,32.44h-24.67s0,37.01,0,37.01h-21.48s0-102.64,0-102.64h46.15c24.52,0,34.27,18.57,34.27,33.19ZM1220.06,746.72c0-5.79-3.96-13.4-12.79-13.4h-24.52s0,26.34,0,26.34h24.52c8.83,0,12.79-7.46,12.79-12.94ZM1289.84,713.67h-21.48s0,102.64,0,102.64h68.99s0-19.95,0-19.95h-47.51s0-82.69,0-82.69ZM1545.79,713.67h-79.35s0,19.95,0,19.95h29.09s0,82.69,0,82.69h21.47s0-82.69,0-82.69h28.79s0-19.95,0-19.95ZM1648.89,713.68h-73.25s0,102.64,0,102.64h73.25s0-19.64,0-19.64h-51.78s0-22.54,0-22.54h43.7s0-19.64,0-19.64h-43.7s0-21.17,0-21.17h51.78s0-19.64,0-19.64ZM1873.24,713.68h-21.48s0,62.28,0,62.28c0,16.6-6.55,23-18.57,23-11.27,0-17.82-6.4-17.82-23v-62.28s-21.48,0-21.48,0v63.35c0,30.15,17.06,41.11,39.3,41.12,22.99,0,40.05-10.96,40.05-41.11v-63.35ZM1408.57,734.5l.02.05.02-.05h-.04ZM1456.35,816.03h-21.45s-8.52-22.99-8.52-22.99h-21.04s-.03,0-.03,0h-21.04s-8.52,22.99-8.52,22.99h-21.45s37.46-102.64,37.46-102.64l13.55-.04h.02s.02,0,.02,0h0l13.55.04,37.47,102.64ZM1419.71,773.69l-14.33-39.14.02-.05h-.04s.02.05.02.05l-.04.11v.1s-.02-.05-.02-.05l-.02.05v-.1s-.04-.11-.04-.11l.02-.05h-.04s.02.05.02.05l-14.33,39.14h14.37s.03,0,.03,0h14.37ZM1773.54,816.03h-21.45s-8.52-22.99-8.52-22.99h-21.04s-.03,0-.03,0h-21.04s-8.52,22.99-8.52,22.99h-21.45s37.46-102.64,37.46-102.64l13.55-.04h.02s.02,0,.02,0h0l13.55.04,37.47,102.64ZM1736.9,773.69l-14.33-39.14.02-.05h-.04s.02.05.02.05l-.04.11v.1s-.02-.05-.02-.05l-.02.05v-.1s-.04-.11-.04-.11l.02-.05h-.04s.02.05.02.05l-14.33,39.14h14.37s.03,0,.03,0h14.37Z"/>
  <path class="uuid-fd40d44c-8ca3-4434-8d0c-2cb3bad9893b" d="M1918.59,466.77c-40.09-78.8-61.52-288.84-67.05-429.85-.69-7.61-5.53-10.37-12.44-6.22-35.95,24.89-67.05,49.08-90.55,71.89-3.45,3.45-4.84,6.22-4.15,11.75l7.6,91.85c-134.78,64.29-167.96,102.3-167.96,161.74,0,82.95,42.86,163.13,107.83,163.13,29.03,0,60.13-19.35,101.6-62.21,6.22,21.43,12.45,39.4,20.05,53.22,3.45,5.52,7.61,6.91,13.13,4.15,28.34-11.75,62.21-29.03,88.48-47,4.84-2.77,6.22-7.61,3.45-12.44h0ZM1752.01,436.36c-31.79,0-60.13-72.58-60.13-123.03,0-23.5,9.68-34.56,65.66-51.15,6.92,62.9,15.21,119.58,25.58,165.2-13.83,6.91-22.82,8.99-31.11,8.99h0ZM1552.95,201.96c0,185.24,10.37,229.48,26.96,262.66,2.77,4.84,1.38,9.67-3.45,13.13-30.42,20.05-60.13,35.26-99.54,51.84-4.84,2.77-9.67,2.08-13.13-2.76-11.75-15.9-22.12-46.31-23.5-136.86,0,0-9.84-261.59-2.08-275.68,7.76-14.08,58.75-56.58,105.06-83.54,6.92-4.15,11.76-1.38,11.76,6.22-.69,37.32-2.08,91.03-2.08,164.99h0ZM1308.27,215.14c-54.61,0-155.52,61.52-162.43,128.56-8.29,85.02,38.02,187.32,127.87,187.32,35.95,0,95.39-26.96,138.93-62.9,3.45-3.45,5.53-6.92,4.15-12.44-2.08-11.06-6.22-22.81-9.68-31.11-2.76-6.22-7.6-7.6-13.82-3.45-28.34,17.28-42.86,22.12-51.84,22.12-17.28,0-37.33-19.35-54.61-44.93l124.42-71.2c3.45-2.08,6.92-4.84,8.29-6.92,1.38-2.76,1.38-5.53,0-10.37-15.2-52.53-67.73-94.69-111.28-94.69h0ZM1264.03,356.15c-9.68-21.43-15.21-42.16-15.21-56.68,0-17.98,10.37-29.72,22.81-29.72,18.66,0,42.86,18.66,53.91,40.09l-61.52,46.32h0ZM1147.22,279.43c.69,5.53-.69,9.67-5.53,12.44l-40.09,23.42c6.85,115.67,4.59,121.57-5.29,157.65-13.71,50.04-56.85,115.4-108,144.43-4.84,2.77-8.99,2.77-13.13,0-10.37-6.91-17.82-13.88-26.11-23.55-4.15-4.84-3.04-8.65.69-13.83,41.45-57.41,37.5-143.29,33.52-196.89l-31.8,18.31c-5.53,3.45-10.93.77-13.21-4.63-5.05-10.93-9.15-22.6-12.15-34.35-1.38-5.53,0-8.98,4.83-12.44l47.52-27.46s-1.1-16.48-8.99-57.88c-5.82-30.58-10.92-53.99-10.95-72.14-.09-48.5,98.84-143.57,127.87-158.78,15.9-8.29,38.71-5.53,59.45,2.77,31.79,13.13,44.81,21.03,73.84,47.3,4.15,4.15,4.84,8.99.69,13.82-23.5,26.96-42.16,46.32-68.43,69.12-4.15,4.15-8.99,4.15-13.83-.69-25.57-24.19-59.32-47.3-76.61-47.3-8.29,0-13.82,4.84-13.82,12.45,0,19.35,20.74,61.12,39.4,127.48l35.26-21.43c5.52-3.46,10.36-2.08,13.13,4.15,4.63,11.42,9.13,24.04,11.75,38.02h0ZM541.73,215.14c-54.6,0-155.52,61.52-162.44,128.56-8.29,85.02,38.02,187.32,127.87,187.32,35.95,0,95.39-26.96,138.93-62.9,3.46-3.45,5.53-6.92,4.15-12.44-2.07-11.06-6.22-22.81-9.68-31.11-2.76-6.22-7.6-7.6-13.82-3.45-28.34,17.28-42.86,22.12-51.84,22.12-17.28,0-37.33-19.35-54.6-44.93l124.41-71.2c3.46-2.08,6.92-4.84,8.3-6.92,1.38-2.76,1.38-5.53,0-10.37-15.21-52.53-67.74-94.69-111.29-94.69h0ZM497.49,356.15c-9.67-21.43-15.2-42.16-15.2-56.68,0-17.98,10.37-29.72,22.81-29.72,18.66,0,42.85,18.66,53.91,40.09l-61.52,46.32h0ZM797.19,400.73c7.83,14.52,16.32,27.9,28.2,38.96,9.77,9.1,20.84,11.47,32.84,6,12.98-5.93,25.63-12.61,38.24-19.33,10.3-5.49,14.09-4.59,18.15,6.29,3.13,8.38,5.68,16.99,8.14,25.6,1.75,6.1.39,11.55-5.02,15.5-31.45,22.97-65.19,41.63-103.81,48.79-47.31,8.78-86.22-7.52-115.9-44.65-29.16-36.48-38.77-79.39-38.77-125.34,0-36.04,15.33-64.43,40.81-88.38,24.24-22.79,52.35-38.99,83.84-49.65,24.91-8.43,49.15-7.37,72.92,3.68,33.95,15.77,60.33,39.38,75.67,74.17,1.27,2.88,2.27,5.89,3.17,8.9,4.55,15.1,2.97,18.76-10.62,26.46-40.71,23.09-81.39,46.24-122.07,69.38-1.85,1.05-3.62,2.25-5.8,3.61h0ZM776.75,354.3c11.66-9.14,22.49-17.63,33.33-26.12,11.01-8.63,22.03-17.24,33.27-26.04-11.83-16.52-25.59-29.97-43.81-37.96-20.04-8.79-36.43,2.01-36.44,23.87-.01,22.57,6.32,43.91,13.66,66.26h0ZM797.19,400.73c7.83,14.52,16.32,27.9,28.2,38.96,9.77,9.1,20.84,11.47,32.84,6,12.98-5.93,25.63-12.61,38.24-19.33,10.3-5.49,14.09-4.59,18.15,6.29,3.13,8.38,5.68,16.99,8.14,25.6,1.75,6.1.39,11.55-5.02,15.5-31.45,22.97-65.19,41.63-103.81,48.79-47.31,8.78-86.22-7.52-115.9-44.65-29.16-36.48-38.77-79.39-38.77-125.34,0-36.04,15.33-64.43,40.81-88.38,24.24-22.79,52.35-38.99,83.84-49.65,24.91-8.43,49.15-7.37,72.92,3.68,33.95,15.77,60.33,39.38,75.67,74.17,1.27,2.88,2.27,5.89,3.17,8.9,4.55,15.1,2.97,18.76-10.62,26.46-40.71,23.09-81.39,46.24-122.07,69.38-1.85,1.05-3.62,2.25-5.8,3.61h0ZM776.75,354.3c11.66-9.14,22.49-17.63,33.33-26.12,11.01-8.63,22.03-17.24,33.27-26.04-11.83-16.52-25.59-29.97-43.81-37.96-20.04-8.79-36.43,2.01-36.44,23.87-.01,22.57,6.32,43.91,13.66,66.26h0ZM250.34,93.06c-10.31,1.08-22.61,23.9-19.87,35.32,10.72,44.56,135.64,184.57,129.84,283.84-2.77,47.49-107.67,142.18-160.71,149.49-83.04,11.45-158.18-31.84-198.93-148.5-1.27-5.43-.94-8.94,2.75-13.49,29.89-33.02,49.02-45.76,84.3-73.79,5.82-4.09,10.85-2.53,12.95,4.2,24.4,80.15,84.37,169.56,127.68,165.01,17.18-1.8,26.86-16.71,24.04-30.31-7.91-42.26-111.48-157.13-120.27-226.92-8.44-67.07,70.51-178.38,128.16-218.49,25.91-18.01,39.08-24.95,72.83-14.59,45.95,13.94,89.44,52.54,135.34,100.39,4.63,4.37,4.45,9.26.07,13.89-29.14,33.64-48.19,47.06-81.33,75.56-4.45,3.94-9.26,4.45-13.89.07-55.49-51.85-104.41-103.63-122.97-101.68h0Z"/>
</svg>