<?xml version="1.0" encoding="UTF-8"?>
<svg id="Ebene_2" data-name="Ebene 2" xmlns="http://www.w3.org/2000/svg" viewBox="0 0 1600 1020">
  <defs>
    <style>
      .cls-1 {
        letter-spacing: -.01em;
      }

      .cls-2 {
        fill: #005587;
        stroke-width: 0px;
      }

      .cls-3 {
        letter-spacing: .01em;
      }

      .cls-4 {
        stroke: #005587;
        stroke-width: 5px;
      }

      .cls-4, .cls-5 {
        fill: none;
        stroke-miterlimit: 10;
      }

      .cls-5 {
        stroke: #658eb4;
        stroke-width: 2px;
      }

      .cls-6 {
        letter-spacing: 0em;
      }

      .cls-7 {
        fill: #000;
        font-family: KitschText-Medium, 'Kitsch Text';
        font-size: 45px;
        font-weight: 500;
      }
    </style>
  </defs>
  <path class="cls-2" d="M81.89,690.14h27.43s0,6.9,0,6.9h-9.95s0,28.59,0,28.59h-7.43s0-28.59,0-28.59h-10.06s0-6.9,0-6.9ZM120.14,725.63h7.42s0-35.49,0-35.49h-7.42s0,35.49,0,35.49ZM162.9,711.57l8.16,14.06h-8.58s-7.27-12.85-7.27-12.85h-6.79s0,12.85,0,12.85h-7.43s0-35.49,0-35.49h16.22c8.48,0,11.85,6.42,11.85,11.48,0,3.53-1.84,7.9-6.16,9.95ZM161.58,701.56c0-2-1.37-4.63-4.42-4.63h-8.74s0,9.11,0,9.11h8.74c3.05,0,4.42-2.58,4.42-4.48ZM209.14,707.46c0,11.16-5.27,18.8-15.64,18.8-10.11,0-15.43-7.42-15.43-18.64,0-11.06,5.79-18.11,15.53-18.11,10.48,0,15.53,8.27,15.53,17.96ZM201.67,707.57c0-6.69-2.47-11.43-8.06-11.43-5.11,0-8.06,3.95-8.06,11.48,0,7.85,2.69,12.01,7.95,12.01,5.48,0,8.16-4.21,8.16-12.06ZM226.07,690.14h-7.43s0,35.49,0,35.49h23.85s0-6.9,0-6.9h-16.43s0-28.59,0-28.59ZM267.99,704.88c-6.42-1.69-10.79-1.74-10.79-5,0-2.53,2.42-4,5.58-4,3.47,0,5.32,2.05,5.69,4.53h7.58c-.63-5.21-4.11-10.9-13.27-10.9-7.74,0-13.06,4.16-13.06,10.48,0,6,4.74,8.69,8.79,9.74,7.21,1.84,10.95,1.84,10.95,5.42,0,2.84-2.79,4.63-6.74,4.63-3.69,0-6.11-2.32-6.48-5.37h-7.69c.58,5.79,4.74,11.85,14.01,11.85,8.53,0,14.32-4.63,14.32-11.27,0-5.42-2.9-8.53-8.9-10.11ZM328.52,690.14v13.95s-12.58,0-12.58,0v-13.95s-7.43,0-7.43,0v35.49s7.43,0,7.43,0v-14.64s12.58,0,12.58,0v14.64s7.43,0,7.43,0v-35.49s-7.43,0-7.43,0ZM377.5,707.46c0,11.16-5.27,18.8-15.64,18.8-10.11,0-15.43-7.42-15.43-18.64,0-11.06,5.79-18.11,15.53-18.11,10.48,0,15.53,8.27,15.53,17.96ZM370.03,707.57c0-6.69-2.47-11.43-8.06-11.43-5.11,0-8.06,3.95-8.06,11.48,0,7.85,2.69,12.01,7.95,12.01,5.48,0,8.16-4.21,8.16-12.06ZM408.92,713.73c-.74,3.95-3.21,5.9-6.9,5.9-5.32,0-8.58-4.06-8.58-11.8,0-7.64,3.05-11.69,8.37-11.69,3.63,0,6,1.95,6.69,5.53h7.58c-1.11-6.95-5.9-12.17-14.32-12.17-10.01,0-15.8,7.11-15.8,18.33,0,11.22,5.85,18.43,16.06,18.43,8.74,0,13.32-5.48,14.53-12.53h-7.64ZM454.3,690.14h-7.42s0,13.95,0,13.95h-12.59s0-13.95,0-13.95h-7.42s0,35.49,0,35.49h7.42s0-14.64,0-14.64h12.59s0,14.64,0,14.64h7.42s0-35.49,0-35.49ZM495.46,701.62c0,4.79-3.37,11.22-11.85,11.22h-8.53s0,12.8,0,12.8h-7.43s0-35.49,0-35.49h15.96c8.48,0,11.85,6.42,11.85,11.48ZM487.98,701.57c0-2-1.37-4.63-4.42-4.63h-8.48s0,9.11,0,9.11h8.48c3.05,0,4.42-2.58,4.42-4.48ZM512.11,690.14h-7.43s0,35.49,0,35.49h23.85s0-6.9,0-6.9h-16.43s0-28.59,0-28.59ZM600.61,690.14h-27.44s0,6.9,0,6.9h10.06s0,28.59,0,28.59h7.42s0-28.59,0-28.59h9.95s0-6.9,0-6.9ZM636.26,690.14h-25.33s0,35.49,0,35.49h25.33s0-6.79,0-6.79h-17.9s0-7.79,0-7.79h15.11s0-6.79,0-6.79h-15.11s0-7.32,0-7.32h17.9s0-6.79,0-6.79ZM713.83,690.14h-7.43s0,21.54,0,21.54c0,5.74-2.26,7.95-6.42,7.95-3.9,0-6.16-2.21-6.16-7.95v-21.54s-7.43,0-7.43,0v21.91c0,10.43,5.9,14.22,13.59,14.22,7.95,0,13.85-3.79,13.85-14.22v-21.91ZM553.16,697.34v.02s.01-.02.01-.02h-.01ZM569.68,725.53h-7.42s-2.95-7.95-2.95-7.95h-7.28s-.01,0-.01,0h-7.28s-2.95,7.95-2.95,7.95h-7.42s12.95-35.49,12.95-35.49h4.68s0-.01,0-.01h0s4.68.01,4.68.01l12.96,35.49ZM557.01,710.89l-4.96-13.53v-.02s0,0,0,0v.02s0,.04,0,.04v.03s0-.02,0-.02v.02s0-.03,0-.03v-.04s0-.02,0-.02h-.01s0,.02,0,.02l-4.96,13.53h4.97s.01,0,.01,0h4.97ZM679.36,725.53h-7.42s-2.95-7.95-2.95-7.95h-7.28s-.01,0-.01,0h-7.28s-2.95,7.95-2.95,7.95h-7.42s12.95-35.49,12.95-35.49h4.68s0-.01,0-.01h0s4.68.01,4.68.01l12.96,35.49ZM666.69,710.89l-4.96-13.53v-.02s0,0,0,0v.02s0,.04,0,.04v.03s0-.02,0-.02v.02s0-.03,0-.03v-.04s0-.02,0-.02h-.01s0,.02,0,.02l-4.96,13.53h4.97s.01,0,.01,0h4.97Z"/>
  <path class="cls-2" d="M729.51,604.77c-13.86-27.25-21.27-99.87-23.18-148.63-.24-2.63-1.91-3.59-4.3-2.15-12.43,8.6-23.18,16.97-31.31,24.86-1.19,1.19-1.67,2.15-1.43,4.06l2.63,31.76c-46.6,22.23-58.08,35.37-58.08,55.93,0,28.68,14.82,56.4,37.28,56.4,10.04,0,20.79-6.69,35.13-21.51,2.15,7.41,4.3,13.62,6.93,18.4,1.19,1.91,2.63,2.39,4.54,1.43,9.8-4.06,21.51-10.04,30.59-16.25,1.67-.96,2.15-2.63,1.19-4.3h0ZM671.91,594.25c-10.99,0-20.79-25.09-20.79-42.54,0-8.13,3.35-11.95,22.7-17.69,2.39,21.75,5.26,41.35,8.84,57.12-4.78,2.39-7.89,3.11-10.76,3.11h0ZM603.08,513.21c0,64.05,3.59,79.35,9.32,90.82.96,1.67.48,3.35-1.19,4.54-10.52,6.93-20.79,12.19-34.42,17.93-1.67.96-3.35.72-4.54-.96-4.06-5.5-7.65-16.01-8.13-47.32,0,0-3.4-90.45-.72-95.32,2.68-4.87,20.32-19.56,36.33-28.89,2.39-1.43,4.06-.48,4.06,2.15-.24,12.91-.72,31.47-.72,57.05h0ZM518.48,517.76c-18.88,0-53.77,21.27-56.16,44.45-2.87,29.4,13.14,64.77,44.21,64.77,12.43,0,32.98-9.32,48.04-21.75,1.19-1.19,1.91-2.39,1.43-4.3-.72-3.82-2.15-7.89-3.35-10.76-.95-2.15-2.63-2.63-4.78-1.19-9.8,5.97-14.82,7.65-17.92,7.65-5.97,0-12.91-6.69-18.88-15.53l43.02-24.62c1.19-.72,2.39-1.67,2.87-2.39.48-.96.48-1.91,0-3.59-5.26-18.16-23.42-32.74-38.48-32.74h0ZM503.18,566.52c-3.35-7.41-5.26-14.58-5.26-19.6,0-6.22,3.59-10.28,7.89-10.28,6.45,0,14.82,6.45,18.64,13.86l-21.27,16.01h0ZM462.79,539.99c.24,1.91-.24,3.35-1.91,4.3l-13.86,8.1c2.37,40,1.59,42.04-1.83,54.51-4.74,17.3-19.66,39.9-37.34,49.94-1.67.96-3.11.96-4.54,0-3.59-2.39-6.16-4.8-9.03-8.14-1.43-1.67-1.05-2.99.24-4.78,14.33-19.85,12.97-49.55,11.59-68.08l-11,6.33c-1.91,1.19-3.78.27-4.57-1.6-1.75-3.78-3.16-7.81-4.2-11.88-.48-1.91,0-3.11,1.67-4.3l16.43-9.49s-.38-5.7-3.11-20.01c-2.01-10.57-3.77-18.67-3.79-24.94-.03-16.77,34.18-49.64,44.22-54.9,5.5-2.87,13.38-1.91,20.56.96,10.99,4.54,15.49,7.27,25.53,16.35,1.43,1.43,1.67,3.11.24,4.78-8.13,9.32-14.58,16.01-23.66,23.9-1.43,1.43-3.11,1.43-4.78-.24-8.84-8.36-20.51-16.36-26.49-16.36-2.87,0-4.78,1.67-4.78,4.3,0,6.69,7.17,21.13,13.62,44.08l12.19-7.41c1.91-1.2,3.58-.72,4.54,1.43,1.6,3.95,3.16,8.31,4.06,13.15h0ZM253.44,517.76c-18.88,0-53.77,21.27-56.17,44.45-2.87,29.4,13.14,64.77,44.21,64.77,12.43,0,32.98-9.32,48.04-21.75,1.2-1.19,1.91-2.39,1.43-4.3-.72-3.82-2.15-7.89-3.35-10.76-.96-2.15-2.63-2.63-4.78-1.19-9.8,5.97-14.82,7.65-17.93,7.65-5.97,0-12.91-6.69-18.88-15.53l43.02-24.62c1.2-.72,2.39-1.67,2.87-2.39.48-.96.48-1.91,0-3.59-5.26-18.16-23.42-32.74-38.48-32.74h0ZM238.14,566.52c-3.34-7.41-5.26-14.58-5.26-19.6,0-6.22,3.59-10.28,7.89-10.28,6.45,0,14.82,6.45,18.64,13.86l-21.27,16.01h0ZM341.76,581.93c2.71,5.02,5.64,9.65,9.75,13.47,3.38,3.15,7.21,3.97,11.35,2.07,4.49-2.05,8.86-4.36,13.22-6.68,3.56-1.9,4.87-1.59,6.28,2.18,1.08,2.9,1.96,5.87,2.82,8.85.6,2.11.13,3.99-1.74,5.36-10.88,7.94-22.54,14.39-35.89,16.87-16.36,3.04-29.81-2.6-40.08-15.44-10.08-12.61-13.4-27.45-13.4-43.34,0-12.46,5.3-22.28,14.11-30.56,8.38-7.88,18.1-13.48,28.99-17.17,8.61-2.92,17-2.55,25.21,1.27,11.74,5.45,20.86,13.62,26.17,25.65.44.99.78,2.04,1.1,3.08,1.57,5.22,1.03,6.49-3.67,9.15-14.08,7.98-28.14,15.99-42.21,23.99-.64.36-1.25.78-2.01,1.25h0ZM334.7,565.88c4.03-3.16,7.78-6.1,11.52-9.03,3.81-2.98,7.62-5.96,11.5-9-4.09-5.71-8.85-10.36-15.15-13.13-6.93-3.04-12.6.7-12.6,8.25,0,7.8,2.18,15.18,4.72,22.91h0ZM341.76,581.93c2.71,5.02,5.64,9.65,9.75,13.47,3.38,3.15,7.21,3.97,11.35,2.07,4.49-2.05,8.86-4.36,13.22-6.68,3.56-1.9,4.87-1.59,6.28,2.18,1.08,2.9,1.96,5.87,2.82,8.85.6,2.11.13,3.99-1.74,5.36-10.88,7.94-22.54,14.39-35.89,16.87-16.36,3.04-29.81-2.6-40.08-15.44-10.08-12.61-13.4-27.45-13.4-43.34,0-12.46,5.3-22.28,14.11-30.56,8.38-7.88,18.1-13.48,28.99-17.17,8.61-2.92,17-2.55,25.21,1.27,11.74,5.45,20.86,13.62,26.17,25.65.44.99.78,2.04,1.1,3.08,1.57,5.22,1.03,6.49-3.67,9.15-14.08,7.98-28.14,15.99-42.21,23.99-.64.36-1.25.78-2.01,1.25h0ZM334.7,565.88c4.03-3.16,7.78-6.1,11.52-9.03,3.81-2.98,7.62-5.96,11.5-9-4.09-5.71-8.85-10.36-15.15-13.13-6.93-3.04-12.6.7-12.6,8.25,0,7.8,2.18,15.18,4.72,22.91h0ZM152.68,475.55c-3.57.37-7.82,8.26-6.87,12.21,3.71,15.41,46.9,63.82,44.89,98.14-.96,16.42-37.23,49.16-55.57,51.69-28.71,3.96-54.7-11.01-68.78-51.35-.44-1.88-.32-3.09.95-4.67,10.34-11.42,16.95-15.82,29.15-25.52,2.01-1.41,3.75-.88,4.48,1.45,8.44,27.71,29.17,58.63,44.15,57.06,5.94-.62,9.29-5.78,8.31-10.48-2.74-14.61-38.55-54.33-41.58-78.46-2.92-23.19,24.38-61.68,44.31-75.55,8.96-6.23,13.51-8.63,25.18-5.05,15.89,4.82,30.93,18.17,46.8,34.71,1.6,1.51,1.54,3.2.03,4.8-10.08,11.63-16.66,16.27-28.12,26.13-1.54,1.36-3.2,1.54-4.8.02-19.19-17.93-36.1-35.83-42.52-35.16h0Z"/>
  <g>
    <line class="cls-4" x1="923.65" y1="534.02" x2="963.66" y2="534.02"/>
    <line class="cls-4" x1="943.66" y1="554.03" x2="943.66" y2="514.02"/>
  </g>
  <g>
    <path class="cls-2" d="M1218.97,282.74l8.64-6.95,13.65,11.29c7-.25,11.8-2.7,11.8-8.43s-4.55-8.64-13.23-13.02l-2.91-1.47c-7.25-3.67-14.96-8.64-14.96-16.6,0-11.04,11.67-16.35,28.45-16.35l13.02,9.23-8.6,6.91-13.06-10.91c-3.71.55-8.51,3.54-8.51,8.51,0,4.26,3.54,6.95,9.14,9.82l2.74,1.39c8.77,4.42,19.22,9.9,19.22,18.88,0,11.21-13.36,17.28-31.82,17.28l-13.57-9.57Z"/>
    <path class="cls-2" d="M1302.71,281.48l1.14,2.65-13.15,7.71-9.4-.51c-9.99-3.62-13.27-10.87-13.27-18.75,0-13.65,12.64-23.64,25.88-23.64,3.58.55,9.31,4.59,9.31,12.85,0,1.77-.55,3.67-1.94,5.39l-22.25,5.69c.34,3.33,1.39,6.87,4.42,9.73l5.52,3.58,13.74-4.72ZM1278.94,270.52v.21l14.75-5.77c.21-1.1.34-2.28.34-3.37,0-1.69-.72-3.24-1.6-4.38-1.56-1.14-3.16-2.02-5.31-2.74-3.88,2.28-8.18,7.08-8.18,16.06Z"/>
    <path class="cls-2" d="M1340.49,281.48l1.14,2.65-13.15,7.71-9.4-.51c-9.99-3.62-13.27-10.87-13.27-18.75,0-13.65,12.64-23.64,25.88-23.64,3.58.55,9.31,4.59,9.31,12.85,0,1.77-.55,3.67-1.94,5.39l-22.25,5.69c.34,3.33,1.39,6.87,4.42,9.73l5.52,3.58,13.74-4.72ZM1316.72,270.52v.21l14.75-5.77c.21-1.1.34-2.28.34-3.37,0-1.69-.72-3.24-1.6-4.38-1.56-1.14-3.16-2.02-5.31-2.74-3.88,2.28-8.18,7.08-8.18,16.06Z"/>
    <path class="cls-2" d="M1366.22,232.42c-4.93,1.05-6.62,5.9-6.83,17.53l12.81-.76-1.1,4.17-11.72-.51v45.08l-9.78,5.1h-.97v-50.18l-5.52.08.46-2.23,5.1-1.81c0-13.57,10.37-19.89,22.21-19.89,1.6,0,3.12.17,4.72.46l1.69,9.19-7.46,3.79-3.62-10.03Z"/>
    <path class="cls-2" d="M1403.27,281.48l1.14,2.65-13.15,7.71-9.4-.51c-9.99-3.62-13.27-10.87-13.27-18.75,0-13.65,12.64-23.64,25.87-23.64,3.58.55,9.31,4.59,9.31,12.85,0,1.77-.55,3.67-1.94,5.39l-22.25,5.69c.34,3.33,1.39,6.87,4.42,9.73l5.52,3.58,13.74-4.72ZM1379.5,270.52v.21l14.75-5.77c.21-1.1.34-2.28.34-3.37,0-1.69-.72-3.24-1.6-4.38-1.56-1.14-3.16-2.02-5.31-2.74-3.88,2.28-8.18,7.08-8.18,16.06Z"/>
    <path class="cls-2" d="M1405.73,292.14l.72-3.71,4.93-.63v-52.34l-5.73.72-.67-2.53,13.19-5.52,3.96,2.06v55.92l5.48,2.36-.88,2.87h-14.41l-6.57.8Z"/>
    <path class="cls-2" d="M1475.5,286.24l-.51,3.83-13.36,2.28c-1.94-1.01-3.12-2.82-3.79-4.47v-2.78l-13.82,7.25c-4.89-1.56-8.64-3.88-11.88-6.83-1.18-3.12-2.15-7-2.15-12.09,0-14.33,11.55-23.64,25.03-24.48.84.38,1.81.84,2.82,1.35v-14.92l-5.73.67-.67-2.53,13.19-5.52,3.92,2.11v50.11c0,2.7.25,6.49,1.31,6.95l5.65-.93ZM1448.66,286.07l9.19-4.42v-22.46l-8.01-5.23c-4.68,2.28-8.89,6.62-8.89,17.07,0,3.75.38,7.54,1.14,10.45l6.57,4.59Z"/>
  </g>
  <g>
    <polygon class="cls-2" points="1214.88 464.09 1197.14 465.61 1197.14 413.18 1204.85 413.18 1205.95 409.47 1179.52 409.47 1178.47 412.34 1184.92 414.7 1184.92 465.06 1179.4 465.69 1178.64 469.4 1185.93 468.6 1223.31 468.6 1226.05 451.36 1219.52 451.36 1214.88 464.09"/>
    <path class="cls-2" d="M1251.27,463.46l-5.52-3.58c-3.03-2.87-4.09-6.41-4.42-9.73l22.25-5.69c1.39-1.73,1.94-3.62,1.94-5.39,0-8.26-5.73-12.31-9.31-12.85-13.23,0-25.88,9.99-25.88,23.64,0,7.88,3.29,15.13,13.27,18.75l9.4.51,13.15-7.71-1.14-2.65-13.74,4.72ZM1241.24,447.78c0-8.98,4.3-13.78,8.18-16.06,2.15.72,3.75,1.6,5.31,2.74.88,1.14,1.6,2.7,1.6,4.38,0,1.1-.13,2.28-.34,3.37l-14.75,5.77v-.21Z"/>
    <path class="cls-2" d="M1312.57,464.43c-1.01-.46-1.35-4.42-1.26-6.07v-30.05l-3.96-2.11-13.19,5.56.67,2.49,5.73-.67v25.12l-9.57,4.64-5.52-4.38c-.21-.67-.29-1.31-.29-2.4v-28.24l-3.96-2.11-13.19,5.56.67,2.49,5.73-.67v26.63c.38,4.38,8.26,9.31,11.88,9.4l14.24-7.33v2.87c.72,1.64,1.9,3.46,3.79,4.47l13.61-2.28-.88-3.5-4.51.59Z"/>
    <path class="cls-2" d="M1340.72,462.57l-3.5-3.2c-.25-.55-.34-1.22-.34-2.02v-27.22l11.13.42.76-4.26-11.88.93.51-9.95c-.51-.29-5.06-1.14-5.86-1.01l-4.26,9.23-6.19,2.28-.42,2.44,5.52-.08v30.34c0,3.62,6.19,9.14,10.58,9.14-.17-.08,10.91-6.32,13.23-7.96l-1.05-2.19-8.22,3.12Z"/>
    <path class="cls-2" d="M1388.2,464.43c-1.01-.46-1.35-4.42-1.31-6.07v-21.83c-2.28-6.62-10.41-9.44-13.78-10.32l-19.26,7.42.04.04h-.04l3.96,10.96,7.67-2.99c-.72-2.32-1.35-5.23-1.64-7.75l4.34-1.39c3.08.84,6.66,3.08,8.01,5.44v8.77l-22.29,6.7c-.63,1.81-.88,3.08-.88,4.3,0,5.6,3.16,9.73,8.47,11.93l14.71-7.12v2.65c.67,1.64,1.85,3.46,3.79,4.47l13.61-2.28-.88-3.5-4.51.59ZM1376.19,459.54l-9.23,3.67c-1.26-.8-3.5-2.23-3.5-6.45,0-1.18.34-2.36.93-2.99l11.8-4.38v10.16Z"/>
    <path class="cls-2" d="M1412.3,431.09l8.39,7.12,7.46-5.56-8.3-6.45c-13.27,0-21.45,4.93-21.45,12.26,0,6.24,4.76,9.19,8.77,11.5l3.5,2.28c4.42,2.57,7.12,4.26,7.12,7.42,0,2.95-1.6,4.93-6.24,4.93l-8.81-7.33-7.46,5.52,8.77,6.74c14.12,0,23.52-4.05,23.52-12.43,0-5.18-5.82-9.02-10.91-12.05l-3.33-2.15c-3.58-2.02-5.18-3.92-5.18-6.74,0-2.15,1.39-5.06,4.17-5.06Z"/>
    <path class="cls-2" d="M1450.57,431.73l8.72,7.84,8.22-5.86-9.31-7.5c-15.17.34-26.89,10.2-26.89,23.6,0,8.01,3.29,15.17,13.27,18.8l9.4.51,13.15-7.71-1.14-2.65-13.7,4.72-5.48-3.54c-3.71-3.46-4.55-8.09-4.55-12.18,0-9.27,4.42-13.95,8.3-16.01Z"/>
    <path class="cls-2" d="M1510.52,463.37v-27.77c-.34-4.38-8.26-9.31-11.88-9.4l-14.24,7.33v-26.21l-3.96-2.11-13.19,5.56.67,2.53,5.73-.72v52.47l-4.93.63-.72,3.71,6.57-.8h13.91l.76-2.87-4.85-1.52v-27.1l9.61-4.64,5.48,4.38c.21.67.34,1.31.34,2.4v25.75l-3.71.63-.55,3.37,5.23-.42h14.33l.88-2.87-5.48-2.36Z"/>
  </g>
  <g>
    <path class="cls-2" d="M1273.44,627.96l6.41,2.36-1.01,2.87h-16.65l-7.29.8.8-3.71,5.48-.63v-32.87l1.31-9.99-18.96,45.39-7.59,1.39-19.55-45.51.67,8.55v31.35l6.45,2.36-1.01,2.87h-8.68l-7.29.8.76-3.71,5.52-.63v-50.36l-6.45-2.36,1.05-2.87h5.39l10.49-.84,19.76,48.97,20.19-48.13h9.14l7.33-.76-.8,3.67-5.48.63v50.36Z"/>
    <path class="cls-2" d="M1309.35,590.79c10.66,3.03,15.42,10.91,15.42,19.3,0,14.33-11.63,23.01-25.16,24.11h-.38c-10.24-2.91-15.42-9.78-15.42-19.47,0-13.78,11.04-21.87,20.35-23.14l5.18-.8ZM1302.65,580.34l-8.81,4.38-4.21-8.6,8.77-4.34,4.26,8.55ZM1305.22,628.38c5.18-2.28,8.55-7.8,8.55-15.34,0-6.15-1.64-10.4-4.34-12.94s-5.82-3.58-5.82-3.58c-5.31,2.23-8.81,7.75-8.81,15.47,0,6.07,1.91,9.75,4.38,12.64,2.47,2.89,6.03,3.75,6.03,3.75ZM1319.29,580.34l-8.81,4.38-4.21-8.6,8.81-4.34,4.21,8.55Z"/>
    <path class="cls-2" d="M1326.06,627.37l7.46-5.52,8.81,7.33c4.64,0,6.24-1.98,6.24-4.93,0-3.16-2.7-4.85-7.12-7.42l-3.5-2.28c-4-2.32-8.77-5.27-8.77-11.5,0-7.33,8.18-12.26,21.45-12.26l8.3,6.45-7.46,5.56-8.39-7.12c-2.78,0-4.17,2.91-4.17,5.06,0,2.82,1.6,4.72,5.18,6.74l3.33,2.15c5.1,3.03,10.91,6.87,10.91,12.05,0,8.39-9.4,12.43-23.52,12.43l-8.77-6.74Z"/>
    <path class="cls-2" d="M1396.78,623.32l1.14,2.65-13.15,7.71-9.4-.51c-9.99-3.62-13.27-10.87-13.27-18.75,0-13.65,12.64-23.64,25.88-23.64,3.58.55,9.31,4.59,9.31,12.85,0,1.77-.55,3.67-1.94,5.39l-22.25,5.69c.34,3.33,1.39,6.87,4.42,9.73l5.52,3.58,13.74-4.72ZM1373.01,612.36v.21l14.75-5.77c.21-1.1.34-2.28.34-3.37,0-1.69-.72-3.24-1.6-4.38-1.56-1.14-3.16-2.02-5.31-2.74-3.88,2.28-8.18,7.08-8.18,16.06Z"/>
    <path class="cls-2" d="M1418.23,601.74v26.21l6.45,2.32-1.01,2.91-15.13.04-7.29.8.76-3.71,5.48-.63v-31.48l-5.73.67-.67-2.49,13.19-5.56,3.96,2.11v5.35l10.62-7.5c1.69,0,4.89,1.64,8.13,4l-5.48,8.18c-2.53-2.36-3.83-3.46-6.95-5.44l-6.32,4.21Z"/>
    <path class="cls-2" d="M1482.64,627.96l5.48,2.36-.88,2.87h-14.33l-5.23.42.55-3.37,3.71-.63v-25.75c0-1.1-.13-1.73-.34-2.4l-5.48-4.38-9.61,4.64v27.18l4.85,1.47-.76,2.82h-13.91l-6.57.8.72-3.71,4.93-.63v-31.48l-5.73.72-.67-2.53,13.19-5.56,3.96,2.11v5.27l14.24-7.37c3.62.08,11.55,5.01,11.88,9.4v27.77Z"/>
  </g>
  <g>
    <path class="cls-2" d="M1273.14,775.01l-6.91-.17v19.68l6.45,2.36-1.01,2.87h-16.65l-7.29.8.76-3.71,5.52-.63v-50.36l-6.45-2.36,1.05-2.87h5.39l28.19-1.01c7.92,3.03,14.2,7.59,14.2,16.35s-6.95,16.01-16.27,18.33l3.03.88,17.78,20.31,1.05,2.28-10.41,4.42-18.46-27.18ZM1274.19,743.49l-7.96.97v25.07l10.37,2.32c4.55-1.69,7.96-7.29,7.96-13.23,0-5.56-.84-8.93-2.82-11.38l-7.54-3.75Z"/>
    <path class="cls-2" d="M1337.66,789.89l1.14,2.65-13.15,7.71-9.4-.51c-9.99-3.62-13.27-10.87-13.27-18.75,0-13.65,12.64-23.64,25.88-23.64,3.58.55,9.31,4.59,9.31,12.85,0,1.77-.55,3.67-1.94,5.39l-22.25,5.69c.34,3.33,1.39,6.87,4.42,9.73l5.52,3.58,13.74-4.72ZM1313.89,778.93v.21l14.75-5.77c.21-1.1.34-2.28.34-3.37,0-1.69-.72-3.24-1.6-4.38-1.56-1.14-3.16-2.02-5.31-2.74-3.88,2.28-8.18,7.08-8.18,16.06Z"/>
    <path class="cls-2" d="M1342.72,800.55l.72-3.71,4.93-.63v-31.48l-5.73.72-.67-2.53,13.19-5.56,3.96,2.11v35.06l5.48,2.36-.88,2.87h-14.41l-6.57.8ZM1351.69,752.21l-4.64-9.48,9.69-4.8,4.68,9.48-9.73,4.8Z"/>
    <path class="cls-2" d="M1373.59,761.27l-5.52.08.42-2.44,6.19-2.28,4.26-9.23c.8-.13,5.35.72,5.86,1.01l-.51,9.95,11.88-.93-.76,4.26-11.13-.42v27.22c0,.8.08,1.47.34,2.02l3.5,3.2,8.22-3.12,1.05,2.19c-2.32,1.64-13.4,7.88-13.23,7.96-4.38,0-10.58-5.52-10.58-9.14v-30.34Z"/>
    <path class="cls-2" d="M1441.44,794.52l5.48,2.36-.88,2.87h-14.33l-5.23.42.55-3.37,3.71-.63v-25.75c0-1.1-.13-1.73-.34-2.4l-5.48-4.38-9.61,4.64v27.1l4.85,1.52-.76,2.87h-13.91l-6.57.8.72-3.71,4.93-.63v-52.47l-5.73.72-.67-2.53,13.19-5.56,3.96,2.11v26.21l14.24-7.33c3.62.08,11.55,5.01,11.88,9.4v27.77Z"/>
  </g>
  <g>
    <path class="cls-2" d="M1165.09,959.15l8.64-6.95,13.65,11.29c7-.25,11.8-2.7,11.8-8.43s-4.55-8.64-13.23-13.02l-2.91-1.47c-7.25-3.67-14.96-8.64-14.96-16.6,0-11.04,11.67-16.35,28.45-16.35l13.02,9.23-8.6,6.91-13.06-10.91c-3.71.55-8.51,3.54-8.51,8.51,0,4.26,3.54,6.95,9.14,9.82l2.74,1.39c8.77,4.42,19.22,9.9,19.22,18.88,0,11.21-13.36,17.28-31.82,17.28l-13.57-9.57Z"/>
    <path class="cls-2" d="M1236.82,968.25l-9.4-.51c-9.99-3.62-13.27-10.79-13.27-18.8,0-13.4,11.72-23.26,26.89-23.6l9.31,7.5-8.22,5.86-8.72-7.84c-3.88,2.06-8.3,6.74-8.3,16.01,0,4.09.84,8.72,4.55,12.18l5.48,3.54,13.7-4.72,1.14,2.65-13.15,7.71Z"/>
    <path class="cls-2" d="M1295.08,962.52l5.48,2.36-.88,2.87h-14.33l-5.23.42.55-3.37,3.71-.63v-25.75c0-1.1-.13-1.73-.34-2.4l-5.48-4.38-9.61,4.64v27.1l4.85,1.52-.76,2.87h-13.91l-6.57.8.72-3.71,4.93-.63v-52.47l-5.73.72-.67-2.53,13.19-5.56,3.96,2.11v26.21l14.24-7.33c3.62.08,11.55,5.01,11.88,9.4v27.77Z"/>
    <path class="cls-2" d="M1343.04,962.98l.88,3.5-13.61,2.28c-1.94-1.01-3.12-2.82-3.79-4.47v-2.65l-14.71,7.12c-5.31-2.19-8.47-6.32-8.47-11.93,0-1.22.25-2.49.88-4.3l22.29-6.7v-8.77c-1.35-2.36-4.93-4.59-8.01-5.44l-4.34,1.39c.29,2.53.93,5.44,1.64,7.75l-7.67,2.99-3.96-10.96h.04l-.04-.04,19.26-7.42c3.37.88,11.5,3.71,13.78,10.32v21.83c-.04,1.64.29,5.6,1.31,6.07l4.51-.59ZM1317.29,962.35l9.23-3.67v-10.16l-11.8,4.38c-.59.63-.93,1.81-.93,2.99,0,4.21,2.23,5.65,3.5,6.45Z"/>
    <path class="cls-2" d="M1363.44,936.31v26.21l6.45,2.32-1.01,2.91-15.13.04-7.29.8.76-3.71,5.48-.63v-31.48l-5.73.67-.67-2.49,13.19-5.56,3.96,2.11v5.35l10.62-7.5c1.69,0,4.89,1.64,8.13,4l-5.48,8.18c-2.53-2.36-3.83-3.46-6.95-5.44l-6.32,4.21Z"/>
    <path class="cls-2" d="M1426.13,962.52l5.48,2.36-.88,2.87h-14.33l-5.23.42.55-3.37,3.71-.63v-25.75c0-1.1-.13-1.73-.34-2.4l-5.48-4.38-9.61,4.64v27.18l4.85,1.47-.76,2.82h-13.91l-6.57.8.72-3.71,4.93-.63v-31.48l-5.73.72-.67-2.53,13.19-5.56,3.96,2.11v5.27l14.24-7.37c3.62.08,11.55,5.01,11.88,9.4v27.77Z"/>
    <path class="cls-2" d="M1435.49,968.54l.72-3.71,4.93-.63v-31.48l-5.73.72-.67-2.53,13.19-5.56,3.96,2.11v35.06l5.48,2.36-.88,2.87h-14.41l-6.57.8ZM1444.46,920.21l-4.64-9.48,9.69-4.8,4.68,9.48-9.73,4.8Z"/>
    <path class="cls-2" d="M1466.36,929.27l-5.52.08.42-2.44,6.19-2.28,4.26-9.23c.8-.13,5.35.72,5.86,1.01l-.51,9.95,11.88-.93-.76,4.26-11.13-.42v27.22c0,.8.08,1.47.34,2.02l3.5,3.2,8.22-3.12,1.05,2.19c-2.32,1.64-13.4,7.88-13.23,7.96-4.38,0-10.58-5.52-10.58-9.14v-30.34Z"/>
    <path class="cls-2" d="M1518.34,964.12l3.41-8.64,6.78-.51-1.56,12.68-2.61,1.1-20.65-1.81-6.19,1.81-5.65-2.95,25.12-35.99-13.44.17c-.55,1.69-.8,5.9-.51,8.68l-7,.51-1.85-12.6,2.78-1.22,20.78,1.81,5.1-1.81,6.53,2.78-25.03,36.16,13.99-.17Z"/>
  </g>
  <polyline class="cls-5" points="23 153 23 111.56 770 111.56 770 153"/>
  <polyline class="cls-5" points="1118 153 1118 111.56 1575.5 111.56 1575.5 153"/>
  <text class="cls-7" transform="translate(274.94 59.99)"><tspan x="0" y="0">M</tspan><tspan class="cls-6" x="43.79" y="0">a</tspan><tspan x="67.1" y="0">r</tspan><tspan class="cls-1" x="86.95" y="0">k</tspan><tspan x="111.05" y="0">enlogo</tspan></text>
  <text class="cls-7" transform="translate(1151.18 59.99)"><tspan x="0" y="0">O</tspan><tspan class="cls-3" x="32.5" y="0">r</tspan><tspan x="52.87" y="0">tsbezeic</tspan><tspan class="cls-6" x="210.28" y="0">h</tspan><tspan x="237.9" y="0">nungen</tspan></text>
</svg>