<?xml version="1.0" encoding="UTF-8"?>
<svg xmlns="http://www.w3.org/2000/svg" version="1.1" viewBox="0 0 1600 889.5">
  <defs>
    <style>
      .cls-1 {
        fill: #ead5a1;
      }

      .cls-2 {
        isolation: isolate;
      }

      .cls-3 {
        fill: #181716;
      }
    </style>
  </defs>
  <!-- Generator: Adobe Illustrator 28.7.0, SVG Export Plug-In . SVG Version: 1.2.0 Build 55)  -->
  <g>
    <g id="Ebene_1">
      <g class="cls-2">
        <g class="cls-2">
          <path class="cls-3" d="M24.7,696.8h36.5v86.6l71.6-86.6h46.7l-77.5,88.2,82.1,101.4h-46.9l-75.9-100.3v100.3H24.7v-189.6Z"/>
          <path class="cls-3" d="M306.6,847l-23.9-30.6c-3.8.5-8.9.8-13.1.8h-18.5v69.2h-36.7v-189.6h69.2c40.2,0,68.7,18.8,68.7,59.5s-10.2,40.8-32.5,51.5l21.7,26.3c11.3,13.1,22.5,22.3,42.4,27.6l-8.3,28.2c-31.7-2.4-50.2-19.8-68.9-42.9ZM271.2,790.4c27.9,0,43.2-10.5,43.2-32.7s-10.7-31.9-36.7-31.9h-26.6v64.6h20.1Z"/>
          <path class="cls-3" d="M462.4,696.8h47.5l65.7,189.6h-38.4l-20.7-61.4h-68.4l-23.3,61.4h-37.3l74.8-189.6ZM507.5,797.9l-22.8-77.8-26.3,77.8h49.1Z"/>
          <path class="cls-3" d="M607.8,696.8h45.6l57.7,159.3,65.2-159.3h43.5v189.6h-36.7v-92l1.6-38.9h-1.1l-51.8,130.9h-43.7l-44.8-131.2h-1.1l2.1,37.6v93.6h-36.5v-189.6Z"/>
          <path class="cls-3" d="M859.1,875.1l10.7-27.9c15.6,6.7,28.7,11.8,48.6,11.8s37.6-8.6,37.6-24.9c0-37.3-91.5-24.9-91.5-88.5s31.7-51.8,63.8-51.8,41.6,5.6,54.5,13.1l-10.7,27.1c-13.1-5.9-24.9-9.7-42.6-9.7s-29,7.8-29,21.5c0,31.9,92.5,27.6,92.5,86.6s-36.2,57.1-74.6,57.1-46.4-7.2-59.3-14.5Z"/>
          <path class="cls-3" d="M1080.2,696.8h47.5l65.7,189.6h-38.4l-20.7-61.4h-68.4l-23.3,61.4h-37.3l74.8-189.6ZM1125.2,797.9l-22.8-77.8-26.3,77.8h49.1Z"/>
          <path class="cls-3" d="M1213.5,792.8c0-60.6,38.1-99,101.7-99s44.5,5.6,57.4,11.5l-10.2,27.1c-16.4-4.8-25.5-7.5-46.7-7.8-36.5-.3-64.6,19.8-64.6,65.4s29.2,68.1,69.7,68.1,30.6-2.1,44.3-6.2l8,28.2c-16.1,5.9-31.7,9.4-56.9,9.4-67.1,0-102.7-36.7-102.7-96.8Z"/>
          <path class="cls-3" d="M1412.8,696.8h36.5v80.2h89.6v-80.2h36.5v189.6h-36.5v-81h-89.6v81h-36.5v-189.6Z"/>
        </g>
      </g>
      <g>
        <path class="cls-1" d="M758.1,559.2c16.7,11.8,28.2,11.3,44.3-1.2,69.7-54.6,140-108,210.8-160.8,14.9-11.1,20.2-23.5,20.1-43.3V67.4c0-16.5-13.6-26.6-31.6-26.9-18-.3-280.7,16.8-411.3,80.6-17.7,8.7-24.6,19-22.9,42.2,12.3,165.5,30.2,297.3,190.6,395.8"/>
        <g>
          <path class="cls-3" d="M974.4,332.4h-26.6s.3-39.8,0-42.7c-.8-6.4-5.1-8.8-11-10.3-.5-.1-1.3,0-1.7.3-2.7,1.9-5.2,3.8-7.8,5.8-.4.3-.7,1-.7,1.4,0,10.8.1,45.4.1,45.4h-26.6v-93.8c4.2-.6,17.1-2.6,19.3-2.9.6,0,1.3,0,1.8.3,1.4.6,2.8,1.4,4.2,2,1,.4,1.2.9,1.2,1.9,0,15.2,0,31.8,0,31.8,2.4-2.1,12-10.4,14.7-12.8.4-.3.9-.6,1.3-.6,10.3.9,19.5,4.1,26.1,12.2,3.9,4.8,5.6,10.4,5.7,16.3.2,10,0,23.4,0,29.9s0,15.8,0,15.8h0Z"/>
          <path class="cls-3" d="M883.4,312.8c1.9,2.5,4.6,6,6.5,8.6-.7.6-1.3,1.3-2,1.9-10.6,9.2-22.9,13.1-37.1,10.5-12.3-2.2-21.5-8.6-27.2-19.5-4-7.7-5-15.9-3.8-24.4,1.1-7.6,4.2-14.4,9.7-20,5.8-5.9,13-9.2,21.1-10.8,10.5-2,20.6-.9,30.3,3.3,2,.9,3.8,2,5.8,3.1.6.3.8.8.7,1.4-.7,6-1.5,12.1-2.1,18.1,0,1-.5,1.1-1.3,1.1-2.1,0-4.2,0-6.2,0-.8,0-1.2-.2-1.5-1-1.2-3.4-2.5-6.8-3.7-10.2-.4-1.3-1.2-2.2-2.4-2.8-2.8-1.5-6.9-2.3-10.5-2.9-3.2-.5-5,.9-6.5,3.1-2.8,4-4.2,8.5-4.9,13.2-.9,5.7-1.3,11.3,0,17,1.5,6.3,3.4,10.8,9,14.7,4.5,3.1,6.3,2.9,9.7,2.1,3.3-.8,11-3.6,16.4-6.6h0Z"/>
          <path class="cls-3" d="M682.3,282.2c2-1.5,4-3,5.9-4.6.7-.6,1.3-.6,2.1-.2,8.5,4.4,13.2,11.4,14.1,20.6.6,6.1,0,12.1-2.2,18-.9,2.4-2.2,4.6-4,6.4-.7.7-1.5,1.1-2.7.9-3.9-.8-12.3-2.4-12.5-2.5-1.3-.3-1.7-1-1.7-2.3,0-5.7,0-11.3,0-17s0-11.5,0-17.3c0-.9.2-1.4.9-2M680.3,238c-1.4-.6-2.8-1.4-4.2-2-.6-.2-1.3-.4-1.9-.3-2.1.3-14.9,2.2-19.1,2.9v94c1.1,0,26.1,1.2,37.6,1.7,4.2.2,8.3-.3,12.3-1.4,10.5-2.8,18.1-8.9,22.1-18.8,3.2-7.9,3.8-16.1,2.7-24.5-1.1-8.3-4.4-15.6-10.5-21.6-6-5.9-13.2-9.4-21.9-9.9-.9,0-2,.3-2.9.9-4.6,3.1-13.1,9.4-13.1,9.4,0,0,0-22,0-28.8,0-.9-.3-1.3-1.1-1.7"/>
          <path class="cls-3" d="M782.5,310.5c-2.2,1.5-9.5,6.9-10.3,7.5-.7.5-1.2.5-1.9,0-5.2-3.5-8.5-8.7-9.1-15.3,0-.9.2-1.3,1-1.7,1.4-.7,4.2-1.9,5.5-2.3,4.4-1.6,8.9-2.6,13.5-3.2.7,0,1.3-.2,2-.3,0,.5,0,9.5,0,13.6,0,.8-.2,1.3-.8,1.7M810,332.5s-.2-32.6-.2-41.2-.4-8-1.5-11.9c-3.1-10.3-10-16.9-20.7-19.6-7.8-2-15.6-1.9-23.4-.5-2.5.5-7.2,1.7-9.6,2.6-3.3,1.1-6.5,2.7-9.5,4.6-.7.5-.9.9-.8,1.7.7,4.6,1.4,9.2,2,13.8,0,.7.5.8,1.1.8,2.4,0,4.9,0,7.3,0,.8,0,1.2-.2,1.6-.9,2.2-3.8,4.3-8.2,6.5-12,.5-.8,1-1.1,2-1.1.6,0,1.3-.2,3.5,0,2.6.1,5,1,7.1,2.4,4.1,2.8,6.1,6.9,7,11.5.3,1.6.2,2.2.2,2.2,0,0-17.9,3-26.1,5.2-5.1,1.4-11,3-16,6.4-3.5,2.4-1.9,13.5-1.6,14.9,3.1,14.3,15.1,23.9,32.5,23.3.6,0,1.3-.3,1.8-.7,3.5-3.1,12.7-11.3,12.7-11.3,0,0,1.8,5.5,2.8,8.8.3.9.7,1.2,1.7,1.2,6.6,0,13.2,0,19.8,0"/>
        </g>
        <g>
          <path class="cls-3" d="M883.8,204c-1,2-2.3,3.8-4.1,5.2-.7.5-1.3.7-2.2.5-5-1.2-9.2-3.6-13-6.8-.3-.3-.5-.9-.5-1.4,0-5,0-10.1,0-15.1s0-10,0-15c0-.9.3-1.5,1-2.1,2.5-1.9,5-3.9,7.4-5.9.8-.6,1.3-.6,2.1-.3,4.1,1.8,6.9,5,8.9,8.7.7,1.3,1.3,2.6,1.8,4,1.8,4.9,2.2,10.1,1.8,15.4-.2,3.3-.7,6.5-1.8,9.6-.4,1.1-.8,2.1-1.3,3.1M863.9,219.5c2.8.4,5.4,1,8.1,1.2,3.5.3,7.2.7,10.6.2,9.2-1.2,16.7-5.7,22.7-12.6,5.8-6.7,8.5-14.7,8.8-23.3.4-8.1-1.3-15.8-5.9-22.7-4.4-6.7-10.6-11.4-18-14.6-3.9-1.6-7.2-2.6-11.5-2.7-.8,0-1.9.4-2.6.9-4.6,3.6-14.6,11-14.6,11,0,0-2.1-6.9-3.4-10.8-.5-1.6-.5-1.6-2.2-1.4-6.1.8-12.1,1.5-18.2,2.3,0,0,0,93,0,93.3,0,.8.4.9.9,1,.3,0,3.6.8,5.6,1.2.7.2,1.6.1,2.3-.1.5-.2,17.5-6.2,17.5-6.2v-16.8c-.1,0-.1,0-.1,0Z"/>
          <path class="cls-3" d="M785,140.2c0,.9.2,1.4,1.2,1.6,2.4.7,4.7,1.5,7.1,2.2.8.2,1.1.6,1.1,1.5,0,3.2,0,78.6,0,78.6h26.3s0-92.6,0-93.1c0-.7-.2-1.1-.8-1.3-1.5-.7-3-1.5-4.5-2.1-.5-.2-1.2-.3-1.8-.2-2.7.4-20.8,3.2-27.2,4.1-1,.1-1.2.5-1.2,1.4,0,2.4,0,4.9,0,7.3"/>
        </g>
        <path class="cls-3" d="M750.2,202.1c-2.2,1.5-9.5,6.9-10.3,7.5-.7.5-1.2.5-1.9,0-5.2-3.5-8.5-8.7-9.1-15.3,0-.9.2-1.3,1-1.7,1.4-.7,4.2-1.9,5.5-2.3,4.4-1.6,8.9-2.6,13.5-3.2.7,0,1.3-.2,2-.3,0,.5,0,9.5,0,13.6,0,.8-.2,1.3-.8,1.7M777.7,224.1s-.2-32.6-.2-41.2-.4-8-1.5-11.9c-3.1-10.3-10-16.9-20.7-19.6-7.8-2-15.6-1.9-23.4-.5-2.5.5-7.2,1.7-9.6,2.6-3.3,1.1-6.5,2.7-9.5,4.6-.7.5-.9.9-.8,1.7.7,4.6,1.4,9.2,2,13.8,0,.7.5.8,1.1.8,2.4,0,4.9,0,7.3,0,.8,0,1.2-.2,1.6-.9,2.2-3.8,4.3-8.2,6.5-12,.5-.8,1-1.1,2-1.1.6,0,1.3-.2,3.5,0,2.6.1,5,1,7.1,2.4,4.1,2.8,6.1,6.9,7,11.5.3,1.6.2,2.2.2,2.2,0,0-17.9,3-26.1,5.2-5.1,1.4-11,3-16,6.4-3.5,2.4-1.9,13.5-1.6,14.9,3.1,14.3,15.1,23.9,32.5,23.3.6,0,1.3-.3,1.8-.7,3.5-3.1,12.7-11.3,12.7-11.3,0,0,1.8,5.6,2.8,8.8.3.9.7,1.2,1.7,1.2,6.6,0,13.2,0,19.8,0"/>
        <g>
          <g>
            <path class="cls-3" d="M758.5,435.1l6,8.2c-6.5,4.6-14.1,6.7-22.9,5.9-4.7-.4-9.3-1.2-13.5-3.4-5.1-2.7-8.2-7-9.9-12.3-2.1-6.5-2.2-13.2-2.2-19.9,0-7.8,0-18,0-25.7,0-.9-.3-1.5-1.2-1.8-2.4-1-4.7-2.1-7.1-3.1-.8-.4-1.1-.8-1.1-1.7,0-2.5,0-4.9,0-7.4,0-.8.2-1.2,1.1-1.5,3.1-.8,6.2-1.6,9.4-2.4.8-.2,1.2-.6,1.7-1.3,4.9-7.1,6.7-9.8,11.8-17.3.6-.8,1-1.1,2.1-1.1h8.5c1,0,1.3.3,1.3,1.2,0,8.4-.1,11.4-.2,19.8,0,1.1.3,1.5,1.5,1.4,7.3,0,16.8,0,16.8,0v11.9s-14.6.9-17.3,1.1c-.7,0-1,.3-.9.9,0,.1,0,.2,0,.4,0,10.1,0,22.6.2,32.7,0,3.8.4,7.5,1.7,11.1,1.3,3.5,3.6,6.5,7.4,6.8,2.2.1,5.1-1.4,6.8-2.2h0Z"/>
            <path class="cls-3" d="M842.6,363c0,.9.2,1.4,1.2,1.6,2.4.7,4.7,1.5,7.1,2.2.8.2,1.1.6,1.1,1.5,0,3.2,0,78.6,0,78.6h26.3s0-92.6,0-93.1c0-.7-.2-1-.8-1.3-1.5-.7-3-1.5-4.5-2.1-.5-.2-1.2-.3-1.8-.2-2.7.4-20.8,3.2-27.2,4.1-1,.1-1.2.5-1.2,1.4,0,2.4,0,4.9,0,7.3"/>
          </g>
          <path class="cls-3" d="M809.7,425c-2.2,1.5-9.5,6.9-10.3,7.5-.7.5-1.2.5-1.9,0-5.2-3.5-8.5-8.7-9.1-15.3,0-.9.2-1.3,1-1.7,1.4-.7,4.2-1.9,5.5-2.3,4.4-1.6,8.9-2.6,13.5-3.2.7,0,1.3-.2,2-.3,0,.5,0,9.5,0,13.6,0,.8-.2,1.3-.8,1.7M837.1,447s-.2-32.6-.2-41.2-.4-8-1.5-11.9c-3.1-10.3-10-16.9-20.7-19.6-7.8-2-15.6-1.9-23.4-.5-2.5.5-7.2,1.7-9.6,2.6-3.3,1.1-6.5,2.7-9.5,4.6-.7.5-.9.9-.8,1.7.7,4.6,1.4,9.2,2,13.8,0,.7.5.8,1.1.8,2.4,0,4.9,0,7.3,0,.8,0,1.2-.2,1.6-.9,2.2-3.8,4.3-8.2,6.5-12,.5-.8,1-1.1,2-1.1.6,0,1.3-.2,3.5,0,2.6.1,5,1,7.1,2.4,4.1,2.8,6.1,6.9,7,11.5.3,1.6.2,2.2.2,2.2,0,0-17.9,3-26.1,5.2-5.1,1.4-11,3-16,6.4-3.5,2.4-1.9,13.5-1.6,14.9,3.1,14.3,15.1,23.9,32.5,23.3.6,0,1.3-.3,1.8-.7,3.5-3.1,12.7-11.3,12.7-11.3,0,0,1.8,5.5,2.8,8.8.3.9.7,1.2,1.7,1.2,6.6,0,13.2,0,19.8,0"/>
        </g>
      </g>
    </g>
  </g>
</svg>