<?xml version="1.0" encoding="UTF-8"?>
<svg id="Ebene_1" data-name="Ebene 1" xmlns="http://www.w3.org/2000/svg" viewBox="0 0 1600 292">
  <defs>
    <style>
      .cls-1 {
        fill: #1d1d1b;
      }

      .cls-1, .cls-2, .cls-3, .cls-4 {
        stroke-width: 0px;
      }

      .cls-2 {
        fill: #000;
      }

      .cls-3 {
        fill: #ead5a1;
      }

      .cls-4 {
        fill: #ebd5a2;
      }
    </style>
  </defs>
  <path class="cls-3" d="M1094.96,106.49c0,22.03-.21,44.07.1,66.1.13,9.24-3.16,16.01-10.57,21.51-13.36,9.91-26.42,20.23-39.49,30.52-16.3,12.85-32.47,25.86-48.73,38.77-2.87,2.28-5.81,4.48-9.69,4.77-4.29.32-7.62-1.82-10.85-4.18-11.61-8.46-22.39-17.89-32.13-28.42-9.32-10.07-17.46-21.07-24.58-32.82-8.59-14.2-15.22-29.26-20.2-45.07-3.46-10.99-6.03-22.19-7.87-33.57-1.64-10.21-3.13-20.41-3.24-30.78-.06-6.44,2.91-10.98,8.49-13.88,17.92-9.29,36.45-17.17,55.39-24.13,20.61-7.58,41.63-13.79,62.98-18.9,15.26-3.66,30.62-6.86,46.13-9.28,6.6-1.03,13.19-2.1,19.78-3.17,7.54-1.23,14.43,4.54,14.44,12.2.02,23.44,0,46.88,0,70.32h.03Z"/>
  <path class="cls-2" d="M311.87,172.18c-.21-.1-.43-.19-.63-.29-1.5-.75-1.92-2.69-.87-3.99.16-.2.34-.38.52-.56,6.93-6.95,13.86-13.9,20.8-20.85.13-.13.28-.24.62-.53-.26-.15-.47-.21-.61-.35-6.97-6.98-13.94-13.97-20.91-20.95-1.06-1.06-1.29-2.29-.64-3.42.8-1.4,2.67-1.75,3.92-.72.18.15.36.32.52.49,7.62,7.63,15.24,15.27,22.85,22.9,1.39,1.39,1.38,2.89,0,4.28-7.51,7.53-15.02,15.05-22.52,22.58-.59.59-1.19,1.16-2.02,1.41h-1.02Z"/>
  <path class="cls-2" d="M762.94,172.18c-.21-.1-.43-.19-.63-.29-1.5-.75-1.92-2.69-.87-3.99.16-.2.34-.38.52-.56,6.93-6.95,13.86-13.9,20.8-20.85.13-.13.28-.24.62-.53-.26-.15-.47-.21-.61-.35-6.97-6.98-13.94-13.97-20.91-20.95-1.06-1.06-1.29-2.29-.64-3.42.8-1.4,2.67-1.75,3.92-.72.18.15.36.32.52.49,7.62,7.63,15.24,15.27,22.85,22.9,1.39,1.39,1.38,2.89,0,4.28-7.51,7.53-15.02,15.05-22.52,22.58-.59.59-1.19,1.16-2.02,1.41h-1.02Z"/>
  <path class="cls-2" d="M1195.24,172.18c-.21-.1-.43-.19-.63-.29-1.5-.75-1.92-2.69-.87-3.99.16-.2.34-.38.52-.56,6.93-6.95,13.86-13.9,20.8-20.85.13-.13.28-.24.62-.53-.26-.15-.47-.21-.61-.35-6.97-6.98-13.94-13.97-20.91-20.95-1.06-1.06-1.29-2.29-.64-3.42.8-1.4,2.67-1.75,3.92-.72.18.15.36.32.52.49,7.62,7.63,15.24,15.27,22.85,22.9,1.39,1.39,1.38,2.89,0,4.28-7.51,7.53-15.02,15.05-22.52,22.58-.59.59-1.19,1.16-2.02,1.41h-1.02Z"/>
  <g>
    <path class="cls-4" d="M1408.92,264.8c7.8,5.48,13.15,5.26,20.62-.57,32.45-25.42,65.23-50.33,98.19-74.89,6.93-5.17,9.41-10.92,9.35-20.17v-.25s0-133.03,0-133.03v-.13c-.02-7.68-6.33-12.4-14.7-12.52-8.38-.12-130.74,7.84-191.57,37.55-8.25,4.03-11.48,8.83-10.68,19.65,5.71,77.11,14.08,138.49,88.79,184.36"/>
    <g>
      <path class="cls-2" d="M1509.69,159.18h-12.4s.14-18.53-.03-19.9c-.38-2.97-2.36-4.12-5.14-4.78-.25-.06-.6.01-.8.16-1.23.87-2.44,1.77-3.64,2.7-.18.14-.33.44-.33.67-.02,5.03.07,21.15.07,21.15h-12.39v-43.69c1.97-.3,7.96-1.23,8.98-1.36.27-.03.59.02.84.13.66.29,1.29.66,1.96.93.44.18.55.43.54.87-.01,7.09,0,14.8,0,14.8,1.1-.96,5.58-4.86,6.86-5.96.17-.14.42-.29.62-.27,4.78.43,9.06,1.9,12.14,5.7,1.8,2.22,2.62,4.82,2.67,7.6.08,4.64.04,10.91.04,13.91s0,7.33,0,7.33Z"/>
      <path class="cls-2" d="M1467.28,150.06c.87,1.17,2.15,2.82,3.03,4.01-.31.3-.59.63-.92.91-4.95,4.31-10.66,6.1-17.27,4.9-5.73-1.04-10.03-4-12.65-9.08-1.85-3.59-2.34-7.42-1.77-11.38.52-3.56,1.95-6.72,4.53-9.34,2.69-2.73,6.04-4.28,9.82-5.01,4.88-.95,9.6-.43,14.13,1.56.93.41,1.79.96,2.69,1.44.27.15.36.35.32.67-.34,2.81-.68,5.63-.98,8.44-.05.45-.23.52-.62.52-.97-.02-1.94-.02-2.91,0-.38,0-.56-.12-.68-.46-.56-1.59-1.18-3.15-1.71-4.75-.21-.63-.58-1.03-1.13-1.33-1.3-.69-3.2-1.07-4.9-1.34-1.48-.23-2.32.41-3.05,1.46-1.32,1.86-1.96,3.95-2.29,6.15-.4,2.64-.62,5.28.03,7.91.72,2.94,1.58,5.05,4.18,6.84,2.12,1.46,2.94,1.35,4.5.97s5.13-1.68,7.65-3.08Z"/>
      <path class="cls-2" d="M1373.61,135.8c.93-.69,1.85-1.4,2.75-2.13.34-.28.61-.28.99-.08,3.96,2.06,6.13,5.29,6.56,9.58.29,2.84,0,5.66-1.02,8.37-.42,1.11-1.01,2.13-1.87,2.98-.34.34-.71.53-1.24.42-1.82-.36-5.71-1.13-5.84-1.16-.61-.13-.78-.47-.77-1.08.04-2.64.02-5.27.02-7.91s0-5.38,0-8.06c0-.4.1-.67.43-.91M1372.68,115.21c-.67-.28-1.29-.65-1.96-.93-.27-.11-.6-.17-.89-.13-1,.12-6.93,1.04-8.91,1.34v43.81c.5.02,12.15.55,17.49.78,1.94.08,3.87-.15,5.75-.65,4.9-1.3,8.41-4.15,10.28-8.76,1.49-3.68,1.77-7.5,1.24-11.39-.52-3.85-2.04-7.26-4.87-10.05-2.79-2.75-6.16-4.37-10.18-4.6-.42-.02-.91.14-1.34.43-2.16,1.45-6.11,4.37-6.11,4.37,0,0,0-10.26,0-13.43,0-.4-.12-.61-.51-.77"/>
      <path class="cls-2" d="M1420.32,148.98c-1.01.71-4.42,3.19-4.8,3.48-.32.23-.54.24-.88.02-2.44-1.62-3.98-4.04-4.23-7.13-.03-.43.11-.61.45-.79.64-.33,1.96-.86,2.56-1.08,2.04-.75,4.14-1.22,6.29-1.52.3-.04.6-.08.95-.12.01.22.03,4.42.04,6.33,0,.37-.1.6-.4.81M1433.08,159.24s-.08-15.21-.08-19.18c0-1.88-.17-3.74-.72-5.56-1.44-4.8-4.68-7.85-9.65-9.15-3.61-.94-7.26-.88-10.91-.22-1.18.21-3.37.81-4.49,1.19-1.55.53-3.04,1.24-4.43,2.16-.32.21-.42.43-.36.8.33,2.14.64,4.28.94,6.42.05.33.23.36.5.36,1.13,0,2.27-.01,3.41,0,.36,0,.57-.11.74-.42,1.01-1.78,2.01-3.82,3.02-5.61.22-.39.49-.5.92-.53.27-.02.62-.08,1.63-.03,1.2.07,2.3.45,3.31,1.13,1.91,1.31,2.85,3.2,3.26,5.36.14.76.11,1.02.11,1.02,0,0-8.34,1.38-12.17,2.44-2.37.66-5.14,1.41-7.45,2.98-1.64,1.12-.9,6.28-.76,6.91,1.46,6.68,7.04,11.14,15.13,10.86.27,0,.62-.13.82-.32,1.62-1.46,5.91-5.26,5.91-5.26,0,0,.86,2.59,1.3,4.07.13.42.33.55.78.55,3.08-.01,6.16,0,9.24,0"/>
    </g>
    <g>
      <path class="cls-2" d="M1467.48,99.36c-.47.93-1.06,1.77-1.92,2.42-.32.24-.63.31-1.03.22-2.31-.55-4.31-1.66-6.07-3.17-.16-.14-.25-.43-.25-.66-.02-2.34,0-4.69,0-7.03s0-4.65-.01-6.98c0-.42.14-.69.48-.95,1.16-.91,2.31-1.82,3.43-2.77.35-.29.62-.28,1-.12,1.93.84,3.2,2.31,4.17,4.07.33.61.6,1.23.83,1.85.84,2.29,1.03,4.7.84,7.17-.12,1.54-.34,3.05-.83,4.5-.17.5-.37.99-.61,1.47M1458.22,106.57c1.3.19,2.52.45,3.75.54,1.65.12,3.33.32,4.95.11,4.3-.56,7.79-2.65,10.56-5.85,2.72-3.13,3.94-6.83,4.11-10.87.17-3.78-.6-7.35-2.73-10.58-2.06-3.12-4.93-5.33-8.4-6.8-1.8-.76-3.38-1.22-5.36-1.25-.39,0-.89.19-1.2.44-2.16,1.69-6.78,5.14-6.78,5.14,0,0-.99-3.2-1.58-5.03-.24-.75-.23-.73-1.03-.63-2.84.37-5.62.72-8.46,1.08,0,0,0,43.33,0,43.46,0,.35.2.43.41.48.12.03,1.66.35,2.6.56.34.08.75.06,1.07-.06.21-.08,8.14-2.91,8.14-2.91l-.05-7.84Z"/>
      <path class="cls-2" d="M1421.44,69.63c-.01.43.1.64.55.76,1.1.32,2.19.71,3.29,1.04.39.12.5.3.5.69,0,1.48.01,36.62.01,36.62h12.23s0-43.14,0-43.37c0-.32-.1-.49-.4-.63-.71-.32-1.39-.69-2.11-1-.25-.11-.57-.15-.84-.11-1.25.17-9.71,1.48-12.69,1.92-.45.06-.57.24-.56.66.03,1.14.03,2.27,0,3.41"/>
    </g>
    <path class="cls-1" d="M1405.27,98.48c-1.01.71-4.42,3.19-4.8,3.48-.32.23-.54.24-.88.02-2.44-1.62-3.98-4.04-4.23-7.13-.03-.43.11-.61.45-.79.64-.33,1.96-.86,2.56-1.08,2.04-.75,4.14-1.22,6.29-1.52.3-.04.6-.08.95-.12.01.22.03,4.42.04,6.33,0,.37-.1.6-.4.81M1418.03,108.74s-.08-15.21-.08-19.18c0-1.88-.17-3.74-.72-5.56-1.44-4.8-4.68-7.85-9.65-9.15-3.61-.94-7.26-.88-10.91-.22-1.18.21-3.37.81-4.49,1.19-1.55.53-3.04,1.24-4.43,2.16-.32.21-.42.43-.36.8.33,2.14.64,4.28.94,6.42.05.33.23.36.5.36,1.13,0,2.27-.01,3.41,0,.36,0,.57-.11.74-.42,1.01-1.78,2.01-3.82,3.02-5.61.22-.39.49-.5.92-.53.27-.02.62-.08,1.63-.03,1.2.07,2.3.45,3.31,1.13,1.91,1.31,2.85,3.2,3.26,5.36.14.76.11,1.02.11,1.02,0,0-8.34,1.38-12.17,2.44-2.37.66-5.14,1.41-7.45,2.98-1.64,1.12-.9,6.28-.76,6.91,1.46,6.68,7.04,11.14,15.13,10.86.27,0,.62-.13.82-.32,1.62-1.46,5.91-5.26,5.91-5.26,0,0,.86,2.59,1.3,4.07.13.42.33.55.78.55,3.08-.01,6.16,0,9.24,0"/>
    <g>
      <g>
        <path class="cls-2" d="M1409.14,207l2.8,3.81c-3.05,2.15-6.58,3.12-10.66,2.75-2.19-.2-4.32-.55-6.27-1.59-2.38-1.28-3.81-3.27-4.59-5.75-.96-3.03-1.02-6.15-1.03-9.27-.02-3.61-.01-8.36,0-11.97,0-.44-.12-.68-.55-.86-1.11-.47-2.19-.96-3.3-1.47-.39-.18-.5-.38-.5-.78,0-1.16.02-2.29,0-3.46,0-.39.1-.57.51-.67,1.45-.36,2.88-.73,4.37-1.11.37-.09.58-.28.79-.59,2.29-3.33,3.12-4.54,5.49-8.07.26-.39.48-.53.96-.53,1.15,0,2.8,0,3.95,0,.47,0,.6.12.6.57-.01,3.9-.05,5.32-.07,9.22,0,.51.13.68.68.67,3.39-.02,7.8-.01,7.8-.01l-.02,5.54s-6.78.42-8.03.49c-.3.02-.45.12-.43.42,0,.05,0,.11,0,.16.02,4.69.03,10.53.08,15.22.02,1.75.19,3.5.79,5.17.59,1.62,1.66,3.03,3.46,3.16,1.01.07,2.39-.63,3.15-1.04Z"/>
        <path class="cls-2" d="M1448.29,173.42c-.01.43.1.64.55.76,1.1.32,2.19.71,3.29,1.04.39.12.5.3.5.69,0,1.48.01,36.62.01,36.62h12.23s0-43.14,0-43.37c0-.32-.1-.49-.4-.63-.71-.32-1.39-.69-2.11-1-.25-.11-.57-.15-.84-.11-1.25.17-9.71,1.48-12.69,1.92-.45.06-.57.24-.56.66.03,1.14.03,2.27,0,3.41"/>
      </g>
      <path class="cls-2" d="M1432.97,202.3c-1.01.71-4.42,3.19-4.8,3.48-.32.23-.54.24-.88.02-2.44-1.62-3.98-4.04-4.23-7.13-.03-.43.11-.61.45-.79.64-.33,1.96-.86,2.56-1.08,2.04-.75,4.14-1.22,6.29-1.52.3-.04.6-.08.95-.12.01.22.03,4.42.04,6.33,0,.37-.1.6-.4.81M1445.74,212.56s-.08-15.21-.08-19.18c0-1.88-.17-3.74-.72-5.56-1.44-4.8-4.68-7.85-9.65-9.15-3.61-.94-7.26-.88-10.91-.22-1.18.21-3.37.81-4.49,1.19-1.55.53-3.04,1.24-4.43,2.16-.32.21-.42.43-.36.8.33,2.14.64,4.28.94,6.42.05.33.23.36.5.36,1.13,0,2.27-.01,3.41,0,.36,0,.57-.11.74-.42,1.01-1.78,2.01-3.82,3.02-5.61.22-.39.49-.5.92-.53.27-.02.62-.08,1.63-.03,1.2.07,2.3.45,3.31,1.13,1.91,1.31,2.85,3.2,3.26,5.36.14.76.11,1.02.11,1.02,0,0-8.34,1.38-12.17,2.44-2.37.66-5.14,1.41-7.45,2.98-1.64,1.12-.9,6.28-.76,6.91,1.46,6.68,7.04,11.14,15.13,10.86.27,0,.62-.13.82-.32,1.62-1.46,5.91-5.26,5.91-5.26,0,0,.86,2.59,1.3,4.07.13.42.33.55.78.55,3.08-.01,6.16,0,9.24,0"/>
    </g>
  </g>
  <g>
    <path class="cls-3" d="M608.77,199.63l-10-73s-74.48,7.76-89.24,10.88c-14.76,3.12-37.23,46.97-35.49,51.54,1.73,4.57,18.73,32.57,26.73,33.57s29.01,0,35.51,0,19.49,2,26.49-3c7-5,39-27,39-27l7,7Z"/>
    <path class="cls-2" d="M576.51,190.31c-6.83,4.79-29.86,21.56-32.46,23.48-2.15,1.57-3.68,1.63-5.91.15-16.51-10.94-26.92-27.33-28.57-48.21-.23-2.92.76-4.11,3.07-5.31,4.32-2.25,13.27-5.84,17.32-7.32,13.77-5.06,27.99-8.24,42.5-10.24,2.05-.29,4.08-.54,6.45-.83.09,1.5.17,29.86.28,42.81.02,2.51-.68,4.07-2.67,5.47M662.77,259.63s-.57-102.77-.57-129.59c0-12.73-1.16-25.3-4.85-37.59-9.74-32.46-31.61-53.07-65.2-61.83-24.38-6.37-49.06-5.95-73.7-1.48-7.97,1.45-22.8,5.48-30.31,8.06-10.5,3.6-20.52,8.39-29.96,14.59-2.18,1.44-2.83,2.88-2.43,5.43,2.25,14.45,4.34,28.93,6.37,43.41.32,2.2,1.54,2.45,3.37,2.43,7.66-.03,15.34-.1,23.02.05,2.46.03,3.82-.72,5.03-2.83,6.86-12.06,13.57-25.8,20.37-37.89,1.49-2.65,3.31-3.36,6.24-3.59,1.83-.14,4.17-.57,10.99-.17,8.12.48,15.57,3.01,22.35,7.65,12.93,8.84,19.26,21.6,22.02,36.19.96,5.1.73,6.9.73,6.9,0,0-56.36,9.34-82.23,16.49-16.01,4.43-34.76,9.5-50.33,20.13-11.05,7.55-6.05,42.45-5.11,46.72,9.84,45.12,47.55,75.29,102.23,73.38,1.84-.06,4.18-.89,5.55-2.13,10.97-9.88,39.93-35.52,39.93-35.52,0,0,5.79,17.47,8.81,27.53.87,2.87,2.2,3.71,5.25,3.69,20.81-.08,41.62-.05,62.43-.05"/>
  </g>
  <g>
    <g>
      <path class="cls-2" d="M211.69,166.55h-12.4s.14-18.53-.03-19.9c-.38-2.97-2.36-4.12-5.14-4.78-.25-.06-.6.01-.8.16-1.23.87-2.44,1.77-3.64,2.7-.18.14-.33.44-.33.67-.02,5.03.07,21.15.07,21.15h-12.39v-43.69c1.97-.3,7.96-1.23,8.98-1.36.27-.03.59.02.84.13.66.29,1.29.66,1.96.93.44.18.55.43.54.87-.01,7.09,0,14.8,0,14.8,1.1-.96,5.58-4.86,6.86-5.96.17-.14.42-.29.62-.27,4.78.43,9.06,1.9,12.14,5.7,1.8,2.22,2.62,4.82,2.67,7.6.08,4.64.04,10.91.04,13.91s0,7.33,0,7.33Z"/>
      <path class="cls-2" d="M169.28,157.43c.87,1.17,2.15,2.82,3.03,4.01-.31.3-.59.63-.92.91-4.95,4.31-10.66,6.1-17.27,4.9-5.73-1.04-10.03-4-12.65-9.08-1.85-3.59-2.34-7.42-1.77-11.38.52-3.56,1.95-6.72,4.53-9.34,2.69-2.73,6.04-4.28,9.82-5.01,4.88-.95,9.6-.43,14.13,1.56.93.41,1.79.96,2.69,1.44.27.15.36.35.32.67-.34,2.81-.68,5.63-.98,8.44-.05.45-.23.52-.62.52-.97-.02-1.94-.02-2.91,0-.38,0-.56-.12-.68-.46-.56-1.59-1.18-3.15-1.71-4.75-.21-.63-.58-1.03-1.13-1.33-1.3-.69-3.2-1.07-4.9-1.34-1.48-.23-2.32.41-3.05,1.46-1.32,1.86-1.96,3.95-2.29,6.15-.4,2.64-.62,5.28.03,7.91.72,2.94,1.58,5.05,4.18,6.84,2.12,1.46,2.94,1.35,4.5.97s5.13-1.68,7.65-3.08Z"/>
      <path class="cls-2" d="M75.61,143.16c.93-.69,1.85-1.4,2.75-2.13.34-.28.61-.28.99-.08,3.96,2.06,6.13,5.29,6.56,9.58.29,2.84,0,5.66-1.02,8.37-.42,1.11-1.01,2.13-1.87,2.98-.34.34-.71.53-1.24.42-1.82-.36-5.71-1.13-5.84-1.16-.61-.13-.78-.47-.77-1.08.04-2.64.02-5.27.02-7.91s0-5.38,0-8.06c0-.4.1-.67.43-.91M74.68,122.57c-.67-.28-1.29-.65-1.96-.93-.27-.11-.6-.17-.89-.13-1,.12-6.93,1.04-8.91,1.34v43.81c.5.02,12.15.55,17.49.78,1.94.08,3.87-.15,5.75-.65,4.9-1.3,8.41-4.15,10.28-8.76,1.49-3.68,1.77-7.5,1.24-11.39-.52-3.85-2.04-7.26-4.87-10.05-2.79-2.75-6.16-4.37-10.18-4.6-.42-.02-.91.14-1.34.43-2.16,1.45-6.11,4.37-6.11,4.37,0,0,0-10.26,0-13.43,0-.4-.12-.61-.51-.77"/>
      <path class="cls-2" d="M122.32,156.35c-1.01.71-4.42,3.19-4.8,3.48-.32.23-.54.24-.88.02-2.44-1.62-3.98-4.04-4.23-7.13-.03-.43.11-.61.45-.79.64-.33,1.96-.86,2.56-1.08,2.04-.75,4.14-1.22,6.29-1.52.3-.04.6-.08.95-.12.01.22.03,4.42.04,6.33,0,.37-.1.6-.4.81M135.08,166.61s-.08-15.21-.08-19.18c0-1.88-.17-3.74-.72-5.56-1.44-4.8-4.68-7.85-9.65-9.15-3.61-.94-7.26-.88-10.91-.22-1.18.21-3.37.81-4.49,1.19-1.55.53-3.04,1.24-4.43,2.16-.32.21-.42.43-.36.8.33,2.14.64,4.28.94,6.42.05.33.23.36.5.36,1.13,0,2.27-.01,3.41,0,.36,0,.57-.11.74-.42,1.01-1.78,2.01-3.82,3.02-5.61.22-.39.49-.5.92-.53.27-.02.62-.08,1.63-.03,1.2.07,2.3.45,3.31,1.13,1.91,1.31,2.85,3.2,3.26,5.36.14.76.11,1.02.11,1.02,0,0-8.34,1.38-12.17,2.44-2.37.66-5.14,1.41-7.45,2.98-1.64,1.12-.9,6.28-.76,6.91,1.46,6.68,7.04,11.14,15.13,10.86.27,0,.62-.13.82-.32,1.62-1.46,5.91-5.26,5.91-5.26,0,0,.86,2.59,1.3,4.07.13.42.33.55.78.55,3.08-.01,6.16,0,9.24,0"/>
    </g>
    <g>
      <path class="cls-2" d="M169.48,106.73c-.47.93-1.06,1.77-1.92,2.42-.32.24-.63.31-1.03.22-2.31-.55-4.31-1.66-6.07-3.17-.16-.14-.25-.43-.25-.66-.02-2.34,0-4.69,0-7.03s0-4.65-.01-6.98c0-.42.14-.69.48-.95,1.16-.91,2.31-1.82,3.43-2.77.35-.29.62-.28,1-.12,1.93.84,3.2,2.31,4.17,4.07.33.61.6,1.23.83,1.85.84,2.29,1.03,4.7.84,7.17-.12,1.54-.34,3.05-.83,4.5-.17.5-.37.99-.61,1.47M160.22,113.93c1.3.19,2.52.45,3.75.54,1.65.12,3.33.32,4.95.11,4.3-.56,7.79-2.65,10.56-5.85,2.72-3.13,3.94-6.83,4.11-10.87.17-3.78-.6-7.35-2.73-10.58-2.06-3.12-4.93-5.33-8.4-6.8-1.8-.76-3.38-1.22-5.36-1.25-.39,0-.89.19-1.2.44-2.16,1.69-6.78,5.14-6.78,5.14,0,0-.99-3.2-1.58-5.03-.24-.75-.23-.73-1.03-.63-2.84.37-5.62.72-8.46,1.08,0,0,0,43.33,0,43.46,0,.35.2.43.41.48.12.03,1.66.35,2.6.56.34.08.75.06,1.07-.06.21-.08,8.14-2.91,8.14-2.91l-.05-7.84Z"/>
      <path class="cls-2" d="M123.44,77c-.01.43.1.64.55.76,1.1.32,2.19.71,3.29,1.04.39.12.5.3.5.69,0,1.48.01,36.62.01,36.62h12.23s0-43.14,0-43.37c0-.32-.1-.49-.4-.63-.71-.32-1.39-.69-2.11-1-.25-.11-.57-.15-.84-.11-1.25.17-9.71,1.48-12.69,1.92-.45.06-.57.24-.56.66.03,1.14.03,2.27,0,3.41"/>
    </g>
    <path class="cls-2" d="M107.27,105.85c-1.01.71-4.42,3.19-4.8,3.48-.32.23-.54.24-.88.02-2.44-1.62-3.98-4.04-4.23-7.13-.03-.43.11-.61.45-.79.64-.33,1.96-.86,2.56-1.08,2.04-.75,4.14-1.22,6.29-1.52.3-.04.6-.08.95-.12.01.22.03,4.42.04,6.33,0,.37-.1.6-.4.81M120.03,116.11s-.08-15.21-.08-19.18c0-1.88-.17-3.74-.72-5.56-1.44-4.8-4.68-7.85-9.65-9.15-3.61-.94-7.26-.88-10.91-.22-1.18.21-3.37.81-4.49,1.19-1.55.53-3.04,1.24-4.43,2.16-.32.21-.42.43-.36.8.33,2.14.64,4.28.94,6.42.05.33.23.36.5.36,1.13,0,2.27-.01,3.41,0,.36,0,.57-.11.74-.42,1.01-1.78,2.01-3.82,3.02-5.61.22-.39.49-.5.92-.53.27-.02.62-.08,1.63-.03,1.2.07,2.3.45,3.31,1.13,1.91,1.31,2.85,3.2,3.26,5.36.14.76.11,1.02.11,1.02,0,0-8.34,1.38-12.17,2.44-2.37.66-5.14,1.41-7.45,2.98-1.64,1.12-.9,6.28-.76,6.91,1.46,6.68,7.04,11.14,15.13,10.86.27,0,.62-.13.82-.32,1.62-1.46,5.91-5.26,5.91-5.26,0,0,.86,2.59,1.3,4.07.13.42.33.55.78.55,3.08-.01,6.16,0,9.24,0"/>
    <g>
      <g>
        <path class="cls-2" d="M111.14,214.36l2.8,3.81c-3.05,2.15-6.58,3.12-10.66,2.75-2.19-.2-4.32-.55-6.27-1.59-2.38-1.28-3.81-3.27-4.59-5.75-.96-3.03-1.02-6.15-1.03-9.27-.02-3.61-.01-8.36,0-11.97,0-.44-.12-.68-.55-.86-1.11-.47-2.19-.96-3.3-1.47-.39-.18-.5-.38-.5-.78,0-1.16.02-2.29,0-3.46,0-.39.1-.57.51-.67,1.45-.36,2.88-.73,4.37-1.11.37-.09.58-.28.79-.59,2.29-3.33,3.12-4.54,5.49-8.07.26-.39.48-.53.96-.53,1.15,0,2.8,0,3.95,0,.47,0,.6.12.6.57-.01,3.9-.05,5.32-.07,9.22,0,.51.13.68.68.67,3.39-.02,7.8-.01,7.8-.01l-.02,5.54s-6.78.42-8.03.49c-.3.02-.45.12-.43.42,0,.05,0,.11,0,.16.02,4.69.03,10.53.08,15.22.02,1.75.19,3.5.79,5.17.59,1.62,1.66,3.03,3.46,3.16,1.01.07,2.39-.63,3.15-1.04Z"/>
        <path class="cls-2" d="M150.29,180.78c-.01.43.1.64.55.76,1.1.32,2.19.71,3.29,1.04.39.12.5.3.5.69,0,1.48.01,36.62.01,36.62h12.23s0-43.14,0-43.37c0-.32-.1-.49-.4-.63-.71-.32-1.39-.69-2.11-1-.25-.11-.57-.15-.84-.11-1.25.17-9.71,1.48-12.69,1.92-.45.06-.57.24-.56.66.03,1.14.03,2.27,0,3.41"/>
      </g>
      <path class="cls-2" d="M134.97,209.66c-1.01.71-4.42,3.19-4.8,3.48-.32.23-.54.24-.88.02-2.44-1.62-3.98-4.04-4.23-7.13-.03-.43.11-.61.45-.79.64-.33,1.96-.86,2.56-1.08,2.04-.75,4.14-1.22,6.29-1.52.3-.04.6-.08.95-.12.01.22.03,4.42.04,6.33,0,.37-.1.6-.4.81M147.74,219.92s-.08-15.21-.08-19.18c0-1.88-.17-3.74-.72-5.56-1.44-4.8-4.68-7.85-9.65-9.15-3.61-.94-7.26-.88-10.91-.22-1.18.21-3.37.81-4.49,1.19-1.55.53-3.04,1.24-4.43,2.16-.32.21-.42.43-.36.8.33,2.14.64,4.28.94,6.42.05.33.23.36.5.36,1.13,0,2.27-.01,3.41,0,.36,0,.57-.11.74-.42,1.01-1.78,2.01-3.82,3.02-5.61.22-.39.49-.5.92-.53.27-.02.62-.08,1.63-.03,1.2.07,2.3.45,3.31,1.13,1.91,1.31,2.85,3.2,3.26,5.36.14.76.11,1.02.11,1.02,0,0-8.34,1.38-12.17,2.44-2.37.66-5.14,1.41-7.45,2.98-1.64,1.12-.9,6.28-.76,6.91,1.46,6.68,7.04,11.14,15.13,10.86.27,0,.62-.13.82-.32,1.62-1.46,5.91-5.26,5.91-5.26,0,0,.86,2.59,1.3,4.07.13.42.33.55.78.55,3.08-.01,6.16,0,9.24,0"/>
    </g>
  </g>
</svg>