<?xml version="1.0" encoding="UTF-8"?>
<svg id="Ebene_1" data-name="Ebene 1" xmlns="http://www.w3.org/2000/svg" xmlns:xlink="http://www.w3.org/1999/xlink" version="1.1" viewBox="0 0 1600 2199.5">
  <defs>
    <style>
      .cls-1 {
        clip-path: url(#clippath);
      }

      .cls-2 {
        fill: none;
      }

      .cls-2, .cls-3, .cls-4, .cls-5, .cls-6 {
        stroke-width: 0px;
      }

      .cls-3 {
        fill: #1d1d1b;
      }

      .cls-7 {
        isolation: isolate;
      }

      .cls-4 {
        fill: #181716;
      }

      .cls-5 {
        fill: #ead5a1;
      }

      .cls-6 {
        fill: #ecd7a3;
      }
    </style>
    <clipPath id="clippath">
      <rect class="cls-2" x="288.8" y="1239.5" width="161.5" height="182.7"/>
    </clipPath>
  </defs>
  <g>
    <g>
      <g class="cls-7">
        <g class="cls-7">
          <path class="cls-4" d="M170.7,239.9h16.5l22.8,65.7h-13.3l-7.2-21.3h-23.7l-8.1,21.3h-12.9l25.9-65.7ZM186.3,275l-7.9-27-9.1,27h17Z"/>
          <path class="cls-4" d="M221.1,239.9h12.6v55.5h28.5v10.2h-41.2v-65.7Z"/>
          <path class="cls-4" d="M273.5,239.9h24c14.1,0,23.8,8.1,23.8,22.3s-9.7,22.9-28.6,22.9h-5.4v-10h6c9.9,0,14.9-4.8,14.9-12.6s-3.5-12.6-12.6-12.6h-9.2v55.7h-12.7v-65.7Z"/>
          <path class="cls-4" d="M334.1,239.9h21.1c15.6,0,23.2,6.2,23.2,17.5s-3.6,10.9-7.8,12.7v.2c5.3,1.3,12.6,6.4,12.6,15.6s-6.8,19.7-25.2,19.7h-23.9v-65.7ZM354.7,267.6c7.4,0,11.2-2.6,11.2-8.9s-4.5-9-12.8-9h-6.1v17.9h7.8ZM356.8,295.6c8.7,0,13.7-2.2,13.7-9.3s-5-9.7-14.9-9.7h-8.7v19h9.9Z"/>
          <path class="cls-4" d="M414.3,239.9h16.5l22.8,65.7h-13.3l-7.2-21.3h-23.7l-8.1,21.3h-12.9l25.9-65.7ZM429.9,275l-7.9-27-9.1,27h17Z"/>
          <path class="cls-4" d="M460.5,273.2c0-21,13.2-34.3,35.2-34.3s15.4,2,19.9,4l-3.5,9.4c-5.7-1.7-8.8-2.6-16.2-2.7-12.6,0-22.4,6.9-22.4,22.7s10.1,23.6,24.2,23.6,10.6-.7,15.3-2.1l2.8,9.8c-5.6,2-11,3.3-19.7,3.3-23.2,0-35.6-12.7-35.6-33.6Z"/>
          <path class="cls-4" d="M529.6,239.9h12.6v27.8h31.1v-27.8h12.6v65.7h-12.6v-28.1h-31.1v28.1h-12.6v-65.7Z"/>
        </g>
      </g>
      <g>
        <path class="cls-5" d="M355.4,190.8c5.8,4.1,9.8,3.9,15.4-.4,24.1-18.9,48.5-37.5,73.1-55.7,5.2-3.9,7-8.1,7-15V20.4h0c0-5.8-4.7-9.3-10.9-9.4-6.2,0-97.3,5.8-142.6,28-6.1,3-8.5,6.6-8,14.6,4.2,57.4,10.5,103.1,66.1,137.2"/>
        <g>
          <path class="cls-4" d="M430.4,112.2h-9.2s.1-13.8,0-14.8c-.3-2.2-1.8-3.1-3.8-3.6-.2,0-.5,0-.6.1-.9.7-1.8,1.3-2.7,2-.1.1-.2.3-.2.5,0,3.8,0,15.7,0,15.7h-9.2v-32.5c1.5-.2,5.9-.9,6.7-1,.2,0,.4,0,.6,0,.5.2,1,.5,1.5.7.3.1.4.3.4.6v11c.8-.7,4.1-3.6,5.1-4.4.1-.1.3-.2.5-.2,3.6.3,6.7,1.4,9,4.2,1.3,1.7,2,3.6,2,5.7,0,3.4,0,8.1,0,10.3v5.5h0Z"/>
          <path class="cls-4" d="M398.8,105.4c.6.9,1.6,2.1,2.3,3-.2.2-.4.5-.7.7-3.7,3.2-7.9,4.5-12.9,3.6-4.3-.8-7.5-3-9.4-6.8-1.4-2.7-1.7-5.5-1.3-8.5.4-2.7,1.5-5,3.4-6.9,2-2,4.5-3.2,7.3-3.7,3.6-.7,7.1-.3,10.5,1.2.7.3,1.3.7,2,1.1.2.1.3.3.2.5-.2,2.1-.5,4.2-.7,6.3,0,.3-.2.4-.5.4-.7,0-1.4,0-2.2,0-.3,0-.4,0-.5-.3-.4-1.2-.9-2.3-1.3-3.5-.1-.5-.4-.8-.8-1-1-.5-2.4-.8-3.6-1-1.1-.2-1.7.3-2.3,1.1-1,1.4-1.5,2.9-1.7,4.6-.3,2-.5,3.9,0,5.9.5,2.2,1.2,3.8,3.1,5.1,1.6,1.1,2.2,1,3.4.7s3.8-1.2,5.7-2.3h0Z"/>
          <path class="cls-4" d="M329.1,94.8c.7-.5,1.4-1,2-1.6.2-.2.5-.2.7,0,3,1.5,4.6,3.9,4.9,7.1.2,2.1,0,4.2-.8,6.2-.3.8-.8,1.6-1.4,2.2-.3.3-.5.4-.9.3-1.4-.3-4.2-.8-4.3-.9-.5,0-.6-.3-.6-.8,0-2,0-3.9,0-5.9v-6c0-.3,0-.5.3-.7M328.4,79.4c-.5-.2-1-.5-1.5-.7-.2,0-.5-.1-.7,0-.7,0-5.1.8-6.6,1v32.6c.4,0,9,.4,13,.6,1.5,0,2.9-.1,4.3-.5,3.6-1,6.3-3.1,7.6-6.5,1.1-2.7,1.3-5.6.9-8.5-.4-2.9-1.5-5.4-3.6-7.5-2.1-2.1-4.6-3.2-7.6-3.4-.3,0-.7.1-1,.3-1.6,1.1-4.5,3.2-4.5,3.2v-10c0-.3,0-.5-.4-.6"/>
          <path class="cls-4" d="M363.8,104.6c-.8.5-3.3,2.4-3.6,2.6-.2.2-.4.2-.6,0-1.8-1.2-3-3-3.1-5.3,0-.3,0-.4.3-.6.5-.2,1.5-.6,1.9-.8,1.5-.6,3.1-.9,4.7-1.1.2,0,.5,0,.7,0,0,.2,0,3.3,0,4.7,0,.3,0,.4-.3.6M373.3,112.2s0-11.3,0-14.3-.1-2.8-.5-4.1c-1.1-3.6-3.5-5.8-7.2-6.8-2.7-.7-5.4-.7-8.1-.2-.9.2-2.5.6-3.3.9-1.2.4-2.3.9-3.3,1.6-.2.2-.3.3-.3.6.2,1.6.5,3.2.7,4.8,0,.2.2.3.4.3.8,0,1.7,0,2.5,0,.3,0,.4,0,.5-.3.8-1.3,1.5-2.8,2.2-4.2.2-.3.4-.4.7-.4.2,0,.5,0,1.2,0,.9,0,1.7.3,2.5.8,1.4,1,2.1,2.4,2.4,4,.1.6,0,.8,0,.8,0,0-6.2,1-9.1,1.8-1.8.5-3.8,1.1-5.5,2.2-1.2.8-.7,4.7-.6,5.2,1.1,5,5.2,8.3,11.3,8.1.2,0,.5,0,.6-.2,1.2-1.1,4.4-3.9,4.4-3.9,0,0,.6,1.9,1,3,.1.3.2.4.6.4h6.9"/>
        </g>
        <g>
          <path class="cls-4" d="M398.9,67.7c-.4.7-.8,1.3-1.4,1.8-.2.2-.5.2-.8.2-1.7-.4-3.2-1.2-4.5-2.4-.1,0-.2-.3-.2-.5,0-1.7,0-3.5,0-5.2v-5.2c0-.3.1-.5.4-.7.9-.7,1.7-1.4,2.5-2.1.3-.2.5-.2.7,0,1.4.6,2.4,1.7,3.1,3,.2.5.5.9.6,1.4.6,1.7.8,3.5.6,5.3,0,1.1-.2,2.3-.6,3.3-.1.4-.3.7-.5,1.1M392,73c1,.1,1.9.3,2.8.4,1.2,0,2.5.2,3.7,0,3.2-.4,5.8-2,7.9-4.3,2-2.3,2.9-5.1,3.1-8.1.1-2.8-.5-5.5-2-7.9-1.5-2.3-3.7-4-6.3-5.1-1.3-.6-2.5-.9-4-.9-.3,0-.7.1-.9.3-1.6,1.3-5,3.8-5,3.8,0,0-.7-2.4-1.2-3.7-.2-.6-.2-.5-.8-.5-2.1.3-4.2.5-6.3.8v32.3c0,.3.1.3.3.3,0,0,1.2.3,1.9.4.3,0,.6,0,.8,0,.2,0,6.1-2.2,6.1-2.2v-5.8s0,0,0,0Z"/>
          <path class="cls-4" d="M364.7,45.5c0,.3,0,.5.4.6.8.2,1.6.5,2.5.8.3,0,.4.2.4.5v27.2h9.1v-32.3c0-.2,0-.4-.3-.5-.5-.2-1-.5-1.6-.7-.2,0-.4-.1-.6,0-.9.1-7.2,1.1-9.4,1.4-.3,0-.4.2-.4.5,0,.8,0,1.7,0,2.5"/>
        </g>
        <path class="cls-4" d="M352.6,67c-.8.5-3.3,2.4-3.6,2.6-.2.2-.4.2-.6,0-1.8-1.2-3-3-3.1-5.3,0-.3,0-.5.3-.6.5-.2,1.5-.6,1.9-.8,1.5-.6,3.1-.9,4.7-1.1.2,0,.5,0,.7,0,0,.2,0,3.3,0,4.7,0,.3,0,.4-.3.6M362.1,74.6s0-11.3,0-14.3-.1-2.8-.5-4.1c-1.1-3.6-3.5-5.8-7.2-6.8-2.7-.7-5.4-.7-8.1-.2-.9.2-2.5.6-3.3.9-1.2.4-2.3.9-3.3,1.6-.2.2-.3.3-.3.6.2,1.6.5,3.2.7,4.8,0,.2.2.3.4.3.8,0,1.7,0,2.5,0,.3,0,.4,0,.5-.3.8-1.3,1.5-2.8,2.2-4.2.2-.3.4-.4.7-.4.2,0,.5,0,1.2,0,.9,0,1.7.3,2.5.8,1.4,1,2.1,2.4,2.4,4,.1.6,0,.8,0,.8,0,0-6.2,1-9.1,1.8-1.8.5-3.8,1-5.5,2.2-1.2.8-.7,4.7-.6,5.2,1.1,5,5.2,8.3,11.3,8.1.2,0,.5,0,.6-.2,1.2-1.1,4.4-3.9,4.4-3.9,0,0,.6,1.9,1,3,.1.3.2.4.6.4h6.9"/>
        <g>
          <g>
            <path class="cls-4" d="M355.5,147.8l2.1,2.8c-2.3,1.6-4.9,2.3-7.9,2-1.6-.1-3.2-.4-4.7-1.2-1.8-.9-2.8-2.4-3.4-4.3-.7-2.2-.8-4.6-.8-6.9,0-2.7,0-6.2,0-8.9s0-.5-.4-.6c-.8-.4-1.6-.7-2.5-1.1-.3-.1-.4-.3-.4-.6,0-.9,0-1.7,0-2.6,0-.3,0-.4.4-.5,1.1-.3,2.1-.6,3.2-.8.3,0,.4-.2.6-.4,1.7-2.5,2.3-3.4,4.1-6,.2-.3.4-.4.7-.4h2.9c.4,0,.5,0,.5.4,0,2.9,0,4,0,6.9,0,.4.1.5.5.5,2.5,0,5.8,0,5.8,0v4.1s-5.1.3-6,.4c-.2,0-.3,0-.3.3h0c0,3.6,0,8,0,11.4,0,1.3.1,2.6.6,3.9.4,1.2,1.2,2.3,2.6,2.4.8,0,1.8-.5,2.4-.8h0Z"/>
            <path class="cls-4" d="M384.7,122.8c0,.3,0,.5.4.6.8.2,1.6.5,2.5.8.3,0,.4.2.4.5v27.2h9.1v-32.3c0-.2,0-.4-.3-.5-.5-.2-1-.5-1.6-.7-.2,0-.4-.1-.6,0-.9.1-7.2,1.1-9.4,1.4-.3,0-.4.2-.4.5,0,.8,0,1.7,0,2.5"/>
          </g>
          <path class="cls-4" d="M373.3,144.3c-.8.5-3.3,2.4-3.6,2.6-.2.2-.4.2-.6,0-1.8-1.2-3-3-3.1-5.3,0-.3,0-.4.3-.6.5-.2,1.5-.6,1.9-.8,1.5-.6,3.1-.9,4.7-1.1.2,0,.5,0,.7,0,0,.2,0,3.3,0,4.7,0,.3,0,.4-.3.6M382.8,151.9s0-11.3,0-14.3-.1-2.8-.5-4.1c-1.1-3.6-3.5-5.8-7.2-6.8-2.7-.7-5.4-.7-8.1-.2-.9.2-2.5.6-3.3.9-1.2.4-2.3.9-3.3,1.6-.2.2-.3.3-.3.6.2,1.6.5,3.2.7,4.8,0,.2.2.3.4.3.8,0,1.7,0,2.5,0,.3,0,.4,0,.5-.3.8-1.3,1.5-2.8,2.2-4.2.2-.3.4-.4.7-.4.2,0,.5,0,1.2,0,.9,0,1.7.3,2.5.8,1.4,1,2.1,2.4,2.4,4,.1.6,0,.8,0,.8,0,0-6.2,1-9.1,1.8-1.8.5-3.8,1.1-5.5,2.2-1.2.8-.7,4.7-.6,5.1,1.1,5,5.2,8.3,11.3,8.1.2,0,.5-.1.6-.2,1.2-1.1,4.4-3.9,4.4-3.9,0,0,.6,1.9,1,3,.1.3.2.4.6.4h6.9"/>
        </g>
      </g>
    </g>
    <g>
      <g class="cls-7">
        <g class="cls-7">
          <path class="cls-4" d="M1031,238.5h21.1c15.6,0,23.2,6.2,23.2,17.5s-3.6,10.9-7.8,12.7v.2c5.3,1.3,12.6,6.4,12.6,15.6s-6.8,19.7-25.2,19.7h-23.9v-65.7ZM1051.5,266.2c7.4,0,11.2-2.6,11.2-8.9s-4.5-9-12.8-9h-6.1v17.9h7.8ZM1053.7,294.2c8.7,0,13.7-2.2,13.7-9.3s-5-9.7-14.9-9.7h-8.7v19h9.9Z"/>
          <path class="cls-4" d="M1126.6,290.6l-8.3-10.6c-1.3.2-3.1.3-4.6.3h-6.4v24h-12.7v-65.7h24c13.9,0,23.8,6.5,23.8,20.6s-3.5,14.1-11.3,17.9l7.5,9.1c3.9,4.6,7.8,7.7,14.7,9.6l-2.9,9.8c-11-.8-17.4-6.9-23.9-14.9ZM1114.3,270.9c9.7,0,15-3.6,15-11.3s-3.7-11.1-12.7-11.1h-9.2v22.4h7Z"/>
          <path class="cls-4" d="M1164,238.5h12.6v65.7h-12.6v-65.7Z"/>
          <path class="cls-4" d="M1210.7,270.1l-20.3-31.6h14.5l13.1,21.9,14-21.9h14.1l-21.5,31.4,22,34.3h-14.7l-14.8-24.6-15.7,24.6h-14.3l23.4-34.1Z"/>
          <path class="cls-4" d="M1258.7,238.5h12.6v55.5h28.5v10.2h-41.2v-65.7Z"/>
          <path class="cls-4" d="M1311.1,238.5h40.7v10h-28.1v17.9h26v9.5h-26v18.2h30.2v10h-42.9v-65.7Z"/>
          <path class="cls-4" d="M1364.6,271.8c0-22.6,12.6-34.2,35.6-34.2s14.7,1.8,19.4,3.8l-3.4,9.5c-5.4-1.6-8.9-2.7-16.1-2.7-12.5,0-22.5,6.4-22.5,22.7s10.8,23.6,23.9,23.6,4.9-.3,6.7-.6v-22.1h12.6v29.8c-6.7,2.5-12.8,3.6-20.7,3.6-21.8,0-35.5-11.5-35.5-33.5Z"/>
          <path class="cls-4" d="M1432.5,271.8c0-22.6,12.6-34.2,35.6-34.2s14.7,1.8,19.4,3.8l-3.4,9.5c-5.4-1.6-8.9-2.7-16.1-2.7-12.5,0-22.5,6.4-22.5,22.7s10.8,23.6,23.9,23.6,4.9-.3,6.7-.6v-22.1h12.6v29.8c-6.7,2.5-12.8,3.6-20.7,3.6-21.8,0-35.5-11.5-35.5-33.5Z"/>
        </g>
      </g>
      <g>
        <path class="cls-5" d="M1243.8,190.8c5.8,4.1,9.8,3.9,15.3-.4,24.2-18.9,48.5-37.5,73.1-55.7,5.2-3.9,7-8.1,7-15V20.4h0c0-5.8-4.7-9.3-10.9-9.4-6.2,0-97.3,5.8-142.6,28-6.1,3-8.5,6.6-7.9,14.6,4.2,57.4,10.5,103.1,66.1,137.2"/>
        <g>
          <path class="cls-4" d="M1318.8,112.2h-9.2s.1-13.8,0-14.8c-.3-2.2-1.8-3.1-3.8-3.6-.2,0-.4,0-.6.1-.9.7-1.8,1.3-2.7,2-.1.1-.2.3-.2.5,0,3.8,0,15.7,0,15.7h-9.2v-32.5c1.5-.2,5.9-.9,6.7-1,.2,0,.4,0,.6,0,.5.2,1,.5,1.5.7.3.1.4.3.4.6v11c.8-.7,4.2-3.6,5.1-4.4.1-.1.3-.2.5-.2,3.6.3,6.7,1.4,9,4.2,1.3,1.7,1.9,3.6,2,5.7,0,3.4,0,8.1,0,10.3v5.5h0Z"/>
          <path class="cls-4" d="M1287.2,105.4c.7.9,1.6,2.1,2.3,3-.2.2-.4.5-.7.7-3.7,3.2-7.9,4.5-12.9,3.6-4.3-.8-7.5-3-9.4-6.8-1.4-2.7-1.7-5.5-1.3-8.5.4-2.7,1.4-5,3.4-6.9,2-2,4.5-3.2,7.3-3.7,3.6-.7,7.1-.3,10.5,1.2.7.3,1.3.7,2,1.1.2.1.3.3.2.5-.2,2.1-.5,4.2-.7,6.3,0,.3-.2.4-.5.4-.7,0-1.4,0-2.2,0-.3,0-.4,0-.5-.3-.4-1.2-.9-2.3-1.3-3.5-.2-.5-.4-.8-.8-1-1-.5-2.4-.8-3.7-1-1.1-.2-1.7.3-2.3,1.1-1,1.4-1.5,2.9-1.7,4.6-.3,2-.5,3.9,0,5.9.5,2.2,1.2,3.8,3.1,5.1,1.6,1.1,2.2,1,3.3.7,1.2-.3,3.8-1.2,5.7-2.3h0Z"/>
          <path class="cls-4" d="M1217.5,94.8c.7-.5,1.4-1,2-1.6.2-.2.4-.2.7,0,2.9,1.5,4.6,3.9,4.9,7.1.2,2.1,0,4.2-.8,6.2-.3.8-.8,1.6-1.4,2.2-.3.3-.5.4-.9.3-1.3-.3-4.2-.8-4.3-.9-.4,0-.6-.3-.6-.8,0-2,0-3.9,0-5.9v-6c0-.3,0-.5.3-.7M1216.8,79.4c-.5-.2-1-.5-1.5-.7-.2,0-.4-.1-.7,0-.7,0-5.2.8-6.6,1v32.6c.4,0,9.1.4,13,.6,1.4,0,2.9-.1,4.3-.5,3.6-1,6.3-3.1,7.7-6.5,1.1-2.7,1.3-5.6.9-8.5-.4-2.9-1.5-5.4-3.6-7.5-2.1-2.1-4.6-3.2-7.6-3.4-.3,0-.7.1-1,.3-1.6,1.1-4.6,3.2-4.6,3.2v-10c0-.3,0-.5-.4-.6"/>
          <path class="cls-4" d="M1252.2,104.6c-.8.5-3.3,2.4-3.6,2.6-.2.2-.4.2-.7,0-1.8-1.2-3-3-3.2-5.3,0-.3,0-.4.3-.6.5-.2,1.5-.6,1.9-.8,1.5-.6,3.1-.9,4.7-1.1.2,0,.4,0,.7,0,0,.2,0,3.3,0,4.7,0,.3,0,.4-.3.6M1261.7,112.2s0-11.3,0-14.3-.1-2.8-.5-4.1c-1.1-3.6-3.5-5.8-7.2-6.8-2.7-.7-5.4-.7-8.1-.2-.9.2-2.5.6-3.3.9-1.2.4-2.3.9-3.3,1.6-.2.2-.3.3-.3.6.2,1.6.5,3.2.7,4.8,0,.2.2.3.4.3.8,0,1.7,0,2.5,0,.3,0,.4,0,.6-.3.8-1.3,1.5-2.8,2.2-4.2.2-.3.4-.4.7-.4.2,0,.5,0,1.2,0,.9,0,1.7.3,2.5.8,1.4,1,2.1,2.4,2.4,4,.1.6,0,.8,0,.8,0,0-6.2,1-9.1,1.8-1.8.5-3.8,1.1-5.5,2.2-1.2.8-.7,4.7-.6,5.2,1.1,5,5.2,8.3,11.3,8.1.2,0,.5,0,.6-.2,1.2-1.1,4.4-3.9,4.4-3.9,0,0,.6,1.9,1,3,0,.3.2.4.6.4h6.9"/>
        </g>
        <g>
          <path class="cls-4" d="M1287.3,67.7c-.3.7-.8,1.3-1.4,1.8-.2.2-.5.2-.8.2-1.7-.4-3.2-1.2-4.5-2.4-.1,0-.2-.3-.2-.5,0-1.7,0-3.5,0-5.2v-5.2c0-.3.1-.5.3-.7.9-.7,1.7-1.4,2.6-2.1.3-.2.5-.2.7,0,1.4.6,2.4,1.7,3.1,3,.2.5.4.9.6,1.4.6,1.7.8,3.5.6,5.3,0,1.1-.2,2.3-.6,3.3-.1.4-.3.7-.4,1.1M1280.4,73c1,.1,1.9.3,2.8.4,1.2,0,2.5.2,3.7,0,3.2-.4,5.8-2,7.9-4.3,2-2.3,2.9-5.1,3.1-8.1.1-2.8-.4-5.5-2-7.9-1.5-2.3-3.7-4-6.3-5.1-1.3-.6-2.5-.9-4-.9-.3,0-.7.1-.9.3-1.6,1.3-5.1,3.8-5.1,3.8,0,0-.7-2.4-1.2-3.7-.2-.6-.2-.5-.8-.5-2.1.3-4.2.5-6.3.8v32.3c0,.3.2.3.3.3,0,0,1.2.3,1.9.4.3,0,.6,0,.8,0,.2,0,6.1-2.2,6.1-2.2v-5.8s0,0,0,0Z"/>
          <path class="cls-4" d="M1253.1,45.5c0,.3,0,.5.4.6.8.2,1.6.5,2.4.8.3,0,.4.2.4.5v27.2h9.1v-32.3c0-.2,0-.4-.3-.5-.5-.2-1-.5-1.6-.7-.2,0-.4-.1-.6,0-.9.1-7.2,1.1-9.4,1.4-.3,0-.4.2-.4.5,0,.8,0,1.7,0,2.5"/>
        </g>
        <path class="cls-4" d="M1241,67c-.8.5-3.3,2.4-3.6,2.6-.2.2-.4.2-.7,0-1.8-1.2-3-3-3.2-5.3,0-.3,0-.5.3-.6.5-.2,1.5-.6,1.9-.8,1.5-.6,3.1-.9,4.7-1.1.2,0,.4,0,.7,0,0,.2,0,3.3,0,4.7,0,.3,0,.4-.3.6M1250.5,74.6s0-11.3,0-14.3-.1-2.8-.5-4.1c-1.1-3.6-3.5-5.8-7.2-6.8-2.7-.7-5.4-.7-8.1-.2-.9.2-2.5.6-3.3.9-1.2.4-2.3.9-3.3,1.6-.2.2-.3.3-.3.6.2,1.6.5,3.2.7,4.8,0,.2.2.3.4.3.8,0,1.7,0,2.5,0,.3,0,.4,0,.6-.3.8-1.3,1.5-2.8,2.2-4.2.2-.3.4-.4.7-.4.2,0,.5,0,1.2,0,.9,0,1.7.3,2.5.8,1.4,1,2.1,2.4,2.4,4,.1.6,0,.8,0,.8,0,0-6.2,1-9.1,1.8-1.8.5-3.8,1-5.5,2.2-1.2.8-.7,4.7-.6,5.2,1.1,5,5.2,8.3,11.3,8.1.2,0,.5,0,.6-.2,1.2-1.1,4.4-3.9,4.4-3.9,0,0,.6,1.9,1,3,0,.3.2.4.6.4h6.9"/>
        <g>
          <g>
            <path class="cls-4" d="M1243.9,147.8l2.1,2.8c-2.3,1.6-4.9,2.3-7.9,2-1.6-.1-3.2-.4-4.7-1.2-1.8-.9-2.8-2.4-3.4-4.3-.7-2.2-.8-4.6-.8-6.9,0-2.7,0-6.2,0-8.9s0-.5-.4-.6c-.8-.4-1.6-.7-2.4-1.1-.3-.1-.4-.3-.4-.6,0-.9,0-1.7,0-2.6,0-.3,0-.4.4-.5,1.1-.3,2.1-.6,3.2-.8.3,0,.4-.2.6-.4,1.7-2.5,2.3-3.4,4.1-6,.2-.3.4-.4.7-.4h2.9c.3,0,.4,0,.4.4,0,2.9,0,4,0,6.9,0,.4,0,.5.5.5,2.5,0,5.8,0,5.8,0v4.1s-5.1.3-6,.4c-.2,0-.3,0-.3.3h0c0,3.6,0,8,0,11.4,0,1.3.1,2.6.6,3.9.4,1.2,1.2,2.3,2.6,2.4.8,0,1.8-.5,2.3-.8h0Z"/>
            <path class="cls-4" d="M1273.1,122.8c0,.3,0,.5.4.6.8.2,1.6.5,2.4.8.3,0,.4.2.4.5v27.2h9.1v-32.3c0-.2,0-.4-.3-.5-.5-.2-1-.5-1.6-.7-.2,0-.4-.1-.6,0-.9.1-7.2,1.1-9.4,1.4-.3,0-.4.2-.4.5,0,.8,0,1.7,0,2.5"/>
          </g>
          <path class="cls-4" d="M1261.7,144.3c-.8.5-3.3,2.4-3.6,2.6-.2.2-.4.2-.7,0-1.8-1.2-3-3-3.2-5.3,0-.3,0-.4.3-.6.5-.2,1.5-.6,1.9-.8,1.5-.6,3.1-.9,4.7-1.1.2,0,.4,0,.7,0,0,.2,0,3.3,0,4.7,0,.3,0,.4-.3.6M1271.2,151.9s0-11.3,0-14.3-.1-2.8-.5-4.1c-1.1-3.6-3.5-5.8-7.2-6.8-2.7-.7-5.4-.7-8.1-.2-.9.2-2.5.6-3.3.9-1.2.4-2.3.9-3.3,1.6-.2.2-.3.3-.3.6.2,1.6.5,3.2.7,4.8,0,.2.2.3.4.3.8,0,1.7,0,2.5,0,.3,0,.4,0,.6-.3.8-1.3,1.5-2.8,2.2-4.2.2-.3.4-.4.7-.4.2,0,.5,0,1.2,0,.9,0,1.7.3,2.5.8,1.4,1,2.1,2.4,2.4,4,.1.6,0,.8,0,.8,0,0-6.2,1-9.1,1.8-1.8.5-3.8,1.1-5.5,2.2-1.2.8-.7,4.7-.6,5.1,1.1,5,5.2,8.3,11.3,8.1.2,0,.5-.1.6-.2,1.2-1.1,4.4-3.9,4.4-3.9,0,0,.6,1.9,1,3,0,.3.2.4.6.4h6.9"/>
        </g>
      </g>
    </g>
  </g>
  <g>
    <g class="cls-7">
      <g class="cls-7">
        <path class="cls-3" d="M208.1,1467.1h12.6v30l24.8-30h16.2l-26.9,30.6,28.5,35.1h-16.3l-26.3-34.8v34.8h-12.6v-65.7Z"/>
        <path class="cls-3" d="M272.9,1507.6v-40.4h12.8v39.9c0,11.6,6.3,16.5,16.1,16.5s16.2-5.3,16.2-18.5v-37.8h12.6v38.1c0,22.2-15.2,28.8-28.7,28.8s-28.9-6-28.9-26.5Z"/>
        <path class="cls-3" d="M348.3,1467.1h15.1l29,49.7h.2l-.4-7.7v-41.9h12.7v65.7h-15.6l-28.4-48.6h-.4l.4,8v40.6h-12.6v-65.7Z"/>
        <path class="cls-3" d="M423.8,1467.1h21.3c22.2,0,37.8,9.9,37.8,32.6s-14.1,33.1-37.2,33.1h-21.9v-65.7ZM446.6,1522.8c15.9,0,23.4-7.6,23.4-22.1s-8.8-23.5-25.3-23.5h-8.4v45.7h10.2Z"/>
        <path class="cls-3" d="M497.6,1467.1h12.6v55.5h28.5v10.2h-41.2v-65.7Z"/>
      </g>
    </g>
    <g>
      <g class="cls-1">
        <path class="cls-6" d="M355,1419.3c5.8,4.1,9.8,3.9,15.3-.4,24.1-18.9,48.5-37.4,73.1-55.7,5.2-3.8,7-8.1,7-15v-99.2h0c0-5.8-4.7-9.3-10.9-9.4-6.2,0-97.3,5.8-142.6,27.9-6.1,3-8.5,6.6-8,14.6,4.2,57.4,10.5,103.1,66.1,137.2"/>
      </g>
      <path class="cls-3" d="M430,1340.7h-9.2s.1-13.8,0-14.8c-.3-2.2-1.8-3.1-3.8-3.6-.2,0-.5,0-.6.1-.9.7-1.8,1.3-2.7,2-.1.1-.2.3-.2.5,0,3.8,0,15.7,0,15.7h-9.2v-32.5c1.5-.2,5.9-.9,6.7-1,.2,0,.4,0,.6,0,.5.2,1,.5,1.5.7.3.1.4.3.4.6v11c.8-.7,4.1-3.6,5.1-4.4.1-.1.3-.2.5-.2,3.6.3,6.7,1.4,9,4.2,1.3,1.7,2,3.6,2,5.7,0,3.4,0,8.1,0,10.3v5.5h0Z"/>
      <path class="cls-3" d="M398.4,1333.9c.6.9,1.6,2.1,2.3,3-.2.2-.4.5-.7.7-3.7,3.2-7.9,4.5-12.9,3.6-4.3-.8-7.5-3-9.4-6.8-1.4-2.7-1.7-5.5-1.3-8.5.4-2.7,1.5-5,3.4-6.9,2-2,4.5-3.2,7.3-3.7,3.6-.7,7.1-.3,10.5,1.2.7.3,1.3.7,2,1.1.2.1.3.3.2.5-.2,2.1-.5,4.2-.7,6.3,0,.3-.2.4-.5.4-.7,0-1.4,0-2.2,0-.3,0-.4,0-.5-.3-.4-1.2-.9-2.3-1.3-3.5-.1-.5-.4-.8-.8-1-1-.5-2.4-.8-3.6-1-1.1-.2-1.7.3-2.3,1.1-1,1.4-1.5,2.9-1.7,4.6-.3,2-.5,3.9,0,5.9.5,2.2,1.2,3.8,3.1,5.1,1.6,1.1,2.2,1,3.4.7s3.8-1.2,5.7-2.3h0Z"/>
      <path class="cls-3" d="M328,1308c-.5-.2-1-.5-1.5-.7-.2,0-.5-.1-.7,0-.7,0-5.1.8-6.6,1v32.6c.4,0,9,.4,13,.6,1.5,0,2.9-.1,4.3-.5,3.6-1,6.3-3.1,7.6-6.5,1.1-2.7,1.3-5.6.9-8.5-.4-2.9-1.5-5.4-3.6-7.5-2.1-2.1-4.6-3.2-7.6-3.4-.3,0-.7.1-1,.3-1.6,1.1-4.5,3.2-4.5,3.2v-10c0-.3,0-.5-.4-.6M328.7,1323.3c.7-.5,1.4-1,2-1.6.2-.2.5-.2.7,0,3,1.5,4.6,3.9,4.9,7.1.2,2.1,0,4.2-.8,6.2-.3.8-.8,1.6-1.4,2.2-.3.3-.5.4-.9.3-1.4-.3-4.2-.8-4.3-.9-.5,0-.6-.3-.6-.8,0-2,0-3.9,0-5.9v-6c0-.3,0-.5.3-.7"/>
      <path class="cls-3" d="M373,1340.8s0-11.3,0-14.3-.1-2.8-.5-4.1c-1.1-3.6-3.5-5.8-7.2-6.8-2.7-.7-5.4-.7-8.1-.2-.9.2-2.5.6-3.3.9-1.2.4-2.3.9-3.3,1.6-.2.2-.3.3-.3.6.2,1.6.5,3.2.7,4.8,0,.2.2.3.4.3.8,0,1.7,0,2.5,0,.3,0,.4,0,.5-.3.8-1.3,1.5-2.8,2.2-4.2.2-.3.4-.4.7-.4.2,0,.5,0,1.2,0,.9,0,1.7.3,2.5.8,1.4,1,2.1,2.4,2.4,4,.1.6,0,.8,0,.8,0,0-6.2,1-9.1,1.8-1.8.5-3.8,1.1-5.5,2.2-1.2.8-.7,4.7-.6,5.2,1.1,5,5.2,8.3,11.3,8.1.2,0,.5,0,.6-.2,1.2-1.1,4.4-3.9,4.4-3.9,0,0,.6,1.9,1,3,.1.3.2.4.6.4h6.9M363.5,1333.1c-.8.5-3.3,2.4-3.6,2.6-.2.2-.4.2-.6,0-1.8-1.2-3-3-3.1-5.3,0-.3,0-.4.3-.6.5-.2,1.5-.6,1.9-.8,1.5-.6,3.1-.9,4.7-1.1.2,0,.5,0,.7,0,0,.2,0,3.3,0,4.7,0,.3,0,.4-.3.6"/>
      <path class="cls-3" d="M391.7,1301.6c1,.1,1.9.3,2.8.4,1.2,0,2.5.2,3.7,0,3.2-.4,5.8-2,7.9-4.3,2-2.3,2.9-5.1,3.1-8.1.1-2.8-.5-5.5-2-7.9-1.5-2.3-3.7-4-6.2-5.1-1.3-.6-2.5-.9-4-.9-.3,0-.7.1-.9.3-1.6,1.3-5,3.8-5,3.8,0,0-.7-2.4-1.2-3.7-.2-.6-.2-.6-.8-.5-2.1.3-4.2.5-6.3.8v32.3c0,.3.1.3.3.3,0,0,1.2.3,1.9.4.3,0,.6,0,.8,0,.2,0,6.1-2.2,6.1-2.2v-5.8h0,0ZM398.6,1296.2c-.4.7-.8,1.3-1.4,1.8-.2.2-.5.2-.8.2-1.7-.4-3.2-1.2-4.5-2.4-.1,0-.2-.3-.2-.5,0-1.7,0-3.5,0-5.2v-5.2c0-.3.1-.5.4-.7.9-.7,1.7-1.4,2.5-2.1.3-.2.5-.2.7,0,1.4.6,2.4,1.7,3.1,3,.2.4.5.9.6,1.4.6,1.7.8,3.5.6,5.3,0,1.1-.2,2.3-.6,3.3-.1.4-.3.7-.5,1.1"/>
      <path class="cls-3" d="M364.3,1274.1c0,.3,0,.5.4.6.8.2,1.6.5,2.5.8.3,0,.4.2.4.5v27.2h9.1v-32.3c0-.2,0-.4-.3-.5-.5-.2-1-.5-1.6-.7-.2,0-.4-.1-.6,0-.9.1-7.2,1.1-9.4,1.4-.3,0-.4.2-.4.5,0,.8,0,1.7,0,2.5"/>
      <path class="cls-3" d="M361.8,1303.2s0-11.3,0-14.3-.1-2.8-.5-4.1c-1.1-3.6-3.5-5.8-7.2-6.8-2.7-.7-5.4-.7-8.1-.2-.9.2-2.5.6-3.3.9-1.2.4-2.3.9-3.3,1.6-.2.2-.3.3-.3.6.2,1.6.5,3.2.7,4.8,0,.2.2.3.4.3.8,0,1.7,0,2.5,0,.3,0,.4,0,.5-.3.8-1.3,1.5-2.8,2.2-4.2.2-.3.4-.4.7-.4.2,0,.5,0,1.2,0,.9,0,1.7.3,2.5.8,1.4,1,2.1,2.4,2.4,4,.1.6,0,.8,0,.8,0,0-6.2,1-9.1,1.8-1.8.5-3.8,1.1-5.5,2.2-1.2.8-.7,4.7-.6,5.2,1.1,5,5.2,8.3,11.3,8.1.2,0,.5,0,.6-.2,1.2-1.1,4.4-3.9,4.4-3.9,0,0,.6,1.9,1,3,.1.3.2.4.6.4h6.9M352.3,1295.5c-.8.5-3.3,2.4-3.6,2.6-.2.2-.4.2-.6,0-1.8-1.2-3-3-3.1-5.3,0-.3,0-.4.3-.6.5-.2,1.5-.6,1.9-.8,1.5-.6,3.1-.9,4.7-1.1.2,0,.5,0,.7,0,0,.2,0,3.3,0,4.7,0,.3,0,.4-.3.6"/>
      <path class="cls-3" d="M355.2,1376.3l2.1,2.8c-2.3,1.6-4.9,2.3-7.9,2-1.6-.2-3.2-.4-4.7-1.2-1.8-.9-2.8-2.4-3.4-4.3-.7-2.2-.8-4.6-.8-6.9,0-2.7,0-6.2,0-8.9s0-.5-.4-.6c-.8-.3-1.6-.7-2.5-1.1-.3-.1-.4-.3-.4-.6,0-.9,0-1.7,0-2.6,0-.3,0-.4.4-.5,1.1-.3,2.1-.6,3.2-.8.3,0,.4-.2.6-.4,1.7-2.5,2.3-3.4,4.1-6,.2-.3.4-.4.7-.4h2.9c.4,0,.5,0,.5.4,0,2.9,0,4,0,6.9,0,.4.1.5.5.5,2.5,0,5.8,0,5.8,0v4.1s-5.1.3-6,.4c-.2,0-.3,0-.3.3h0c0,3.6,0,7.9,0,11.4,0,1.3.1,2.6.6,3.8.4,1.2,1.2,2.3,2.6,2.3.8,0,1.8-.5,2.4-.8h0Z"/>
      <path class="cls-3" d="M384.3,1351.3c0,.3,0,.5.4.6.8.2,1.6.5,2.5.8.3,0,.4.2.4.5v27.2h9.1v-32.3c0-.2,0-.4-.3-.5-.5-.2-1-.5-1.6-.7-.2,0-.4-.1-.6,0-.9.1-7.2,1.1-9.4,1.4-.3,0-.4.2-.4.5,0,.8,0,1.7,0,2.5"/>
      <path class="cls-3" d="M382.4,1380.4s0-11.3,0-14.3-.1-2.8-.5-4.1c-1.1-3.6-3.5-5.8-7.2-6.8-2.7-.7-5.4-.7-8.1-.2-.9.2-2.5.6-3.3.9-1.2.4-2.3.9-3.3,1.6-.2.2-.3.3-.3.6.2,1.6.5,3.2.7,4.8,0,.2.2.3.4.3.8,0,1.7,0,2.5,0,.3,0,.4,0,.5-.3.8-1.3,1.5-2.8,2.2-4.2.2-.3.4-.4.7-.4.2,0,.5,0,1.2,0,.9,0,1.7.3,2.5.8,1.4,1,2.1,2.4,2.4,4,.1.6,0,.8,0,.8,0,0-6.2,1-9.1,1.8-1.8.5-3.8,1.1-5.5,2.2-1.2.8-.7,4.7-.6,5.2,1.1,5,5.2,8.3,11.3,8.1.2,0,.5,0,.6-.2,1.2-1.1,4.4-3.9,4.4-3.9,0,0,.6,1.9,1,3,.1.3.2.4.6.4h6.9M372.9,1372.8c-.8.5-3.3,2.4-3.6,2.6-.2.2-.4.2-.6,0-1.8-1.2-3-3-3.1-5.3,0-.3,0-.4.3-.6.5-.2,1.5-.6,1.9-.8,1.5-.6,3.1-.9,4.7-1.1.2,0,.5,0,.7,0,0,.2,0,3.3,0,4.7,0,.3,0,.4-.3.6"/>
    </g>
  </g>
  <g>
    <g>
      <path class="cls-5" d="M1244.6,1419.3c5.8,4.1,9.8,3.9,15.3-.4,24.2-18.9,48.5-37.5,73.1-55.7,5.2-3.8,7-8.1,7-15v-99.2h0c0-5.8-4.7-9.3-10.9-9.4-6.2,0-97.3,5.8-142.6,27.9-6.1,3-8.5,6.6-7.9,14.6,4.2,57.4,10.5,103.1,66.1,137.2"/>
      <g>
        <path class="cls-4" d="M1319.6,1340.7h-9.2s.1-13.8,0-14.8c-.3-2.2-1.8-3.1-3.8-3.6-.2,0-.4,0-.6.1-.9.7-1.8,1.3-2.7,2-.1.1-.2.3-.2.5,0,3.8,0,15.7,0,15.7h-9.2v-32.5c1.5-.2,5.9-.9,6.7-1,.2,0,.4,0,.6,0,.5.2,1,.5,1.5.7.3.1.4.3.4.6v11c.8-.7,4.2-3.6,5.1-4.4.1-.1.3-.2.5-.2,3.6.3,6.7,1.4,9,4.2,1.3,1.7,1.9,3.6,2,5.7,0,3.4,0,8.1,0,10.3v5.5h0Z"/>
        <path class="cls-4" d="M1288.1,1333.9c.7.9,1.6,2.1,2.3,3-.2.2-.4.5-.7.7-3.7,3.2-7.9,4.5-12.9,3.6-4.3-.8-7.5-3-9.4-6.8-1.4-2.7-1.7-5.5-1.3-8.5.4-2.7,1.4-5,3.4-6.9,2-2,4.5-3.2,7.3-3.7,3.6-.7,7.1-.3,10.5,1.2.7.3,1.3.7,2,1.1.2.1.3.3.2.5-.2,2.1-.5,4.2-.7,6.3,0,.3-.2.4-.5.4-.7,0-1.4,0-2.2,0-.3,0-.4,0-.5-.3-.4-1.2-.9-2.3-1.3-3.5-.2-.5-.4-.8-.8-1-1-.5-2.4-.8-3.7-1-1.1-.2-1.7.3-2.3,1.1-1,1.4-1.5,2.9-1.7,4.6-.3,2-.5,3.9,0,5.9.5,2.2,1.2,3.8,3.1,5.1,1.6,1.1,2.2,1,3.3.7s3.8-1.2,5.7-2.3h0Z"/>
        <path class="cls-4" d="M1218.3,1323.3c.7-.5,1.4-1,2-1.6.2-.2.4-.2.7,0,2.9,1.5,4.6,3.9,4.9,7.1.2,2.1,0,4.2-.8,6.2-.3.8-.8,1.6-1.4,2.2-.3.3-.5.4-.9.3-1.3-.3-4.2-.8-4.3-.9-.4,0-.6-.3-.6-.8,0-2,0-3.9,0-5.9v-6c0-.3,0-.5.3-.7M1217.6,1308c-.5-.2-1-.5-1.5-.7-.2,0-.4-.1-.7,0-.7,0-5.2.8-6.6,1v32.6c.4,0,9.1.4,13,.6,1.4,0,2.9-.1,4.3-.5,3.6-1,6.3-3.1,7.7-6.5,1.1-2.7,1.3-5.6.9-8.5-.4-2.9-1.5-5.4-3.6-7.5-2.1-2.1-4.6-3.2-7.6-3.4-.3,0-.7.1-1,.3-1.6,1.1-4.6,3.2-4.6,3.2v-10c0-.3,0-.5-.4-.6"/>
        <path class="cls-4" d="M1253.1,1333.1c-.8.5-3.3,2.4-3.6,2.6-.2.2-.4.2-.7,0-1.8-1.2-3-3-3.2-5.3,0-.3,0-.4.3-.6.5-.2,1.5-.6,1.9-.8,1.5-.6,3.1-.9,4.7-1.1.2,0,.4,0,.7,0,0,.2,0,3.3,0,4.7,0,.3,0,.4-.3.6M1262.6,1340.8s0-11.3,0-14.3-.1-2.8-.5-4.1c-1.1-3.6-3.5-5.8-7.2-6.8-2.7-.7-5.4-.7-8.1-.2-.9.2-2.5.6-3.3.9-1.2.4-2.3.9-3.3,1.6-.2.2-.3.3-.3.6.2,1.6.5,3.2.7,4.8,0,.2.2.3.4.3.8,0,1.7,0,2.5,0,.3,0,.4,0,.6-.3.8-1.3,1.5-2.8,2.2-4.2.2-.3.4-.4.7-.4.2,0,.5,0,1.2,0,.9,0,1.7.3,2.5.8,1.4,1,2.1,2.4,2.4,4,.1.6,0,.8,0,.8,0,0-6.2,1-9.1,1.8-1.8.5-3.8,1.1-5.5,2.2-1.2.8-.7,4.7-.6,5.2,1.1,5,5.2,8.3,11.3,8.1.2,0,.5,0,.6-.2,1.2-1.1,4.4-3.9,4.4-3.9,0,0,.6,1.9,1,3,0,.3.2.4.6.4h6.9"/>
      </g>
      <g>
        <path class="cls-4" d="M1288.2,1296.2c-.3.7-.8,1.3-1.4,1.8-.2.2-.5.2-.8.2-1.7-.4-3.2-1.2-4.5-2.4-.1,0-.2-.3-.2-.5,0-1.7,0-3.5,0-5.2v-5.2c0-.3.1-.5.3-.7.9-.7,1.7-1.4,2.6-2.1.3-.2.5-.2.7,0,1.4.6,2.4,1.7,3.1,3,.2.4.4.9.6,1.4.6,1.7.8,3.5.6,5.3,0,1.1-.2,2.3-.6,3.3-.1.4-.3.7-.4,1.1M1281.3,1301.6c1,.1,1.9.3,2.8.4,1.2,0,2.5.2,3.7,0,3.2-.4,5.8-2,7.9-4.3,2-2.3,2.9-5.1,3.1-8.1.1-2.8-.4-5.5-2-7.9-1.5-2.3-3.7-4-6.3-5.1-1.3-.6-2.5-.9-4-.9-.3,0-.7.1-.9.3-1.6,1.3-5.1,3.8-5.1,3.8,0,0-.7-2.4-1.2-3.7-.2-.6-.2-.6-.8-.5-2.1.3-4.2.5-6.3.8v32.3c0,.3.2.3.3.3,0,0,1.2.3,1.9.4.3,0,.6,0,.8,0,.2,0,6.1-2.2,6.1-2.2v-5.8s0,0,0,0Z"/>
        <path class="cls-4" d="M1253.9,1274.1c0,.3,0,.5.4.6.8.2,1.6.5,2.4.8.3,0,.4.2.4.5v27.2h9.1v-32.3c0-.2,0-.4-.3-.5-.5-.2-1-.5-1.6-.7-.2,0-.4-.1-.6,0-.9.1-7.2,1.1-9.4,1.4-.3,0-.4.2-.4.5,0,.8,0,1.7,0,2.5"/>
      </g>
      <path class="cls-4" d="M1241.9,1295.5c-.8.5-3.3,2.4-3.6,2.6-.2.2-.4.2-.7,0-1.8-1.2-3-3-3.2-5.3,0-.3,0-.4.3-.6.5-.2,1.5-.6,1.9-.8,1.5-.6,3.1-.9,4.7-1.1.2,0,.4,0,.7,0,0,.2,0,3.3,0,4.7,0,.3,0,.4-.3.6M1251.4,1303.2s0-11.3,0-14.3-.1-2.8-.5-4.1c-1.1-3.6-3.5-5.8-7.2-6.8-2.7-.7-5.4-.7-8.1-.2-.9.2-2.5.6-3.3.9-1.2.4-2.3.9-3.3,1.6-.2.2-.3.3-.3.6.2,1.6.5,3.2.7,4.8,0,.2.2.3.4.3.8,0,1.7,0,2.5,0,.3,0,.4,0,.6-.3.8-1.3,1.5-2.8,2.2-4.2.2-.3.4-.4.7-.4.2,0,.5,0,1.2,0,.9,0,1.7.3,2.5.8,1.4,1,2.1,2.4,2.4,4,.1.6,0,.8,0,.8,0,0-6.2,1-9.1,1.8-1.8.5-3.8,1.1-5.5,2.2-1.2.8-.7,4.7-.6,5.2,1.1,5,5.2,8.3,11.3,8.1.2,0,.5,0,.6-.2,1.2-1.1,4.4-3.9,4.4-3.9,0,0,.6,1.9,1,3,0,.3.2.4.6.4h6.9"/>
      <g>
        <g>
          <path class="cls-4" d="M1244.8,1376.3l2.1,2.8c-2.3,1.6-4.9,2.3-7.9,2-1.6-.2-3.2-.4-4.7-1.2-1.8-.9-2.8-2.4-3.4-4.3-.7-2.2-.8-4.6-.8-6.9,0-2.7,0-6.2,0-8.9s0-.5-.4-.6c-.8-.3-1.6-.7-2.4-1.1-.3-.1-.4-.3-.4-.6,0-.9,0-1.7,0-2.6,0-.3,0-.4.4-.5,1.1-.3,2.1-.6,3.2-.8.3,0,.4-.2.6-.4,1.7-2.5,2.3-3.4,4.1-6,.2-.3.4-.4.7-.4h2.9c.3,0,.4,0,.4.4,0,2.9,0,4,0,6.9,0,.4,0,.5.5.5,2.5,0,5.8,0,5.8,0v4.1s-5.1.3-6,.4c-.2,0-.3,0-.3.3h0c0,3.6,0,8,0,11.4,0,1.3.1,2.6.6,3.8.4,1.2,1.2,2.3,2.6,2.3.8,0,1.8-.5,2.3-.8h0Z"/>
          <path class="cls-4" d="M1273.9,1351.3c0,.3,0,.5.4.6.8.2,1.6.5,2.4.8.3,0,.4.2.4.5v27.2h9.1v-32.3c0-.2,0-.4-.3-.5-.5-.2-1-.5-1.6-.7-.2,0-.4-.1-.6,0-.9.1-7.2,1.1-9.4,1.4-.3,0-.4.2-.4.5,0,.8,0,1.7,0,2.5"/>
        </g>
        <path class="cls-4" d="M1262.5,1372.8c-.8.5-3.3,2.4-3.6,2.6-.2.2-.4.2-.7,0-1.8-1.2-3-3-3.2-5.3,0-.3,0-.4.3-.6.5-.2,1.5-.6,1.9-.8,1.5-.6,3.1-.9,4.7-1.1.2,0,.4,0,.7,0,0,.2,0,3.3,0,4.7,0,.3,0,.4-.3.6M1272,1380.4s0-11.3,0-14.3-.1-2.8-.5-4.1c-1.1-3.6-3.5-5.8-7.2-6.8-2.7-.7-5.4-.7-8.1-.2-.9.2-2.5.6-3.3.9-1.2.4-2.3.9-3.3,1.6-.2.2-.3.3-.3.6.2,1.6.5,3.2.7,4.8,0,.2.2.3.4.3.8,0,1.7,0,2.5,0,.3,0,.4,0,.6-.3.8-1.3,1.5-2.8,2.2-4.2.2-.3.4-.4.7-.4.2,0,.5,0,1.2,0,.9,0,1.7.3,2.5.8,1.4,1,2.1,2.4,2.4,4,.1.6,0,.8,0,.8,0,0-6.2,1-9.1,1.8-1.8.5-3.8,1.1-5.5,2.2-1.2.8-.7,4.7-.6,5.2,1.1,5,5.2,8.3,11.3,8.1.2,0,.5,0,.6-.2,1.2-1.1,4.4-3.9,4.4-3.9,0,0,.6,1.9,1,3,0,.3.2.4.6.4h6.9"/>
      </g>
    </g>
    <g>
      <path class="cls-4" d="M979.4,1519.1l-8.3-10.6c-1.3.2-3.1.3-4.6.3h-6.4v24h-12.7v-65.7h24c14,0,23.8,6.5,23.8,20.6s-3.5,14.1-11.2,17.8l7.5,9.1c3.9,4.6,7.8,7.7,14.7,9.6l-2.9,9.8c-11-.8-17.4-6.9-23.9-14.9h0ZM967.2,1499.5c9.7,0,15-3.6,15-11.3s-3.7-11.1-12.7-11.1h-9.2v22.4h7Z"/>
      <path class="cls-4" d="M1033.5,1467.1h16.5l22.8,65.7h-13.3l-7.2-21.3h-23.7l-8.1,21.3h-12.9l25.9-65.7h0ZM1049.1,1502.1l-7.9-27-9.1,27h17,0Z"/>
      <path class="cls-4" d="M1090.1,1477.2h-21.3v-10.1h55.3v10.1h-21.3v55.6h-12.7v-55.6h0Z"/>
      <path class="cls-4" d="M1151,1477.2h-21.3v-10.1h55.3v10.1h-21.3v55.6h-12.7v-55.6h0Z"/>
      <path class="cls-4" d="M1196.4,1467.1h40.7v10h-28.1v17.9h26v9.5h-26v18.2h30.2v10h-42.9v-65.7Z"/>
      <path class="cls-4" d="M1254,1467.1h15.1l29,49.7h.2l-.4-7.7v-41.9h12.7v65.7h-15.6l-28.4-48.6h-.4l.4,8v40.6h-12.7v-65.7h0Z"/>
      <path class="cls-4" d="M1329.5,1467.1h21.1c15.6,0,23.2,6.2,23.2,17.5s-3.6,10.9-7.8,12.7v.2c5.3,1.3,12.6,6.4,12.6,15.6s-6.8,19.7-25.2,19.7h-23.9v-65.7h0ZM1350.1,1494.8c7.4,0,11.2-2.6,11.2-8.9s-4.5-9-12.8-9h-6.1v17.9h7.8,0ZM1352.2,1522.8c8.7,0,13.7-2.2,13.7-9.3s-5-9.7-14.9-9.7h-8.7v19h9.9Z"/>
      <path class="cls-4" d="M1393.1,1467.1h40.7v10h-28.1v17.9h26v9.5h-26v18.2h30.2v10h-42.9v-65.7Z"/>
      <path class="cls-4" d="M1482.8,1519.1l-8.3-10.6c-1.3.2-3.1.3-4.6.3h-6.4v24h-12.7v-65.7h24c13.9,0,23.8,6.5,23.8,20.6s-3.5,14.1-11.2,17.8l7.5,9.1c3.9,4.6,7.8,7.7,14.7,9.6l-2.9,9.8c-11-.8-17.4-6.9-23.9-14.9h0ZM1470.5,1499.5c9.7,0,15-3.6,15-11.3s-3.7-11.1-12.7-11.1h-9.2v22.4h7Z"/>
      <path class="cls-4" d="M1516,1500.3c0-22.6,12.7-34.2,35.6-34.2s14.7,1.8,19.4,3.8l-3.4,9.5c-5.4-1.6-8.9-2.7-16.1-2.7-12.5,0-22.5,6.4-22.5,22.7s10.8,23.6,23.9,23.6,4.9-.3,6.7-.6v-22.1h12.7v29.8c-6.7,2.5-12.8,3.6-20.7,3.6-21.8,0-35.5-11.5-35.5-33.5h0Z"/>
      <path class="cls-4" d="M1074.1,1614.5l-8.3-10.6c-1.3.2-3.1.3-4.6.3h-6.4v24h-12.7v-65.7h24c13.9,0,23.8,6.5,23.8,20.6s-3.5,14.1-11.2,17.8l7.5,9.1c3.9,4.6,7.8,7.7,14.7,9.6l-2.9,9.8c-11-.8-17.4-6.9-23.9-14.9h0ZM1061.8,1594.9c9.7,0,15-3.6,15-11.3s-3.7-11.1-12.7-11.1h-9.2v22.4h7Z"/>
      <path class="cls-4" d="M1128.1,1562.4h16.5l22.8,65.7h-13.3l-7.2-21.3h-23.7l-8.1,21.3h-12.9l25.9-65.7h0ZM1143.7,1597.5l-7.9-27-9.1,27h17,0Z"/>
      <path class="cls-4" d="M1178.5,1562.4h21.3c22.2,0,37.8,9.9,37.8,32.6s-14.1,33.1-37.2,33.1h-21.8v-65.7h0ZM1201.4,1618.1c15.9,0,23.4-7.6,23.4-22.1s-8.8-23.5-25.3-23.5h-8.4v45.7h10.2Z"/>
      <path class="cls-4" d="M1252.3,1562.4h43.2v10h-30.5v19.6h28.5v9.5h-28.5v26.6h-12.7v-65.7h0Z"/>
      <path class="cls-4" d="M1309.5,1562.4h40.7v10h-28.1v17.9h26v9.5h-26v18.2h30.2v10h-42.9v-65.7Z"/>
      <path class="cls-4" d="M1367.2,1562.4h12.7v55.5h28.6v10.2h-41.2v-65.7h0Z"/>
      <path class="cls-4" d="M1419.6,1562.4h21.3c22.2,0,37.8,9.9,37.8,32.6s-14.1,33.1-37.2,33.1h-21.8v-65.7h0ZM1442.5,1618.1c15.9,0,23.4-7.6,23.4-22.1s-8.8-23.5-25.3-23.5h-8.4v45.7h10.2Z"/>
    </g>
  </g>
  <g>
    <g class="cls-7">
      <g class="cls-7">
        <path class="cls-4" d="M1026.2,834.3h15.8l20,55.2,22.6-55.2h15.1v65.7h-12.7v-31.9l.6-13.5h-.4l-17.9,45.4h-15.2l-15.5-45.5h-.4l.7,13v32.5h-12.6v-65.7Z"/>
        <path class="cls-4" d="M1117.6,874.7v-40.4h12.8v39.9c0,11.6,6.3,16.5,16.1,16.5s16.2-5.3,16.2-18.5v-37.8h12.6v38.1c0,22.2-15.2,28.8-28.7,28.8s-28.9-6-28.9-26.5ZM1128.2,823.3l7.7-7.8,7.8,7.8-7.8,7.8-7.7-7.8ZM1149.2,823.3l7.8-7.8,7.7,7.8-7.7,7.8-7.8-7.8Z"/>
        <path class="cls-4" d="M1193,834.3h15.1l29,49.7h.2l-.4-7.7v-41.9h12.7v65.7h-15.6l-28.4-48.6h-.4l.4,8v40.6h-12.6v-65.7Z"/>
        <path class="cls-4" d="M1263.2,896.1l3.7-9.7c5.4,2.3,10,4.1,16.8,4.1s13-3,13-8.6c0-12.9-31.7-8.6-31.7-30.7s11-17.9,22.1-17.9,14.4,2,18.9,4.6l-3.7,9.4c-4.6-2-8.6-3.3-14.8-3.3s-10,2.7-10,7.4c0,11.1,32.1,9.6,32.1,30s-12.6,19.8-25.9,19.8-16.1-2.5-20.6-5Z"/>
        <path class="cls-4" d="M1336.9,844.4h-21.3v-10.1h55.3v10.1h-21.3v55.6h-12.7v-55.6Z"/>
        <path class="cls-4" d="M1382.3,834.3h40.7v10h-28.1v17.9h26v9.5h-26v18.2h30.2v10h-42.9v-65.7Z"/>
        <path class="cls-4" d="M1471.9,886.4l-8.3-10.6c-1.3.2-3.1.3-4.6.3h-6.4v24h-12.7v-65.7h24c13.9,0,23.8,6.5,23.8,20.6s-3.5,14.1-11.3,17.9l7.5,9.1c3.9,4.6,7.8,7.7,14.7,9.6l-2.9,9.8c-11-.8-17.4-6.9-23.9-14.9ZM1459.6,866.7c9.7,0,15-3.6,15-11.3s-3.7-11.1-12.7-11.1h-9.2v22.4h7Z"/>
      </g>
    </g>
    <g class="cls-7">
      <g class="cls-7">
        <path class="cls-4" d="M1188.9,934.1h5.3v21.9h-5.3v-21.9Z"/>
        <path class="cls-4" d="M1199.6,934.1h6.1l8.6,15-.2-2.4v-12.6h5.3v21.9h-6.3l-8.4-14.7v2.9c.1,0,.1,11.7.1,11.7h-5.3v-21.9Z"/>
        <path class="cls-4" d="M1236.7,938.2h-6.9v-4.1h19v4.1h-6.9v17.8h-5.3v-17.8Z"/>
        <path class="cls-4" d="M1252.2,934.1h5.3v21.9h-5.3v-21.9Z"/>
        <path class="cls-4" d="M1273.5,951.3l-2.5-2.9c-.4,0-.8,0-1.2,0h-1.6v7.6h-5.3v-21.9h8.5c4.9,0,8.5,2.3,8.5,7.2s-1.2,4.6-3.5,5.9l2.2,2.4c1.2,1.3,2.6,2.2,5,2.8l-1.2,4c-4.3-.2-6.6-2.4-8.9-5.1ZM1270,944.7c3.1,0,4.5-1.3,4.5-3.4s-.9-3.1-3.7-3.1h-2.5v6.5h1.8Z"/>
        <path class="cls-4" d="M1284.8,945c0-6.9,4.6-11.2,12.1-11.2s11.4,4.8,11.4,11.3-4.2,11.3-12,11.3-11.5-4.3-11.5-11.4ZM1302.9,945c0-4.1-1.9-7.1-6.3-7.1s-6.4,3-6.4,7.1,1.8,7.3,6.2,7.3,6.5-3.1,6.5-7.2Z"/>
        <path class="cls-4" d="M1312.6,934.1h5.3v17.8h9.5v4.2h-14.8v-21.9Z"/>
      </g>
    </g>
    <g>
      <path class="cls-5" d="M1243.8,786.6c5.8,4.1,9.8,3.9,15.3-.4,24.2-18.9,48.5-37.5,73.1-55.7,5.2-3.8,7-8.1,7-15v-99.2h0c0-5.8-4.7-9.3-10.9-9.4-6.2,0-97.3,5.8-142.6,28-6.1,3-8.5,6.6-7.9,14.6,4.2,57.4,10.5,103.1,66.1,137.2"/>
      <g>
        <path class="cls-4" d="M1318.8,708h-9.2s.1-13.8,0-14.8c-.3-2.2-1.8-3.1-3.8-3.6-.2,0-.4,0-.6.1-.9.7-1.8,1.3-2.7,2-.1.1-.2.3-.2.5,0,3.8,0,15.7,0,15.7h-9.2v-32.5c1.5-.2,5.9-.9,6.7-1,.2,0,.4,0,.6,0,.5.2,1,.5,1.5.7.3.1.4.3.4.6v11c.8-.7,4.2-3.6,5.1-4.4.1-.1.3-.2.5-.2,3.6.3,6.7,1.4,9,4.2,1.3,1.7,1.9,3.6,2,5.7,0,3.5,0,8.1,0,10.3v5.5h0Z"/>
        <path class="cls-4" d="M1287.2,701.2c.7.9,1.6,2.1,2.3,3-.2.2-.4.5-.7.7-3.7,3.2-7.9,4.5-12.9,3.6-4.3-.8-7.5-3-9.4-6.8-1.4-2.7-1.7-5.5-1.3-8.5.4-2.7,1.4-5,3.4-7,2-2,4.5-3.2,7.3-3.7,3.6-.7,7.1-.3,10.5,1.2.7.3,1.3.7,2,1.1.2.1.3.3.2.5-.2,2.1-.5,4.2-.7,6.3,0,.3-.2.4-.5.4-.7,0-1.4,0-2.2,0-.3,0-.4,0-.5-.3-.4-1.2-.9-2.3-1.3-3.5-.2-.5-.4-.8-.8-1-1-.5-2.4-.8-3.7-1-1.1-.2-1.7.3-2.3,1.1-1,1.4-1.5,2.9-1.7,4.6-.3,2-.5,3.9,0,5.9.5,2.2,1.2,3.8,3.1,5.1,1.6,1.1,2.2,1,3.3.7s3.8-1.2,5.7-2.3h0Z"/>
        <path class="cls-4" d="M1217.5,690.6c.7-.5,1.4-1,2-1.6.2-.2.4-.2.7,0,2.9,1.5,4.6,3.9,4.9,7.1.2,2.1,0,4.2-.8,6.2-.3.8-.8,1.6-1.4,2.2-.3.3-.5.4-.9.3-1.3-.3-4.2-.8-4.3-.9-.4,0-.6-.3-.6-.8,0-2,0-3.9,0-5.9v-6c0-.3,0-.5.3-.7M1216.8,675.3c-.5-.2-1-.5-1.5-.7-.2,0-.4-.1-.7,0-.7,0-5.2.8-6.6,1v32.6c.4,0,9.1.4,13,.6,1.4,0,2.9-.1,4.3-.5,3.6-1,6.3-3.1,7.7-6.5,1.1-2.7,1.3-5.6.9-8.5-.4-2.9-1.5-5.4-3.6-7.5-2.1-2-4.6-3.2-7.6-3.4-.3,0-.7.1-1,.3-1.6,1.1-4.6,3.2-4.6,3.2v-10c0-.3,0-.5-.4-.6"/>
        <path class="cls-4" d="M1252.2,700.4c-.8.5-3.3,2.4-3.6,2.6-.2.2-.4.2-.7,0-1.8-1.2-3-3-3.2-5.3,0-.3,0-.5.3-.6.5-.2,1.5-.6,1.9-.8,1.5-.6,3.1-.9,4.7-1.1.2,0,.4,0,.7,0,0,.2,0,3.3,0,4.7,0,.3,0,.5-.3.6M1261.7,708s0-11.3,0-14.3-.1-2.8-.5-4.1c-1.1-3.6-3.5-5.8-7.2-6.8-2.7-.7-5.4-.7-8.1-.2-.9.2-2.5.6-3.3.9-1.2.4-2.3.9-3.3,1.6-.2.2-.3.3-.3.6.2,1.6.5,3.2.7,4.8,0,.2.2.3.4.3.8,0,1.7,0,2.5,0,.3,0,.4,0,.6-.3.8-1.3,1.5-2.8,2.2-4.2.2-.3.4-.4.7-.4.2,0,.5,0,1.2,0,.9,0,1.7.3,2.5.8,1.4,1,2.1,2.4,2.4,4,.1.6,0,.8,0,.8,0,0-6.2,1-9.1,1.8-1.8.5-3.8,1-5.5,2.2-1.2.8-.7,4.7-.6,5.2,1.1,5,5.2,8.3,11.3,8.1.2,0,.5,0,.6-.2,1.2-1.1,4.4-3.9,4.4-3.9,0,0,.6,1.9,1,3,0,.3.2.4.6.4h6.9"/>
      </g>
      <g>
        <path class="cls-4" d="M1287.3,663.5c-.3.7-.8,1.3-1.4,1.8-.2.2-.5.2-.8.2-1.7-.4-3.2-1.2-4.5-2.4-.1,0-.2-.3-.2-.5,0-1.7,0-3.5,0-5.2v-5.2c0-.3.1-.5.3-.7.9-.7,1.7-1.4,2.6-2.1.3-.2.5-.2.7,0,1.4.6,2.4,1.7,3.1,3,.2.5.4.9.6,1.4.6,1.7.8,3.5.6,5.3,0,1.1-.2,2.3-.6,3.3-.1.4-.3.7-.4,1.1M1280.4,668.8c1,.1,1.9.3,2.8.4,1.2,0,2.5.2,3.7,0,3.2-.4,5.8-2,7.9-4.3,2-2.3,2.9-5.1,3.1-8.1.1-2.8-.4-5.5-2-7.9-1.5-2.3-3.7-4-6.3-5.1-1.3-.6-2.5-.9-4-.9-.3,0-.7.1-.9.3-1.6,1.3-5.1,3.8-5.1,3.8,0,0-.7-2.4-1.2-3.7-.2-.6-.2-.5-.8-.5-2.1.3-4.2.5-6.3.8v32.3c0,.3.2.3.3.3,0,0,1.2.3,1.9.4.3,0,.6,0,.8,0,.2,0,6.1-2.2,6.1-2.2v-5.8s0,0,0,0Z"/>
        <path class="cls-4" d="M1253.1,641.3c0,.3,0,.5.4.6.8.2,1.6.5,2.4.8.3,0,.4.2.4.5v27.2h9.1v-32.3c0-.2,0-.4-.3-.5-.5-.2-1-.5-1.6-.7-.2,0-.4-.1-.6,0-.9.1-7.2,1.1-9.4,1.4-.3,0-.4.2-.4.5,0,.8,0,1.7,0,2.5"/>
      </g>
      <path class="cls-4" d="M1241,662.8c-.8.5-3.3,2.4-3.6,2.6-.2.2-.4.2-.7,0-1.8-1.2-3-3-3.2-5.3,0-.3,0-.5.3-.6.5-.2,1.5-.6,1.9-.8,1.5-.6,3.1-.9,4.7-1.1.2,0,.4,0,.7,0,0,.2,0,3.3,0,4.7,0,.3,0,.5-.3.6M1250.5,670.5s0-11.3,0-14.3-.1-2.8-.5-4.1c-1.1-3.6-3.5-5.8-7.2-6.8-2.7-.7-5.4-.7-8.1-.2-.9.2-2.5.6-3.3.9-1.2.4-2.3.9-3.3,1.6-.2.2-.3.3-.3.6.2,1.6.5,3.2.7,4.8,0,.2.2.3.4.3.8,0,1.7,0,2.5,0,.3,0,.4,0,.6-.3.8-1.3,1.5-2.8,2.2-4.2.2-.3.4-.4.7-.4.2,0,.5,0,1.2,0,.9,0,1.7.3,2.5.8,1.4,1,2.1,2.4,2.4,4,.1.6,0,.8,0,.8,0,0-6.2,1-9.1,1.8-1.8.5-3.8,1-5.5,2.2-1.2.8-.7,4.7-.6,5.2,1.1,5,5.2,8.3,11.3,8.1.2,0,.5,0,.6-.2,1.2-1.1,4.4-3.9,4.4-3.9,0,0,.6,1.9,1,3,0,.3.2.4.6.4h6.9"/>
      <g>
        <g>
          <path class="cls-4" d="M1243.9,743.6l2.1,2.8c-2.3,1.6-4.9,2.3-7.9,2-1.6-.2-3.2-.4-4.7-1.2-1.8-1-2.8-2.4-3.4-4.3-.7-2.2-.8-4.6-.8-6.9,0-2.7,0-6.2,0-8.9s0-.5-.4-.6c-.8-.3-1.6-.7-2.4-1.1-.3-.1-.4-.3-.4-.6,0-.9,0-1.7,0-2.6,0-.3,0-.4.4-.5,1.1-.3,2.1-.5,3.2-.8.3,0,.4-.2.6-.4,1.7-2.5,2.3-3.4,4.1-6,.2-.3.4-.4.7-.4h2.9c.3,0,.4,0,.4.4,0,2.9,0,4,0,6.9,0,.4,0,.5.5.5,2.5,0,5.8,0,5.8,0v4.1s-5.1.3-6,.4c-.2,0-.3,0-.3.3h0c0,3.6,0,8,0,11.5,0,1.3.1,2.6.6,3.8.4,1.2,1.2,2.3,2.6,2.3.8,0,1.8-.5,2.3-.8h0Z"/>
          <path class="cls-4" d="M1273.1,718.6c0,.3,0,.5.4.6.8.2,1.6.5,2.4.8.3,0,.4.2.4.5v27.2h9.1v-32.3c0-.2,0-.4-.3-.5-.5-.2-1-.5-1.6-.7-.2,0-.4-.1-.6,0-.9.1-7.2,1.1-9.4,1.4-.3,0-.4.2-.4.5,0,.8,0,1.7,0,2.5"/>
        </g>
        <path class="cls-4" d="M1261.7,740.1c-.8.5-3.3,2.4-3.6,2.6-.2.2-.4.2-.7,0-1.8-1.2-3-3-3.2-5.3,0-.3,0-.5.3-.6.5-.2,1.5-.6,1.9-.8,1.5-.6,3.1-.9,4.7-1.1.2,0,.4,0,.7,0,0,.2,0,3.3,0,4.7,0,.3,0,.5-.3.6M1271.2,747.7s0-11.3,0-14.3-.1-2.8-.5-4.1c-1.1-3.6-3.5-5.8-7.2-6.8-2.7-.7-5.4-.7-8.1-.2-.9.2-2.5.6-3.3.9-1.2.4-2.3.9-3.3,1.6-.2.2-.3.3-.3.6.2,1.6.5,3.2.7,4.8,0,.2.2.3.4.3.8,0,1.7,0,2.5,0,.3,0,.4,0,.6-.3.8-1.3,1.5-2.8,2.2-4.2.2-.3.4-.4.7-.4.2,0,.5,0,1.2,0,.9,0,1.7.3,2.5.8,1.4,1,2.1,2.4,2.4,4,.1.6,0,.8,0,.8,0,0-6.2,1-9.1,1.8-1.8.5-3.8,1-5.5,2.2-1.2.8-.7,4.7-.6,5.2,1.1,5,5.2,8.3,11.3,8.1.2,0,.5,0,.6-.2,1.2-1.1,4.4-3.9,4.4-3.9,0,0,.6,1.9,1,3,0,.3.2.4.6.4h6.9"/>
      </g>
    </g>
  </g>
  <g>
    <g>
      <path class="cls-5" d="M355.1,786.6c5.8,4.1,9.8,3.9,15.4-.4,24.1-18.9,48.5-37.5,73.1-55.7,5.2-3.8,7-8.1,7-15v-99.2h0c0-5.8-4.7-9.3-10.9-9.4-6.2,0-97.3,5.8-142.6,28-6.1,3-8.5,6.6-8,14.6,4.2,57.4,10.5,103.1,66.1,137.2"/>
      <g>
        <path class="cls-4" d="M430.1,708h-9.2s.1-13.8,0-14.8c-.3-2.2-1.8-3.1-3.8-3.6-.2,0-.5,0-.6.1-.9.7-1.8,1.3-2.7,2-.1.1-.2.3-.2.5,0,3.8,0,15.7,0,15.7h-9.2v-32.5c1.5-.2,5.9-.9,6.7-1,.2,0,.4,0,.6,0,.5.2,1,.5,1.5.7.3.1.4.3.4.6v11c.8-.7,4.1-3.6,5.1-4.4.1-.1.3-.2.5-.2,3.6.3,6.7,1.4,9,4.2,1.3,1.7,2,3.6,2,5.7,0,3.5,0,8.1,0,10.3v5.5h0Z"/>
        <path class="cls-4" d="M398.5,701.2c.6.9,1.6,2.1,2.3,3-.2.2-.4.5-.7.7-3.7,3.2-7.9,4.5-12.9,3.6-4.3-.8-7.5-3-9.4-6.8-1.4-2.7-1.7-5.5-1.3-8.5.4-2.7,1.5-5,3.4-7,2-2,4.5-3.2,7.3-3.7,3.6-.7,7.1-.3,10.5,1.2.7.3,1.3.7,2,1.1.2.1.3.3.2.5-.2,2.1-.5,4.2-.7,6.3,0,.3-.2.4-.5.4-.7,0-1.4,0-2.2,0-.3,0-.4,0-.5-.3-.4-1.2-.9-2.3-1.3-3.5-.1-.5-.4-.8-.8-1-1-.5-2.4-.8-3.6-1-1.1-.2-1.7.3-2.3,1.1-1,1.4-1.5,2.9-1.7,4.6-.3,2-.5,3.9,0,5.9.5,2.2,1.2,3.8,3.1,5.1,1.6,1.1,2.2,1,3.4.7s3.8-1.2,5.7-2.3h0Z"/>
        <path class="cls-4" d="M328.8,690.6c.7-.5,1.4-1,2-1.6.2-.2.5-.2.7,0,3,1.5,4.6,3.9,4.9,7.1.2,2.1,0,4.2-.8,6.2-.3.8-.8,1.6-1.4,2.2-.3.3-.5.4-.9.3-1.4-.3-4.2-.8-4.3-.9-.5,0-.6-.3-.6-.8,0-2,0-3.9,0-5.9v-6c0-.3,0-.5.3-.7M328.1,675.3c-.5-.2-1-.5-1.5-.7-.2,0-.5-.1-.7,0-.7,0-5.1.8-6.6,1v32.6c.4,0,9,.4,13,.6,1.5,0,2.9-.1,4.3-.5,3.6-1,6.3-3.1,7.6-6.5,1.1-2.7,1.3-5.6.9-8.5-.4-2.9-1.5-5.4-3.6-7.5-2.1-2-4.6-3.2-7.6-3.4-.3,0-.7.1-1,.3-1.6,1.1-4.5,3.2-4.5,3.2v-10c0-.3,0-.5-.4-.6"/>
        <path class="cls-4" d="M363.6,700.4c-.8.5-3.3,2.4-3.6,2.6-.2.2-.4.2-.6,0-1.8-1.2-3-3-3.1-5.3,0-.3,0-.5.3-.6.5-.2,1.5-.6,1.9-.8,1.5-.6,3.1-.9,4.7-1.1.2,0,.5,0,.7,0,0,.2,0,3.3,0,4.7,0,.3,0,.5-.3.6M373.1,708s0-11.3,0-14.3-.1-2.8-.5-4.1c-1.1-3.6-3.5-5.8-7.2-6.8-2.7-.7-5.4-.7-8.1-.2-.9.2-2.5.6-3.3.9-1.2.4-2.3.9-3.3,1.6-.2.2-.3.3-.3.6.2,1.6.5,3.2.7,4.8,0,.2.2.3.4.3.8,0,1.7,0,2.5,0,.3,0,.4,0,.5-.3.8-1.3,1.5-2.8,2.2-4.2.2-.3.4-.4.7-.4.2,0,.5,0,1.2,0,.9,0,1.7.3,2.5.8,1.4,1,2.1,2.4,2.4,4,.1.6,0,.8,0,.8,0,0-6.2,1-9.1,1.8-1.8.5-3.8,1-5.5,2.2-1.2.8-.7,4.7-.6,5.2,1.1,5,5.2,8.3,11.3,8.1.2,0,.5,0,.6-.2,1.2-1.1,4.4-3.9,4.4-3.9,0,0,.6,1.9,1,3,.1.3.2.4.6.4h6.9"/>
      </g>
      <g>
        <path class="cls-4" d="M398.7,663.5c-.4.7-.8,1.3-1.4,1.8-.2.2-.5.2-.8.2-1.7-.4-3.2-1.2-4.5-2.4-.1,0-.2-.3-.2-.5,0-1.7,0-3.5,0-5.2v-5.2c0-.3.1-.5.4-.7.9-.7,1.7-1.4,2.5-2.1.3-.2.5-.2.7,0,1.4.6,2.4,1.7,3.1,3,.2.5.5.9.6,1.4.6,1.7.8,3.5.6,5.3,0,1.1-.2,2.3-.6,3.3-.1.4-.3.7-.5,1.1M391.8,668.8c1,.1,1.9.3,2.8.4,1.2,0,2.5.2,3.7,0,3.2-.4,5.8-2,7.9-4.3,2-2.3,2.9-5.1,3.1-8.1.1-2.8-.5-5.5-2-7.9-1.5-2.3-3.7-4-6.3-5.1-1.3-.6-2.5-.9-4-.9-.3,0-.7.1-.9.3-1.6,1.3-5,3.8-5,3.8,0,0-.7-2.4-1.2-3.7-.2-.6-.2-.5-.8-.5-2.1.3-4.2.5-6.3.8v32.3c0,.3.1.3.3.3,0,0,1.2.3,1.9.4.3,0,.6,0,.8,0,.2,0,6.1-2.2,6.1-2.2v-5.8s0,0,0,0Z"/>
        <path class="cls-4" d="M364.4,641.3c0,.3,0,.5.4.6.8.2,1.6.5,2.5.8.3,0,.4.2.4.5v27.2h9.1v-32.3c0-.2,0-.4-.3-.5-.5-.2-1-.5-1.6-.7-.2,0-.4-.1-.6,0-.9.1-7.2,1.1-9.4,1.4-.3,0-.4.2-.4.5,0,.8,0,1.7,0,2.5"/>
      </g>
      <path class="cls-4" d="M352.4,662.8c-.8.5-3.3,2.4-3.6,2.6-.2.2-.4.2-.6,0-1.8-1.2-3-3-3.1-5.3,0-.3,0-.5.3-.6.5-.2,1.5-.6,1.9-.8,1.5-.6,3.1-.9,4.7-1.1.2,0,.5,0,.7,0,0,.2,0,3.3,0,4.7,0,.3,0,.5-.3.6M361.9,670.5s0-11.3,0-14.3-.1-2.8-.5-4.1c-1.1-3.6-3.5-5.8-7.2-6.8-2.7-.7-5.4-.7-8.1-.2-.9.2-2.5.6-3.3.9-1.2.4-2.3.9-3.3,1.6-.2.2-.3.3-.3.6.2,1.6.5,3.2.7,4.8,0,.2.2.3.4.3.8,0,1.7,0,2.5,0,.3,0,.4,0,.5-.3.8-1.3,1.5-2.8,2.2-4.2.2-.3.4-.4.7-.4.2,0,.5,0,1.2,0,.9,0,1.7.3,2.5.8,1.4,1,2.1,2.4,2.4,4,.1.6,0,.8,0,.8,0,0-6.2,1-9.1,1.8-1.8.5-3.8,1-5.5,2.2-1.2.8-.7,4.7-.6,5.2,1.1,5,5.2,8.3,11.3,8.1.2,0,.5,0,.6-.2,1.2-1.1,4.4-3.9,4.4-3.9,0,0,.6,1.9,1,3,.1.3.2.4.6.4h6.9"/>
      <g>
        <g>
          <path class="cls-4" d="M355.2,743.6l2.1,2.8c-2.3,1.6-4.9,2.3-7.9,2-1.6-.2-3.2-.4-4.7-1.2-1.8-1-2.8-2.4-3.4-4.3-.7-2.2-.8-4.6-.8-6.9,0-2.7,0-6.2,0-8.9s0-.5-.4-.6c-.8-.3-1.6-.7-2.5-1.1-.3-.1-.4-.3-.4-.6,0-.9,0-1.7,0-2.6,0-.3,0-.4.4-.5,1.1-.3,2.1-.5,3.2-.8.3,0,.4-.2.6-.4,1.7-2.5,2.3-3.4,4.1-6,.2-.3.4-.4.7-.4h2.9c.4,0,.5,0,.5.4,0,2.9,0,4,0,6.9,0,.4.1.5.5.5,2.5,0,5.8,0,5.8,0v4.1s-5.1.3-6,.4c-.2,0-.3,0-.3.3h0c0,3.6,0,8,0,11.5,0,1.3.1,2.6.6,3.8.4,1.2,1.2,2.3,2.6,2.3.8,0,1.8-.5,2.4-.8h0Z"/>
          <path class="cls-4" d="M384.4,718.6c0,.3,0,.5.4.6.8.2,1.6.5,2.5.8.3,0,.4.2.4.5v27.2h9.1v-32.3c0-.2,0-.4-.3-.5-.5-.2-1-.5-1.6-.7-.2,0-.4-.1-.6,0-.9.1-7.2,1.1-9.4,1.4-.3,0-.4.2-.4.5,0,.8,0,1.7,0,2.5"/>
        </g>
        <path class="cls-4" d="M373,740.1c-.8.5-3.3,2.4-3.6,2.6-.2.2-.4.2-.6,0-1.8-1.2-3-3-3.1-5.3,0-.3,0-.5.3-.6.5-.2,1.5-.6,1.9-.8,1.5-.6,3.1-.9,4.7-1.1.2,0,.5,0,.7,0,0,.2,0,3.3,0,4.7,0,.3,0,.5-.3.6M382.5,747.7s0-11.3,0-14.3-.1-2.8-.5-4.1c-1.1-3.6-3.5-5.8-7.2-6.8-2.7-.7-5.4-.7-8.1-.2-.9.2-2.5.6-3.3.9-1.2.4-2.3.9-3.3,1.6-.2.2-.3.3-.3.6.2,1.6.5,3.2.7,4.8,0,.2.2.3.4.3.8,0,1.7,0,2.5,0,.3,0,.4,0,.5-.3.8-1.3,1.5-2.8,2.2-4.2.2-.3.4-.4.7-.4.2,0,.5,0,1.2,0,.9,0,1.7.3,2.5.8,1.4,1,2.1,2.4,2.4,4,.1.6,0,.8,0,.8,0,0-6.2,1-9.1,1.8-1.8.5-3.8,1-5.5,2.2-1.2.8-.7,4.7-.6,5.2,1.1,5,5.2,8.3,11.3,8.1.2,0,.5,0,.6-.2,1.2-1.1,4.4-3.9,4.4-3.9,0,0,.6,1.9,1,3,.1.3.2.4.6.4h6.9"/>
      </g>
    </g>
    <g class="cls-7">
      <g class="cls-7">
        <path class="cls-4" d="M264.5,886.4l-8.3-10.6c-1.3.2-3.1.3-4.6.3h-6.4v24h-12.7v-65.7h24c13.9,0,23.8,6.5,23.8,20.6s-3.5,14.1-11.3,17.9l7.5,9.1c3.9,4.6,7.8,7.7,14.7,9.6l-2.9,9.8c-11-.8-17.4-6.9-23.9-14.9ZM252.3,866.7c9.7,0,15-3.6,15-11.3s-3.7-11.1-12.7-11.1h-9.2v22.4h7Z"/>
        <path class="cls-4" d="M302,834.3h40.7v10h-28.1v17.9h26v9.5h-26v18.2h30.2v10h-42.9v-65.7Z"/>
        <path class="cls-4" d="M359.7,834.3h12.6v65.7h-12.6v-65.7Z"/>
        <path class="cls-4" d="M404.9,844.4h-21.3v-10.1h55.3v10.1h-21.3v55.6h-12.7v-55.6Z"/>
        <path class="cls-4" d="M450.3,834.3h12.6v27.8h31.1v-27.8h12.6v65.7h-12.6v-28.1h-31.1v28.1h-12.6v-65.7Z"/>
      </g>
    </g>
    <g class="cls-7">
      <g class="cls-7">
        <path class="cls-4" d="M239.7,934.1h5.3v21.9h-5.3v-21.9Z"/>
        <path class="cls-4" d="M250.4,934.1h6.4l6.1,17.2,7-17.2h6.1v21.9h-5.3v-8.2l.2-5.1-5.2,13.3h-5.9l-4.5-13.7.3,5.5v8.2h-5.3v-21.9Z"/>
        <path class="cls-4" d="M295,934.1h6.8l7.4,21.9h-5.5l-2.1-6.4h-7.4l-2.4,6.4h-5.3l8.4-21.9ZM300.4,945.7l-2.2-8.4-2.6,8.4h4.8Z"/>
        <path class="cls-4" d="M312.5,934.1h5.3v17.8h9.5v4.2h-14.8v-21.9Z"/>
        <path class="cls-4" d="M330.9,934.1h8.5c4.9,0,8.5,2.9,8.5,7.8s-3.5,7.9-10.1,7.9h-1.6v6.2h-5.3v-21.9ZM336.2,945.7h1.8c3.3,0,4.5-1.7,4.5-3.8s-.9-3.8-3.7-3.8h-2.5v7.5Z"/>
        <path class="cls-4" d="M351.5,934.1h7.7c5.4,0,8.2,1.9,8.2,6s-1.1,3.2-2.2,3.9h0c1.5.6,3.8,2.2,3.8,5.2s-2.4,6.8-8.8,6.8h-8.6v-21.9ZM358.6,943c2.3,0,3.4-.4,3.4-2.4s-1.2-2.6-3.7-2.6h-1.6v5h1.9ZM359.4,951.8c2.8,0,4.2-.7,4.2-2.5s-1.5-2.7-4.6-2.7h-2.3v5.2h2.7Z"/>
        <path class="cls-4" d="M379.4,934.1h6.8l7.4,21.9h-5.5l-2.1-6.4h-7.4l-2.4,6.4h-5.3l8.4-21.9ZM384.8,945.7l-2.2-8.4-2.6,8.4h4.8Z"/>
        <path class="cls-4" d="M395,945.2c0-7.6,4.1-11.4,12-11.4s5.2.6,6.8,1.3l-1.4,3.8c-2.1-.6-2.9-.8-5.4-.8-4,0-6.7,2.2-6.7,6.8s2.9,7,7.3,7,3.4-.2,5.1-.6l1.1,4c-2.1.8-3.9,1.1-6.8,1.1-8,0-12.1-3.9-12.1-11.1Z"/>
        <path class="cls-4" d="M417.9,934.1h5.3v8.9h9.3v-8.9h5.3v21.9h-5.3v-9h-9.3v9h-5.3v-21.9Z"/>
        <path class="cls-4" d="M447.9,938.2h-6.9v-4.1h19v4.1h-6.9v17.8h-5.3v-17.8Z"/>
        <path class="cls-4" d="M467.2,934.1h6.8l7.4,21.9h-5.5l-2.1-6.4h-7.4l-2.4,6.4h-5.3l8.4-21.9ZM472.6,945.7l-2.2-8.4-2.6,8.4h4.8Z"/>
        <path class="cls-4" d="M484.8,934.1h5.3v17.8h9.5v4.2h-14.8v-21.9Z"/>
      </g>
    </g>
  </g>
  <g>
    <g>
      <g class="cls-7">
        <g class="cls-7">
          <path class="cls-4" d="M925.1,2063.5h21.1c15.6,0,23.2,6.2,23.2,17.5s-3.6,10.9-7.8,12.7v.2c5.3,1.3,12.6,6.4,12.6,15.6s-6.8,19.7-25.2,19.7h-23.9v-65.7ZM945.7,2091.2c7.4,0,11.2-2.6,11.2-8.9s-4.5-9-12.8-9h-6.1v17.9h7.8ZM947.8,2119.2c8.7,0,13.7-2.2,13.7-9.3s-5-9.7-14.9-9.7h-8.7v19h9.9Z"/>
          <path class="cls-4" d="M1020.7,2115.6l-8.3-10.6c-1.3.2-3.1.3-4.6.3h-6.4v24h-12.7v-65.7h24c13.9,0,23.8,6.5,23.8,20.6s-3.5,14.1-11.3,17.9l7.5,9.1c3.9,4.6,7.8,7.7,14.7,9.6l-2.9,9.8c-11-.8-17.4-6.9-23.9-14.9ZM1008.4,2096c9.7,0,15-3.6,15-11.3s-3.7-11.1-12.7-11.1h-9.2v22.4h7Z"/>
          <path class="cls-4" d="M1058.2,2063.5h40.7v10h-28.1v17.9h26v9.5h-26v18.2h30.2v10h-42.9v-65.7Z"/>
          <path class="cls-4" d="M1115.8,2063.5h12.6v65.7h-12.6v-65.7Z"/>
          <path class="cls-4" d="M1161.1,2073.6h-21.3v-10.1h55.3v10.1h-21.3v55.6h-12.7v-55.6Z"/>
          <path class="cls-4" d="M1206.5,2063.5h40.7v10h-28.1v17.9h26v9.5h-26v18.2h30.2v10h-42.9v-65.7Z"/>
          <path class="cls-4" d="M1264.1,2063.5h15.1l29,49.7h.2l-.4-7.7v-41.9h12.7v65.7h-15.6l-28.4-48.6h-.4l.4,8v40.6h-12.6v-65.7Z"/>
          <path class="cls-4" d="M1339.6,2063.5h21.1c15.6,0,23.2,6.2,23.2,17.5s-3.6,10.9-7.8,12.7v.2c5.3,1.3,12.6,6.4,12.6,15.6s-6.8,19.7-25.2,19.7h-23.9v-65.7ZM1360.2,2091.2c7.4,0,11.2-2.6,11.2-8.9s-4.5-9-12.8-9h-6.1v17.9h7.8ZM1362.3,2119.2c8.7,0,13.7-2.2,13.7-9.3s-5-9.7-14.9-9.7h-8.7v19h10Z"/>
          <path class="cls-4" d="M1419.8,2063.5h16.5l22.8,65.7h-13.3l-7.2-21.3h-23.7l-8.1,21.3h-12.9l25.9-65.7ZM1435.4,2098.6l-7.9-27-9.1,27h17Z"/>
          <path class="cls-4" d="M1466,2096.8c0-21,13.2-34.3,35.2-34.3s15.4,2,19.9,4l-3.5,9.4c-5.7-1.7-8.8-2.6-16.2-2.7-12.6,0-22.4,6.9-22.4,22.7s10.1,23.6,24.2,23.6,10.6-.7,15.3-2.1l2.8,9.8c-5.6,2-11,3.3-19.7,3.3-23.2,0-35.6-12.7-35.6-33.6Z"/>
          <path class="cls-4" d="M1535.1,2063.5h12.6v27.8h31.1v-27.8h12.6v65.7h-12.6v-28.1h-31.1v28.1h-12.6v-65.7Z"/>
        </g>
      </g>
      <g class="cls-7">
        <g class="cls-7">
          <path class="cls-4" d="M1205.2,2163.3h6.8l7.4,21.9h-5.5l-2.1-6.4h-7.4l-2.4,6.4h-5.3l8.4-21.9ZM1210.6,2175l-2.2-8.4-2.6,8.4h4.8Z"/>
          <path class="cls-4" d="M1222.8,2163.3h6.4l6.1,17.2,7-17.2h6.1v21.9h-5.3v-8.2l.2-5.1-5.2,13.3h-5.9l-4.5-13.7.3,5.5v8.2h-5.3v-21.9Z"/>
          <path class="cls-4" d="M1262.2,2163.3h5.3v21.9h-5.3v-21.9Z"/>
          <path class="cls-4" d="M1272.9,2163.3h6.1l8.6,15-.2-2.4v-12.6h5.3v21.9h-6.3l-8.4-14.7v2.9c.1,0,.1,11.7.1,11.7h-5.3v-21.9Z"/>
          <path class="cls-4" d="M1298.2,2163.3h6.1l8.6,15-.2-2.4v-12.6h5.3v21.9h-6.3l-8.4-14.7v2.9c.1,0,.1,11.7.1,11.7h-5.3v-21.9Z"/>
        </g>
      </g>
      <g>
        <path class="cls-5" d="M1243.8,2015.8c5.8,4.1,9.8,3.9,15.3-.4,24.2-18.9,48.5-37.5,73.1-55.7,5.2-3.8,7-8.1,7-15v-99.2h0c0-5.8-4.7-9.3-10.9-9.4-6.2,0-97.3,5.8-142.6,27.9-6.1,3-8.5,6.6-7.9,14.6,4.2,57.4,10.5,103.1,66.1,137.2"/>
        <g>
          <path class="cls-4" d="M1318.8,1937.2h-9.2s.1-13.8,0-14.8c-.3-2.2-1.8-3.1-3.8-3.6-.2,0-.4,0-.6.1-.9.7-1.8,1.3-2.7,2-.1.1-.2.3-.2.5,0,3.8,0,15.7,0,15.7h-9.2v-32.5c1.5-.2,5.9-.9,6.7-1,.2,0,.4,0,.6,0,.5.2,1,.5,1.5.7.3.1.4.3.4.6v11c.8-.7,4.2-3.6,5.1-4.4.1-.1.3-.2.5-.2,3.6.3,6.7,1.4,9,4.2,1.3,1.7,1.9,3.6,2,5.7,0,3.4,0,8.1,0,10.3v5.5h0Z"/>
          <path class="cls-4" d="M1287.2,1930.4c.7.9,1.6,2.1,2.3,3-.2.2-.4.5-.7.7-3.7,3.2-7.9,4.5-12.9,3.6-4.3-.8-7.5-3-9.4-6.8-1.4-2.7-1.7-5.5-1.3-8.5.4-2.7,1.4-5,3.4-6.9,2-2,4.5-3.2,7.3-3.7,3.6-.7,7.1-.3,10.5,1.2.7.3,1.3.7,2,1.1.2.1.3.3.2.5-.2,2.1-.5,4.2-.7,6.3,0,.3-.2.4-.5.4-.7,0-1.4,0-2.2,0-.3,0-.4,0-.5-.3-.4-1.2-.9-2.3-1.3-3.5-.2-.5-.4-.8-.8-1-1-.5-2.4-.8-3.7-1-1.1-.2-1.7.3-2.3,1.1-1,1.4-1.5,2.9-1.7,4.6-.3,2-.5,3.9,0,5.9.5,2.2,1.2,3.8,3.1,5.1,1.6,1.1,2.2,1,3.3.7s3.8-1.2,5.7-2.3h0Z"/>
          <path class="cls-4" d="M1217.5,1919.8c.7-.5,1.4-1,2-1.6.2-.2.4-.2.7,0,2.9,1.5,4.6,3.9,4.9,7.1.2,2.1,0,4.2-.8,6.2-.3.8-.8,1.6-1.4,2.2-.3.3-.5.4-.9.3-1.3-.3-4.2-.8-4.3-.9-.4,0-.6-.3-.6-.8,0-2,0-3.9,0-5.9v-6c0-.3,0-.5.3-.7M1216.8,1904.5c-.5-.2-1-.5-1.5-.7-.2,0-.4-.1-.7,0-.7,0-5.2.8-6.6,1v32.6c.4,0,9.1.4,13,.6,1.4,0,2.9-.1,4.3-.5,3.6-1,6.3-3.1,7.7-6.5,1.1-2.7,1.3-5.6.9-8.5-.4-2.9-1.5-5.4-3.6-7.5-2.1-2.1-4.6-3.2-7.6-3.4-.3,0-.7.1-1,.3-1.6,1.1-4.6,3.2-4.6,3.2v-10c0-.3,0-.5-.4-.6"/>
          <path class="cls-4" d="M1252.2,1929.6c-.8.5-3.3,2.4-3.6,2.6-.2.2-.4.2-.7,0-1.8-1.2-3-3-3.2-5.3,0-.3,0-.4.3-.6.5-.2,1.5-.6,1.9-.8,1.5-.6,3.1-.9,4.7-1.1.2,0,.4,0,.7,0,0,.2,0,3.3,0,4.7,0,.3,0,.4-.3.6M1261.7,1937.2s0-11.3,0-14.3-.1-2.8-.5-4.1c-1.1-3.6-3.5-5.8-7.2-6.8-2.7-.7-5.4-.7-8.1-.2-.9.2-2.5.6-3.3.9-1.2.4-2.3.9-3.3,1.6-.2.2-.3.3-.3.6.2,1.6.5,3.2.7,4.8,0,.2.2.3.4.3.8,0,1.7,0,2.5,0,.3,0,.4,0,.6-.3.8-1.3,1.5-2.8,2.2-4.2.2-.3.4-.4.7-.4.2,0,.5,0,1.2,0,.9,0,1.7.3,2.5.8,1.4,1,2.1,2.4,2.4,4,.1.6,0,.8,0,.8,0,0-6.2,1-9.1,1.8-1.8.5-3.8,1.1-5.5,2.2-1.2.8-.7,4.7-.6,5.2,1.1,5,5.2,8.3,11.3,8.1.2,0,.5,0,.6-.2,1.2-1.1,4.4-3.9,4.4-3.9,0,0,.6,1.9,1,3,0,.3.2.4.6.4h6.9"/>
        </g>
        <g>
          <path class="cls-4" d="M1287.3,1892.7c-.3.7-.8,1.3-1.4,1.8-.2.2-.5.2-.8.2-1.7-.4-3.2-1.2-4.5-2.4-.1,0-.2-.3-.2-.5,0-1.7,0-3.5,0-5.2v-5.2c0-.3.1-.5.3-.7.9-.7,1.7-1.4,2.6-2.1.3-.2.5-.2.7,0,1.4.6,2.4,1.7,3.1,3,.2.4.4.9.6,1.4.6,1.7.8,3.5.6,5.3,0,1.1-.2,2.3-.6,3.3-.1.4-.3.7-.4,1.1M1280.4,1898.1c1,.1,1.9.3,2.8.4,1.2,0,2.5.2,3.7,0,3.2-.4,5.8-2,7.9-4.3,2-2.3,2.9-5.1,3.1-8.1.1-2.8-.4-5.5-2-7.9-1.5-2.3-3.7-4-6.3-5.1-1.3-.6-2.5-.9-4-.9-.3,0-.7.1-.9.3-1.6,1.3-5.1,3.8-5.1,3.8,0,0-.7-2.4-1.2-3.7-.2-.6-.2-.6-.8-.5-2.1.3-4.2.5-6.3.8v32.3c0,.3.2.3.3.3,0,0,1.2.3,1.9.4.3,0,.6,0,.8,0,.2,0,6.1-2.2,6.1-2.2v-5.8s0,0,0,0Z"/>
          <path class="cls-4" d="M1253.1,1870.6c0,.3,0,.5.4.6.8.2,1.6.5,2.4.8.3,0,.4.2.4.5v27.2h9.1v-32.3c0-.2,0-.4-.3-.5-.5-.2-1-.5-1.6-.7-.2,0-.4-.1-.6,0-.9.1-7.2,1.1-9.4,1.4-.3,0-.4.2-.4.5,0,.8,0,1.7,0,2.5"/>
        </g>
        <path class="cls-4" d="M1241,1892c-.8.5-3.3,2.4-3.6,2.6-.2.2-.4.2-.7,0-1.8-1.2-3-3-3.2-5.3,0-.3,0-.4.3-.6.5-.2,1.5-.6,1.9-.8,1.5-.6,3.1-.9,4.7-1.1.2,0,.4,0,.7,0,0,.2,0,3.3,0,4.7,0,.3,0,.4-.3.6M1250.5,1899.7s0-11.3,0-14.3-.1-2.8-.5-4.1c-1.1-3.6-3.5-5.8-7.2-6.8-2.7-.7-5.4-.7-8.1-.2-.9.2-2.5.6-3.3.9-1.2.4-2.3.9-3.3,1.6-.2.2-.3.3-.3.6.2,1.6.5,3.2.7,4.8,0,.2.2.3.4.3.8,0,1.7,0,2.5,0,.3,0,.4,0,.6-.3.8-1.3,1.5-2.8,2.2-4.2.2-.3.4-.4.7-.4.2,0,.5,0,1.2,0,.9,0,1.7.3,2.5.8,1.4,1,2.1,2.4,2.4,4,.1.6,0,.8,0,.8,0,0-6.2,1-9.1,1.8-1.8.5-3.8,1.1-5.5,2.2-1.2.8-.7,4.7-.6,5.2,1.1,5,5.2,8.3,11.3,8.1.2,0,.5,0,.6-.2,1.2-1.1,4.4-3.9,4.4-3.9,0,0,.6,1.9,1,3,0,.3.2.4.6.4h6.9"/>
        <g>
          <g>
            <path class="cls-4" d="M1243.9,1972.8l2.1,2.8c-2.3,1.6-4.9,2.3-7.9,2-1.6-.2-3.2-.4-4.7-1.2-1.8-.9-2.8-2.4-3.4-4.3-.7-2.2-.8-4.6-.8-6.9,0-2.7,0-6.2,0-8.9s0-.5-.4-.6c-.8-.3-1.6-.7-2.4-1.1-.3-.1-.4-.3-.4-.6,0-.9,0-1.7,0-2.6,0-.3,0-.4.4-.5,1.1-.3,2.1-.6,3.2-.8.3,0,.4-.2.6-.4,1.7-2.5,2.3-3.4,4.1-6,.2-.3.4-.4.7-.4h2.9c.3,0,.4,0,.4.4,0,2.9,0,4,0,6.9,0,.4,0,.5.5.5,2.5,0,5.8,0,5.8,0v4.1s-5.1.3-6,.4c-.2,0-.3,0-.3.3h0c0,3.6,0,8,0,11.4,0,1.3.1,2.6.6,3.8.4,1.2,1.2,2.3,2.6,2.3.8,0,1.8-.5,2.3-.8h0Z"/>
            <path class="cls-4" d="M1273.1,1947.8c0,.3,0,.5.4.6.8.2,1.6.5,2.4.8.3,0,.4.2.4.5v27.2h9.1v-32.3c0-.2,0-.4-.3-.5-.5-.2-1-.5-1.6-.7-.2,0-.4-.1-.6,0-.9.1-7.2,1.1-9.4,1.4-.3,0-.4.2-.4.5,0,.8,0,1.7,0,2.5"/>
          </g>
          <path class="cls-4" d="M1261.7,1969.3c-.8.5-3.3,2.4-3.6,2.6-.2.2-.4.2-.7,0-1.8-1.2-3-3-3.2-5.3,0-.3,0-.4.3-.6.5-.2,1.5-.6,1.9-.8,1.5-.6,3.1-.9,4.7-1.1.2,0,.4,0,.7,0,0,.2,0,3.3,0,4.7,0,.3,0,.4-.3.6M1271.2,1976.9s0-11.3,0-14.3-.1-2.8-.5-4.1c-1.1-3.6-3.5-5.8-7.2-6.8-2.7-.7-5.4-.7-8.1-.2-.9.2-2.5.6-3.3.9-1.2.4-2.3.9-3.3,1.6-.2.2-.3.3-.3.6.2,1.6.5,3.2.7,4.8,0,.2.2.3.4.3.8,0,1.7,0,2.5,0,.3,0,.4,0,.6-.3.8-1.3,1.5-2.8,2.2-4.2.2-.3.4-.4.7-.4.2,0,.5,0,1.2,0,.9,0,1.7.3,2.5.8,1.4,1,2.1,2.4,2.4,4,.1.6,0,.8,0,.8,0,0-6.2,1-9.1,1.8-1.8.5-3.8,1.1-5.5,2.2-1.2.8-.7,4.7-.6,5.2,1.1,5,5.2,8.3,11.3,8.1.2,0,.5,0,.6-.2,1.2-1.1,4.4-3.9,4.4-3.9,0,0,.6,1.9,1,3,0,.3.2.4.6.4h6.9"/>
        </g>
      </g>
    </g>
    <g>
      <g class="cls-7">
        <g class="cls-7">
          <path class="cls-4" d="M8.6,2061.5h21.1c15.6,0,23.2,6.2,23.2,17.5s-3.6,10.9-7.8,12.7v.2c5.3,1.3,12.6,6.4,12.6,15.6s-6.8,19.7-25.2,19.7H8.6v-65.7ZM29.1,2089.2c7.4,0,11.2-2.6,11.2-8.9s-4.5-9-12.8-9h-6.1v17.9h7.8ZM31.2,2117.2c8.7,0,13.7-2.2,13.7-9.3s-5-9.7-14.9-9.7h-8.7v19h9.9Z"/>
          <path class="cls-4" d="M104.1,2113.6l-8.3-10.6c-1.3.2-3.1.3-4.6.3h-6.4v24h-12.7v-65.7h24c13.9,0,23.8,6.5,23.8,20.6s-3.5,14.1-11.3,17.9l7.5,9.1c3.9,4.6,7.8,7.7,14.7,9.6l-2.9,9.8c-11-.8-17.4-6.9-23.9-14.9ZM91.9,2094c9.7,0,15-3.6,15-11.3s-3.7-11.1-12.7-11.1h-9.2v22.4h7Z"/>
          <path class="cls-4" d="M158.2,2061.5h16.5l22.8,65.7h-13.3l-7.2-21.3h-23.7l-8.1,21.3h-12.9l25.9-65.7ZM173.8,2096.6l-7.9-27-9.1,27h17Z"/>
          <path class="cls-4" d="M208.6,2061.5h15.1l29,49.7h.2l-.4-7.7v-41.9h12.7v65.7h-15.6l-28.4-48.6h-.4l.4,8v40.6h-12.6v-65.7Z"/>
          <path class="cls-4" d="M284.1,2061.5h21.3c22.2,0,37.8,9.9,37.8,32.6s-14.1,33.1-37.2,33.1h-21.9v-65.7ZM306.9,2117.2c15.9,0,23.4-7.6,23.4-22.1s-8.8-23.5-25.3-23.5h-8.4v45.7h10.2Z"/>
          <path class="cls-4" d="M357.9,2061.5h40.7v10h-28.1v17.9h26v9.5h-26v18.2h30.2v10h-42.9v-65.7Z"/>
          <path class="cls-4" d="M415.5,2061.5h15.1l29,49.7h.2l-.4-7.7v-41.9h12.7v65.7h-15.6l-28.4-48.6h-.4l.4,8v40.6h-12.6v-65.7Z"/>
          <path class="cls-4" d="M491,2061.5h21.1c15.6,0,23.2,6.2,23.2,17.5s-3.6,10.9-7.8,12.7v.2c5.3,1.3,12.6,6.4,12.6,15.6s-6.8,19.7-25.2,19.7h-23.9v-65.7ZM511.6,2089.2c7.4,0,11.2-2.6,11.2-8.9s-4.5-9-12.8-9h-6.1v17.9h7.8ZM513.7,2117.2c8.7,0,13.7-2.2,13.7-9.3s-5-9.7-14.9-9.7h-8.7v19h9.9Z"/>
          <path class="cls-4" d="M554.6,2061.5h40.7v10h-28.1v17.9h26v9.5h-26v18.2h30.2v10h-42.9v-65.7Z"/>
          <path class="cls-4" d="M644.3,2113.6l-8.3-10.6c-1.3.2-3.1.3-4.6.3h-6.4v24h-12.7v-65.7h24c13.9,0,23.8,6.5,23.8,20.6s-3.5,14.1-11.3,17.9l7.5,9.1c3.9,4.6,7.8,7.7,14.7,9.6l-2.9,9.8c-11-.8-17.4-6.9-23.9-14.9ZM632,2094c9.7,0,15-3.6,15-11.3s-3.7-11.1-12.7-11.1h-9.2v22.4h7Z"/>
          <path class="cls-4" d="M677.5,2094.8c0-22.6,12.6-34.2,35.6-34.2s14.7,1.8,19.4,3.8l-3.4,9.5c-5.4-1.6-8.9-2.7-16.1-2.7-12.5,0-22.5,6.4-22.5,22.7s10.8,23.6,23.9,23.6,4.9-.3,6.7-.6v-22.1h12.6v29.8c-6.7,2.5-12.8,3.6-20.7,3.6-21.8,0-35.5-11.5-35.5-33.5Z"/>
        </g>
      </g>
      <g>
        <path class="cls-5" d="M355.1,2013.8c5.8,4.1,9.8,3.9,15.4-.4,24.1-18.9,48.5-37.5,73.1-55.7,5.2-3.8,7-8.1,7-15v-99.2h0c0-5.8-4.7-9.3-10.9-9.4-6.2,0-97.3,5.8-142.6,27.9-6.1,3-8.5,6.6-8,14.6,4.2,57.4,10.5,103.1,66.1,137.2"/>
        <g>
          <path class="cls-4" d="M430.1,1935.2h-9.2s.1-13.8,0-14.8c-.3-2.2-1.8-3.1-3.8-3.6-.2,0-.5,0-.6.1-.9.7-1.8,1.3-2.7,2-.1.1-.2.3-.2.5,0,3.8,0,15.7,0,15.7h-9.2v-32.5c1.5-.2,5.9-.9,6.7-1,.2,0,.4,0,.6,0,.5.2,1,.5,1.5.7.3.1.4.3.4.6v11c.8-.7,4.1-3.6,5.1-4.4.1-.1.3-.2.5-.2,3.6.3,6.7,1.4,9,4.2,1.3,1.7,2,3.6,2,5.7,0,3.4,0,8.1,0,10.3v5.5h0Z"/>
          <path class="cls-4" d="M398.5,1928.4c.6.9,1.6,2.1,2.3,3-.2.2-.4.5-.7.7-3.7,3.2-7.9,4.5-12.9,3.6-4.3-.8-7.5-3-9.4-6.8-1.4-2.7-1.7-5.5-1.3-8.5.4-2.7,1.5-5,3.4-6.9,2-2,4.5-3.2,7.3-3.7,3.6-.7,7.1-.3,10.5,1.2.7.3,1.3.7,2,1.1.2.1.3.3.2.5-.2,2.1-.5,4.2-.7,6.3,0,.3-.2.4-.5.4-.7,0-1.4,0-2.2,0-.3,0-.4,0-.5-.3-.4-1.2-.9-2.3-1.3-3.5-.1-.5-.4-.8-.8-1-1-.5-2.4-.8-3.6-1-1.1-.2-1.7.3-2.3,1.1-1,1.4-1.5,2.9-1.7,4.6-.3,2-.5,3.9,0,5.9.5,2.2,1.2,3.8,3.1,5.1,1.6,1.1,2.2,1,3.4.7s3.8-1.2,5.7-2.3h0Z"/>
          <path class="cls-4" d="M328.8,1917.8c.7-.5,1.4-1,2-1.6.2-.2.5-.2.7,0,3,1.5,4.6,3.9,4.9,7.1.2,2.1,0,4.2-.8,6.2-.3.8-.8,1.6-1.4,2.2-.3.3-.5.4-.9.3-1.4-.3-4.2-.8-4.3-.9-.5,0-.6-.3-.6-.8,0-2,0-3.9,0-5.9v-6c0-.3,0-.5.3-.7M328.1,1902.5c-.5-.2-1-.5-1.5-.7-.2,0-.5-.1-.7,0-.7,0-5.1.8-6.6,1v32.6c.4,0,9,.4,13,.6,1.5,0,2.9-.1,4.3-.5,3.6-1,6.3-3.1,7.6-6.5,1.1-2.7,1.3-5.6.9-8.5-.4-2.9-1.5-5.4-3.6-7.5-2.1-2.1-4.6-3.2-7.6-3.4-.3,0-.7.1-1,.3-1.6,1.1-4.5,3.2-4.5,3.2v-10c0-.3,0-.5-.4-.6"/>
          <path class="cls-4" d="M363.6,1927.7c-.8.5-3.3,2.4-3.6,2.6-.2.2-.4.2-.6,0-1.8-1.2-3-3-3.1-5.3,0-.3,0-.4.3-.6.5-.2,1.5-.6,1.9-.8,1.5-.6,3.1-.9,4.7-1.1.2,0,.5,0,.7,0,0,.2,0,3.3,0,4.7,0,.3,0,.4-.3.6M373.1,1935.3s0-11.3,0-14.3-.1-2.8-.5-4.1c-1.1-3.6-3.5-5.8-7.2-6.8-2.7-.7-5.4-.7-8.1-.2-.9.2-2.5.6-3.3.9-1.2.4-2.3.9-3.3,1.6-.2.2-.3.3-.3.6.2,1.6.5,3.2.7,4.8,0,.2.2.3.4.3.8,0,1.7,0,2.5,0,.3,0,.4,0,.5-.3.8-1.3,1.5-2.8,2.2-4.2.2-.3.4-.4.7-.4.2,0,.5,0,1.2,0,.9,0,1.7.3,2.5.8,1.4,1,2.1,2.4,2.4,4,.1.6,0,.8,0,.8,0,0-6.2,1-9.1,1.8-1.8.5-3.8,1.1-5.5,2.2-1.2.8-.7,4.7-.6,5.2,1.1,5,5.2,8.3,11.3,8.1.2,0,.5,0,.6-.2,1.2-1.1,4.4-3.9,4.4-3.9,0,0,.6,1.9,1,3,.1.3.2.4.6.4h6.9"/>
        </g>
        <g>
          <path class="cls-4" d="M398.7,1890.7c-.4.7-.8,1.3-1.4,1.8-.2.2-.5.2-.8.2-1.7-.4-3.2-1.2-4.5-2.4-.1,0-.2-.3-.2-.5,0-1.7,0-3.5,0-5.2v-5.2c0-.3.1-.5.4-.7.9-.7,1.7-1.4,2.5-2.1.3-.2.5-.2.7,0,1.4.6,2.4,1.7,3.1,3,.2.4.5.9.6,1.4.6,1.7.8,3.5.6,5.3,0,1.1-.2,2.3-.6,3.3-.1.4-.3.7-.5,1.1M391.8,1896.1c1,.1,1.9.3,2.8.4,1.2,0,2.5.2,3.7,0,3.2-.4,5.8-2,7.9-4.3,2-2.3,2.9-5.1,3.1-8.1.1-2.8-.5-5.5-2-7.9-1.5-2.3-3.7-4-6.3-5.1-1.3-.6-2.5-.9-4-.9-.3,0-.7.1-.9.3-1.6,1.3-5,3.8-5,3.8,0,0-.7-2.4-1.2-3.7-.2-.6-.2-.6-.8-.5-2.1.3-4.2.5-6.3.8v32.3c0,.3.1.3.3.3,0,0,1.2.3,1.9.4.3,0,.6,0,.8,0,.2,0,6.1-2.2,6.1-2.2v-5.8s0,0,0,0Z"/>
          <path class="cls-4" d="M364.4,1868.6c0,.3,0,.5.4.6.8.2,1.6.5,2.5.8.3,0,.4.2.4.5v27.2h9.1v-32.3c0-.2,0-.4-.3-.5-.5-.2-1-.5-1.6-.7-.2,0-.4-.1-.6,0-.9.1-7.2,1.1-9.4,1.4-.3,0-.4.2-.4.5,0,.8,0,1.7,0,2.5"/>
        </g>
        <path class="cls-4" d="M352.4,1890.1c-.8.5-3.3,2.4-3.6,2.6-.2.2-.4.2-.6,0-1.8-1.2-3-3-3.1-5.3,0-.3,0-.4.3-.6.5-.2,1.5-.6,1.9-.8,1.5-.6,3.1-.9,4.7-1.1.2,0,.5,0,.7,0,0,.2,0,3.3,0,4.7,0,.3,0,.4-.3.6M361.9,1897.7s0-11.3,0-14.3-.1-2.8-.5-4.1c-1.1-3.6-3.5-5.8-7.2-6.8-2.7-.7-5.4-.7-8.1-.2-.9.2-2.5.6-3.3.9-1.2.4-2.3.9-3.3,1.6-.2.2-.3.3-.3.6.2,1.6.5,3.2.7,4.8,0,.2.2.3.4.3.8,0,1.7,0,2.5,0,.3,0,.4,0,.5-.3.8-1.3,1.5-2.8,2.2-4.2.2-.3.4-.4.7-.4.2,0,.5,0,1.2,0,.9,0,1.7.3,2.5.8,1.4,1,2.1,2.4,2.4,4,.1.6,0,.8,0,.8,0,0-6.2,1-9.1,1.8-1.8.5-3.8,1.1-5.5,2.2-1.2.8-.7,4.7-.6,5.2,1.1,5,5.2,8.3,11.3,8.1.2,0,.5,0,.6-.2,1.2-1.1,4.4-3.9,4.4-3.9,0,0,.6,1.9,1,3,.1.3.2.4.6.4h6.9"/>
        <g>
          <g>
            <path class="cls-4" d="M355.2,1970.8l2.1,2.8c-2.3,1.6-4.9,2.3-7.9,2-1.6-.2-3.2-.4-4.7-1.2-1.8-.9-2.8-2.4-3.4-4.3-.7-2.2-.8-4.6-.8-6.9,0-2.7,0-6.2,0-8.9s0-.5-.4-.6c-.8-.3-1.6-.7-2.5-1.1-.3-.1-.4-.3-.4-.6,0-.9,0-1.7,0-2.6,0-.3,0-.4.4-.5,1.1-.3,2.1-.6,3.2-.8.3,0,.4-.2.6-.4,1.7-2.5,2.3-3.4,4.1-6,.2-.3.4-.4.7-.4h2.9c.4,0,.5,0,.5.4,0,2.9,0,4,0,6.9,0,.4.1.5.5.5,2.5,0,5.8,0,5.8,0v4.1s-5.1.3-6,.4c-.2,0-.3,0-.3.3h0c0,3.6,0,8,0,11.4,0,1.3.1,2.6.6,3.8.4,1.2,1.2,2.3,2.6,2.3.8,0,1.8-.5,2.4-.8h0Z"/>
            <path class="cls-4" d="M384.4,1945.8c0,.3,0,.5.4.6.8.2,1.6.5,2.5.8.3,0,.4.2.4.5v27.2h9.1v-32.3c0-.2,0-.4-.3-.5-.5-.2-1-.5-1.6-.7-.2,0-.4-.1-.6,0-.9.1-7.2,1.1-9.4,1.4-.3,0-.4.2-.4.5,0,.8,0,1.7,0,2.5"/>
          </g>
          <path class="cls-4" d="M373,1967.3c-.8.5-3.3,2.4-3.6,2.6-.2.2-.4.2-.6,0-1.8-1.2-3-3-3.1-5.3,0-.3,0-.4.3-.6.5-.2,1.5-.6,1.9-.8,1.5-.6,3.1-.9,4.7-1.1.2,0,.5,0,.7,0,0,.2,0,3.3,0,4.7,0,.3,0,.4-.3.6M382.5,1975s0-11.3,0-14.3-.1-2.8-.5-4.1c-1.1-3.6-3.5-5.8-7.2-6.8-2.7-.7-5.4-.7-8.1-.2-.9.2-2.5.6-3.3.9-1.2.4-2.3.9-3.3,1.6-.2.2-.3.3-.3.6.2,1.6.5,3.2.7,4.8,0,.2.2.3.4.3.8,0,1.7,0,2.5,0,.3,0,.4,0,.5-.3.8-1.3,1.5-2.8,2.2-4.2.2-.3.4-.4.7-.4.2,0,.5,0,1.2,0,.9,0,1.7.3,2.5.8,1.4,1,2.1,2.4,2.4,4,.1.6,0,.8,0,.8,0,0-6.2,1-9.1,1.8-1.8.5-3.8,1.1-5.5,2.2-1.2.8-.7,4.7-.6,5.2,1.1,5,5.2,8.3,11.3,8.1.2,0,.5,0,.6-.2,1.2-1.1,4.4-3.9,4.4-3.9,0,0,.6,1.9,1,3,.1.3.2.4.6.4h6.9"/>
        </g>
      </g>
    </g>
  </g>
</svg>