<?xml version="1.0" encoding="UTF-8"?>
<svg id="Ebene_1" data-name="Ebene 1" xmlns="http://www.w3.org/2000/svg" xmlns:xlink="http://www.w3.org/1999/xlink" viewBox="0 0 1600 2199.51">
  <defs>
    <style>
      .cls-1 {
        clip-path: url(#clippath);
      }

      .cls-2 {
        fill: none;
      }

      .cls-2, .cls-3, .cls-4, .cls-5, .cls-6 {
        stroke-width: 0px;
      }

      .cls-7, .cls-8, .cls-9 {
        font-family: FedraSansStd-Medium, 'Fedra Sans Std';
        font-size: 92.98px;
        font-weight: 500;
      }

      .cls-7, .cls-3 {
        fill: #1d1d1b;
      }

      .cls-7, .cls-9 {
        letter-spacing: .02em;
      }

      .cls-8 {
        letter-spacing: .02em;
      }

      .cls-8, .cls-10, .cls-9, .cls-4 {
        fill: #181716;
      }

      .cls-10 {
        font-family: FedraSansStd-Bold, 'Fedra Sans Std';
        font-size: 30.99px;
        font-weight: 700;
        letter-spacing: .02em;
      }

      .cls-5 {
        fill: #ead5a1;
      }

      .cls-6 {
        fill: #ecd7a3;
      }
    </style>
    <clipPath id="clippath">
      <rect class="cls-2" x="288.84" y="1239.54" width="161.54" height="182.71"/>
    </clipPath>
  </defs>
  <g>
    <g>
      <text class="cls-9" transform="translate(145.56 305.64)"><tspan x="0" y="0">ALPBACH</tspan></text>
      <g>
        <path class="cls-5" d="M355.36,190.78c5.8,4.08,9.79,3.92,15.35-.43,24.15-18.92,48.54-37.46,73.08-55.74,5.16-3.85,7-8.13,6.96-15.01v-.18s0-99.01,0-99.01v-.1c-.02-5.72-4.71-9.23-10.94-9.31-6.23-.09-97.3,5.83-142.57,27.95-6.14,3-8.54,6.57-7.95,14.62,4.25,57.39,10.48,103.07,66.08,137.21"/>
        <g>
          <path class="cls-4" d="M430.36,112.17h-9.23s.11-13.79-.02-14.81c-.28-2.21-1.76-3.06-3.82-3.56-.18-.04-.45,0-.6.12-.92.65-1.82,1.32-2.71,2.01-.13.11-.24.33-.24.5-.01,3.75.05,15.74.05,15.74h-9.22v-32.51c1.47-.22,5.92-.92,6.68-1.01.2-.02.44.02.63.1.49.21.96.49,1.46.69.33.13.41.32.4.64,0,5.28,0,11.02,0,11.02.82-.71,4.15-3.62,5.11-4.44.12-.11.32-.21.46-.2,3.56.32,6.74,1.42,9.04,4.24,1.34,1.65,1.95,3.59,1.99,5.66.06,3.45.03,8.12.03,10.35s0,5.46,0,5.46Z"/>
          <path class="cls-4" d="M398.8,105.38c.65.87,1.6,2.1,2.26,2.98-.23.23-.44.47-.68.67-3.68,3.2-7.94,4.54-12.86,3.64-4.27-.77-7.46-2.98-9.41-6.76-1.38-2.67-1.74-5.52-1.31-8.47.38-2.65,1.45-5,3.37-6.95,2-2.03,4.49-3.19,7.31-3.73,3.63-.7,7.14-.32,10.51,1.16.69.3,1.34.71,2,1.07.2.11.27.26.24.5-.25,2.09-.51,4.19-.73,6.28-.04.34-.17.39-.46.38-.72-.01-1.44-.02-2.16,0-.28,0-.41-.09-.51-.35-.42-1.18-.88-2.35-1.27-3.53-.15-.47-.43-.77-.84-.99-.97-.51-2.38-.8-3.65-1-1.1-.17-1.72.31-2.27,1.08-.98,1.39-1.46,2.94-1.7,4.58-.3,1.96-.46,3.93.02,5.88.54,2.18,1.18,3.76,3.11,5.09,1.58,1.09,2.19,1.01,3.35.72s3.82-1.25,5.69-2.29Z"/>
          <path class="cls-4" d="M329.08,94.77c.69-.51,1.38-1.04,2.04-1.59.25-.21.45-.21.74-.06,2.95,1.53,4.56,3.94,4.88,7.13.21,2.11,0,4.21-.76,6.23-.32.83-.76,1.58-1.39,2.22-.26.26-.53.39-.92.31-1.35-.27-4.25-.84-4.34-.86-.45-.1-.58-.35-.57-.81.03-1.96.01-3.92.01-5.88s0-4,0-6c0-.3.07-.49.32-.68M328.39,79.45c-.49-.21-.96-.48-1.46-.69-.2-.08-.45-.13-.66-.1-.74.09-5.15.78-6.63,1v32.6c.37.01,9.05.41,13.02.58,1.45.06,2.88-.11,4.28-.48,3.64-.97,6.26-3.09,7.65-6.52,1.11-2.74,1.31-5.58.92-8.48-.39-2.86-1.52-5.41-3.63-7.48-2.08-2.05-4.58-3.25-7.58-3.42-.31-.02-.68.11-1,.32-1.61,1.08-4.55,3.25-4.55,3.25,0,0,0-7.63,0-10,0-.3-.09-.46-.38-.58"/>
          <path class="cls-4" d="M363.84,104.58c-.75.53-3.29,2.37-3.58,2.59-.24.17-.4.18-.65.02-1.82-1.2-2.97-3.01-3.15-5.31-.02-.32.08-.45.34-.59.48-.25,1.46-.64,1.91-.81,1.52-.56,3.08-.91,4.68-1.13.23-.03.45-.06.71-.09,0,.16.02,3.29.03,4.71,0,.28-.07.45-.29.6M373.34,112.22s-.06-11.32-.06-14.27c0-1.4-.13-2.79-.53-4.14-1.07-3.58-3.48-5.85-7.18-6.81-2.69-.7-5.4-.66-8.12-.16-.88.16-2.51.6-3.34.89-1.16.4-2.26.92-3.3,1.61-.24.16-.31.32-.27.6.25,1.59.48,3.19.7,4.78.04.24.17.27.37.27.84,0,1.69-.01,2.54,0,.27,0,.42-.08.55-.31.76-1.33,1.49-2.84,2.24-4.17.16-.29.36-.37.69-.4.2-.02.46-.06,1.21-.02.89.05,1.71.33,2.46.84,1.42.97,2.12,2.38,2.42,3.99.11.56.08.76.08.76,0,0-6.21,1.03-9.06,1.82-1.76.49-3.83,1.05-5.54,2.22-1.22.83-.67,4.68-.56,5.15,1.08,4.97,5.24,8.29,11.26,8.08.2,0,.46-.1.61-.23,1.21-1.09,4.4-3.91,4.4-3.91,0,0,.64,1.92.97,3.03.1.32.24.41.58.41,2.29,0,4.58,0,6.88,0"/>
        </g>
        <g>
          <path class="cls-4" d="M398.94,67.65c-.35.69-.79,1.32-1.43,1.8-.24.18-.47.23-.77.16-1.72-.41-3.21-1.23-4.52-2.36-.12-.1-.18-.32-.18-.49-.01-1.74,0-3.49,0-5.23s0-3.46,0-5.19c0-.32.11-.52.35-.71.86-.67,1.72-1.36,2.55-2.06.26-.22.46-.21.74-.09,1.43.62,2.38,1.72,3.1,3.03.25.45.45.91.62,1.38.62,1.7.77,3.5.63,5.34-.09,1.14-.25,2.27-.62,3.35-.13.37-.28.73-.45,1.09M392.05,73.02c.96.14,1.87.33,2.79.4,1.23.09,2.48.24,3.68.08,3.2-.42,5.8-1.97,7.86-4.35,2.02-2.33,2.93-5.08,3.06-8.09.13-2.82-.45-5.47-2.04-7.87-1.54-2.32-3.67-3.96-6.26-5.06-1.34-.57-2.51-.91-3.99-.93-.29,0-.66.14-.89.33-1.6,1.26-5.05,3.83-5.05,3.83,0,0-.73-2.39-1.17-3.74-.18-.56-.17-.55-.77-.47-2.11.28-4.18.53-6.3.8,0,0,0,32.25,0,32.35,0,.26.15.32.31.35.09.02,1.24.26,1.94.42.26.06.56.04.79-.04.16-.06,6.06-2.17,6.06-2.17l-.04-5.84Z"/>
          <path class="cls-4" d="M364.68,45.53c0,.32.08.47.41.57.82.23,1.63.53,2.45.77.29.09.37.23.37.52,0,1.1,0,27.25,0,27.25h9.1s0-32.11,0-32.28c0-.24-.08-.37-.3-.47-.53-.24-1.04-.51-1.57-.74-.19-.08-.42-.11-.63-.08-.93.12-7.22,1.1-9.44,1.43-.34.05-.42.18-.41.49.02.85.02,1.69,0,2.54"/>
        </g>
        <path class="cls-4" d="M352.64,67c-.75.53-3.29,2.37-3.58,2.59-.24.17-.4.18-.65.02-1.82-1.2-2.97-3.01-3.15-5.31-.02-.32.08-.45.34-.59.48-.25,1.46-.64,1.91-.81,1.52-.56,3.08-.91,4.68-1.13.23-.03.45-.06.71-.09,0,.16.02,3.29.03,4.71,0,.28-.07.45-.29.6M362.14,74.63s-.06-11.32-.06-14.27c0-1.4-.13-2.79-.53-4.14-1.07-3.58-3.48-5.85-7.18-6.81-2.69-.7-5.4-.66-8.12-.16-.88.16-2.51.6-3.34.89-1.16.4-2.26.92-3.3,1.61-.24.16-.31.32-.27.6.25,1.59.48,3.19.7,4.78.04.24.17.27.37.27.84,0,1.69-.01,2.54,0,.27,0,.42-.08.55-.31.76-1.33,1.49-2.84,2.24-4.17.16-.29.36-.37.69-.4.2-.02.46-.06,1.21-.02.89.05,1.71.33,2.46.84,1.42.97,2.12,2.38,2.42,3.99.11.56.08.76.08.76,0,0-6.21,1.03-9.06,1.82-1.76.49-3.83,1.05-5.54,2.22-1.22.83-.67,4.68-.56,5.15,1.08,4.97,5.24,8.29,11.26,8.08.2,0,.46-.1.61-.23,1.21-1.09,4.4-3.91,4.4-3.91,0,0,.64,1.92.97,3.03.1.32.24.41.58.41,2.29,0,4.58,0,6.88,0"/>
        <g>
          <g>
            <path class="cls-4" d="M355.52,147.76l2.09,2.84c-2.27,1.6-4.89,2.33-7.94,2.04-1.63-.15-3.22-.41-4.67-1.19-1.77-.95-2.84-2.43-3.42-4.28-.71-2.25-.76-4.58-.77-6.9-.01-2.69,0-6.22,0-8.91,0-.33-.09-.5-.41-.64-.83-.35-1.63-.71-2.45-1.09-.29-.13-.37-.29-.37-.58,0-.86.01-1.7,0-2.58,0-.29.07-.43.38-.5,1.08-.27,2.14-.55,3.25-.83.27-.07.43-.21.59-.44,1.7-2.48,2.32-3.38,4.08-6.01.19-.29.36-.39.71-.39.86,0,2.08,0,2.94,0,.35,0,.45.09.45.42-.01,2.9-.04,3.96-.05,6.86,0,.38.1.5.51.5,2.52-.02,5.81,0,5.81,0v4.12s-5.06.31-5.99.37c-.23.01-.34.09-.32.31,0,.04,0,.08,0,.12.02,3.49.02,7.84.06,11.33.01,1.3.14,2.6.59,3.85.44,1.21,1.23,2.26,2.58,2.35.75.05,1.78-.47,2.35-.78Z"/>
            <path class="cls-4" d="M384.66,122.77c0,.32.08.47.41.57.82.23,1.63.53,2.45.77.29.09.37.23.37.52,0,1.1,0,27.25,0,27.25h9.1s0-32.11,0-32.28c0-.24-.08-.37-.3-.47-.53-.24-1.04-.51-1.57-.74-.19-.08-.42-.11-.63-.08-.93.12-7.22,1.1-9.44,1.43-.34.05-.42.18-.41.49.02.85.02,1.69,0,2.54"/>
          </g>
          <path class="cls-4" d="M373.26,144.26c-.75.53-3.29,2.37-3.58,2.59-.24.17-.4.18-.65.02-1.82-1.2-2.97-3.01-3.15-5.31-.02-.32.08-.45.34-.59.48-.25,1.46-.64,1.91-.81,1.52-.56,3.08-.91,4.68-1.13.23-.03.45-.06.71-.09,0,.16.02,3.29.03,4.71,0,.28-.07.45-.29.6M382.76,151.9s-.06-11.32-.06-14.27c0-1.4-.13-2.79-.53-4.14-1.07-3.58-3.48-5.85-7.18-6.81-2.69-.7-5.4-.66-8.12-.16-.88.16-2.51.6-3.34.89-1.16.4-2.26.92-3.3,1.61-.24.16-.31.32-.27.6.25,1.59.48,3.19.7,4.78.04.24.17.27.37.27.84,0,1.69-.01,2.54,0,.27,0,.42-.08.55-.31.76-1.33,1.49-2.84,2.24-4.17.16-.29.36-.37.69-.4.2-.02.46-.06,1.21-.02.89.05,1.71.33,2.46.84,1.42.97,2.12,2.38,2.42,3.99.11.56.08.76.08.76,0,0-6.21,1.03-9.06,1.82-1.76.49-3.83,1.05-5.54,2.22-1.22.83-.67,4.68-.56,5.15,1.08,4.97,5.24,8.29,11.26,8.08.2,0,.46-.1.61-.23,1.21-1.09,4.4-3.91,4.4-3.91,0,0,.64,1.92.97,3.03.1.32.24.41.58.41,2.29,0,4.58,0,6.88,0"/>
        </g>
      </g>
    </g>
    <g>
      <text class="cls-9" transform="translate(1022.44 304.22)"><tspan x="0" y="0">BRIXLEGG</tspan></text>
      <g>
        <path class="cls-5" d="M1243.75,190.78c5.8,4.08,9.79,3.92,15.35-.43,24.15-18.92,48.54-37.46,73.08-55.74,5.16-3.85,7-8.13,6.96-15.01v-.18s0-99.01,0-99.01v-.1c-.02-5.72-4.71-9.23-10.94-9.31-6.23-.09-97.3,5.83-142.57,27.95-6.14,3-8.54,6.57-7.95,14.62,4.25,57.39,10.48,103.07,66.08,137.21"/>
        <g>
          <path class="cls-4" d="M1318.76,112.17h-9.23s.11-13.79-.02-14.81c-.28-2.21-1.76-3.06-3.82-3.56-.18-.04-.45,0-.6.12-.92.65-1.82,1.32-2.71,2.01-.13.11-.24.33-.24.5-.01,3.75.05,15.74.05,15.74h-9.22v-32.51c1.47-.22,5.92-.92,6.68-1.01.2-.02.44.02.63.1.49.21.96.49,1.46.69.33.13.41.32.4.64,0,5.28,0,11.02,0,11.02.82-.71,4.15-3.62,5.11-4.44.12-.11.32-.21.46-.2,3.56.32,6.74,1.42,9.04,4.24,1.34,1.65,1.95,3.59,1.99,5.66.06,3.45.03,8.12.03,10.35s0,5.46,0,5.46Z"/>
          <path class="cls-4" d="M1287.19,105.38c.65.87,1.6,2.1,2.26,2.98-.23.23-.44.47-.68.67-3.68,3.2-7.94,4.54-12.86,3.64-4.27-.77-7.46-2.98-9.41-6.76-1.38-2.67-1.74-5.52-1.31-8.47.38-2.65,1.45-5,3.37-6.95,2-2.03,4.49-3.19,7.31-3.73,3.63-.7,7.14-.32,10.51,1.16.69.3,1.34.71,2,1.07.2.11.27.26.24.5-.25,2.09-.51,4.19-.73,6.28-.04.34-.17.39-.46.38-.72-.01-1.44-.02-2.16,0-.28,0-.41-.09-.51-.35-.42-1.18-.88-2.35-1.27-3.53-.15-.47-.43-.77-.84-.99-.97-.51-2.38-.8-3.65-1-1.1-.17-1.72.31-2.27,1.08-.98,1.39-1.46,2.94-1.7,4.58-.3,1.96-.46,3.93.02,5.88.54,2.18,1.18,3.76,3.11,5.09,1.58,1.09,2.19,1.01,3.35.72,1.16-.28,3.82-1.25,5.69-2.29Z"/>
          <path class="cls-4" d="M1217.47,94.77c.69-.51,1.38-1.04,2.04-1.59.25-.21.45-.21.74-.06,2.95,1.53,4.56,3.94,4.88,7.13.21,2.11,0,4.21-.76,6.23-.32.83-.76,1.58-1.39,2.22-.26.26-.53.39-.92.31-1.35-.27-4.25-.84-4.34-.86-.45-.1-.58-.35-.57-.81.03-1.96.01-3.92.01-5.88s0-4,0-6c0-.3.07-.49.32-.68M1216.78,79.45c-.49-.21-.96-.48-1.46-.69-.2-.08-.45-.13-.66-.1-.74.09-5.15.78-6.63,1v32.6c.37.01,9.05.41,13.02.58,1.45.06,2.88-.11,4.28-.48,3.64-.97,6.26-3.09,7.65-6.52,1.11-2.74,1.31-5.58.92-8.48-.39-2.86-1.52-5.41-3.63-7.48-2.08-2.05-4.58-3.25-7.58-3.42-.31-.02-.68.11-1,.32-1.61,1.08-4.55,3.25-4.55,3.25,0,0,0-7.63,0-10,0-.3-.09-.46-.38-.58"/>
          <path class="cls-4" d="M1252.24,104.58c-.75.53-3.29,2.37-3.58,2.59-.24.17-.4.18-.65.02-1.82-1.2-2.97-3.01-3.15-5.31-.02-.32.08-.45.34-.59.48-.25,1.46-.64,1.91-.81,1.52-.56,3.08-.91,4.68-1.13.23-.03.45-.06.71-.09,0,.16.02,3.29.03,4.71,0,.28-.07.45-.29.6M1261.74,112.22s-.06-11.32-.06-14.27c0-1.4-.13-2.79-.53-4.14-1.07-3.58-3.48-5.85-7.18-6.81-2.69-.7-5.4-.66-8.12-.16-.88.16-2.51.6-3.34.89-1.16.4-2.26.92-3.3,1.61-.24.16-.31.32-.27.6.25,1.59.48,3.19.7,4.78.04.24.17.27.37.27.84,0,1.69-.01,2.54,0,.27,0,.42-.08.55-.31.76-1.33,1.49-2.84,2.24-4.17.16-.29.36-.37.69-.4.2-.02.46-.06,1.21-.02.89.05,1.71.33,2.46.84,1.42.97,2.12,2.38,2.42,3.99.11.56.08.76.08.76,0,0-6.21,1.03-9.06,1.82-1.76.49-3.83,1.05-5.54,2.22-1.22.83-.67,4.68-.56,5.15,1.08,4.97,5.24,8.29,11.26,8.08.2,0,.46-.1.61-.23,1.21-1.09,4.4-3.91,4.4-3.91,0,0,.64,1.92.97,3.03.1.32.24.41.58.41,2.29,0,4.58,0,6.88,0"/>
        </g>
        <g>
          <path class="cls-4" d="M1287.34,67.65c-.35.69-.79,1.32-1.43,1.8-.24.18-.47.23-.77.16-1.72-.41-3.21-1.23-4.52-2.36-.12-.1-.18-.32-.18-.49-.01-1.74,0-3.49,0-5.23s0-3.46,0-5.19c0-.32.11-.52.35-.71.86-.67,1.72-1.36,2.55-2.06.26-.22.46-.21.74-.09,1.43.62,2.38,1.72,3.1,3.03.25.45.45.91.62,1.38.62,1.7.77,3.5.63,5.34-.09,1.14-.25,2.27-.62,3.35-.13.37-.28.73-.45,1.09M1280.44,73.02c.96.14,1.87.33,2.79.4,1.23.09,2.48.24,3.68.08,3.2-.42,5.8-1.97,7.86-4.35,2.02-2.33,2.93-5.08,3.06-8.09.13-2.82-.45-5.47-2.04-7.87-1.54-2.32-3.67-3.96-6.26-5.06-1.34-.57-2.51-.91-3.99-.93-.29,0-.66.14-.89.33-1.6,1.26-5.05,3.83-5.05,3.83,0,0-.73-2.39-1.17-3.74-.18-.56-.17-.55-.77-.47-2.11.28-4.18.53-6.3.8,0,0,0,32.25,0,32.35,0,.26.15.32.31.35.09.02,1.24.26,1.94.42.26.06.56.04.79-.04.16-.06,6.06-2.17,6.06-2.17l-.04-5.84Z"/>
          <path class="cls-4" d="M1253.08,45.53c0,.32.08.47.41.57.82.23,1.63.53,2.45.77.29.09.37.23.37.52,0,1.1,0,27.25,0,27.25h9.1s0-32.11,0-32.28c0-.24-.08-.37-.3-.47-.53-.24-1.04-.51-1.57-.74-.19-.08-.42-.11-.63-.08-.93.12-7.22,1.1-9.44,1.43-.34.05-.42.18-.41.49.02.85.02,1.69,0,2.54"/>
        </g>
        <path class="cls-4" d="M1241.04,67c-.75.53-3.29,2.37-3.58,2.59-.24.17-.4.18-.65.02-1.82-1.2-2.97-3.01-3.15-5.31-.02-.32.08-.45.34-.59.48-.25,1.46-.64,1.91-.81,1.52-.56,3.08-.91,4.68-1.13.23-.03.45-.06.71-.09,0,.16.02,3.29.03,4.71,0,.28-.07.45-.29.6M1250.54,74.63s-.06-11.32-.06-14.27c0-1.4-.13-2.79-.53-4.14-1.07-3.58-3.48-5.85-7.18-6.81-2.69-.7-5.4-.66-8.12-.16-.88.16-2.51.6-3.34.89-1.16.4-2.26.92-3.3,1.61-.24.16-.31.32-.27.6.25,1.59.48,3.19.7,4.78.04.24.17.27.37.27.84,0,1.69-.01,2.54,0,.27,0,.42-.08.55-.31.76-1.33,1.49-2.84,2.24-4.17.16-.29.36-.37.69-.4.2-.02.46-.06,1.21-.02.89.05,1.71.33,2.46.84,1.42.97,2.12,2.38,2.42,3.99.11.56.08.76.08.76,0,0-6.21,1.03-9.06,1.82-1.76.49-3.83,1.05-5.54,2.22-1.22.83-.67,4.68-.56,5.15,1.08,4.97,5.24,8.29,11.26,8.08.2,0,.46-.1.61-.23,1.21-1.09,4.4-3.91,4.4-3.91,0,0,.64,1.92.97,3.03.1.32.24.41.58.41,2.29,0,4.58,0,6.88,0"/>
        <g>
          <g>
            <path class="cls-4" d="M1243.92,147.76l2.09,2.84c-2.27,1.6-4.89,2.33-7.94,2.04-1.63-.15-3.22-.41-4.67-1.19-1.77-.95-2.84-2.43-3.42-4.28-.71-2.25-.76-4.58-.77-6.9-.01-2.69,0-6.22,0-8.91,0-.33-.09-.5-.41-.64-.83-.35-1.63-.71-2.45-1.09-.29-.13-.37-.29-.37-.58,0-.86.01-1.7,0-2.58,0-.29.07-.43.38-.5,1.08-.27,2.14-.55,3.25-.83.27-.07.43-.21.59-.44,1.7-2.48,2.32-3.38,4.08-6.01.19-.29.36-.39.71-.39.86,0,2.08,0,2.94,0,.35,0,.45.09.45.42-.01,2.9-.04,3.96-.05,6.86,0,.38.1.5.51.5,2.52-.02,5.81,0,5.81,0v4.12s-5.06.31-5.99.37c-.23.01-.34.09-.32.31,0,.04,0,.08,0,.12.02,3.49.02,7.84.06,11.33.01,1.3.14,2.6.59,3.85.44,1.21,1.23,2.26,2.58,2.35.75.05,1.78-.47,2.35-.78Z"/>
            <path class="cls-4" d="M1273.05,122.77c0,.32.08.47.41.57.82.23,1.63.53,2.45.77.29.09.37.23.37.52,0,1.1,0,27.25,0,27.25h9.1s0-32.11,0-32.28c0-.24-.08-.37-.3-.47-.53-.24-1.04-.51-1.57-.74-.19-.08-.42-.11-.63-.08-.93.12-7.22,1.1-9.44,1.43-.34.05-.42.18-.41.49.02.85.02,1.69,0,2.54"/>
          </g>
          <path class="cls-4" d="M1261.66,144.26c-.75.53-3.29,2.37-3.58,2.59-.24.17-.4.18-.65.02-1.82-1.2-2.97-3.01-3.15-5.31-.02-.32.08-.45.34-.59.48-.25,1.46-.64,1.91-.81,1.52-.56,3.08-.91,4.68-1.13.23-.03.45-.06.71-.09,0,.16.02,3.29.03,4.71,0,.28-.07.45-.29.6M1271.16,151.9s-.06-11.32-.06-14.27c0-1.4-.13-2.79-.53-4.14-1.07-3.58-3.48-5.85-7.18-6.81-2.69-.7-5.4-.66-8.12-.16-.88.16-2.51.6-3.34.89-1.16.4-2.26.92-3.3,1.61-.24.16-.31.32-.27.6.25,1.59.48,3.19.7,4.78.04.24.17.27.37.27.84,0,1.69-.01,2.54,0,.27,0,.42-.08.55-.31.76-1.33,1.49-2.84,2.24-4.17.16-.29.36-.37.69-.4.2-.02.46-.06,1.21-.02.89.05,1.71.33,2.46.84,1.42.97,2.12,2.38,2.42,3.99.11.56.08.76.08.76,0,0-6.21,1.03-9.06,1.82-1.76.49-3.83,1.05-5.54,2.22-1.22.83-.67,4.68-.56,5.15,1.08,4.97,5.24,8.29,11.26,8.08.2,0,.46-.1.61-.23,1.21-1.09,4.4-3.91,4.4-3.91,0,0,.64,1.92.97,3.03.1.32.24.41.58.41,2.29,0,4.58,0,6.88,0"/>
        </g>
      </g>
    </g>
  </g>
  <g>
    <text class="cls-7" transform="translate(199.59 1532.89)"><tspan x="0" y="0">KUNDL</tspan></text>
    <g>
      <g class="cls-1">
        <path class="cls-6" d="M355,1419.31c5.8,4.08,9.79,3.92,15.34-.43,24.15-18.92,48.54-37.45,73.07-55.73,5.16-3.85,7-8.13,6.96-15.01v-.18s0-99,0-99v-.1c-.02-5.72-4.71-9.22-10.94-9.31-6.23-.09-97.29,5.83-142.56,27.95-6.14,3-8.54,6.57-7.95,14.62,4.25,57.38,10.47,103.06,66.08,137.2"/>
      </g>
      <path class="cls-3" d="M430,1340.71h-9.23s.11-13.79-.02-14.81c-.28-2.21-1.76-3.06-3.82-3.56-.18-.04-.45,0-.6.12-.92.65-1.82,1.32-2.71,2.01-.14.11-.24.33-.24.5-.01,3.75.05,15.74.05,15.74h-9.22v-32.51c1.47-.22,5.92-.92,6.68-1.01.2-.02.44.02.63.1.49.21.96.49,1.46.69.33.13.41.32.4.64,0,5.28,0,11.02,0,11.02.82-.71,4.15-3.62,5.11-4.44.12-.11.32-.21.46-.2,3.56.32,6.74,1.42,9.04,4.24,1.34,1.65,1.95,3.59,1.99,5.66.06,3.45.03,8.12.03,10.35s0,5.46,0,5.46h0Z"/>
      <path class="cls-3" d="M398.44,1333.92c.65.87,1.6,2.1,2.26,2.98-.23.23-.44.47-.68.67-3.68,3.2-7.94,4.54-12.85,3.64-4.27-.77-7.46-2.98-9.41-6.76-1.38-2.67-1.74-5.52-1.31-8.47.38-2.65,1.45-5,3.37-6.95,2-2.03,4.49-3.19,7.31-3.73,3.63-.7,7.14-.32,10.51,1.16.69.3,1.34.71,2,1.07.2.11.27.26.24.5-.25,2.09-.51,4.19-.73,6.28-.04.34-.17.39-.46.38-.72-.01-1.44-.02-2.16,0-.28,0-.41-.09-.51-.35-.42-1.18-.88-2.35-1.27-3.53-.15-.47-.43-.77-.84-.99-.97-.51-2.38-.8-3.65-1-1.1-.17-1.72.31-2.27,1.08-.98,1.39-1.46,2.94-1.7,4.58-.3,1.96-.46,3.93.02,5.88.54,2.18,1.18,3.76,3.11,5.09,1.58,1.09,2.19,1,3.35.72,1.16-.28,3.82-1.25,5.69-2.29h0Z"/>
      <path class="cls-3" d="M328.03,1307.98c-.49-.21-.96-.48-1.46-.69-.2-.08-.45-.13-.66-.1-.74.09-5.15.78-6.63,1v32.6c.37.01,9.05.41,13.02.58,1.45.06,2.88-.11,4.28-.48,3.64-.97,6.26-3.09,7.65-6.52,1.11-2.74,1.31-5.58.92-8.48-.39-2.86-1.52-5.41-3.62-7.48-2.08-2.05-4.58-3.25-7.58-3.42-.31-.02-.68.11-1,.32-1.61,1.08-4.55,3.25-4.55,3.25,0,0,0-7.63,0-10,0-.3-.09-.46-.38-.58M328.72,1323.31c.69-.51,1.38-1.04,2.04-1.59.25-.21.45-.21.74-.06,2.95,1.53,4.56,3.94,4.88,7.13.21,2.11,0,4.21-.76,6.23-.32.83-.76,1.58-1.39,2.22-.26.26-.53.39-.92.31-1.35-.27-4.25-.84-4.34-.86-.45-.1-.58-.35-.57-.81.03-1.96.01-3.92.01-5.88s0-4,0-6c0-.3.07-.5.32-.68"/>
      <path class="cls-3" d="M372.99,1340.75s-.06-11.32-.06-14.27c0-1.4-.13-2.79-.53-4.14-1.07-3.57-3.48-5.84-7.18-6.81-2.69-.7-5.4-.66-8.12-.16-.88.16-2.51.6-3.34.89-1.16.4-2.26.92-3.3,1.61-.24.16-.31.32-.27.6.25,1.59.48,3.19.7,4.78.04.24.17.27.37.27.84,0,1.69-.01,2.54,0,.27,0,.42-.08.55-.31.76-1.33,1.49-2.84,2.24-4.17.16-.29.36-.37.69-.4.2-.02.46-.06,1.21-.02.89.05,1.71.33,2.46.84,1.42.97,2.12,2.38,2.42,3.98.11.56.08.76.08.76,0,0-6.21,1.03-9.06,1.82-1.76.49-3.83,1.05-5.54,2.22-1.22.83-.67,4.68-.56,5.15,1.08,4.97,5.24,8.29,11.26,8.08.2,0,.46-.1.61-.23,1.21-1.09,4.4-3.91,4.4-3.91,0,0,.64,1.92.97,3.03.1.32.24.41.58.41,2.29,0,4.58,0,6.88,0M363.49,1333.12c-.75.53-3.29,2.37-3.57,2.59-.24.17-.4.18-.65.02-1.82-1.2-2.96-3.01-3.15-5.31-.02-.32.08-.45.34-.59.48-.25,1.46-.64,1.91-.81,1.52-.56,3.08-.91,4.68-1.13.23-.03.45-.06.71-.09,0,.16.02,3.29.03,4.71,0,.28-.07.45-.29.6"/>
      <path class="cls-3" d="M391.69,1301.55c.96.14,1.87.33,2.79.4,1.23.09,2.48.24,3.68.09,3.2-.42,5.79-1.97,7.86-4.35,2.02-2.33,2.93-5.08,3.06-8.09.13-2.82-.45-5.47-2.04-7.87-1.54-2.32-3.67-3.96-6.25-5.06-1.34-.57-2.51-.91-3.99-.93-.29,0-.66.14-.89.33-1.6,1.26-5.05,3.83-5.05,3.83,0,0-.73-2.39-1.17-3.74-.18-.56-.17-.55-.77-.47-2.11.28-4.18.53-6.3.8,0,0,0,32.24,0,32.35,0,.26.15.32.31.35.09.02,1.24.26,1.94.42.26.06.56.05.79-.04.16-.06,6.06-2.17,6.06-2.17l-.04-5.84h0ZM398.58,1296.19c-.35.69-.79,1.32-1.43,1.8-.24.18-.47.23-.77.16-1.72-.41-3.21-1.23-4.52-2.36-.12-.1-.18-.32-.18-.49-.01-1.74,0-3.49,0-5.23s0-3.46,0-5.19c0-.32.11-.52.35-.71.86-.67,1.72-1.36,2.55-2.06.26-.22.46-.21.74-.09,1.43.62,2.38,1.72,3.1,3.03.25.45.45.91.62,1.38.62,1.7.77,3.5.63,5.34-.09,1.14-.25,2.27-.62,3.35-.13.37-.28.73-.45,1.09"/>
      <path class="cls-3" d="M364.32,1274.07c0,.32.08.47.41.57.82.23,1.63.53,2.45.77.29.09.37.23.37.52,0,1.1,0,27.25,0,27.25h9.1s0-32.1,0-32.27c0-.24-.08-.37-.3-.47-.53-.24-1.04-.51-1.57-.74-.19-.08-.42-.11-.63-.08-.93.12-7.22,1.1-9.44,1.43-.34.05-.42.18-.41.49.02.85.02,1.69,0,2.54"/>
      <path class="cls-3" d="M361.79,1303.17s-.06-11.32-.06-14.27c0-1.4-.13-2.79-.53-4.14-1.07-3.57-3.48-5.84-7.18-6.81-2.69-.7-5.4-.66-8.12-.16-.88.16-2.51.6-3.34.89-1.16.4-2.26.92-3.3,1.61-.24.16-.31.32-.27.6.25,1.59.48,3.19.7,4.78.03.24.17.27.37.27.84,0,1.69-.01,2.54,0,.27,0,.42-.08.55-.31.76-1.33,1.49-2.84,2.24-4.17.16-.29.36-.37.69-.4.2-.02.46-.06,1.21-.02.89.05,1.71.33,2.46.84,1.42.97,2.12,2.38,2.42,3.98.11.56.08.76.08.76,0,0-6.21,1.03-9.06,1.82-1.76.49-3.83,1.05-5.54,2.22-1.22.83-.67,4.67-.56,5.15,1.08,4.97,5.24,8.29,11.26,8.08.2,0,.46-.1.61-.23,1.21-1.09,4.4-3.91,4.4-3.91,0,0,.64,1.92.97,3.03.1.32.24.41.58.41,2.29,0,4.58,0,6.88,0M352.29,1295.54c-.75.53-3.29,2.37-3.57,2.59-.24.17-.41.18-.65.02-1.82-1.2-2.97-3.01-3.15-5.31-.02-.32.08-.45.34-.59.48-.25,1.46-.64,1.91-.81,1.52-.56,3.08-.91,4.68-1.13.23-.03.45-.06.71-.09,0,.17.02,3.29.03,4.71,0,.28-.07.45-.29.6"/>
      <path class="cls-3" d="M355.17,1376.29l2.08,2.84c-2.27,1.6-4.89,2.32-7.94,2.04-1.63-.15-3.21-.41-4.67-1.19-1.77-.95-2.84-2.43-3.42-4.28-.71-2.25-.76-4.58-.77-6.9-.01-2.69,0-6.22,0-8.91,0-.33-.09-.5-.41-.64-.83-.35-1.63-.71-2.45-1.09-.29-.13-.37-.29-.37-.58,0-.86.01-1.7,0-2.58,0-.29.07-.43.38-.5,1.08-.27,2.14-.55,3.25-.83.27-.07.43-.21.59-.44,1.7-2.48,2.32-3.38,4.08-6.01.19-.29.36-.39.71-.39.86,0,2.08,0,2.94,0,.35,0,.45.09.45.42-.01,2.9-.04,3.96-.05,6.86,0,.38.1.5.51.5,2.52-.02,5.81,0,5.81,0v4.12s-5.06.31-5.99.37c-.23.01-.34.09-.32.31,0,.04,0,.08,0,.12.02,3.49.02,7.83.06,11.33.01,1.3.14,2.6.59,3.85.44,1.21,1.23,2.26,2.58,2.35.75.05,1.78-.47,2.35-.78h0Z"/>
      <path class="cls-3" d="M384.3,1351.3c0,.32.08.47.41.57.82.23,1.63.53,2.45.77.29.09.37.23.37.52,0,1.1,0,27.25,0,27.25h9.1s0-32.1,0-32.27c0-.24-.08-.37-.3-.47-.53-.24-1.04-.51-1.57-.74-.19-.08-.42-.11-.63-.08-.93.12-7.22,1.1-9.44,1.43-.34.05-.42.18-.41.49.02.85.02,1.69,0,2.54"/>
      <path class="cls-3" d="M382.41,1380.43s-.06-11.32-.06-14.27c0-1.4-.13-2.79-.53-4.14-1.07-3.58-3.48-5.84-7.18-6.81-2.69-.7-5.4-.66-8.12-.16-.88.16-2.51.6-3.34.89-1.16.4-2.26.92-3.3,1.61-.24.16-.31.32-.27.6.25,1.59.48,3.19.7,4.78.04.24.17.27.37.27.84,0,1.69-.01,2.54,0,.27,0,.42-.08.55-.31.76-1.33,1.49-2.84,2.24-4.17.16-.29.36-.37.69-.39.2-.02.46-.06,1.21-.02.89.05,1.71.33,2.46.84,1.42.97,2.12,2.38,2.42,3.98.11.56.08.76.08.76,0,0-6.21,1.03-9.06,1.82-1.76.49-3.83,1.05-5.54,2.22-1.22.83-.67,4.67-.56,5.15,1.08,4.97,5.24,8.29,11.26,8.08.2,0,.46-.1.61-.23,1.21-1.09,4.4-3.91,4.4-3.91,0,0,.64,1.92.97,3.03.1.32.24.41.58.41,2.29,0,4.58,0,6.88,0M372.91,1372.79c-.75.53-3.29,2.37-3.57,2.59-.24.17-.4.18-.65.02-1.82-1.2-2.97-3.01-3.15-5.31-.02-.32.08-.45.34-.59.48-.25,1.46-.64,1.91-.81,1.52-.56,3.08-.91,4.68-1.13.23-.03.45-.06.71-.09,0,.17.02,3.29.03,4.71,0,.28-.07.45-.29.6"/>
    </g>
  </g>
  <g>
    <g>
      <path class="cls-5" d="M1244.61,1419.32c5.8,4.08,9.79,3.92,15.35-.43,24.15-18.92,48.54-37.46,73.08-55.74,5.16-3.85,7-8.13,6.96-15.01v-.18s0-99.01,0-99.01v-.1c-.02-5.72-4.71-9.23-10.94-9.31-6.23-.09-97.3,5.83-142.57,27.95-6.14,3-8.54,6.57-7.95,14.62,4.25,57.39,10.48,103.07,66.08,137.21"/>
      <g>
        <path class="cls-4" d="M1319.61,1340.72h-9.23s.11-13.79-.02-14.81c-.28-2.21-1.76-3.06-3.82-3.56-.18-.04-.45,0-.6.12-.92.65-1.82,1.32-2.71,2.01-.13.11-.24.33-.24.5-.01,3.75.05,15.74.05,15.74h-9.22v-32.51c1.47-.22,5.92-.92,6.68-1.01.2-.02.44.02.63.1.49.21.96.49,1.46.69.33.13.41.32.4.64,0,5.28,0,11.02,0,11.02.82-.71,4.15-3.62,5.11-4.44.12-.11.32-.21.46-.2,3.56.32,6.74,1.42,9.04,4.24,1.34,1.65,1.95,3.59,1.99,5.66.06,3.45.03,8.12.03,10.35s0,5.46,0,5.46Z"/>
        <path class="cls-4" d="M1288.05,1333.93c.65.87,1.6,2.1,2.26,2.98-.23.23-.44.47-.68.67-3.68,3.2-7.94,4.54-12.86,3.64-4.27-.77-7.46-2.98-9.41-6.76-1.38-2.67-1.74-5.52-1.31-8.47.38-2.65,1.45-5,3.37-6.95,2-2.03,4.49-3.19,7.31-3.73,3.63-.7,7.14-.32,10.51,1.16.69.3,1.34.71,2,1.07.2.11.27.26.24.5-.25,2.09-.51,4.19-.73,6.28-.04.34-.17.39-.46.38-.72-.01-1.44-.02-2.16,0-.28,0-.41-.09-.51-.35-.42-1.18-.88-2.35-1.27-3.53-.15-.47-.43-.77-.84-.99-.97-.51-2.38-.8-3.65-1-1.1-.17-1.72.31-2.27,1.08-.98,1.39-1.46,2.94-1.7,4.58-.3,1.96-.46,3.93.02,5.88.54,2.18,1.18,3.76,3.11,5.09,1.58,1.09,2.19,1.01,3.35.72s3.82-1.25,5.69-2.29Z"/>
        <path class="cls-4" d="M1218.33,1323.31c.69-.51,1.38-1.04,2.04-1.59.25-.21.45-.21.74-.06,2.95,1.53,4.56,3.94,4.88,7.13.21,2.11,0,4.21-.76,6.23-.32.83-.76,1.58-1.39,2.22-.26.26-.53.39-.92.31-1.35-.27-4.25-.84-4.34-.86-.45-.1-.58-.35-.57-.81.03-1.96.01-3.92.01-5.88s0-4,0-6c0-.3.07-.49.32-.68M1217.64,1307.99c-.49-.21-.96-.48-1.46-.69-.2-.08-.45-.13-.66-.1-.74.09-5.15.78-6.63,1v32.6c.37.01,9.05.41,13.02.58,1.45.06,2.88-.11,4.28-.48,3.64-.97,6.26-3.09,7.65-6.52,1.11-2.74,1.31-5.58.92-8.48-.39-2.86-1.52-5.41-3.63-7.48-2.08-2.05-4.58-3.25-7.58-3.42-.31-.02-.68.11-1,.32-1.61,1.08-4.55,3.25-4.55,3.25,0,0,0-7.63,0-10,0-.3-.09-.46-.38-.58"/>
        <path class="cls-4" d="M1253.1,1333.12c-.75.53-3.29,2.37-3.58,2.59-.24.17-.4.18-.65.02-1.82-1.2-2.97-3.01-3.15-5.31-.02-.32.08-.45.34-.59.48-.25,1.46-.64,1.91-.81,1.52-.56,3.08-.91,4.68-1.13.23-.03.45-.06.71-.09,0,.16.02,3.29.03,4.71,0,.28-.07.45-.29.6M1262.6,1340.76s-.06-11.32-.06-14.27c0-1.4-.13-2.79-.53-4.14-1.07-3.58-3.48-5.85-7.18-6.81-2.69-.7-5.4-.66-8.12-.16-.88.16-2.51.6-3.34.89-1.16.4-2.26.92-3.3,1.61-.24.16-.31.32-.27.6.25,1.59.48,3.19.7,4.78.04.24.17.27.37.27.84,0,1.69-.01,2.54,0,.27,0,.42-.08.55-.31.76-1.33,1.49-2.84,2.24-4.17.16-.29.36-.37.69-.4.2-.02.46-.06,1.21-.02.89.05,1.71.33,2.46.84,1.42.97,2.12,2.38,2.42,3.99.11.56.08.76.08.76,0,0-6.21,1.03-9.06,1.82-1.76.49-3.83,1.05-5.54,2.22-1.22.83-.67,4.68-.56,5.15,1.08,4.97,5.24,8.29,11.26,8.08.2,0,.46-.1.61-.23,1.21-1.09,4.4-3.91,4.4-3.91,0,0,.64,1.92.97,3.03.1.32.24.41.58.41,2.29,0,4.58,0,6.88,0"/>
      </g>
      <g>
        <path class="cls-4" d="M1288.19,1296.19c-.35.69-.79,1.32-1.43,1.8-.24.18-.47.23-.77.16-1.72-.41-3.21-1.23-4.52-2.36-.12-.1-.18-.32-.18-.49-.01-1.74,0-3.49,0-5.23s0-3.46,0-5.19c0-.32.11-.52.35-.71.86-.67,1.72-1.36,2.55-2.06.26-.22.46-.21.74-.09,1.43.62,2.38,1.72,3.1,3.03.25.45.45.91.62,1.38.62,1.7.77,3.5.63,5.34-.09,1.14-.25,2.27-.62,3.35-.13.37-.28.73-.45,1.09M1281.3,1301.56c.96.14,1.87.33,2.79.4,1.23.09,2.48.24,3.68.08,3.2-.42,5.8-1.97,7.86-4.35,2.02-2.33,2.93-5.08,3.06-8.09.13-2.82-.45-5.47-2.04-7.87-1.54-2.32-3.67-3.96-6.26-5.06-1.34-.57-2.51-.91-3.99-.93-.29,0-.66.14-.89.33-1.6,1.26-5.05,3.83-5.05,3.83,0,0-.73-2.39-1.17-3.74-.18-.56-.17-.55-.77-.47-2.11.28-4.18.53-6.3.8,0,0,0,32.25,0,32.35,0,.26.15.32.31.35.09.02,1.24.26,1.94.42.26.06.56.04.79-.04.16-.06,6.06-2.17,6.06-2.17l-.04-5.84Z"/>
        <path class="cls-4" d="M1253.93,1274.07c0,.32.08.47.41.57.82.23,1.63.53,2.45.77.29.09.37.23.37.52,0,1.1,0,27.25,0,27.25h9.1s0-32.11,0-32.28c0-.24-.08-.37-.3-.47-.53-.24-1.04-.51-1.57-.74-.19-.08-.42-.11-.63-.08-.93.12-7.22,1.1-9.44,1.43-.34.05-.42.18-.41.49.02.85.02,1.69,0,2.54"/>
      </g>
      <path class="cls-4" d="M1241.9,1295.54c-.75.53-3.29,2.37-3.58,2.59-.24.17-.4.18-.65.02-1.82-1.2-2.97-3.01-3.15-5.31-.02-.32.08-.45.34-.59.48-.25,1.46-.64,1.91-.81,1.52-.56,3.08-.91,4.68-1.13.23-.03.45-.06.71-.09,0,.16.02,3.29.03,4.71,0,.28-.07.45-.29.6M1251.4,1303.18s-.06-11.32-.06-14.27c0-1.4-.13-2.79-.53-4.14-1.07-3.58-3.48-5.85-7.18-6.81-2.69-.7-5.4-.66-8.12-.16-.88.16-2.51.6-3.34.89-1.16.4-2.26.92-3.3,1.61-.24.16-.31.32-.27.6.25,1.59.48,3.19.7,4.78.04.24.17.27.37.27.84,0,1.69-.01,2.54,0,.27,0,.42-.08.55-.31.76-1.33,1.49-2.84,2.24-4.17.16-.29.36-.37.69-.4.2-.02.46-.06,1.21-.02.89.05,1.71.33,2.46.84,1.42.97,2.12,2.38,2.42,3.99.11.56.08.76.08.76,0,0-6.21,1.03-9.06,1.82-1.76.49-3.83,1.05-5.54,2.22-1.22.83-.67,4.68-.56,5.15,1.08,4.97,5.24,8.29,11.26,8.08.2,0,.46-.1.61-.23,1.21-1.09,4.4-3.91,4.4-3.91,0,0,.64,1.92.97,3.03.1.32.24.41.58.41,2.29,0,4.58,0,6.88,0"/>
      <g>
        <g>
          <path class="cls-4" d="M1244.78,1376.3l2.09,2.84c-2.27,1.6-4.89,2.33-7.94,2.04-1.63-.15-3.22-.41-4.67-1.19-1.77-.95-2.84-2.43-3.42-4.28-.71-2.25-.76-4.58-.77-6.9-.01-2.69,0-6.22,0-8.91,0-.33-.09-.5-.41-.64-.83-.35-1.63-.71-2.45-1.09-.29-.13-.37-.29-.37-.58,0-.86.01-1.7,0-2.58,0-.29.07-.43.38-.5,1.08-.27,2.14-.55,3.25-.83.27-.07.43-.21.59-.44,1.7-2.48,2.32-3.38,4.08-6.01.19-.29.36-.39.71-.39.86,0,2.08,0,2.94,0,.35,0,.45.09.45.42-.01,2.9-.04,3.96-.05,6.86,0,.38.1.5.51.5,2.52-.02,5.81,0,5.81,0v4.12s-5.06.31-5.99.37c-.23.01-.34.09-.32.31,0,.04,0,.08,0,.12.02,3.49.02,7.84.06,11.33.01,1.3.14,2.6.59,3.85.44,1.21,1.23,2.26,2.58,2.35.75.05,1.78-.47,2.35-.78Z"/>
          <path class="cls-4" d="M1273.91,1351.31c0,.32.08.47.41.57.82.23,1.63.53,2.45.77.29.09.37.23.37.52,0,1.1,0,27.25,0,27.25h9.1s0-32.11,0-32.28c0-.24-.08-.37-.3-.47-.53-.24-1.04-.51-1.57-.74-.19-.08-.42-.11-.63-.08-.93.12-7.22,1.1-9.44,1.43-.34.05-.42.18-.41.49.02.85.02,1.69,0,2.54"/>
        </g>
        <path class="cls-4" d="M1262.51,1372.8c-.75.53-3.29,2.37-3.58,2.59-.24.17-.4.18-.65.02-1.82-1.2-2.97-3.01-3.15-5.31-.02-.32.08-.45.34-.59.48-.25,1.46-.64,1.91-.81,1.52-.56,3.08-.91,4.68-1.13.23-.03.45-.06.71-.09,0,.16.02,3.29.03,4.71,0,.28-.07.45-.29.6M1272.02,1380.44s-.06-11.32-.06-14.27c0-1.4-.13-2.79-.53-4.14-1.07-3.58-3.48-5.85-7.18-6.81-2.69-.7-5.4-.66-8.12-.16-.88.16-2.51.6-3.34.89-1.16.4-2.26.92-3.3,1.61-.24.16-.31.32-.27.6.25,1.59.48,3.19.7,4.78.04.24.17.27.37.27.84,0,1.69-.01,2.54,0,.27,0,.42-.08.55-.31.76-1.33,1.49-2.84,2.24-4.17.16-.29.36-.37.69-.4.2-.02.46-.06,1.21-.02.89.05,1.71.33,2.46.84,1.42.97,2.12,2.38,2.42,3.99.11.56.08.76.08.76,0,0-6.21,1.03-9.06,1.82-1.76.49-3.83,1.05-5.54,2.22-1.22.83-.67,4.68-.56,5.15,1.08,4.97,5.24,8.29,11.26,8.08.2,0,.46-.1.61-.23,1.21-1.09,4.4-3.91,4.4-3.91,0,0,.64,1.92.97,3.03.1.32.24.41.58.41,2.29,0,4.58,0,6.88,0"/>
      </g>
    </g>
    <g>
      <path class="cls-4" d="M979.43,1519.12l-8.28-10.6c-1.3.19-3.07.28-4.56.28h-6.42v23.99h-12.74v-65.74h23.99c13.95,0,23.8,6.51,23.8,20.64,0,7.44-3.53,14.13-11.25,17.85l7.53,9.11c3.9,4.56,7.81,7.72,14.69,9.58l-2.88,9.76c-10.97-.84-17.39-6.88-23.9-14.88ZM967.16,1499.5c9.67,0,14.97-3.63,14.97-11.34s-3.72-11.07-12.74-11.07h-9.21v22.41h6.97Z"/>
      <path class="cls-4" d="M1033.46,1467.05h16.46l22.78,65.74h-13.3l-7.16-21.29h-23.71l-8.09,21.29h-12.92l25.94-65.74ZM1049.08,1502.11l-7.9-26.97-9.11,26.97h17.02Z"/>
      <path class="cls-4" d="M1090.08,1477.19h-21.29v-10.14h55.33v10.14h-21.29v55.61h-12.74v-55.61Z"/>
      <path class="cls-4" d="M1150.99,1477.19h-21.29v-10.14h55.33v10.14h-21.29v55.61h-12.74v-55.61Z"/>
      <path class="cls-4" d="M1196.36,1467.05h40.73v10.04h-28.08v17.95h26.04v9.48h-26.04v18.23h30.22v10.04h-42.87v-65.74Z"/>
      <path class="cls-4" d="M1254.01,1467.05h15.06l29.01,49.66h.19l-.37-7.72v-41.94h12.74v65.74h-15.62l-28.36-48.63h-.37l.37,8v40.64h-12.65v-65.74Z"/>
      <path class="cls-4" d="M1329.51,1467.05h21.11c15.62,0,23.25,6.23,23.25,17.48,0,6.14-3.62,10.88-7.81,12.74v.19c5.3,1.3,12.55,6.42,12.55,15.62,0,11.62-6.79,19.71-25.2,19.71h-23.9v-65.74ZM1350.06,1494.76c7.44,0,11.16-2.6,11.16-8.93,0-6.79-4.46-9.02-12.83-9.02h-6.14v17.95h7.81ZM1352.2,1522.75c8.74,0,13.67-2.23,13.67-9.3s-5.02-9.67-14.88-9.67h-8.74v18.97h9.95Z"/>
      <path class="cls-4" d="M1393.11,1467.05h40.73v10.04h-28.08v17.95h26.04v9.48h-26.04v18.23h30.22v10.04h-42.87v-65.74Z"/>
      <path class="cls-4" d="M1482.75,1519.12l-8.28-10.6c-1.3.19-3.07.28-4.56.28h-6.42v23.99h-12.74v-65.74h23.99c13.95,0,23.8,6.51,23.8,20.64,0,7.44-3.54,14.13-11.25,17.85l7.53,9.11c3.91,4.56,7.81,7.72,14.69,9.58l-2.88,9.76c-10.97-.84-17.39-6.88-23.9-14.88ZM1470.48,1499.5c9.67,0,14.97-3.63,14.97-11.34s-3.72-11.07-12.74-11.07h-9.21v22.41h6.97Z"/>
      <path class="cls-4" d="M1516.04,1500.34c0-22.6,12.65-34.22,35.62-34.22,9.58,0,14.69,1.77,19.43,3.81l-3.44,9.48c-5.39-1.58-8.93-2.7-16.09-2.7-12.46,0-22.5,6.42-22.5,22.69s10.79,23.62,23.9,23.62c2.79,0,4.93-.28,6.7-.56v-22.13h12.65v29.85c-6.7,2.51-12.83,3.63-20.74,3.63-21.76,0-35.52-11.53-35.52-33.47Z"/>
      <path class="cls-4" d="M1074.09,1614.49l-8.28-10.6c-1.3.19-3.07.28-4.56.28h-6.42v23.99h-12.74v-65.74h23.99c13.95,0,23.8,6.51,23.8,20.64,0,7.44-3.53,14.13-11.25,17.85l7.53,9.11c3.9,4.56,7.81,7.72,14.69,9.58l-2.88,9.76c-10.97-.84-17.39-6.88-23.9-14.88ZM1061.81,1594.87c9.67,0,14.97-3.63,14.97-11.34s-3.72-11.07-12.74-11.07h-9.21v22.41h6.97Z"/>
      <path class="cls-4" d="M1128.11,1562.42h16.46l22.78,65.74h-13.3l-7.16-21.29h-23.71l-8.09,21.29h-12.92l25.94-65.74ZM1143.73,1597.47l-7.9-26.97-9.11,26.97h17.02Z"/>
      <path class="cls-4" d="M1178.51,1562.42h21.29c22.22,0,37.75,9.86,37.75,32.64s-14.13,33.1-37.19,33.1h-21.85v-65.74ZM1201.38,1618.12c15.9,0,23.43-7.62,23.43-22.13,0-15.81-8.83-23.53-25.29-23.53h-8.37v45.66h10.23Z"/>
      <path class="cls-4" d="M1252.34,1562.42h43.15v10.04h-30.5v19.62h28.46v9.48h-28.46v26.59h-12.65v-65.74Z"/>
      <path class="cls-4" d="M1309.52,1562.42h40.73v10.04h-28.08v17.95h26.04v9.49h-26.04v18.22h30.22v10.04h-42.87v-65.74Z"/>
      <path class="cls-4" d="M1367.17,1562.42h12.65v55.51h28.55v10.23h-41.19v-65.74Z"/>
      <path class="cls-4" d="M1419.61,1562.42h21.29c22.22,0,37.75,9.86,37.75,32.64s-14.13,33.1-37.19,33.1h-21.85v-65.74ZM1442.49,1618.12c15.9,0,23.43-7.62,23.43-22.13,0-15.81-8.83-23.53-25.29-23.53h-8.37v45.66h10.23Z"/>
    </g>
  </g>
  <g>
    <text class="cls-8" transform="translate(1017.6 900.03)"><tspan x="0" y="0">MÜNSTER</tspan></text>
    <text class="cls-10" transform="translate(1186.47 955.97)"><tspan x="0" y="0">IN TIROL</tspan></text>
    <g>
      <path class="cls-5" d="M1243.75,786.59c5.8,4.08,9.79,3.92,15.35-.43,24.15-18.92,48.54-37.46,73.08-55.74,5.16-3.85,7-8.13,6.96-15.01v-.18s0-99.01,0-99.01v-.1c-.02-5.72-4.71-9.23-10.94-9.31-6.23-.09-97.3,5.83-142.57,27.95-6.14,3-8.54,6.57-7.95,14.62,4.25,57.39,10.48,103.07,66.08,137.21"/>
      <g>
        <path class="cls-4" d="M1318.75,707.99h-9.23s.11-13.79-.02-14.81c-.28-2.21-1.76-3.06-3.82-3.56-.18-.04-.45,0-.6.12-.92.65-1.82,1.32-2.71,2.01-.13.11-.24.33-.24.5-.01,3.75.05,15.74.05,15.74h-9.22v-32.51c1.47-.22,5.92-.92,6.68-1.01.2-.02.44.02.63.1.49.21.96.49,1.46.69.33.13.41.32.4.64,0,5.28,0,11.02,0,11.02.82-.71,4.15-3.62,5.11-4.44.12-.11.32-.21.46-.2,3.56.32,6.74,1.42,9.04,4.24,1.34,1.65,1.95,3.59,1.99,5.66.06,3.45.03,8.12.03,10.35s0,5.46,0,5.46Z"/>
        <path class="cls-4" d="M1287.19,701.2c.65.87,1.6,2.1,2.26,2.98-.23.23-.44.47-.68.67-3.68,3.2-7.94,4.54-12.86,3.64-4.27-.77-7.46-2.98-9.41-6.76-1.38-2.67-1.74-5.52-1.31-8.47.38-2.65,1.45-5,3.37-6.95,2-2.03,4.49-3.19,7.31-3.73,3.63-.7,7.14-.32,10.51,1.16.69.3,1.34.71,2,1.07.2.11.27.26.24.5-.25,2.09-.51,4.19-.73,6.28-.04.34-.17.39-.46.38-.72-.01-1.44-.02-2.16,0-.28,0-.41-.09-.51-.35-.42-1.18-.88-2.35-1.27-3.53-.15-.47-.43-.77-.84-.99-.97-.51-2.38-.8-3.65-1-1.1-.17-1.72.31-2.27,1.08-.98,1.39-1.46,2.94-1.7,4.58-.3,1.96-.46,3.93.02,5.88.54,2.18,1.18,3.76,3.11,5.09,1.58,1.09,2.19,1.01,3.35.72s3.82-1.25,5.69-2.29Z"/>
        <path class="cls-4" d="M1217.47,690.58c.69-.51,1.38-1.04,2.04-1.59.25-.21.45-.21.74-.06,2.95,1.53,4.56,3.94,4.88,7.13.21,2.11,0,4.21-.76,6.23-.32.83-.76,1.58-1.39,2.22-.26.26-.53.39-.92.31-1.35-.27-4.25-.84-4.34-.86-.45-.1-.58-.35-.57-.81.03-1.96.01-3.92.01-5.88s0-4,0-6c0-.3.07-.49.32-.68M1216.78,675.26c-.49-.21-.96-.48-1.46-.69-.2-.08-.45-.13-.66-.1-.74.09-5.15.78-6.63,1v32.6c.37.01,9.05.41,13.02.58,1.45.06,2.88-.11,4.28-.48,3.64-.97,6.26-3.09,7.65-6.52,1.11-2.74,1.31-5.58.92-8.48-.39-2.86-1.52-5.41-3.63-7.48-2.08-2.05-4.58-3.25-7.58-3.42-.31-.02-.68.11-1,.32-1.61,1.08-4.55,3.25-4.55,3.25,0,0,0-7.63,0-10,0-.3-.09-.46-.38-.58"/>
        <path class="cls-4" d="M1252.24,700.39c-.75.53-3.29,2.37-3.58,2.59-.24.17-.4.18-.65.02-1.82-1.2-2.97-3.01-3.15-5.31-.02-.32.08-.45.34-.59.48-.25,1.46-.64,1.91-.81,1.52-.56,3.08-.91,4.68-1.13.23-.03.45-.06.71-.09,0,.16.02,3.29.03,4.71,0,.28-.07.45-.29.6M1261.74,708.03s-.06-11.32-.06-14.27c0-1.4-.13-2.79-.53-4.14-1.07-3.58-3.48-5.85-7.18-6.81-2.69-.7-5.4-.66-8.12-.16-.88.16-2.51.6-3.34.89-1.16.4-2.26.92-3.3,1.61-.24.16-.31.32-.27.6.25,1.59.48,3.19.7,4.78.04.24.17.27.37.27.84,0,1.69-.01,2.54,0,.27,0,.42-.08.55-.31.76-1.33,1.49-2.84,2.24-4.17.16-.29.36-.37.69-.4.2-.02.46-.06,1.21-.02.89.05,1.71.33,2.46.84,1.42.97,2.12,2.38,2.42,3.99.11.56.08.76.08.76,0,0-6.21,1.03-9.06,1.82-1.76.49-3.83,1.05-5.54,2.22-1.22.83-.67,4.68-.56,5.15,1.08,4.97,5.24,8.29,11.26,8.08.2,0,.46-.1.61-.23,1.21-1.09,4.4-3.91,4.4-3.91,0,0,.64,1.92.97,3.03.1.32.24.41.58.41,2.29,0,4.58,0,6.88,0"/>
      </g>
      <g>
        <path class="cls-4" d="M1287.34,663.46c-.35.69-.79,1.32-1.43,1.8-.24.18-.47.23-.77.16-1.72-.41-3.21-1.23-4.52-2.36-.12-.1-.18-.32-.18-.49-.01-1.74,0-3.49,0-5.23s0-3.46,0-5.19c0-.32.11-.52.35-.71.86-.67,1.72-1.36,2.55-2.06.26-.22.46-.21.74-.09,1.43.62,2.38,1.72,3.1,3.03.25.45.45.91.62,1.38.62,1.7.77,3.5.63,5.34-.09,1.14-.25,2.27-.62,3.35-.13.37-.28.73-.45,1.09M1280.44,668.83c.96.14,1.87.33,2.79.4,1.23.09,2.48.24,3.68.08,3.2-.42,5.8-1.97,7.86-4.35,2.02-2.33,2.93-5.08,3.06-8.09.13-2.82-.45-5.47-2.04-7.87-1.54-2.32-3.67-3.96-6.26-5.06-1.34-.57-2.51-.91-3.99-.93-.29,0-.66.14-.89.33-1.6,1.26-5.05,3.83-5.05,3.83,0,0-.73-2.39-1.17-3.74-.18-.56-.17-.55-.77-.47-2.11.28-4.18.53-6.3.8,0,0,0,32.25,0,32.35,0,.26.15.32.31.35.09.02,1.24.26,1.94.42.26.06.56.04.79-.04.16-.06,6.06-2.17,6.06-2.17l-.04-5.84Z"/>
        <path class="cls-4" d="M1253.07,641.34c0,.32.08.47.41.57.82.23,1.63.53,2.45.77.29.09.37.23.37.52,0,1.1,0,27.25,0,27.25h9.1s0-32.11,0-32.28c0-.24-.08-.37-.3-.47-.53-.24-1.04-.51-1.57-.74-.19-.08-.42-.11-.63-.08-.93.12-7.22,1.1-9.44,1.43-.34.05-.42.18-.41.49.02.85.02,1.69,0,2.54"/>
      </g>
      <path class="cls-4" d="M1241.04,662.81c-.75.53-3.29,2.37-3.58,2.59-.24.17-.4.18-.65.02-1.82-1.2-2.97-3.01-3.15-5.31-.02-.32.08-.45.34-.59.48-.25,1.46-.64,1.91-.81,1.52-.56,3.08-.91,4.68-1.13.23-.03.45-.06.71-.09,0,.16.02,3.29.03,4.71,0,.28-.07.45-.29.6M1250.54,670.45s-.06-11.32-.06-14.27c0-1.4-.13-2.79-.53-4.14-1.07-3.58-3.48-5.85-7.18-6.81-2.69-.7-5.4-.66-8.12-.16-.88.16-2.51.6-3.34.89-1.16.4-2.26.92-3.3,1.61-.24.16-.31.32-.27.6.25,1.59.48,3.19.7,4.78.04.24.17.27.37.27.84,0,1.69-.01,2.54,0,.27,0,.42-.08.55-.31.76-1.33,1.49-2.84,2.24-4.17.16-.29.36-.37.69-.4.2-.02.46-.06,1.21-.02.89.05,1.71.33,2.46.84,1.42.97,2.12,2.38,2.42,3.99.11.56.08.76.08.76,0,0-6.21,1.03-9.06,1.82-1.76.49-3.83,1.05-5.54,2.22-1.22.83-.67,4.68-.56,5.15,1.08,4.97,5.24,8.29,11.26,8.08.2,0,.46-.1.61-.23,1.21-1.09,4.4-3.91,4.4-3.91,0,0,.64,1.92.97,3.03.1.32.24.41.58.41,2.29,0,4.58,0,6.88,0"/>
      <g>
        <g>
          <path class="cls-4" d="M1243.92,743.57l2.09,2.84c-2.27,1.6-4.89,2.33-7.94,2.04-1.63-.15-3.22-.41-4.67-1.19-1.77-.95-2.84-2.43-3.42-4.28-.71-2.25-.76-4.58-.77-6.9-.01-2.69,0-6.22,0-8.91,0-.33-.09-.5-.41-.64-.83-.35-1.63-.71-2.45-1.09-.29-.13-.37-.29-.37-.58,0-.86.01-1.7,0-2.58,0-.29.07-.43.38-.5,1.08-.27,2.14-.55,3.25-.83.27-.07.43-.21.59-.44,1.7-2.48,2.32-3.38,4.08-6.01.19-.29.36-.39.71-.39.86,0,2.08,0,2.94,0,.35,0,.45.09.45.42-.01,2.9-.04,3.96-.05,6.86,0,.38.1.5.51.5,2.52-.02,5.81,0,5.81,0v4.12s-5.06.31-5.99.37c-.23.01-.34.09-.32.31,0,.04,0,.08,0,.12.02,3.49.02,7.84.06,11.33.01,1.3.14,2.6.59,3.85.44,1.21,1.23,2.26,2.58,2.35.75.05,1.78-.47,2.35-.78Z"/>
          <path class="cls-4" d="M1273.05,718.58c0,.32.08.47.41.57.82.23,1.63.53,2.45.77.29.09.37.23.37.52,0,1.1,0,27.25,0,27.25h9.1s0-32.11,0-32.28c0-.24-.08-.37-.3-.47-.53-.24-1.04-.51-1.57-.74-.19-.08-.42-.11-.63-.08-.93.12-7.22,1.1-9.44,1.43-.34.05-.42.18-.41.49.02.85.02,1.69,0,2.54"/>
        </g>
        <path class="cls-4" d="M1261.66,740.07c-.75.53-3.29,2.37-3.58,2.59-.24.17-.4.18-.65.02-1.82-1.2-2.97-3.01-3.15-5.31-.02-.32.08-.45.34-.59.48-.25,1.46-.64,1.91-.81,1.52-.56,3.08-.91,4.68-1.13.23-.03.45-.06.71-.09,0,.16.02,3.29.03,4.71,0,.28-.07.45-.29.6M1271.16,747.71s-.06-11.32-.06-14.27c0-1.4-.13-2.79-.53-4.14-1.07-3.58-3.48-5.85-7.18-6.81-2.69-.7-5.4-.66-8.12-.16-.88.16-2.51.6-3.34.89-1.16.4-2.26.92-3.3,1.61-.24.16-.31.32-.27.6.25,1.59.48,3.19.7,4.78.04.24.17.27.37.27.84,0,1.69-.01,2.54,0,.27,0,.42-.08.55-.31.76-1.33,1.49-2.84,2.24-4.17.16-.29.36-.37.69-.4.2-.02.46-.06,1.21-.02.89.05,1.71.33,2.46.84,1.42.97,2.12,2.38,2.42,3.99.11.56.08.76.08.76,0,0-6.21,1.03-9.06,1.82-1.76.49-3.83,1.05-5.54,2.22-1.22.83-.67,4.68-.56,5.15,1.08,4.97,5.24,8.29,11.26,8.08.2,0,.46-.1.61-.23,1.21-1.09,4.4-3.91,4.4-3.91,0,0,.64,1.92.97,3.03.1.32.24.41.58.41,2.29,0,4.58,0,6.88,0"/>
      </g>
    </g>
  </g>
  <g>
    <g>
      <path class="cls-5" d="M355.07,786.59c5.8,4.08,9.79,3.92,15.35-.43,24.15-18.92,48.54-37.46,73.08-55.74,5.16-3.85,7-8.13,6.96-15.01v-.18s0-99.01,0-99.01v-.1c-.02-5.72-4.71-9.23-10.94-9.31-6.23-.09-97.3,5.83-142.57,27.95-6.14,3-8.54,6.57-7.95,14.62,4.25,57.39,10.48,103.07,66.08,137.21"/>
      <g>
        <path class="cls-4" d="M430.08,707.99h-9.23s.11-13.79-.02-14.81c-.28-2.21-1.76-3.06-3.82-3.56-.18-.04-.45,0-.6.12-.92.65-1.82,1.32-2.71,2.01-.13.11-.24.33-.24.5-.01,3.75.05,15.74.05,15.74h-9.22v-32.51c1.47-.22,5.92-.92,6.68-1.01.2-.02.44.02.63.1.49.21.96.49,1.46.69.33.13.41.32.4.64,0,5.28,0,11.02,0,11.02.82-.71,4.15-3.62,5.11-4.44.12-.11.32-.21.46-.2,3.56.32,6.74,1.42,9.04,4.24,1.34,1.65,1.95,3.59,1.99,5.66.06,3.45.03,8.12.03,10.35s0,5.46,0,5.46Z"/>
        <path class="cls-4" d="M398.51,701.2c.65.87,1.6,2.1,2.26,2.98-.23.23-.44.47-.68.67-3.68,3.2-7.94,4.54-12.86,3.64-4.27-.77-7.46-2.98-9.41-6.76-1.38-2.67-1.74-5.52-1.31-8.47.38-2.65,1.45-5,3.37-6.95,2-2.03,4.49-3.19,7.31-3.73,3.63-.7,7.14-.32,10.51,1.16.69.3,1.34.71,2,1.07.2.11.27.26.24.5-.25,2.09-.51,4.19-.73,6.28-.04.34-.17.39-.46.38-.72-.01-1.44-.02-2.16,0-.28,0-.41-.09-.51-.35-.42-1.18-.88-2.35-1.27-3.53-.15-.47-.43-.77-.84-.99-.97-.51-2.38-.8-3.65-1-1.1-.17-1.72.31-2.27,1.08-.98,1.39-1.46,2.94-1.7,4.58-.3,1.96-.46,3.93.02,5.88.54,2.18,1.18,3.76,3.11,5.09,1.58,1.09,2.19,1.01,3.35.72s3.82-1.25,5.69-2.29Z"/>
        <path class="cls-4" d="M328.79,690.58c.69-.51,1.38-1.04,2.04-1.59.25-.21.45-.21.74-.06,2.95,1.53,4.56,3.94,4.88,7.13.21,2.11,0,4.21-.76,6.23-.32.83-.76,1.58-1.39,2.22-.26.26-.53.39-.92.31-1.35-.27-4.25-.84-4.34-.86-.45-.1-.58-.35-.57-.81.03-1.96.01-3.92.01-5.88s0-4,0-6c0-.3.07-.49.32-.68M328.1,675.26c-.49-.21-.96-.48-1.46-.69-.2-.08-.45-.13-.66-.1-.74.09-5.15.78-6.63,1v32.6c.37.01,9.05.41,13.02.58,1.45.06,2.88-.11,4.28-.48,3.64-.97,6.26-3.09,7.65-6.52,1.11-2.74,1.31-5.58.92-8.48-.39-2.86-1.52-5.41-3.63-7.48-2.08-2.05-4.58-3.25-7.58-3.42-.31-.02-.68.11-1,.32-1.61,1.08-4.55,3.25-4.55,3.25,0,0,0-7.63,0-10,0-.3-.09-.46-.38-.58"/>
        <path class="cls-4" d="M363.56,700.39c-.75.53-3.29,2.37-3.58,2.59-.24.17-.4.18-.65.02-1.82-1.2-2.97-3.01-3.15-5.31-.02-.32.08-.45.34-.59.48-.25,1.46-.64,1.91-.81,1.52-.56,3.08-.91,4.68-1.13.23-.03.45-.06.71-.09,0,.16.02,3.29.03,4.71,0,.28-.07.45-.29.6M373.06,708.03s-.06-11.32-.06-14.27c0-1.4-.13-2.79-.53-4.14-1.07-3.58-3.48-5.85-7.18-6.81-2.69-.7-5.4-.66-8.12-.16-.88.16-2.51.6-3.34.89-1.16.4-2.26.92-3.3,1.61-.24.16-.31.32-.27.6.25,1.59.48,3.19.7,4.78.04.24.17.27.37.27.84,0,1.69-.01,2.54,0,.27,0,.42-.08.55-.31.76-1.33,1.49-2.84,2.24-4.17.16-.29.36-.37.69-.4.2-.02.46-.06,1.21-.02.89.05,1.71.33,2.46.84,1.42.97,2.12,2.38,2.42,3.99.11.56.08.76.08.76,0,0-6.21,1.03-9.06,1.82-1.76.49-3.83,1.05-5.54,2.22-1.22.83-.67,4.68-.56,5.15,1.08,4.97,5.24,8.29,11.26,8.08.2,0,.46-.1.61-.23,1.21-1.09,4.4-3.91,4.4-3.91,0,0,.64,1.92.97,3.03.1.32.24.41.58.41,2.29,0,4.58,0,6.88,0"/>
      </g>
      <g>
        <path class="cls-4" d="M398.66,663.46c-.35.69-.79,1.32-1.43,1.8-.24.18-.47.23-.77.16-1.72-.41-3.21-1.23-4.52-2.36-.12-.1-.18-.32-.18-.49-.01-1.74,0-3.49,0-5.23s0-3.46,0-5.19c0-.32.11-.52.35-.71.86-.67,1.72-1.36,2.55-2.06.26-.22.46-.21.74-.09,1.43.62,2.38,1.72,3.1,3.03.25.45.45.91.62,1.38.62,1.7.77,3.5.63,5.34-.09,1.14-.25,2.27-.62,3.35-.13.37-.28.73-.45,1.09M391.76,668.83c.96.14,1.87.33,2.79.4,1.23.09,2.48.24,3.68.08,3.2-.42,5.8-1.97,7.86-4.35,2.02-2.33,2.93-5.08,3.06-8.09.13-2.82-.45-5.47-2.04-7.87-1.54-2.32-3.67-3.96-6.26-5.06-1.34-.57-2.51-.91-3.99-.93-.29,0-.66.14-.89.33-1.6,1.26-5.05,3.83-5.05,3.83,0,0-.73-2.39-1.17-3.74-.18-.56-.17-.55-.77-.47-2.11.28-4.18.53-6.3.8,0,0,0,32.25,0,32.35,0,.26.15.32.31.35.09.02,1.24.26,1.94.42.26.06.56.04.79-.04.16-.06,6.06-2.17,6.06-2.17l-.04-5.84Z"/>
        <path class="cls-4" d="M364.4,641.34c0,.32.08.47.41.57.82.23,1.63.53,2.45.77.29.09.37.23.37.52,0,1.1,0,27.25,0,27.25h9.1s0-32.11,0-32.28c0-.24-.08-.37-.3-.47-.53-.24-1.04-.51-1.57-.74-.19-.08-.42-.11-.63-.08-.93.12-7.22,1.1-9.44,1.43-.34.05-.42.18-.41.49.02.85.02,1.69,0,2.54"/>
      </g>
      <path class="cls-4" d="M352.36,662.81c-.75.53-3.29,2.37-3.58,2.59-.24.17-.4.18-.65.02-1.82-1.2-2.97-3.01-3.15-5.31-.02-.32.08-.45.34-.59.48-.25,1.46-.64,1.91-.81,1.52-.56,3.08-.91,4.68-1.13.23-.03.45-.06.71-.09,0,.16.02,3.29.03,4.71,0,.28-.07.45-.29.6M361.86,670.45s-.06-11.32-.06-14.27c0-1.4-.13-2.79-.53-4.14-1.07-3.58-3.48-5.85-7.18-6.81-2.69-.7-5.4-.66-8.12-.16-.88.16-2.51.6-3.34.89-1.16.4-2.26.92-3.3,1.61-.24.16-.31.32-.27.6.25,1.59.48,3.19.7,4.78.04.24.17.27.37.27.84,0,1.69-.01,2.54,0,.27,0,.42-.08.55-.31.76-1.33,1.49-2.84,2.24-4.17.16-.29.36-.37.69-.4.2-.02.46-.06,1.21-.02.89.05,1.71.33,2.46.84,1.42.97,2.12,2.38,2.42,3.99.11.56.08.76.08.76,0,0-6.21,1.03-9.06,1.82-1.76.49-3.83,1.05-5.54,2.22-1.22.83-.67,4.68-.56,5.15,1.08,4.97,5.24,8.29,11.26,8.08.2,0,.46-.1.61-.23,1.21-1.09,4.4-3.91,4.4-3.91,0,0,.64,1.92.97,3.03.1.32.24.41.58.41,2.29,0,4.58,0,6.88,0"/>
      <g>
        <g>
          <path class="cls-4" d="M355.24,743.57l2.09,2.84c-2.27,1.6-4.89,2.33-7.94,2.04-1.63-.15-3.22-.41-4.67-1.19-1.77-.95-2.84-2.43-3.42-4.28-.71-2.25-.76-4.58-.77-6.9-.01-2.69,0-6.22,0-8.91,0-.33-.09-.5-.41-.64-.83-.35-1.63-.71-2.45-1.09-.29-.13-.37-.29-.37-.58,0-.86.01-1.7,0-2.58,0-.29.07-.43.38-.5,1.08-.27,2.14-.55,3.25-.83.27-.07.43-.21.59-.44,1.7-2.48,2.32-3.38,4.08-6.01.19-.29.36-.39.71-.39.86,0,2.08,0,2.94,0,.35,0,.45.09.45.42-.01,2.9-.04,3.96-.05,6.86,0,.38.1.5.51.5,2.52-.02,5.81,0,5.81,0v4.12s-5.06.31-5.99.37c-.23.01-.34.09-.32.31,0,.04,0,.08,0,.12.02,3.49.02,7.84.06,11.33.01,1.3.14,2.6.59,3.85.44,1.21,1.23,2.26,2.58,2.35.75.05,1.78-.47,2.35-.78Z"/>
          <path class="cls-4" d="M384.37,718.58c0,.32.08.47.41.57.82.23,1.63.53,2.45.77.29.09.37.23.37.52,0,1.1,0,27.25,0,27.25h9.1s0-32.11,0-32.28c0-.24-.08-.37-.3-.47-.53-.24-1.04-.51-1.57-.74-.19-.08-.42-.11-.63-.08-.93.12-7.22,1.1-9.44,1.43-.34.05-.42.18-.41.49.02.85.02,1.69,0,2.54"/>
        </g>
        <path class="cls-4" d="M372.98,740.07c-.75.53-3.29,2.37-3.58,2.59-.24.17-.4.18-.65.02-1.82-1.2-2.97-3.01-3.15-5.31-.02-.32.08-.45.34-.59.48-.25,1.46-.64,1.91-.81,1.52-.56,3.08-.91,4.68-1.13.23-.03.45-.06.71-.09,0,.16.02,3.29.03,4.71,0,.28-.07.45-.29.6M382.48,747.71s-.06-11.32-.06-14.27c0-1.4-.13-2.79-.53-4.14-1.07-3.58-3.48-5.85-7.18-6.81-2.69-.7-5.4-.66-8.12-.16-.88.16-2.51.6-3.34.89-1.16.4-2.26.92-3.3,1.61-.24.16-.31.32-.27.6.25,1.59.48,3.19.7,4.78.04.24.17.27.37.27.84,0,1.69-.01,2.54,0,.27,0,.42-.08.55-.31.76-1.33,1.49-2.84,2.24-4.17.16-.29.36-.37.69-.4.2-.02.46-.06,1.21-.02.89.05,1.71.33,2.46.84,1.42.97,2.12,2.38,2.42,3.99.11.56.08.76.08.76,0,0-6.21,1.03-9.06,1.82-1.76.49-3.83,1.05-5.54,2.22-1.22.83-.67,4.68-.56,5.15,1.08,4.97,5.24,8.29,11.26,8.08.2,0,.46-.1.61-.23,1.21-1.09,4.4-3.91,4.4-3.91,0,0,.64,1.92.97,3.03.1.32.24.41.58.41,2.29,0,4.58,0,6.88,0"/>
      </g>
    </g>
    <text class="cls-9" transform="translate(224 900.03)"><tspan x="0" y="0">REITH</tspan></text>
    <text class="cls-10" transform="translate(237.26 955.97)"><tspan x="0" y="0">IM ALPBACHTAL</tspan></text>
  </g>
  <g>
    <g>
      <text class="cls-9" transform="translate(916.57 2129.25)"><tspan x="0" y="0">BREITENBACH</tspan></text>
      <text class="cls-10" transform="translate(1196.45 2185.2)"><tspan x="0" y="0">AM INN</tspan></text>
      <g>
        <path class="cls-5" d="M1243.75,2015.82c5.8,4.08,9.79,3.92,15.35-.43,24.15-18.92,48.54-37.46,73.08-55.74,5.16-3.85,7-8.13,6.96-15.01v-.18s0-99.01,0-99.01v-.1c-.02-5.72-4.71-9.23-10.94-9.31-6.23-.09-97.3,5.83-142.57,27.95-6.14,3-8.54,6.57-7.95,14.62,4.25,57.39,10.48,103.07,66.08,137.21"/>
        <g>
          <path class="cls-4" d="M1318.75,1937.21h-9.23s.11-13.79-.02-14.81c-.28-2.21-1.76-3.06-3.82-3.56-.18-.04-.45,0-.6.12-.92.65-1.82,1.32-2.71,2.01-.13.11-.24.33-.24.5-.01,3.75.05,15.74.05,15.74h-9.22v-32.51c1.47-.22,5.92-.92,6.68-1.01.2-.02.44.02.63.1.49.21.96.49,1.46.69.33.13.41.32.4.64,0,5.28,0,11.02,0,11.02.82-.71,4.15-3.62,5.11-4.44.12-.11.32-.21.46-.2,3.56.32,6.74,1.42,9.04,4.24,1.34,1.65,1.95,3.59,1.99,5.66.06,3.45.03,8.12.03,10.35s0,5.46,0,5.46Z"/>
          <path class="cls-4" d="M1287.19,1930.42c.65.87,1.6,2.1,2.26,2.98-.23.23-.44.47-.68.67-3.68,3.2-7.94,4.54-12.86,3.64-4.27-.77-7.46-2.98-9.41-6.76-1.38-2.67-1.74-5.52-1.31-8.47.38-2.65,1.45-5,3.37-6.95,2-2.03,4.49-3.19,7.31-3.73,3.63-.7,7.14-.32,10.51,1.16.69.3,1.34.71,2,1.07.2.11.27.26.24.5-.25,2.09-.51,4.19-.73,6.28-.04.34-.17.39-.46.38-.72-.01-1.44-.02-2.16,0-.28,0-.41-.09-.51-.35-.42-1.18-.88-2.35-1.27-3.53-.15-.47-.43-.77-.84-.99-.97-.51-2.38-.8-3.65-1-1.1-.17-1.72.31-2.27,1.08-.98,1.39-1.46,2.94-1.7,4.58-.3,1.96-.46,3.93.02,5.88.54,2.18,1.18,3.76,3.11,5.09,1.58,1.09,2.19,1.01,3.35.72s3.82-1.25,5.69-2.29Z"/>
          <path class="cls-4" d="M1217.47,1919.81c.69-.51,1.38-1.04,2.04-1.59.25-.21.45-.21.74-.06,2.95,1.53,4.56,3.94,4.88,7.13.21,2.11,0,4.21-.76,6.23-.32.83-.76,1.58-1.39,2.22-.26.26-.53.39-.92.31-1.35-.27-4.25-.84-4.34-.86-.45-.1-.58-.35-.57-.81.03-1.96.01-3.92.01-5.88s0-4,0-6c0-.3.07-.49.32-.68M1216.78,1904.48c-.49-.21-.96-.48-1.46-.69-.2-.08-.45-.13-.66-.1-.74.09-5.15.78-6.63,1v32.6c.37.01,9.05.41,13.02.58,1.45.06,2.88-.11,4.28-.48,3.64-.97,6.26-3.09,7.65-6.52,1.11-2.74,1.31-5.58.92-8.48-.39-2.86-1.52-5.41-3.63-7.48-2.08-2.05-4.58-3.25-7.58-3.42-.31-.02-.68.11-1,.32-1.61,1.08-4.55,3.25-4.55,3.25,0,0,0-7.63,0-10,0-.3-.09-.46-.38-.58"/>
          <path class="cls-4" d="M1252.24,1929.62c-.75.53-3.29,2.37-3.58,2.59-.24.17-.4.18-.65.02-1.82-1.2-2.97-3.01-3.15-5.31-.02-.32.08-.45.34-.59.48-.25,1.46-.64,1.91-.81,1.52-.56,3.08-.91,4.68-1.13.23-.03.45-.06.71-.09,0,.16.02,3.29.03,4.71,0,.28-.07.45-.29.6M1261.74,1937.25s-.06-11.32-.06-14.27c0-1.4-.13-2.79-.53-4.14-1.07-3.58-3.48-5.85-7.18-6.81-2.69-.7-5.4-.66-8.12-.16-.88.16-2.51.6-3.34.89-1.16.4-2.26.92-3.3,1.61-.24.16-.31.32-.27.6.25,1.59.48,3.19.7,4.78.04.24.17.27.37.27.84,0,1.69-.01,2.54,0,.27,0,.42-.08.55-.31.76-1.33,1.49-2.84,2.24-4.17.16-.29.36-.37.69-.4.2-.02.46-.06,1.21-.02.89.05,1.71.33,2.46.84,1.42.97,2.12,2.38,2.42,3.99.11.56.08.76.08.76,0,0-6.21,1.03-9.06,1.82-1.76.49-3.83,1.05-5.54,2.22-1.22.83-.67,4.68-.56,5.15,1.08,4.97,5.24,8.29,11.26,8.08.2,0,.46-.1.61-.23,1.21-1.09,4.4-3.91,4.4-3.91,0,0,.64,1.92.97,3.03.1.32.24.41.58.41,2.29,0,4.58,0,6.88,0"/>
        </g>
        <g>
          <path class="cls-4" d="M1287.33,1892.69c-.35.69-.79,1.32-1.43,1.8-.24.18-.47.23-.77.16-1.72-.41-3.21-1.23-4.52-2.36-.12-.1-.18-.32-.18-.49-.01-1.74,0-3.49,0-5.23s0-3.46,0-5.19c0-.32.11-.52.35-.71.86-.67,1.72-1.36,2.55-2.06.26-.22.46-.21.74-.09,1.43.62,2.38,1.72,3.1,3.03.25.45.45.91.62,1.38.62,1.7.77,3.5.63,5.34-.09,1.14-.25,2.27-.62,3.35-.13.37-.28.73-.45,1.09M1280.44,1898.05c.96.14,1.87.33,2.79.4,1.23.09,2.48.24,3.68.08,3.2-.42,5.8-1.97,7.86-4.35,2.02-2.33,2.93-5.08,3.06-8.09.13-2.82-.45-5.47-2.04-7.87-1.54-2.32-3.67-3.96-6.26-5.06-1.34-.57-2.51-.91-3.99-.93-.29,0-.66.14-.89.33-1.6,1.26-5.05,3.83-5.05,3.83,0,0-.73-2.39-1.17-3.74-.18-.56-.17-.55-.77-.47-2.11.28-4.18.53-6.3.8,0,0,0,32.25,0,32.35,0,.26.15.32.31.35.09.02,1.24.26,1.94.42.26.06.56.04.79-.04.16-.06,6.06-2.17,6.06-2.17l-.04-5.84Z"/>
          <path class="cls-4" d="M1253.07,1870.56c0,.32.08.47.41.57.82.23,1.63.53,2.45.77.29.09.37.23.37.52,0,1.1,0,27.25,0,27.25h9.1s0-32.11,0-32.28c0-.24-.08-.37-.3-.47-.53-.24-1.04-.51-1.57-.74-.19-.08-.42-.11-.63-.08-.93.12-7.22,1.1-9.44,1.43-.34.05-.42.18-.41.49.02.85.02,1.69,0,2.54"/>
        </g>
        <path class="cls-4" d="M1241.04,1892.04c-.75.53-3.29,2.37-3.58,2.59-.24.17-.4.18-.65.02-1.82-1.2-2.97-3.01-3.15-5.31-.02-.32.08-.45.34-.59.48-.25,1.46-.64,1.91-.81,1.52-.56,3.08-.91,4.68-1.13.23-.03.45-.06.71-.09,0,.16.02,3.29.03,4.71,0,.28-.07.45-.29.6M1250.54,1899.67s-.06-11.32-.06-14.27c0-1.4-.13-2.79-.53-4.14-1.07-3.58-3.48-5.85-7.18-6.81-2.69-.7-5.4-.66-8.12-.16-.88.16-2.51.6-3.34.89-1.16.4-2.26.92-3.3,1.61-.24.16-.31.32-.27.6.25,1.59.48,3.19.7,4.78.04.24.17.27.37.27.84,0,1.69-.01,2.54,0,.27,0,.42-.08.55-.31.76-1.33,1.49-2.84,2.24-4.17.16-.29.36-.37.69-.4.2-.02.46-.06,1.21-.02.89.05,1.71.33,2.46.84,1.42.97,2.12,2.38,2.42,3.99.11.56.08.76.08.76,0,0-6.21,1.03-9.06,1.82-1.76.49-3.83,1.05-5.54,2.22-1.22.83-.67,4.68-.56,5.15,1.08,4.97,5.24,8.29,11.26,8.08.2,0,.46-.1.61-.23,1.21-1.09,4.4-3.91,4.4-3.91,0,0,.64,1.92.97,3.03.1.32.24.41.58.41,2.29,0,4.58,0,6.88,0"/>
        <g>
          <g>
            <path class="cls-4" d="M1243.92,1972.8l2.09,2.84c-2.27,1.6-4.89,2.33-7.94,2.04-1.63-.15-3.22-.41-4.67-1.19-1.77-.95-2.84-2.43-3.42-4.28-.71-2.25-.76-4.58-.77-6.9-.01-2.69,0-6.22,0-8.91,0-.33-.09-.5-.41-.64-.83-.35-1.63-.71-2.45-1.09-.29-.13-.37-.29-.37-.58,0-.86.01-1.7,0-2.58,0-.29.07-.43.38-.5,1.08-.27,2.14-.55,3.25-.83.27-.07.43-.21.59-.44,1.7-2.48,2.32-3.38,4.08-6.01.19-.29.36-.39.71-.39.86,0,2.08,0,2.94,0,.35,0,.45.09.45.42-.01,2.9-.04,3.96-.05,6.86,0,.38.1.5.51.5,2.52-.02,5.81,0,5.81,0v4.12s-5.06.31-5.99.37c-.23.01-.34.09-.32.31,0,.04,0,.08,0,.12.02,3.49.02,7.84.06,11.33.01,1.3.14,2.6.59,3.85.44,1.21,1.23,2.26,2.58,2.35.75.05,1.78-.47,2.35-.78Z"/>
            <path class="cls-4" d="M1273.05,1947.8c0,.32.08.47.41.57.82.23,1.63.53,2.45.77.29.09.37.23.37.52,0,1.1,0,27.25,0,27.25h9.1s0-32.11,0-32.28c0-.24-.08-.37-.3-.47-.53-.24-1.04-.51-1.57-.74-.19-.08-.42-.11-.63-.08-.93.12-7.22,1.1-9.44,1.43-.34.05-.42.18-.41.49.02.85.02,1.69,0,2.54"/>
          </g>
          <path class="cls-4" d="M1261.66,1969.3c-.75.53-3.29,2.37-3.58,2.59-.24.17-.4.18-.65.02-1.82-1.2-2.97-3.01-3.15-5.31-.02-.32.08-.45.34-.59.48-.25,1.46-.64,1.91-.81,1.52-.56,3.08-.91,4.68-1.13.23-.03.45-.06.71-.09,0,.16.02,3.29.03,4.71,0,.28-.07.45-.29.6M1271.16,1976.93s-.06-11.32-.06-14.27c0-1.4-.13-2.79-.53-4.14-1.07-3.58-3.48-5.85-7.18-6.81-2.69-.7-5.4-.66-8.12-.16-.88.16-2.51.6-3.34.89-1.16.4-2.26.92-3.3,1.61-.24.16-.31.32-.27.6.25,1.59.48,3.19.7,4.78.04.24.17.27.37.27.84,0,1.69-.01,2.54,0,.27,0,.42-.08.55-.31.76-1.33,1.49-2.84,2.24-4.17.16-.29.36-.37.69-.4.2-.02.46-.06,1.21-.02.89.05,1.71.33,2.46.84,1.42.97,2.12,2.38,2.42,3.99.11.56.08.76.08.76,0,0-6.21,1.03-9.06,1.82-1.76.49-3.83,1.05-5.54,2.22-1.22.83-.67,4.68-.56,5.15,1.08,4.97,5.24,8.29,11.26,8.08.2,0,.46-.1.61-.23,1.21-1.09,4.4-3.91,4.4-3.91,0,0,.64,1.92.97,3.03.1.32.24.41.58.41,2.29,0,4.58,0,6.88,0"/>
        </g>
      </g>
    </g>
    <g>
      <text class="cls-9" transform="translate(0 2127.28)"><tspan x="0" y="0">BRANDENBERG</tspan></text>
      <g>
        <path class="cls-5" d="M355.07,2013.84c5.8,4.08,9.79,3.92,15.35-.43,24.15-18.92,48.54-37.46,73.08-55.74,5.16-3.85,7-8.13,6.96-15.01v-.18s0-99.01,0-99.01v-.1c-.02-5.72-4.71-9.23-10.94-9.31-6.23-.09-97.3,5.83-142.57,27.95-6.14,3-8.54,6.57-7.95,14.62,4.25,57.39,10.48,103.07,66.08,137.21"/>
        <g>
          <path class="cls-4" d="M430.08,1935.24h-9.23s.11-13.79-.02-14.81c-.28-2.21-1.76-3.06-3.82-3.56-.18-.04-.45,0-.6.12-.92.65-1.82,1.32-2.71,2.01-.13.11-.24.33-.24.5-.01,3.75.05,15.74.05,15.74h-9.22v-32.51c1.47-.22,5.92-.92,6.68-1.01.2-.02.44.02.63.1.49.21.96.49,1.46.69.33.13.41.32.4.64,0,5.28,0,11.02,0,11.02.82-.71,4.15-3.62,5.11-4.44.12-.11.32-.21.46-.2,3.56.32,6.74,1.42,9.04,4.24,1.34,1.65,1.95,3.59,1.99,5.66.06,3.45.03,8.12.03,10.35s0,5.46,0,5.46Z"/>
          <path class="cls-4" d="M398.51,1928.45c.65.87,1.6,2.1,2.26,2.98-.23.23-.44.47-.68.67-3.68,3.2-7.94,4.54-12.86,3.64-4.27-.77-7.46-2.98-9.41-6.76-1.38-2.67-1.74-5.52-1.31-8.47.38-2.65,1.45-5,3.37-6.95,2-2.03,4.49-3.19,7.31-3.73,3.63-.7,7.14-.32,10.51,1.16.69.3,1.34.71,2,1.07.2.11.27.26.24.5-.25,2.09-.51,4.19-.73,6.28-.04.34-.17.39-.46.38-.72-.01-1.44-.02-2.16,0-.28,0-.41-.09-.51-.35-.42-1.18-.88-2.35-1.27-3.53-.15-.47-.43-.77-.84-.99-.97-.51-2.38-.8-3.65-1-1.1-.17-1.72.31-2.27,1.08-.98,1.39-1.46,2.94-1.7,4.58-.3,1.96-.46,3.93.02,5.88.54,2.18,1.18,3.76,3.11,5.09,1.58,1.09,2.19,1.01,3.35.72s3.82-1.25,5.69-2.29Z"/>
          <path class="cls-4" d="M328.79,1917.83c.69-.51,1.38-1.04,2.04-1.59.25-.21.45-.21.74-.06,2.95,1.53,4.56,3.94,4.88,7.13.21,2.11,0,4.21-.76,6.23-.32.83-.76,1.58-1.39,2.22-.26.26-.53.39-.92.31-1.35-.27-4.25-.84-4.34-.86-.45-.1-.58-.35-.57-.81.03-1.96.01-3.92.01-5.88s0-4,0-6c0-.3.07-.49.32-.68M328.1,1902.51c-.49-.21-.96-.48-1.46-.69-.2-.08-.45-.13-.66-.1-.74.09-5.15.78-6.63,1v32.6c.37.01,9.05.41,13.02.58,1.45.06,2.88-.11,4.28-.48,3.64-.97,6.26-3.09,7.65-6.52,1.11-2.74,1.31-5.58.92-8.48-.39-2.86-1.52-5.41-3.63-7.48-2.08-2.05-4.58-3.25-7.58-3.42-.31-.02-.68.11-1,.32-1.61,1.08-4.55,3.25-4.55,3.25,0,0,0-7.63,0-10,0-.3-.09-.46-.38-.58"/>
          <path class="cls-4" d="M363.56,1927.65c-.75.53-3.29,2.37-3.58,2.59-.24.17-.4.18-.65.02-1.82-1.2-2.97-3.01-3.15-5.31-.02-.32.08-.45.34-.59.48-.25,1.46-.64,1.91-.81,1.52-.56,3.08-.91,4.68-1.13.23-.03.45-.06.71-.09,0,.16.02,3.29.03,4.71,0,.28-.07.45-.29.6M373.06,1935.28s-.06-11.32-.06-14.27c0-1.4-.13-2.79-.53-4.14-1.07-3.58-3.48-5.85-7.18-6.81-2.69-.7-5.4-.66-8.12-.16-.88.16-2.51.6-3.34.89-1.16.4-2.26.92-3.3,1.61-.24.16-.31.32-.27.6.25,1.59.48,3.19.7,4.78.04.24.17.27.37.27.84,0,1.69-.01,2.54,0,.27,0,.42-.08.55-.31.76-1.33,1.49-2.84,2.24-4.17.16-.29.36-.37.69-.4.2-.02.46-.06,1.21-.02.89.05,1.71.33,2.46.84,1.42.97,2.12,2.38,2.42,3.99.11.56.08.76.08.76,0,0-6.21,1.03-9.06,1.82-1.76.49-3.83,1.05-5.54,2.22-1.22.83-.67,4.68-.56,5.15,1.08,4.97,5.24,8.29,11.26,8.08.2,0,.46-.1.61-.23,1.21-1.09,4.4-3.91,4.4-3.91,0,0,.64,1.92.97,3.03.1.32.24.41.58.41,2.29,0,4.58,0,6.88,0"/>
        </g>
        <g>
          <path class="cls-4" d="M398.66,1890.72c-.35.69-.79,1.32-1.43,1.8-.24.18-.47.23-.77.16-1.72-.41-3.21-1.23-4.52-2.36-.12-.1-.18-.32-.18-.49-.01-1.74,0-3.49,0-5.23s0-3.46,0-5.19c0-.32.11-.52.35-.71.86-.67,1.72-1.36,2.55-2.06.26-.22.46-.21.74-.09,1.43.62,2.38,1.72,3.1,3.03.25.45.45.91.62,1.38.62,1.7.77,3.5.63,5.34-.09,1.14-.25,2.27-.62,3.35-.13.37-.28.73-.45,1.09M391.76,1896.08c.96.14,1.87.33,2.79.4,1.23.09,2.48.24,3.68.08,3.2-.42,5.8-1.97,7.86-4.35,2.02-2.33,2.93-5.08,3.06-8.09.13-2.82-.45-5.47-2.04-7.87-1.54-2.32-3.67-3.96-6.26-5.06-1.34-.57-2.51-.91-3.99-.93-.29,0-.66.14-.89.33-1.6,1.26-5.05,3.83-5.05,3.83,0,0-.73-2.39-1.17-3.74-.18-.56-.17-.55-.77-.47-2.11.28-4.18.53-6.3.8,0,0,0,32.25,0,32.35,0,.26.15.32.31.35.09.02,1.24.26,1.94.42.26.06.56.04.79-.04.16-.06,6.06-2.17,6.06-2.17l-.04-5.84Z"/>
          <path class="cls-4" d="M364.4,1868.59c0,.32.08.47.41.57.82.23,1.63.53,2.45.77.29.09.37.23.37.52,0,1.1,0,27.25,0,27.25h9.1s0-32.11,0-32.28c0-.24-.08-.37-.3-.47-.53-.24-1.04-.51-1.57-.74-.19-.08-.42-.11-.63-.08-.93.12-7.22,1.1-9.44,1.43-.34.05-.42.18-.41.49.02.85.02,1.69,0,2.54"/>
        </g>
        <path class="cls-4" d="M352.36,1890.06c-.75.53-3.29,2.37-3.58,2.59-.24.17-.4.18-.65.02-1.82-1.2-2.97-3.01-3.15-5.31-.02-.32.08-.45.34-.59.48-.25,1.46-.64,1.91-.81,1.52-.56,3.08-.91,4.68-1.13.23-.03.45-.06.71-.09,0,.16.02,3.29.03,4.71,0,.28-.07.45-.29.6M361.86,1897.7s-.06-11.32-.06-14.27c0-1.4-.13-2.79-.53-4.14-1.07-3.58-3.48-5.85-7.18-6.81-2.69-.7-5.4-.66-8.12-.16-.88.16-2.51.6-3.34.89-1.16.4-2.26.92-3.3,1.61-.24.16-.31.32-.27.6.25,1.59.48,3.19.7,4.78.04.24.17.27.37.27.84,0,1.69-.01,2.54,0,.27,0,.42-.08.55-.31.76-1.33,1.49-2.84,2.24-4.17.16-.29.36-.37.69-.4.2-.02.46-.06,1.21-.02.89.05,1.71.33,2.46.84,1.42.97,2.12,2.38,2.42,3.99.11.56.08.76.08.76,0,0-6.21,1.03-9.06,1.82-1.76.49-3.83,1.05-5.54,2.22-1.22.83-.67,4.68-.56,5.15,1.08,4.97,5.24,8.29,11.26,8.08.2,0,.46-.1.61-.23,1.21-1.09,4.4-3.91,4.4-3.91,0,0,.64,1.92.97,3.03.1.32.24.41.58.41,2.29,0,4.58,0,6.88,0"/>
        <g>
          <g>
            <path class="cls-4" d="M355.24,1970.82l2.09,2.84c-2.27,1.6-4.89,2.33-7.94,2.04-1.63-.15-3.22-.41-4.67-1.19-1.77-.95-2.84-2.43-3.42-4.28-.71-2.25-.76-4.58-.77-6.9-.01-2.69,0-6.22,0-8.91,0-.33-.09-.5-.41-.64-.83-.35-1.63-.71-2.45-1.09-.29-.13-.37-.29-.37-.58,0-.86.01-1.7,0-2.58,0-.29.07-.43.38-.5,1.08-.27,2.14-.55,3.25-.83.27-.07.43-.21.59-.44,1.7-2.48,2.32-3.38,4.08-6.01.19-.29.36-.39.71-.39.86,0,2.08,0,2.94,0,.35,0,.45.09.45.42-.01,2.9-.04,3.96-.05,6.86,0,.38.1.5.51.5,2.52-.02,5.81,0,5.81,0v4.12s-5.06.31-5.99.37c-.23.01-.34.09-.32.31,0,.04,0,.08,0,.12.02,3.49.02,7.84.06,11.33.01,1.3.14,2.6.59,3.85.44,1.21,1.23,2.26,2.58,2.35.75.05,1.78-.47,2.35-.78Z"/>
            <path class="cls-4" d="M384.37,1945.83c0,.32.08.47.41.57.82.23,1.63.53,2.45.77.29.09.37.23.37.52,0,1.1,0,27.25,0,27.25h9.1s0-32.11,0-32.28c0-.24-.08-.37-.3-.47-.53-.24-1.04-.51-1.57-.74-.19-.08-.42-.11-.63-.08-.93.12-7.22,1.1-9.44,1.43-.34.05-.42.18-.41.49.02.85.02,1.69,0,2.54"/>
          </g>
          <path class="cls-4" d="M372.98,1967.33c-.75.53-3.29,2.37-3.58,2.59-.24.17-.4.18-.65.02-1.82-1.2-2.97-3.01-3.15-5.31-.02-.32.08-.45.34-.59.48-.25,1.46-.64,1.91-.81,1.52-.56,3.08-.91,4.68-1.13.23-.03.45-.06.71-.09,0,.16.02,3.29.03,4.71,0,.28-.07.45-.29.6M382.48,1974.96s-.06-11.32-.06-14.27c0-1.4-.13-2.79-.53-4.14-1.07-3.58-3.48-5.85-7.18-6.81-2.69-.7-5.4-.66-8.12-.16-.88.16-2.51.6-3.34.89-1.16.4-2.26.92-3.3,1.61-.24.16-.31.32-.27.6.25,1.59.48,3.19.7,4.78.04.24.17.27.37.27.84,0,1.69-.01,2.54,0,.27,0,.42-.08.55-.31.76-1.33,1.49-2.84,2.24-4.17.16-.29.36-.37.69-.4.2-.02.46-.06,1.21-.02.89.05,1.71.33,2.46.84,1.42.97,2.12,2.38,2.42,3.99.11.56.08.76.08.76,0,0-6.21,1.03-9.06,1.82-1.76.49-3.83,1.05-5.54,2.22-1.22.83-.67,4.68-.56,5.15,1.08,4.97,5.24,8.29,11.26,8.08.2,0,.46-.1.61-.23,1.21-1.09,4.4-3.91,4.4-3.91,0,0,.64,1.92.97,3.03.1.32.24.41.58.41,2.29,0,4.58,0,6.88,0"/>
        </g>
      </g>
    </g>
  </g>
</svg>