<?xml version="1.0" encoding="UTF-8"?>
<svg id="Ebene_1" data-name="Ebene 1" xmlns="http://www.w3.org/2000/svg" viewBox="0 0 1600 533">
  <defs>
    <style>
      .cls-1 {
        fill: none;
      }

      .cls-1, .cls-2, .cls-3 {
        stroke-width: 0px;
      }

      .cls-2 {
        opacity: .6;
      }

      .cls-2, .cls-3 {
        fill: #f1d69b;
      }
    </style>
  </defs>
  <path class="cls-1" d="M34.88-137V432.31h1376.45V-137H34.88Z"/>
  <path class="cls-1" d="M34.88-137V432.31h1376.45V-137H34.88Z"/>
  <g>
    <path class="cls-3" d="M.02.07c34.47,106.2,76.65,214.01,123.01,325.33,247.69,6.85,1038.96,4.19,1476.96-161.45V.07H.02Z"/>
    <path class="cls-2" d="M123.04,325.4C76.66,214.05,34.46,106.22,0,0v308.34c14.77,7.08,31.79,11.79,50.35,13.76,8.92.95,34.28,2.24,72.69,3.3M123.04,325.4c13.97,33.53,28.31,67.38,42.93,101.6,34.04,79.65,74.57,101.8,147.88,100.12,393.39-9.19,975.56-219.79,1286.15-345.97v-17.19C1161.99,329.59,370.73,332.26,123.04,325.4"/>
  </g>
</svg>