<?xml version="1.0" encoding="utf-8"?>
<!-- Generator: Adobe Illustrator 28.3.0, SVG Export Plug-In . SVG Version: 6.00 Build 0)  -->
<svg version="1.1" id="Ebene_1" xmlns="http://www.w3.org/2000/svg" xmlns:xlink="http://www.w3.org/1999/xlink" x="0px" y="0px"
	 viewBox="0 0 800 593" style="enable-background:new 0 0 800 593;" xml:space="preserve">
<style type="text/css">
	.st0{fill:#EAD5A1;}
	.st1{fill:#EBD5A2;}
	.st2{fill:#1D1D1B;}
</style>
<path class="st0" d="M714.4,409.3c0,22-0.2,44.1,0.1,66.1c0.1,9.2-3.2,16-10.6,21.5c-13.4,9.9-26.4,20.2-39.5,30.5
	c-16.3,12.8-32.5,25.9-48.7,38.8c-2.9,2.3-5.8,4.5-9.7,4.8c-4.3,0.3-7.6-1.8-10.8-4.2c-11.6-8.5-22.4-17.9-32.1-28.4
	c-9.3-10.1-17.5-21.1-24.6-32.8c-8.6-14.2-15.2-29.3-20.2-45.1c-3.5-11-6-22.2-7.9-33.6c-1.6-10.2-3.1-20.4-3.2-30.8
	c-0.1-6.4,2.9-11,8.5-13.9c17.9-9.3,36.5-17.2,55.4-24.1c20.6-7.6,41.6-13.8,63-18.9c15.3-3.7,30.6-6.9,46.1-9.3
	c6.6-1,13.2-2.1,19.8-3.2c7.5-1.2,14.4,4.5,14.4,12.2C714.4,362.5,714.4,385.9,714.4,409.3L714.4,409.3L714.4,409.3z"/>
<path d="M406.3,422.7c0.2,0.1,0.4,0.2,0.6,0.3c1.5,0.8,1.9,2.7,0.9,4c-0.2,0.2-0.3,0.4-0.5,0.6c-6.9,7-13.9,13.9-20.8,20.9
	c-0.1,0.1-0.3,0.2-0.6,0.5c0.3,0.1,0.5,0.2,0.6,0.4c7,7,13.9,14,20.9,21c1.1,1.1,1.3,2.3,0.6,3.4c-0.8,1.4-2.7,1.8-3.9,0.7
	c-0.2-0.1-0.4-0.3-0.5-0.5c-7.6-7.6-15.2-15.3-22.9-22.9c-1.4-1.4-1.4-2.9,0-4.3c7.5-7.5,15-15,22.5-22.6c0.6-0.6,1.2-1.2,2-1.4
	L406.3,422.7L406.3,422.7z"/>
<path d="M584.7,268.6c0.1-0.2,0.2-0.4,0.3-0.6c0.8-1.5,2.7-1.9,4-0.9c0.2,0.2,0.4,0.3,0.6,0.5c7,6.9,13.9,13.9,20.8,20.8
	c0.1,0.1,0.2,0.3,0.5,0.6c0.2-0.3,0.2-0.5,0.3-0.6c7-7,14-13.9,21-20.9c1.1-1.1,2.3-1.3,3.4-0.6c1.4,0.8,1.8,2.7,0.7,3.9
	c-0.2,0.2-0.3,0.4-0.5,0.5c-7.6,7.6-15.3,15.2-22.9,22.9c-1.4,1.4-2.9,1.4-4.3,0c-7.5-7.5-15-15-22.6-22.5c-0.6-0.6-1.2-1.2-1.4-2
	L584.7,268.6L584.7,268.6z"/>
<g>
	<path class="st1" d="M152.7,567.7c7.8,5.5,13.1,5.3,20.6-0.6c32.4-25.4,65.2-50.3,98.2-74.9c6.9-5.2,9.4-10.9,9.4-20.2v-0.2v-133
		v-0.1c0-7.7-6.3-12.4-14.7-12.5c-8.4-0.1-130.7,7.8-191.6,37.5c-8.2,4-11.5,8.8-10.7,19.6C69.6,460.4,78,521.8,152.7,567.7"/>
	<g>
		<path d="M253.5,462h-12.4c0,0,0.1-18.5,0-19.9c-0.4-3-2.4-4.1-5.1-4.8c-0.2-0.1-0.6,0-0.8,0.2c-1.2,0.9-2.4,1.8-3.6,2.7
			c-0.2,0.1-0.3,0.4-0.3,0.7c0,5,0.1,21.1,0.1,21.1h-12.4v-43.7c2-0.3,8-1.2,9-1.4c0.3,0,0.6,0,0.8,0.1c0.7,0.3,1.3,0.7,2,0.9
			c0.4,0.2,0.6,0.4,0.5,0.9c0,7.1,0,14.8,0,14.8c1.1-1,5.6-4.9,6.9-6c0.2-0.1,0.4-0.3,0.6-0.3c4.8,0.4,9.1,1.9,12.1,5.7
			c1.8,2.2,2.6,4.8,2.7,7.6c0.1,4.6,0,10.9,0,13.9S253.4,462,253.5,462L253.5,462z"/>
		<path d="M211.1,452.9c0.9,1.2,2.1,2.8,3,4c-0.3,0.3-0.6,0.6-0.9,0.9c-4.9,4.3-10.7,6.1-17.3,4.9c-5.7-1-10-4-12.6-9.1
			c-1.9-3.6-2.3-7.4-1.8-11.4c0.5-3.6,1.9-6.7,4.5-9.3c2.7-2.7,6-4.3,9.8-5c4.9-1,9.6-0.4,14.1,1.6c0.9,0.4,1.8,1,2.7,1.4
			c0.3,0.1,0.4,0.4,0.3,0.7c-0.3,2.8-0.7,5.6-1,8.4c-0.1,0.5-0.2,0.5-0.6,0.5c-1,0-1.9,0-2.9,0c-0.4,0-0.6-0.1-0.7-0.5
			c-0.6-1.6-1.2-3.1-1.7-4.8c-0.2-0.6-0.6-1-1.1-1.3c-1.3-0.7-3.2-1.1-4.9-1.3c-1.5-0.2-2.3,0.4-3.1,1.5c-1.3,1.9-2,4-2.3,6.1
			c-0.4,2.6-0.6,5.3,0,7.9c0.7,2.9,1.6,5,4.2,6.8c2.1,1.5,2.9,1.4,4.5,1S208.5,454.3,211.1,452.9L211.1,452.9z"/>
		<path d="M117.4,438.6c0.9-0.7,1.8-1.4,2.8-2.1c0.3-0.3,0.6-0.3,1-0.1c4,2.1,6.1,5.3,6.6,9.6c0.3,2.8,0,5.7-1,8.4
			c-0.4,1.1-1,2.1-1.9,3c-0.3,0.3-0.7,0.5-1.2,0.4c-1.8-0.4-5.7-1.1-5.8-1.2c-0.6-0.1-0.8-0.5-0.8-1.1c0-2.6,0-5.3,0-7.9
			s0-5.4,0-8.1C116.9,439.2,117,438.9,117.4,438.6 M116.4,418.1c-0.7-0.3-1.3-0.6-2-0.9c-0.3-0.1-0.6-0.2-0.9-0.1
			c-1,0.1-6.9,1-8.9,1.3v43.8c0.5,0,12.2,0.5,17.5,0.8c1.9,0.1,3.9-0.1,5.8-0.6c4.9-1.3,8.4-4.1,10.3-8.8c1.5-3.7,1.8-7.5,1.2-11.4
			c-0.5-3.9-2-7.3-4.9-10c-2.8-2.8-6.2-4.4-10.2-4.6c-0.4,0-0.9,0.1-1.3,0.4c-2.2,1.5-6.1,4.4-6.1,4.4s0-10.3,0-13.4
			C117,418.4,116.8,418.2,116.4,418.1"/>
		<path d="M164.1,451.8c-1,0.7-4.4,3.2-4.8,3.5c-0.3,0.2-0.5,0.2-0.9,0c-2.4-1.6-4-4-4.2-7.1c0-0.4,0.1-0.6,0.4-0.8
			c0.6-0.3,2-0.9,2.6-1.1c2-0.8,4.1-1.2,6.3-1.5c0.3,0,0.6-0.1,0.9-0.1c0,0.2,0,4.4,0,6.3C164.5,451.4,164.4,451.6,164.1,451.8
			 M176.9,462.1c0,0-0.1-15.2-0.1-19.2c0-1.9-0.2-3.7-0.7-5.6c-1.4-4.8-4.7-7.9-9.6-9.1c-3.6-0.9-7.3-0.9-10.9-0.2
			c-1.2,0.2-3.4,0.8-4.5,1.2c-1.6,0.5-3,1.2-4.4,2.2c-0.3,0.2-0.4,0.4-0.4,0.8c0.3,2.1,0.6,4.3,0.9,6.4c0.1,0.3,0.2,0.4,0.5,0.4
			c1.1,0,2.3,0,3.4,0c0.4,0,0.6-0.1,0.7-0.4c1-1.8,2-3.8,3-5.6c0.2-0.4,0.5-0.5,0.9-0.5c0.3,0,0.6-0.1,1.6,0
			c1.2,0.1,2.3,0.5,3.3,1.1c1.9,1.3,2.9,3.2,3.3,5.4c0.1,0.8,0.1,1,0.1,1s-8.3,1.4-12.2,2.4c-2.4,0.7-5.1,1.4-7.4,3
			c-1.6,1.1-0.9,6.3-0.8,6.9c1.5,6.7,7,11.1,15.1,10.9c0.3,0,0.6-0.1,0.8-0.3c1.6-1.5,5.9-5.3,5.9-5.3s0.9,2.6,1.3,4.1
			c0.1,0.4,0.3,0.5,0.8,0.5C170.7,462,173.8,462.1,176.9,462.1"/>
	</g>
	<g>
		<path d="M211.2,402.2c-0.5,0.9-1.1,1.8-1.9,2.4c-0.3,0.2-0.6,0.3-1,0.2c-2.3-0.5-4.3-1.7-6.1-3.2c-0.2-0.1-0.2-0.4-0.2-0.7
			c0-2.3,0-4.7,0-7s0-4.6,0-7c0-0.4,0.1-0.7,0.5-1c1.2-0.9,2.3-1.8,3.4-2.8c0.4-0.3,0.6-0.3,1-0.1c1.9,0.8,3.2,2.3,4.2,4.1
			c0.3,0.6,0.6,1.2,0.8,1.9c0.8,2.3,1,4.7,0.8,7.2c-0.1,1.5-0.3,3-0.8,4.5C211.7,401.3,211.5,401.8,211.2,402.2 M202,409.4
			c1.3,0.2,2.5,0.5,3.8,0.5c1.6,0.1,3.3,0.3,4.9,0.1c4.3-0.6,7.8-2.6,10.6-5.9c2.7-3.1,3.9-6.8,4.1-10.9c0.2-3.8-0.6-7.4-2.7-10.6
			c-2.1-3.1-4.9-5.3-8.4-6.8c-1.8-0.8-3.4-1.2-5.4-1.2c-0.4,0-0.9,0.2-1.2,0.4c-2.2,1.7-6.8,5.1-6.8,5.1s-1-3.2-1.6-5
			c-0.2-0.8-0.2-0.7-1-0.6c-2.8,0.4-5.6,0.7-8.5,1.1c0,0,0,43.3,0,43.5c0,0.4,0.2,0.4,0.4,0.5c0.1,0,1.7,0.4,2.6,0.6
			c0.3,0.1,0.8,0.1,1.1-0.1c0.2-0.1,8.1-2.9,8.1-2.9L202,409.4L202,409.4z"/>
		<path d="M165.2,372.5c0,0.4,0.1,0.6,0.6,0.8c1.1,0.3,2.2,0.7,3.3,1c0.4,0.1,0.5,0.3,0.5,0.7c0,1.5,0,36.6,0,36.6h12.2
			c0,0,0-43.1,0-43.4c0-0.3-0.1-0.5-0.4-0.6c-0.7-0.3-1.4-0.7-2.1-1c-0.2-0.1-0.6-0.1-0.8-0.1c-1.2,0.2-9.7,1.5-12.7,1.9
			c-0.4,0.1-0.6,0.2-0.6,0.7C165.2,370.2,165.2,371.3,165.2,372.5"/>
	</g>
	<path class="st2" d="M149,401.3c-1,0.7-4.4,3.2-4.8,3.5c-0.3,0.2-0.5,0.2-0.9,0c-2.4-1.6-4-4-4.2-7.1c0-0.4,0.1-0.6,0.4-0.8
		c0.6-0.3,2-0.9,2.6-1.1c2-0.8,4.1-1.2,6.3-1.5c0.3,0,0.6-0.1,0.9-0.1c0,0.2,0,4.4,0,6.3C149.4,400.9,149.3,401.1,149,401.3
		 M161.8,411.6c0,0-0.1-15.2-0.1-19.2c0-1.9-0.2-3.7-0.7-5.6c-1.4-4.8-4.7-7.9-9.6-9.1c-3.6-0.9-7.3-0.9-10.9-0.2
		c-1.2,0.2-3.4,0.8-4.5,1.2c-1.6,0.5-3,1.2-4.4,2.2c-0.3,0.2-0.4,0.4-0.4,0.8c0.3,2.1,0.6,4.3,0.9,6.4c0.1,0.3,0.2,0.4,0.5,0.4
		c1.1,0,2.3,0,3.4,0c0.4,0,0.6-0.1,0.7-0.4c1-1.8,2-3.8,3-5.6c0.2-0.4,0.5-0.5,0.9-0.5c0.3,0,0.6-0.1,1.6,0c1.2,0.1,2.3,0.5,3.3,1.1
		c1.9,1.3,2.9,3.2,3.3,5.4c0.1,0.8,0.1,1,0.1,1s-8.3,1.4-12.2,2.4c-2.4,0.7-5.1,1.4-7.4,3c-1.6,1.1-0.9,6.3-0.8,6.9
		c1.5,6.7,7,11.1,15.1,10.9c0.3,0,0.6-0.1,0.8-0.3c1.6-1.5,5.9-5.3,5.9-5.3s0.9,2.6,1.3,4.1c0.1,0.4,0.3,0.5,0.8,0.5
		C155.6,411.6,158.7,411.6,161.8,411.6"/>
	<g>
		<g>
			<path d="M152.9,509.9l2.8,3.8c-3.1,2.2-6.6,3.1-10.7,2.8c-2.2-0.2-4.3-0.5-6.3-1.6c-2.4-1.3-3.8-3.3-4.6-5.8c-1-3-1-6.1-1-9.3
				c0-3.6,0-8.4,0-12c0-0.4-0.1-0.7-0.6-0.9c-1.1-0.5-2.2-1-3.3-1.5c-0.4-0.2-0.5-0.4-0.5-0.8c0-1.2,0-2.3,0-3.5
				c0-0.4,0.1-0.6,0.5-0.7c1.4-0.4,2.9-0.7,4.4-1.1c0.4-0.1,0.6-0.3,0.8-0.6c2.3-3.3,3.1-4.5,5.5-8.1c0.3-0.4,0.5-0.5,1-0.5
				c1.1,0,2.8,0,3.9,0c0.5,0,0.6,0.1,0.6,0.6c0,3.9-0.1,5.3-0.1,9.2c0,0.5,0.1,0.7,0.7,0.7c3.4,0,7.8,0,7.8,0l0,5.5
				c0,0-6.8,0.4-8,0.5c-0.3,0-0.4,0.1-0.4,0.4c0,0,0,0.1,0,0.2c0,4.7,0,10.5,0.1,15.2c0,1.8,0.2,3.5,0.8,5.2c0.6,1.6,1.7,3,3.5,3.2
				C150.7,511,152.1,510.3,152.9,509.9L152.9,509.9z"/>
			<path d="M192.1,476.3c0,0.4,0.1,0.6,0.6,0.8c1.1,0.3,2.2,0.7,3.3,1c0.4,0.1,0.5,0.3,0.5,0.7c0,1.5,0,36.6,0,36.6h12.2
				c0,0,0-43.1,0-43.4c0-0.3-0.1-0.5-0.4-0.6c-0.7-0.3-1.4-0.7-2.1-1c-0.2-0.1-0.6-0.1-0.8-0.1c-1.2,0.2-9.7,1.5-12.7,1.9
				c-0.4,0.1-0.6,0.2-0.6,0.7C192.1,474,192.1,475.1,192.1,476.3"/>
		</g>
		<path d="M176.7,505.1c-1,0.7-4.4,3.2-4.8,3.5c-0.3,0.2-0.5,0.2-0.9,0c-2.4-1.6-4-4-4.2-7.1c0-0.4,0.1-0.6,0.4-0.8
			c0.6-0.3,2-0.9,2.6-1.1c2-0.8,4.1-1.2,6.3-1.5c0.3,0,0.6-0.1,0.9-0.1c0,0.2,0,4.4,0,6.3C177.1,504.7,177,504.9,176.7,505.1
			 M189.5,515.4c0,0-0.1-15.2-0.1-19.2c0-1.9-0.2-3.7-0.7-5.6c-1.4-4.8-4.7-7.9-9.6-9.1c-3.6-0.9-7.3-0.9-10.9-0.2
			c-1.2,0.2-3.4,0.8-4.5,1.2c-1.6,0.5-3,1.2-4.4,2.2c-0.3,0.2-0.4,0.4-0.4,0.8c0.3,2.1,0.6,4.3,0.9,6.4c0.1,0.3,0.2,0.4,0.5,0.4
			c1.1,0,2.3,0,3.4,0c0.4,0,0.6-0.1,0.7-0.4c1-1.8,2-3.8,3-5.6c0.2-0.4,0.5-0.5,0.9-0.5c0.3,0,0.6-0.1,1.6,0
			c1.2,0.1,2.3,0.5,3.3,1.1c1.9,1.3,2.9,3.2,3.3,5.4c0.1,0.8,0.1,1,0.1,1s-8.3,1.4-12.2,2.4c-2.4,0.7-5.1,1.4-7.4,3
			c-1.6,1.1-0.9,6.3-0.8,6.9c1.5,6.7,7,11.1,15.1,10.9c0.3,0,0.6-0.1,0.8-0.3c1.6-1.5,5.9-5.3,5.9-5.3s0.9,2.6,1.3,4.1
			c0.1,0.4,0.3,0.5,0.8,0.5C183.4,515.4,186.4,515.4,189.5,515.4"/>
	</g>
</g>
<g>
	<path d="M370.9,135.2c-0.2-0.1-0.4-0.2-0.6-0.3c-1.5-0.8-1.9-2.7-0.9-4c0.2-0.2,0.3-0.4,0.5-0.6c6.9-6.9,13.9-13.9,20.8-20.8
		c0.1-0.1,0.3-0.2,0.6-0.5c-0.3-0.2-0.5-0.2-0.6-0.3c-7-7-13.9-14-20.9-20.9c-1.1-1.1-1.3-2.3-0.6-3.4c0.8-1.4,2.7-1.8,3.9-0.7
		c0.2,0.2,0.4,0.3,0.5,0.5c7.6,7.6,15.2,15.3,22.9,22.9c1.4,1.4,1.4,2.9,0,4.3c-7.5,7.5-15,15.1-22.5,22.6c-0.6,0.6-1.2,1.2-2,1.4
		L370.9,135.2L370.9,135.2z"/>
</g>
<g>
	<path class="st0" d="M658.5,152.6l-8.1-58.9c0,0-60,6.3-72,8.8s-30,37.9-28.6,41.6s15.1,26.3,21.5,27.1s23.4,0,28.6,0
		s15.7,1.6,21.4-2.4s31.5-21.8,31.5-21.8L658.5,152.6L658.5,152.6z"/>
	<path d="M632.5,145.1c-5.5,3.9-24.1,17.4-26.2,18.9c-1.7,1.3-3,1.3-4.8,0.1c-13.3-8.8-21.7-22-23-38.9c-0.2-2.3,0.6-3.3,2.5-4.3
		c3.5-1.8,10.7-4.7,14-5.9c11.1-4.1,22.6-6.6,34.3-8.3c1.7-0.2,3.3-0.4,5.2-0.7c0.1,1.2,0.1,24.1,0.2,34.5
		C634.6,142.7,634.1,144,632.5,145.1 M702,201c0,0-0.5-82.9-0.5-104.5c0-10.3-0.9-20.4-3.9-30.3c-7.9-26.2-25.5-42.8-52.6-49.8
		c-19.7-5.1-39.6-4.8-59.4-1.2c-6.4,1.2-18.4,4.4-24.4,6.5c-8.5,2.9-16.5,6.8-24.2,11.8c-1.8,1.2-2.3,2.3-2,4.4
		c1.8,11.6,3.5,23.3,5.1,35c0.3,1.8,1.2,2,2.7,2c6.2,0,12.4-0.1,18.6,0c2,0,3.1-0.6,4.1-2.3c5.5-9.7,10.9-20.8,16.4-30.5
		c1.2-2.1,2.7-2.7,5-2.9c1.5-0.1,3.4-0.5,8.9-0.1c6.5,0.4,12.6,2.4,18,6.2c10.4,7.1,15.5,17.4,17.8,29.2c0.8,4.1,0.6,5.6,0.6,5.6
		s-45.4,7.5-66.3,13.3c-12.9,3.6-28,7.7-40.6,16.2c-8.9,6.1-4.9,34.2-4.1,37.7c7.9,36.4,38.3,60.7,82.4,59.2
		c1.5-0.1,3.4-0.7,4.5-1.7c8.8-8,32.2-28.6,32.2-28.6s4.7,14.1,7.1,22.2c0.7,2.3,1.8,3,4.2,3C668.5,200.9,685.2,201,702,201"/>
</g>
<g>
	<g>
		<path d="M246.7,129.6h-12.4c0,0,0.1-18.5,0-19.9c-0.4-3-2.4-4.1-5.1-4.8c-0.2-0.1-0.6,0-0.8,0.2c-1.2,0.9-2.4,1.8-3.6,2.7
			c-0.2,0.1-0.3,0.4-0.3,0.7c0,5,0.1,21.2,0.1,21.2H212V85.9c2-0.3,8-1.2,9-1.4c0.3,0,0.6,0,0.8,0.1c0.7,0.3,1.3,0.7,2,0.9
			c0.4,0.2,0.6,0.4,0.5,0.9c0,7.1,0,14.8,0,14.8c1.1-1,5.6-4.9,6.9-6c0.2-0.1,0.4-0.3,0.6-0.3c4.8,0.4,9.1,1.9,12.1,5.7
			c1.8,2.2,2.6,4.8,2.7,7.6c0.1,4.6,0,10.9,0,13.9S246.7,129.5,246.7,129.6L246.7,129.6z"/>
		<path d="M204.3,120.4c0.9,1.2,2.1,2.8,3,4c-0.3,0.3-0.6,0.6-0.9,0.9c-4.9,4.3-10.7,6.1-17.3,4.9c-5.7-1-10-4-12.6-9.1
			c-1.9-3.6-2.3-7.4-1.8-11.4c0.5-3.6,1.9-6.7,4.5-9.3c2.7-2.7,6-4.3,9.8-5c4.9-0.9,9.6-0.4,14.1,1.6c0.9,0.4,1.8,1,2.7,1.4
			c0.3,0.2,0.4,0.3,0.3,0.7c-0.3,2.8-0.7,5.6-1,8.4c-0.1,0.4-0.2,0.5-0.6,0.5c-1,0-1.9,0-2.9,0c-0.4,0-0.6-0.1-0.7-0.5
			c-0.6-1.6-1.2-3.2-1.7-4.8c-0.2-0.6-0.6-1-1.1-1.3c-1.3-0.7-3.2-1.1-4.9-1.3c-1.5-0.2-2.3,0.4-3.1,1.5c-1.3,1.9-2,3.9-2.3,6.2
			c-0.4,2.6-0.6,5.3,0,7.9c0.7,2.9,1.6,5.1,4.2,6.8c2.1,1.5,2.9,1.3,4.5,1S201.8,121.8,204.3,120.4L204.3,120.4z"/>
		<path d="M110.6,106.2c0.9-0.7,1.8-1.4,2.8-2.1c0.3-0.3,0.6-0.3,1-0.1c4,2.1,6.1,5.3,6.6,9.6c0.3,2.8,0,5.7-1,8.4
			c-0.4,1.1-1,2.1-1.9,3c-0.3,0.3-0.7,0.5-1.2,0.4c-1.8-0.4-5.7-1.1-5.8-1.2c-0.6-0.1-0.8-0.5-0.8-1.1c0-2.6,0-5.3,0-7.9
			s0-5.4,0-8.1C110.2,106.7,110.3,106.4,110.6,106.2 M109.7,85.6c-0.7-0.3-1.3-0.7-2-0.9c-0.3-0.1-0.6-0.2-0.9-0.1
			c-1,0.1-6.9,1-8.9,1.3v43.8c0.5,0,12.2,0.6,17.5,0.8c1.9,0.1,3.9-0.1,5.8-0.6c4.9-1.3,8.4-4.2,10.3-8.8c1.5-3.7,1.8-7.5,1.2-11.4
			c-0.5-3.8-2-7.3-4.9-10.1c-2.8-2.8-6.2-4.4-10.2-4.6c-0.4,0-0.9,0.1-1.3,0.4c-2.2,1.4-6.1,4.4-6.1,4.4s0-10.3,0-13.4
			C110.2,86,110.1,85.8,109.7,85.6"/>
		<path d="M157.3,119.3c-1,0.7-4.4,3.2-4.8,3.5c-0.3,0.2-0.5,0.2-0.9,0c-2.4-1.6-4-4-4.2-7.1c0-0.4,0.1-0.6,0.4-0.8
			c0.6-0.3,2-0.9,2.6-1.1c2-0.8,4.1-1.2,6.3-1.5c0.3,0,0.6-0.1,0.9-0.1c0,0.2,0,4.4,0,6.3C157.7,118.9,157.6,119.1,157.3,119.3
			 M170.1,129.6c0,0-0.1-15.2-0.1-19.2c0-1.9-0.2-3.7-0.7-5.6c-1.4-4.8-4.7-7.8-9.6-9.2c-3.6-0.9-7.3-0.9-10.9-0.2
			c-1.2,0.2-3.4,0.8-4.5,1.2c-1.6,0.5-3,1.2-4.4,2.2c-0.3,0.2-0.4,0.4-0.4,0.8c0.3,2.1,0.6,4.3,0.9,6.4c0.1,0.3,0.2,0.4,0.5,0.4
			c1.1,0,2.3,0,3.4,0c0.4,0,0.6-0.1,0.7-0.4c1-1.8,2-3.8,3-5.6c0.2-0.4,0.5-0.5,0.9-0.5c0.3,0,0.6-0.1,1.6,0
			c1.2,0.1,2.3,0.4,3.3,1.1c1.9,1.3,2.9,3.2,3.3,5.4c0.1,0.8,0.1,1,0.1,1s-8.3,1.4-12.2,2.4c-2.4,0.7-5.1,1.4-7.4,3
			c-1.6,1.1-0.9,6.3-0.8,6.9c1.5,6.7,7,11.1,15.1,10.9c0.3,0,0.6-0.1,0.8-0.3c1.6-1.5,5.9-5.3,5.9-5.3s0.9,2.6,1.3,4.1
			c0.1,0.4,0.3,0.6,0.8,0.6C163.9,129.6,167,129.6,170.1,129.6"/>
	</g>
	<g>
		<path d="M204.5,69.7c-0.5,0.9-1.1,1.8-1.9,2.4c-0.3,0.2-0.6,0.3-1,0.2c-2.3-0.6-4.3-1.7-6.1-3.2c-0.2-0.1-0.2-0.4-0.2-0.7
			c0-2.3,0-4.7,0-7s0-4.7,0-7c0-0.4,0.1-0.7,0.5-1c1.2-0.9,2.3-1.8,3.4-2.8c0.4-0.3,0.6-0.3,1-0.1c1.9,0.8,3.2,2.3,4.2,4.1
			c0.3,0.6,0.6,1.2,0.8,1.8c0.8,2.3,1,4.7,0.8,7.2c-0.1,1.5-0.3,3.1-0.8,4.5C204.9,68.8,204.7,69.3,204.5,69.7 M195.2,76.9
			c1.3,0.2,2.5,0.4,3.8,0.5c1.6,0.1,3.3,0.3,4.9,0.1c4.3-0.6,7.8-2.7,10.6-5.8c2.7-3.1,3.9-6.8,4.1-10.9c0.2-3.8-0.6-7.3-2.7-10.6
			c-2.1-3.1-4.9-5.3-8.4-6.8c-1.8-0.8-3.4-1.2-5.4-1.2c-0.4,0-0.9,0.2-1.2,0.4c-2.2,1.7-6.8,5.1-6.8,5.1s-1-3.2-1.6-5
			c-0.2-0.8-0.2-0.7-1-0.6c-2.8,0.4-5.6,0.7-8.5,1.1c0,0,0,43.3,0,43.5c0,0.3,0.2,0.4,0.4,0.5c0.1,0,1.7,0.3,2.6,0.6
			c0.3,0.1,0.8,0.1,1.1-0.1c0.2-0.1,8.1-2.9,8.1-2.9L195.2,76.9L195.2,76.9z"/>
		<path d="M158.4,40c0,0.4,0.1,0.6,0.6,0.8c1.1,0.3,2.2,0.7,3.3,1c0.4,0.1,0.5,0.3,0.5,0.7c0,1.5,0,36.6,0,36.6H175
			c0,0,0-43.1,0-43.4c0-0.3-0.1-0.5-0.4-0.6c-0.7-0.3-1.4-0.7-2.1-1c-0.2-0.1-0.6-0.2-0.8-0.1c-1.2,0.2-9.7,1.5-12.7,1.9
			c-0.4,0.1-0.6,0.2-0.6,0.7C158.4,37.7,158.4,38.8,158.4,40"/>
	</g>
	<path d="M142.3,68.8c-1,0.7-4.4,3.2-4.8,3.5c-0.3,0.2-0.5,0.2-0.9,0c-2.4-1.6-4-4-4.2-7.1c0-0.4,0.1-0.6,0.4-0.8
		c0.6-0.3,2-0.9,2.6-1.1c2-0.8,4.1-1.2,6.3-1.5c0.3,0,0.6-0.1,0.9-0.1c0,0.2,0,4.4,0,6.3C142.6,68.4,142.5,68.6,142.3,68.8
		 M155,79.1c0,0-0.1-15.2-0.1-19.2c0-1.9-0.2-3.7-0.7-5.6c-1.4-4.8-4.7-7.8-9.6-9.1c-3.6-0.9-7.3-0.9-10.9-0.2
		c-1.2,0.2-3.4,0.8-4.5,1.2c-1.6,0.5-3,1.2-4.4,2.2c-0.3,0.2-0.4,0.4-0.4,0.8c0.3,2.1,0.6,4.3,0.9,6.4c0.1,0.3,0.2,0.4,0.5,0.4
		c1.1,0,2.3,0,3.4,0c0.4,0,0.6-0.1,0.7-0.4c1-1.8,2-3.8,3-5.6c0.2-0.4,0.5-0.5,0.9-0.5c0.3,0,0.6-0.1,1.6,0c1.2,0.1,2.3,0.5,3.3,1.1
		c1.9,1.3,2.9,3.2,3.3,5.4c0.1,0.8,0.1,1,0.1,1s-8.3,1.4-12.2,2.4c-2.4,0.7-5.1,1.4-7.4,3c-1.6,1.1-0.9,6.3-0.8,6.9
		c1.5,6.7,7,11.1,15.1,10.9c0.3,0,0.6-0.1,0.8-0.3c1.6-1.5,5.9-5.3,5.9-5.3s0.9,2.6,1.3,4.1c0.1,0.4,0.3,0.6,0.8,0.6
		C148.9,79.1,152,79.1,155,79.1"/>
	<g>
		<g>
			<path d="M146.1,177.4l2.8,3.8c-3.1,2.1-6.6,3.1-10.7,2.8c-2.2-0.2-4.3-0.6-6.3-1.6c-2.4-1.3-3.8-3.3-4.6-5.8c-1-3-1-6.1-1-9.3
				c0-3.6,0-8.4,0-12c0-0.4-0.1-0.7-0.6-0.9c-1.1-0.5-2.2-1-3.3-1.5c-0.4-0.2-0.5-0.4-0.5-0.8c0-1.2,0-2.3,0-3.5
				c0-0.4,0.1-0.6,0.5-0.7c1.4-0.4,2.9-0.7,4.4-1.1c0.4-0.1,0.6-0.3,0.8-0.6c2.3-3.3,3.1-4.5,5.5-8.1c0.3-0.4,0.5-0.5,1-0.5
				c1.1,0,2.8,0,3.9,0c0.5,0,0.6,0.1,0.6,0.6c0,3.9-0.1,5.3-0.1,9.2c0,0.5,0.1,0.7,0.7,0.7c3.4,0,7.8,0,7.8,0l0,5.5
				c0,0-6.8,0.4-8,0.5c-0.3,0-0.4,0.1-0.4,0.4c0,0.1,0,0.1,0,0.2c0,4.7,0,10.5,0.1,15.2c0,1.8,0.2,3.5,0.8,5.2
				c0.6,1.6,1.7,3,3.5,3.2C144,178.5,145.4,177.8,146.1,177.4L146.1,177.4z"/>
			<path d="M185.3,143.8c0,0.4,0.1,0.6,0.6,0.8c1.1,0.3,2.2,0.7,3.3,1c0.4,0.1,0.5,0.3,0.5,0.7c0,1.5,0,36.6,0,36.6h12.2
				c0,0,0-43.1,0-43.4c0-0.3-0.1-0.5-0.4-0.6c-0.7-0.3-1.4-0.7-2.1-1c-0.2-0.1-0.6-0.1-0.8-0.1c-1.2,0.2-9.7,1.5-12.7,1.9
				c-0.4,0.1-0.6,0.2-0.6,0.7C185.3,141.5,185.3,142.6,185.3,143.8"/>
		</g>
		<path d="M170,172.7c-1,0.7-4.4,3.2-4.8,3.5c-0.3,0.2-0.5,0.2-0.9,0c-2.4-1.6-4-4-4.2-7.1c0-0.4,0.1-0.6,0.4-0.8
			c0.6-0.3,2-0.9,2.6-1.1c2-0.8,4.1-1.2,6.3-1.5c0.3,0,0.6-0.1,0.9-0.1c0,0.2,0,4.4,0,6.3C170.3,172.2,170.2,172.5,170,172.7
			 M182.7,182.9c0,0-0.1-15.2-0.1-19.2c0-1.9-0.2-3.7-0.7-5.6c-1.4-4.8-4.7-7.9-9.6-9.1c-3.6-0.9-7.3-0.9-10.9-0.2
			c-1.2,0.2-3.4,0.8-4.5,1.2c-1.6,0.5-3,1.2-4.4,2.2c-0.3,0.2-0.4,0.4-0.4,0.8c0.3,2.1,0.6,4.3,0.9,6.4c0.1,0.3,0.2,0.4,0.5,0.4
			c1.1,0,2.3,0,3.4,0c0.4,0,0.6-0.1,0.7-0.4c1-1.8,2-3.8,3-5.6c0.2-0.4,0.5-0.5,0.9-0.5c0.3,0,0.6-0.1,1.6,0
			c1.2,0.1,2.3,0.4,3.3,1.1c1.9,1.3,2.9,3.2,3.3,5.4c0.1,0.8,0.1,1,0.1,1s-8.3,1.4-12.2,2.4c-2.4,0.7-5.1,1.4-7.4,3
			c-1.6,1.1-0.9,6.3-0.8,6.9c1.5,6.7,7,11.1,15.1,10.9c0.3,0,0.6-0.1,0.8-0.3c1.6-1.5,5.9-5.3,5.9-5.3s0.9,2.6,1.3,4.1
			c0.1,0.4,0.3,0.6,0.8,0.6C176.6,182.9,179.7,182.9,182.7,182.9"/>
	</g>
</g>
</svg>
