<?xml version="1.0" encoding="UTF-8"?>
<svg id="Ebene_1" xmlns="http://www.w3.org/2000/svg" version="1.1" viewBox="0 0 1557.33 849.06">
  <!-- Generator: Adobe Illustrator 30.3.0, SVG Export Plug-In . SVG Version: 2.1.3 Build 182)  -->
  <defs>
    <style>
      .st0 {
        fill: #ead5a1;
      }

      .st1 {
        isolation: isolate;
      }

      .st2 {
        fill: #181716;
      }
    </style>
  </defs>
  <g class="st1">
    <g class="st1">
      <path class="st2" d="M0,656.2h36.48v189.64H0v-189.64ZM37.28,746.33v-4.29l70.81-85.83h46.67l-77.52,88.25,82.08,101.39h-46.94l-75.11-99.51Z"/>
      <path class="st2" d="M285.67,810.7l-26.56-34.87c-3.76.54-8.85.8-13.14.8h-18.51v69.2h-36.75v-189.64h69.2c40.24,0,68.67,18.78,68.67,59.55,0,21.46-10.19,40.77-32.46,51.5l23.34,28.97c11.27,13.68,23.87,20.39,40.5,24.68l-8.05,28.16c-27.09-1.34-47.75-15.29-66.25-38.36ZM247.58,749.81c27.9,0,43.19-10.46,43.19-32.72s-10.73-31.92-36.75-31.92h-26.56v64.64h20.12Z"/>
      <path class="st2" d="M445.53,656.2h47.48l65.72,189.64h-38.09l-20.92-61.43h-68.13l-23.34,61.43h-36.75l74.03-189.64ZM490.86,757.33l-23.07-77.79-26.02,77.79h49.09Z"/>
      <path class="st2" d="M591.44,656.2h46.67l56.33,159.33,64.11-159.33h44.79v189.64h-36.75v-95.22l1.07-38.89-52.31,134.12h-43.72l-46.14-136,2.41,40.77v95.22h-36.48v-189.64Z"/>
      <path class="st2" d="M843.04,836.19l10.73-27.09c15.83,6.17,28.43,9.12,48.01,9.12,22.26,0,38.09-6.97,38.09-23.6,0-37.02-91.2-27.63-91.2-91.2,0-34.33,31.38-49.89,63.57-49.89,26.82,0,40.77,5.63,54.18,11.53l-10.46,26.02c-12.88-4.02-24.14-7.78-42.65-7.78-19.58,0-28.97,7.51-28.97,19.58,0,31.92,92.27,29.77,92.27,90.13,0,39.7-35.94,55.79-74.3,55.79-29.77,0-46.4-5.63-59.28-12.61Z"/>
      <path class="st2" d="M1071.3,656.2h47.48l65.72,189.64h-38.09l-20.92-61.43h-68.13l-23.34,61.43h-36.75l74.03-189.64ZM1116.63,757.33l-23.07-77.79-26.02,77.79h49.09Z"/>
      <path class="st2" d="M1197.63,752.23c0-63.57,35.14-98.71,101.39-98.71,30.58,0,46.94,6.17,57.4,10.73l-9.66,27.36c-14.22-4.02-24.14-7.24-47.21-7.51-36.21-.27-64.38,19.85-64.38,65.45s29.51,68.4,69.74,68.4c18.24,0,31.38-2.41,44.26-6.17l8.05,28.16c-14.22,5.1-30.04,8.85-57.13,8.85-66.79,0-102.47-36.48-102.47-96.56Z"/>
      <path class="st2" d="M1394.78,656.2h36.48v80.2h89.59v-80.2h36.48v189.64h-36.48v-81.01h-89.59v81.01h-36.48v-189.64Z"/>
    </g>
  </g>
  <g>
    <path class="st0" d="M733.67,518.61c16.74,11.76,28.24,11.3,44.27-1.23,69.68-54.57,140.04-108.05,210.81-160.78,14.89-11.09,20.21-23.45,20.06-43.31V26.87c-.05-16.5-13.58-26.61-31.56-26.87-17.98-.26-280.68,16.82-411.28,80.62-17.71,8.66-24.64,18.96-22.92,42.18,12.27,165.54,30.22,297.32,190.63,395.81"/>
    <g>
      <path class="st2" d="M950.02,291.86h-26.61s.31-39.77-.06-42.72c-.81-6.38-5.07-8.84-11.03-10.26-.53-.13-1.29.03-1.73.34-2.65,1.88-5.25,3.81-7.81,5.79-.39.3-.7.95-.7,1.44-.04,10.8.14,45.41.14,45.41h-26.61v-93.79c4.24-.64,17.09-2.64,19.28-2.91.59-.07,1.26.05,1.81.28,1.42.61,2.76,1.41,4.2,1.99.95.38,1.17.93,1.17,1.86-.03,15.23-.02,31.78-.02,31.78,2.37-2.06,11.98-10.44,14.73-12.8.36-.3.91-.61,1.34-.58,10.26.93,19.45,4.09,26.07,12.23,3.87,4.76,5.63,10.35,5.73,16.32.18,9.95.09,23.43.09,29.87s.01,15.75.01,15.75h0Z"/>
      <path class="st2" d="M858.97,272.27c1.88,2.51,4.61,6.05,6.51,8.6-.66.65-1.27,1.34-1.97,1.94-10.62,9.24-22.89,13.09-37.08,10.51-12.31-2.23-21.52-8.58-27.15-19.49-3.97-7.71-5.02-15.93-3.79-24.43,1.11-7.65,4.18-14.42,9.73-20.05,5.78-5.86,12.96-9.19,21.08-10.76,10.47-2.03,20.61-.93,30.33,3.34,2,.88,3.85,2.05,5.77,3.08.59.31.77.75.69,1.43-.74,6.04-1.47,12.08-2.11,18.12-.1.97-.48,1.12-1.34,1.11-2.08-.04-4.16-.05-6.24,0-.82.02-1.19-.25-1.46-1-1.2-3.4-2.54-6.77-3.67-10.19-.44-1.34-1.24-2.21-2.43-2.84-2.79-1.48-6.87-2.3-10.52-2.87-3.17-.5-4.97.88-6.55,3.13-2.82,4-4.2,8.49-4.92,13.21-.86,5.66-1.32,11.33.06,16.97,1.54,6.3,3.39,10.83,8.98,14.7,4.55,3.14,6.31,2.9,9.65,2.09,3.35-.81,11.01-3.61,16.42-6.6h0Z"/>
      <path class="st2" d="M657.85,241.65c2-1.48,3.97-3,5.9-4.58.73-.6,1.31-.61,2.13-.18,8.5,4.42,13.16,11.36,14.09,20.56.61,6.1.01,12.15-2.2,17.96-.91,2.39-2.18,4.57-4.02,6.4-.74.74-1.52,1.13-2.66.9-3.91-.78-12.26-2.43-12.53-2.49-1.3-.29-1.68-1.02-1.66-2.33.09-5.66.04-11.32.04-16.97s.02-11.54-.02-17.31c0-.85.21-1.43.93-1.96M655.87,197.44c-1.43-.6-2.78-1.39-4.2-1.99-.58-.24-1.29-.36-1.92-.29-2.14.26-14.87,2.24-19.13,2.89v94.05c1.07.04,26.09,1.19,37.56,1.67,4.17.18,8.3-.32,12.34-1.39,10.51-2.79,18.06-8.91,22.07-18.81,3.19-7.9,3.79-16.11,2.65-24.46-1.12-8.26-4.38-15.59-10.46-21.59-5.99-5.91-13.22-9.39-21.86-9.88-.9-.05-1.96.3-2.87.92-4.64,3.11-13.11,9.39-13.11,9.39,0,0-.02-22.02.02-28.84,0-.86-.27-1.32-1.09-1.66"/>
      <path class="st2" d="M758.14,269.95c-2.17,1.52-9.49,6.85-10.31,7.46-.68.5-1.17.52-1.88.05-5.25-3.47-8.55-8.68-9.08-15.32-.07-.93.24-1.31.98-1.69,1.37-.72,4.22-1.86,5.5-2.33,4.38-1.61,8.89-2.62,13.5-3.25.65-.09,1.29-.17,2.05-.26.03.48.06,9.49.09,13.6,0,.8-.21,1.29-.85,1.74M785.55,291.98s-.18-32.65-.18-41.17c0-4.04-.37-8.04-1.54-11.94-3.1-10.31-10.04-16.86-20.71-19.64-7.75-2.02-15.59-1.89-23.41-.47-2.53.46-7.24,1.74-9.63,2.56-3.34,1.15-6.52,2.67-9.52,4.64-.69.46-.9.92-.77,1.73.71,4.59,1.38,9.19,2.02,13.79.1.7.49.78,1.07.77,2.43-.01,4.87-.03,7.31.02.78.01,1.21-.23,1.6-.9,2.18-3.83,4.31-8.2,6.47-12.04.47-.84,1.05-1.07,1.98-1.14.58-.04,1.33-.18,3.49-.05,2.58.15,4.95.96,7.1,2.43,4.11,2.81,6.12,6.86,7,11.5.31,1.62.23,2.19.23,2.19,0,0-17.91,2.97-26.13,5.24-5.09,1.41-11.04,3.02-15.99,6.4-3.51,2.4-1.92,13.49-1.62,14.85,3.13,14.34,15.11,23.92,32.48,23.31.59-.02,1.33-.28,1.76-.68,3.48-3.14,12.69-11.28,12.69-11.28,0,0,1.84,5.55,2.8,8.75.28.91.7,1.18,1.67,1.17,6.61-.03,13.22-.02,19.83-.02"/>
    </g>
    <g>
      <path class="st2" d="M859.39,163.42c-1,2-2.27,3.8-4.13,5.19-.68.51-1.34.67-2.21.46-4.97-1.17-9.25-3.56-13.04-6.81-.35-.29-.53-.93-.53-1.42-.04-5.03-.02-10.06-.02-15.1s.02-9.98-.03-14.98c0-.91.3-1.49,1.02-2.05,2.49-1.94,4.97-3.91,7.36-5.95.75-.63,1.34-.6,2.14-.26,4.14,1.8,6.88,4.96,8.94,8.73.71,1.31,1.29,2.63,1.78,3.98,1.8,4.92,2.22,10.09,1.81,15.4-.25,3.3-.72,6.54-1.78,9.65-.36,1.07-.79,2.12-1.31,3.15M839.5,178.89c2.78.41,5.41.96,8.06,1.16,3.54.26,7.15.69,10.63.25,9.23-1.2,16.72-5.7,22.67-12.55,5.84-6.72,8.45-14.66,8.83-23.33.36-8.12-1.28-15.79-5.87-22.72-4.43-6.7-10.58-11.43-18.04-14.59-3.86-1.64-7.25-2.61-11.51-2.68-.84,0-1.9.41-2.58.94-4.63,3.64-14.56,11.04-14.56,11.04,0,0-2.12-6.88-3.38-10.79-.52-1.61-.5-1.58-2.22-1.36-6.1.79-12.07,1.54-18.16,2.32,0,0,.02,93.02.02,93.31,0,.75.43.92.89,1.02.27.06,3.57.76,5.59,1.2.74.16,1.61.13,2.29-.13.45-.17,17.48-6.25,17.48-6.25l-.12-16.84h-.02Z"/>
      <path class="st2" d="M760.55,99.59c-.03.92.22,1.36,1.19,1.64,2.37.68,4.69,1.53,7.06,2.23.84.25,1.08.65,1.08,1.49,0,3.17.03,78.61.03,78.61h26.26s.02-92.62,0-93.11c-.02-.69-.22-1.05-.85-1.34-1.52-.68-2.99-1.48-4.52-2.14-.54-.23-1.23-.32-1.81-.24-2.69.36-20.84,3.18-27.23,4.11-.97.14-1.22.52-1.19,1.42.06,2.44.06,4.88,0,7.32"/>
    </g>
    <path class="st2" d="M725.83,161.54c-2.17,1.52-9.49,6.85-10.31,7.46-.68.5-1.17.52-1.88.05-5.25-3.47-8.55-8.68-9.08-15.32-.07-.93.24-1.31.98-1.69,1.37-.72,4.22-1.86,5.5-2.33,4.38-1.61,8.89-2.62,13.5-3.25.65-.09,1.29-.17,2.05-.26.03.48.06,9.49.09,13.6,0,.8-.21,1.29-.85,1.74M753.24,183.56s-.18-32.65-.18-41.17c0-4.04-.37-8.04-1.54-11.94-3.1-10.31-10.04-16.86-20.71-19.64-7.75-2.02-15.59-1.89-23.41-.47-2.53.46-7.24,1.74-9.63,2.56-3.34,1.15-6.52,2.67-9.52,4.64-.69.46-.9.92-.77,1.73.71,4.59,1.38,9.19,2.02,13.79.1.7.49.78,1.07.77,2.43,0,4.87-.03,7.31.02.78,0,1.21-.23,1.6-.9,2.18-3.83,4.31-8.2,6.47-12.04.47-.84,1.05-1.07,1.98-1.14.58-.04,1.33-.18,3.49-.05,2.58.15,4.95.96,7.1,2.43,4.11,2.81,6.12,6.86,7,11.5.31,1.62.23,2.19.23,2.19,0,0-17.91,2.97-26.13,5.24-5.09,1.41-11.04,3.02-15.99,6.4-3.51,2.4-1.92,13.49-1.62,14.85,3.13,14.34,15.11,23.92,32.48,23.31.59-.02,1.33-.28,1.76-.68,3.48-3.14,12.69-11.28,12.69-11.28,0,0,1.84,5.55,2.8,8.75.28.91.7,1.18,1.67,1.17,6.61-.03,13.22-.02,19.83-.02"/>
    <g>
      <g>
        <path class="st2" d="M734.14,394.51l6.01,8.19c-6.55,4.61-14.12,6.71-22.89,5.9-4.69-.43-9.28-1.17-13.46-3.42-5.11-2.74-8.18-7.02-9.86-12.34-2.06-6.5-2.19-13.2-2.22-19.9-.04-7.75-.03-17.96.01-25.7,0-.94-.26-1.45-1.18-1.84-2.39-1-4.69-2.06-7.08-3.15-.84-.38-1.07-.83-1.07-1.67.02-2.48.03-4.91,0-7.44-.01-.83.21-1.23,1.1-1.45,3.12-.78,6.18-1.58,9.38-2.38.79-.2,1.24-.6,1.7-1.27,4.92-7.15,6.69-9.75,11.78-17.33.56-.83,1.04-1.13,2.06-1.13h8.48c1.01,0,1.29.27,1.29,1.22-.03,8.37-.11,11.42-.16,19.79,0,1.1.29,1.45,1.46,1.44,7.28-.05,16.76-.03,16.76-.03l-.04,11.88s-14.56.91-17.23,1.06c-.65.04-.97.26-.92.91.01.12,0,.23,0,.35.05,10.07.06,22.6.17,32.67.04,3.76.4,7.51,1.7,11.1,1.27,3.48,3.56,6.51,7.43,6.78,2.17.15,5.14-1.36,6.77-2.24h0Z"/>
        <path class="st2" d="M818.18,322.41c-.03.92.22,1.36,1.19,1.64,2.37.68,4.69,1.53,7.06,2.23.84.25,1.08.65,1.08,1.49,0,3.17.03,78.61.03,78.61h26.26s.02-92.62,0-93.11c-.02-.69-.22-1.05-.85-1.34-1.52-.68-2.99-1.48-4.52-2.14-.54-.23-1.23-.32-1.81-.24-2.69.36-20.84,3.18-27.23,4.11-.97.14-1.22.52-1.19,1.42.06,2.44.06,4.88,0,7.32"/>
      </g>
      <path class="st2" d="M785.31,384.42c-2.17,1.52-9.49,6.85-10.31,7.46-.68.5-1.17.52-1.88.05-5.25-3.47-8.55-8.68-9.08-15.32-.07-.93.24-1.31.98-1.69,1.37-.72,4.22-1.86,5.5-2.33,4.38-1.61,8.89-2.62,13.5-3.25.65-.09,1.29-.17,2.05-.26.03.48.06,9.49.09,13.6,0,.8-.21,1.29-.85,1.74M812.72,406.44s-.18-32.65-.18-41.17c0-4.04-.37-8.04-1.54-11.94-3.1-10.31-10.04-16.86-20.71-19.64-7.75-2.02-15.59-1.89-23.41-.47-2.53.46-7.24,1.74-9.63,2.56-3.34,1.15-6.52,2.67-9.52,4.64-.69.46-.9.92-.77,1.73.71,4.59,1.38,9.19,2.02,13.79.1.7.49.78,1.07.77,2.43-.01,4.87-.03,7.31.02.78.01,1.21-.23,1.6-.9,2.18-3.83,4.31-8.2,6.47-12.04.47-.84,1.05-1.07,1.98-1.14.58-.04,1.33-.18,3.49-.05,2.58.15,4.95.96,7.1,2.43,4.11,2.81,6.12,6.86,7,11.5.31,1.62.23,2.19.23,2.19,0,0-17.91,2.97-26.13,5.24-5.09,1.41-11.04,3.02-15.99,6.4-3.51,2.4-1.92,13.49-1.62,14.85,3.13,14.34,15.11,23.92,32.48,23.31.59-.02,1.33-.28,1.76-.68,3.48-3.14,12.69-11.28,12.69-11.28,0,0,1.84,5.55,2.8,8.75.28.91.7,1.18,1.67,1.17,6.61-.03,13.22-.02,19.83-.02"/>
    </g>
  </g>
</svg>