<?xml version="1.0" encoding="UTF-8"?>
<svg id="uuid-14351b02-f480-4abe-a990-bb92aa3a7584" data-name="Ebene 1" xmlns="http://www.w3.org/2000/svg" xmlns:xlink="http://www.w3.org/1999/xlink" viewBox="0 0 800 368.41">
  <defs>
    <style>
      .uuid-88a03ea8-646c-4be5-befc-f88f8731caf6 {
        clip-path: url(#uuid-549434eb-28cd-4ad1-b74e-78441801e22b);
      }

      .uuid-eace9035-572c-4a1b-a186-078a8005cd71 {
        fill: none;
      }

      .uuid-eace9035-572c-4a1b-a186-078a8005cd71, .uuid-bf6e01e8-79b0-4a98-8609-f859dbbb3f4b, .uuid-7c8eab92-65fd-48a0-bf4c-dd822a1cd77d {
        stroke-width: 0px;
      }

      .uuid-a9ea16b9-4143-479c-a87d-3c8804e6f2c5 {
        clip-path: url(#uuid-4fb84288-0f1a-49b5-b907-ec8fe8ad880e);
      }

      .uuid-9594e68c-e204-4259-9467-dec37af7ac26 {
        clip-path: url(#uuid-e024fe08-cb7c-43aa-b8d6-2bb8e935d7e6);
      }

      .uuid-34aa8c98-7254-4040-851b-43b786d11347 {
        clip-path: url(#uuid-51dd0763-8e55-4876-b3ac-fb9f39a5c6f9);
      }

      .uuid-cb5c7cf7-0cab-417c-ba45-ccb987774125 {
        clip-path: url(#uuid-6c63a250-1e38-4017-a67d-4e239887378a);
      }

      .uuid-b6d4dd1d-e09f-48eb-b786-19e3b84a5aa3 {
        clip-path: url(#uuid-f5eed270-a5d7-4949-a2fd-48b025a66176);
      }

      .uuid-bf6e01e8-79b0-4a98-8609-f859dbbb3f4b {
        fill: #275c79;
      }

      .uuid-7c8eab92-65fd-48a0-bf4c-dd822a1cd77d {
        fill: #6a98bf;
      }
    </style>
    <clipPath id="uuid-f5eed270-a5d7-4949-a2fd-48b025a66176">
      <rect class="uuid-eace9035-572c-4a1b-a186-078a8005cd71" x=".23" width="799.77" height="368.41"/>
    </clipPath>
    <clipPath id="uuid-e024fe08-cb7c-43aa-b8d6-2bb8e935d7e6">
      <rect class="uuid-eace9035-572c-4a1b-a186-078a8005cd71" x=".23" width="799.77" height="368.41"/>
    </clipPath>
    <clipPath id="uuid-4fb84288-0f1a-49b5-b907-ec8fe8ad880e">
      <rect class="uuid-eace9035-572c-4a1b-a186-078a8005cd71" x=".23" width="799.77" height="368.41"/>
    </clipPath>
    <clipPath id="uuid-51dd0763-8e55-4876-b3ac-fb9f39a5c6f9">
      <rect class="uuid-eace9035-572c-4a1b-a186-078a8005cd71" x=".23" width="799.77" height="368.41"/>
    </clipPath>
    <clipPath id="uuid-6c63a250-1e38-4017-a67d-4e239887378a">
      <rect class="uuid-eace9035-572c-4a1b-a186-078a8005cd71" x=".23" width="799.77" height="368.41"/>
    </clipPath>
    <clipPath id="uuid-549434eb-28cd-4ad1-b74e-78441801e22b">
      <rect class="uuid-eace9035-572c-4a1b-a186-078a8005cd71" x=".23" width="799.77" height="368.41"/>
    </clipPath>
  </defs>
  <g class="uuid-b6d4dd1d-e09f-48eb-b786-19e3b84a5aa3">
    <path class="uuid-7c8eab92-65fd-48a0-bf4c-dd822a1cd77d" d="M517.52,316.45c0-2.26,1.43-5.41,17.59-5.41,14.21,0,15.86,2.48,15.86,4.89,0,3.83-7.74,6.92-18.87,9.32l-2.71-1.13c-8.04-3.38-11.88-5.26-11.88-7.67M518.12,334.04c7.14,3.76,17.74,8.65,25.94,11.8-5.41,1.28-10,1.73-15.19,1.73-12.93,0-19.77-2.78-19.77-7.59,0-2.93,3.01-4.89,9.02-5.94M567.74,315.55c0-8.42-7.37-14.89-31.88-14.89-28.27,0-39.25,6.92-39.25,15.94,0,4.96,3.01,8.72,9.77,11.05-10.9,2.11-16.24,6.17-16.24,13.61,0,10.07,10.15,16.47,38.72,16.47,8.12,0,21.8-1.65,31.28-5.34,5.04,2.56,12.33,4.59,18.65,4.59,3.61,0,6.32-.15,8.95-.6l-.98-12.18c-3.23.3-9.85-.53-13.08-1.5,7.74-3.68,12.26-8.42,13.08-13.83h-19.47c-1.81,3.46-3.91,6.02-6.99,8.8-3.91-1.5-10.45-4.51-15.34-6.77,15.19-3.23,22.78-8.35,22.78-15.34M389.1,350.66c0-4.59-2.78-7.22-9.1-7.22s-9.17,2.63-9.17,7.22,2.71,7.07,9.17,7.07,9.1-2.63,9.1-7.07M371.43,326v15.34h17.07v-4.96c25.64-1.43,31.28-9.32,31.28-18.42,0-12.93-10-17.14-36.09-17.14-28.72,0-37.44,6.92-38.72,18.72l16.39,2.26c.53-5.34,1.5-8.65,21.58-8.65,18.35,0,19.92,1.81,19.92,5.49,0,6.17-11.13,6.92-31.43,7.37"/>
    <path class="uuid-7c8eab92-65fd-48a0-bf4c-dd822a1cd77d" d="M634.51,248.01l-19.1-1.2c-21.2-1.35-23.23-3.01-23.23-5.79s1.88-4.36,23.23-4.36,23.83,2.33,23.83,5.26c0,2.56-1.35,4.14-4.74,6.09M596.84,258.09l21.13,1.13c18.57.98,21.28,1.65,21.28,5.49s-2.33,6.02-24.44,6.02c-24.13,0-25.86-2.93-25.86-6.02s3.01-4.59,7.89-6.62M647.37,251.77c4.81-2.71,7.67-5.71,7.67-11.58,0-8.65-6.32-14.44-38.65-14.44s-41.43,6.84-41.43,16.17c0,5.19,2.56,9.02,9.02,11.13-7.44,2.63-11.28,6.54-11.28,12.71,0,9.92,5.94,16.32,41.43,16.32s42.71-7.52,42.71-18.05c0-6.39-3.84-10.68-9.47-12.25M475.04,281.25h22.71l50.38-42.93v-11.58h-81.2v12.93h58.8l-50.68,41.58ZM178.2,262.98l-16.02,3.61c1.88,11.65,9.92,14.89,39.25,14.89,30.98,0,39.55-6.99,39.55-17.44,0-7.37-3.83-10.38-11.13-12.33v-.38c5.49-2.03,9.77-6.09,9.77-11.65,0-9.85-6.54-14.66-36.32-14.66s-38.65,7.07-40.75,18.35l15.71,3.01c.68-3.91,1.73-9.47,24.36-9.47,17.44,0,20,1.58,20,4.66,0,3.83-2.48,5.49-17.97,5.49h-13.31v12.18h15.19c15.26,0,16.84.9,16.84,4.89,0,3.76-2.48,5.49-21.58,5.49-21.73,0-22.78-2.18-23.61-6.62M100.68,225.01c-31.43,0-40,10.07-41.05,21.58l15.87,2.26c.53-4.81,1.35-11.95,25.19-11.95,15.19,0,17.97,2.93,17.97,7.37s-2.63,6.69-12.33,9.7l-44.96,13.99v13.23h76.17v-13.23h-44.51v-.45l19.47-4.36c17.37-3.91,24.21-9.47,24.21-20.15,0-9.47-5.94-17.97-36.01-17.97"/>
    <path class="uuid-7c8eab92-65fd-48a0-bf4c-dd822a1cd77d" d="M746.92,193.03l52.18-29.55v-11.65h-81.43v12.93h51.81l-52.26,29.93v11.58h82.78v-13.23h-53.08ZM331.96,195.29c-20,0-24.59-5.19-24.59-18.35v-25.11h-17.07v27.14c0,21.58,11.5,28.95,41.2,28.95,27.07,0,41.5-6.84,41.5-28.5v-27.59h-16.92v25.41c0,13.68-4.81,18.05-24.13,18.05M152.94,161.75c23.31,0,24.96,1.88,24.96,6.92l15.56-1.65c-.45-13.99-10.9-16.92-40-16.92-31.65,0-41.43,6.69-41.43,18.35,0,10.9,7.52,15.94,24.96,16.54l32.26,1.13c7.37.23,8.72,1.73,8.72,4.44,0,3.31-2.56,5.49-24.89,5.49-26.39,0-26.92-4.21-27.52-8.95l-15.41,1.96c.53,16.47,14.21,18.87,42.48,18.87,30.83,0,41.73-6.62,41.73-19.77,0-11.05-8.35-15.56-25.11-16.02l-28.42-.83c-9.55-.3-12.41-1.2-12.41-4.36s2.11-5.19,24.51-5.19M4.74,206.26h16.99v-19.25h26.01l16.92,19.25h20.75l-17.9-19.92c12.86-2.56,16.24-11.88,16.24-18.72,0-8.5-4.96-15.79-19.47-15.79H4.74v54.44ZM58.73,175.28H21.74v-11.35h38.04c4.44,0,6.47,1.88,6.47,5.26,0,5.11-3.99,6.09-7.52,6.09"/>
    <path class="uuid-7c8eab92-65fd-48a0-bf4c-dd822a1cd77d" d="M672.79,103.29h-39.17v-14.36h40c2.48,0,6.39.53,6.39,6.77s-3.16,7.59-7.22,7.59M633.61,131.26v-16.09h41.28c15.11,0,21.8-7.59,21.8-20.83,0-8.65-4.21-17.52-18.12-17.52h-61.95v54.44h16.99ZM539.48,120.66c-25.56,0-31.13-2.78-31.13-16.54s5.71-16.54,31.5-16.54,31.2,3.23,31.2,16.54-6.02,16.54-31.58,16.54M538.88,133.29c42.26,0,49.1-10.83,49.1-30.3,0-16.99-5.49-28.27-47.74-28.27s-48.8,12.25-48.8,29.92,5.71,28.65,47.44,28.65M236.32,118.03v-41.2h-16.32v54.44h75.34v-13.23h-59.02ZM131.51,98.33v-21.5h-17.07v54.44h16.99v-19.17h23.38l16.99,19.17h20.9l-27.29-30.45,28.95-23.99h-22.71l-25.26,21.5h-14.89Z"/>
    <path class="uuid-7c8eab92-65fd-48a0-bf4c-dd822a1cd77d" d="M794.81,56.17V1.73h-17.07v20.75h-48.72V1.73h-17.07v54.44h17.07v-20.23h48.72v20.23h17.07ZM670.75,50.15l1.58,6.02h12.48v-28.5h-33.76v10.53h17.44v.45c0,4.21-5.34,7.22-27.44,7.22-24.74,0-28.12-7.14-28.12-17.29s4.74-15.94,28.27-15.94c25.87,0,26.17,5.49,26.84,9.25l15.87-1.43C682.94,6.09,672.03,0,641.43,0,605.94,0,595.94,11.73,595.94,30s10.68,27.82,45.11,27.82c11.35,0,23.53-2.63,29.7-7.67M506.24,56.17v-19.77h54.81v-12.33h-54.81v-9.4h63.38V1.73h-80.45v54.44h17.07ZM396.09,42.93v-7.37h54.74v-12.41h-54.74v-8.5h63.31V1.73h-80.38v54.44h82.26v-13.23h-65.19ZM319.4,43.68h-36.39V14.06h37.52c8.72,0,13.31,3.53,13.31,13.99,0,9.77-3.53,15.64-14.44,15.64M266.7,56.17h54.21c19.47,0,29.47-11.58,29.47-28.27s-9.02-26.16-27.89-26.16h-55.79v54.44ZM138.35,23.31h-39.78v-10.3h41.05c2.78,0,6.84,0,6.84,4.81s-3.31,5.49-8.12,5.49M140.23,45.04h-41.65v-10.75h42.41c3.38,0,6.47.23,6.47,5.26,0,4.44-2.48,5.49-7.22,5.49M81.51,56.17h63.16c11.8,0,20.9-4.06,20.9-15.19,0-7.52-3.83-12.18-12.26-13.08v-.22c4.96-1.65,9.62-5.64,9.62-12.63,0-7.44-3.83-13.31-16.69-13.31h-64.74v54.44Z"/>
    <path class="uuid-bf6e01e8-79b0-4a98-8609-f859dbbb3f4b" d="M216.77,57.07c10.07,0,22.11-4.66,23.53-18.5l-14.44-2.26c-.83,4.06-2.18,8.12-8.42,8.12-6.92,0-10.07-4.36-10.07-15.71s3.61-15.34,10-15.34c5.11,0,8.04,2.33,8.2,9.62l14.74-1.43c-.38-14.66-9.7-20.83-22.63-20.83-18.65,0-27.22,12.26-27.22,28.57,0,17.37,7.44,27.75,26.32,27.75M27.68,16.77l4.81,16.54h-10l4.74-16.54h.45ZM37.45,1.73h-19.77L.23,56.17h16.99l3.01-10.6h15.41l3.61,10.6h17.74L37.45,1.73Z"/>
    <path class="uuid-bf6e01e8-79b0-4a98-8609-f859dbbb3f4b" d="M744.51,112.09l6.99,7.67c-.68.23-1.95.38-2.71.38-6.69,0-10.08-4.14-10.08-16.02,0-11.2,3.53-15.41,10.45-15.41,6.39,0,10.45,4.21,10.45,15.64,0,2.63-.15,5.86-.68,8.42l-1.65-3.53-4.44-5.19-8.35,8.05ZM748.2,132.16c4.96,0,8.87-.9,12.41-2.33l6.24,6.32,8.8-7.82-5.94-5.86c3.53-4.81,5.64-11.13,5.64-19.02,0-15.11-6.99-27.59-25.79-27.59s-27.67,12.48-27.67,28.65,7.22,27.67,26.32,27.67M444.52,131.26h18.27v-54.44h-14.59v32.48l-15.11-32.48h-18.65v54.44h14.74v-31.88l15.34,31.88ZM384.97,131.26v-54.44h-23.99l-6.84,33.76h-.6l-6.99-33.76h-24.06v54.44h14.81v-38.87h.6l8.5,38.87h13.68l9.25-38.72h.53v38.72h15.11ZM68.95,76.83v38.57c0,2.71-.45,4.51-2.78,4.51-3.08,0-3.23-2.93-3.46-7.29l-15.71,2.26c.45,14.14,9.17,17.29,19.02,17.29,12.26,0,19.25-6.84,19.25-17.52v-37.82h-16.32ZM21.06,76.83H4.74v54.44h16.32v-54.44Z"/>
  </g>
  <path class="uuid-bf6e01e8-79b0-4a98-8609-f859dbbb3f4b" d="M678.5,206.26l-.08-19.85,17.74-34.59h-16.39l-8.95,20.38h-.6l-9.4-20.38h-17.74l19.02,34.59v19.85h16.39ZM607.52,179.12l16.84-27.29h-16.69l-8.72,15.49-8.72-15.49h-18.05l16.39,27.14-17.22,27.29h17.44l8.27-14.29,8.72,14.29h18.95l-17.22-27.14ZM518.12,206.26h20.83l11.8-54.44h-16.47l-5.19,37.82h-.6l-7.97-37.82h-17.07l-7.44,37.97h-.45l-6.09-37.97h-16.92l11.43,54.44h21.95l5.71-30.9h.45l6.02,30.9ZM413.54,206.26h21.88l16.47-54.44h-16.62l-9.92,38.72h-.68l-9.47-38.72h-18.5l16.84,54.44ZM233.54,206.26h16.32v-41.5h15.41v-12.93h-47.37v12.93h15.64v41.5Z"/>
  <g class="uuid-9594e68c-e204-4259-9467-dec37af7ac26">
    <path class="uuid-bf6e01e8-79b0-4a98-8609-f859dbbb3f4b" d="M708.87,248.24c-1.58.9-3.16,1.2-4.14,1.2-3.16,0-4.36-2.26-4.36-6.24,0-3.08.6-6.09,3.99-6.09,3.68,0,4.29,3.68,4.51,11.13M697.89,264.03l-13.83,4.14c1.88,10.68,9.62,13.91,18.57,13.91,18.87,0,22.26-16.92,22.26-29.17,0-15.71-4.51-27.14-19.62-27.14-10.75,0-20.98,5.19-20.98,18.5,0,11.81,7.59,15.71,15.26,15.71,4.36,0,7.67-.83,10.23-2.56,0,9.02-2.78,13.16-6.54,13.16s-4.81-2.93-5.34-6.54M417.07,259.89c1.28-.9,3.16-1.43,4.36-1.43,3.08,0,4.21,1.95,4.21,6.17,0,2.86-.53,6.02-3.91,6.02-3.68,0-4.66-4.66-4.66-10.75M427.67,242.6l13.76-3.46c-2.33-10.9-9.25-13.38-17.29-13.38-18.35,0-22.93,16.02-22.93,29.17,0,15.71,4.29,27.14,20.23,27.14,10.75,0,20.15-5.19,20.15-18.87,0-11.5-7.37-15.64-15.04-15.64-4.29,0-7.52,1.13-10.07,2.86.15-10.9,3.01-13.53,6.54-13.53,2.93,0,4.36,1.5,4.66,5.71M340.08,226.74l-1.96,30.23,10.15,3.99c1.35-1.5,3.61-3.16,6.24-3.16,1.73,0,4.51.3,4.51,5.79,0,4.29-2.18,6.77-5.49,6.77s-5.34-1.73-5.64-6.02l-13.46,2.56c1.35,11.65,9.62,15.19,18.87,15.19,11.5,0,21.13-6.54,21.13-19.1,0-11.05-5.41-16.62-13.98-16.62-4.81,0-7.89,1.58-10.15,3.61l1.13-10.3h19.93v-12.93h-31.28ZM289.55,257.94h-10.53l10.53-17.82v17.82ZM289.55,281.17h15.34v-10.98h5.79v-12.25h-5.79v-31.2h-19.47l-19.47,32.63v10.83h23.61v10.98ZM14.67,243.58v37.59h15.94v-54.44h-11.65c-3.76,3.83-10,5.71-16.32,6.24l.53,12.63c2.48,0,9.1-.83,11.5-2.03"/>
    <path class="uuid-bf6e01e8-79b0-4a98-8609-f859dbbb3f4b" d="M462.63,350.66c0-4.59-2.78-7.22-8.35-7.22s-8.42,2.63-8.42,7.22,2.63,7.07,8.42,7.07,8.35-2.63,8.35-7.07M447.37,341.34h13.91l1.58-38.95h-16.99l1.5,38.95ZM308.42,302.47h-16.77c5.19,8.42,11.05,18.57,11.05,32.93,0,15.11-5.64,24.66-11.65,33.01h16.39c7.37-9.85,12.33-19.92,12.33-33.38s-5.71-25.04-11.35-32.56M251.88,368.33h16.77c-5.19-8.42-11.05-18.57-11.05-32.93,0-15.11,5.64-24.66,11.65-33.01h-16.39c-7.37,9.85-12.33,19.92-12.33,33.38s5.71,25.04,11.35,32.56M179.18,363.74h14.51l21.05-63.68h-14.44l-21.13,63.68ZM128.5,320.89c-1.43,0-2.41-1.13-2.41-6.09s1.13-5.49,2.33-5.49c1.43,0,2.33.98,2.33,5.49,0,5.04-.98,6.09-2.26,6.09M162.26,349.91c-1.43,0-2.41-1.13-2.41-6.09s1.13-5.49,2.33-5.49c1.43,0,2.33.98,2.33,5.49,0,5.04-.98,6.09-2.26,6.09M161.89,357.73c9.25,0,13.76-5.49,13.76-14.21,0-8.12-3.68-13.08-13.16-13.08s-13.91,5.34-13.91,14.06c0,7.44,3.23,13.23,13.31,13.23M121.74,357.65h13.61l32.86-55.26h-13.61l-32.86,55.26ZM128.05,328.71c9.32,0,13.84-5.49,13.84-14.21,0-8.12-3.68-13.08-13.23-13.08s-13.83,5.34-13.83,14.06c0,7.44,3.23,13.23,13.23,13.23M74.52,341.26h37.59v-10.9h-37.59v10.9ZM70.76,326.68c0-5.34-2.86-8.2-8.8-8.2s-8.95,2.86-8.95,8.2,2.78,8.04,8.95,8.04,8.8-2.86,8.8-8.04M70.76,349.68c0-5.34-2.86-8.2-8.8-8.2s-8.95,2.86-8.95,8.2,2.78,8.04,8.95,8.04,8.8-2.86,8.8-8.04M47,349.68c0-5.34-2.86-8.2-8.8-8.2s-8.95,2.86-8.95,8.2,2.78,8.04,8.95,8.04,8.8-2.86,8.8-8.04M23.99,326.68c0-5.34-2.86-8.2-8.8-8.2s-8.95,2.86-8.95,8.2,2.78,8.04,8.95,8.04,8.8-2.86,8.8-8.04M6.55,345.02l-5.26,21.58,12.93,1.05,8.42-22.63H6.55Z"/>
    <path class="uuid-bf6e01e8-79b0-4a98-8609-f859dbbb3f4b" d="M98.56,23.27h-.75v-10.3h2.03c2.78,0,6.84,0,6.84,4.81s-3.31,5.49-8.12,5.49M100.44,45h-2.63v-10.75h3.38c3.38,0,6.47.23,6.47,5.26,0,4.44-2.48,5.49-7.22,5.49M81.49,56.13h22.63c11.8,0,20.9-4.06,20.9-15.19,0-7.52-3.83-12.18-12.25-13.08v-.22c4.96-1.65,9.62-5.64,9.62-12.63,0-7.44-3.83-13.31-16.69-13.31h-24.21v54.44Z"/>
    <path class="uuid-bf6e01e8-79b0-4a98-8609-f859dbbb3f4b" d="M285.32,43.65h-2.78V14.02h3.91c8.72,0,11.73,3.53,11.73,14.36,0,9.4-1.96,15.26-12.86,15.26M266.23,56.13h20.23c19.47,0,28.27-11.35,28.27-28.05s-8.12-26.39-26.99-26.39h-21.5v54.44Z"/>
  </g>
  <polygon class="uuid-bf6e01e8-79b0-4a98-8609-f859dbbb3f4b" points="394.97 42.89 394.97 35.53 412.56 35.53 412.56 23.12 394.97 23.12 394.97 14.62 415.87 14.62 415.87 1.69 378.65 1.69 378.65 56.13 417.75 56.13 417.75 42.89 394.97 42.89"/>
  <polygon class="uuid-bf6e01e8-79b0-4a98-8609-f859dbbb3f4b" points="505.59 56.13 505.59 36.35 522.13 36.35 522.13 24.02 505.59 24.02 505.59 14.62 526.19 14.62 526.19 1.69 489.27 1.69 489.27 56.13 505.59 56.13"/>
  <g class="uuid-a9ea16b9-4143-479c-a87d-3c8804e6f2c5">
    <path class="uuid-bf6e01e8-79b0-4a98-8609-f859dbbb3f4b" d="M671.48,50.15l1.58,6.02h11.73v-28.5h-21.65v10.53h5.34v.45c0,4.21-2.78,6.09-7.74,6.09-8.87,0-10-6.77-10-16.17s2.48-15.19,10.15-15.19c7.14,0,7.67,5.41,7.89,8.5l15.11-1.43c-.98-14.36-10.38-19.7-22.78-19.7-18.87,0-27.37,12.48-27.37,29.25,0,15.64,6.62,27.07,22.93,27.07,5.79,0,12.1-1.88,14.81-6.92"/>
  </g>
  <polygon class="uuid-bf6e01e8-79b0-4a98-8609-f859dbbb3f4b" points="759.39 56.13 759.39 1.69 743.07 1.69 743.07 22.44 727.89 22.44 727.89 1.69 711.57 1.69 711.57 56.13 727.89 56.13 727.89 35.9 743.07 35.9 743.07 56.13 759.39 56.13"/>
  <polygon class="uuid-bf6e01e8-79b0-4a98-8609-f859dbbb3f4b" points="130.47 97.92 130.47 76.94 114.23 76.94 114.23 131.38 130.47 131.38 130.47 116.34 134.98 111.3 144.46 131.38 163.41 131.38 146.71 98.9 165.06 76.94 148.22 76.94 130.47 97.92"/>
  <polygon class="uuid-bf6e01e8-79b0-4a98-8609-f859dbbb3f4b" points="236.03 118.15 236.03 76.94 219.72 76.94 219.72 131.38 258.21 131.38 258.21 118.15 236.03 118.15"/>
  <g class="uuid-34aa8c98-7254-4040-851b-43b786d11347">
    <path class="uuid-bf6e01e8-79b0-4a98-8609-f859dbbb3f4b" d="M518.2,119.69c-6.69,0-10.08-3.53-10.08-15.41,0-11.2,3.53-15.41,10.45-15.41,6.39,0,9.47,3.99,9.47,15.41,0,12.03-3.98,15.41-9.85,15.41M517.6,132.32c18.8,0,27.14-11.13,27.14-28.72,0-15.11-6.99-27.59-25.79-27.59s-27.67,12.48-27.67,28.65,7.22,27.67,26.32,27.67"/>
    <path class="uuid-bf6e01e8-79b0-4a98-8609-f859dbbb3f4b" d="M634.11,103.41h-1.5v-14.36h2.33c2.48,0,6.39.53,6.39,6.77s-3.16,7.59-7.22,7.59M632.6,131.38v-16.09h3.61c15.11,0,21.8-7.59,21.8-20.83,0-8.65-4.21-17.52-18.12-17.52h-23.53v54.44h16.24Z"/>
    <path class="uuid-bf6e01e8-79b0-4a98-8609-f859dbbb3f4b" d="M22.98,175.25h-1.8v-11.35h3.38c4.44,0,5.94,2.26,5.94,5.26,0,5.11-3.99,6.09-7.52,6.09M23.74,186.98l9.02,19.25h17.59l-11.28-22.93c6.39-3.99,8.2-10.6,8.2-15.71,0-8.5-4.96-15.79-18.5-15.79H4.94v54.44h16.24v-19.25h2.56Z"/>
    <path class="uuid-bf6e01e8-79b0-4a98-8609-f859dbbb3f4b" d="M132.68,162.28c4.44,0,6.54,1.35,6.54,6.39l14.74-1.65c-.45-13.99-10.9-16.17-20.75-16.17-11.58,0-21.35,5.94-21.35,17.59,0,12.56,10.15,14.81,18.05,16.84l4.06,1.05c3.16.83,5.26,2.18,5.26,4.66,0,3.31-2.56,4.59-6.39,4.59-6.62,0-7.74-3.76-8.35-8.5l-14.44,1.96c.53,16.84,14.21,18.12,22.33,18.12,11.58,0,22.48-5.26,22.48-18.42,0-10-6.84-13.83-13.76-15.71l-4.21-1.13c-5.19-1.35-9.4-2.56-9.4-5.94,0-2.63,2.1-3.68,5.19-3.68"/>
    <path class="uuid-bf6e01e8-79b0-4a98-8609-f859dbbb3f4b" d="M313.87,194.04c-7.14,0-7.22-4.44-7.22-11.58v-31.13h-16.32v33.16c0,15.56,6.99,22.18,23.08,22.18,13.61,0,23.53-6.09,23.53-21.73v-33.61h-16.17v31.43c0,7.67-.3,11.28-6.92,11.28"/>
  </g>
  <polygon class="uuid-bf6e01e8-79b0-4a98-8609-f859dbbb3f4b" points="736.45 192.99 758.1 163.44 758.1 151.79 717.5 151.79 717.5 164.72 739.53 164.72 717.05 194.65 717.05 206.23 759.01 206.23 759.01 192.99 736.45 192.99"/>
  <g class="uuid-cb5c7cf7-0cab-417c-ba45-ccb987774125">
    <path class="uuid-bf6e01e8-79b0-4a98-8609-f859dbbb3f4b" d="M118.87,225.83c-10.83,0-19.4,4.81-20.45,16.32l14.36,2.26c.53-4.81,2.11-6.69,4.89-6.69s3.31,1.58,3.31,3.31c0,4.14-4.21,8.27-10.23,15.11l-10.6,12.03v13.08h37.89v-13.23h-19.47v-.45l6.69-6.77c8.65-8.72,11.95-13.16,11.95-20.45,0-8.65-5.26-14.51-18.35-14.51"/>
    <path class="uuid-bf6e01e8-79b0-4a98-8609-f859dbbb3f4b" d="M214.86,264.03l-14.14,2.78c1.43,11.65,9.92,14.89,19.47,14.89,12.48,0,21.05-6.02,21.05-16.47,0-7.37-3.83-11.35-11.13-13.31v-.38c5.11-2.03,9.77-6.47,9.77-12.56,0-8.95-6.69-13.61-17.97-13.61s-18.27,3.83-20.38,15.11l14.06,2.48c.68-3.91,1.96-5.86,4.96-5.86,2.78,0,3.83,1.58,3.83,4.29,0,4.21-2.48,6.24-7.74,6.24h-3.53v11.05h5.86c4.59,0,6.17,1.65,6.17,5.64s-2.03,5.64-5.04,5.64c-3.16,0-4.81-1.5-5.26-5.94"/>
  </g>
  <polygon class="uuid-bf6e01e8-79b0-4a98-8609-f859dbbb3f4b" points="512.15 280.8 528.84 280.8 548.24 237.86 548.24 226.28 511.02 226.28 511.02 239.22 531.85 239.22 512.15 280.8"/>
  <g class="uuid-88a03ea8-646c-4be5-befc-f88f8731caf6">
    <path class="uuid-bf6e01e8-79b0-4a98-8609-f859dbbb3f4b" d="M637.74,245.91l-1.28-.68c-3.68-1.96-4.36-3.83-4.36-5.71,0-2.18,1.5-3.83,4.36-3.83,2.71,0,4.29,1.73,4.29,4.06s-.83,4.29-3.01,6.17M631.73,259.07l1.58.6c4.06,1.58,6.54,3.01,6.54,6.24,0,3.01-2.33,4.96-5.49,4.96-4.14,0-5.86-2.41-5.86-5.49s1.65-4.89,3.23-6.32M647.22,250.87c4.89-2.93,7.89-6.02,7.89-12.11,0-7.67-6.32-13.38-19.17-13.38s-20.53,6.54-20.53,15.94c0,4.36,1.35,9.17,7.82,12.48-7.59,2.93-10.08,7.37-10.08,13.08,0,7.44,5.94,14.81,20.9,14.81s22.86-7.89,22.86-16.92c0-6.39-2.63-10.45-9.7-13.91"/>
    <path class="uuid-bf6e01e8-79b0-4a98-8609-f859dbbb3f4b" d="M405.34,350.4c0-4.59-2.78-7.22-8.35-7.22s-8.42,2.63-8.42,7.22,2.71,7.07,8.42,7.07,8.35-2.63,8.35-7.07M389.17,327.01v14.06h15.94v-4.96c10.45-2.86,15.04-9.32,15.04-17.97,0-13.01-10-17.22-20.45-17.22-11.58,0-20.3,5.04-21.58,16.84l15.64,2.26c.38-4.14,1.5-7.14,5.41-7.14,2.86,0,4.06,1.81,4.06,4.59,0,7.07-7.67,9.1-14.06,9.55"/>
    <path class="uuid-bf6e01e8-79b0-4a98-8609-f859dbbb3f4b" d="M514.91,314.53c0-1.95,1.43-2.93,2.86-2.93,1.8,0,2.71.98,2.71,2.78,0,2.56-2.03,4.21-3.76,5.04l-.9-1.65c-.6-1.05-.9-2.11-.9-3.23M507.09,334.16c3.16,4.44,6.24,8.2,10,11.35-1.28.38-2.63.45-3.68.45-4.81,0-7.67-3.23-7.67-7.37,0-1.5.45-3.01,1.35-4.44M533.33,313.48c0-7.82-6.77-11.2-15.11-11.2-10.45,0-18.65,5.11-18.65,15.04,0,2.63.53,4.81,2.33,7.67-8.35,2.86-11.73,7.89-11.73,15.11,0,8.65,6.39,16.02,20.9,16.02,7.44,0,12.86-1.58,15.71-3.68,3.61,2.33,8.12,3.23,12.33,3.23,2.33,0,4.59-.3,6.99-.9l-1.2-11.73c-1.73.38-4.59.07-6.39-.45,3.68-5.34,4.66-10.68,4.36-15.34h-13.98c.15,2.78.15,5.64-.6,8.35-2.56-2.78-4.81-5.34-6.99-8.12,10.45-4.51,12.03-9.55,12.03-13.99"/>
  </g>
</svg>