<?xml version="1.0" encoding="UTF-8"?>
<svg id="Ebene_1" xmlns="http://www.w3.org/2000/svg" version="1.1" viewBox="0 0 1080 1039.75">
  <!-- Generator: Adobe Illustrator 30.3.0, SVG Export Plug-In . SVG Version: 2.1.3 Build 182)  -->
  <defs>
    <style>
      .st0 {
        fill: #e20613;
      }

      .st1 {
        fill: #fff;
      }

      .st2 {
        fill: #005568;
      }

      .st3 {
        opacity: .5;
      }

      .st4 {
        opacity: .25;
      }

      .st5 {
        fill: #dce497;
      }

      .st6 {
        fill: #e5332a;
      }
    </style>
  </defs>
  <g>
    <g class="st4">
      <path class="st5" d="M57.87,966.96c22.01,16.32,167.32,35.79,487.65,24.77,252.71-8.7,450.1-31.56,487.44-48.54,4.92-35.15,1.92-199.11-12.12-432.25-14.69-243.97-31.17-396.6-40.89-430.92C895.42,58.56,192.84,27.99,120.57,55.83c-15.6,18.25-46.49,149.63-65.39,432.74-14.99,224.54-13.8,424.02,2.7,478.4Z"/>
      <path class="st5" d="M57.87,966.96c22.01,16.32,167.32,35.79,487.65,24.77,252.71-8.7,450.1-31.56,487.44-48.54,4.92-35.15,1.92-199.11-12.12-432.25-14.69-243.97-31.17-396.6-40.89-430.92C895.42,58.56,192.84,27.99,120.57,55.83c-15.6,18.25-46.49,149.63-65.39,432.74-14.99,224.54-13.8,424.02,2.7,478.4Z"/>
      <path class="st5" d="M57.87,966.96c22.01,16.32,167.32,35.79,487.65,24.77,252.71-8.7,450.1-31.56,487.44-48.54,4.92-35.15,1.92-199.11-12.12-432.25-14.69-243.97-31.17-396.6-40.89-430.92C895.42,58.56,192.84,27.99,120.57,55.83c-15.6,18.25-46.49,149.63-65.39,432.74-14.99,224.54-13.8,424.02,2.7,478.4Z"/>
    </g>
    <rect class="st1" x="149.96" y="146.69" width="750.72" height="750.72"/>
    <g class="st4">
      <path d="M901.21,897.95H149.42V146.16h751.79v751.78ZM150.49,896.88h749.66V147.23H150.49v749.65Z"/>
    </g>
  </g>
  <g>
    <rect class="st0" x="368.39" y="45.1" width="1.06" height="950.14"/>
    <rect class="st0" x="681.07" y="55.18" width="1.06" height="930.24"/>
    <rect class="st0" x="65.06" y="363.7" width="945.98" height="1.06"/>
    <rect class="st0" x="46.1" y="675.65" width="983.44" height="1.06"/>
  </g>
  <g class="st4">
    <rect x="524.81" y="51.77" width="1.06" height="939.42"/>
    <rect x="55.84" y="520.95" width="964.66" height="1.06"/>
    <rect x="532.89" y="-77.53" width="1.07" height="1214.18" transform="translate(-218.22 532.3) rotate(-45)"/>
    <rect x="-112.1" y="525.57" width="1265.65" height="1.07" transform="translate(-219.5 522.3) rotate(-45)"/>
  </g>
  <g class="st3">
    <path d="M371.79,1039.75c-115.51,0-222.16-4.79-285.5-17.55-42.57-8.58-63.5-20.31-69.96-39.25C-6.83,915.17-2.43,669.96,11.45,470.82c7.93-113.83,19.19-218.69,31.69-295.25C64.84,42.65,84.46,23.39,101.14,15.76,152.37-7.66,448.39.67,573.3,5.33c104.48,3.9,209.09,9.72,287.03,15.95,138.4,11.07,145.34,18.59,152.69,26.55,6.88,7.45,15.44,16.73,29.89,162.61,7.92,79.92,16.04,186.65,22.87,300.53,6.72,112.07,11.45,218.37,13.31,299.3,3.37,145.87-3.08,153.13-10.55,161.53-6.97,7.85-19.95,22.45-152.51,38.66-75.28,9.21-175.55,17.2-282.34,22.48-82.47,4.08-174.72,6.81-261.9,6.81ZM57.87,966.96c22.01,16.32,167.32,35.79,487.65,24.77,252.71-8.7,450.1-31.56,487.44-48.54,4.92-35.15,1.92-199.11-12.12-432.25-14.69-243.97-31.17-396.6-40.89-430.92C895.42,58.56,192.84,27.99,120.57,55.83c-15.6,18.25-46.49,149.63-65.39,432.74-14.99,224.54-13.8,424.02,2.7,478.4ZM1030.38,946.59h0,0ZM1035.17,939.67h0s0,0,0,0ZM983.94,83.19h0ZM976.68,76.29h0ZM122.65,56.63"/>
  </g>
  <g>
    <rect class="st6" x="52.96" y="519.35" width="24.08" height="4.26"/>
    <rect class="st6" x="997.42" y="519.35" width="24.08" height="4.26"/>
    <rect class="st6" x="523.22" y="968.21" width="4.26" height="24.08"/>
    <rect class="st6" x="523.22" y="48.77" width="4.26" height="24.08"/>
  </g>
  <g class="st3">
    <path class="st2" d="M767.86,159.3c4.23,3.37-157.97,251.55-158.74,256.52-.77,4.96-24.43,126.99-30.53,135.39-5.84,8.05-135.05,34.35-147.73,31.75-8.79-1.8-9.95-173.5-13.51-172.83-3.56.67-90.92,87.59-109.23,86.81-23.07-.98-140.12-151.03-135.14-157.33,3.76-4.76,43.68-1.88,58.15,5.1,12.09,5.83,75.01,88.5,80.71,86.44,5.71-2.06,105.81-124.01,118.72-126.91,16.41-3.68,151.23,12.49,162.88,5.68,15.35-8.96,114.16-136.23,124.47-142.97,9.45-6.18,43.61-12.71,49.94-7.66Z"/>
    <path class="st2" d="M304.82,994.67c29.68-107.66,113.09-376.55,124.35-384.71,9.71-7.04,122.66-25.92,150.97-31.27,36.48-27.31,159.29-84.39,185.56-72.13,17.1,7.98-8.23,210.77-10.51,217.01-3.63,9.93-27.92,30-39.9,34.02-3.37,1.13,2-143.44-4.6-146.62-7.95-3.84-100.66,68.65-119.31,76.22-20.74,8.42-66.91,9.85-78.18,15.98-8.82,4.8-108.7,224.03-142.09,292.07"/>
    <path class="st2" d="M485.55,180.5c13.99-16.15,63.16-13.2,75.06.43,11.91,13.64,2.46,90.28-5.45,98.7-7.91,8.43-51.59,13.13-64.37,2.89-9.65-7.74-22.64-81.94-5.24-102.02Z"/>
    <path class="st2" d="M642.72,987.58c-1.73-7.75-15.65-191.48-5.63-306.01,2.78-4.52,24.78-17.9,27.48-15.14-10.72,61.58-8.23,244.1-3.86,320.2l-17.99.95Z"/>
    <path class="st2" d="M693.37,55.86c-.23,33.22-2.52,83.86-7.38,109.77-.39,2.08,2.25,3.37,3.81,1.89,10.06-9.46,19.47-19.89,21.01-26.23,1.03-4.23,4.85-51.21,6.52-84.39"/>
    <path class="st2" d="M703.02,309.31c-7.57,35.61-27.69,172.12-29.89,196.56-4.95,4.44-17.54,9.75-27.96,13.95.11-14.6,20.13-152.94,23.82-157.42,2.87-8.1,21.28-39.63,31.34-54.23.93-1.35,3.03-.46,2.69,1.14Z"/>
  </g>
  <g>
    <polygon class="st0" points="514.39 577.75 516.98 575.84 518.68 582.93 515.5 582.39 520.72 589.5 522.17 580.8 519.58 582.72 517.88 575.62 521.06 576.16 515.84 569.05 514.39 577.75"/>
    <polygon class="st0" points="657.18 522.34 659.78 520.42 661.47 527.52 658.29 526.98 663.51 534.09 664.96 525.39 662.37 527.3 660.68 520.21 663.86 520.75 658.63 513.64 657.18 522.34"/>
    <polygon class="st0" points="642.53 661.79 644.64 659.35 647.83 665.91 644.62 666.07 651.26 671.88 650.78 663.07 648.67 665.5 645.48 658.95 648.7 658.78 642.05 652.97 642.53 661.79"/>
    <polygon class="st0" points="669.41 332.51 670.77 329.59 675.64 335.02 672.59 336.06 680.58 339.82 677.7 331.48 676.33 334.4 671.46 328.97 674.51 327.93 666.52 324.17 669.41 332.51"/>
    <polygon class="st0" points="697.47 169.52 699.18 166.78 703.35 172.77 700.2 173.43 707.66 178.14 705.83 169.51 704.11 172.24 699.94 166.26 703.1 165.59 695.63 160.89 697.47 169.52"/>
    <polygon class="st0" points="516.06 295.99 519.02 294.7 519.1 301.99 516.12 300.76 519.64 308.85 522.98 300.68 520.03 301.98 519.94 294.69 522.92 295.91 519.4 287.82 516.06 295.99"/>
  </g>
</svg>