<?xml version="1.0" encoding="UTF-8"?>
<svg id="soel_lines_tight" xmlns="http://www.w3.org/2000/svg" version="1.1" viewBox="0 0 1080 1080">
  <g stroke-width="1.5px" stroke="#FFFFFF">
    <line x1="876.9" y2="908.1" />
    <line x1="924.9" y2="957.8" />
    <line x1="973" y2="1007.5" />
    <line x1="780.9" y2="808.6" />
    <line x1="1080" y1="137.8" x2="170.1" y2="1080" />
    <line x1="1080" y1="38.4" x2="74.1" y2="1080" />
    <line x1="1080" y1="88.1" x2="122.1" y2="1080" />
    <line x1="1069" x2="26.1" y2="1080" />
    <line x1="1021" y2="1057.3" />
    <line x1="828.9" y2="858.3" />
    <line x1="444.7" y2="460.5" />
    <line x1="396.7" y2="410.8" />
    <line x1="492.7" y2="510.2" />
    <line x1="732.8" y2="758.9" />
    <line x1="348.6" y2="361" />
    <line x1="636.8" y2="659.4" />
    <line x1="300.6" y2="311.3" />
    <line x1="588.8" y2="609.7" />
    <line x1="540.7" y2="560" />
    <line x1="684.8" y2="709.1" />
    <line x1="1080" y1="784.3" x2="794.5" y2="1080" />
    <line x1="1080" y1="684.9" x2="698.4" y2="1080" />
    <line x1="1080" y1="834.1" x2="842.5" y2="1080" />
    <line x1="1080" y1="734.6" x2="746.5" y2="1080" />
    <line x1="1080" y1="883.8" x2="890.5" y2="1080" />
    <line y1="12.6" x2="12.1" />
    <line x1="1080" y1="1033" x2="1034.6" y2="1080" />
    <line x1="1080" y1="933.5" x2="938.6" y2="1080" />
    <line x1="1080" y1="983.3" x2="986.6" y2="1080" />
    <line x1="1080" y1="585.4" x2="602.4" y2="1080" />
    <line x1="1080" y1="386.5" x2="410.3" y2="1080" />
    <line x1="1080" y1="336.7" x2="362.2" y2="1080" />
    <line x1="1080" y1="287" x2="314.2" y2="1080" />
    <line x1="1080" y1="237.3" x2="266.2" y2="1080" />
    <line x1="1080" y1="187.6" x2="218.2" y2="1080" />
    <line x1="1080" y1="635.1" x2="650.4" y2="1080" />
    <line x1="1080" y1="535.7" x2="554.3" y2="1080" />
    <line x1="1080" y1="436.2" x2="458.3" y2="1080" />
    <line x1="1080" y1="485.9" x2="506.3" y2="1080" />
    <line x1="60.5" y2="62.6" />
    <line x1="204.6" y2="211.8" />
    <line x1="156.5" y2="162.1" />
    <line x1="108.5" y2="112.4" />
    <line x1="252.6" y2="261.6" />
  </g>
</svg>