<?xml version="1.0" encoding="UTF-8"?>
<svg id="uuid-000e6ab0-4742-4aa6-855e-012d103cc010" data-name="uuid-9e5547fc-b8ae-4fd7-a164-1108ab83d8b3" xmlns="http://www.w3.org/2000/svg" xmlns:xlink="http://www.w3.org/1999/xlink" viewBox="0 0 600 267">
  <defs>
    <style>
      .uuid-81db9abf-7924-4b39-9e17-3b91d5660bb5 {
        clip-path: url(#uuid-3f1a1343-46b1-4cae-a571-2b21140bc46b);
      }

      .uuid-634b2be9-ac40-444f-878c-a7f61b251a00 {
        fill: none;
      }

      .uuid-634b2be9-ac40-444f-878c-a7f61b251a00, .uuid-5d21560e-1c34-4fb3-a4ef-870f160f030d, .uuid-d40024f0-1ae6-4ab7-9056-7bfc42ba8cc8, .uuid-a78aa33a-f2cf-434f-8a11-c6c32eb12873, .uuid-4f84441e-0dfb-424e-903e-308801c10d34, .uuid-6774a3d6-8485-4251-ba1f-da93618a4379, .uuid-a927f3e4-6bfa-4183-a665-744b7a4fdf39, .uuid-92196742-70bb-4216-9252-3bfba9d73cd2, .uuid-3a4becf3-0c91-427f-9ec1-dd2b21e7c5d5 {
        stroke-width: 0px;
      }

      .uuid-bf5c6708-41bd-4ef8-8866-b791b7234b91 {
        clip-path: url(#uuid-a672526e-b635-4a5e-9716-1e719e68305b);
      }

      .uuid-118c4a29-c9a8-4463-a56b-a1cadae448a2 {
        clip-path: url(#uuid-b3ad559d-f5bb-4eb2-8935-955722a0a641);
      }

      .uuid-bb37a549-7da6-41c1-9322-b0518ba09cc1 {
        clip-path: url(#uuid-7875cf2b-7cfd-4d8b-94e7-679c8d0fd13a);
      }

      .uuid-86e22abf-c683-49e6-9b45-591523a2d94d {
        clip-path: url(#uuid-abc4f3df-0f63-4064-89bc-b4f50606ef88);
      }

      .uuid-5d21560e-1c34-4fb3-a4ef-870f160f030d {
        fill: #706f6f;
      }

      .uuid-d40024f0-1ae6-4ab7-9056-7bfc42ba8cc8 {
        fill: #162259;
      }

      .uuid-a78aa33a-f2cf-434f-8a11-c6c32eb12873 {
        fill: #a3c4e0;
      }

      .uuid-4f84441e-0dfb-424e-903e-308801c10d34 {
        fill: #b20933;
      }

      .uuid-6774a3d6-8485-4251-ba1f-da93618a4379 {
        fill: #fff;
      }

      .uuid-a927f3e4-6bfa-4183-a665-744b7a4fdf39 {
        fill: #e6007e;
      }

      .uuid-92196742-70bb-4216-9252-3bfba9d73cd2 {
        fill: #ea0b34;
      }

      .uuid-3a4becf3-0c91-427f-9ec1-dd2b21e7c5d5 {
        fill: #0062ae;
      }

      .uuid-3335dd88-12d4-4d65-aa79-a8715dfe5f66 {
        clip-path: url(#uuid-016cd40a-85ad-42af-b63b-4826de12b7cb);
      }
    </style>
    <clipPath id="uuid-016cd40a-85ad-42af-b63b-4826de12b7cb">
      <rect class="uuid-634b2be9-ac40-444f-878c-a7f61b251a00" width="600.05" height="267.09"/>
    </clipPath>
    <clipPath id="uuid-a672526e-b635-4a5e-9716-1e719e68305b">
      <rect class="uuid-634b2be9-ac40-444f-878c-a7f61b251a00" width="600.05" height="267.09"/>
    </clipPath>
    <clipPath id="uuid-3f1a1343-46b1-4cae-a571-2b21140bc46b">
      <rect class="uuid-634b2be9-ac40-444f-878c-a7f61b251a00" width="600.05" height="267.09"/>
    </clipPath>
    <clipPath id="uuid-abc4f3df-0f63-4064-89bc-b4f50606ef88">
      <rect class="uuid-634b2be9-ac40-444f-878c-a7f61b251a00" width="600.05" height="267.09"/>
    </clipPath>
    <clipPath id="uuid-7875cf2b-7cfd-4d8b-94e7-679c8d0fd13a">
      <rect class="uuid-634b2be9-ac40-444f-878c-a7f61b251a00" width="600.05" height="267.09"/>
    </clipPath>
    <clipPath id="uuid-b3ad559d-f5bb-4eb2-8935-955722a0a641">
      <rect class="uuid-634b2be9-ac40-444f-878c-a7f61b251a00" width="600.05" height="267.09"/>
    </clipPath>
  </defs>
  <rect class="uuid-d40024f0-1ae6-4ab7-9056-7bfc42ba8cc8" x="1.84" y="135.05" width="10.85" height="10.85"/>
  <rect class="uuid-3a4becf3-0c91-427f-9ec1-dd2b21e7c5d5" x="12.69" y="135.05" width="10.85" height="10.85"/>
  <rect class="uuid-d40024f0-1ae6-4ab7-9056-7bfc42ba8cc8" x="23.54" y="135.05" width="10.85" height="10.85"/>
  <rect class="uuid-3a4becf3-0c91-427f-9ec1-dd2b21e7c5d5" x="34.39" y="135.05" width="10.85" height="10.85"/>
  <rect class="uuid-d40024f0-1ae6-4ab7-9056-7bfc42ba8cc8" x="45.24" y="135.05" width="10.85" height="10.85"/>
  <rect class="uuid-3a4becf3-0c91-427f-9ec1-dd2b21e7c5d5" x="56.09" y="135.05" width="10.85" height="10.85"/>
  <rect class="uuid-d40024f0-1ae6-4ab7-9056-7bfc42ba8cc8" x="66.94" y="135.05" width="10.85" height="10.85"/>
  <rect class="uuid-d40024f0-1ae6-4ab7-9056-7bfc42ba8cc8" x="77.93" y="66.98" width="10.85" height="10.85"/>
  <rect class="uuid-d40024f0-1ae6-4ab7-9056-7bfc42ba8cc8" x="143.03" y="66.98" width="10.85" height="10.85"/>
  <rect class="uuid-3a4becf3-0c91-427f-9ec1-dd2b21e7c5d5" x="88.78" y="66.98" width="10.85" height="10.85"/>
  <rect class="uuid-3a4becf3-0c91-427f-9ec1-dd2b21e7c5d5" x="153.88" y="66.98" width="10.85" height="10.85"/>
  <rect class="uuid-d40024f0-1ae6-4ab7-9056-7bfc42ba8cc8" x="99.63" y="66.98" width="10.85" height="10.85"/>
  <rect class="uuid-d40024f0-1ae6-4ab7-9056-7bfc42ba8cc8" x="164.74" y="66.98" width="10.85" height="10.85"/>
  <rect class="uuid-3a4becf3-0c91-427f-9ec1-dd2b21e7c5d5" x="110.48" y="66.98" width="10.85" height="10.85"/>
  <rect class="uuid-3a4becf3-0c91-427f-9ec1-dd2b21e7c5d5" x="175.59" y="66.98" width="10.85" height="10.85"/>
  <rect class="uuid-d40024f0-1ae6-4ab7-9056-7bfc42ba8cc8" x="121.33" y="66.98" width="10.85" height="10.85"/>
  <rect class="uuid-d40024f0-1ae6-4ab7-9056-7bfc42ba8cc8" x="186.44" y="66.98" width="10.85" height="10.85"/>
  <rect class="uuid-3a4becf3-0c91-427f-9ec1-dd2b21e7c5d5" x="132.18" y="66.98" width="10.85" height="10.85"/>
  <rect class="uuid-3a4becf3-0c91-427f-9ec1-dd2b21e7c5d5" x="197.29" y="66.98" width="10.85" height="10.85"/>
  <rect class="uuid-d40024f0-1ae6-4ab7-9056-7bfc42ba8cc8" x="208.14" y="66.98" width="10.85" height="10.85"/>
  <g class="uuid-3335dd88-12d4-4d65-aa79-a8715dfe5f66">
    <g>
      <path class="uuid-a927f3e4-6bfa-4183-a665-744b7a4fdf39" d="M296.65,267.09h-1.93V1.84h1.93v265.25ZM285.77,267.09h-1.93V1.84h1.93v265.25ZM274.89,267.09h-1.93V1.84h1.93v265.25ZM264.01,267.09h-1.93V1.84h1.93v265.25ZM253.13,267.09h-1.93V1.84h1.93v265.25ZM242.25,267.09h-1.93V1.84h1.93v265.25ZM231.37,267.09h-1.93V1.84h1.93v265.25ZM220.5,267.09h-1.93V1.84h1.93v265.25ZM209.62,267.09h-1.93V1.84h1.93v265.25ZM198.74,267.09h-1.93V1.84h1.93v265.25ZM187.86,267.09h-1.93V1.84h1.93v265.25ZM176.98,267.09h-1.93V1.84h1.93v265.25ZM166.1,267.09h-1.93V1.84h1.93v265.25ZM155.23,267.09h-1.93V1.84h1.93v265.25ZM144.34,267.09h-1.93V1.84h1.93v265.25ZM133.46,267.09h-1.93V1.84h1.93v265.25ZM122.59,267.09h-1.93V1.84h1.93v265.25ZM111.71,267.09h-1.93V1.84h1.93v265.25ZM100.82,267.09h-1.93V1.84h1.93v265.25ZM89.95,267.09h-1.93V1.84h1.93v265.25ZM79.06,267.09h-1.93V1.84h1.93v265.25ZM68.2,267.09h-1.93V1.84h1.93v265.25ZM57.32,267.09h-1.93V1.84h1.93v265.25ZM46.44,267.09h-1.93V1.84h1.93v265.25ZM35.56,267.09h-1.93V1.84h1.93v265.25ZM24.67,267.09h-1.93V1.84h1.93v265.25ZM13.8,267.09h-1.93V1.84h1.93v265.25ZM2.92,267.09H.99V1.84h1.93v265.25Z"/>
      <path class="uuid-a927f3e4-6bfa-4183-a665-744b7a4fdf39" d="M600.05,267.09h-1.93V1.84h1.93v265.25ZM589.17,267.09h-1.93V1.84h1.93v265.25ZM578.29,267.09h-1.93V1.84h1.93v265.25ZM567.41,267.09h-1.93V1.84h1.93v265.25ZM556.53,267.09h-1.93V1.84h1.93v265.25ZM545.66,267.09h-1.93V1.84h1.93v265.25ZM534.77,267.09h-1.93V1.84h1.93v265.25ZM523.9,267.09h-1.93V1.84h1.93v265.25ZM513.02,267.09h-1.93V1.84h1.93v265.25ZM502.15,267.09h-1.93V1.84h1.93v265.25ZM491.26,267.09h-1.93V1.84h1.93v265.25ZM480.38,267.09h-1.93V1.84h1.93v265.25ZM469.51,267.09h-1.93V1.84h1.93v265.25ZM458.63,267.09h-1.93V1.84h1.93v265.25ZM447.74,267.09h-1.93V1.84h1.93v265.25ZM436.86,267.09h-1.93V1.84h1.93v265.25ZM425.99,267.09h-1.93V1.84h1.93v265.25ZM415.11,267.09h-1.93V1.84h1.93v265.25ZM404.22,267.09h-1.93V1.84h1.93v265.25ZM393.35,267.09h-1.93V1.84h1.93v265.25ZM382.47,267.09h-1.93V1.84h1.93v265.25ZM371.6,267.09h-1.93V1.84h1.93v265.25ZM360.72,267.09h-1.93V1.84h1.93v265.25ZM349.84,267.09h-1.93V1.84h1.93v265.25ZM338.96,267.09h-1.93V1.84h1.93v265.25ZM328.07,267.09h-1.93V1.84h1.93v265.25ZM317.2,267.09h-1.93V1.84h1.93v265.25ZM306.32,267.09h-1.93V1.84h1.93v265.25Z"/>
      <polygon class="uuid-5d21560e-1c34-4fb3-a4ef-870f160f030d" points="3.69 267.08 0 267.08 0 -.34 600.05 -.34 600.05 3.35 3.69 3.35 3.69 267.08"/>
    </g>
  </g>
  <g>
    <path class="uuid-6774a3d6-8485-4251-ba1f-da93618a4379" d="M144.12,40.1c3.25,0,4.92,1.53,4.92,4.21,0,2.32-1.11,3.83-3.52,6.47l-2.66,2.93v.07h6.42v2.93h-10.42v-2.84l3.5-4.08c2.03-2.39,3.25-3.63,3.25-5.3,0-1.08-.59-1.71-1.83-1.71-1.44,0-2.01.88-2.23,2.41l-3.07-.52c.38-3.22,2.62-4.58,5.64-4.58h0Z"/>
    <path class="uuid-6774a3d6-8485-4251-ba1f-da93618a4379" d="M155.02,55c0,1.29-.7,1.98-2.1,1.98s-2.1-.65-2.1-1.98.68-2.01,2.1-2.01,2.1.7,2.1,2.01Z"/>
  </g>
  <g>
    <path class="uuid-6774a3d6-8485-4251-ba1f-da93618a4379" d="M34.01,127.07v-12.26c-.77.41-2.75.7-3.5.7l-.16-2.89c2.01-.16,3.63-.7,4.71-1.87h2.32v16.32h-3.38.01Z"/>
    <path class="uuid-6774a3d6-8485-4251-ba1f-da93618a4379" d="M44.56,125.36c0,1.29-.7,1.98-2.1,1.98s-2.1-.65-2.1-1.98.68-2.01,2.1-2.01,2.1.7,2.1,2.01Z"/>
  </g>
  <rect class="uuid-a78aa33a-f2cf-434f-8a11-c6c32eb12873" x="4.13" y="4.11" width="73.18" height="73.17"/>
  <g class="uuid-bf5c6708-41bd-4ef8-8866-b791b7234b91">
    <g>
      <path class="uuid-92196742-70bb-4216-9252-3bfba9d73cd2" d="M78.92,78.89H2.52V2.5h76.4v76.39ZM5.74,75.67h69.96V5.72H5.74v69.95Z"/>
      <rect class="uuid-92196742-70bb-4216-9252-3bfba9d73cd2" x="-11.04" y="39.08" width="103.51" height="3.22" transform="translate(-16.85 40.71) rotate(-45)"/>
      <rect class="uuid-92196742-70bb-4216-9252-3bfba9d73cd2" x="39.11" y="-11.06" width="3.22" height="103.51" transform="translate(-16.85 40.71) rotate(-45)"/>
    </g>
  </g>
  <rect class="uuid-6774a3d6-8485-4251-ba1f-da93618a4379" x="218.25" y="78.46" width="6.81" height="133.54"/>
  <rect class="uuid-4f84441e-0dfb-424e-903e-308801c10d34" x="77.36" y="78.46" width="141.28" height="133.54"/>
  <g class="uuid-81db9abf-7924-4b39-9e17-3b91d5660bb5">
    <path class="uuid-6774a3d6-8485-4251-ba1f-da93618a4379" d="M95.67,127.29c0,10.42,6.92,17.88,17.3,17.88s17.32-7.46,17.32-17.88-6.94-17.87-17.32-17.87-17.3,7.47-17.3,17.87"/>
  </g>
  <rect class="uuid-6774a3d6-8485-4251-ba1f-da93618a4379" x="103.51" y="94.56" width="8.13" height="13.02"/>
  <g class="uuid-86e22abf-c683-49e6-9b45-591523a2d94d">
    <path class="uuid-4f84441e-0dfb-424e-903e-308801c10d34" d="M106.19,127.29c0-7.6,4.11-9.4,6.78-9.4s6.8,1.8,6.8,9.4-4.11,9.32-6.8,9.32-6.78-1.72-6.78-9.32"/>
  </g>
  <rect class="uuid-6774a3d6-8485-4251-ba1f-da93618a4379" x="114.36" y="94.56" width="8.13" height="13.02"/>
  <polygon class="uuid-6774a3d6-8485-4251-ba1f-da93618a4379" points="168.14 144.33 197.1 144.33 197.1 135.61 181.21 135.61 197.24 117.85 197.24 110.23 168.4 110.23 168.4 118.95 183.36 118.95 168.14 136.12 168.14 144.33"/>
  <polygon class="uuid-6774a3d6-8485-4251-ba1f-da93618a4379" points="107.25 191.15 117.77 191.15 117.77 165.76 130.15 165.76 130.15 157.03 95.78 157.03 95.78 165.76 107.25 165.76 107.25 191.15"/>
  <polygon class="uuid-6774a3d6-8485-4251-ba1f-da93618a4379" points="142.72 144.33 153.23 144.33 153.23 118.95 165.59 118.95 165.59 110.23 131.24 110.23 131.24 118.95 142.72 118.95 142.72 144.33"/>
  <polygon class="uuid-6774a3d6-8485-4251-ba1f-da93618a4379" points="129.94 191.15 140.5 191.15 142.01 186.3 152.88 186.3 154.32 191.15 165.21 191.15 152.77 157.03 142.5 157.03 129.94 191.15"/>
  <polygon class="uuid-4f84441e-0dfb-424e-903e-308801c10d34" points="144.31 178.98 147.62 168.47 147.71 168.47 150.78 178.98 144.31 178.98"/>
  <polygon class="uuid-6774a3d6-8485-4251-ba1f-da93618a4379" points="168.47 191.15 197.18 191.15 197.18 182.42 178.99 182.42 178.99 157.03 168.47 157.03 168.47 191.15"/>
  <rect class="uuid-3a4becf3-0c91-427f-9ec1-dd2b21e7c5d5" x="224.64" y="78.46" width="356.96" height="133.54"/>
  <g class="uuid-bb37a549-7da6-41c1-9322-b0518ba09cc1">
    <g>
      <path class="uuid-6774a3d6-8485-4251-ba1f-da93618a4379" d="M266.71,147.81c-2.4-2.32-6.64-2.97-9.74-2.54-3.58.5-8.32,2.83-7.72,7.14,1.47,10.5,27.07.04,29.89,20.22,1.8,12.86-7.69,20.42-19.57,22.08-7.41,1.04-14.23-.25-20.39-4.53l7.65-11.2c3.09,3.06,7.6,4.5,11.83,3.91,4.16-.58,8.52-3.18,7.95-7.26-1.48-10.58-27.71-1.1-30.4-20.32-1.72-12.29,8.05-20.22,19.36-21.8,6.52-.91,13.03-.08,18.52,3.56l-7.38,10.75h0Z"/>
      <path class="uuid-6774a3d6-8485-4251-ba1f-da93618a4379" d="M311.12,116.36c-.49-3.5,2.08-7.1,5.66-7.6,3.75-.53,7.47,1.77,8.02,5.68s-1.95,7.42-5.94,7.97c-3.83.54-7.21-2.31-7.74-6.05M317.62,174.64c10.83-1.52,16.82-10.32,15.31-21.07-1.5-10.75-9.68-17.57-20.51-16.06-10.83,1.52-16.82,10.32-15.32,21.07s9.68,17.57,20.51,16.06M294.19,118.73c-.49-3.5,2.08-7.1,5.66-7.6,3.74-.52,7.47,1.78,8.01,5.69.55,3.91-1.95,7.41-5.94,7.97-3.83.53-7.22-2.31-7.74-6.05M310.78,125.79c17.99-2.52,32.76,7.45,35.34,25.94,2.58,18.48-8.87,32.12-26.87,34.64-17.99,2.52-32.76-7.45-35.34-25.94-2.59-18.48,8.87-32.12,26.87-34.64"/>
    </g>
  </g>
  <polygon class="uuid-6774a3d6-8485-4251-ba1f-da93618a4379" points="351.21 121.63 363.91 119.85 370.33 165.77 393.86 162.48 395.5 174.2 359.27 179.27 351.21 121.63"/>
  <g class="uuid-118c4a29-c9a8-4463-a56b-a1cadae448a2">
    <path class="uuid-6774a3d6-8485-4251-ba1f-da93618a4379" d="M413.57,159.72l6.6-.92c11.81-1.65,20.05-7.37,18.22-20.48-1.58-11.32-11.36-15.35-22.11-13.84l-7.49,1.05,4.78,34.19h0ZM394.44,115.58l19.05-2.66c18.56-2.6,35.22,3.13,38.17,24.21,2.61,18.65-11.22,30.79-28.39,33.19l-20.76,2.9-8.06-57.64h0Z"/>
  </g>
  <polygon class="uuid-6774a3d6-8485-4251-ba1f-da93618a4379" points="456.73 106.87 495.9 101.4 497.53 113.12 471.07 116.82 472.57 127.57 497.57 124.07 499.21 135.8 474.21 139.29 475.85 151.01 503.78 147.11 505.42 158.83 464.79 164.52 456.73 106.87"/>
  <polygon class="uuid-6774a3d6-8485-4251-ba1f-da93618a4379" points="507.53 99.77 524.8 97.35 554.91 133.98 555.07 133.96 549.46 93.9 562.17 92.13 570.23 149.77 553.62 152.09 522.72 114.58 522.56 114.6 528.3 155.63 515.6 157.41 507.53 99.77"/>
</svg>