<?xml version="1.0" encoding="UTF-8"?>
<svg xmlns="http://www.w3.org/2000/svg" xmlns:xlink="http://www.w3.org/1999/xlink" viewBox="0 0 1080 1080">
  <defs>
    <style>
      .uuid-1f1ea5b5-8557-4c9c-8082-5f9dad969a00 {
        clip-path: url(#uuid-31353639-ebee-4ea6-b96f-f80110bb85ab);
      }

      .uuid-bd3293aa-53ae-4b1c-ac5d-36aef6a583f2 {
        stroke-width: 0px;
      }

      .uuid-bd3293aa-53ae-4b1c-ac5d-36aef6a583f2, .uuid-679482a5-2f2f-4b60-a19f-f9daf722696f, .uuid-acfdcacc-6c47-4a34-ac8d-9e03682a4043, .uuid-4ee0ea5b-942d-493b-8a66-f565b0640256, .uuid-945afd42-996a-4dad-ac33-168490ba16c6, .uuid-35e60070-9640-422b-89f7-edc67074f5fa, .uuid-393fa860-8c79-4e9c-bf09-7e2faa10e9e9, .uuid-489adf45-65e5-42a4-a941-18f30b8597d3 {
        fill: none;
      }

      .uuid-679482a5-2f2f-4b60-a19f-f9daf722696f {
        stroke-width: 9px;
      }

      .uuid-679482a5-2f2f-4b60-a19f-f9daf722696f, .uuid-acfdcacc-6c47-4a34-ac8d-9e03682a4043, .uuid-4ee0ea5b-942d-493b-8a66-f565b0640256, .uuid-945afd42-996a-4dad-ac33-168490ba16c6, .uuid-35e60070-9640-422b-89f7-edc67074f5fa, .uuid-393fa860-8c79-4e9c-bf09-7e2faa10e9e9, .uuid-489adf45-65e5-42a4-a941-18f30b8597d3 {
        stroke: #fff;
        stroke-miterlimit: 10;
      }

      .uuid-acfdcacc-6c47-4a34-ac8d-9e03682a4043 {
        stroke-width: 18px;
      }

      .uuid-60c836ed-cf3a-40be-945a-2d7f34ccb14c {
        clip-path: url(#uuid-0cd679dc-42f9-4637-914f-3774986026b3);
      }

      .uuid-c41fe8cb-dc23-4490-a9f8-7e53a4ba852a {
        clip-path: url(#uuid-0fe26fda-33cc-4c49-ad1d-d3d8d4e99a99);
      }

      .uuid-56b10059-3abb-4a0a-8501-c0b89943561d {
        clip-path: url(#uuid-21bba07b-be05-4bf6-8eca-f19e96954871);
      }

      .uuid-c56df4ff-e6e0-4789-adf3-2d869b5e1a61 {
        clip-path: url(#uuid-84faec05-619a-46e6-b34f-66b5a2f2391b);
      }

      .uuid-945afd42-996a-4dad-ac33-168490ba16c6 {
        stroke-width: 12px;
      }

      .uuid-35e60070-9640-422b-89f7-edc67074f5fa {
        stroke-width: 3px;
      }

      .uuid-393fa860-8c79-4e9c-bf09-7e2faa10e9e9 {
        stroke-width: 6px;
      }

      .uuid-f6a1f498-4fcb-489d-97d1-14b8c40670b2 {
        clip-path: url(#uuid-ca7e3a47-e4e8-4345-a554-033fee4f0123);
      }

      .uuid-f13a5c82-86ef-4c93-9923-4235c7b5c4b5 {
        clip-path: url(#uuid-ad7b7518-ce08-4216-bbac-d3b7b86b45fc);
      }

      .uuid-489adf45-65e5-42a4-a941-18f30b8597d3 {
        stroke-width: 15px;
      }
    </style>
    <clipPath id="uuid-ca7e3a47-e4e8-4345-a554-033fee4f0123">
      <rect class="uuid-bd3293aa-53ae-4b1c-ac5d-36aef6a583f2" x="-1.98" y="-1.98" width="1080" height="1080"/>
    </clipPath>
    <clipPath id="uuid-0cd679dc-42f9-4637-914f-3774986026b3">
      <rect class="uuid-bd3293aa-53ae-4b1c-ac5d-36aef6a583f2" x="1274.98" y="-1.98" width="1080" height="1080"/>
    </clipPath>
    <clipPath id="uuid-31353639-ebee-4ea6-b96f-f80110bb85ab">
      <rect class="uuid-bd3293aa-53ae-4b1c-ac5d-36aef6a583f2" x="1274.98" y="2466.11" width="1080" height="1080"/>
    </clipPath>
    <clipPath id="uuid-0fe26fda-33cc-4c49-ad1d-d3d8d4e99a99">
      <rect class="uuid-bd3293aa-53ae-4b1c-ac5d-36aef6a583f2" x="2549.95" y="-1.98" width="1080" height="1080"/>
    </clipPath>
    <clipPath id="uuid-21bba07b-be05-4bf6-8eca-f19e96954871">
      <path class="uuid-bd3293aa-53ae-4b1c-ac5d-36aef6a583f2" d="M1845.08,1411.22l-27.55,425.93,143.03,56.15c19.07-21.19,50.86-44.5,87.94-44.5,24.37,0,63.57,4.24,63.57,81.58,0,60.39-30.73,95.36-77.35,95.36s-75.23-24.37-79.46-84.76l-189.66,36.02c19.07,164.23,135.62,214.02,265.94,214.02,162.11,0,297.73-92.18,297.73-269.12,0-155.75-76.29-234.16-197.07-234.16-67.81,0-111.25,22.25-143.04,50.86l15.89-145.16h280.77v-182.24h-440.76ZM1385.25,1878.48c18.01-12.71,44.5-20.13,61.45-20.13,43.44,0,59.33,27.55,59.33,86.88,0,40.26-7.42,84.76-55.1,84.76-51.92,0-65.69-65.69-65.69-151.51M1534.64,1634.78l193.89-48.74c-32.85-153.63-130.32-188.6-243.69-188.6-258.52,0-323.16,225.68-323.16,411.1,0,221.44,60.39,382.49,285.01,382.49,151.51,0,283.95-73.11,283.95-265.94,0-162.11-103.84-220.38-211.91-220.38-60.39,0-105.95,15.89-141.98,40.26,2.12-153.63,42.38-190.71,92.18-190.71,41.32,0,61.45,21.19,65.69,80.52M232.5,1921.92l-225.68,50.86c26.49,164.23,139.86,209.78,553.07,209.78,436.53,0,557.31-98.54,557.31-245.81,0-103.83-54.04-146.21-156.81-173.76v-5.3c77.35-28.61,137.74-85.82,137.74-164.23,0-138.8-92.18-206.61-511.75-206.61S41.78,1486.45,12.12,1645.38l221.44,42.38c9.54-55.1,24.37-133.5,343.29-133.5,245.81,0,281.83,22.25,281.83,65.69,0,54.04-34.96,77.35-253.23,77.35h-187.53v171.64h214.02c215.08,0,237.33,12.71,237.33,68.87,0,52.98-34.96,77.35-304.08,77.35-306.2,0-321.04-30.72-332.69-93.24"/>
    </clipPath>
    <clipPath id="uuid-84faec05-619a-46e6-b34f-66b5a2f2391b">
      <rect class="uuid-bd3293aa-53ae-4b1c-ac5d-36aef6a583f2" x="-241.92" y="1079.58" width="2638.63" height="1824.83"/>
    </clipPath>
    <clipPath id="uuid-ad7b7518-ce08-4216-bbac-d3b7b86b45fc">
      <rect class="uuid-bd3293aa-53ae-4b1c-ac5d-36aef6a583f2" x="3842.39" y="-1.98" width="1080" height="1080"/>
    </clipPath>
  </defs>
  <g id="uuid-2e8fdf1c-6d86-4069-afc9-85d026b3e895" data-name="Linien Close">
    <g class="uuid-f6a1f498-4fcb-489d-97d1-14b8c40670b2">
      <g>
        <line class="uuid-4ee0ea5b-942d-493b-8a66-f565b0640256" x1="-1666.47" y1="3678.87" x2="3340.48" y2="-1505.98"/>
        <line class="uuid-4ee0ea5b-942d-493b-8a66-f565b0640256" x1="-1701.43" y1="3615.43" x2="3305.52" y2="-1569.41"/>
        <line class="uuid-4ee0ea5b-942d-493b-8a66-f565b0640256" x1="-1718.9" y1="3583.71" x2="3288.04" y2="-1601.13"/>
        <line class="uuid-4ee0ea5b-942d-493b-8a66-f565b0640256" x1="-1736.38" y1="3552" x2="3270.57" y2="-1632.85"/>
        <line class="uuid-4ee0ea5b-942d-493b-8a66-f565b0640256" x1="-1753.86" y1="3520.28" x2="3253.09" y2="-1664.57"/>
        <line class="uuid-4ee0ea5b-942d-493b-8a66-f565b0640256" x1="-1771.34" y1="3488.56" x2="3235.61" y2="-1696.28"/>
        <line class="uuid-4ee0ea5b-942d-493b-8a66-f565b0640256" x1="-1788.81" y1="3456.84" x2="3218.13" y2="-1728"/>
        <line class="uuid-4ee0ea5b-942d-493b-8a66-f565b0640256" x1="-1806.29" y1="3425.12" x2="3200.66" y2="-1759.72"/>
        <line class="uuid-4ee0ea5b-942d-493b-8a66-f565b0640256" x1="-1823.77" y1="3393.41" x2="3183.18" y2="-1791.44"/>
        <line class="uuid-4ee0ea5b-942d-493b-8a66-f565b0640256" x1="-1841.25" y1="3361.69" x2="3165.7" y2="-1823.16"/>
        <line class="uuid-4ee0ea5b-942d-493b-8a66-f565b0640256" x1="-1858.72" y1="3329.97" x2="3148.22" y2="-1854.87"/>
        <line class="uuid-4ee0ea5b-942d-493b-8a66-f565b0640256" x1="-1876.2" y1="3298.25" x2="3130.75" y2="-1886.59"/>
        <line class="uuid-4ee0ea5b-942d-493b-8a66-f565b0640256" x1="-1893.68" y1="3266.53" x2="3113.27" y2="-1918.31"/>
        <line class="uuid-4ee0ea5b-942d-493b-8a66-f565b0640256" x1="-1911.16" y1="3234.82" x2="3095.79" y2="-1950.03"/>
        <line class="uuid-4ee0ea5b-942d-493b-8a66-f565b0640256" x1="-1928.63" y1="3203.1" x2="3078.31" y2="-1981.75"/>
        <line class="uuid-4ee0ea5b-942d-493b-8a66-f565b0640256" x1="-1946.11" y1="3171.38" x2="3060.84" y2="-2013.46"/>
        <line class="uuid-4ee0ea5b-942d-493b-8a66-f565b0640256" x1="-1963.59" y1="3139.66" x2="3043.36" y2="-2045.18"/>
        <line class="uuid-4ee0ea5b-942d-493b-8a66-f565b0640256" x1="-1981.07" y1="3107.95" x2="3025.88" y2="-2076.9"/>
        <line class="uuid-4ee0ea5b-942d-493b-8a66-f565b0640256" x1="-1998.54" y1="3076.23" x2="3008.4" y2="-2108.62"/>
        <line class="uuid-4ee0ea5b-942d-493b-8a66-f565b0640256" x1="-2016.02" y1="3044.51" x2="2990.93" y2="-2140.33"/>
        <line class="uuid-4ee0ea5b-942d-493b-8a66-f565b0640256" x1="-2033.5" y1="3012.79" x2="2973.45" y2="-2172.05"/>
        <line class="uuid-4ee0ea5b-942d-493b-8a66-f565b0640256" x1="-2050.98" y1="2981.07" x2="2955.97" y2="-2203.77"/>
        <line class="uuid-4ee0ea5b-942d-493b-8a66-f565b0640256" x1="-2068.45" y1="2949.36" x2="2938.49" y2="-2235.49"/>
        <line class="uuid-4ee0ea5b-942d-493b-8a66-f565b0640256" x1="-2085.93" y1="2917.64" x2="2921.02" y2="-2267.21"/>
        <line class="uuid-4ee0ea5b-942d-493b-8a66-f565b0640256" x1="-2103.41" y1="2885.92" x2="2903.54" y2="-2298.92"/>
        <line class="uuid-4ee0ea5b-942d-493b-8a66-f565b0640256" x1="-2120.89" y1="2854.2" x2="2886.06" y2="-2330.64"/>
        <line class="uuid-4ee0ea5b-942d-493b-8a66-f565b0640256" x1="-2138.36" y1="2822.48" x2="2868.58" y2="-2362.36"/>
        <line class="uuid-4ee0ea5b-942d-493b-8a66-f565b0640256" x1="-2155.84" y1="2790.77" x2="2851.11" y2="-2394.08"/>
        <line class="uuid-4ee0ea5b-942d-493b-8a66-f565b0640256" x1="-2173.32" y1="2759.05" x2="2833.63" y2="-2425.8"/>
        <line class="uuid-4ee0ea5b-942d-493b-8a66-f565b0640256" x1="-2190.8" y1="2727.33" x2="2816.15" y2="-2457.51"/>
        <line class="uuid-4ee0ea5b-942d-493b-8a66-f565b0640256" x1="-2208.27" y1="2695.61" x2="2798.67" y2="-2489.23"/>
        <line class="uuid-4ee0ea5b-942d-493b-8a66-f565b0640256" x1="-2225.75" y1="2663.9" x2="2781.2" y2="-2520.95"/>
        <line class="uuid-4ee0ea5b-942d-493b-8a66-f565b0640256" x1="-2243.23" y1="2632.18" x2="2763.72" y2="-2552.67"/>
        <line class="uuid-4ee0ea5b-942d-493b-8a66-f565b0640256" x1="-2260.71" y1="2600.46" x2="2746.24" y2="-2584.38"/>
        <line class="uuid-4ee0ea5b-942d-493b-8a66-f565b0640256" x1="-2278.18" y1="2568.74" x2="2728.76" y2="-2616.1"/>
        <line class="uuid-4ee0ea5b-942d-493b-8a66-f565b0640256" x1="-2295.66" y1="2537.02" x2="2711.29" y2="-2647.82"/>
        <line class="uuid-4ee0ea5b-942d-493b-8a66-f565b0640256" x1="-2313.14" y1="2505.31" x2="2693.81" y2="-2679.54"/>
        <line class="uuid-4ee0ea5b-942d-493b-8a66-f565b0640256" x1="-2330.62" y1="2473.59" x2="2676.33" y2="-2711.26"/>
        <line class="uuid-4ee0ea5b-942d-493b-8a66-f565b0640256" x1="-2348.09" y1="2441.87" x2="2658.85" y2="-2742.97"/>
        <line class="uuid-4ee0ea5b-942d-493b-8a66-f565b0640256" x1="-2365.57" y1="2410.15" x2="2641.38" y2="-2774.69"/>
        <line class="uuid-4ee0ea5b-942d-493b-8a66-f565b0640256" x1="-1683.95" y1="3647.15" x2="3323" y2="-1537.7"/>
        <line class="uuid-4ee0ea5b-942d-493b-8a66-f565b0640256" x1="-1596.56" y1="3805.74" x2="3410.39" y2="-1379.11"/>
        <line class="uuid-4ee0ea5b-942d-493b-8a66-f565b0640256" x1="-1614.04" y1="3774.02" x2="3392.91" y2="-1410.82"/>
        <line class="uuid-4ee0ea5b-942d-493b-8a66-f565b0640256" x1="-1631.52" y1="3742.3" x2="3375.43" y2="-1442.54"/>
        <line class="uuid-4ee0ea5b-942d-493b-8a66-f565b0640256" x1="-1648.99" y1="3710.58" x2="3357.95" y2="-1474.26"/>
        <line class="uuid-4ee0ea5b-942d-493b-8a66-f565b0640256" x1="-1579.08" y1="3837.46" x2="3427.86" y2="-1347.39"/>
        <line class="uuid-4ee0ea5b-942d-493b-8a66-f565b0640256" x1="-2452.96" y1="2251.56" x2="2553.99" y2="-2933.28"/>
        <line class="uuid-4ee0ea5b-942d-493b-8a66-f565b0640256" x1="-2487.91" y1="2188.13" x2="2519.03" y2="-2996.72"/>
        <line class="uuid-4ee0ea5b-942d-493b-8a66-f565b0640256" x1="-2505.39" y1="2156.41" x2="2501.56" y2="-3028.44"/>
        <line class="uuid-4ee0ea5b-942d-493b-8a66-f565b0640256" x1="-2522.87" y1="2124.69" x2="2484.08" y2="-3060.15"/>
        <line class="uuid-4ee0ea5b-942d-493b-8a66-f565b0640256" x1="-2540.35" y1="2092.97" x2="2466.6" y2="-3091.87"/>
        <line class="uuid-4ee0ea5b-942d-493b-8a66-f565b0640256" x1="-2557.82" y1="2061.26" x2="2449.12" y2="-3123.59"/>
        <line class="uuid-4ee0ea5b-942d-493b-8a66-f565b0640256" x1="-2575.3" y1="2029.54" x2="2431.65" y2="-3155.31"/>
        <line class="uuid-4ee0ea5b-942d-493b-8a66-f565b0640256" x1="-2592.78" y1="1997.82" x2="2414.17" y2="-3187.02"/>
        <line class="uuid-4ee0ea5b-942d-493b-8a66-f565b0640256" x1="-2610.26" y1="1966.1" x2="2396.69" y2="-3218.74"/>
        <line class="uuid-4ee0ea5b-942d-493b-8a66-f565b0640256" x1="-2627.73" y1="1934.38" x2="2379.21" y2="-3250.46"/>
        <line class="uuid-4ee0ea5b-942d-493b-8a66-f565b0640256" x1="-2645.21" y1="1902.67" x2="2361.74" y2="-3282.18"/>
        <line class="uuid-4ee0ea5b-942d-493b-8a66-f565b0640256" x1="-2662.69" y1="1870.95" x2="2344.26" y2="-3313.9"/>
        <line class="uuid-4ee0ea5b-942d-493b-8a66-f565b0640256" x1="-2680.17" y1="1839.23" x2="2326.78" y2="-3345.61"/>
        <line class="uuid-4ee0ea5b-942d-493b-8a66-f565b0640256" x1="-2697.64" y1="1807.51" x2="2309.3" y2="-3377.33"/>
        <line class="uuid-4ee0ea5b-942d-493b-8a66-f565b0640256" x1="-2715.12" y1="1775.8" x2="2291.83" y2="-3409.05"/>
        <line class="uuid-4ee0ea5b-942d-493b-8a66-f565b0640256" x1="-2732.6" y1="1744.08" x2="2274.35" y2="-3440.77"/>
        <line class="uuid-4ee0ea5b-942d-493b-8a66-f565b0640256" x1="-2750.08" y1="1712.36" x2="2256.87" y2="-3472.49"/>
        <line class="uuid-4ee0ea5b-942d-493b-8a66-f565b0640256" x1="-2767.55" y1="1680.64" x2="2239.39" y2="-3504.2"/>
        <line class="uuid-4ee0ea5b-942d-493b-8a66-f565b0640256" x1="-2785.03" y1="1648.92" x2="2221.92" y2="-3535.92"/>
        <line class="uuid-4ee0ea5b-942d-493b-8a66-f565b0640256" x1="-2802.51" y1="1617.21" x2="2204.44" y2="-3567.64"/>
        <line class="uuid-4ee0ea5b-942d-493b-8a66-f565b0640256" x1="-2819.98" y1="1585.49" x2="2186.96" y2="-3599.36"/>
        <line class="uuid-4ee0ea5b-942d-493b-8a66-f565b0640256" x1="-2837.46" y1="1553.77" x2="2169.48" y2="-3631.07"/>
        <line class="uuid-4ee0ea5b-942d-493b-8a66-f565b0640256" x1="-2854.94" y1="1522.05" x2="2152.01" y2="-3662.79"/>
        <line class="uuid-4ee0ea5b-942d-493b-8a66-f565b0640256" x1="-2872.42" y1="1490.33" x2="2134.53" y2="-3694.51"/>
        <line class="uuid-4ee0ea5b-942d-493b-8a66-f565b0640256" x1="-2889.89" y1="1458.62" x2="2117.05" y2="-3726.23"/>
        <line class="uuid-4ee0ea5b-942d-493b-8a66-f565b0640256" x1="-2907.37" y1="1426.9" x2="2099.57" y2="-3757.95"/>
        <line class="uuid-4ee0ea5b-942d-493b-8a66-f565b0640256" x1="-2924.85" y1="1395.18" x2="2082.1" y2="-3789.66"/>
        <line class="uuid-4ee0ea5b-942d-493b-8a66-f565b0640256" x1="-2942.33" y1="1363.46" x2="2064.62" y2="-3821.38"/>
        <line class="uuid-4ee0ea5b-942d-493b-8a66-f565b0640256" x1="-2959.8" y1="1331.75" x2="2047.14" y2="-3853.1"/>
        <line class="uuid-4ee0ea5b-942d-493b-8a66-f565b0640256" x1="-2977.28" y1="1300.03" x2="2029.66" y2="-3884.82"/>
        <line class="uuid-4ee0ea5b-942d-493b-8a66-f565b0640256" x1="-2994.76" y1="1268.31" x2="2012.19" y2="-3916.54"/>
        <line class="uuid-4ee0ea5b-942d-493b-8a66-f565b0640256" x1="-3012.24" y1="1236.59" x2="1994.71" y2="-3948.25"/>
        <line class="uuid-4ee0ea5b-942d-493b-8a66-f565b0640256" x1="-3029.71" y1="1204.87" x2="1977.23" y2="-3979.97"/>
        <line class="uuid-4ee0ea5b-942d-493b-8a66-f565b0640256" x1="-3047.19" y1="1173.16" x2="1959.76" y2="-4011.69"/>
        <line class="uuid-4ee0ea5b-942d-493b-8a66-f565b0640256" x1="-3064.67" y1="1141.44" x2="1942.28" y2="-4043.41"/>
        <line class="uuid-4ee0ea5b-942d-493b-8a66-f565b0640256" x1="-3082.15" y1="1109.72" x2="1924.8" y2="-4075.12"/>
        <line class="uuid-4ee0ea5b-942d-493b-8a66-f565b0640256" x1="-3099.62" y1="1078" x2="1907.32" y2="-4106.84"/>
        <line class="uuid-4ee0ea5b-942d-493b-8a66-f565b0640256" x1="-3117.1" y1="1046.28" x2="1889.85" y2="-4138.56"/>
        <line class="uuid-4ee0ea5b-942d-493b-8a66-f565b0640256" x1="-3134.58" y1="1014.57" x2="1872.37" y2="-4170.28"/>
        <line class="uuid-4ee0ea5b-942d-493b-8a66-f565b0640256" x1="-3152.06" y1="982.85" x2="1854.89" y2="-4202"/>
        <line class="uuid-4ee0ea5b-942d-493b-8a66-f565b0640256" x1="-2470.44" y1="2219.85" x2="2536.51" y2="-2965"/>
        <line class="uuid-4ee0ea5b-942d-493b-8a66-f565b0640256" x1="-2383.05" y1="2378.43" x2="2623.9" y2="-2806.41"/>
        <line class="uuid-4ee0ea5b-942d-493b-8a66-f565b0640256" x1="-2400.53" y1="2346.72" x2="2606.42" y2="-2838.13"/>
        <line class="uuid-4ee0ea5b-942d-493b-8a66-f565b0640256" x1="-2418" y1="2315" x2="2588.94" y2="-2869.85"/>
        <line class="uuid-4ee0ea5b-942d-493b-8a66-f565b0640256" x1="-2435.48" y1="2283.28" x2="2571.47" y2="-2901.56"/>
        <line class="uuid-4ee0ea5b-942d-493b-8a66-f565b0640256" x1="-893.26" y1="5119.92" x2="4140.24" y2="-92.42"/>
        <line class="uuid-4ee0ea5b-942d-493b-8a66-f565b0640256" x1="-928.22" y1="5056.48" x2="4105.28" y2="-155.86"/>
        <line class="uuid-4ee0ea5b-942d-493b-8a66-f565b0640256" x1="-945.69" y1="5024.76" x2="4087.81" y2="-187.57"/>
        <line class="uuid-4ee0ea5b-942d-493b-8a66-f565b0640256" x1="-963.17" y1="4993.05" x2="4070.33" y2="-219.29"/>
        <line class="uuid-4ee0ea5b-942d-493b-8a66-f565b0640256" x1="-980.65" y1="4961.33" x2="4052.85" y2="-251.01"/>
        <line class="uuid-4ee0ea5b-942d-493b-8a66-f565b0640256" x1="-998.13" y1="4929.61" x2="4035.37" y2="-282.73"/>
        <line class="uuid-4ee0ea5b-942d-493b-8a66-f565b0640256" x1="-1015.6" y1="4897.89" x2="4017.9" y2="-314.45"/>
        <line class="uuid-4ee0ea5b-942d-493b-8a66-f565b0640256" x1="-1033.08" y1="4866.18" x2="4000.42" y2="-346.16"/>
        <line class="uuid-4ee0ea5b-942d-493b-8a66-f565b0640256" x1="-1050.56" y1="4834.46" x2="3982.94" y2="-377.88"/>
        <line class="uuid-4ee0ea5b-942d-493b-8a66-f565b0640256" x1="-1068.04" y1="4802.74" x2="3965.46" y2="-409.6"/>
        <line class="uuid-4ee0ea5b-942d-493b-8a66-f565b0640256" x1="-1085.51" y1="4771.02" x2="3947.99" y2="-441.32"/>
        <line class="uuid-4ee0ea5b-942d-493b-8a66-f565b0640256" x1="-1102.99" y1="4739.3" x2="3930.51" y2="-473.04"/>
        <line class="uuid-4ee0ea5b-942d-493b-8a66-f565b0640256" x1="-1120.47" y1="4707.59" x2="3913.03" y2="-504.75"/>
        <line class="uuid-4ee0ea5b-942d-493b-8a66-f565b0640256" x1="-1137.95" y1="4675.87" x2="3895.55" y2="-536.47"/>
        <line class="uuid-4ee0ea5b-942d-493b-8a66-f565b0640256" x1="-1155.42" y1="4644.15" x2="3878.08" y2="-568.19"/>
        <line class="uuid-4ee0ea5b-942d-493b-8a66-f565b0640256" x1="-1172.9" y1="4612.43" x2="3860.6" y2="-599.91"/>
        <line class="uuid-4ee0ea5b-942d-493b-8a66-f565b0640256" x1="-1190.38" y1="4580.71" x2="3843.12" y2="-631.62"/>
        <line class="uuid-4ee0ea5b-942d-493b-8a66-f565b0640256" x1="-1207.86" y1="4549" x2="3825.64" y2="-663.34"/>
        <line class="uuid-4ee0ea5b-942d-493b-8a66-f565b0640256" x1="-1225.33" y1="4517.28" x2="3808.17" y2="-695.06"/>
        <line class="uuid-4ee0ea5b-942d-493b-8a66-f565b0640256" x1="-1242.81" y1="4485.56" x2="3790.69" y2="-726.78"/>
        <line class="uuid-4ee0ea5b-942d-493b-8a66-f565b0640256" x1="-1260.29" y1="4453.84" x2="3773.21" y2="-758.5"/>
        <line class="uuid-4ee0ea5b-942d-493b-8a66-f565b0640256" x1="-1277.77" y1="4422.13" x2="3755.73" y2="-790.21"/>
        <line class="uuid-4ee0ea5b-942d-493b-8a66-f565b0640256" x1="-1295.24" y1="4390.41" x2="3738.26" y2="-821.93"/>
        <line class="uuid-4ee0ea5b-942d-493b-8a66-f565b0640256" x1="-1312.72" y1="4358.69" x2="3720.78" y2="-853.65"/>
        <line class="uuid-4ee0ea5b-942d-493b-8a66-f565b0640256" x1="-1330.2" y1="4326.97" x2="3703.3" y2="-885.37"/>
        <line class="uuid-4ee0ea5b-942d-493b-8a66-f565b0640256" x1="-1347.68" y1="4295.25" x2="3685.82" y2="-917.09"/>
        <line class="uuid-4ee0ea5b-942d-493b-8a66-f565b0640256" x1="-1365.15" y1="4263.54" x2="3668.35" y2="-948.8"/>
        <line class="uuid-4ee0ea5b-942d-493b-8a66-f565b0640256" x1="-1382.63" y1="4231.82" x2="3650.87" y2="-980.52"/>
        <line class="uuid-4ee0ea5b-942d-493b-8a66-f565b0640256" x1="-1400.11" y1="4200.1" x2="3633.39" y2="-1012.24"/>
        <line class="uuid-4ee0ea5b-942d-493b-8a66-f565b0640256" x1="-1417.59" y1="4168.38" x2="3615.91" y2="-1043.96"/>
        <line class="uuid-4ee0ea5b-942d-493b-8a66-f565b0640256" x1="-1435.06" y1="4136.66" x2="3598.44" y2="-1075.67"/>
        <line class="uuid-4ee0ea5b-942d-493b-8a66-f565b0640256" x1="-1452.54" y1="4104.95" x2="3580.96" y2="-1107.39"/>
        <line class="uuid-4ee0ea5b-942d-493b-8a66-f565b0640256" x1="-1470.02" y1="4073.23" x2="3563.48" y2="-1139.11"/>
        <line class="uuid-4ee0ea5b-942d-493b-8a66-f565b0640256" x1="-1487.5" y1="4041.51" x2="3546" y2="-1170.83"/>
        <line class="uuid-4ee0ea5b-942d-493b-8a66-f565b0640256" x1="-1504.97" y1="4009.79" x2="3528.53" y2="-1202.55"/>
        <line class="uuid-4ee0ea5b-942d-493b-8a66-f565b0640256" x1="-1522.45" y1="3978.08" x2="3511.05" y2="-1234.26"/>
        <line class="uuid-4ee0ea5b-942d-493b-8a66-f565b0640256" x1="-1539.93" y1="3946.36" x2="3493.57" y2="-1265.98"/>
        <line class="uuid-4ee0ea5b-942d-493b-8a66-f565b0640256" x1="-1557.4" y1="3914.64" x2="3476.09" y2="-1297.7"/>
        <line class="uuid-4ee0ea5b-942d-493b-8a66-f565b0640256" x1="-1574.88" y1="3882.92" x2="3458.62" y2="-1329.42"/>
        <line class="uuid-4ee0ea5b-942d-493b-8a66-f565b0640256" x1="-910.74" y1="5088.2" x2="4122.76" y2="-124.14"/>
        <line class="uuid-4ee0ea5b-942d-493b-8a66-f565b0640256" x1="-823.35" y1="5246.79" x2="4210.15" y2="34.45"/>
        <line class="uuid-4ee0ea5b-942d-493b-8a66-f565b0640256" x1="-840.83" y1="5215.07" x2="4192.67" y2="2.73"/>
        <line class="uuid-4ee0ea5b-942d-493b-8a66-f565b0640256" x1="-858.31" y1="5183.35" x2="4175.19" y2="-28.99"/>
        <line class="uuid-4ee0ea5b-942d-493b-8a66-f565b0640256" x1="-875.78" y1="5151.64" x2="4157.72" y2="-60.7"/>
        <line class="uuid-4ee0ea5b-942d-493b-8a66-f565b0640256" x1="-805.87" y1="5278.51" x2="4227.63" y2="66.17"/>
      </g>
    </g>
  </g>
  <g id="uuid-7297c8d9-0ec4-411f-91e9-397656ef38f3" data-name="Linien Mittel">
    <g class="uuid-60c836ed-cf3a-40be-945a-2d7f34ccb14c">
      <g>
        <line class="uuid-4ee0ea5b-942d-493b-8a66-f565b0640256" x1="-389.51" y1="3678.87" x2="4617.43" y2="-1505.98"/>
        <line class="uuid-4ee0ea5b-942d-493b-8a66-f565b0640256" x1="-424.47" y1="3615.43" x2="4582.48" y2="-1569.41"/>
        <line class="uuid-4ee0ea5b-942d-493b-8a66-f565b0640256" x1="-459.42" y1="3552" x2="4547.52" y2="-1632.85"/>
        <line class="uuid-4ee0ea5b-942d-493b-8a66-f565b0640256" x1="-494.38" y1="3488.56" x2="4512.57" y2="-1696.28"/>
        <line class="uuid-4ee0ea5b-942d-493b-8a66-f565b0640256" x1="-529.33" y1="3425.12" x2="4477.61" y2="-1759.72"/>
        <line class="uuid-4ee0ea5b-942d-493b-8a66-f565b0640256" x1="-564.29" y1="3361.69" x2="4442.66" y2="-1823.16"/>
        <line class="uuid-4ee0ea5b-942d-493b-8a66-f565b0640256" x1="-599.24" y1="3298.25" x2="4407.7" y2="-1886.59"/>
        <line class="uuid-4ee0ea5b-942d-493b-8a66-f565b0640256" x1="-634.2" y1="3234.82" x2="4372.75" y2="-1950.03"/>
        <line class="uuid-4ee0ea5b-942d-493b-8a66-f565b0640256" x1="-669.15" y1="3171.38" x2="4337.79" y2="-2013.46"/>
        <line class="uuid-4ee0ea5b-942d-493b-8a66-f565b0640256" x1="-704.11" y1="3107.95" x2="4302.84" y2="-2076.9"/>
        <line class="uuid-4ee0ea5b-942d-493b-8a66-f565b0640256" x1="-739.06" y1="3044.51" x2="4267.88" y2="-2140.33"/>
        <line class="uuid-4ee0ea5b-942d-493b-8a66-f565b0640256" x1="-774.02" y1="2981.07" x2="4232.93" y2="-2203.77"/>
        <line class="uuid-4ee0ea5b-942d-493b-8a66-f565b0640256" x1="-808.97" y1="2917.64" x2="4197.97" y2="-2267.21"/>
        <line class="uuid-4ee0ea5b-942d-493b-8a66-f565b0640256" x1="-843.93" y1="2854.2" x2="4163.02" y2="-2330.64"/>
        <line class="uuid-4ee0ea5b-942d-493b-8a66-f565b0640256" x1="-878.88" y1="2790.77" x2="4128.06" y2="-2394.08"/>
        <line class="uuid-4ee0ea5b-942d-493b-8a66-f565b0640256" x1="-913.84" y1="2727.33" x2="4093.11" y2="-2457.51"/>
        <line class="uuid-4ee0ea5b-942d-493b-8a66-f565b0640256" x1="-948.79" y1="2663.9" x2="4058.15" y2="-2520.95"/>
        <line class="uuid-4ee0ea5b-942d-493b-8a66-f565b0640256" x1="-983.75" y1="2600.46" x2="4023.2" y2="-2584.38"/>
        <line class="uuid-4ee0ea5b-942d-493b-8a66-f565b0640256" x1="-1018.7" y1="2537.02" x2="3988.24" y2="-2647.82"/>
        <line class="uuid-4ee0ea5b-942d-493b-8a66-f565b0640256" x1="-1053.66" y1="2473.59" x2="3953.29" y2="-2711.26"/>
        <line class="uuid-4ee0ea5b-942d-493b-8a66-f565b0640256" x1="-1088.61" y1="2410.15" x2="3918.33" y2="-2774.69"/>
        <line class="uuid-4ee0ea5b-942d-493b-8a66-f565b0640256" x1="-319.6" y1="3805.74" x2="4687.34" y2="-1379.11"/>
        <line class="uuid-4ee0ea5b-942d-493b-8a66-f565b0640256" x1="-354.56" y1="3742.3" x2="4652.39" y2="-1442.54"/>
        <line class="uuid-4ee0ea5b-942d-493b-8a66-f565b0640256" x1="-1228.43" y1="2156.41" x2="3778.51" y2="-3028.44"/>
        <line class="uuid-4ee0ea5b-942d-493b-8a66-f565b0640256" x1="-1263.39" y1="2092.97" x2="3743.56" y2="-3091.87"/>
        <line class="uuid-4ee0ea5b-942d-493b-8a66-f565b0640256" x1="-1298.34" y1="2029.54" x2="3708.6" y2="-3155.31"/>
        <line class="uuid-4ee0ea5b-942d-493b-8a66-f565b0640256" x1="-1333.3" y1="1966.1" x2="3673.65" y2="-3218.74"/>
        <line class="uuid-4ee0ea5b-942d-493b-8a66-f565b0640256" x1="-1368.25" y1="1902.67" x2="3638.69" y2="-3282.18"/>
        <line class="uuid-4ee0ea5b-942d-493b-8a66-f565b0640256" x1="-1403.21" y1="1839.23" x2="3603.74" y2="-3345.61"/>
        <line class="uuid-4ee0ea5b-942d-493b-8a66-f565b0640256" x1="-1438.16" y1="1775.8" x2="3568.78" y2="-3409.05"/>
        <line class="uuid-4ee0ea5b-942d-493b-8a66-f565b0640256" x1="-1473.12" y1="1712.36" x2="3533.83" y2="-3472.49"/>
        <line class="uuid-4ee0ea5b-942d-493b-8a66-f565b0640256" x1="-1508.07" y1="1648.92" x2="3498.87" y2="-3535.92"/>
        <line class="uuid-4ee0ea5b-942d-493b-8a66-f565b0640256" x1="-1543.03" y1="1585.49" x2="3463.92" y2="-3599.36"/>
        <line class="uuid-4ee0ea5b-942d-493b-8a66-f565b0640256" x1="-1577.98" y1="1522.05" x2="3428.96" y2="-3662.79"/>
        <line class="uuid-4ee0ea5b-942d-493b-8a66-f565b0640256" x1="-1612.94" y1="1458.62" x2="3394.01" y2="-3726.23"/>
        <line class="uuid-4ee0ea5b-942d-493b-8a66-f565b0640256" x1="-1647.89" y1="1395.18" x2="3359.05" y2="-3789.66"/>
        <line class="uuid-4ee0ea5b-942d-493b-8a66-f565b0640256" x1="-1682.85" y1="1331.75" x2="3324.1" y2="-3853.1"/>
        <line class="uuid-4ee0ea5b-942d-493b-8a66-f565b0640256" x1="-1717.8" y1="1268.31" x2="3289.15" y2="-3916.54"/>
        <line class="uuid-4ee0ea5b-942d-493b-8a66-f565b0640256" x1="-1752.76" y1="1204.87" x2="3254.19" y2="-3979.97"/>
        <line class="uuid-4ee0ea5b-942d-493b-8a66-f565b0640256" x1="-1787.71" y1="1141.44" x2="3219.24" y2="-4043.41"/>
        <line class="uuid-4ee0ea5b-942d-493b-8a66-f565b0640256" x1="-1822.67" y1="1078" x2="3184.28" y2="-4106.84"/>
        <line class="uuid-4ee0ea5b-942d-493b-8a66-f565b0640256" x1="-1857.62" y1="1014.57" x2="3149.33" y2="-4170.28"/>
        <line class="uuid-4ee0ea5b-942d-493b-8a66-f565b0640256" x1="-1193.48" y1="2219.85" x2="3813.47" y2="-2965"/>
        <line class="uuid-4ee0ea5b-942d-493b-8a66-f565b0640256" x1="-1123.57" y1="2346.72" x2="3883.38" y2="-2838.13"/>
        <line class="uuid-4ee0ea5b-942d-493b-8a66-f565b0640256" x1="-1158.52" y1="2283.28" x2="3848.42" y2="-2901.56"/>
        <line class="uuid-4ee0ea5b-942d-493b-8a66-f565b0640256" x1="331.26" y1="5024.76" x2="5364.76" y2="-187.57"/>
        <line class="uuid-4ee0ea5b-942d-493b-8a66-f565b0640256" x1="296.31" y1="4961.33" x2="5329.81" y2="-251.01"/>
        <line class="uuid-4ee0ea5b-942d-493b-8a66-f565b0640256" x1="261.35" y1="4897.89" x2="5294.85" y2="-314.45"/>
        <line class="uuid-4ee0ea5b-942d-493b-8a66-f565b0640256" x1="226.4" y1="4834.46" x2="5259.9" y2="-377.88"/>
        <line class="uuid-4ee0ea5b-942d-493b-8a66-f565b0640256" x1="191.44" y1="4771.02" x2="5224.94" y2="-441.32"/>
        <line class="uuid-4ee0ea5b-942d-493b-8a66-f565b0640256" x1="156.49" y1="4707.59" x2="5189.99" y2="-504.75"/>
        <line class="uuid-4ee0ea5b-942d-493b-8a66-f565b0640256" x1="121.53" y1="4644.15" x2="5155.03" y2="-568.19"/>
        <line class="uuid-4ee0ea5b-942d-493b-8a66-f565b0640256" x1="86.58" y1="4580.71" x2="5120.08" y2="-631.62"/>
        <line class="uuid-4ee0ea5b-942d-493b-8a66-f565b0640256" x1="51.62" y1="4517.28" x2="5085.12" y2="-695.06"/>
        <line class="uuid-4ee0ea5b-942d-493b-8a66-f565b0640256" x1="16.67" y1="4453.84" x2="5050.17" y2="-758.5"/>
        <line class="uuid-4ee0ea5b-942d-493b-8a66-f565b0640256" x1="-18.29" y1="4390.41" x2="5015.21" y2="-821.93"/>
        <line class="uuid-4ee0ea5b-942d-493b-8a66-f565b0640256" x1="-53.24" y1="4326.97" x2="4980.26" y2="-885.37"/>
        <line class="uuid-4ee0ea5b-942d-493b-8a66-f565b0640256" x1="-88.2" y1="4263.54" x2="4945.3" y2="-948.8"/>
        <line class="uuid-4ee0ea5b-942d-493b-8a66-f565b0640256" x1="-123.15" y1="4200.1" x2="4910.35" y2="-1012.24"/>
        <line class="uuid-4ee0ea5b-942d-493b-8a66-f565b0640256" x1="-158.11" y1="4136.66" x2="4875.39" y2="-1075.67"/>
        <line class="uuid-4ee0ea5b-942d-493b-8a66-f565b0640256" x1="-193.06" y1="4073.23" x2="4840.44" y2="-1139.11"/>
        <line class="uuid-4ee0ea5b-942d-493b-8a66-f565b0640256" x1="-228.01" y1="4009.79" x2="4805.48" y2="-1202.55"/>
        <line class="uuid-4ee0ea5b-942d-493b-8a66-f565b0640256" x1="-262.97" y1="3946.36" x2="4770.53" y2="-1265.98"/>
        <line class="uuid-4ee0ea5b-942d-493b-8a66-f565b0640256" x1="-297.92" y1="3882.92" x2="4735.57" y2="-1329.42"/>
        <line class="uuid-4ee0ea5b-942d-493b-8a66-f565b0640256" x1="366.22" y1="5088.2" x2="5399.72" y2="-124.14"/>
        <line class="uuid-4ee0ea5b-942d-493b-8a66-f565b0640256" x1="436.13" y1="5215.07" x2="5469.63" y2="2.73"/>
        <line class="uuid-4ee0ea5b-942d-493b-8a66-f565b0640256" x1="401.17" y1="5151.64" x2="5434.67" y2="-60.7"/>
        <line class="uuid-4ee0ea5b-942d-493b-8a66-f565b0640256" x1="471.08" y1="5278.51" x2="5504.58" y2="66.17"/>
      </g>
    </g>
    <g class="uuid-1f1ea5b5-8557-4c9c-8082-5f9dad969a00">
      <g>
        <line class="uuid-acfdcacc-6c47-4a34-ac8d-9e03682a4043" x1="-389.51" y1="6146.96" x2="4617.43" y2="962.11"/>
        <line class="uuid-acfdcacc-6c47-4a34-ac8d-9e03682a4043" x1="-424.47" y1="6083.52" x2="4582.48" y2="898.68"/>
        <line class="uuid-489adf45-65e5-42a4-a941-18f30b8597d3" x1="-459.42" y1="6020.09" x2="4547.52" y2="835.24"/>
        <line class="uuid-489adf45-65e5-42a4-a941-18f30b8597d3" x1="-494.38" y1="5956.65" x2="4512.57" y2="771.81"/>
        <line class="uuid-489adf45-65e5-42a4-a941-18f30b8597d3" x1="-529.33" y1="5893.22" x2="4477.61" y2="708.37"/>
        <line class="uuid-945afd42-996a-4dad-ac33-168490ba16c6" x1="-564.29" y1="5829.78" x2="4442.66" y2="644.93"/>
        <line class="uuid-945afd42-996a-4dad-ac33-168490ba16c6" x1="-599.24" y1="5766.34" x2="4407.7" y2="581.5"/>
        <line class="uuid-945afd42-996a-4dad-ac33-168490ba16c6" x1="-634.2" y1="5702.91" x2="4372.75" y2="518.06"/>
        <line class="uuid-679482a5-2f2f-4b60-a19f-f9daf722696f" x1="-669.15" y1="5639.47" x2="4337.79" y2="454.63"/>
        <line class="uuid-679482a5-2f2f-4b60-a19f-f9daf722696f" x1="-704.11" y1="5576.04" x2="4302.84" y2="391.19"/>
        <line class="uuid-679482a5-2f2f-4b60-a19f-f9daf722696f" x1="-739.06" y1="5512.6" x2="4267.88" y2="327.76"/>
        <line class="uuid-393fa860-8c79-4e9c-bf09-7e2faa10e9e9" x1="-774.02" y1="5449.16" x2="4232.93" y2="264.32"/>
        <line class="uuid-393fa860-8c79-4e9c-bf09-7e2faa10e9e9" x1="-808.97" y1="5385.73" x2="4197.97" y2="200.88"/>
        <line class="uuid-393fa860-8c79-4e9c-bf09-7e2faa10e9e9" x1="-843.93" y1="5322.29" x2="4163.02" y2="137.45"/>
        <line class="uuid-35e60070-9640-422b-89f7-edc67074f5fa" x1="-878.88" y1="5258.86" x2="4128.06" y2="74.01"/>
        <line class="uuid-35e60070-9640-422b-89f7-edc67074f5fa" x1="-913.84" y1="5195.42" x2="4093.11" y2="10.58"/>
        <line class="uuid-35e60070-9640-422b-89f7-edc67074f5fa" x1="-948.79" y1="5131.99" x2="4058.15" y2="-52.86"/>
        <line class="uuid-4ee0ea5b-942d-493b-8a66-f565b0640256" x1="-983.75" y1="5068.55" x2="4023.2" y2="-116.29"/>
        <line class="uuid-4ee0ea5b-942d-493b-8a66-f565b0640256" x1="-1018.7" y1="5005.11" x2="3988.24" y2="-179.73"/>
        <line class="uuid-4ee0ea5b-942d-493b-8a66-f565b0640256" x1="-1053.66" y1="4941.68" x2="3953.29" y2="-243.17"/>
        <line class="uuid-acfdcacc-6c47-4a34-ac8d-9e03682a4043" x1="-354.56" y1="6210.39" x2="4652.39" y2="1025.55"/>
      </g>
    </g>
  </g>
  <g id="uuid-58efa117-45f4-461f-8a4b-0df569fc0466" data-name="Linien Wide">
    <g class="uuid-c41fe8cb-dc23-4490-a9f8-7e53a4ba852a">
      <g>
        <line class="uuid-4ee0ea5b-942d-493b-8a66-f565b0640256" x1="885.46" y1="3678.87" x2="5892.41" y2="-1505.98"/>
        <line class="uuid-4ee0ea5b-942d-493b-8a66-f565b0640256" x1="815.55" y1="3552" x2="5822.5" y2="-1632.85"/>
        <line class="uuid-4ee0ea5b-942d-493b-8a66-f565b0640256" x1="745.64" y1="3425.12" x2="5752.59" y2="-1759.72"/>
        <line class="uuid-4ee0ea5b-942d-493b-8a66-f565b0640256" x1="675.73" y1="3298.25" x2="5682.68" y2="-1886.59"/>
        <line class="uuid-4ee0ea5b-942d-493b-8a66-f565b0640256" x1="605.82" y1="3171.38" x2="5612.77" y2="-2013.46"/>
        <line class="uuid-4ee0ea5b-942d-493b-8a66-f565b0640256" x1="535.91" y1="3044.51" x2="5542.86" y2="-2140.33"/>
        <line class="uuid-4ee0ea5b-942d-493b-8a66-f565b0640256" x1="466" y1="2917.64" x2="5472.95" y2="-2267.21"/>
        <line class="uuid-4ee0ea5b-942d-493b-8a66-f565b0640256" x1="396.09" y1="2790.77" x2="5403.04" y2="-2394.08"/>
        <line class="uuid-4ee0ea5b-942d-493b-8a66-f565b0640256" x1="326.18" y1="2663.9" x2="5333.13" y2="-2520.95"/>
        <line class="uuid-4ee0ea5b-942d-493b-8a66-f565b0640256" x1="256.27" y1="2537.02" x2="5263.22" y2="-2647.82"/>
        <line class="uuid-4ee0ea5b-942d-493b-8a66-f565b0640256" x1="186.36" y1="2410.15" x2="5193.31" y2="-2774.69"/>
        <line class="uuid-4ee0ea5b-942d-493b-8a66-f565b0640256" x1="955.37" y1="3805.74" x2="5962.32" y2="-1379.11"/>
        <line class="uuid-4ee0ea5b-942d-493b-8a66-f565b0640256" x1="46.54" y1="2156.41" x2="5053.49" y2="-3028.44"/>
        <line class="uuid-4ee0ea5b-942d-493b-8a66-f565b0640256" x1="-23.37" y1="2029.54" x2="4983.58" y2="-3155.31"/>
        <line class="uuid-4ee0ea5b-942d-493b-8a66-f565b0640256" x1="-93.28" y1="1902.67" x2="4913.67" y2="-3282.18"/>
        <line class="uuid-4ee0ea5b-942d-493b-8a66-f565b0640256" x1="-163.19" y1="1775.8" x2="4843.76" y2="-3409.05"/>
        <line class="uuid-4ee0ea5b-942d-493b-8a66-f565b0640256" x1="-233.09" y1="1648.92" x2="4773.85" y2="-3535.92"/>
        <line class="uuid-4ee0ea5b-942d-493b-8a66-f565b0640256" x1="-303" y1="1522.05" x2="4703.94" y2="-3662.79"/>
        <line class="uuid-4ee0ea5b-942d-493b-8a66-f565b0640256" x1="-372.91" y1="1395.18" x2="4634.03" y2="-3789.66"/>
        <line class="uuid-4ee0ea5b-942d-493b-8a66-f565b0640256" x1="-442.82" y1="1268.31" x2="4564.12" y2="-3916.54"/>
        <line class="uuid-4ee0ea5b-942d-493b-8a66-f565b0640256" x1="-512.73" y1="1141.44" x2="4494.21" y2="-4043.41"/>
        <line class="uuid-4ee0ea5b-942d-493b-8a66-f565b0640256" x1="-582.64" y1="1014.57" x2="4424.3" y2="-4170.28"/>
        <line class="uuid-4ee0ea5b-942d-493b-8a66-f565b0640256" x1="116.45" y1="2283.28" x2="5123.4" y2="-2901.56"/>
        <line class="uuid-4ee0ea5b-942d-493b-8a66-f565b0640256" x1="1012.01" y1="3946.36" x2="6045.51" y2="-1265.98"/>
      </g>
    </g>
  </g>
  <g id="uuid-0ad9a4f1-904d-463e-862d-ae699c108ed7" data-name="Linien Extra Wide">
    <g class="uuid-56b10059-3abb-4a0a-8501-c0b89943561d">
      <g class="uuid-c56df4ff-e6e0-4789-adf3-2d869b5e1a61">
        <g>
          <line class="uuid-4ee0ea5b-942d-493b-8a66-f565b0640256" x1="10.24" y1="3444.93" x2="2429.19" y2="940.04"/>
          <line class="uuid-4ee0ea5b-942d-493b-8a66-f565b0640256" x1="-6.65" y1="3414.28" x2="2412.3" y2="909.39"/>
          <line class="uuid-4ee0ea5b-942d-493b-8a66-f565b0640256" x1="-15.09" y1="3398.96" x2="2403.86" y2="894.07"/>
          <line class="uuid-4ee0ea5b-942d-493b-8a66-f565b0640256" x1="-23.53" y1="3383.63" x2="2395.41" y2="878.74"/>
          <line class="uuid-4ee0ea5b-942d-493b-8a66-f565b0640256" x1="-31.98" y1="3368.31" x2="2386.97" y2="863.42"/>
          <line class="uuid-4ee0ea5b-942d-493b-8a66-f565b0640256" x1="-40.42" y1="3352.99" x2="2378.52" y2="848.1"/>
          <line class="uuid-4ee0ea5b-942d-493b-8a66-f565b0640256" x1="-48.86" y1="3337.66" x2="2370.08" y2="832.77"/>
          <line class="uuid-4ee0ea5b-942d-493b-8a66-f565b0640256" x1="-57.31" y1="3322.34" x2="2361.64" y2="817.45"/>
          <line class="uuid-4ee0ea5b-942d-493b-8a66-f565b0640256" x1="-65.75" y1="3307.02" x2="2353.19" y2="802.13"/>
          <line class="uuid-4ee0ea5b-942d-493b-8a66-f565b0640256" x1="-74.19" y1="3291.69" x2="2344.75" y2="786.8"/>
          <line class="uuid-4ee0ea5b-942d-493b-8a66-f565b0640256" x1="-82.64" y1="3276.37" x2="2336.31" y2="771.48"/>
          <line class="uuid-4ee0ea5b-942d-493b-8a66-f565b0640256" x1="-91.08" y1="3261.05" x2="2327.86" y2="756.16"/>
          <line class="uuid-4ee0ea5b-942d-493b-8a66-f565b0640256" x1="-99.53" y1="3245.72" x2="2319.42" y2="740.83"/>
          <line class="uuid-4ee0ea5b-942d-493b-8a66-f565b0640256" x1="-107.97" y1="3230.4" x2="2310.98" y2="725.51"/>
          <line class="uuid-4ee0ea5b-942d-493b-8a66-f565b0640256" x1="-116.41" y1="3215.07" x2="2302.53" y2="710.18"/>
          <line class="uuid-4ee0ea5b-942d-493b-8a66-f565b0640256" x1="-124.86" y1="3199.75" x2="2294.09" y2="694.86"/>
          <line class="uuid-4ee0ea5b-942d-493b-8a66-f565b0640256" x1="-133.3" y1="3184.43" x2="2285.64" y2="679.54"/>
          <line class="uuid-4ee0ea5b-942d-493b-8a66-f565b0640256" x1="-141.74" y1="3169.1" x2="2277.2" y2="664.21"/>
          <line class="uuid-4ee0ea5b-942d-493b-8a66-f565b0640256" x1="-150.19" y1="3153.78" x2="2268.76" y2="648.89"/>
          <line class="uuid-4ee0ea5b-942d-493b-8a66-f565b0640256" x1="-158.63" y1="3138.46" x2="2260.31" y2="633.57"/>
          <line class="uuid-4ee0ea5b-942d-493b-8a66-f565b0640256" x1="-167.08" y1="3123.13" x2="2251.87" y2="618.24"/>
          <line class="uuid-4ee0ea5b-942d-493b-8a66-f565b0640256" x1="-175.52" y1="3107.81" x2="2243.43" y2="602.92"/>
          <line class="uuid-4ee0ea5b-942d-493b-8a66-f565b0640256" x1="-183.96" y1="3092.49" x2="2234.98" y2="587.6"/>
          <line class="uuid-4ee0ea5b-942d-493b-8a66-f565b0640256" x1="-192.41" y1="3077.16" x2="2226.54" y2="572.27"/>
          <line class="uuid-4ee0ea5b-942d-493b-8a66-f565b0640256" x1="-200.85" y1="3061.84" x2="2218.09" y2="556.95"/>
          <line class="uuid-4ee0ea5b-942d-493b-8a66-f565b0640256" x1="-209.29" y1="3046.52" x2="2209.65" y2="541.63"/>
          <line class="uuid-4ee0ea5b-942d-493b-8a66-f565b0640256" x1="-217.74" y1="3031.19" x2="2201.21" y2="526.3"/>
          <line class="uuid-4ee0ea5b-942d-493b-8a66-f565b0640256" x1="-226.18" y1="3015.87" x2="2192.76" y2="510.98"/>
          <line class="uuid-4ee0ea5b-942d-493b-8a66-f565b0640256" x1="-234.62" y1="3000.55" x2="2184.32" y2="495.66"/>
          <line class="uuid-4ee0ea5b-942d-493b-8a66-f565b0640256" x1="-243.07" y1="2985.22" x2="2175.88" y2="480.33"/>
          <line class="uuid-4ee0ea5b-942d-493b-8a66-f565b0640256" x1="-251.51" y1="2969.9" x2="2167.43" y2="465.01"/>
          <line class="uuid-4ee0ea5b-942d-493b-8a66-f565b0640256" x1="-259.96" y1="2954.58" x2="2158.99" y2="449.69"/>
          <line class="uuid-4ee0ea5b-942d-493b-8a66-f565b0640256" x1="-268.4" y1="2939.25" x2="2150.55" y2="434.36"/>
          <line class="uuid-4ee0ea5b-942d-493b-8a66-f565b0640256" x1="-276.84" y1="2923.93" x2="2142.1" y2="419.04"/>
          <line class="uuid-4ee0ea5b-942d-493b-8a66-f565b0640256" x1="-285.29" y1="2908.61" x2="2133.66" y2="403.72"/>
          <line class="uuid-4ee0ea5b-942d-493b-8a66-f565b0640256" x1="-293.73" y1="2893.28" x2="2125.21" y2="388.39"/>
          <line class="uuid-4ee0ea5b-942d-493b-8a66-f565b0640256" x1="-302.17" y1="2877.96" x2="2116.77" y2="373.07"/>
          <line class="uuid-4ee0ea5b-942d-493b-8a66-f565b0640256" x1="-310.62" y1="2862.64" x2="2108.33" y2="357.75"/>
          <line class="uuid-4ee0ea5b-942d-493b-8a66-f565b0640256" x1="-319.06" y1="2847.31" x2="2099.88" y2="342.42"/>
          <line class="uuid-4ee0ea5b-942d-493b-8a66-f565b0640256" x1="-327.51" y1="2831.99" x2="2091.44" y2="327.1"/>
          <line class="uuid-4ee0ea5b-942d-493b-8a66-f565b0640256" x1="1.8" y1="3429.6" x2="2420.74" y2="924.71"/>
          <line class="uuid-4ee0ea5b-942d-493b-8a66-f565b0640256" x1="44.02" y1="3506.22" x2="2462.96" y2="1001.33"/>
          <line class="uuid-4ee0ea5b-942d-493b-8a66-f565b0640256" x1="35.57" y1="3490.9" x2="2454.52" y2="986.01"/>
          <line class="uuid-4ee0ea5b-942d-493b-8a66-f565b0640256" x1="27.13" y1="3475.57" x2="2446.07" y2="970.68"/>
          <line class="uuid-4ee0ea5b-942d-493b-8a66-f565b0640256" x1="18.69" y1="3460.25" x2="2437.63" y2="955.36"/>
          <line class="uuid-4ee0ea5b-942d-493b-8a66-f565b0640256" x1="52.46" y1="3521.54" x2="2471.4" y2="1016.65"/>
          <line class="uuid-4ee0ea5b-942d-493b-8a66-f565b0640256" x1="-369.72" y1="2755.37" x2="2049.22" y2="250.48"/>
          <line class="uuid-4ee0ea5b-942d-493b-8a66-f565b0640256" x1="-386.61" y1="2724.72" x2="2032.33" y2="219.83"/>
          <line class="uuid-4ee0ea5b-942d-493b-8a66-f565b0640256" x1="-395.05" y1="2709.4" x2="2023.89" y2="204.51"/>
          <line class="uuid-4ee0ea5b-942d-493b-8a66-f565b0640256" x1="-403.5" y1="2694.08" x2="2015.45" y2="189.19"/>
          <line class="uuid-4ee0ea5b-942d-493b-8a66-f565b0640256" x1="-411.94" y1="2678.75" x2="2007" y2="173.86"/>
          <line class="uuid-4ee0ea5b-942d-493b-8a66-f565b0640256" x1="-420.39" y1="2663.43" x2="1998.56" y2="158.54"/>
          <line class="uuid-4ee0ea5b-942d-493b-8a66-f565b0640256" x1="-428.83" y1="2648.11" x2="1990.12" y2="143.22"/>
          <line class="uuid-4ee0ea5b-942d-493b-8a66-f565b0640256" x1="-437.27" y1="2632.78" x2="1981.67" y2="127.89"/>
          <line class="uuid-4ee0ea5b-942d-493b-8a66-f565b0640256" x1="-445.72" y1="2617.46" x2="1973.23" y2="112.57"/>
          <line class="uuid-4ee0ea5b-942d-493b-8a66-f565b0640256" x1="-454.16" y1="2602.14" x2="1964.78" y2="97.25"/>
          <line class="uuid-4ee0ea5b-942d-493b-8a66-f565b0640256" x1="-462.6" y1="2586.81" x2="1956.34" y2="81.92"/>
          <line class="uuid-4ee0ea5b-942d-493b-8a66-f565b0640256" x1="-471.05" y1="2571.49" x2="1947.9" y2="66.6"/>
          <line class="uuid-4ee0ea5b-942d-493b-8a66-f565b0640256" x1="-479.49" y1="2556.17" x2="1939.45" y2="51.28"/>
          <line class="uuid-4ee0ea5b-942d-493b-8a66-f565b0640256" x1="-487.93" y1="2540.84" x2="1931.01" y2="35.95"/>
          <line class="uuid-4ee0ea5b-942d-493b-8a66-f565b0640256" x1="-496.38" y1="2525.52" x2="1922.57" y2="20.63"/>
          <line class="uuid-4ee0ea5b-942d-493b-8a66-f565b0640256" x1="-504.82" y1="2510.2" x2="1914.12" y2="5.31"/>
          <line class="uuid-4ee0ea5b-942d-493b-8a66-f565b0640256" x1="-513.27" y1="2494.87" x2="1905.68" y2="-10.02"/>
          <line class="uuid-4ee0ea5b-942d-493b-8a66-f565b0640256" x1="-521.71" y1="2479.55" x2="1897.23" y2="-25.34"/>
          <line class="uuid-4ee0ea5b-942d-493b-8a66-f565b0640256" x1="-530.15" y1="2464.23" x2="1888.79" y2="-40.66"/>
          <line class="uuid-4ee0ea5b-942d-493b-8a66-f565b0640256" x1="-538.6" y1="2448.9" x2="1880.35" y2="-55.99"/>
          <line class="uuid-4ee0ea5b-942d-493b-8a66-f565b0640256" x1="-547.04" y1="2433.58" x2="1871.9" y2="-71.31"/>
          <line class="uuid-4ee0ea5b-942d-493b-8a66-f565b0640256" x1="-555.48" y1="2418.25" x2="1863.46" y2="-86.63"/>
          <line class="uuid-4ee0ea5b-942d-493b-8a66-f565b0640256" x1="-563.93" y1="2402.93" x2="1855.02" y2="-101.96"/>
          <line class="uuid-4ee0ea5b-942d-493b-8a66-f565b0640256" x1="-572.37" y1="2387.61" x2="1846.57" y2="-117.28"/>
          <line class="uuid-4ee0ea5b-942d-493b-8a66-f565b0640256" x1="-580.82" y1="2372.28" x2="1838.13" y2="-132.61"/>
          <line class="uuid-4ee0ea5b-942d-493b-8a66-f565b0640256" x1="-589.26" y1="2356.96" x2="1829.69" y2="-147.93"/>
          <line class="uuid-4ee0ea5b-942d-493b-8a66-f565b0640256" x1="-597.7" y1="2341.64" x2="1821.24" y2="-163.25"/>
          <line class="uuid-4ee0ea5b-942d-493b-8a66-f565b0640256" x1="-606.15" y1="2326.31" x2="1812.8" y2="-178.58"/>
          <line class="uuid-4ee0ea5b-942d-493b-8a66-f565b0640256" x1="-614.59" y1="2310.99" x2="1804.35" y2="-193.9"/>
          <line class="uuid-4ee0ea5b-942d-493b-8a66-f565b0640256" x1="-623.03" y1="2295.67" x2="1795.91" y2="-209.22"/>
          <line class="uuid-4ee0ea5b-942d-493b-8a66-f565b0640256" x1="-631.48" y1="2280.34" x2="1787.47" y2="-224.55"/>
          <line class="uuid-4ee0ea5b-942d-493b-8a66-f565b0640256" x1="-639.92" y1="2265.02" x2="1779.02" y2="-239.87"/>
          <line class="uuid-4ee0ea5b-942d-493b-8a66-f565b0640256" x1="-648.36" y1="2249.7" x2="1770.58" y2="-255.19"/>
          <line class="uuid-4ee0ea5b-942d-493b-8a66-f565b0640256" x1="-656.81" y1="2234.37" x2="1762.14" y2="-270.52"/>
          <line class="uuid-4ee0ea5b-942d-493b-8a66-f565b0640256" x1="-665.25" y1="2219.05" x2="1753.69" y2="-285.84"/>
          <line class="uuid-4ee0ea5b-942d-493b-8a66-f565b0640256" x1="-673.7" y1="2203.73" x2="1745.25" y2="-301.16"/>
          <line class="uuid-4ee0ea5b-942d-493b-8a66-f565b0640256" x1="-682.14" y1="2188.4" x2="1736.81" y2="-316.49"/>
          <line class="uuid-4ee0ea5b-942d-493b-8a66-f565b0640256" x1="-690.58" y1="2173.08" x2="1728.36" y2="-331.81"/>
          <line class="uuid-4ee0ea5b-942d-493b-8a66-f565b0640256" x1="-699.03" y1="2157.76" x2="1719.92" y2="-347.13"/>
          <line class="uuid-4ee0ea5b-942d-493b-8a66-f565b0640256" x1="-707.47" y1="2142.43" x2="1711.47" y2="-362.46"/>
          <line class="uuid-4ee0ea5b-942d-493b-8a66-f565b0640256" x1="-378.17" y1="2740.05" x2="2040.78" y2="235.16"/>
          <line class="uuid-4ee0ea5b-942d-493b-8a66-f565b0640256" x1="-335.95" y1="2816.66" x2="2083" y2="311.77"/>
          <line class="uuid-4ee0ea5b-942d-493b-8a66-f565b0640256" x1="-344.39" y1="2801.34" x2="2074.55" y2="296.45"/>
          <line class="uuid-4ee0ea5b-942d-493b-8a66-f565b0640256" x1="-352.84" y1="2786.02" x2="2066.11" y2="281.13"/>
          <line class="uuid-4ee0ea5b-942d-493b-8a66-f565b0640256" x1="-361.28" y1="2770.69" x2="2057.66" y2="265.8"/>
          <line class="uuid-4ee0ea5b-942d-493b-8a66-f565b0640256" x1="79.82" y1="3589.48" x2="2511.59" y2="1071.31"/>
          <line class="uuid-4ee0ea5b-942d-493b-8a66-f565b0640256" x1="71.38" y1="3574.16" x2="2503.15" y2="1055.98"/>
          <line class="uuid-4ee0ea5b-942d-493b-8a66-f565b0640256" x1="62.93" y1="3558.83" x2="2494.71" y2="1040.66"/>
          <line class="uuid-4ee0ea5b-942d-493b-8a66-f565b0640256" x1="54.49" y1="3543.51" x2="2486.26" y2="1025.34"/>
        </g>
      </g>
    </g>
    <g class="uuid-f13a5c82-86ef-4c93-9923-4235c7b5c4b5">
      <g>
        <line class="uuid-4ee0ea5b-942d-493b-8a66-f565b0640256" x1="1059.34" y1="1648.92" x2="6066.29" y2="-3535.92"/>
        <line class="uuid-4ee0ea5b-942d-493b-8a66-f565b0640256" x1="919.52" y1="1395.18" x2="5926.47" y2="-3789.66"/>
        <line class="uuid-4ee0ea5b-942d-493b-8a66-f565b0640256" x1="779.7" y1="1141.44" x2="5786.65" y2="-4043.41"/>
      </g>
    </g>
  </g>
</svg>