<?xml version="1.0" encoding="UTF-8"?>
<svg id="Ebene_1" data-name="Ebene 1" xmlns="http://www.w3.org/2000/svg" viewBox="0 0 501.16 566.85">
  <defs>
    <style>
      .cls-1 {
        fill: #fff;
      }
    </style>
  </defs>
  <path class="cls-1" d="m197.67,157.23c-.82.1-1.51.18-2.21.28-4.95.68-9.81,1.77-14.52,3.5-1.38.51-4.44,1.73-5.92,2.5-.79.41-1.12.82-1.04,1.82.56,7.13,4.12,12.73,9.76,16.47.76.5,1.28.48,2.02-.05.89-.66,8.76-6.39,11.09-8.03.68-.48.92-1.01.91-1.87-.03-4.42-.06-14.11-.09-14.62Zm0,0c-.82.1-1.51.18-2.21.28-4.95.68-9.81,1.77-14.52,3.5-1.38.51-4.44,1.73-5.92,2.5-.79.41-1.12.82-1.04,1.82.56,7.13,4.12,12.73,9.76,16.47.76.5,1.28.48,2.02-.05.89-.66,8.76-6.39,11.09-8.03.68-.48.92-1.01.91-1.87-.03-4.42-.06-14.11-.09-14.62Zm0,0c-.82.1-1.51.18-2.21.28-4.95.68-9.81,1.77-14.52,3.5-1.38.51-4.44,1.73-5.92,2.5-.79.41-1.12.82-1.04,1.82.56,7.13,4.12,12.73,9.76,16.47.76.5,1.28.48,2.02-.05.89-.66,8.76-6.39,11.09-8.03.68-.48.92-1.01.91-1.87-.03-4.42-.06-14.11-.09-14.62Zm144.18-11.81c-.53-1.45-1.14-2.88-1.91-4.28-2.23-4.06-5.17-7.45-9.62-9.39-.86-.37-1.5-.4-2.3.28-2.58,2.19-5.24,4.3-7.92,6.4-.77.6-1.1,1.22-1.1,2.2.05,5.37.03,10.74.03,16.11s-.02,10.82.02,16.23c.01.52.21,1.21.58,1.53,4.08,3.5,8.68,6.06,14.02,7.32.94.23,1.65.05,2.38-.49,1.99-1.49,3.36-3.44,4.44-5.59.56-1.11,1.02-2.24,1.41-3.38,1.14-3.35,1.65-6.84,1.92-10.38.43-5.71-.01-11.27-1.95-16.56Zm-144.18,11.81c-.82.1-1.51.18-2.21.28-4.95.68-9.81,1.77-14.52,3.5-1.38.51-4.44,1.73-5.92,2.5-.79.41-1.12.82-1.04,1.82.56,7.13,4.12,12.73,9.76,16.47.76.5,1.28.48,2.02-.05.89-.66,8.76-6.39,11.09-8.03.68-.48.92-1.01.91-1.87-.03-4.42-.06-14.11-.09-14.62Zm144.18-11.81c-.53-1.45-1.14-2.88-1.91-4.28-2.23-4.06-5.17-7.45-9.62-9.39-.86-.37-1.5-.4-2.3.28-2.58,2.19-5.24,4.3-7.92,6.4-.77.6-1.1,1.22-1.1,2.2.05,5.37.03,10.74.03,16.11s-.02,10.82.02,16.23c.01.52.21,1.21.58,1.53,4.08,3.5,8.68,6.06,14.02,7.32.94.23,1.65.05,2.38-.49,1.99-1.49,3.36-3.44,4.44-5.59.56-1.11,1.02-2.24,1.41-3.38,1.14-3.35,1.65-6.84,1.92-10.38.43-5.71-.01-11.27-1.95-16.56Zm-144.18,11.81c-.82.1-1.51.18-2.21.28-4.95.68-9.81,1.77-14.52,3.5-1.38.51-4.44,1.73-5.92,2.5-.79.41-1.12.82-1.04,1.82.56,7.13,4.12,12.73,9.76,16.47.76.5,1.28.48,2.02-.05.89-.66,8.76-6.39,11.09-8.03.68-.48.92-1.01.91-1.87-.03-4.42-.06-14.11-.09-14.62Zm144.18-11.81c-.53-1.45-1.14-2.88-1.91-4.28-2.23-4.06-5.17-7.45-9.62-9.39-.86-.37-1.5-.4-2.3.28-2.58,2.19-5.24,4.3-7.92,6.4-.77.6-1.1,1.22-1.1,2.2.05,5.37.03,10.74.03,16.11s-.02,10.82.02,16.23c.01.52.21,1.21.58,1.53,4.08,3.5,8.68,6.06,14.02,7.32.94.23,1.65.05,2.38-.49,1.99-1.49,3.36-3.44,4.44-5.59.56-1.11,1.02-2.24,1.41-3.38,1.14-3.35,1.65-6.84,1.92-10.38.43-5.71-.01-11.27-1.95-16.56Zm-144.18,11.81c-.82.1-1.51.18-2.21.28-4.95.68-9.81,1.77-14.52,3.5-1.38.51-4.44,1.73-5.92,2.5-.79.41-1.12.82-1.04,1.82.56,7.13,4.12,12.73,9.76,16.47.76.5,1.28.48,2.02-.05.89-.66,8.76-6.39,11.09-8.03.68-.48.92-1.01.91-1.87-.03-4.42-.06-14.11-.09-14.62Zm144.18-11.81c-.53-1.45-1.14-2.88-1.91-4.28-2.23-4.06-5.17-7.45-9.62-9.39-.86-.37-1.5-.4-2.3.28-2.58,2.19-5.24,4.3-7.92,6.4-.77.6-1.1,1.22-1.1,2.2.05,5.37.03,10.74.03,16.11s-.02,10.82.02,16.23c.01.52.21,1.21.58,1.53,4.08,3.5,8.68,6.06,14.02,7.32.94.23,1.65.05,2.38-.49,1.99-1.49,3.36-3.44,4.44-5.59.56-1.11,1.02-2.24,1.41-3.38,1.14-3.35,1.65-6.84,1.92-10.38.43-5.71-.01-11.27-1.95-16.56Zm-194.32,131.44c-1-9.9-6.01-17.36-15.15-22.11-.89-.46-1.51-.45-2.29.19-2.08,1.7-4.19,3.34-6.35,4.93-.78.57-1,1.19-1,2.11.04,6.2.02,12.41.02,18.62s.06,12.17-.04,18.25c-.02,1.41.38,2.19,1.78,2.5.29.07,9.28,1.84,13.48,2.68,1.22.25,2.06-.17,2.85-.97,1.99-1.98,3.35-4.32,4.33-6.89,2.38-6.25,3.02-12.75,2.37-19.31Zm50.14-119.63c-.82.1-1.51.18-2.21.28-4.95.68-9.81,1.77-14.52,3.5-1.38.51-4.44,1.73-5.92,2.5-.79.41-1.12.82-1.04,1.82.56,7.13,4.12,12.73,9.76,16.47.76.5,1.28.48,2.02-.05.89-.66,8.76-6.39,11.09-8.03.68-.48.92-1.01.91-1.87-.03-4.42-.06-14.11-.09-14.62Zm34.74,116.58c-.81.1-1.5.19-2.2.29-4.96.68-9.82,1.77-14.52,3.5-1.39.5-4.44,1.73-5.92,2.5-.79.41-1.13.82-1.05,1.81.56,7.14,4.12,12.74,9.76,16.47.77.51,1.29.49,2.02-.05.89-.66,8.76-6.39,11.09-8.02.68-.48.92-1.01.92-1.87-.04-4.43-.07-14.12-.1-14.63Zm109.44-128.39c-.53-1.45-1.14-2.88-1.91-4.28-2.23-4.06-5.17-7.45-9.62-9.39-.86-.37-1.5-.4-2.3.28-2.58,2.19-5.24,4.3-7.92,6.4-.77.6-1.1,1.22-1.1,2.2.05,5.37.03,10.74.03,16.11s-.02,10.82.02,16.23c.01.52.21,1.21.58,1.53,4.08,3.5,8.68,6.06,14.02,7.32.94.23,1.65.05,2.38-.49,1.99-1.49,3.36-3.44,4.44-5.59.56-1.11,1.02-2.24,1.41-3.38,1.14-3.35,1.65-6.84,1.92-10.38.43-5.71-.01-11.27-1.95-16.56Zm-194.32,131.44c-1-9.9-6.01-17.36-15.15-22.11-.89-.46-1.51-.45-2.29.19-2.08,1.7-4.19,3.34-6.35,4.93-.78.57-1,1.19-1,2.11.04,6.2.02,12.41.02,18.62s.06,12.17-.04,18.25c-.02,1.41.38,2.19,1.78,2.5.29.07,9.28,1.84,13.48,2.68,1.22.25,2.06-.17,2.85-.97,1.99-1.98,3.35-4.32,4.33-6.89,2.38-6.25,3.02-12.75,2.37-19.31Zm50.14-119.63c-.82.1-1.51.18-2.21.28-4.95.68-9.81,1.77-14.52,3.5-1.38.51-4.44,1.73-5.92,2.5-.79.41-1.12.82-1.04,1.82.56,7.13,4.12,12.73,9.76,16.47.76.5,1.28.48,2.02-.05.89-.66,8.76-6.39,11.09-8.03.68-.48.92-1.01.91-1.87-.03-4.42-.06-14.11-.09-14.62Zm34.74,116.58c-.81.1-1.5.19-2.2.29-4.96.68-9.82,1.77-14.52,3.5-1.39.5-4.44,1.73-5.92,2.5-.79.41-1.13.82-1.05,1.81.56,7.14,4.12,12.74,9.76,16.47.77.51,1.29.49,2.02-.05.89-.66,8.76-6.39,11.09-8.02.68-.48.92-1.01.92-1.87-.04-4.43-.07-14.12-.1-14.63Zm109.44-128.39c-.53-1.45-1.14-2.88-1.91-4.28-2.23-4.06-5.17-7.45-9.62-9.39-.86-.37-1.5-.4-2.3.28-2.58,2.19-5.24,4.3-7.92,6.4-.77.6-1.1,1.22-1.1,2.2.05,5.37.03,10.74.03,16.11s-.02,10.82.02,16.23c.01.52.21,1.21.58,1.53,4.08,3.5,8.68,6.06,14.02,7.32.94.23,1.65.05,2.38-.49,1.99-1.49,3.36-3.44,4.44-5.59.56-1.11,1.02-2.24,1.41-3.38,1.14-3.35,1.65-6.84,1.92-10.38.43-5.71-.01-11.27-1.95-16.56Zm-194.32,131.44c-1-9.9-6.01-17.36-15.15-22.11-.89-.46-1.51-.45-2.29.19-2.08,1.7-4.19,3.34-6.35,4.93-.78.57-1,1.19-1,2.11.04,6.2.02,12.41.02,18.62s.06,12.17-.04,18.25c-.02,1.41.38,2.19,1.78,2.5.29.07,9.28,1.84,13.48,2.68,1.22.25,2.06-.17,2.85-.97,1.99-1.98,3.35-4.32,4.33-6.89,2.38-6.25,3.02-12.75,2.37-19.31Zm50.14-119.63c-.82.1-1.51.18-2.21.28-4.95.68-9.81,1.77-14.52,3.5-1.38.51-4.44,1.73-5.92,2.5-.79.41-1.12.82-1.04,1.82.56,7.13,4.12,12.73,9.76,16.47.76.5,1.28.48,2.02-.05.89-.66,8.76-6.39,11.09-8.03.68-.48.92-1.01.91-1.87-.03-4.42-.06-14.11-.09-14.62Zm34.74,116.58c-.81.1-1.5.19-2.2.29-4.96.68-9.82,1.77-14.52,3.5-1.39.5-4.44,1.73-5.92,2.5-.79.41-1.13.82-1.05,1.81.56,7.14,4.12,12.74,9.76,16.47.77.51,1.29.49,2.02-.05.89-.66,8.76-6.39,11.09-8.02.68-.48.92-1.01.92-1.87-.04-4.43-.07-14.12-.1-14.63Zm29.22,123.1c-.81.1-1.5.18-2.2.28-4.96.69-9.82,1.77-14.52,3.5-1.39.51-4.44,1.73-5.92,2.5-.79.41-1.13.82-1.05,1.82.56,7.13,4.12,12.73,9.76,16.47.77.5,1.29.48,2.02-.05.89-.66,8.76-6.39,11.09-8.03.68-.48.92-1.01.92-1.87-.04-4.42-.07-14.11-.1-14.62Zm80.22-251.49c-.53-1.45-1.14-2.88-1.91-4.28-2.23-4.06-5.17-7.45-9.62-9.39-.86-.37-1.5-.4-2.3.28-2.58,2.19-5.24,4.3-7.92,6.4-.77.6-1.1,1.22-1.1,2.2.05,5.37.03,10.74.03,16.11s-.02,10.82.02,16.23c.01.52.21,1.21.58,1.53,4.08,3.5,8.68,6.06,14.02,7.32.94.23,1.65.05,2.38-.49,1.99-1.49,3.36-3.44,4.44-5.59.56-1.11,1.02-2.24,1.41-3.38,1.14-3.35,1.65-6.84,1.92-10.38.43-5.71-.01-11.27-1.95-16.56Zm-80.22,251.49c-.81.1-1.5.18-2.2.28-4.96.69-9.82,1.77-14.52,3.5-1.39.51-4.44,1.73-5.92,2.5-.79.41-1.13.82-1.05,1.82.56,7.13,4.12,12.73,9.76,16.47.77.5,1.29.48,2.02-.05.89-.66,8.76-6.39,11.09-8.03.68-.48.92-1.01.92-1.87-.04-4.42-.07-14.11-.1-14.62Zm-114.1-120.05c-1-9.9-6.01-17.36-15.15-22.11-.89-.46-1.51-.45-2.29.19-2.08,1.7-4.19,3.34-6.35,4.93-.78.57-1,1.19-1,2.11.04,6.2.02,12.41.02,18.62s.06,12.17-.04,18.25c-.02,1.41.38,2.19,1.78,2.5.29.07,9.28,1.84,13.48,2.68,1.22.25,2.06-.17,2.85-.97,1.99-1.98,3.35-4.32,4.33-6.89,2.38-6.25,3.02-12.75,2.37-19.31Zm50.14-119.63c-.82.1-1.51.18-2.21.28-4.95.68-9.81,1.77-14.52,3.5-1.38.51-4.44,1.73-5.92,2.5-.79.41-1.12.82-1.04,1.82.56,7.13,4.12,12.73,9.76,16.47.76.5,1.28.48,2.02-.05.89-.66,8.76-6.39,11.09-8.03.68-.48.92-1.01.91-1.87-.03-4.42-.06-14.11-.09-14.62Zm34.74,116.58c-.81.1-1.5.19-2.2.29-4.96.68-9.82,1.77-14.52,3.5-1.39.5-4.44,1.73-5.92,2.5-.79.41-1.13.82-1.05,1.81.56,7.14,4.12,12.74,9.76,16.47.77.51,1.29.49,2.02-.05.89-.66,8.76-6.39,11.09-8.02.68-.48.92-1.01.92-1.87-.04-4.43-.07-14.12-.1-14.63Zm109.44-128.39c-.53-1.45-1.14-2.88-1.91-4.28-2.23-4.06-5.17-7.45-9.62-9.39-.86-.37-1.5-.4-2.3.28-2.58,2.19-5.24,4.3-7.92,6.4-.77.6-1.1,1.22-1.1,2.2.05,5.37.03,10.74.03,16.11s-.02,10.82.02,16.23c.01.52.21,1.21.58,1.53,4.08,3.5,8.68,6.06,14.02,7.32.94.23,1.65.05,2.38-.49,1.99-1.49,3.36-3.44,4.44-5.59.56-1.11,1.02-2.24,1.41-3.38,1.14-3.35,1.65-6.84,1.92-10.38.43-5.71-.01-11.27-1.95-16.56ZM467.21,0C447.88-.27,165.37,18.09,24.93,86.7,5.88,96.01-1.57,107.09.27,132.06c13.2,178.02,32.5,319.73,205,425.65,18,12.64,30.38,12.15,47.61-1.33,74.93-58.68,150.59-116.2,226.7-172.9,16.01-11.93,21.73-25.21,21.58-46.57V28.9C501.11,11.16,486.55.28,467.21,0Zm-156.7,112.12c1.85-.24,1.82-.27,2.39,1.46,1.36,4.2,3.64,11.6,3.64,11.6,0,0,10.68-7.95,15.65-11.87.73-.57,1.88-1.03,2.78-1.01,4.58.07,8.22,1.12,12.38,2.88,8.03,3.4,14.63,8.49,19.4,15.69,4.93,7.46,6.7,15.7,6.31,24.43-.41,9.33-3.22,17.86-9.5,25.09-6.39,7.37-14.45,12.21-24.37,13.5-3.74.48-7.63.01-11.43-.26-2.86-.21-5.68-.81-8.67-1.25l.13,18.11s-18.32,6.53-18.8,6.72c-.74.27-1.67.31-2.46.13-2.18-.47-5.73-1.22-6.01-1.29-.49-.11-.96-.29-.96-1.09,0-.32-.01-100.35-.01-100.35,6.55-.84,12.97-1.64,19.53-2.49Zm-76.32-12.89c-.03-.97.24-1.38,1.28-1.53,6.88-1,26.4-4.03,29.29-4.42.63-.08,1.37,0,1.95.26,1.65.7,3.22,1.56,4.86,2.3.68.31.9.7.92,1.44.01.53-.01,100.13-.01,100.13h-28.23s-.03-81.13-.03-84.54c0-.9-.26-1.33-1.16-1.6-2.55-.76-5.05-1.67-7.59-2.4-1.05-.3-1.31-.77-1.28-1.76.07-2.63.07-5.25,0-7.88Zm-2.93,161.07c-.95-4.99-3.11-9.35-7.53-12.36-2.31-1.59-4.86-2.45-7.63-2.62-2.33-.14-3.13,0-3.76.06-1,.08-1.62.32-2.13,1.23-2.32,4.13-4.62,8.82-6.96,12.94-.41.72-.88.98-1.72.97-2.62-.05-5.25-.03-7.86-.02-.63.01-1.05-.08-1.16-.83-.69-4.95-1.41-9.89-2.17-14.83-.14-.87.08-1.36.83-1.86,3.22-2.11,6.65-3.75,10.23-4.98,2.57-.88,7.64-2.26,10.36-2.76,8.42-1.52,16.85-1.67,25.18.51,11.48,2.99,18.95,10.03,22.28,21.12,1.26,4.2,1.65,8.5,1.65,12.85,0,9.16.2,44.27.2,44.27-7.11,0-14.22-.01-21.33.02-1.05,0-1.5-.28-1.8-1.26-1.03-3.44-3.01-9.41-3.01-9.41,0,0-9.89,8.76-13.64,12.14-.47.42-1.27.7-1.9.72-18.68.66-31.56-9.65-34.92-25.07-.32-1.46-2.03-13.38,1.74-15.96,5.32-3.64,11.73-5.37,17.2-6.88,8.84-2.44,28.1-5.63,28.1-5.63,0,0,.08-.62-.25-2.36Zm-79.79-101.72c5.32-3.63,11.72-5.36,17.19-6.88,8.84-2.44,28.1-5.63,28.1-5.63,0,0,.08-.61-.25-2.36-.94-4.98-3.1-9.34-7.52-12.36-2.32-1.58-4.86-2.45-7.64-2.61-2.33-.14-3.13.01-3.75.05-1,.08-1.62.33-2.13,1.23-2.33,4.13-4.62,8.83-6.96,12.95-.42.72-.88.98-1.72.96-2.63-.05-5.25-.02-7.87-.01-.62,0-1.04-.08-1.15-.83-.69-4.95-1.41-9.9-2.18-14.84-.14-.87.09-1.36.83-1.85,3.23-2.12,6.65-3.76,10.24-4.99,2.57-.88,7.63-2.26,10.36-2.75,8.41-1.53,16.85-1.67,25.18.5,11.47,2.99,18.94,10.04,22.27,21.13,1.26,4.2,1.66,8.49,1.66,12.84,0,9.16.19,44.28.19,44.28-7.11,0-14.22-.01-21.33.01-1.04.01-1.49-.28-1.79-1.26-1.03-3.43-3.01-9.4-3.01-9.4,0,0-9.9,8.76-13.64,12.13-.47.43-1.27.71-1.9.73-18.68.65-31.56-9.66-34.93-25.07-.32-1.46-2.03-13.39,1.75-15.97Zm-16.62,157.34c-12.33-.51-39.23-1.75-40.39-1.79v-101.14c4.58-.7,18.27-2.83,20.57-3.11.67-.08,1.44.06,2.06.31,1.53.65,2.98,1.5,4.52,2.14.89.37,1.18.86,1.17,1.79-.04,7.33-.02,31.02-.02,31.02,0,0,9.11-6.75,14.1-10.1.98-.66,2.13-1.04,3.09-.98,9.29.53,17.06,4.26,23.51,10.62,6.53,6.45,10.04,14.33,11.24,23.21,1.23,8.98.58,17.82-2.85,26.31-4.31,10.65-12.42,17.23-23.73,20.23-4.34,1.15-8.78,1.68-13.27,1.49Zm52.79,123.48c-5.05-.46-9.98-1.26-14.48-3.67-5.5-2.95-8.8-7.56-10.61-13.27-2.21-6.99-2.36-14.2-2.39-21.41-.04-8.33-.02-19.31.02-27.64,0-1.01-.28-1.56-1.27-1.97-2.57-1.08-5.05-2.22-7.61-3.4-.9-.41-1.16-.88-1.15-1.79.02-2.67.03-5.28,0-8-.01-.89.23-1.32,1.19-1.56,3.35-.83,6.64-1.69,10.08-2.56.86-.21,1.34-.64,1.84-1.37,5.29-7.68,7.19-10.48,12.67-18.63.59-.9,1.11-1.22,2.21-1.22,2.66,0,6.45.01,9.12.01,1.08,0,1.39.28,1.38,1.31-.03,9-.12,12.28-.16,21.28-.01,1.18.31,1.56,1.57,1.55,7.82-.05,18.02-.03,18.02-.03l-.04,12.78s-15.66.98-18.54,1.14c-.7.04-1.04.28-.99.98.01.12,0,.25,0,.38.05,10.82.06,24.3.18,35.13.04,4.05.43,8.08,1.83,11.93,1.37,3.75,3.83,7.01,7.99,7.29,2.33.16,5.53-1.46,7.29-2.4l6.46,8.8c-7.04,4.96-15.18,7.21-24.61,6.34Zm81.32-2.3c-1.05.01-1.5-.28-1.8-1.26-1.03-3.43-3.01-9.4-3.01-9.4,0,0-9.89,8.76-13.64,12.13-.47.43-1.27.71-1.9.73-18.68.65-31.56-9.65-34.92-25.07-.32-1.46-2.03-13.39,1.74-15.97,5.32-3.63,11.73-5.36,17.2-6.87,8.84-2.45,28.1-5.64,28.1-5.64,0,0,.08-.61-.25-2.36-.95-4.98-3.11-9.34-7.53-12.36-2.31-1.58-4.86-2.45-7.63-2.61-2.33-.14-3.13.01-3.76.06-1,.07-1.62.32-2.13,1.22-2.33,4.13-4.62,8.83-6.96,12.95-.41.72-.88.98-1.72.97-2.62-.06-5.25-.03-7.87-.02-.62,0-1.04-.08-1.15-.83-.69-4.95-1.41-9.9-2.17-14.84-.14-.87.08-1.36.83-1.85,3.22-2.12,6.65-3.76,10.23-4.99,2.57-.88,7.64-2.25,10.36-2.75,8.42-1.53,16.85-1.67,25.18.5,11.48,3,18.95,10.04,22.28,21.13,1.26,4.2,1.65,8.49,1.65,12.84,0,9.16.2,44.28.2,44.28-7.11,0-14.22-.01-21.33.01Zm65.5-.07h-28.24s-.02-81.13-.02-84.54c0-.9-.26-1.33-1.17-1.6-2.54-.76-5.04-1.67-7.59-2.4-1.04-.3-1.3-.77-1.28-1.76.07-2.63.07-5.25,0-7.88-.02-.97.24-1.38,1.29-1.53,6.88-1,26.39-4.03,29.28-4.42.63-.08,1.37.01,1.95.26,1.65.7,3.23,1.56,4.87,2.3.68.31.89.7.91,1.44.02.53,0,100.13,0,100.13Zm10.46-132.89c-11.43,9.94-24.62,14.08-39.89,11.3-13.23-2.4-23.14-9.23-29.19-20.96-4.28-8.3-5.4-17.13-4.08-26.27,1.19-8.23,4.5-15.51,10.46-21.56,6.22-6.31,13.94-9.89,22.67-11.58,11.26-2.18,22.16-1,32.62,3.6,2.15.94,4.14,2.2,6.2,3.31.63.34.83.81.75,1.54-.79,6.5-1.58,12.99-2.27,19.49-.11,1.04-.52,1.21-1.44,1.19-2.23-.05-4.47-.06-6.71.01-.88.02-1.28-.27-1.57-1.07-1.29-3.67-2.73-7.28-3.95-10.96-.47-1.45-1.32-2.39-2.61-3.06-3-1.59-7.39-2.47-11.31-3.09-3.41-.54-5.35.95-7.05,3.36-3.04,4.3-4.52,9.13-5.29,14.2-.93,6.09-1.42,12.18.07,18.26,1.66,6.77,3.65,11.65,9.66,15.8,4.89,3.38,6.78,3.12,10.38,2.25,3.6-.87,11.84-3.88,17.66-7.1,2.01,2.7,4.95,6.5,7,9.25-.71.7-1.36,1.44-2.11,2.09Zm93.02,9.72h-28.62s.33-42.77-.07-45.94c-.87-6.86-5.45-9.51-11.86-11.03-.57-.14-1.39.03-1.86.36-2.84,2.02-5.64,4.1-8.39,6.23-.42.33-.76,1.02-.76,1.55-.05,11.61.15,48.83.15,48.83h-28.61v-100.86c4.56-.69,18.38-2.84,20.73-3.13.63-.08,1.36.05,1.94.3,1.53.65,2.98,1.51,4.52,2.13,1.02.42,1.26,1.01,1.25,2-.03,16.38-.01,34.18-.01,34.18,2.54-2.21,12.87-11.22,15.84-13.76.38-.33.98-.66,1.43-.62,11.04,1,20.92,4.4,28.04,13.16,4.17,5.12,6.06,11.12,6.17,17.55.19,10.7.09,25.19.09,32.12s.02,16.93.02,16.93Zm-118.91-157.12c0,5.41-.02,10.82.02,16.23.01.52.21,1.21.58,1.53,4.08,3.5,8.68,6.06,14.02,7.32.94.23,1.65.05,2.38-.49,1.99-1.49,3.36-3.44,4.44-5.59.56-1.11,1.02-2.24,1.41-3.38,1.14-3.35,1.65-6.84,1.92-10.38.43-5.71-.01-11.27-1.95-16.56-.53-1.45-1.14-2.88-1.91-4.28-2.23-4.06-5.17-7.45-9.62-9.39-.86-.37-1.5-.4-2.3.28-2.58,2.19-5.24,4.3-7.92,6.4-.77.6-1.1,1.22-1.1,2.2.05,5.37.03,10.74.03,16.11Zm-59.6,240.45c-4.96.69-9.82,1.77-14.52,3.5-1.39.51-4.44,1.73-5.92,2.5-.79.41-1.13.82-1.05,1.82.56,7.13,4.12,12.73,9.76,16.47.77.5,1.29.48,2.02-.05.89-.66,8.76-6.39,11.09-8.03.68-.48.92-1.01.92-1.87-.04-4.42-.07-14.11-.1-14.62-.81.1-1.5.18-2.2.28Zm-43.74-119.59c-1.39.5-4.44,1.73-5.92,2.5-.79.41-1.13.82-1.05,1.81.56,7.14,4.12,12.74,9.76,16.47.77.51,1.29.49,2.02-.05.89-.66,8.76-6.39,11.09-8.02.68-.48.92-1.01.92-1.87-.04-4.43-.07-14.12-.1-14.63-.81.1-1.5.19-2.2.29-4.96.68-9.82,1.77-14.52,3.5Zm-31.95-95.8c.76.5,1.28.48,2.02-.05.89-.66,8.76-6.39,11.09-8.03.68-.48.92-1.01.91-1.87-.03-4.42-.06-14.11-.09-14.62-.82.1-1.51.18-2.21.28-4.95.68-9.81,1.77-14.52,3.5-1.38.51-4.44,1.73-5.92,2.5-.79.41-1.12.82-1.04,1.82.56,7.13,4.12,12.73,9.76,16.47Zm-51.36,72.95c-.89-.46-1.51-.45-2.29.19-2.08,1.7-4.19,3.34-6.35,4.93-.78.57-1,1.19-1,2.11.04,6.2.02,12.41.02,18.62s.06,12.17-.04,18.25c-.02,1.41.38,2.19,1.78,2.5.29.07,9.28,1.84,13.48,2.68,1.22.25,2.06-.17,2.85-.97,1.99-1.98,3.35-4.32,4.33-6.89,2.38-6.25,3.02-12.75,2.37-19.31-1-9.9-6.01-17.36-15.15-22.11Zm209.47-109.33c-.53-1.45-1.14-2.88-1.91-4.28-2.23-4.06-5.17-7.45-9.62-9.39-.86-.37-1.5-.4-2.3.28-2.58,2.19-5.24,4.3-7.92,6.4-.77.6-1.1,1.22-1.1,2.2.05,5.37.03,10.74.03,16.11s-.02,10.82.02,16.23c.01.52.21,1.21.58,1.53,4.08,3.5,8.68,6.06,14.02,7.32.94.23,1.65.05,2.38-.49,1.99-1.49,3.36-3.44,4.44-5.59.56-1.11,1.02-2.24,1.41-3.38,1.14-3.35,1.65-6.84,1.92-10.38.43-5.71-.01-11.27-1.95-16.56Zm-109.44,128.39c-.81.1-1.5.19-2.2.29-4.96.68-9.82,1.77-14.52,3.5-1.39.5-4.44,1.73-5.92,2.5-.79.41-1.13.82-1.05,1.81.56,7.14,4.12,12.74,9.76,16.47.77.51,1.29.49,2.02-.05.89-.66,8.76-6.39,11.09-8.02.68-.48.92-1.01.92-1.87-.04-4.43-.07-14.12-.1-14.63Zm-34.74-116.58c-.82.1-1.51.18-2.21.28-4.95.68-9.81,1.77-14.52,3.5-1.38.51-4.44,1.73-5.92,2.5-.79.41-1.12.82-1.04,1.82.56,7.13,4.12,12.73,9.76,16.47.76.5,1.28.48,2.02-.05.89-.66,8.76-6.39,11.09-8.03.68-.48.92-1.01.91-1.87-.03-4.42-.06-14.11-.09-14.62Zm-50.14,119.63c-1-9.9-6.01-17.36-15.15-22.11-.89-.46-1.51-.45-2.29.19-2.08,1.7-4.19,3.34-6.35,4.93-.78.57-1,1.19-1,2.11.04,6.2.02,12.41.02,18.62s.06,12.17-.04,18.25c-.02,1.41.38,2.19,1.78,2.5.29.07,9.28,1.84,13.48,2.68,1.22.25,2.06-.17,2.85-.97,1.99-1.98,3.35-4.32,4.33-6.89,2.38-6.25,3.02-12.75,2.37-19.31Zm194.32-131.44c-.53-1.45-1.14-2.88-1.91-4.28-2.23-4.06-5.17-7.45-9.62-9.39-.86-.37-1.5-.4-2.3.28-2.58,2.19-5.24,4.3-7.92,6.4-.77.6-1.1,1.22-1.1,2.2.05,5.37.03,10.74.03,16.11s-.02,10.82.02,16.23c.01.52.21,1.21.58,1.53,4.08,3.5,8.68,6.06,14.02,7.32.94.23,1.65.05,2.38-.49,1.99-1.49,3.36-3.44,4.44-5.59.56-1.11,1.02-2.24,1.41-3.38,1.14-3.35,1.65-6.84,1.92-10.38.43-5.71-.01-11.27-1.95-16.56Zm-109.44,128.39c-.81.1-1.5.19-2.2.29-4.96.68-9.82,1.77-14.52,3.5-1.39.5-4.44,1.73-5.92,2.5-.79.41-1.13.82-1.05,1.81.56,7.14,4.12,12.74,9.76,16.47.77.51,1.29.49,2.02-.05.89-.66,8.76-6.39,11.09-8.02.68-.48.92-1.01.92-1.87-.04-4.43-.07-14.12-.1-14.63Zm-34.74-116.58c-.82.1-1.51.18-2.21.28-4.95.68-9.81,1.77-14.52,3.5-1.38.51-4.44,1.73-5.92,2.5-.79.41-1.12.82-1.04,1.82.56,7.13,4.12,12.73,9.76,16.47.76.5,1.28.48,2.02-.05.89-.66,8.76-6.39,11.09-8.03.68-.48.92-1.01.91-1.87-.03-4.42-.06-14.11-.09-14.62Zm-50.14,119.63c-1-9.9-6.01-17.36-15.15-22.11-.89-.46-1.51-.45-2.29.19-2.08,1.7-4.19,3.34-6.35,4.93-.78.57-1,1.19-1,2.11.04,6.2.02,12.41.02,18.62s.06,12.17-.04,18.25c-.02,1.41.38,2.19,1.78,2.5.29.07,9.28,1.84,13.48,2.68,1.22.25,2.06-.17,2.85-.97,1.99-1.98,3.35-4.32,4.33-6.89,2.38-6.25,3.02-12.75,2.37-19.31Zm194.32-131.44c-.53-1.45-1.14-2.88-1.91-4.28-2.23-4.06-5.17-7.45-9.62-9.39-.86-.37-1.5-.4-2.3.28-2.58,2.19-5.24,4.3-7.92,6.4-.77.6-1.1,1.22-1.1,2.2.05,5.37.03,10.74.03,16.11s-.02,10.82.02,16.23c.01.52.21,1.21.58,1.53,4.08,3.5,8.68,6.06,14.02,7.32.94.23,1.65.05,2.38-.49,1.99-1.49,3.36-3.44,4.44-5.59.56-1.11,1.02-2.24,1.41-3.38,1.14-3.35,1.65-6.84,1.92-10.38.43-5.71-.01-11.27-1.95-16.56Zm-109.44,128.39c-.81.1-1.5.19-2.2.29-4.96.68-9.82,1.77-14.52,3.5-1.39.5-4.44,1.73-5.92,2.5-.79.41-1.13.82-1.05,1.81.56,7.14,4.12,12.74,9.76,16.47.77.51,1.29.49,2.02-.05.89-.66,8.76-6.39,11.09-8.02.68-.48.92-1.01.92-1.87-.04-4.43-.07-14.12-.1-14.63Zm-34.74-116.58c-.82.1-1.51.18-2.21.28-4.95.68-9.81,1.77-14.52,3.5-1.38.51-4.44,1.73-5.92,2.5-.79.41-1.12.82-1.04,1.82.56,7.13,4.12,12.73,9.76,16.47.76.5,1.28.48,2.02-.05.89-.66,8.76-6.39,11.09-8.03.68-.48.92-1.01.91-1.87-.03-4.42-.06-14.11-.09-14.62Zm144.18-11.81c-.53-1.45-1.14-2.88-1.91-4.28-2.23-4.06-5.17-7.45-9.62-9.39-.86-.37-1.5-.4-2.3.28-2.58,2.19-5.24,4.3-7.92,6.4-.77.6-1.1,1.22-1.1,2.2.05,5.37.03,10.74.03,16.11s-.02,10.82.02,16.23c.01.52.21,1.21.58,1.53,4.08,3.5,8.68,6.06,14.02,7.32.94.23,1.65.05,2.38-.49,1.99-1.49,3.36-3.44,4.44-5.59.56-1.11,1.02-2.24,1.41-3.38,1.14-3.35,1.65-6.84,1.92-10.38.43-5.71-.01-11.27-1.95-16.56Zm-109.44,128.39c-.81.1-1.5.19-2.2.29-4.96.68-9.82,1.77-14.52,3.5-1.39.5-4.44,1.73-5.92,2.5-.79.41-1.13.82-1.05,1.81.56,7.14,4.12,12.74,9.76,16.47.77.51,1.29.49,2.02-.05.89-.66,8.76-6.39,11.09-8.02.68-.48.92-1.01.92-1.87-.04-4.43-.07-14.12-.1-14.63Zm-34.74-116.58c-.82.1-1.51.18-2.21.28-4.95.68-9.81,1.77-14.52,3.5-1.38.51-4.44,1.73-5.92,2.5-.79.41-1.12.82-1.04,1.82.56,7.13,4.12,12.73,9.76,16.47.76.5,1.28.48,2.02-.05.89-.66,8.76-6.39,11.09-8.03.68-.48.92-1.01.91-1.87-.03-4.42-.06-14.11-.09-14.62Zm144.18-11.81c-.53-1.45-1.14-2.88-1.91-4.28-2.23-4.06-5.17-7.45-9.62-9.39-.86-.37-1.5-.4-2.3.28-2.58,2.19-5.24,4.3-7.92,6.4-.77.6-1.1,1.22-1.1,2.2.05,5.37.03,10.74.03,16.11s-.02,10.82.02,16.23c.01.52.21,1.21.58,1.53,4.08,3.5,8.68,6.06,14.02,7.32.94.23,1.65.05,2.38-.49,1.99-1.49,3.36-3.44,4.44-5.59.56-1.11,1.02-2.24,1.41-3.38,1.14-3.35,1.65-6.84,1.92-10.38.43-5.71-.01-11.27-1.95-16.56Zm-144.18,11.81c-.82.1-1.51.18-2.21.28-4.95.68-9.81,1.77-14.52,3.5-1.38.51-4.44,1.73-5.92,2.5-.79.41-1.12.82-1.04,1.82.56,7.13,4.12,12.73,9.76,16.47.76.5,1.28.48,2.02-.05.89-.66,8.76-6.39,11.09-8.03.68-.48.92-1.01.91-1.87-.03-4.42-.06-14.11-.09-14.62Zm144.18-11.81c-.53-1.45-1.14-2.88-1.91-4.28-2.23-4.06-5.17-7.45-9.62-9.39-.86-.37-1.5-.4-2.3.28-2.58,2.19-5.24,4.3-7.92,6.4-.77.6-1.1,1.22-1.1,2.2.05,5.37.03,10.74.03,16.11s-.02,10.82.02,16.23c.01.52.21,1.21.58,1.53,4.08,3.5,8.68,6.06,14.02,7.32.94.23,1.65.05,2.38-.49,1.99-1.49,3.36-3.44,4.44-5.59.56-1.11,1.02-2.24,1.41-3.38,1.14-3.35,1.65-6.84,1.92-10.38.43-5.71-.01-11.27-1.95-16.56Zm-144.18,11.81c-.82.1-1.51.18-2.21.28-4.95.68-9.81,1.77-14.52,3.5-1.38.51-4.44,1.73-5.92,2.5-.79.41-1.12.82-1.04,1.82.56,7.13,4.12,12.73,9.76,16.47.76.5,1.28.48,2.02-.05.89-.66,8.76-6.39,11.09-8.03.68-.48.92-1.01.91-1.87-.03-4.42-.06-14.11-.09-14.62Zm0,0c-.82.1-1.51.18-2.21.28-4.95.68-9.81,1.77-14.52,3.5-1.38.51-4.44,1.73-5.92,2.5-.79.41-1.12.82-1.04,1.82.56,7.13,4.12,12.73,9.76,16.47.76.5,1.28.48,2.02-.05.89-.66,8.76-6.39,11.09-8.03.68-.48.92-1.01.91-1.87-.03-4.42-.06-14.11-.09-14.62Zm0,0c-.82.1-1.51.18-2.21.28-4.95.68-9.81,1.77-14.52,3.5-1.38.51-4.44,1.73-5.92,2.5-.79.41-1.12.82-1.04,1.82.56,7.13,4.12,12.73,9.76,16.47.76.5,1.28.48,2.02-.05.89-.66,8.76-6.39,11.09-8.03.68-.48.92-1.01.91-1.87-.03-4.42-.06-14.11-.09-14.62Z"/>
</svg>