<?xml version="1.0" encoding="UTF-8"?>
<svg id="Ebene_1" data-name="Ebene 1" xmlns="http://www.w3.org/2000/svg" viewBox="0 0 1068.44 1091.27">
  <defs>
    <style>
      .cls-1 {
        fill: #fff;
      }
    </style>
  </defs>
  <g>
    <path class="cls-1" d="m0,574.76h150.63l147.68,516.51v-516.51h73.84v516.51h-150.63L73.84,574.76v516.51H0v-516.51Z"/>
    <path class="cls-1" d="m771.61,1091.27l73.84-516.51h149.16l73.84,516.51h-74.58l-10.34-73.79h-127l-10.34,73.79h-74.58Zm202.32-140.2l-53.9-376.32-53.9,376.32h107.81Z"/>
    <path class="cls-1" d="m651.41,649.57c-23.89,22.43-61,77.07-61,124.42,0,39.11,16.77,69.36,58.12,69.36,0,0,69.18.99,98.21-66.68v109.47c-25.11,19.92-54.64,30.25-86.39,30.25-70.89,0-112.86-52.39-112.86-118.8,0-60.51,28.8-109.94,73.84-149.05h-102.01v368.94h228.16v73.79h-302v-516.51h352.46c-107.25,36.34-116.29,50.58-146.53,74.81Z"/>
  </g>
  <g>
    <g>
      <path class="cls-1" d="m569.28,0c83.44,0,150.63,63.46,150.63,147.58,0,70.84-47.26,123.23-115.93,136.51l124.05,232.43h-83.44l-154.32-287.77h79.01c44.3,0,76.79-33.94,76.79-77.48s-33.23-77.48-76.79-77.48h-80.48v442.73h-73.84V0h154.32Z"/>
      <path class="cls-1" d="m735.41,516.51L809.25,0h149.16l73.84,516.51h-74.58l-10.34-73.79h-127l-10.34,73.79h-74.58Zm202.32-140.2L883.83,0l-53.9,376.32h107.81Z"/>
    </g>
    <path class="cls-1" d="m85.36,455.14s-5.15,24.77,37.99,61.37H22.12C6.64,495.15.01,469.38.01,443.6.01,319.12,149.63,281.56,149.63,129.84c0-31.67-11.79-101.64-28.01-128.89h78.86l201.21,515.57h-78.86l-94.86-242.04s25.55,171.73-77.53,180.67h-65.08Zm.06-51.85h60.61c78.77,0,72.1-140.6,72.1-140.6-2.2-29.13-3.16-32.31-52.29-148.32,5.93,88.47-18.14,126.66-46.98,183.88,0,0-33.45,53.03-33.45,105.03Z"/>
  </g>
</svg>