<?xml version="1.0" encoding="UTF-8"?>
<svg id="Logos" xmlns="http://www.w3.org/2000/svg" viewBox="0 0 1203.21 1237.48">
  <defs>
    <style>
      .cls-1 {
        fill: #fff;
      }
    </style>
  </defs>
  <polygon class="cls-1" points="931.21 1087.93 601.63 1213.4 271.98 1087.93 266.21 903.66 243.68 903.66 249.95 1103.63 601.63 1237.48 953.24 1103.63 959.5 903.66 936.97 903.66 931.21 1087.93"/>
  <polygon class="cls-1" points="213.61 502.93 35.04 592.22 216.41 592.22 213.61 502.93"/>
  <polygon class="cls-1" points="973.98 1000.76 1168.19 903.66 977.02 903.66 973.98 1000.76"/>
  <path class="cls-1" d="m256.08,592.22l-9.29-296.64h101.86s100.81-51.63,100.81-51.63h52.59l99.55-50.24,38.01,101.88h316.76l-9.28,296.63h22.52l9.98-319.14h-119.7l-84.77-42.83h0s.15.07.15.07l32.38-8.13c.4-5.14.57-10.35.57-15.61s-.17-10.45-.57-15.62l-51.36-12.85c-1.52-8.32-3.67-16.4-6.47-24.19l38.08-36.85c-4.56-9.39-9.78-18.42-15.65-27.01l-50.95,14.55c-5.41-6.36-11.33-12.26-17.7-17.68l14.55-50.97c-8.54-5.84-17.57-11.08-27.01-15.63l-36.8,38.07c-7.81-2.8-15.89-4.95-24.24-6.46l-12.84-51.36c-5.18-.38-10.38-.58-15.6-.58s-10.5.2-15.65.58l-12.85,51.36c-8.3,1.51-16.4,3.66-24.2,6.46l-36.82-38.07c-9.46,4.55-18.47,9.79-27.03,15.63l14.57,50.97c-6.35,5.42-12.3,11.32-17.67,17.68l-50.99-14.55c-5.85,8.58-11.11,17.62-15.65,27.01l38.12,36.85c-2.79,7.8-4.98,15.87-6.49,24.19l-51.34,12.85c-.41,5.17-.6,10.4-.6,15.62s.19,10.47.6,15.61l31.47,7.9-83.9,42.98-119.66-.02,10,319.16h22.52ZM601.66,91.82c63.38,0,114.76,51.39,114.76,114.76,0,5.04-.43,9.98-1.07,14.85h.27-.27s0,0,0,0h-7.4l-106.44-52.9-104.83,52.9h-8.75s0,0,0,0h-.28s.28,0,.28,0c-.63-4.87-1.07-9.8-1.07-14.85,0-63.37,51.38-114.76,114.79-114.76Zm-174.07,138.02l-.46.25h-.03s.48-.25.48-.25Z"/>
  <path class="cls-1" d="m0,609.73v276.41h1203.21v-276.41H0Zm165.95,214.99l-30.29-58.25h-20.97v58.25h-32.4v-153.35h59.73c38.13,0,50.84,20.55,50.84,43.21s-10.81,36.64-26.48,43.85l34.74,66.3h-35.16Zm160.76,0h-101.03v-153.35h97.22v27.33h-64.6v36h60.79v26.69h-60.79v35.8h68.42v27.53Zm78.99-49.56h-16.74v49.56h-32.4v-153.35h58.03c39.19,0,51.05,23.52,51.05,47.87,0,36.86-20.12,55.92-59.95,55.92Zm210.09-5.72c0,40.67-23.51,57.83-61.85,57.83-42.36,0-60.36-18.64-60.36-58.67v-97.23h32.83v92.78c0,23.93,6.14,35.79,28.81,35.79s27.96-10.16,27.96-35.16v-93.41h32.62v98.07Zm92.97,55.28h-55.91v-153.35h60.79c36.22,0,46.38,16.53,46.38,37.5s-13.56,31.56-29.02,35.79v.43c24.36,2.96,35.58,16.3,35.58,37.49,0,31.35-24.57,42.15-57.83,42.15Zm184.69,0h-98.28v-153.35h32.62v125.82h65.66v27.53Zm62.05,0h-32.62v-153.35h32.62v153.35Zm102.29-24.35c22.03,0,29.65-11.45,33.26-27.54l29.44,5.08c-4.87,36.64-35.58,49.35-63.12,49.35-50.84,0-70.74-30.08-70.74-77.53s25.84-81.12,73.92-81.12c34.31,0,58.67,16.52,60.37,55.07l-29.87,2.54c-1.9-21.81-11.23-30.71-30.92-30.71-25,0-39.82,16.1-39.82,52.53s13.34,52.32,37.49,52.32Z"/>
  <path class="cls-1" d="m132.7,697.63h-18v43.21h16.74c15.25,0,27.75-5.72,27.75-23.09,0-14.62-9.11-20.12-26.48-20.12Z"/>
  <path class="cls-1" d="m404.64,697.63h-15.68v51.26h13.13c16.74,0,30.08-4.87,30.08-27.33,0-19.69-11.65-23.93-27.53-23.93Z"/>
  <path class="cls-1" d="m705.37,759.48h-19.91v40.03h16.73c17.8,0,29.65-3.17,29.65-19.91s-11.86-20.12-26.47-20.12Z"/>
  <path class="cls-1" d="m728.04,714.15c0-16.52-11.01-17.58-25.63-17.58h-16.94v38.12h12.07c15.24,0,30.5-2.75,30.5-20.54Z"/>
  <path class="cls-1" d="m444.46,428.77c0-16.52-11.01-17.58-25.63-17.58h-16.94v38.12h12.07c15.25,0,30.5-2.75,30.5-20.54Z"/>
  <path class="cls-1" d="m293.62,592.22h615.92l8.1-259.11H285.5s8.12,259.11,8.12,259.11Zm439.28-206.23h97.22v27.33h-64.6v36h60.79v26.69h-60.79v35.8h68.42v27.53h-101.03v-153.35Zm-149.94,0h32.4v65.67l59.52-65.67h34.74l-56.14,63.75,55.28,89.6h-38.13l-40.45-64.18-14.83,16.1v48.08h-32.4v-153.35Zm-71.37,0h32.62v153.35h-32.62v-153.35Zm-142.32,0h60.79c36.22,0,46.38,16.53,46.38,37.5s-13.56,31.56-29.02,35.79v.43c24.36,2.96,35.58,16.3,35.58,37.49,0,31.35-24.57,42.15-57.83,42.15h-55.91v-153.35Z"/>
  <path class="cls-1" d="m448.27,494.23c0-17.16-11.86-20.12-26.47-20.12h-19.91v40.03h16.73c17.8,0,29.65-3.17,29.65-19.91Z"/>
  <path class="cls-1" d="m894.49,1061.77l4.94-158.11H303.75l4.95,158.1,292.93,111.48,292.86-111.48Zm-134.54-96.42h20.29l30.21,56.58v-56.58h15.44v79.84h-19.63l-30.77-56.35v56.35h-15.55v-79.84Zm-68.17,0h50.62v14.23h-33.64v18.74h31.64v13.9h-31.64v18.63h35.62v14.34h-52.6v-79.84Zm-83.72,0h28.01c27.68,0,39.59,14.89,39.59,38.71s-12.9,41.13-41.46,41.13h-26.14v-79.84Zm-106.34-24.04c5.84,0,9.7,3.65,9.7,9.26s-3.86,9.15-9.7,9.15-9.93-3.52-9.93-9.15,3.97-9.26,9.93-9.26Zm-25.91,0c5.73,0,9.7,3.65,9.7,9.26s-3.97,9.15-9.7,9.15-10.04-3.52-10.04-9.15,4.08-9.26,10.04-9.26Zm-67.62,105.21c-14.34,0-29.45-4.64-30.88-25.37l15.43-2.31c1.33,7.71,4.2,14.22,15.88,14.22,7.06,0,13.24-2.42,13.24-9.82,0-6.95-7.5-9.04-16.11-11.25-11.69-3.08-25.47-6.62-25.47-24.04,0-15.55,13.01-24.03,29.12-24.03,14.22,0,27.23,4.41,28.45,23.38l-15.55,1.76c-.66-7.5-3.75-12.01-13.12-12.01-8.16,0-11.91,3.41-11.91,8.49,0,7.17,7.61,9.38,16.32,11.8,11.58,3.2,25.15,7.28,25.15,23.93,0,18.09-14.67,25.26-30.55,25.26Zm78.87,0c-26.36,0-37.17-17.1-37.17-40.92s13.12-41.68,38.94-41.68,36.61,17.98,36.61,40.14c0,25.91-12.46,42.46-38.37,42.46Zm105.67-1.33h-51.17v-79.84h16.99v65.5h34.19v14.34Z"/>
  <path class="cls-1" d="m488.48,978.25c-12.9,0-21.06,8.5-21.06,27.03s7.72,26.9,20.29,26.9c11.91,0,20.17-7.38,20.17-27.13,0-18.42-7.16-26.8-19.41-26.8Z"/>
  <path class="cls-1" d="m658.24,1004.94c0-19.85-7.72-25.91-23.6-25.91h-9.59v52.49h8.38c18.42,0,24.82-10.03,24.82-26.58Z"/>
</svg>