<?xml version="1.0" encoding="UTF-8"?>
<svg id="Ebene_1" data-name="Ebene 1" xmlns="http://www.w3.org/2000/svg" version="1.1" viewBox="0 0 1929.6 1929.6">
  <defs>
    <style>
      .cls-1 {
        fill: #fff;
        stroke-width: 0px;
      }
    </style>
  </defs>
  <path class="cls-1" d="M378.2,1634.9c-3.4-2.6-10.4-4-21.1-4h-22v31.1h22c10.5,0,17.5-1.4,20.9-4.2s5.2-6.7,5.2-11.7-1.7-8.7-5.1-11.3Z"/>
  <path class="cls-1" d="M866.6,1579c-3.2-2.8-8.9-4.1-17.1-4.1h-26.4v31.6h25.7c8.3,0,14.2-1.4,17.6-4.3,3.4-2.9,5.1-6.7,5.1-11.6s-1.6-8.9-4.9-11.6Z"/>
  <path class="cls-1" d="M372.9,1597.3c3.3-2.7,4.9-6.1,4.9-10.4s-1-6.1-2.9-8.5-4.5-4.1-7.6-5c-2.3-.7-7.3-1-14.9-1h-17.2v29h20.4c8.3,0,14.1-1.3,17.4-4Z"/>
  <path class="cls-1" d="M1340.8,1583.6c-2.5-3.5-5.8-6.5-10-8.9-4.2-2.4-8.9-3.6-14.2-3.6s-11.4,1.7-16.6,5c-5.2,3.3-9.3,8.5-12.4,15.5-3.1,7-4.6,15.6-4.6,25.9,0,15.4,3.5,27.4,10.5,36.1,5.5,6.6,12.9,10,22.1,10s11.7-1.5,16.8-4.6,9.1-8.2,12.1-15.3c3-7.1,4.5-15.8,4.5-26.1s-.7-14-2.2-19.8c-1.5-5.8-3.5-10.4-5.9-14Z"/>
  <path class="cls-1" d="M0,0v1929.6h1929.6V0H0ZM430.5,1669.7c-2.3,5.7-5.4,10.5-9.5,14.4-2.8,2.8-6.9,5.5-12.2,8.2-5.4,2.6-10.7,4.5-15.9,5.7-5.2,1.2-14.2,1.8-26.9,1.8h-82.9v-164.3h81.3c20.2,0,35.1,2.9,44.7,8.8,12.5,7.6,18.7,18.8,18.7,33.4s-7.1,25.7-21.3,34.9c8.4,2.3,15,6.7,20,13.4,4.9,6.6,7.4,14.9,7.4,24.7s-1.1,13.4-3.4,19.1ZM680,1631.3c0,12.1-.9,21.6-2.8,28.6-1.9,7-5,13.2-9.3,18.6-4.3,5.4-9.6,10-15.9,13.9-6.3,3.9-13.6,6.8-22.1,8.8-8.5,2-17.7,3-27.7,3s-21.7-1-30.2-3.1-15.9-5-22.1-8.9c-6.2-3.9-11.4-8.5-15.6-13.9-4.2-5.3-7.5-12.4-9.9-21.3-1.5-5.7-2.3-14.4-2.3-26.2v-95.6h53.7v101.2c0,6.7.8,11.8,2.4,15.2,1.6,3.4,4.5,6.2,8.8,8.4,4.2,2.2,9.1,3.2,14.5,3.2,7.9,0,14.1-2.1,18.5-6.4s6.6-11.1,6.6-20.4v-101.2h53.7v95.9ZM927.3,1699.7h-54.6c-1.5-4.5-2.4-12-2.6-22.8l-.3-12.1c0-5.6-1-9.9-2.7-13-1.7-3.1-4.2-5.4-7.6-7-3.4-1.6-8.5-2.4-15.4-2.4h-20.9v57.2h-52.1v-164.3h80.3c11.2,0,20.7.6,28.3,1.8,7.6,1.2,13.9,3.1,18.9,5.7,4.9,2.6,9.1,5.8,12.6,9.8,3.4,4,6,8.2,7.7,12.6s2.5,10,2.5,16.6-1.3,15.1-3.9,20.7c-2.6,5.6-6.3,10.2-11,13.8-3.3,2.6-7.5,4.5-12.7,5.9,10.6,4,17.7,8.4,21.5,13.3s5.8,13.1,6.1,24.6l.8,25.9c.2,3.8.5,6,1.1,6.7.8,1,2.1,1.5,4.1,1.7v5.1ZM1153.2,1578.6h-48.6v121.1h-53.7v-121.1h-48.6v-43.3h150.8v43.3ZM1392.5,1659.9c-6.3,13.1-16,23.7-28.9,31.9-12.9,8.2-28.7,12.2-47.4,12.2s-47.3-7.9-63-23.7c-15.7-15.8-23.6-36.8-23.6-63s1.8-23.8,5.4-33.7,8.5-18.4,14.7-25.2c6.2-6.8,12.6-12.1,19.2-15.7,6.6-3.7,13.9-6.5,21.7-8.5,7.8-2,16-3,24.5-3,16.2,0,31.2,3.4,44.8,10.2,13.6,6.8,24,16.7,31.3,29.6,7.2,12.9,10.8,27.8,10.8,44.7s-3.2,31.2-9.5,44.3ZM1452.4,1190.7c-6.1,29.8-11.2,76-24.6,107-3.4,7.8-12.3,10.9-19.9,6.9h0c-18.1-9.7-33.4-23.8-44.6-41l-4.3-6.6c-7.5-11.5-13-24.2-16.4-37.4l-9.3-36.1c-1.2-4.8-3.2-9.4-5.1-14-3.6-8.8-11.2-24.8-15.4-32.5-6.1-11-21.7-10.9-26.5.7l-11.8,28.4c-5.7,13.8-17.6,24.1-32,27.9-8.7,2.3-12.8,2.9-18.9,4-5.1,1-9.3,4.6-10.9,9.5-4.8,14.1-12.7,38.7-19,53.1-4.1,9.4-14.7,11.6-23.2,6-12-7.9-19.7-17.2-27.1-24-18.7-17.2-32.4-39.2-37.9-64l-12-54.1c-2.7-12.3-7.7-23.8-13.4-35-8.2-16-23.3-43-32.6-58.1-8.7-14.1-26.8-12-29,4.5-4.3,32.3-14.2,82.9-22.9,108.2-5.9,17.1-19.7,12.8-26,5.5-2.9-3.3-13.7-19.7-16.9-23.7-8.6-11-33.5-16.2-41.5,24.5-6.9,35.2-23.3,88.8-34.1,117-4.8,12.5-19.9,14.7-26.9,3.4-13.8-22.4-30-56.5-40-75.3-7.1-13.4-20.8-22-36-22.6l-6.8-.3c-16.5-.6-31.1-10.7-37.5-25.8l-21.8-51c-2.6-6-7.1-10.9-12.8-14l-19.9-10.5c-15.7-8.3-29.4-19.8-40.4-33.7l-10.8-13.3c-14.9-22.5-41-19.7-48.7,11-9.2,36.9-36.6,126.1-48.3,154.7-4.2,10.2-15.8,13.2-23.9,5.9-16.2-14.6-23.3-39.8-37.7-49.1-10.2-6.6-21.6-3.5-26.2,5.3-32.7,62.6-122.2,254.1-122.2,254.1-6.4,11.1-20.5,11.6-26.5,6.1-9.4-8.7-8.1-19.6-5.1-27.9,0,0,67-232.2,92.7-309.3,28.4-85.3,65.1-179.9,65.1-179.9,5-15.2,16.2-27.6,30.8-34.2l24.1-10.8c13-5.8,23.3-16.3,28.9-29.3,16.4-37.9,48.9-113.4,65.7-152.4,4.1-9.5,12.6-16.3,22.8-18.3,13.2-2.6,26.5-5.5,35.3-7.5,11.7-2.7,21.5-10.5,27.3-21l140.1-256.6c5.5-10,14.7-17.4,25.7-20.6l32.7-9.3c8.3-2.4,15.4-7.6,20.1-14.9l55.3-85.7c5.6-8.7,18.2-8.9,24-.4,29.4,42.6,84.2,150.2,127.4,231.1,39.9,74.7,83.4,169.1,103.1,205.2,7.1,13.1,22.6,19.3,36.7,14.4,16.2-5.6,39.5-19.5,60.8-25.9,12.7-3.8,26.3,1.9,31.6,14,0,0,70.4,147.2,143.4,316.7,79.8,185.5,163,395,165.4,400.6,3.7,8.4.9,17.9-6,22.4-9.5,6.3-19.2,2.1-24.7-4.8,0,0-97.5-165.8-132.2-222.7-7.3-12-26.5-8.9-29.4,5.2ZM1646.6,1699.7h-51.3l-55.4-85.8v85.8h-51.8v-164.3h50.2l56.6,88v-88h51.6v164.3Z"/>
</svg>