<?xml version="1.0" encoding="UTF-8"?>
<svg id="Logo" xmlns="http://www.w3.org/2000/svg" version="1.1" viewBox="0 0 1028.2 390.32">
  <!-- Generator: Adobe Illustrator 29.6.1, SVG Export Plug-In . SVG Version: 2.1.1 Build 9)  -->
  <defs>
    <style>
      .st0 {
        fill: #a5a5a5;
      }
    </style>
  </defs>
  <path class="st0" d="M340.75,325.31v15.45h-25.23v11.23h21.3v14.74h-21.31v23.61h-19.18l.03-65.03h44.39ZM425.3,342.26c0-3.14,2.47-4.4,6.1-4.4,5.21,0,7.68,1.62,7.68,7.64l17.31-1.97c-.52-16.71-12.8-19.32-24.37-19.32-13.6,0-25.09,7.08-25.1,21.01-.01,24.61,32.15,16.45,32.14,26.96,0,3.95-3.01,5.48-7.51,5.48-7.77,0-9.1-4.49-9.8-10.16l-16.96,2.33c.61,20.12,16.68,21.66,26.22,21.66,13.6,0,26.41-6.28,26.42-22,.01-23.8-32.14-16.99-32.14-27.23M464.16,325.39v15.45h18.37l-.02,49.58h19.16l.02-49.57h18.11v-15.44l-55.64-.03h0ZM529.84,390.45h19.17l.03-65.02h-19.17l-.03,65.02ZM602.83,325.45l-11.68,46.25h-.8l-11.11-46.26h-21.73l19.76,65.03h25.7l19.37-65.01h-19.52,0ZM640.72,325.47l-20.52,65.02h19.96l11.77-47.05h.53l13.58,47.07h20.85l-22.94-65.03h-23.23ZM731.69,390.48l.19-15.75h-16.52l.02-49.23h-19.17l-.03,65.02M397.73,374.54v15.78h-46.61v-64.9h44.37v15.42h-24.92v10.13h20.98v14.79h-20.98v8.78h27.16Z"/>
  <g>
    <path class="st0" d="M428.09,250.69c-15.86,0-16.03-10.02-16.03-26.15v-70.31h-36.23v74.9c0,35.16,15.53,50.1,51.26,50.1,30.22,0,52.26-13.76,52.26-49.08v-75.92h-35.9v70.99c0,17.32-.67,25.48-15.36,25.48h0ZM609.28,277.18v-122.96h-32.39v73.37l-33.56-73.37h-41.41v122.96h32.73v-72.01l34.06,72.01h40.57ZM692.6,277.18v-93.75h34.23v-29.21h-105.2v29.21h34.73v93.75h36.24ZM775.39,188.19h1l25.72,88.99h39.41l-43.41-122.96h-43.92l-38.74,122.96h37.74l22.21-88.99h-.01ZM893.77,154.22h-36.23v122.96h36.23v-122.96ZM1028.18,277.18v-122.96h-32.39v73.37l-33.56-73.37h-41.41v122.96h32.73v-72.01l34.06,72.01h40.57Z"/>
    <polygon class="st0" points="133.66 154.29 133.6 277.2 99.07 277.19 99.11 206.32 66.19 255.84 33.7 205.95 33.66 277.16 0 277.14 .06 154.22 35.24 154.25 66.69 203.96 98.63 154.26 133.66 154.29"/>
    <path class="st0" d="M253.69,283.03c-18.84,0-34.67-.94-47.49-2.81-12.83-1.87-23.21-4.62-31.15-8.26-7.94-3.63-13.99-8.09-18.13-13.36-4.14-5.28-6.95-11.29-8.43-18.04-1.47-6.75-2.21-14.21-2.21-22.38s.85-15.38,2.55-22.3,4.82-13.19,9.36-18.81,10.95-10.41,19.23-14.38,18.89-7,31.83-9.11c12.94-2.1,28.77-3.15,47.49-3.15s35.2,1,48.09,2.98c12.88,1.99,23.32,4.83,31.32,8.51,8,3.69,14.07,8.14,18.22,13.36,4.14,5.22,6.92,11.12,8.34,17.7,1.42,6.58,2.13,13.73,2.13,21.45,0,8.85-.82,16.88-2.47,24.09-1.65,7.21-4.68,13.59-9.11,19.15-4.43,5.56-10.78,10.21-19.06,13.96-8.29,3.74-18.98,6.58-32.09,8.51-13.11,1.93-29.25,2.89-48.43,2.89h0ZM255.05,254.43c14.52,0,26.44-.48,35.75-1.45,9.3-.96,16.54-2.78,21.71-5.45,5.16-2.66,8.79-6.47,10.89-11.4,2.1-4.94,3.15-11.32,3.15-19.15s-.94-13.67-2.81-18.55-5.33-8.71-10.38-11.49c-5.05-2.78-12.2-4.71-21.45-5.79-9.25-1.08-21.25-1.62-36-1.62s-26.61.57-35.92,1.7c-9.31,1.14-16.54,3.09-21.71,5.87-5.16,2.78-8.74,6.61-10.72,11.49-1.99,4.88-2.98,11.01-2.98,18.38,0,7.83.99,14.19,2.98,19.06,1.98,4.88,5.5,8.65,10.55,11.32s12.2,4.51,21.45,5.53,21.08,1.53,35.49,1.53v.02h0Z"/>
  </g>
  <g>
    <polygon class="st0" points="187.64 97.34 187.68 4.26 151.44 4.24 151.39 127.21 236.89 127.25 236.91 97.36 187.64 97.34"/>
    <path class="st0" d="M134.29,97.44v29.99H45.7V4.07h84.34v29.3h-47.37v19.26h39.87v28.11h-39.87v16.7h51.62Z"/>
    <path class="st0" d="M441.5,97.44v29.99h-186.39V4.07h182.14v29.3h-143.46v19.26h124.04v28.11h-124.04v16.7h147.72,0Z"/>
    <polygon class="st0" points="678.24 5.24 573.02 5.19 573.01 34.41 607.75 34.42 607.71 128.18 643.95 128.2 643.99 34.44 678.22 34.46 678.24 5.24"/>
    <rect class="st0" x="811.96" y="5.31" width="36.24" height="122.97"/>
    <path class="st0" d="M796.05,128.3h-39.77l-20.39-43.5h-5.78v43.5h-36.71V5.26h53.87c30.59,0,41.81,16.48,41.81,35.69,0,18.01-7.82,28.55-18.86,35.01l25.83,52.34h0ZM734.19,58.28c7.99,0,16.99-2.21,16.99-13.76,0-6.8-3.4-11.9-13.42-11.9h-7.65v25.66s4.08,0,4.08,0Z"/>
    <path class="st0" d="M508.35,130.79c-43.83,0-61.12-24.1-61.12-64.44,0-37.89,19.91-66.35,63.21-66.35,30.04,0,51.69,14.32,52.56,48.37l-34.23,3.32c-.35-16.94-7.16-22.35-19.03-22.35-14.84,0-23.23,10.3-23.23,35.62s7.33,36.5,23.4,36.5c14.49,0,17.64-9.43,19.56-18.86l33.53,5.24c-3.32,32.13-31.26,42.96-54.66,42.96h.01Z"/>
    <path class="st0" d="M927.84,130.79c-43.83,0-61.12-24.1-61.12-64.44C866.72,28.46,886.63-.01,929.93-.01c30.04,0,51.69,14.32,52.56,48.37l-34.23,3.32c-.35-16.94-7.16-22.35-19.03-22.35-14.84,0-23.23,10.3-23.23,35.62s7.33,36.5,23.4,36.5c14.49,0,17.64-9.43,19.56-18.86l33.53,5.24c-3.32,32.13-31.26,42.96-54.66,42.96h.01,0Z"/>
  </g>
</svg>