<?xml version="1.0" encoding="UTF-8"?>
<svg id="Logo" xmlns="http://www.w3.org/2000/svg" viewBox="0 0 1028.76 461.89">
  <defs>
    <style>
      .cls-1 {
        fill: #fff;
      }
    </style>
  </defs>
  <path class="cls-1" d="m84.47,336.06v29.37s-47.98.02-47.98.02v21.35s40.5.02,40.5.02v28.01s-40.52-.02-40.52-.02l-.02,44.92-36.45-.02.06-123.65h84.41Zm160.77,32.22c0-5.98,4.71-8.37,11.59-8.37,9.91,0,14.61,3.08,14.61,14.53l32.91-3.74c-.99-31.77-24.33-36.74-46.33-36.75-25.87-.01-47.71,13.47-47.72,39.94-.02,46.8,61.12,31.28,61.11,51.27,0,7.52-5.72,10.42-14.28,10.41-14.78,0-17.29-8.55-18.63-19.31l-32.25,4.43c1.16,38.26,31.72,41.18,49.86,41.19,25.87.01,50.22-11.94,50.24-41.82.02-45.26-61.12-32.31-61.11-51.78m73.9-32.07v29.37s34.92.02,34.92.02l-.04,94.28,36.44.02.04-94.28,34.43.02v-29.37s-105.79-.05-105.79-.05Zm124.88,123.71l36.45.02.06-123.65-36.45-.02-.06,123.65Zm138.78-123.59l-22.21,87.95h-1.52s-21.12-87.97-21.12-87.97l-41.31-.02,37.56,123.67,48.87.02,36.84-123.64-37.11-.02Zm72.04.03l-39.02,123.64,37.96.02,22.38-89.49h1.01s25.82,89.51,25.82,89.51l39.64.02-43.61-123.67-44.17-.02Zm172.97,123.61l.35-29.94h-31.42s.04-93.61.04-93.61l-36.44-.02-.06,123.65m-567.48-30.39v30h-88.63v-123.41h84.37v29.32h-47.39v19.26h39.89v28.12h-39.89v16.7h51.65Z"/>
  <g>
    <path class="cls-1" d="m428.65,266.64c-15.86,0-16.03-10.02-16.03-26.15v-70.31h-36.23v74.9c0,35.16,15.53,50.1,51.26,50.1,30.22,0,52.26-13.76,52.26-49.08v-75.92h-35.9v70.99c0,17.32-.67,25.48-15.36,25.48Zm181.19,26.49v-122.96h-32.39v73.37l-33.56-73.37h-41.41v122.96h32.73v-72.01l34.06,72.01h40.57Zm83.32,0v-93.75h34.23v-29.21h-105.2v29.21h34.73v93.75h36.23Zm82.79-88.99h1l25.72,88.99h39.41l-43.41-122.96h-43.92l-38.74,122.96h37.74l22.21-88.99Zm118.38-33.97h-36.23v122.96h36.23v-122.96Zm134.41,122.96v-122.96h-32.39v73.37l-33.56-73.37h-41.41v122.96h32.73v-72.01l34.06,72.01h40.57Z"/>
    <polygon class="cls-1" points="134.22 170.23 134.16 293.15 99.63 293.14 99.67 222.27 66.75 271.79 34.26 221.9 34.22 293.1 .56 293.09 .62 170.17 35.8 170.19 67.25 219.91 99.19 170.21 134.22 170.23"/>
    <path class="cls-1" d="m254.25,298.97c-18.84,0-34.67-.94-47.49-2.81-12.83-1.87-23.21-4.62-31.15-8.26-7.94-3.63-13.99-8.09-18.13-13.36-4.14-5.28-6.95-11.29-8.43-18.04-1.47-6.75-2.21-14.21-2.21-22.38s.85-15.38,2.55-22.3c1.7-6.92,4.82-13.19,9.36-18.81,4.54-5.62,10.95-10.41,19.23-14.38,8.28-3.97,18.89-7,31.83-9.11,12.94-2.1,28.77-3.15,47.49-3.15s35.2,1,48.09,2.98c12.88,1.99,23.32,4.83,31.32,8.51,8,3.69,14.07,8.14,18.22,13.36,4.14,5.22,6.92,11.12,8.34,17.7,1.42,6.58,2.13,13.73,2.13,21.45,0,8.85-.82,16.88-2.47,24.09-1.65,7.21-4.68,13.59-9.11,19.15-4.43,5.56-10.78,10.21-19.06,13.96-8.29,3.74-18.98,6.58-32.09,8.51-13.11,1.93-29.25,2.89-48.43,2.89Zm1.36-28.6c14.52,0,26.44-.48,35.75-1.45,9.3-.96,16.54-2.78,21.71-5.45,5.16-2.66,8.79-6.47,10.89-11.4,2.1-4.94,3.15-11.32,3.15-19.15s-.94-13.67-2.81-18.55c-1.87-4.88-5.33-8.71-10.38-11.49-5.05-2.78-12.2-4.71-21.45-5.79-9.25-1.08-21.25-1.62-36-1.62s-26.61.57-35.92,1.7c-9.31,1.14-16.54,3.09-21.71,5.87-5.16,2.78-8.74,6.61-10.72,11.49-1.99,4.88-2.98,11.01-2.98,18.38,0,7.83.99,14.19,2.98,19.06,1.98,4.88,5.5,8.65,10.55,11.32,5.05,2.67,12.2,4.51,21.45,5.53,9.25,1.02,21.08,1.53,35.49,1.53Z"/>
  </g>
  <g>
    <polygon class="cls-1" points="142.51 97.34 142.55 4.26 106.31 4.24 106.25 127.21 191.76 127.25 191.77 97.36 142.51 97.34"/>
    <path class="cls-1" d="m89.16,97.44v29.99H.56V4.07h84.34v29.3h-47.37v19.26h39.87v28.11h-39.87v16.7h51.62Z"/>
    <path class="cls-1" d="m396.37,97.44v29.99h-186.39V4.07h182.14v29.3h-143.46v19.26h124.04v28.11h-124.04v16.7h147.72Z"/>
    <polygon class="cls-1" points="633.1 5.24 527.89 5.19 527.88 34.41 562.61 34.42 562.57 128.18 598.81 128.2 598.86 34.44 633.09 34.46 633.1 5.24"/>
    <rect class="cls-1" x="766.83" y="5.31" width="36.24" height="122.97"/>
    <path class="cls-1" d="m750.91,128.3h-39.77l-20.39-43.5h-5.78v43.5h-36.71V5.26h53.87c30.59,0,41.81,16.48,41.81,35.69,0,18.01-7.82,28.55-18.86,35.01l25.83,52.34Zm-61.86-70.02c7.99,0,16.99-2.21,16.99-13.76,0-6.8-3.4-11.9-13.42-11.9h-7.65v25.66h4.08Z"/>
    <path class="cls-1" d="m463.22,130.79c-43.83,0-61.12-24.1-61.12-64.44,0-37.89,19.91-66.36,63.21-66.36,30.04,0,51.69,14.32,52.56,48.37l-34.23,3.32c-.35-16.94-7.16-22.35-19.03-22.35-14.84,0-23.23,10.3-23.23,35.62s7.33,36.5,23.4,36.5c14.49,0,17.64-9.43,19.56-18.86l33.53,5.24c-3.32,32.13-31.26,42.96-54.66,42.96Z"/>
    <path class="cls-1" d="m882.71,130.79c-43.83,0-61.12-24.1-61.12-64.44,0-37.89,19.91-66.36,63.21-66.36,30.04,0,51.69,14.32,52.56,48.37l-34.23,3.32c-.35-16.94-7.16-22.35-19.03-22.35-14.84,0-23.23,10.3-23.23,35.62s7.33,36.5,23.4,36.5c14.49,0,17.64-9.43,19.56-18.86l33.53,5.24c-3.32,32.13-31.26,42.96-54.66,42.96Z"/>
  </g>
</svg>