<?xml version="1.0" encoding="UTF-8"?>
<svg id="Ebene_1" data-name="Ebene 1" xmlns="http://www.w3.org/2000/svg" viewBox="0 0 862.36 576.82">
  <defs>
    <style>
      .cls-1 {
        fill: #fff;
      }
    </style>
  </defs>
  <g>
    <path class="cls-1" d="m38.92,378.47c-.11.33-.56.44-1.13.44-9.48.55-19.29,1.42-24.48,2.74-1.24.33-1.81.55-2.03,2.08-1.02,6.68-.68,15.88-1.24,22.56,0,.44,0,.55.68.55h22.11c.79,0,.9.11.68.77-.23,1.21-.79,3.83-1.35,6.35,0,0,0,.33-.79.44-.68,0-14.33.66-20.53,1.86-.79.22-.79.44-.79.99-.56,9.09-.79,19.71-1.24,28.37,0,0,0,.55-.45.55H1.69c-.45,0-.56,0-.56-.55l-1.13-73.38c0-.66.34-.66.9-.77h39.14c.79,0,.9.11.79.66-.11.22-1.8,6.02-1.92,6.35Z"/>
    <path class="cls-1" d="m70.62,397.97c-2.71,1.42-4.96,3.18-7.33,6.13-2.48,2.96-2.93,11.61-2.93,15l-.34,25.96s.11,1.1-1.02,1.1h-5.87c-.68,0-.79-.33-.79-.99,0-12.05.34-24.32-1.35-36.91-.56-4.05-3.05-12.27-3.16-12.6-.11-.55.23-.88.79-1.21.68-.33,5.42-2.63,5.75-2.85.68-.44,1.13-.22,1.47.33.45.88,1.02,2.41,1.58,4.16,3.84-2.08,8.35-4.38,10.94-5.04,1.13-.22,1.35-.11,1.47.66.23,1.1.79,2.63,1.35,5.37.11.55-.11.66-.56.88Z"/>
    <path class="cls-1" d="m118.45,421.63c-.56,2.41-1.69,3.5-3.72,3.83-6.66,1.21-15.91,1.31-24.25,1.53.23,2.85,1.35,6.68,2.26,8.32.79,1.31,1.92,1.86,3.95,2.41,4.4,1.21,13.31,1.42,20.08,1.53.56,0,1.13.11,1.02.88-.45,1.53-1.02,3.29-1.58,5.37-.23.66-.34.66-1.35.66-8.69.55-20.31.44-25.16-.22-2.37-.22-2.71-.55-3.84-2.74-5.3-10.95-6.2-35.92-2.93-47.75.56-2.19.9-2.96,3.5-3.4,7.22-1.1,23.46-1.1,30.23.33,1.47.33,2.14,1.1,2.48,2.74,1.69,7.12,1.24,17.96-.68,26.51Zm-8.12-19.71c-.34-1.1-.45-2.08-1.8-2.41-3.27-.77-9.25-.44-13.2.33-2.59.55-3.27.99-3.84,3.18-.9,3.62-1.69,10.51-1.69,16.65,6.43.22,17.15-.66,19.74-1.64.68-.22,1.47-.88,1.69-1.97,1.02-4.05-.11-12.16-.9-14.13Z"/>
    <path class="cls-1" d="m148.23,381.1c-.56.55-6.66,5.26-12.52,7.56-.68.33-.9,0-.9-.44-.34-2.08-.68-5.7-.9-7.34-.11-.66.23-.99.45-1.1,2.93-1.64,5.64-4.05,7.67-6.02,2.03-2.08,3.38-3.72,3.61-4.05.23-.33.9-.11.9.22,1.02,4.71,2.03,9.75,2.03,10.08.11.55.11.66-.34,1.09Zm-3.27,64.29s0,.66-1.02.77c-1.92.11-4.06-.22-5.87,0-.56.11-.79-.66-.79-.66l-1.35-50.38c-.11-.44.11-.88.34-1.09.56-.33,8.57-3.94,8.8-4.16,1.02-.44,1.13.33,1.13.66l-1.24,54.87Z"/>
    <path class="cls-1" d="m199.22,421.63c-.56,2.41-1.69,3.5-3.72,3.83-6.66,1.21-15.91,1.31-24.25,1.53.23,2.85,1.35,6.68,2.26,8.32.79,1.31,1.92,1.86,3.95,2.41,4.4,1.21,13.31,1.42,20.08,1.53.56,0,1.13.11,1.02.88-.45,1.53-1.02,3.29-1.58,5.37-.23.66-.34.66-1.35.66-8.69.55-20.31.44-25.16-.22-2.37-.22-2.71-.55-3.84-2.74-5.3-10.95-6.2-35.92-2.93-47.75.56-2.19.9-2.96,3.5-3.4,7.22-1.1,23.46-1.1,30.23.33,1.47.33,2.14,1.1,2.48,2.74,1.69,7.12,1.24,17.96-.68,26.51Zm-8.12-19.71c-.34-1.1-.45-2.08-1.8-2.41-3.27-.77-9.25-.44-13.2.33-2.59.55-3.27.99-3.84,3.18-.9,3.62-1.69,10.51-1.69,16.65,6.43.22,17.15-.66,19.74-1.64.68-.22,1.47-.88,1.69-1.97,1.02-4.05-.11-12.16-.9-14.13Z"/>
    <path class="cls-1" d="m331.1,395.78c-3.27,15.99-6.66,32.86-9.81,48.3-.34,1.64-.79,1.97-2.93,2.08-5.98.44-13.65.33-17.94-.22-1.35-.22-2.26-.44-2.37-1.75l-5.64-63.96c-.11-1.1-4.96-.99-5.19.11-2.93,22.67-7.78,45.56-10.72,64.4-.23,1.1-1.02,1.31-2.03,1.42-5.19.33-11.51.55-16.7-.22-1.13-.22-1.69-.55-1.81-1.42,0,0-13.31-71.63-13.42-72.07-.11-.77-.11-.88.68-.99h10.27c.68,0,.79.11.9.88.11,1.64,7.9,64.4,7.9,64.4.11.55,0,1.2.56,1.53.9.55,5.19.44,6.09,0,.45-.22.68-.66.68-1.53l8.12-63.64c.11-.66.68-1.21,1.92-1.42,5.64-.99,15.68-.77,19.18.11,1.13.22,1.69.77,1.81,2.74l6.54,62.32c.11.66.56,1.31,1.02,1.53,1.02.33,3.95.33,5.19.11.23,0,.56-.11.79-.22s.34-.44.34-1.1c.34-2.74,7.56-49.94,7.56-49.94.34-2.08.79-2.85,1.69-4.6,2.37-4.82,6.09-10.19,6.43-10.62.45-.44.79-.55,1.35-.55h9.02c.56,0,.68.22.45.66-4.62,9.75-8.57,17.52-9.93,23.66Z"/>
    <path class="cls-1" d="m381.19,445.72c-9.25,1.1-23.58,1.21-34.18.11-2.26-.22-3.16-.77-3.38-2.19-1.58-10.73,0-28.59,1.69-33.08.34-.88.79-1.64,4.4-2.19,6.66-.88,16.13-.88,25.16-.22-.56-5.04-1.35-7.56-3.27-8.11-3.38-.88-15.79-1.53-24.25-1.53-.79,0-1.02-.44-.79-1.1.45-1.75.68-3.5,1.02-4.82.11-.44.45-.77,1.35-.88,4.4-.33,27.3-.99,30.57.55.79.33,1.24.99,1.81,2.41,3.38,9.09,4.06,40.96,2.82,48.74-.34,2.19-.9,2.08-2.93,2.3Zm-5.64-30.56c-7.45-.55-18.27.66-21.32,1.42-.56.11-1.13.33-1.58,1.21-1.24,2.52-1.92,12.92-1.47,16.21.23,2.3.79,2.85,3.16,3.83,2.59,1.21,13.2,1.42,20.42.22.9-.11.79-.33.79-.77.34-6.35.9-13.25,0-22.12Z"/>
    <path class="cls-1" d="m411.31,446.16h-5.08c-.9,0-1.02-.22-1.24-.88-1.92-4.71-3.72-10.3-3.84-15.77-.34-18.29-1.02-41.29-1.02-59.91,0-.33,0-.99.79-1.21.56-.22,8.57-1.64,9.14-1.75.34,0,.9,0,.9.77,0,.33-1.47,47.75-1.47,47.75-.11,4.6-.45,10.73-.11,15.77.34,5.04,1.24,9.97,2.82,14.24.23.77.23.99-.9.99Z"/>
    <path class="cls-1" d="m464.33,444.95c-.34,1.1-2.48,1.21-3.38,1.21-9.59.55-18.39.55-27.52-.33-1.35-.11-1.92-.44-2.48-1.86-4.4-11.72-5.87-37.02-4.51-48.63.34-2.52,1.92-3.18,3.84-3.4,9.02-.88,16.81-.55,26.73-.11.11-8.54-.11-20.59,0-22.23.11-.88.34-1.21,1.02-1.31,1.69-.44,5.19-1.21,7.22-1.53.79-.11.9-.11.9.88.11,10.41-.11,71.74-1.8,77.33Zm-24.71-44.58c-2.03.55-2.37,1.09-3.05,3.07-1.58,5.48-1.47,24.32.34,30.89.68,2.41,1.01,2.85,3.61,3.5,4.29.99,9.7,1.1,15.23.77,1.01-11.83,1.35-26.4.9-38.66-6.2-.55-12.75-.55-17.03.44Z"/>
    <path class="cls-1" d="m517.12,441.78c-1.13,3.07-1.47,3.5-4.63,4.16-5.75.99-18.39.77-23.35-.22-2.71-.66-3.05-1.42-4.17-4.27-3.95-9.53-5.42-37.57-2.26-47.32.45-1.21,1.02-1.86,2.14-1.97,11.06-1.31,24.82-.88,32.15,0,2.03.22,2.26.88,2.71,2.3,3.16,9.86,1.47,36.47-2.59,47.32Zm-8.24-42.06c-4.4-.88-8.91-.99-14.1-.22-2.14.33-2.71,1.31-3.27,3.07-2.26,7.56-2.26,25.85.23,33.41.56,1.75,1.47,2.19,3.95,2.52,3.95.66,8.23.66,11.17.11,2.26-.33,2.82-1.31,3.5-3.18,2.71-7.56,2.82-23.11,1.01-32.2-.56-2.74-1.35-3.29-2.48-3.5Z"/>
    <path class="cls-1" d="m556.83,397.97c-2.71,1.42-4.96,3.18-7.33,6.13-2.48,2.96-2.93,11.61-2.93,15l-.34,25.96s.11,1.1-1.02,1.1h-5.87c-.68,0-.79-.33-.79-.99,0-12.05.34-24.32-1.35-36.91-.56-4.05-3.04-12.27-3.16-12.6-.11-.55.23-.88.79-1.21.68-.33,5.41-2.63,5.75-2.85.68-.44,1.13-.22,1.47.33.45.88,1.01,2.41,1.58,4.16,3.83-2.08,8.35-4.38,10.94-5.04,1.13-.22,1.35-.11,1.47.66.23,1.1.79,2.63,1.35,5.37.11.55-.11.66-.56.88Z"/>
    <path class="cls-1" d="m596.09,374.86l-1.35,3.94c-.11.44-.45.55-.9.55-3.16.11-6.43.11-9.59.55-1.01.22-1.58.44-1.8,1.64-.56,2.41-.79,6.35-.79,10.29h8.8c.68,0,.68.33.68.66-.45,2.19-1.02,3.83-1.47,5.81-.11.33-.45.55-.9.66-2.59.55-4.96,1.09-6.88,1.53-1.24,14.24-1.58,59.04-1.58,59.04,0,.22-.11.77-.45.88-1.92.66-4.06,1.31-6.2,1.97-.45.22-1.02.33-1.02-.44,0-.66-.56-52.68-.56-61.66-2.14-.44-4.4-.99-4.74-.99-.56-.11-.68-.33-.79-.77-.79-2.52-.9-3.4-1.58-5.91-.11-.44.11-.77.56-.77h6.66c0-6.57.34-15.44.9-18.51.23-1.31.56-1.53,2.03-1.86,5.41-.88,17.6-.33,21.09,0,.68,0,.68.11.68.77-.11.88-.56,1.75-.79,2.63Z"/>
    <path class="cls-1" d="m631.29,398.3c-.23.77-.9.88-1.24.88-5.87,0-10.94-.22-16.47.66-1.13.11-1.69.22-2.26,1.21-.9,1.53-1.01,4.16-1.01,4.71.23,1.31.45,1.75,1.01,2.3,6.77,5.8,14.44,10.95,20.76,17.2,2.26,2.3.56,14.13-.34,18.18-.34,1.64-1.13,2.52-2.71,2.74-4.62.66-25.49.33-27.86-.11-.45-.11-.79-.33-.68-.99.11-.66.79-4.71.9-5.15.11-.66.68-.77,1.35-.88,2.71-.22,6.09-.22,9.48-.33,3.38-.11,7.11-.33,9.93-1.2,1.02-.22,1.69-.99,2.03-5.04.11-1.31-.11-2.19-.56-2.96-.56-.77-1.47-1.53-2.26-2.19-4.85-4.05-12.52-10.08-17.26-14.02-1.8-1.42-2.48-2.19-2.71-4.05-.68-4.38-.68-10.62.9-15,.68-1.75,1.02-2.3,3.05-2.41,6.09-.66,19.85-.55,26.62,0,.68,0,1.13.22.9.99,0,0-1.35,4.93-1.58,5.48Z"/>
    <path class="cls-1" d="m675.28,445.94c-2.14.22-17.71,1.2-23.35-.22-1.35-.33-1.69-.66-2.14-1.97-5.08-11.94-5.75-40.75-2.59-49.84.34-.99.79-1.64,2.03-1.75,3.84-.66,20.31-1.21,25.95-.33.23.11.45.44.45.88-.11.66-.9,5.59-.9,5.7-.11.55-.45.77-1.58.77-5.19-.11-10.38-.11-15.57,1.1-1.35.22-1.58.99-2.03,2.74-1.8,6.13-2.03,26.94,1.24,32.97.79,1.31,2.26,1.75,4.06,2.08,4.17.77,8.69.55,12.97.66,1.02.11,1.24.66,1.35.77.11.77.9,4.93,1.13,5.59.11.77-.34.77-1.02.88Z"/>
    <path class="cls-1" d="m724.02,460.73c0,.33-.11.77-.68.88-1.81.33-2.93.55-5.53.88-.23,0-.9-.11-.9-.66.11-17.41-.11-37.57-2.14-55.09-.34-2.52-.79-5.04-3.72-5.92-4.06-1.09-10.04-1.31-14.33-1.2,0,14.79-1.24,31.21-1.24,46,0,.44-.68.66-.68.66h-6.32s-.68,0-.68-.66-1.13-75.68-1.13-76.23c0-.66.45-.88.9-.99,1.8-.33,8.35-1.64,8.35-1.64.56-.11,1.02-.11,1.02.66-.11.77.11,17.41-.23,24.1,6.54-.33,19.52-.55,24.37.44,1.8.44,2.26.66,2.71,2.41.68,2.63,1.35,8.43,1.35,18.51-.11,17.96.45,27.93-1.13,47.86Z"/>
    <path class="cls-1" d="m779.07,444.84c0,1.21-.68,1.21-1.69,1.31-10.27.44-17.71.55-26.96-.22-1.01,0-1.69-.33-2.37-1.75-2.37-5.7-7.78-33.41-9.14-51.26,0-.66.11-1.1,1.35-1.1h8.35c.79,0,1.02.55,1.02,1.1-.45,7.89,2.48,37.9,4.51,43.04.56,1.53.45,2.08,2.37,2.3,1.13.22,10.6.88,14.44,0,.45-.11.45-.22.45-.44l.11-45.02c0-.77.45-.99,1.13-.99h6.43c.79,0,1.13.33,1.13.99-.23,16.76.11,34.83-1.13,52.03Z"/>
    <path class="cls-1" d="m808.52,446.16h-5.08c-.9,0-1.02-.22-1.24-.88-1.92-4.71-3.72-10.3-3.83-15.77-.34-18.29-1.02-41.29-1.02-59.91,0-.33,0-.99.79-1.21.56-.22,8.57-1.64,9.14-1.75.34,0,.9,0,.9.77,0,.33-1.47,47.75-1.47,47.75-.11,4.6-.45,10.73-.11,15.77.34,5.04,1.24,9.97,2.82,14.24.23.77.23.99-.9.99Z"/>
    <path class="cls-1" d="m860.63,421.63c-.56,2.41-1.69,3.5-3.72,3.83-6.66,1.21-15.91,1.31-24.25,1.53.23,2.85,1.35,6.68,2.26,8.32.79,1.31,1.92,1.86,3.95,2.41,4.4,1.21,13.31,1.42,20.08,1.53.56,0,1.13.11,1.02.88-.45,1.53-1.02,3.29-1.58,5.37-.23.66-.34.66-1.35.66-8.69.55-20.3.44-25.16-.22-2.37-.22-2.71-.55-3.83-2.74-5.3-10.95-6.21-35.92-2.93-47.75.56-2.19.9-2.96,3.5-3.4,7.22-1.1,23.46-1.1,30.23.33,1.47.33,2.14,1.1,2.48,2.74,1.69,7.12,1.24,17.96-.68,26.51Zm-8.12-19.71c-.34-1.1-.45-2.08-1.81-2.41-3.27-.77-9.25-.44-13.2.33-2.59.55-3.27.99-3.83,3.18-.9,3.62-1.69,10.51-1.69,16.65,6.43.22,17.15-.66,19.74-1.64.68-.22,1.47-.88,1.69-1.97,1.01-4.05-.11-12.16-.9-14.13Z"/>
    <path class="cls-1" d="m236.96,574.36c0,.44-.23.66-.56.66h-6.43c-.56,0-.68-.11-.68-.55s-1.8-71.63-1.8-71.63c0-.77.11-.88.9-.99,2.14-.44,7.33-1.53,9.81-2.08.56-.11.68.11.68.77l-1.92,73.82Z"/>
    <path class="cls-1" d="m295.17,574.91h-5.53c-.9.11-1.13-.33-1.13-.77,0-.55-1.69-38.66-4.4-42.5-.56-.77-1.24-1.09-2.03-1.42-3.72-1.21-11.39-1.31-16.02-1.21-.11,3.62-1.24,44.69-1.24,45.13,0,.66-.56.77-1.13.77h-5.75c-.34,0-.9-.11-.9-.77-.11-17.42-.68-34.72-1.02-52.25,0-.99.23-1.2,1.8-1.31,12.3-.99,28.2-.33,34.29.55,1.69.22,2.71.99,3.05,3.29,1.58,9.86,1.35,33.52,1.02,49.62,0,.55-.23.88-1.02.88Z"/>
    <path class="cls-1" d="m352.48,574.91h-5.53c-.9.11-1.13-.33-1.13-.77,0-.55-1.69-38.66-4.4-42.5-.56-.77-1.24-1.09-2.03-1.42-3.72-1.21-11.39-1.31-16.02-1.21-.11,3.62-1.24,44.69-1.24,45.13,0,.66-.56.77-1.13.77h-5.75c-.34,0-.9-.11-.9-.77-.11-17.42-.68-34.72-1.02-52.25,0-.99.23-1.2,1.8-1.31,12.3-.99,28.2-.33,34.29.55,1.69.22,2.71.99,3.05,3.29,1.58,9.86,1.35,33.52,1.02,49.62,0,.55-.23.88-1.02.88Z"/>
    <path class="cls-1" d="m398.05,527.16c-.23.77-.9.88-1.24.88-5.87,0-10.94-.22-16.47.66-1.13.11-1.69.22-2.26,1.21-.9,1.53-1.02,4.16-1.02,4.71.23,1.31.45,1.75,1.02,2.3,6.77,5.8,14.44,10.95,20.76,17.2,2.26,2.3.56,14.13-.34,18.18-.34,1.64-1.13,2.52-2.71,2.74-4.63.66-25.49.33-27.86-.11-.45-.11-.79-.33-.68-.99s.79-4.71.9-5.15c.11-.66.68-.77,1.35-.88,2.71-.22,6.09-.22,9.48-.33,3.38-.11,7.11-.33,9.93-1.2,1.02-.22,1.69-.99,2.03-5.04.11-1.31-.11-2.19-.56-2.96-.56-.77-1.47-1.53-2.26-2.19-4.85-4.05-12.52-10.08-17.26-14.02-1.81-1.42-2.48-2.19-2.71-4.05-.68-4.38-.68-10.62.9-15,.68-1.75,1.02-2.3,3.05-2.41,6.09-.66,19.85-.55,26.62,0,.68,0,1.13.22.9.99,0,0-1.35,4.93-1.58,5.48Z"/>
    <path class="cls-1" d="m449.27,571.84c-.79,2.41-1.8,2.74-3.72,3.07-2.59.44-26.73.77-30.23.11-.23,0-.45-.22-.45-.88l-.56-76.01c.11-.66,0-.99.79-1.2.56-.22,7.11-1.31,7.11-1.31.9-.11,1.24,0,1.24.77.11,10.08.11,16.43.11,18.62v5.26c10.83-.44,21.55-.33,26.85.33,2.03.33,2.93.66,3.38,2.41,2.82,11.17-.23,37.46-4.51,48.85Zm-6.99-42.39c-3.83-1.21-12.97-1.42-18.5-1.31,0,10.73-.56,28.04.11,39.43,2.37,0,5.75,0,9.48-.22,2.59-.11,5.19-.44,6.88-.99,2.14-.66,2.26-1.1,2.82-3.07,2.14-7.01,3.61-24.21,1.58-31.54-.34-1.31-.9-1.86-2.37-2.3Z"/>
    <path class="cls-1" d="m490.9,526.83c-2.71,1.42-4.96,3.18-7.33,6.13-2.48,2.96-2.93,11.61-2.93,15l-.34,25.96s.11,1.1-1.02,1.1h-5.87c-.68,0-.79-.33-.79-.99,0-12.05.34-24.32-1.35-36.91-.56-4.05-3.04-12.27-3.16-12.6-.11-.55.23-.88.79-1.21.68-.33,5.41-2.63,5.75-2.85.68-.44,1.13-.22,1.47.33.45.88,1.01,2.41,1.58,4.16,3.83-2.08,8.35-4.38,10.94-5.04,1.13-.22,1.35-.11,1.47.66.23,1.1.79,2.63,1.35,5.37.11.55-.11.66-.56.88Z"/>
    <path class="cls-1" d="m540.3,573.71c0,1.21-.68,1.21-1.69,1.31-10.27.44-17.71.55-26.96-.22-1.01,0-1.69-.33-2.37-1.75-2.37-5.7-7.78-33.41-9.14-51.26,0-.66.11-1.09,1.35-1.09h8.35c.79,0,1.02.55,1.02,1.09-.45,7.89,2.48,37.9,4.51,43.04.56,1.53.45,2.08,2.37,2.3,1.13.22,10.6.88,14.44,0,.45-.11.45-.22.45-.44l.11-45.02c0-.77.45-.99,1.13-.99h6.43c.79,0,1.13.33,1.13.99-.23,16.76.11,34.83-1.13,52.03Z"/>
    <path class="cls-1" d="m585.77,574.8c-2.14.22-17.71,1.2-23.35-.22-1.35-.33-1.69-.66-2.14-1.97-5.08-11.94-5.75-40.75-2.59-49.84.34-.99.79-1.64,2.03-1.75,3.84-.66,20.31-1.21,25.95-.33.23.11.45.44.45.88-.11.66-.9,5.59-.9,5.7-.11.55-.45.77-1.58.77-5.19-.11-10.38-.11-15.57,1.1-1.35.22-1.58.99-2.03,2.74-1.8,6.13-2.03,26.94,1.24,32.97.79,1.31,2.26,1.75,4.06,2.08,4.17.77,8.69.55,12.97.66,1.02.11,1.24.66,1.35.77.11.77.9,4.93,1.13,5.59.11.77-.34.77-1.02.88Z"/>
    <path class="cls-1" d="m627.62,550.6c-.9,1.31-1.13,1.31-2.37,1.64-.68.11-.79.11-2.59.44,4.4,6.68,8.46,13.58,12.63,20.48.45.44.45.88-.45,1.42-.23.22-4.4,1.97-4.74,2.08-.9.33-1.13.11-1.58-.44s-15.57-20.59-16.58-22.02c-1.47.11-4.17.44-5.75.44-.34,5.91-1.13,13.69-1.8,19.5,0,.33,0,.88-.56.88h-5.53c-.45,0-1.13-.11-1.13-.77.11-1.1-.56-75.46-.56-75.46.11-.88.11-1.2,1.02-1.42.79-.11,8.35-1.64,8.69-1.64.45-.11.9.22.79.88,0,.33-1.35,46.88-1.35,49.83,2.37.11,11.17-.77,14.55-2.52,1.47-.66,2.03-.88,2.71-2.3,3.38-7.12,3.84-20.04,3.84-20.04.11-.44,0-.88,1.13-.88h7.9c1.01,0,.79.44.68,1.2-.79,9.64-5.42,23.88-8.91,28.7Z"/>
  </g>
  <g>
    <path class="cls-1" d="m432.17,231.43c16.87,0,131.1-5.22,131.1-105.86,0-41.19-31.58-71.51-45.02-85.7C499.42,20.03,503.82.59,498.98,0c-4.63-.56-37.46,33.76,1.49,83.01,17.15,21.68,23.48,34.25,23.48,52.56,0,23.8-22.68,70.92-91.79,70.92s-91.77-47.12-91.77-70.92c0-18.31,6.33-30.88,23.48-52.56C402.82,33.77,369.99-.55,365.36,0c-4.85.58-.69,21.44-19.52,41.29-13.45,14.18-44.77,43.09-44.77,84.28,0,100.63,114.23,105.86,131.1,105.86Z"/>
    <path class="cls-1" d="m432.13,191.67s.02,0,.04,0,.02,0,.04,0c21.32,0,38.33-17.28,38.6-38.6.05-4.15-1.24-9.71-1.96-11.93-6.2-21.36-29.86-48.42-36.68-48.42s-29.52,25.74-36.2,46.83c-1.43,3.83-2.43,9.16-2.44,13.52-.08,21.32,17.28,38.6,38.6,38.6Z"/>
    <path class="cls-1" d="m679.75,151.75c-77.96,0-116.09,94.63-247.57,94.63s-169.63-94.63-247.59-94.63c-52.74,0-81.67,40.94-76.29,46.31,4.42,4.43,22.98-7.6,57.22-7.6,51.93,0,125.76,83.34,266.66,83.34s214.61-83.34,266.64-83.34c34.11,0,52.8,12.03,57.22,7.6,5.38-5.38-23.56-46.31-76.29-46.31Z"/>
  </g>
</svg>