<?xml version="1.0" encoding="UTF-8"?>
<svg id="Ebene_1" data-name="Ebene 1" xmlns="http://www.w3.org/2000/svg" viewBox="0 0 673.21 217.26">
  <defs>
    <style>
      .cls-1 {
        fill: #fff;
      }
    </style>
  </defs>
  <path class="cls-1" d="M219.47,141.22h50.27L231.49,3.65h-61.12l-38.09,137.57h36.02l4.62-14.66,64.85-7.3s-3.12,10.6-18.31,21.96M217.67,108.37l-50.79-3.23s31.33-30.26,39.35-86.48c0,0,26.94,44.72,11.43,89.71"/>
  <path class="cls-1" d="M75.15,74.58v23.99h11.55v28c-13.83-12.18-35.57-20.23-50.79-20.18v-7.89h5.45v-57.63h-3.14v-16.95h8.3v5.37h7.85v-5.4h7.89v5.4h7.91v-5.4l8.26.04v16.95h-3.28v19.39h46.13C120.79,23.93,109.63-.69,65.1.01,20.94.71,0,30.3,0,72.43s20.93,72.42,63.76,72.42c19.43,0,41.43-1.05,57.76-11.23v-59.04h-46.37"/>
  <path class="cls-1" d="M319.06,48.36c-3.43-2.45-4.05-14.7,14.62-20.96,11.15-3.72,24.13,1.66,26.91,11.41,4.73,18.08-21.43,31.14-36.61,21.54-3.37-1.7-4.5-4.92-4.84-7.5-2.41,1.2-5.54,1.77-8.01,0,2.89,9.28,9.25,15.01,9.25,15.01,11.64,9.23,22.06,24.53,22.06,24.53,7.75,11.01,14.82,24.64,19.7,48.71h33.64s-28.06-59.63-29.25-62.15c40.24-18.32,28.54-75.99-23.88-75.29,0,0-57.19,0-57.19,0h-1.61v35.53c10.52,1.84,20.52,5.5,29.25,11.11,1.42.91,4.17.15,5.96-1.15.15-.12.37-.46-.01-.78"/>
  <path class="cls-1" d="M313.16,68.77c4.77,31.14-4.19,48.74-8.12,55.86,0,0-1.55,4.12-1.89,5.13-4.72-18.25-4.35-29.86-2.66-39.92,0,0,2.08-13.54,6.88-23.42,0,0,2.96-7.18.89-15.28-7.45-4.26-15.73-7.21-24.41-8.79v98.75h77.03c-1.6-1.56-3.72-3.56-3.72-3.56-9.3-6.63-31.95-23.96-44.01-68.77"/>
  <path class="cls-1" d="M605.61,71.44c2.71,1.08,6.98,2.69,10.67,3.65,1.17.32,2.69-.2,3.39-1.33.34-.44,3.03-6.68,2.82-3.07l-.7,3.8c-.14,1.3.72,2.64,1.87,2.96l13.77,2.2c1.03.18,3-4.76,3.34-5.55,1.81-30.8-48.47-50-67.87-26.45-.31.79-1.83,5.43-.94,6.01l11.57,7.78c1.07.58,2.59.2,3.36-.86l2.28-3.25c.6-1.12,1.54-.84.95.44l-1.21,3.75c-.26,1.28.45,2.67,1.53,3.26,3.47,1.9,7.86,3.77,10.53,4.84l-30.68,71.6h-36.91L571.45,3.65h63.55l38.22,137.57h-45.5l-7.67-28.93h-31.78l17.35-40.84Z"/>
  <path class="cls-1" d="M468.13,3.78h-55.8v137.44h58.61c36.52,0,59.9-25.71,59.9-67.18S515.72,3.78,468.13,3.78M498.24,82.47c-2.55,9.24-12.43,13.02-13.62,13.48-1.21.47-2.25,1.41-2.44,2.26-.2.87-5.13,19.56-4.55,21.07.57,1.54,3.58,5.24,9.41,6.55l-.22,1.66-25.53-5.73.52-1.6c5.82,1.31,10.11-.77,11.26-1.91,1.2-1.14,4.7-20.14,4.91-21,.2-.86-.34-2.14-1.21-3.06-.57-.61-4.06-4.38-5.79-9.25v27.1c0,1.18-.96,2.15-2.15,2.15h-22.14c-1.19,0-2.16-.97-2.16-2.15v-57.16c0-9.02,3.73-11.48,5.9-13.27,2.24-1.78,1.87-4.67,1.87-4.67v-15.96h-.56v-3.18h.51v-1.94h11.02v1.94h.47v3.18h-.53v15.96s-.36,2.89,1.85,4.67c2.18,1.78,5.92,4.25,5.92,13.27v17.97c2.23-8.26,6.98-16.1,6.98-16.1l21.58,4.85s1.21,11.7-1.29,20.85"/>
  <polygon class="cls-1" points="180.6 185.55 168.35 185.55 168.35 178.33 201.7 178.33 201.7 185.55 189.45 185.55 189.45 216.61 180.6 216.61 180.6 185.55"/>
  <path class="cls-1" d="M236.85,216.61l-7.38-10.66h-8.15v10.66h-8.86v-38.27h16.57c10.22,0,16.62,5.3,16.62,13.89,0,5.74-2.9,9.95-7.87,12.08l8.58,12.3h-9.51ZM228.54,185.55h-7.22v13.34h7.22c5.41,0,8.15-2.51,8.15-6.67s-2.73-6.67-8.15-6.67"/>
  <polygon class="cls-1" points="288.3 209.5 288.3 216.6 258.67 216.6 258.67 178.33 287.59 178.33 287.59 185.44 267.47 185.44 267.47 193.75 285.24 193.75 285.24 200.64 267.47 200.64 267.47 209.5 288.3 209.5"/>
  <polygon class="cls-1" points="336.46 178.33 336.46 216.61 329.19 216.61 310.11 193.37 310.11 216.61 301.36 216.61 301.36 178.33 308.69 178.33 327.72 201.57 327.72 178.33 336.46 178.33"/>
  <polygon class="cls-1" points="359.48 185.55 347.23 185.55 347.23 178.33 380.58 178.33 380.58 185.55 368.34 185.55 368.34 216.61 359.48 216.61 359.48 185.55"/>
  <rect class="cls-1" x="391.35" y="178.33" width="8.86" height="38.27"/>
  <polygon class="cls-1" points="450.4 178.33 450.4 216.61 443.13 216.61 424.05 193.37 424.05 216.61 415.3 216.61 415.3 178.33 422.63 178.33 441.65 201.57 441.65 178.33 450.4 178.33"/>
  <path class="cls-1" d="M463.08,197.47c0-11.37,8.86-19.79,20.94-19.79s20.94,8.37,20.94,19.79-8.91,19.79-20.94,19.79-20.94-8.42-20.94-19.79M495.99,197.47c0-7.27-5.14-12.25-11.97-12.25s-11.97,4.98-11.97,12.25,5.14,12.25,11.97,12.25,11.97-4.98,11.97-12.25"/>
</svg>