<?xml version="1.0" encoding="utf-8"?>
<!-- Generator: Adobe Illustrator 27.6.1, SVG Export Plug-In . SVG Version: 6.00 Build 0)  -->
<svg version="1.1" id="Ebene_1" xmlns="http://www.w3.org/2000/svg" xmlns:xlink="http://www.w3.org/1999/xlink" x="0px" y="0px"
	 viewBox="0 0 566.9 150.2" style="enable-background:new 0 0 566.9 150.2;" xml:space="preserve">
<style type="text/css">
	.st0{fill:#FFFFFF;}
</style>
<path class="st0" d="M32.4,54.9c0-8.5,4.6-10.6,7.6-10.6s7.6,2,7.6,10.6S43,65.4,40,65.4C37,65.4,32.4,63.5,32.4,54.9z"/>
<path class="st0" d="M79.1,101.2H79L75.3,113h7.3L79.1,101.2z M79.1,101.2H79L75.3,113h7.3L79.1,101.2z M79.1,101.2H79L75.3,113h7.3
	L79.1,101.2z M79.1,101.2H79L75.3,113h7.3L79.1,101.2z M79.1,101.2H79L75.3,113h7.3L79.1,101.2z M374,48.1h-9.1v28.4h8.5
	c7.8,0,14.1-5.2,14.1-14.5C387.5,54.2,382.9,48.1,374,48.1z M374,48.1h-9.1v28.4h8.5c7.8,0,14.1-5.2,14.1-14.5
	C387.5,54.2,382.9,48.1,374,48.1z M79.1,101.2H79L75.3,113h7.3L79.1,101.2z M79.1,101.2H79L75.3,113h7.3L79.1,101.2z M374,48.1h-9.1
	v28.4h8.5c7.8,0,14.1-5.2,14.1-14.5C387.5,54.2,382.9,48.1,374,48.1z M374,48.1h-9.1v28.4h8.5c7.8,0,14.1-5.2,14.1-14.5
	C387.5,54.2,382.9,48.1,374,48.1z M79.1,101.2H79L75.3,113h7.3L79.1,101.2z M165.6,0v150.1h401.3V0H165.6z M226.7,117.7L226.7,117.7
	c-28.5,0-37.1-17.1-37.1-41.1c0-26.6,12.9-44.1,37.8-44.1c13.5,0,24,5.1,28.5,17.5l-14.9,5.5c-2-5.1-6.1-8.6-13.9-8.6
	c-13.7,0-20.2,10.4-20.2,28c0,19.6,6,28.7,19.7,28.7c10,0,15.3-5.6,15.7-15.9h-10.9V73.5c0,0,27.4,0,27.4,0
	C258.9,98.1,255.2,117.7,226.7,117.7z M333.4,86.7L333.4,86.7c0,21.9-12,31.1-31.4,31.1c-21.5,0-30.7-10-30.7-31.5V33.9H288v49.9
	c0,12.9,3.1,19.2,14.6,19.2c11.5,0,14.2-5.5,14.2-18.9V33.9h16.6V86.7z M391,116.4l-13.1-26.1l-12.9,0.1v26.1h-16.5V34h30.3
	c19.4,0,25.8,15.2,25.8,27.4s-5,19.9-12.3,24c0,0,16.5,31,16.5,31H391z M453,117.7L453,117.7c-28.5,0-37.1-17.1-37.1-41.1
	c0-26.6,12.9-44.1,37.8-44.1c13.5,0,24,5.1,28.5,17.5l-14.9,5.5c-2-5.1-6.1-8.6-13.9-8.6c-13.7,0-20.2,10.4-20.2,28
	c0,19.6,6,28.7,19.7,28.7c10,0,15.3-5.6,15.7-16h-10.9V73.5c0,0,27.4,0,27.4,0C485.1,98.1,481.5,117.7,453,117.7z M548.7,116.4
	h-49.8V33.9h16.6v67.6h33.2V116.4z M374,48.1h-9.1v28.4h8.5c7.8,0,14.1-5.2,14.1-14.5C387.5,54.2,382.9,48.1,374,48.1z M0,150.1
	h158.8V0H0V150.1z M45.4,126.7H33.6V98.2H20.7v-9.8h38.6v9.8H45.4V126.7z M86.5,126.7l-1.6-5.5H72.7l-1.7,5.5H59.1l14.1-38.4h11.6
	l14,38.4H86.5z M134.7,126.7h-32.3V88.3h11.8v28.5h20.5V126.7z M102,64.8l17.1-19.3h-16.8v-9.8h32.4v8.6l0,0l-18,20h17.9v9.8H102
	V64.8z M60.6,35.7h38.6v9.8H85.3v28.5H73.5V45.5H60.6V35.7z M41.6,18.1h9.1v14.6h-9.1V18.1z M29.4,18.1h9.1v14.6h-9.1V18.1z
	 M40,34.8c11.7,0,19.5,8.4,19.5,20.1S51.7,75,40,75c-11.7,0-19.5-8.4-19.5-20.1S28.3,34.8,40,34.8z M79,101.2L75.3,113h7.3
	l-3.5-11.8H79z M79.1,101.2H79L75.3,113h7.3L79.1,101.2z M374,48.1h-9.1v28.4h8.5c7.8,0,14.1-5.2,14.1-14.5
	C387.5,54.2,382.9,48.1,374,48.1z M374,48.1h-9.1v28.4h8.5c7.8,0,14.1-5.2,14.1-14.5C387.5,54.2,382.9,48.1,374,48.1z M79.1,101.2
	H79L75.3,113h7.3L79.1,101.2z M79.1,101.2H79L75.3,113h7.3L79.1,101.2z M79.1,101.2H79L75.3,113h7.3L79.1,101.2z M79.1,101.2H79
	L75.3,113h7.3L79.1,101.2z M79.1,101.2H79L75.3,113h7.3L79.1,101.2z"/>
<g>
	<path class="st0" d="M47.7,54.9c0,8.5-4.6,10.5-7.6,10.5c-3,0-7.6-1.9-7.6-10.5S37,44.3,40,44.3S47.7,46.4,47.7,54.9z"/>
	<polygon class="st0" points="82.5,113 75.3,113 79,101.2 79.1,101.2 	"/>
	<path class="st0" d="M0,0v150.1h158.8V0H0z M41.6,18.1h9.1v14.6h-9.1V18.1z M29.4,18.1h9.1v14.6h-9.1V18.1z M40,34.8
		c11.7,0,19.5,8.4,19.5,20.1S51.7,75,40,75c-11.7,0-19.5-8.4-19.5-20.1S28.3,34.8,40,34.8z M45.4,126.7H33.6V98.2H20.7v-9.8h38.6
		v9.8H45.4V126.7z M86.5,126.7l-1.6-5.5H72.7l-1.7,5.5H59.1l14.1-38.4h11.6l14,38.4H86.5z M99.2,45.5H85.3v28.5H73.5V45.5H60.6v-9.8
		h38.6V45.5z M134.7,126.7h-32.3V88.3h11.8v28.5h20.5V126.7z M134.8,44.3L134.8,44.3l-18,20h17.9v9.8H102v-9.2l17.1-19.3h-16.8v-9.8
		h32.4V44.3z"/>
</g>
<g>
	<path class="st0" d="M387.5,62c0,9.3-6.3,14.5-14.1,14.5h-8.5V48.1h9.1C382.9,48.1,387.5,54.2,387.5,62z"/>
	<path class="st0" d="M165.6,0v150.1h401.3V0H165.6z M226.7,117.7L226.7,117.7c-28.5,0-37.1-17.1-37.1-41.1
		c0-26.6,12.9-44.1,37.8-44.1c13.5,0,24,5.1,28.5,17.5l-14.9,5.5c-2-5.1-6.1-8.6-13.9-8.6c-13.7,0-20.2,10.4-20.2,28
		c0,19.6,6,28.7,19.7,28.7c10,0,15.3-5.6,15.7-15.9h-10.9V73.5c0,0,27.4,0,27.4,0C258.9,98.1,255.2,117.7,226.7,117.7z M333.4,86.7
		L333.4,86.7c0,21.9-12,31.1-31.4,31.1c-21.5,0-30.7-10-30.7-31.5V33.9H288v49.9c0,12.9,3.1,19.2,14.6,19.2
		c11.5,0,14.2-5.5,14.2-18.9V33.9h16.6V86.7z M391,116.4l-13.1-26.1l-12.9,0.1v26.1h-16.5V34h30.3c19.4,0,25.8,15.2,25.8,27.4
		s-5,19.9-12.3,24c0,0,16.5,31,16.5,31H391z M453,117.7L453,117.7c-28.5,0-37.1-17.1-37.1-41.1c0-26.6,12.9-44.1,37.8-44.1
		c13.5,0,24,5.1,28.5,17.5l-14.9,5.5c-2-5.1-6.1-8.6-13.9-8.6c-13.7,0-20.2,10.4-20.2,28c0,19.6,6,28.7,19.7,28.7
		c10,0,15.3-5.6,15.7-16h-10.9V73.5c0,0,27.4,0,27.4,0C485.1,98.1,481.5,117.7,453,117.7z M548.7,116.4h-49.8V33.9h16.6v67.6h33.2
		V116.4z"/>
</g>
</svg>
