<?xml version="1.0" encoding="UTF-8"?>
<svg id="Ebene_1" data-name="Ebene 1" xmlns="http://www.w3.org/2000/svg" viewBox="0 0 671.7 153.33">
  <defs>
    <style>
      .cls-1 {
        fill: #fff;
      }
    </style>
  </defs>
  <g>
    <g>
      <rect class="cls-1" x="633.09" y="115.11" width="27.85" height="47.41" rx="1.87" ry="1.87" transform="translate(785.83 -508.2) rotate(90)"/>
      <rect class="cls-1" x="580.86" y="115.11" width="27.85" height="47.41" rx="1.87" ry="1.87" transform="translate(733.6 -455.97) rotate(90)"/>
      <rect class="cls-1" x="528.64" y="115.11" width="27.85" height="47.41" rx="1.87" ry="1.87" transform="translate(681.38 -403.74) rotate(90)"/>
    </g>
    <g>
      <path class="cls-1" d="m252.59,148.75h-8.98v-23.17c0-.61-.16-.69-.73-.69h-3.08c-.61,0-.65.08-.65.69v26.46c0,.61.04.69.65.69h12.9c.45,0,.61-.12.73-.57l.02-2.48c0-.69-.12-.93-.85-.93Z"/>
      <path class="cls-1" d="m270.86,148.75h-8.98v-23.17c0-.61-.16-.69-.73-.69h-3.08c-.61,0-.65.08-.65.69v26.46c0,.61.04.69.65.69h12.9c.45,0,.61-.12.73-.57l.02-2.48c0-.69-.12-.93-.85-.93Z"/>
      <path class="cls-1" d="m289.56,149.04h-9.05v-9.05h7.34c.57,0,.69-.08.69-.65v-2.19c0-.61-.12-.69-.69-.69h-7.34v-7.91h9.03c.61,0,.69-.08.69-.68v-2.25c0-.6-.08-.72-.69-.72h-12.84c-.61,0-.65.08-.65.69v26.46c0,.61.04.69.65.69h12.86c.61,0,.69-.08.69-.69v-2.27c0-.61-.08-.73-.69-.73Z"/>
      <path class="cls-1" d="m310.32,124.89h-15.12c-.61,0-.69.08-.69.69v2.44c0,.61.08.73.69.73h5.52v23.29c0,.61.12.69.73.69h3.08c.61,0,.65-.08.65-.69v-23.29h5.48c.45,0,.57-.12.69-.57v-2.35c0-.78-.26-.93-1.03-.93Z"/>
      <path class="cls-1" d="m321.65,135.76c-3.04-1.66-3.77-2.35-3.77-4.3,0-2.15,1.5-3.45,4.06-3.45,1.83,0,3.25.53,4.95,1.42.65.37.93.45,1.14-.04l1.05-2.44c.16-.4.04-.53-.32-.77-1.83-1.14-4.5-1.83-6.86-1.83-5.07,0-8.48,3-8.48,7.55s3.13,6.09,6.57,7.95c4.42,2.39,5.28,3.13,5.28,5.64s-1.66,3.98-4.3,3.98c-1.7,0-3.69-.49-5.76-1.58-.32-.16-.93-.65-1.14-.12l-1.01,2.64c-.2.57-.16.73.36,1.01,1.95,1.05,5.11,1.83,7.51,1.83,5.28,0,8.72-3.25,8.72-8.16,0-5.4-3.77-7.06-7.99-9.33Z"/>
      <path class="cls-1" d="m233.45,149.03h-9.05v-9.05h7.34c.57,0,.69-.08.69-.65v-2.19c0-.61-.12-.69-.69-.69h-7.34v-7.91h9.03c.61,0,.69-.08.69-.68v-2.25c0-.6-.08-.72-.69-.72h-12.84c-.61,0-.65.08-.65.69v26.46c0,.61.04.69.65.69h12.86c.61,0,.69-.08.69-.69v-2.27c0-.61-.08-.73-.69-.73Z"/>
      <path class="cls-1" d="m213.58,126.47c-1.34-1.18-3.12-1.58-6.61-1.58h-6.41c-.61,0-.65.08-.65.69v26.46c0,.61.04.69.65.69h3.08c.57,0,.73-.08.73-.69v-10.75h2.64c5.15,0,8.85-3.04,8.85-8.85,0-2.52-.81-4.67-2.27-5.97Zm-7.18,11.08h-2.07v-9.21h2.31c3.57,0,4.79,1.05,4.79,4.3,0,3.65-1.83,4.91-5.03,4.91Z"/>
    </g>
    <g>
      <path class="cls-1" d="m8.72,135.76c-3.04-1.66-3.77-2.35-3.77-4.3,0-2.15,1.5-3.45,4.06-3.45,1.83,0,3.25.53,4.95,1.42.65.37.93.45,1.14-.04l1.06-2.44c.16-.4.04-.53-.32-.77-1.83-1.14-4.5-1.83-6.86-1.83-5.07,0-8.48,3-8.48,7.55s3.13,6.09,6.57,7.95c4.42,2.39,5.28,3.13,5.28,5.64s-1.66,3.98-4.3,3.98c-1.7,0-3.69-.49-5.76-1.58-.32-.16-.93-.65-1.14-.12l-1.01,2.64c-.2.57-.16.73.36,1.01,1.95,1.05,5.11,1.83,7.51,1.83,5.28,0,8.72-3.25,8.72-8.16,0-5.4-3.77-7.06-7.99-9.33Z"/>
      <path class="cls-1" d="m33.92,122.6c1.26,0,2.26-1,2.26-2.26s-1-2.33-2.26-2.33-2.26,1.07-2.26,2.33,1,2.26,2.26,2.26Z"/>
      <path class="cls-1" d="m26.33,122.6c1.26,0,2.29-1.04,2.29-2.26s-1.04-2.33-2.29-2.33-2.22,1.07-2.22,2.33.96,2.26,2.22,2.26Z"/>
      <path class="cls-1" d="m59.93,138.36h-6.57c-.61,0-.69.12-.69.73v2.19c0,.61.08.69.69.69h3.12v7.02c-1.05.49-2.07.73-3.12.73-5.76,0-6.05-6.65-6.05-11.24,0-7.3,1.83-10.67,5.84-10.67,1.66,0,2.72.37,4.99,1.7.24.12.57.28.81-.16l1.05-2.07c.2-.41.24-.69-.16-.97-1.79-1.3-4.3-2.07-6.78-2.07-6.82,0-10.39,5.07-10.39,14.77s3.49,14.32,10.31,14.32c2.6,0,5.23-.65,7.02-1.74.53-.32.65-.49.65-.89v-11.61c0-.61-.16-.73-.73-.73Z"/>
      <path class="cls-1" d="m79.92,149.03h-9.05v-9.05h7.34c.57,0,.69-.08.69-.65v-2.19c0-.61-.12-.69-.69-.69h-7.34v-7.91h9.03c.61,0,.69-.08.69-.68v-2.25c0-.6-.08-.72-.69-.72h-12.84c-.61,0-.65.08-.65.69v26.46c0,.61.04.69.65.69h12.86c.61,0,.69-.08.69-.69v-2.27c0-.61-.08-.73-.69-.73Z"/>
      <path class="cls-1" d="m129.04,149.03h-9.05v-9.05h7.34c.57,0,.69-.08.69-.65v-2.19c0-.61-.12-.69-.69-.69h-7.34v-7.91h9.03c.61,0,.69-.08.69-.68v-2.25c0-.6-.08-.72-.69-.72h-12.84c-.61,0-.65.08-.65.69v26.46c0,.61.04.69.65.69h12.86c.61,0,.69-.08.69-.69v-2.27c0-.61-.08-.73-.69-.73Z"/>
      <path class="cls-1" d="m40.53,151.71l-8.07-26.25c-.16-.53-.16-.57-.73-.57h-3.33c-.53,0-.57.04-.73.57l-8.08,26.25c-.16.57-.32,1.01.57,1.01h3.25c.49,0,.65-.08.77-.57l1.99-7.26h7.55l1.99,7.26c.12.49.28.57.77.57h3.49c.85,0,.73-.45.57-1.01Zm-13.48-10.49l2.11-8.16c.32-1.34.61-2.76.89-4.46.32,1.74.61,3.16.93,4.46l2.03,8.16h-5.97Z"/>
      <path class="cls-1" d="m152.47,151.39l-6.29-11.2c3.29-1.42,4.91-3.98,4.91-7.83,0-2.6-.81-4.67-2.35-5.92-1.42-1.18-3.04-1.54-6.45-1.54h-6.45c-.61,0-.65.08-.65.69v26.38c0,.65.04.77.65.77h3c.61,0,.73-.08.73-.69v-11.32h2.6l6.07,11.44h0s.15.28.15.28c.17.31.17.27.66.27h2.99c.92,0,.73-.82.43-1.32Zm-10.83-14.2h-2.11v-8.97h2.39c3.45,0,4.67,1.05,4.67,4.18,0,3.33-1.5,4.79-4.95,4.79Z"/>
      <path class="cls-1" d="m111.12,124.89h-2.71c-.43,0-.59.06-.69.33l-.05.21c-.01.06-.03.14-.04.21l-2.83,15.61c-.4,2.21-.6,4.46-.76,6.72-.2-2.01-.48-4.1-.84-6.07l-2.98-16.25c-.12-.56-.16-.68-.76-.68h-2.7c-.56,0-.6.08-.72.6l-3.34,15.89c-.44,2.09-.68,4.26-.97,6.35-.16-2.57-.28-4.38-.56-5.91l-2.94-15.97c-.12-.76-.15-1.03-.83-1.03h-2.69c-.71,0-.79.31-.66.87l5.15,26.42c.12.56.2.56.76.56h3.06c.52,0,.6-.04.72-.56l2.94-14.28c.2-1.05,1.17-6.03,1.25-7.08.08,1.13.84,5.95,1.05,7.08l2.49,14.28c.08.52.16.56.72.56h3.1c.52,0,.64-.04.76-.56l5.67-26.02.07-.4c.12-.56.04-.87-.67-.87Z"/>
      <path class="cls-1" d="m175.72,151.41l-.63-.79-9.66-11.93,8.81-11.61c.24-.34,1.03-1.4,1.03-1.4.29-.51.42-.79-.54-.79h-3.11c-.34,0-.45,0-.54.04l-9.68,12.99v-12.34c0-.61-.16-.69-.73-.69h-3.08c-.61,0-.65.08-.65.69v26.46c0,.61.04.69.65.69h3.08c.57,0,.73-.08.73-.69v-12.01l9.52,12.43c.2.31.2.27.77.27h3.5c1.08,0,.85-.82.51-1.32Z"/>
    </g>
    <g>
      <path class="cls-1" d="m391.61,124.9h-2.44c-.61,0-.69.08-.69.69v15.79c0,1.42.04,2.88.16,4.3-.49-1.54-.93-2.92-1.87-4.79l-7.71-15.46c-.24-.49-.33-.53-.81-.53h-2.92c-.61,0-.69.08-.69.69v26.46c0,.61.08.69.69.69h2.44c.61,0,.73-.08.73-.69v-16.84c0-1.5-.12-2.96-.24-4.46.49,1.54.93,2.92,1.87,4.79l8.2,16.64c.24.49.36.57.85.57h2.44c.61,0,.69-.08.69-.69v-26.46c0-.61-.08-.69-.69-.69Z"/>
      <path class="cls-1" d="m412.42,149.05h-9.05v-9.05h7.34c.57,0,.69-.08.69-.65v-2.19c0-.61-.12-.69-.69-.69h-7.34v-7.91h9.03c.61,0,.69-.08.69-.68v-2.25c0-.6-.08-.72-.69-.72h-12.84c-.61,0-.65.08-.65.69v26.46c0,.61.04.69.65.69h12.86c.61,0,.69-.08.69-.69v-2.27c0-.61-.08-.73-.69-.73Z"/>
      <path class="cls-1" d="m457.17,138.36h-6.57c-.61,0-.69.12-.69.73v2.19c0,.61.08.69.69.69h3.13v7.02c-1.06.49-2.07.73-3.13.73-5.76,0-6.05-6.65-6.05-11.24,0-7.3,1.83-10.67,5.84-10.67,1.66,0,2.72.37,4.99,1.7.24.12.57.28.81-.16l1.05-2.07c.2-.41.24-.69-.16-.97-1.79-1.3-4.3-2.07-6.78-2.07-6.82,0-10.39,5.07-10.39,14.77s3.49,14.32,10.31,14.32c2.6,0,5.23-.65,7.02-1.74.53-.32.65-.49.65-.89v-11.61c0-.61-.16-.73-.73-.73Z"/>
      <path class="cls-1" d="m368.9,149.04h-9.05v-9.05h7.34c.57,0,.69-.08.69-.65v-2.19c0-.61-.12-.69-.69-.69h-7.34v-7.91h9.03c.61,0,.69-.08.69-.68v-2.25c0-.6-.08-.72-.69-.72h-12.84c-.61,0-.65.08-.65.69v26.46c0,.61.04.69.65.69h12.86c.61,0,.69-.08.69-.69v-2.27c0-.61-.08-.73-.69-.73Z"/>
      <path class="cls-1" d="m490.56,149.03h-9.05v-9.05h7.34c.57,0,.69-.08.69-.65v-2.19c0-.61-.12-.69-.69-.69h-7.34v-7.91h9.03c.61,0,.69-.08.69-.68v-2.25c0-.6-.08-.72-.69-.72h-12.84c-.61,0-.65.08-.65.69v26.46c0,.61.04.69.65.69h12.86c.61,0,.69-.08.69-.69v-2.27c0-.61-.08-.73-.69-.73Z"/>
      <path class="cls-1" d="m436.04,151.39l-6.29-11.2c3.29-1.42,4.91-3.98,4.91-7.83,0-2.6-.81-4.67-2.35-5.92-1.42-1.18-3.04-1.54-6.45-1.54h-6.45c-.61,0-.65.08-.65.69v26.38c0,.65.04.77.65.77h3c.61,0,.73-.08.73-.69v-11.32h2.6l6.07,11.44h0s.15.28.15.28c.17.31.17.27.66.27h2.99c.92,0,.73-.82.43-1.32Zm-10.83-14.2h-2.11v-8.97h2.39c3.45,0,4.67,1.05,4.67,4.18,0,3.33-1.5,4.79-4.95,4.79Z"/>
      <path class="cls-1" d="m469.03,124.87h-2.91c-.69,0-.77.08-.77.69,0,0,0,26.64,0,26.69.04.38.21.45.79.45h2.88c.69,0,.78-.08.78-.69v-26.46c0-.61-.09-.69-.78-.69Z"/>
    </g>
  </g>
  <g>
    <path class="cls-1" d="m63.07,2.4h-13.13c-2.4,0-2.96.42-2.96,2.96v36.14h-26.82V5.36c0-2.54-.56-2.96-2.96-2.96H4.06c-2.4,0-2.96.42-2.96,2.96v90.77c0,2.54.56,2.96,2.96,2.96h13.13c2.4,0,2.96-.42,2.96-2.96v-39.39h26.82v39.39c0,2.54.56,2.96,2.96,2.96h13.13c2.4,0,2.96-.42,2.96-2.96V5.36c0-2.54-.56-2.96-2.96-2.96Z"/>
    <path class="cls-1" d="m117.3,0c-21.74,0-35.15,16.52-35.15,50.82s13.27,50.68,35.15,50.68,35.15-16.52,35.15-50.68S139.04,0,117.3,0Zm0,86.68c-10.59,0-15.11-13.83-15.11-35.86s4.52-36,15.11-36,15.11,13.83,15.11,36-4.52,35.86-15.11,35.86Z"/>
    <path class="cls-1" d="m219.49,82.16h-31.86V5.36c0-2.54-.56-2.96-2.96-2.96h-13.13c-2.4,0-2.96.42-2.96,2.96v90.77c0,2.54.56,2.96,2.96,2.96h47.3c1.13,0,3.07,0,3.25-2.26l.62-12.35c.1-1.8-1-2.33-3.22-2.33Z"/>
    <path class="cls-1" d="m671.19,96.14h-.03l-22.58-40.38c5.22-2.68,16.09-6.91,16.09-26.12,0-25.42-22.02-27.25-32.89-27.25h-22.87c-2.4,0-2.96.42-2.96,2.97v90.77c0,2.54.56,2.96,2.96,2.96h13.13c2.4,0,2.96-.42,2.96-2.96v-37.76h6.34l19.5,38.75c.99,1.84.99,1.98,3.25,1.98h15.14c2.48,0,3.03-1.48,1.96-2.96Zm-42.52-53.01h-3.67v-25.49h5.22c7.34,0,15.39.75,15.39,12.29,0,13.2-7.76,13.2-16.94,13.2Z"/>
    <path class="cls-1" d="m281.71,2.4h-56.96c-1.98,0-2.4.42-2.4,2.4v12.14c0,1.98.42,2.4,2.4,2.4h18.49v76.8c0,2.54.56,2.96,2.96,2.96h13.13c2.4,0,2.96-.42,2.96-2.96V19.34h18.76c1.13,0,3.07,0,3.25-2.26l.62-12.35c.1-1.8-1-2.33-3.22-2.33Z"/>
    <path class="cls-1" d="m441.64,83.86h-30.21v-25.48h24c2.4,0,2.96-.42,2.96-2.96v-9.32c0-2.54-.42-2.96-2.96-2.96h-24v-25.48h29.6c2.4,0,2.82-.42,2.82-2.96V5.36c0-2.54-.42-2.96-2.96-2.96h-45.56c-2.4,0-2.96.42-2.96,2.96v90.77c0,2.54.56,2.96,2.96,2.96h46.45c2.4,0,2.82-.42,2.82-2.96v-9.32c0-2.54-.42-2.96-2.96-2.96Z"/>
    <path class="cls-1" d="m482.11,96.14c0,2.54.56,2.96,2.96,2.96h13.13c2.4,0,2.96-.42,2.96-2.96v-36.71s27.72-54.12,27.91-54.63c.57-1.53-.42-2.4-2.4-2.4h-14.6c-2.26,0-2.26.14-3.11,1.98l-10.06,21.6c-1.84,3.81-3.67,8.19-6.21,16.52h-.28c-1.98-7.34-4.09-12-5.65-15.39l-10.67-22.73c-.85-1.84-.85-1.98-3.11-1.98h-16.6c-1.98,0-2.97.87-2.4,2.4.19.52,28.12,54.63,28.12,54.63v36.71Z"/>
    <path class="cls-1" d="m368.73,2.4h-13.55c-2.54,0-2.68.28-3.39,2.26l-12,35.58c-3.11,9.32-3.67,11.44-4.52,16.94h-.42c-.85-5.51-1.41-7.62-4.52-16.94l-12-35.58c-.71-1.98-.85-2.26-3.39-2.26h-13.55c-2.4,0-2.68.71-2.96,4.52l-3.95,89.22c0,2.54.56,2.96,2.96,2.96h12.42c2.4,0,2.96-.42,2.96-2.96l1.13-47.86c.14-5.08.28-17.51.28-22.59h.28c.85,5.08,3.39,17.08,4.94,22.16l8.61,27.53c.56,1.98.71,2.4,3.11,2.4h7.76c2.4,0,2.54-.42,3.11-2.4l8.61-27.53c1.55-5.08,4.09-17.08,4.94-22.16h.28c0,5.08.14,17.51.28,22.59l1.13,47.86c0,2.54.56,2.96,2.96,2.96h12.42c2.4,0,2.96-.42,2.96-2.96l-3.95-89.22c-.28-3.81-.56-4.52-2.96-4.52Z"/>
    <path class="cls-1" d="m588.13,83.86h-30.21v-25.48h24c2.4,0,2.96-.42,2.96-2.96v-9.32c0-2.54-.42-2.96-2.96-2.96h-24v-25.48h29.6c2.4,0,2.82-.42,2.82-2.96V5.36c0-2.54-.42-2.96-2.96-2.96h-45.56c-2.4,0-2.96.42-2.96,2.96v90.77c0,2.54.56,2.96,2.96,2.96h46.45c2.4,0,2.82-.42,2.82-2.96v-9.32c0-2.54-.42-2.96-2.96-2.96Z"/>
  </g>
</svg>