<?xml version="1.0" encoding="UTF-8"?>
<svg id="Ebene_1" data-name="Ebene 1" xmlns="http://www.w3.org/2000/svg" viewBox="0 0 895.32 127.87">
  <defs>
    <style>
      .cls-1 {
        fill: #fff;
      }

      .cls-2 {
        fill: #b17582;
      }
    </style>
  </defs>
  <path class="cls-1" d="m1.87,124.68l2.25-.19c5.81-.37,7.87-.75,7.87-3v-51.75c0-11.62-1.31-13.12-7.69-14.81l-4.31-.94.19-.75,38.44-10.69v79.31c0,1.5,1.12,1.69,9.75,2.62l1.5.19.56,1.13H1.31l.56-1.13ZM24.56,1.87"/>
  <path class="cls-1" d="m57,124.68l2.25-.19c5.81-.37,7.87-.75,7.87-3v-51.75c0-11.62-1.31-13.12-7.69-14.81l-4.31-.94.19-.75,39-10.69-.56,17.06h.19c8.06-8.06,20.06-17.44,32.06-17.44,6.37,0,10.87,2.62,14.81,6.37,2.81,3,4.5,6.56,5.44,10.87l.94.38c8.44-8.06,19.87-17.62,32.25-17.62,6.19,0,10.69,2.44,14.81,6.56,4.5,4.5,6.19,13.69,6.19,29.62v43.31c0,1.13,0,1.69,9.37,2.81l1.69.19.56,1.13h-48.19l.56-1.13,3.37-.19c6.56-.37,6-1.5,6-3v-47.62c0-12-5.81-15.94-15-15.94-5.25,0-10.5,2.06-11.62,5.44v58.68c0,1.5.56,1.69,7.69,2.44l2.62.19.56,1.13h-47.62l.56-1.13,3.37-.19c5.62-.37,6.19-1.5,6.19-3v-47.62c0-12-6-15.94-15.19-15.94-4.69,0-8.25,1.69-11.62,3.19v60.75c0,1.5.37,2.06,7.69,2.62l2.81.19.37,1.13h-48.19l.56-1.13Z"/>
  <path class="cls-1" d="m262.67,109.87l-.37-.38c-9.19,10.69-17.44,18.19-27.56,18.19-10.87,0-19.31-8.81-19.31-17.62,0-14.25,12.19-22.87,47.62-32.44l.19-6.94c.56-13.31-6.37-23.44-18.94-23.44-7.12,0-9.19,1.69-9.19,3.94,0,1.69,6.37,7.12,6.37,12,0,6.37-5.44,11.25-12.75,11.25-6.37,0-12-3.37-12-10.12,0-14.25,27.37-22.12,43.5-22.12,23.06,0,30.19,9.37,29.62,28.5l-1.5,34.12c-.37,7.5,3.19,10.87,7.31,10.87,3,0,5.81-3.37,7.87-6.37l1.31.56c-5.06,6.19-14.06,18-24.94,18-9.75,0-15.56-6.94-17.25-18Zm-.75-2.25l1.31-27.94c-16.12,4.31-21.94,10.5-21.94,20.44,0,7.5,3.56,12.94,10.69,12.94,4.12,0,7.12-2.44,9.94-5.44Z"/>
  <path class="cls-1" d="m306.92,124.68l2.25-.19c5.81-.37,7.87-.75,7.87-3v-51.75c0-11.62-1.31-13.12-7.69-14.81l-4.31-.94.19-.75,39-10.69-.56,29.62h.37c5.81-20.06,13.69-30,25.5-30,8.44,0,14.81,5.06,14.81,14.62,0,6.19-5.44,12.75-12.56,12.75-8.62,0-12.75-6.56-14.62-12.75-5.62.38-9.37,7.5-13.5,24v40.69c0,1.5,1.69,2.44,10.31,3l2.44.19.56,1.13h-50.62l.56-1.13Z"/>
  <path class="cls-1" d="m383.86,124.68l1.69-.19c5.62-.75,7.69-.75,7.69-3V25.69c0-11.25-.94-12.75-7.5-14.44l-4.31-1.12.19-.75L420.05,0v86.62l11.06-9.37c14.81-13.5,19.12-19.5,19.12-23.81,0-3.75-.94-6.37-13.87-7.31l-2.44-.19-.75-1.13h48l-.56,1.13-2.62.37c-9.75,1.5-15.37,2.25-31.87,18.75,0,0-1.12,1.13-.94,1.31l23.44,44.62c5.62,10.87,7.87,13.12,13.31,13.5l2.81.19.56,1.13h-39.56l-1.69-3.37-18.94-37.69-5.06,4.12v33c0,1.5,1.12,2.06,9.19,2.62l3,.19.19,1.13h-49.12l.56-1.13Z"/>
  <circle class="cls-2" cx="21.95" cy="16.63" r="16.63"/>
</svg>