<?xml version="1.0" encoding="UTF-8"?>
<svg id="Ebene_1" xmlns="http://www.w3.org/2000/svg" version="1.1" viewBox="0 0 1505.41 1508.45">
  <!-- Generator: Adobe Illustrator 29.6.1, SVG Export Plug-In . SVG Version: 2.1.1 Build 9)  -->
  <defs>
    <style>
      .st0 {
        fill: #a5a5a5;
      }
    </style>
  </defs>
  <path class="st0" d="M8.35,11.59v696.37c0,.71.58,1.27,1.27,1.27h132.87c.71,0,1.27-.56,1.27-1.27v-426.41c0-.69.58-1.27,1.29-1.27h49.87c.69,0,1.27.58,1.27,1.27v252.96c0,96.5,78.23,174.73,174.73,174.73h147.25c.71,0,1.29-.56,1.29-1.27v-402.54c0-14.48,11.73-26.21,26.21-26.21s26.19,11.73,26.19,26.21v402.54c0,.71.58,1.27,1.29,1.27h132.85c.71,0,1.29-.56,1.29-1.27V185.04c0-96.5-78.23-174.73-174.73-174.73h-147.25c-.71,0-1.29.56-1.29,1.27v527.28c0,14.48-11.73,26.21-26.21,26.21s-26.19-11.73-26.19-26.21V11.59c0-.71-.58-1.27-1.29-1.27H9.62c-.69,0-1.27.56-1.27,1.27"/>
  <path class="st0" d="M1205.47,358.9v-135.41l-135.99.86-.03-78.62h292.31v56.94c0,86.29-69.97,156.22-156.29,156.22M1069.84,709.23v-252.36c-.15-21.5,17.24-39,38.74-39s38.76,17.34,38.76,38.72v38.59h214.42v214.04h135.29V185.04c0-96.5-78.26-174.73-174.81-174.73h-524.11v698.93h271.72-.01Z"/>
  <path class="st0" d="M798.14,1498.14v-460.41l563.6-102.22h-427.28c-75.28,0-136.32-61.03-136.32-136.29h698.93v270.84l-539.61,97.89c-13.82,2.51-23.86,14.55-23.86,28.58,0,16.04,12.99,29.04,29.04,29.04h359.65c96.53,0,174.78,78.23,174.78,174.73v97.85h-698.93,0Z"/>
  <path class="st0" d="M571.86,799.22v554.78h-53.29v-554.78H183.09c-96.5,0-174.73,78.23-174.73,174.73v524.2h194.81v-144.15h78.63l-.88-418.49h76.89v387.91c0,96.5,78.23,174.73,174.73,174.73h174.73v-698.93h-135.41Z"/>
</svg>