<?xml version="1.0" encoding="UTF-8"?>
<svg id="Ebene_1" data-name="Ebene 1" xmlns="http://www.w3.org/2000/svg" viewBox="0 0 689.96 364.86">
  <defs>
    <style>
      .cls-1 {
        fill: #fff;
      }
    </style>
  </defs>
  <g>
    <path class="cls-1" d="m224.33,290.18c.15-.93.16-1.8.16-2.54.05-3.74-2.13-5.84-4.2-5.86-10.55-.13-15.64,34.14-19.97,71.82l-4.47-.06c3.42-23.67,5.44-35.93,5.44-35.93-3.95.42-7.15.18-11.62.13-5.02,23.18-12.2,36.65-29.22,35.71-10.34-.59-17.73-8.16-17.61-18.58.12-10.08,7.53-21.08,18.89-20.94,6.94.09,11.89,4.95,11.81,12.23-.03,2.74-1.56,7.26-3.52,9.58l-3.04-2.24c2.1-2.58,3.62-6.43,3.65-8.91.05-4.47-2.7-8.65-8.38-8.72-10.22-.12-15.74,8.96-15.85,18.71-.12,9.55,5.48,16.63,15.22,17.02,13.42.56,19.93-13.25,24.05-33.77-2.67.1-4.22.75-6.1,1.73l-1.24-2.75c2.22-1.04,5.16-1.61,7.9-1.64,1.85-9.39,3.14-16.92,6.07-26.97-7.39,3.85-19.41,3.84-19.51,11.72-.05,4.07,2.94,5.71,7.54,5.77l-.51,3.4c-6.61-.42-10.04-3.46-9.98-8.4.13-10.42,17.69-10.41,23.29-15.08l1.94-6.12,3.33.78c-.09,1.74-.92,4-2.14,5.92-2.93,10.12-4.24,19.12-6.1,29.04,5.81.27,7.87,1.23,11.41.47,5.07-27.19,11.46-36.39,19.34-36.3,4.47.05,7.38,3.16,7.31,8.91,0,.53-.01,1.13-.09,1.73l-3.81.16Z"/>
    <path class="cls-1" d="m225.5,308.36l3.01.04c-1.77,8.19-3.33,15.86-4.21,22.12-.22,1.33-.3,2.47-.31,3.34-.02,1.54.24,2.41.77,2.41,1.54.02,4.4-4.62,7.91-13.53.4,0,1.2.55,1.19.68-4.81,11.23-7.27,15.67-10.07,15.64-1.94-.03-2.71-2.44-2.66-6.91l.37-3.2c-1.93,5.32-4.59,10.03-8.2,9.99-2.87-.03-4.11-3.05-4.05-7.8.11-9.35,5.16-23.38,11.17-23.31,2.67.03,3.78,2.19,4.08,5.19l.99-4.66Zm-12.9,22.82c-.03,2.8.54,4.75,1.95,4.77,3.6.04,8.51-13.46,8.59-20.07.04-3.2-.8-5.35-2.61-5.37-3.67-.05-7.84,13.26-7.93,20.67Z"/>
    <path class="cls-1" d="m229.14,338.79c.14-.93.87-5.67,2.4-10.19,1.36-7.2,2.86-15.26,3.51-20.19l3.61.04-1.71,9.26c2.46-4.98,4.99-9.49,9-9.44,2.14.03,3.38,1.58,3.35,4.32-.07,5.61-4.86,15.9-4.93,21.38-.02,1.8.64,2.48,1.57,2.49,2.2.03,5.01-5.82,8.04-13.46.4,0,1.2.55,1.19.68l-.76,1.93c-2.69,6.91-5.91,13.75-9.91,13.71-2.21-.03-3.79-1.71-3.75-4.79.07-6.21,4.95-16.97,5-21.24.02-1.6-.44-2.47-1.51-2.49-2.2-.03-6.29,6.13-8.86,14.85l-2.63,13.19-3.61-.05Z"/>
    <path class="cls-1" d="m273.11,286.76l3.14.04c-1.32,9.94-8.1,40.31-8.16,45.65-.03,2.47.43,3.28,1.09,3.29,1.94.03,4.4-4.89,7.36-12.47.47,0,1.26.68,1.26.75-4.13,10.63-7.6,15.6-10.41,15.57-2-.03-2.98-1.91-2.93-5.98.01-.87.23-2.47.52-4.54-2.08,5.86-4.6,10.57-8.34,10.52-2.87-.03-3.97-3.39-3.91-7.93.11-9.35,5.09-23.38,11.1-23.31,2.47.03,3.72,1.85,4.15,4.66,1.58-8.6,3.78-19.52,5.13-26.25Zm-17.11,44.94c-.03,2.81.54,4.75,1.94,4.77,3.21.04,8.57-13.05,8.66-20,.04-2.94-.73-5.42-2.67-5.44-3.74-.04-7.84,13.33-7.93,20.67Z"/>
    <path class="cls-1" d="m286.09,322.59c1.7-2.72,2.61-5.78,2.63-7.98.03-2.14-.69-3.61-2.09-3.63-3.74-.05-7.26,9.59-7.35,17.14-.06,4.74,1.23,8.56,4.77,8.67,3.88-.09,6.8-4.46,10.38-13.3.34,0,1.33.48,1.33.68l-.69,1.53c-3.3,7.77-6.92,14.28-12.73,14.21-4.61-.06-6.42-4.95-6.35-10.96.11-9.02,4.66-20.38,10.87-20.3,3.14.04,4.51,2.93,4.46,6.53-.04,2.87-.94,6.2-2.51,8.99l-2.72-1.57Z"/>
    <path class="cls-1" d="m302.28,337.07c1.87.02,4.46-4.75,7.91-13.39.27,0,1.2.35,1.19.68-3.65,9.17-6,15.69-10.27,15.64-2.47-.03-3.52-1.71-3.49-4.45.05-4.54,3.25-9.38,3.3-13.59.04-3.2-1.34-5.29-2.25-7.51-.91,3.46-2.02,6.99-3.06,9.71,0,0-1.2-.22-1.19-.68,1.24-3.46,2.36-7.65,3.15-11.65-.46-1.01-.64-2.35-.62-4.08.03-2.41.53-5.14,1.3-7.87l3.13.91c-.11,3.54-.68,6.4-1.32,9.33l-.42,1.33c1.64,2.63,4.67,5.47,4.62,9.94-.06,4.94-3.26,10.31-3.3,13.78-.01,1.27.51,1.88,1.31,1.89Z"/>
    <path class="cls-1" d="m325.18,309.57l3.01.04c-1.77,8.19-3.33,15.86-4.21,22.12-.22,1.33-.3,2.47-.31,3.34-.02,1.54.24,2.41.77,2.41,1.54.02,4.4-4.62,7.91-13.53.4,0,1.2.55,1.19.68-4.81,11.23-7.27,15.67-10.07,15.64-1.94-.03-2.71-2.44-2.65-6.91l.37-3.2c-1.93,5.32-4.6,10.03-8.2,9.98-2.87-.03-4.1-3.05-4.05-7.8.11-9.35,5.16-23.38,11.17-23.31,2.67.03,3.78,2.18,4.08,5.19l.99-4.66Zm-12.9,22.82c-.03,2.81.54,4.75,1.95,4.77,3.61.04,8.51-13.46,8.59-20.07.04-3.2-.8-5.35-2.61-5.37-3.67-.05-7.84,13.26-7.93,20.67Z"/>
    <path class="cls-1" d="m329.33,347.49c.18-14.49,7.25-47.13,10.96-56.1,1.17-2.79,2.99-4.1,4.46-4.09,1.67.02,2.99,1.44,2.96,3.98-.13,10.48-9.5,29.14-12.3,33.91-.71,3.6-1.29,7.06-1.73,10.33,3.61-.69,8.4-4.37,11.16-11.42.33,0,1.2.55,1.19.75-3.09,6.57-6.74,10.87-11.04,12.29,3.31,2.71,4.6,6.53,4.56,9.94-.06,4.61-2.44,8.52-5.51,8.48-2.47-.03-4.79-1.46-4.71-8.07Zm8.01.03c.04-3.14-1.05-6.76-4.1-9.26-.44,3.73-.89,7.2-.92,9.81-.04,3.34.54,5.48,1.87,5.5,1.67.02,3.11-2.7,3.15-6.04Zm7.78-57.74c-1.8-.02-5.45,14.16-8.65,30.15,2.95-6.11,9.27-21.26,9.36-28.6.01-1-.18-1.54-.72-1.55Z"/>
    <path class="cls-1" d="m347.15,309.77c2.84-13.59,4.86-15.43,7.33-15.41,1.87.02,2.59,1.7,2.55,4.44-.03,2.6-1.15,6.53-2.87,11.05l2.4.03-.43,2.13-2.8-.03c-1.45,3.59-3.3,7.37-5.14,11.09-.44,3.47-.75,6.6-.78,9.08-.05,3.87.67,5.62,1.94,5.63,2.27.03,4.93-5.02,8.31-13.52.33,0,1.13.35,1.13.68v.13c-4.14,10.63-6.94,15.68-10.61,15.63-3.07-.04-3.89-4.19-3.81-10.8.19-4.81,1-10.81,2.28-17.47,0-.2.07-.33.07-.53l-2.54-.03.43-2.13,2.54.03Zm4.58,2.19l-1.67-.02-1.08,6.66,2.75-6.65Zm2.72-15.06c-1.27-.02-2.53,4.78-4.03,12.91l2.14.03c1.59-4.26,2.77-8.25,2.81-11.25.01-1-.11-1.67-.91-1.68Z"/>
    <path class="cls-1" d="m375.35,324.47c.33,0,1.2.48,1.19.68-2.28,6.11-6.33,15.82-12.48,15.74-5.14-.06-7.08-5.03-7.01-10.97.11-9.08,4.92-20.44,11.33-20.36,2.54.03,3.79,1.78,3.76,4.19-.06,5.27-6.21,11.21-11.3,12.08-.21,1.33-.36,2.6-.38,3.87-.05,4.47,1.17,8.03,4.51,8.07,4.34.05,7.97-7.12,10.38-13.3Zm-14.29-.37c5.64-2.54,8.24-7.18,8.27-10.32.02-1.6-.44-2.41-1.31-2.42-2.87-.04-5.76,6.54-6.97,12.74Z"/>
    <path class="cls-1" d="m394.49,288.23l3.14.04c-1.32,9.94-8.1,40.31-8.17,45.65-.03,2.47.43,3.28,1.1,3.29,1.94.02,4.4-4.89,7.36-12.47.47,0,1.26.68,1.26.75-4.13,10.64-7.6,15.6-10.41,15.57-2-.02-2.98-1.91-2.93-5.98.01-.87.23-2.47.52-4.54-2.08,5.85-4.6,10.56-8.34,10.52-2.87-.04-3.97-3.39-3.91-7.93.11-9.35,5.09-23.38,11.1-23.31,2.47.03,3.72,1.85,4.15,4.66,1.57-8.6,3.77-19.52,5.13-26.25Zm-17.11,44.94c-.03,2.8.54,4.75,1.94,4.77,3.21.04,8.57-13.05,8.66-20,.04-2.94-.73-5.42-2.67-5.44-3.74-.05-7.84,13.33-7.93,20.68Z"/>
    <path class="cls-1" d="m464,328.01c-.35,1.13-1.57,8.33-3.42,17.86-1.78,9.33-4.57,19.11-14.39,18.99-6.07-.07-8.89-4.38-8.84-8.72.05-4.27,2.97-8.58,8.32-8.65.12,1.2.24,2.41.42,3.61-3.54.29-5.38,3.21-5.41,6.01-.03,2.87,1.8,5.7,5.74,5.74,7.48.09,9.06-8.77,10.63-17.17.57-3.2,1.22-6.53,1.92-9.93-2.31,3.51-5.95,6.14-11.16,6.08-6.61-.08-10.42-5.4-12-12.7-1.27.12-2.61.17-3.95.15-15.29-.18-21.79-9.21-21.69-17.76.1-7.88,5.8-15.36,15.41-15.24,2.14.03,4.07.58,5.79,1.61l-1.5,2.79c-1.52-.89-3.06-1.44-5.06-1.46-7.21-.09-11.83,6.2-11.91,12.81-.09,7.34,5.36,15.09,18.98,15.26,1.2.01,2.4.03,3.54-.09-.31-2.14-.48-4.48-.45-6.88.21-17.1,9.14-38.03,24.23-37.84,7.08.08,10.42,5.53,10.33,12.61-.15,12.42-10.78,30.12-30.19,33.63,1.12,6.56,4.14,11.13,9.35,11.2,10.89.13,11.79-13.55,14.73-19.66l3.39,1.58c-.83,2.19-1.72,4.12-2.81,6.18Zm-5.16-43.21c-12.09-.15-19.88,20.4-20.07,36.29-.02,1.94.09,3.81.26,5.55,17.74-3.53,26.56-20.65,26.7-31.93.07-6.21-2.29-9.84-6.89-9.9Z"/>
    <path class="cls-1" d="m491.79,326.54c-1.72,4.39-4.16,7.16-7.45,8.06-2.19,4.31-5.64,7.68-9.11,7.64-7.68-.09-7.94-11.18-4.53-22.56l2.06.56c1-4.93,3.99-9.23,8.66-9.18,7.08.09,7.4,12.45,3.68,21.62,2.22-1.04,3.91-2.89,5.5-6.81.33,0,1.33.28,1.19.68Zm-11.19,8.41c-5.74-.54-8.01-5.57-8.08-10.92-1.07,5.6-2.53,16.2,2.74,16.26,2.14.03,4.1-2.22,5.34-5.35Zm.76-1.86c3.58-8.7,4.25-20.25-.09-20.3-7.41-.09-10.46,20.18.09,20.3Z"/>
    <path class="cls-1" d="m513.09,326.8c-1.72,4.39-4.16,7.16-7.45,8.06-2.19,4.31-5.64,7.68-9.11,7.64-7.68-.09-7.95-11.18-4.54-22.56l2.06.56c1-4.93,3.99-9.23,8.66-9.18,7.08.09,7.4,12.44,3.68,21.61,2.22-1.04,3.91-2.89,5.49-6.81.33,0,1.33.29,1.19.68Zm-11.19,8.41c-5.74-.54-8.01-5.57-8.08-10.92-1.07,5.6-2.53,16.2,2.74,16.26,2.14.03,4.1-2.22,5.34-5.35Zm.76-1.86c3.58-8.7,4.25-20.25-.09-20.3-7.41-.09-10.46,20.18.09,20.3Z"/>
    <path class="cls-1" d="m531.03,289.89l3.14.04c-1.32,9.94-8.1,40.31-8.17,45.65-.03,2.47.43,3.28,1.1,3.29,1.93.02,4.4-4.89,7.36-12.47.47,0,1.26.69,1.26.75-4.13,10.63-7.6,15.6-10.4,15.57-2-.03-2.98-1.91-2.93-5.98.01-.87.23-2.47.52-4.53-2.07,5.85-4.6,10.56-8.34,10.52-2.87-.03-3.97-3.39-3.91-7.93.11-9.35,5.09-23.38,11.1-23.31,2.47.03,3.72,1.85,4.15,4.66,1.57-8.6,3.77-19.52,5.13-26.25Zm-17.11,44.94c-.04,2.81.54,4.75,1.94,4.77,3.21.04,8.57-13.05,8.66-20,.04-2.94-.74-5.42-2.67-5.44-3.74-.05-7.84,13.33-7.93,20.67Z"/>
    <path class="cls-1" d="m546.03,335.55c-1.15,5.52-3.6,7.17-7.97,7.45-2.93.19-6.06-1.88-5.74-6.08l3.07-.1c-.02,1.87,1.09,3.42,3.03,3.44,2.47.03,4.24-2.75,4.28-5.96.06-4.81-2.42-9.91-3.6-16.74-1.11,3.46-2.42,6.92-3.45,9.51,0,0-1.2-.21-1.19-.68,1.1-2.99,2.83-7.31,4.21-11.44-.25-1.47-.36-3.08-.33-5.68.03-2.4.72-4.67,1.28-6.53l2.8.57c-.38,3.8-.88,6.74-1.79,9.6.32,6.75,5.7,14.63,5.62,21.1,0,.53-.08,1.07-.22,1.53"/>
  </g>
  <g>
    <path class="cls-1" d="m82.32,223.44h-23.52L26.25,100.64v122.79H0V0h28.44l42.12,169.29L112.95,0h25.16v223.44h-26.53v-121.7l-29.26,121.7Z"/>
    <path class="cls-1" d="m321.07,178.04V0h26.53v178.04c0,25.71-22.7,46.77-50.05,46.77s-49.5-21.06-49.5-46.77V0h26.25v178.04c0,11.21,10.67,20.51,23.25,20.51s23.52-9.3,23.52-20.51Z"/>
    <path class="cls-1" d="m484.61,223.44h-26.53V0h47.59c26.25,0,47.86,21.33,47.86,47.59v33.36c0,12.31-5.74,24.61-14.22,33.37,10.39,9.02,16.14,22.7,16.14,36.1v73.02h-26.53v-73.02c0-12.03-10.12-22.15-21.88-22.15h-22.43v95.17Zm0-197.18v75.76h22.15c11.21,0,19.97-9.85,19.97-21.06v-33.36c0-11.76-9.3-21.33-21.06-21.33h-21.06Z"/>
    <path class="cls-1" d="m689.72,223.44h-26.25V0h26.25v223.44Z"/>
  </g>
  <rect class="cls-1" x="560.86" y="319.29" width="129.1" height="2.94"/>
  <rect class="cls-1" x=".59" y="319.29" width="129.1" height="2.94"/>
</svg>