<?xml version="1.0" encoding="utf-8"?>
<!-- Generator: Adobe Illustrator 27.6.1, SVG Export Plug-In . SVG Version: 6.00 Build 0)  -->
<svg version="1.1" id="Ebene_1" xmlns="http://www.w3.org/2000/svg" xmlns:xlink="http://www.w3.org/1999/xlink" x="0px" y="0px"
	 viewBox="0 0 319.3 302" style="enable-background:new 0 0 319.3 302;" xml:space="preserve">
<style type="text/css">
	.st0{fill:#FFFFFF;}
</style>
<g>
	<path class="st0" d="M69,110.8c0-17.2,9.3-21.2,15.3-21.2s15.4,4.1,15.4,21.2s-9.3,21.1-15.4,21.1C78.3,131.9,69,128,69,110.8z"/>
	<path class="st0" d="M162.9,203.9h-0.2l-7.5,23.8h14.6L162.9,203.9z M162.9,203.9h-0.2l-7.5,23.8h14.6L162.9,203.9z M0,0v302h319.3
		V0H0z M87.5,36.8h18.4v29.4H87.5V36.8z M63,36.8h18.4v29.4H63V36.8z M84.4,70.4c23.5,0,39.2,16.8,39.2,40.4s-15.7,40.4-39.2,40.4
		c-23.5,0-39.1-16.9-39.1-40.4C45.3,87.3,60.9,70.4,84.4,70.4z M95.2,255.2H71.4v-57.4H45.5v-19.7h77.7v19.7h-28V255.2z
		 M177.1,254.8l-3.2-11h-24.6l-3.4,11H122l28.4-77.1h23.2l28.1,77.1H177.1z M203.3,91.9h-27.9v57.4h-23.8V91.9h-25.9V72.2h77.7V91.9
		z M274.8,255.2h-64.9v-77.1h23.8v57.4h41.1V255.2z M274.9,89.5l-36.2,40.2h35.9v19.7h-65.5v-18.6l34.4-38.8h-33.8V72.2h65.2V89.5z
		 M162.7,203.9l-7.5,23.8h14.6l-6.9-23.8H162.7z"/>
</g>
</svg>
