<?xml version="1.0" encoding="UTF-8"?>
<svg id="Ebene_1" data-name="Ebene 1" xmlns="http://www.w3.org/2000/svg" viewBox="0 0 282.71 223.97">
  <defs>
    <style>
      .cls-1 {
        fill: #fff;
      }
    </style>
  </defs>
  <g>
    <path class="cls-1" d="m85.24,85.16l-43.57,38.6c-.47.45.06,1.21.65.92l32.01-15.13c.19-.09.41-.08.58.04l7.77,5.35c.37.26.88,0,.89-.45l2.64-28.9c.02-.51-.59-.78-.96-.43"/>
    <path class="cls-1" d="m88.82,84.91c.37.23,20.12,13.14,20.12,13.14.45.3.23,1-.31.98l-7.92-.26c-.13,0-.25-.06-.35-.15l-12.04-11.35c-.11-.1-.17-.24-.17-.39v-1.57c0-.37.29-.64.66-.41"/>
    <path class="cls-1" d="m132.88,79.55l-19.73,21.7c-.11.12-.27.19-.43.18l-8.4-.28c-.52-.02-.78.61-.4.97l26,24.11c.44.41,1.15.29,1.43-.24l24.02-44.69c.14-.25.45-.36.71-.25l24.1,11.01c.61.26,1.09-.57.55-.96l-26.96-20.13c-.53-.38-1.27-.25-1.63.3l-17,25.69c-.32.49-1.08.22-1.02-.36l-1.18-12.46c.03-.27.24-.48.51-.5l3.09.32c.43-.03.66-.52.42-.87l-3.22-3.46c-.2-.29-.63-.32-.87-.06"/>
    <path class="cls-1" d="m197.25,82.98c-.2-.18-.51-.12-.61.13-1.18,2.83-6.96,16.69-6.96,16.21,0-.44-18.25-7.92-24.81-10.6-.41-.17-.72.37-.38.65l20.56,16.96c.24.2.15.6-.16.67l-8.05,1.89c-.35.08-.4.55-.09.71l21.59,11.03c.52.27,1.16-.02,1.3-.59l5-17.49c.06-.24.34-.37.56-.24l31.88,19.92c.4.22.78-.31.45-.61l-40.28-38.63Z"/>
    <path class="cls-1" d="m159.86,70.78s0-.23.05-.66c.02-.23.09-.72.1-.82,1.36-8.36,8-15.29,16.93-16.71,11.13-1.76,21.58,5.7,23.35,16.68.56,3.5.16,6.93-1,10.04-.21.56-.08,1.19.36,1.6l5.27,4.88c.34.31.89.23,1.1-.18,2.77-5.27,3.93-11.41,2.92-17.71-2.53-15.68-17.47-26.36-33.37-23.84-11.24,1.78-19.93,9.68-23.18,19.7-.07.21-.33,1.14-.33,1.14l7.8,5.88Z"/>
    <path class="cls-1" d="m86.11,79.04c.18-.18.32-.41.4-.65,2.36-6.84,8.37-12.21,16.1-13.44,6.4-1.01,12.57,1.04,17,5.04-4.53,5.65-8.21,10.23-8.39,10.43-.48.55-.97,2.33.24,3.19,1.26.9,2.48-.08,3.04-.6.19-.18,3.84-3.79,8.75-8.65,1.05,1.71,1.86,3.6,2.36,5.62.15.59.38,1.57.38,1.57l6.87-7.56s-.22-.45-.46-.99c-.79-1.73-1.75-3.37-2.85-4.89,8.97-8.9,18.98-18.86,20.9-20.87,3.6-3.76,5.54-7.05,3.99-10.57-1.89-4.31-9.1-5.81-18.91-5.06-8.01.61-15.35,1.3-14.47-.93.95-2.39,7.23-8.26,23.68-7.31,14.87.86,24.48,6.75,32.1,11.33,2.61,1.57,3.33,1,1.32-1.56-4.06-5.15-13.12-15.65-32.7-17.53-31.91-3.06-46.2,14.55-43.6,22.46,2.07,6.31,14.93,8.19,27.65,6.81,2.5-.27,7.19-.64,8,.36.81,1-.38,2.89-.38,2.89,0,0-5.9,7.36-12.07,15.06-6.29-5.44-14.91-8.18-23.83-6.77-15.06,2.39-25.56,15.75-24.48,30.49.04.54.71.77,1.09.39l8.26-8.26Z"/>
    <path class="cls-1" d="m171.83,15.63c6.26-1.94,8.34-12.74-1.48-15.14-9.82-2.39-14.88,4.37-13.63,8.99,1.21,4.47,8.61,8.16,15.11,6.14"/>
  </g>
  <g>
    <path class="cls-1" d="m162.47,178.28l-5.05-16.96-5.29,16.96h10.35Zm13.05,14.44h-8.72l-2.41-7.4h-14.38l-2.35,7.4h-8.72l13.71-39.22c.6-1.36,1.27-2.3,2.01-2.83.74-.52,1.65-.78,2.74-.78s1.96.24,2.62.72c.66.48,1.25,1.44,1.77,2.89l13.72,39.22Z"/>
    <path class="cls-1" d="m207.22,192.72h-12.75c-4.81,0-8.29-.93-10.44-2.8-2.14-1.86-3.22-4.9-3.22-9.11v-30.92h8.36v30.92c0,1.69.38,2.85,1.14,3.49.76.64,2.14.96,4.15.96h12.75v7.46Z"/>
    <path class="cls-1" d="m241.5,192.72h-15.16c-4.81,0-8.19-.83-10.14-2.5-1.94-1.67-2.92-4.6-2.92-8.81v-31.52h28.21v7.46h-19.85v10.05h13.9l-.6,7.46h-13.29v5.95c0,1.69.38,2.85,1.14,3.49.76.64,2.14.96,4.15.96h14.56v7.46Z"/>
    <path class="cls-1" d="m270.89,168.03c1.14-1.22,1.71-2.75,1.71-4.57s-.55-3.3-1.65-4.42c-1.1-1.12-2.58-1.69-4.42-1.69h-4.15c-2.49,0-3.73,1.26-3.73,3.79v8.72h7.88c1.76,0,3.22-.61,4.36-1.83m11.82,24.69h-9.68l-8.36-15.88h-6.01v15.88h-8.36v-33.63c0-3.21.74-5.54,2.23-7.01,1.48-1.46,3.97-2.2,7.46-2.2h7.1c4.25,0,7.63,1.29,10.14,3.88,2.51,2.59,3.76,5.86,3.76,9.83,0,2.89-.75,5.38-2.26,7.49-1.5,2.1-3.36,3.56-5.56,4.36l9.56,17.26Z"/>
    <path class="cls-1" d="m43.84,216.04c.36-.38.53-.85.53-1.42s-.17-1.02-.51-1.37c-.34-.35-.8-.52-1.37-.52h-1.29c-.77,0-1.16.39-1.16,1.18v2.71h2.45c.55,0,1-.19,1.35-.57m3.67,7.66h-3.01l-2.59-4.93h-1.87v4.93h-2.6v-10.44c0-.99.23-1.72.69-2.17.46-.45,1.23-.68,2.32-.68h2.2c1.32,0,2.37.4,3.15,1.2.78.8,1.17,1.82,1.17,3.05,0,.9-.23,1.67-.7,2.33-.47.65-1.04,1.11-1.73,1.35l2.97,5.36Z"/>
    <path class="cls-1" d="m63.72,220.31v-5h-1.85c-.68,0-1.16.26-1.43.78-.27.52-.4,1.3-.4,2.34s.13,1.77.38,2.19c.25.42.74.63,1.45.63l1.85-.95Zm2.43,3.4h-1.62l-.75-1.29-2.59,1.4c-1.45,0-2.41-.52-2.91-1.57-.25-.51-.42-1.06-.51-1.65-.09-.59-.14-1.21-.14-1.85s0-1.11.02-1.42c.01-.3.04-.66.09-1.06.05-.41.12-.74.21-1.02.09-.27.23-.56.4-.85.17-.29.39-.53.63-.7.56-.39,1.29-.58,2.19-.58h2.56l2.43-.15v10.74Z"/>
    <path class="cls-1" d="m83.44,220.31v-5h-1.85c-.68,0-1.16.26-1.43.78-.27.52-.4,1.3-.4,2.34s.13,1.77.38,2.19c.25.42.74.63,1.45.63l1.85-.95Zm2.43,3.4h-1.62l-.75-1.29-2.59,1.4c-1.45,0-2.42-.52-2.91-1.57-.25-.51-.42-1.06-.51-1.65-.09-.59-.14-1.21-.14-1.85s0-1.11.02-1.42c.01-.3.04-.66.09-1.06.05-.41.12-.74.21-1.02.09-.27.23-.56.4-.85.17-.29.39-.53.64-.7.56-.39,1.29-.58,2.18-.58h2.56v-3.45h2.43v14.04Z"/>
    <path class="cls-1" d="m111.67,223.71h-2.43v-6.63c0-.66-.08-1.12-.23-1.38-.16-.26-.43-.39-.81-.39l-2.19.91v7.49h-2.43v-6.63c0-1.18-.41-1.77-1.23-1.77l-2,.91v7.49h-2.43v-10.66h1.81l.56,1.27,2.8-1.38c.97,0,1.71.47,2.2,1.42l3.47-1.42c.97,0,1.7.33,2.17.98.48.65.72,1.53.72,2.64v7.15Z"/>
    <path class="cls-1" d="m128.53,220.31v-5h-1.85c-.68,0-1.16.26-1.43.78-.27.52-.4,1.3-.4,2.34s.13,1.77.38,2.19c.25.42.74.63,1.45.63l1.85-.95Zm2.43,3.4h-1.62l-.75-1.29-2.59,1.4c-1.44,0-2.41-.52-2.91-1.57-.25-.51-.42-1.06-.51-1.65-.09-.59-.14-1.21-.14-1.85s0-1.11.02-1.42c.01-.3.04-.66.09-1.06.05-.41.12-.74.21-1.02.09-.27.23-.56.4-.85.17-.29.39-.53.63-.7.56-.39,1.29-.58,2.19-.58h2.56l2.43-.15v10.74Z"/>
    <path class="cls-1" d="m148.58,213.08l-.67,2.39c-.19-.07-.4-.11-.63-.11-.62,0-1.39.27-2.3.8v7.54h-2.43v-10.66h1.81l.56.93,2.58-1.07c.12-.01.29-.02.5-.02s.41.06.58.19"/>
    <path class="cls-1" d="m164.45,220.31v-5h-1.85c-.69,0-1.16.26-1.43.78-.27.52-.4,1.3-.4,2.34s.13,1.77.38,2.19c.25.42.74.63,1.45.63l1.85-.95Zm2.43,3.4h-1.62l-.75-1.29-2.59,1.4c-1.44,0-2.41-.52-2.91-1.57-.25-.51-.42-1.06-.51-1.65-.09-.59-.14-1.21-.14-1.85s0-1.11.02-1.42c.01-.3.04-.66.09-1.06.05-.41.12-.74.21-1.02.09-.27.23-.56.4-.85.17-.29.39-.53.63-.7.56-.39,1.29-.58,2.19-.58h2.56l2.43-.15v10.74Z"/>
    <path class="cls-1" d="m183.4,223.71h-1.51c-.92,0-1.62-.27-2.1-.82-.48-.55-.72-1.2-.72-1.96v-5.6h-1.03v-1.85h1.03v-2.09h2.43v2.09h1.72v1.85h-1.72v5.45c0,.58.28.88.84.88h1.07v2.05Z"/>
    <path class="cls-1" d="m202.99,223.71h-2.43v-6.68c0-1.14-.45-1.72-1.34-1.72l-2.31.91v7.49h-2.43v-14.04h2.43v4.65l3.08-1.38c1.09,0,1.87.31,2.32.93.45.62.68,1.49.68,2.61v7.23Z"/>
    <path class="cls-1" d="m220.48,218.89v-.97c0-.92-.13-1.62-.4-2.11-.27-.49-.82-.73-1.67-.73-1.37,0-2.05.92-2.05,2.76v.97c0,1.98.68,2.97,2.05,2.97.88,0,1.46-.33,1.74-.99.22-.52.34-1.16.34-1.9m2.43-.56c0,2.3-.44,3.85-1.31,4.63-.73.67-1.8,1.01-3.19,1.01-1.78,0-2.98-.52-3.6-1.57-.58-.96-.88-2.31-.88-4.07,0-1.64.29-2.93.88-3.86.65-1.05,1.83-1.57,3.54-1.57s2.9.46,3.57,1.37c.67.92,1,2.27,1,4.06"/>
    <path class="cls-1" d="m242.46,223.71h-2.43v-6.82c0-.61-.13-1.03-.37-1.25-.25-.23-.6-.34-1.05-.34l-2.18.91v7.49h-2.43v-10.66h1.81l.56,1.27,2.99-1.38c.83,0,1.56.31,2.18.92.61.62.92,1.52.92,2.7v7.15Z"/>
  </g>
  <path class="cls-1" d="m101.29,192.72h-21.78c-2.21,0-3.89-.52-5.05-1.56-1.16-1.04-1.74-2.41-1.74-4.09s.62-3.45,1.86-5.29l16.84-24.42h-17.5v-7.46h27.37v6.62l-19.55,28.75h19.55v7.46Z"/>
  <path class="cls-1" d="m26.8,137.14c.7.56,1.05,1.62,1.05,3.19s-.35,2.62-1.05,3.19c-.7.56-1.69.84-2.98.84s-2.28-.28-2.98-.84c-.7-.56-1.05-1.62-1.05-3.19s.35-2.63,1.05-3.19c.7-.56,1.69-.84,2.98-.84s2.27.28,2.98.84m-1.11,35.07v-2.89c0-5.01-.68-8.3-2.04-9.87-1.36-1.64-3.57-2.47-6.62-2.47s-5.29.84-6.74,2.53c-1.04,1.24-1.64,3.41-1.8,6.5-.08,1-.12,2.39-.12,4.15v2.22c.04,4.25.36,7.16.96,8.72,1.12,3.01,3.69,4.51,7.7,4.51,3.49,0,5.81-1,6.98-3.01.76-1.44,1.22-2.85,1.38-4.21.2-1.72.3-3.79.3-6.2m-12.48-35.07c.7.56,1.05,1.62,1.05,3.19s-.35,2.62-1.05,3.19c-.7.56-1.69.84-2.98.84s-2.28-.28-2.98-.84c-.7-.56-1.05-1.62-1.05-3.19s.35-2.63,1.05-3.19c.7-.56,1.69-.84,2.98-.84s2.28.28,2.98.84m20.84,32.18v3.25c0,7.18-1.35,12.39-4.06,15.64-2.71,3.25-7.05,4.87-13.02,4.87s-10.3-1.61-12.96-4.84c-2.67-3.23-4-8.49-4-15.79v-2.29c0-7.06,1.35-12.26,4.06-15.61,2.71-3.35,7.03-5.02,12.96-5.02,11.35,0,17.02,6.6,17.02,19.79"/>
  <polygon class="cls-1" points="68.03 157.35 56.54 157.35 56.54 192.72 48.18 192.72 48.18 157.35 36.75 157.35 36.75 149.89 68.03 149.89 68.03 157.35"/>
  <polygon class="cls-1" points="138.35 157.35 126.86 157.35 126.86 192.72 118.49 192.72 118.49 157.35 107.07 157.35 107.07 149.89 138.35 149.89 138.35 157.35"/>
</svg>