<?xml version="1.0" encoding="UTF-8"?>
<svg id="Ebene_1" xmlns="http://www.w3.org/2000/svg" version="1.1" viewBox="0 0 628.1 395.47">
  <!-- Generator: Adobe Illustrator 29.6.1, SVG Export Plug-In . SVG Version: 2.1.1 Build 9)  -->
  <defs>
    <style>
      .st0 {
        fill: #a5a5a5;
      }
    </style>
  </defs>
  <g>
    <g>
      <path class="st0" d="M0,106.98C0,67.01,16.84,39.29,110.39,39.29s108,25.51,108,63.95c0,44.05-15.48,68.54-111.07,68.54S0,147.63,0,106.98ZM180.12,105.79c0-30.11-11.57-37.42-70.59-37.42s-71.27,7.82-71.27,37.42c0,31.13,12.59,37.42,70.42,37.42s71.44-5.95,71.44-37.42ZM78.75,35.38c-15.14,0-23.3-6.97-23.3-17.69S63.61,0,78.75,0s22.79,6.97,22.79,17.69-7.82,17.69-22.79,17.69ZM146.95,35.38c-15.14,0-23.13-6.97-23.13-17.69S131.82,0,146.95,0s22.96,6.97,22.96,17.69-7.82,17.69-22.96,17.69h0Z"/>
      <path class="st0" d="M258.17,73.31h-35.38v-29.25h107.15v29.25h-34.87v93.89h-36.91v-93.89h.01Z"/>
      <path class="st0" d="M431.66,137.26v29.94h-94.91v-26.19l50.86-67.69h-49.84v-29.25h91.85v26.36l-48.98,66.84h51.03,0Z"/>
    </g>
    <g>
      <path class="st0" d="M35.38,224.34H0v-29.25h107.15v29.25h-34.87v93.89h-36.91v-93.89h.01Z"/>
      <path class="st0" d="M219.92,318.22h-40.14l-8.16-23.98h-34.87l-6.8,23.98h-38.44l39.46-123.14h44.73l44.22,123.14ZM152.56,229.1l-10.72,37.42h22.62l-10.89-37.42h-1.02.01Z"/>
      <path class="st0" d="M313.12,288.29v29.93h-87.08v-123.14h36.91v93.21h50.18,0Z"/>
      <path class="st0" d="M511.6,288.29v29.93h-186.07v-123.14h181.82v29.25h-143.21v19.22h123.82v28.06h-123.82v16.67h147.46,0Z"/>
      <path class="st0" d="M562.11,274.68v43.54h-36.74v-123.14h53.92c30.62,0,41.84,16.5,41.84,35.72,0,11.57-4.08,26.53-18.54,35.55l25.51,51.88h-39.8l-20.41-43.54h-5.78ZM583.2,234.37c0-6.8-3.4-11.91-13.44-11.91h-7.65v25.68h4.08c7.99,0,17.01-2.21,17.01-13.78h0Z"/>
    </g>
  </g>
  <g>
    <path class="st0" d="M62.42,394.92h-9.57l-5.96-12.34h-2.77v12.34h-8.83v-33.46h14c8.32,0,11.28,4.48,11.28,9.57s-2.22,7.76-5.41,9.43l7.26,14.47h0ZM46.24,376.2c2.63,0,5.18-.79,5.18-4.34,0-2.4-1.34-3.74-4.48-3.74h-2.82v8.09h2.13-.01Z"/>
    <path class="st0" d="M88.03,361.45l11.92,33.46h-9.66l-2.45-7.21h-10.12l-2.17,7.21h-9.2l10.82-33.46h10.86ZM82.67,369.59h-.23l-3.42,11.37h7.07l-3.42-11.37Z"/>
    <path class="st0" d="M106.2,394.92v-33.46h12.62c11.6,0,16.59,6.24,16.59,16.22s-5.41,17.24-17.38,17.24h-11.83ZM117.52,388.31c7.07,0,8.87-4.07,8.87-10.35,0-7.39-2.4-9.84-8.27-9.84h-3.05v20.2h2.45Z"/>
    <path class="st0" d="M180.52,394.92h-8.23v-24.87h-.28l-6.56,24.87h-7.63l-6.19-24.96h-.28v24.96h-8.09v-33.46h13.13l5.41,22.37h.32l5.31-22.37h13.08v33.46h0Z"/>
    <path class="st0" d="M208.68,361.45l11.92,33.46h-9.66l-2.45-7.21h-10.12l-2.17,7.21h-9.2l10.82-33.46h10.86,0ZM203.31,369.59h-.23l-3.42,11.37h7.07l-3.42-11.37h0Z"/>
    <path class="st0" d="M253.98,394.92h-9.57l-5.96-12.34h-2.77v12.34h-8.83v-33.46h14c8.32,0,11.28,4.48,11.28,9.57s-2.22,7.76-5.41,9.43l7.26,14.47h0ZM237.8,376.2c2.63,0,5.18-.79,5.18-4.34,0-2.4-1.34-3.74-4.48-3.74h-2.82v8.09h2.13,0Z"/>
    <path class="st0" d="M279.59,361.45l11.92,33.46h-9.66l-2.45-7.21h-10.12l-2.17,7.21h-9.2l10.82-33.46h10.86ZM274.22,369.59h-.23l-3.42,11.37h7.07l-3.42-11.37h0Z"/>
    <path class="st0" d="M300.99,394.92v-26.3h-9.71v-7.16h28.2v7.16h-9.61v26.3h-8.88Z"/>
    <path class="st0" d="M354.65,394.92h-8.87v-12.99h-10.72v12.99h-8.87v-33.46h8.87v13.13h10.72v-13.13h8.87v33.46Z"/>
    <path class="st0" d="M378.46,395.47c-11.46,0-15.95-7.12-15.95-17.06s5.5-17.56,16.73-17.56,15.67,7.63,15.67,16.92c0,10.82-5.18,17.7-16.45,17.7h0ZM378.79,388.54c4.16,0,7.03-2.45,7.03-10.35,0-7.49-2.36-10.4-6.75-10.4-4.71,0-7.39,3-7.39,10.45s2.54,10.31,7.12,10.31h0Z"/>
    <path class="st0" d="M421.64,394.92l-10.82-21.35v21.35h-8.04v-33.46h10.31l10.63,21.59v-21.59h7.95v33.46h-10.03Z"/>
  </g>
</svg>