<?xml version="1.0" encoding="utf-8"?>
<!-- Generator: Adobe Illustrator 27.8.0, SVG Export Plug-In . SVG Version: 6.00 Build 0)  -->
<svg version="1.1" id="Ebene_1" xmlns="http://www.w3.org/2000/svg" xmlns:xlink="http://www.w3.org/1999/xlink" x="0px" y="0px"
	 viewBox="0 0 2650 652.9" style="enable-background:new 0 0 2650 652.9;" xml:space="preserve">
<style type="text/css">
	.st0{fill:#FFFFFF;}
</style>
<g>
	<path class="st0" d="M1867.4,284.9c1.7-7.5-1.7-11.1-6.3-14.1c-9.6-6.1-20.5-9-31.5-11.3c-23.3-4.8-47-6.7-70.7-5.9
		c-15.7,0.5-31.4,2.5-47.1,3.7c-11.9,0.9-23.9,1.9-35.8,2.1c-25,0.3-50,1-74.9-0.1c-46.8-2.1-93.3-7.1-138.7-19.7
		c-21.1-5.9-41.8-12.7-59.7-25.8c-4.1-3-8-6.6-11.1-10.6c-8-10-7-21.7,2-31.5c10.2-11,23.3-17.4,36.8-23c21.7-9,44.4-14.8,67.5-18.8
		c21.5-3.8,43.1-7.2,64.8-8.9c27-2.1,54.1-2.7,81.2-3.2c17.3-0.3,34.7,0,51.9,1.1c19.2,1.2,38.3,3.6,57.3,5.8
		c29.9,3.5,59.2,9.5,87.8,19.1c16.2,5.4,31.8,12.1,45.3,23.1c15.3,12.5,16.4,28,2.3,41.6c-3.5,3.4-7.5,6.7-11.8,9
		c-8.6,4.6-17.5,8.6-26.2,12.8c-0.7,0.4-1.8,0.3-2.3,0.9c-2.4,2.5-6.3,4.9-6.7,7.7c-0.3,2.3,3.3,6.4,6,7.4c8.9,3.3,18,6.4,27.4,8.1
		c9.4,1.7,19.1,1.8,28.7,2.2c19.2,0.8,37.9-2.6,56.7-6.2c15.1-2.9,30.3-4.8,45.5-6.8c32.9-4.2,66-3.6,99.1-5.2
		c37.2-1.8,74.2-5.9,109.5-18.9c8.1-3,15.9-7.5,23-12.5c9.9-7,10.2-16.4,1.6-24.8c-9.6-9.3-21.7-14-34.2-17.2
		c-16.5-4.4-33.4-7.5-50.1-11.2c-28.4-6.3-56.4-13.9-82.5-27.1c-11.9-6-23.2-13.1-31.1-24.2c-8.8-12.5-7.8-25.2,2.5-36.6
		c10.1-11.2,22.9-18.6,36.4-24.7c27.1-12.1,55.5-19.8,84.6-25.2c15.1-2.8,30.2-5.6,45.4-7.7c13.6-1.9,27.3-3.2,41-4.2
		c20.2-1.5,40.4-3.2,60.7-3.7c22-0.6,43.9,0.1,65.9,0.4c9.1,0.1,18.3,0.6,27.4,1.3c19.2,1.5,38.3,3.1,57.5,4.9
		c27.6,2.6,54.9,7.5,81.9,14.1c27.7,6.7,55,14.6,79.3,30c7.2,4.5,13.9,10.4,19.5,16.7c10,11.2,9.3,25.6-0.5,37
		c-11.5,13.4-26.7,21.2-42.5,27.9c-27.6,11.6-56.5,19.1-86,24.1c-19.2,3.3-38.5,6.3-57.8,8.8c-12.6,1.6-25.4,2.1-38.2,3.3
		c-12.2,1.2-24.5,2-36.5,4.2c-21.1,3.8-42.1,7.8-62.9,12.9c-19.1,4.7-37.7,11.2-54.1,22.5c-2.6,1.8-5.2,3.7-7.4,5.8
		c-13.1,12.3-13.1,27.2,1.1,38.2c8.2,6.3,17.5,11.4,26.8,16c10.7,5.3,21.7,10.1,30.2,18.8c10.6,10.8,10.6,22.9,0,33.6
		c-10.3,10.4-23.3,16.3-36.6,21.4c-21.9,8.3-44.7,13.8-67.9,17.2c-17.5,2.6-35,5.7-52.6,6.7c-27.6,1.6-55.2,2.1-82.8,2.2
		c-17.1,0.1-34.3-0.6-51.3-2.1c-41.2-3.7-82-9.4-121.1-23.8c-12.2-4.5-23.9-9.8-33.9-18.4c-3.1-2.7-5.9-5.9-8.2-9.3
		c-5.6-8.7-4.3-18.2,3.3-26.8C1865.1,286.6,1866.7,285.5,1867.4,284.9L1867.4,284.9z"/>
	<path class="st0" d="M527.1,374.4h72.1c33.7,89.8,67.5,179.9,101.5,270.4h-73.3c-5.5-16-11.1-31.9-16.7-48.2h-95.5
		c-5.6,16.1-11.1,32.1-16.7,48.2H255.5V374.6h69.8v210h123.3C474.6,514.8,500.8,444.8,527.1,374.4L527.1,374.4z M563.4,448.9
		c-0.4,0-0.8,0-1.2,0c-10.3,31.5-20.5,63-30.9,94.8h62.4C583.5,511.8,573.5,480.3,563.4,448.9L563.4,448.9z"/>
	<path class="st0" d="M718.7,374.4h72.4C826.4,430,861.7,485.5,897,541.1c0.4-0.1,0.7-0.2,1.1-0.3V374.7H964v269.9H892
		c-35-55.8-70.3-112.2-105.6-168.6c-0.3,0-0.6,0.1-0.9,0.1v168.5h-66.7V374.4L718.7,374.4z"/>
	<path class="st0" d="M1067.5,555.3c0.5,3,0.9,5.9,1.5,8.8c2.6,12.3,10.1,20.9,21.4,25.7c18,7.7,36.6,8.5,55.2,2.1
		c8.8-3,15.6-8.4,17.7-18.3c2-9.5-1.4-16.6-8.7-22.1c-10.6-7.8-23.2-11-35.5-14.4c-21.7-6.1-43.9-10.7-64.6-20
		c-14.5-6.5-27.9-14.7-37.6-27.7c-11.3-15.2-14.2-32.3-12-50.8c1.5-12.9,5.7-24.7,13.5-35.1c12.3-16.4,29.4-25.4,48.5-31.1
		c19.7-5.9,40-8,60.4-6.9c26.8,1.4,52.5,7,74.5,23.6c18.7,14.1,29.5,32.7,31.3,56.3c0.1,1.3,0.4,2.6,0.6,3.9
		c0.1,1.3,0.2,2.6,0.3,4.4h-71.7c0-15.3-9-23.6-22.6-28.1c-2.5-0.8-5.1-1.4-7.7-1.8c-11.2-2-22.4-2.4-33.3,1.5
		c-11,3.9-15.8,10.5-15.6,21.4c0.1,7.2,4.6,12,10.5,14.5c10.6,4.5,21.4,8.5,32.4,11.9c21.2,6.6,42.8,12.2,63.8,19.3
		c13.5,4.6,25.6,12.5,35.5,23.2c10.7,11.5,16.3,25,17,40.7c0.9,22.2-2.6,43.3-16.8,61.3c-11.5,14.6-27.2,23-44.7,28.2
		c-15.3,4.5-30.9,7.1-46.9,7.1c-14.6,0-29.3,0.3-43.8-1.2c-24-2.5-46.6-9.4-65.4-25.5c-14.1-12.1-22.6-27.5-26.3-45.5
		c-1.7-8.2-2.4-16.6-3.6-25.3L1067.5,555.3L1067.5,555.3z"/>
	<path class="st0" d="M1346.5,478.2h115.4v53.6h-115.4v52.8h128.2v59.9h-199.2v-270h199.2v55.5h-128.3L1346.5,478.2L1346.5,478.2z"
		/>
	<path class="st0" d="M1713.7,430.3h-129.4V478h116.6v54.2h-116.5v52.7h129.3v59.8h-199.3V374.7h199.3L1713.7,430.3L1713.7,430.3z"
		/>
	<path class="st0" d="M0,373.3c2.3,0,4.3,0,6.3,0c40.8,0,81.6-0.2,122.4,0.1c18.5,0.1,36.6,2.8,53.5,10.9
		c25.1,12,39.6,31.9,43.3,59.5c2.4,17.4,1.7,34.6-2.9,51.7c-8.2,30-28.2,47.7-57.9,54.3c-12,2.7-24.6,3.6-36.9,4
		c-17.1,0.7-34.3,0.2-51.5,0.2c-1.8,0-3.6,0-5.9,0v90.5H0V373.3L0,373.3z M70.6,499.1c18.9,0,37.2,0.4,55.4-0.1
		c15.2-0.4,27.5-9.7,29.9-26.2c3.3-23.3-8.8-42.2-34.5-42.5c-15.1-0.2-30.3,0-45.4,0c-1.8,0-3.5,0-5.4,0L70.6,499.1L70.6,499.1z"/>
</g>
</svg>
