<?xml version="1.0" encoding="UTF-8"?>
<svg id="Ebene_1" data-name="Ebene 1" xmlns="http://www.w3.org/2000/svg" viewBox="0 0 393.8 146.49">
  <defs>
    <style>
      .cls-1 {
        fill: #fff;
      }
    </style>
  </defs>
  <path class="cls-1" d="m27.64,18.69l10.25,2.15v42.26h-10.25V18.69ZM4.91,10.1v3.83l18.01,3.78-13.3,10.61v39.31l-9.61,7.79v3.92h9.61v28.5h3.78l14.2-11.08v-17.33l12.38-.09,15.92-13.43V7.84L17.73.01,4.91,10.1Z"/>
  <path class="cls-1" d="m157.19,38.34v-20.92l10.21,1.93v18.99h-10.21ZM152.39,0l-13.04,10.24v3.73l13.15,2.54-13.15,11.03v80.28h5.37l12.48-9.8v-44.14h10.21v53.93h5.59l12.49-9.78V6.33L152.39,0Z"/>
  <polygon class="cls-1" points="193.49 16.9 193.49 53.9 211.34 63.1 221.68 55.38 221.68 93.37 211.31 90.56 211.33 69.41 193.48 83.15 193.49 103.78 217.13 109.23 238.94 92.13 238.94 46.35 221.68 38.36 211.32 46.35 211.29 15.97 221.68 18.92 221.68 33.39 238.97 20.05 238.94 5.55 215.06 .01 193.49 16.9"/>
  <polygon class="cls-1" points="98.31 13.72 98.31 107.83 120.81 107.82 133.34 98.04 133.34 94.03 116.33 94.03 116.33 53.9 118.62 53.9 133.34 42.19 133.34 38.36 121.08 38.36 116.33 42.19 116.33 16.73 120.48 17.54 133.34 7.44 133.34 3.83 115.81 .01 98.31 13.72"/>
  <polygon class="cls-1" points="358.78 13.72 358.78 107.82 381.18 107.82 393.8 97.97 393.8 94.03 376.79 94.03 376.79 53.9 379.09 53.9 393.8 42.31 393.8 38.36 381.54 38.36 376.79 42.19 376.79 16.73 380.94 17.54 393.8 7.45 393.8 3.83 376.27 .01 358.78 13.72"/>
  <path class="cls-1" d="m15.23,129.22c0,1.31.66,1.73,2.51,2.48l2.26.91c4.42,1.8,5.71,3.46,5.71,6.99,0,4.37-2.42,6.79-7.69,6.79-4.74,0-7.78-2.02-8.35-7.12h4.83c.44,1.99,1.22,2.68,3.48,2.68,1.98,0,2.7-.65,2.7-2.09,0-1.57-.66-2.02-2.92-2.91l-2.04-.78c-3.98-1.53-5.52-3.2-5.52-6.79,0-3.79,2.38-6.5,7.37-6.5s7.5,2.77,7.66,7.12h-4.83c-.19-1.76-.88-2.68-2.82-2.68-1.73,0-2.35.75-2.35,1.89Z"/>
  <path class="cls-1" d="m37.07,130.91v15.15h-4.74v-22.85h5.84l6.37,15.15v-15.15h4.74v22.85h-5.84l-6.37-15.15Z"/>
  <path class="cls-1" d="m55.65,137.57v-5.84c0-5.68,3.55-8.85,9-8.85s9.04,3.17,9.04,8.85v5.84c0,5.68-3.55,8.81-9.04,8.81s-9-3.13-9-8.81Zm5.02-5.62v5.39c0,2.78,1.29,4.6,3.98,4.6s4.02-1.83,4.02-4.6v-5.39c0-2.81-1.29-4.64-4.02-4.64s-3.98,1.83-3.98,4.64Z"/>
  <path class="cls-1" d="m92.65,128.89l-3.98,17.17h-5.43l-5.62-22.85h5.4l3.26,16.19,3.76-16.19h5.87l3.51,16.19,3.51-16.19h5.18l-5.62,22.85h-5.9l-3.95-17.17Z"/>
  <path class="cls-1" d="m112.89,123.21h7.81c4.68,0,7.5,2.22,7.5,6.24v.82c0,1.6-.69,2.84-1.88,3.72,1.82.95,2.82,2.55,2.82,4.7v.82c0,4.24-3.11,6.56-7.4,6.56h-8.85v-22.85Zm4.89,4.44v4.67h2.54c1.91,0,2.85-.85,2.85-2.12v-.52c0-1.24-.94-2.02-2.85-2.02h-2.54Zm0,8.78v5.19h3.48c1.91,0,2.86-.95,2.86-2.35v-.52c0-1.44-.94-2.32-2.86-2.32h-3.48Z"/>
  <path class="cls-1" d="m134.32,137.57v-5.84c0-5.68,3.55-8.85,9-8.85s9.04,3.17,9.04,8.85v5.84c0,5.68-3.55,8.81-9.04,8.81s-9-3.13-9-8.81Zm5.02-5.62v5.39c0,2.78,1.29,4.6,3.98,4.6s4.02-1.83,4.02-4.6v-5.39c0-2.81-1.29-4.64-4.02-4.64s-3.98,1.83-3.98,4.64Z"/>
  <path class="cls-1" d="m169.15,142.05h-7.53l-1.19,4.02h-5.18l7.59-22.85h5.24l7.59,22.85h-5.33l-1.19-4.02Zm-3.8-12.63l-2.45,8.19h4.89l-2.45-8.19Z"/>
  <path class="cls-1" d="m184.26,146.06h-4.89v-22.85h7.72c4.99,0,8.03,2.48,8.03,6.89v1.14c0,2.87-1.41,4.9-3.67,5.97l4.64,8.85h-5.55l-3.8-7.97h-2.48v7.97Zm0-18.41v6.01h2.45c2.29,0,3.39-1.04,3.39-2.64v-.69c0-1.63-1.1-2.68-3.39-2.68h-2.45Z"/>
  <path class="cls-1" d="m201.11,123.21h8.35c5.37,0,8.66,3,8.66,8.26v6.37c0,5.29-3.58,8.23-8.53,8.23h-8.47v-22.85Zm4.89,4.44v13.97h3.04c2.76,0,4.05-1.57,4.05-4.02v-5.91c0-2.48-1.29-4.05-4.02-4.05h-3.07Z"/>
  <path class="cls-1" d="m241.85,131.93v14.23h-4.74v-22.85h6.15l5.71,13.97,5.96-13.97h5.52v22.85h-4.74v-14.23l-4.8,11.1h-4.27l-4.8-11.1Z"/>
  <path class="cls-1" d="m278.65,142.15h-7.53l-1.19,4.02h-5.18l7.59-22.85h5.24l7.59,22.85h-5.33l-1.19-4.02Zm-3.8-12.63l-2.45,8.19h4.89l-2.45-8.19Z"/>
  <path class="cls-1" d="m287.88,137.68v-5.84c0-5.68,3.55-8.85,9-8.85,4.74,0,7.56,2.77,7.78,6.82h-4.83c-.28-1.57-1.22-2.38-3.29-2.38-2.35,0-3.64,1.83-3.64,4.64v5.39c0,2.78,1.29,4.6,3.86,4.6,2.16,0,3.26-1.34,3.26-3.33v-.62h-3.86v-4.37h8.5v4.31c0,5.94-2.6,8.46-8.19,8.46-5.05,0-8.6-3.13-8.6-8.81Z"/>
  <path class="cls-1" d="m321.38,142.05h-7.53l-1.19,4.02h-5.18l7.59-22.85h5.24l7.59,22.85h-5.33l-1.19-4.02Zm-3.8-12.63l-2.45,8.19h4.89l-2.45-8.19Z"/>
  <path class="cls-1" d="m330.74,141.95l10.04-14.3h-9.48v-4.44h15.53v4.11l-10.04,14.3h10.2v4.44h-16.25v-4.11Z"/>
  <path class="cls-1" d="m352.83,123.21h4.89v22.85h-4.89v-22.85Z"/>
  <path class="cls-1" d="m368.98,130.91v15.15h-4.74v-22.85h5.84l6.37,15.15v-15.15h4.74v22.85h-5.84l-6.37-15.15Z"/>
  <polygon class="cls-1" points="73.35 94.03 82.96 86.2 82.96 8.99 80.18 .03 64.94 11.98 64.94 98.04 57.99 103.35 57.99 107.83 81.5 107.83 93.98 98.04 93.98 94.03 73.35 94.03"/>
  <path class="cls-1" d="m349.78,7.46L312.26.01l-13.59,10.7v3.59l17.96,3.35-13.25,11.18v78.98h4.59s13.43-9.77,13.43-9.77v-41.47l10.37,3.5v47.74h4.59s13.43-9.78,13.43-9.78v-44.14l-12.76-6.38,12.76-9.24V7.46Zm-18.02,30.9l-10.37,7.84v-27.65l10.37,1.94v17.87Z"/>
  <polygon class="cls-1" points="296.54 96.22 293.15 89.21 293.15 8.34 290.37 .01 275.13 11.35 275.13 90.36 264.87 90.36 264.87 8.96 262.1 .01 246.85 11.95 246.85 102.3 267.25 107.81 277.28 100.24 280.11 107.81 283.44 107.81 296.54 96.22"/>
</svg>