<?xml version="1.0" encoding="UTF-8"?>
<svg id="Design" xmlns="http://www.w3.org/2000/svg" viewBox="0 0 296.93 132.17">
  <defs>
    <style>
      .cls-1 {
        fill: #fff;
      }
    </style>
  </defs>
  <path class="cls-1" d="m296.18,41.7h-38.93c-.17-4.24-1.67-7.57-4.06-9.98-2.39-2.57-5.71-3.87-9.96-3.87-14.4,0-16.79,14.94-16.79,26.38,0,14.58,5.54,24.18,16.79,24.18,9.96,0,13.85-6.83,14.95-14.4h38.75c-3.33,29.35-26.95,40.23-53.71,40.23-14.51,0-27.44-3.79-37.14-11.13v-19.01c0-6.94-.49-12.81-5.63-16.48-3.64-2.58-9.58-4.08-19.31-4.08-8.5,0-14.74.93-19.07,3.09-12.54,6.11-29.15,3.15-29.15,15.69,0,4.8,4.61,8.12,12.18,8.12,8.32,0,13.19-4.02,15.47-10.23h12.42c.48-4.26,4.17-4.83,6.93-4.83,2.08,0,6.43.48,6.43,4.08,0,9.3-35.34-.94-35.34,21.61,0,2.42.44,4.53,1.26,6.33-7.36,3.58-15.24,4.8-24.51,4.8-13.59,0-26.07-5-31.55-15.86-7.02,11.09-22.66,17.89-47.68,17.89-22.14,0-46.48-6.82-48.52-32.84h36.54c0,3.87,1.47,6.83,4.06,8.85,2.4,1.85,5.72,2.95,9.4,2.95,5.91,0,12.18-1.84,12.18-8.67,0-15.5-59.22-3.13-59.22-40.59C2.95,9.22,28.59,2.03,48.72,2.03s45.75,4.79,47.97,30.44h-34.87c-.36-3.13-1.66-5.35-3.7-7.01-2.03-1.66-4.79-2.4-7.75-2.4-6.62,0-10.87,2.02-10.87,6.83,0,11.55,44.96,6.53,57.73,27.72,14.62-23.46,64.85-11.18,64.85-26.62,0-7.01-8.48-7.94-12.53-7.94-5.36,0-12.55,1.11-13.48,9.41h-36.9C99.16,11.99,113.73,0,151.94,0c31.92,0,42.92,8.27,46.64,21.1,9.8-12.36,25.68-19.07,44.65-19.07,25.84,0,50.18,11.07,52.96,39.67m-118.54,53.18c-3.88,0-6.25-1.71-6.25-4.17,0-6.46,8.53-4.93,14.96-8.06.49,6.82-1.78,12.23-8.71,12.23"/>
  <path class="cls-1" d="m287.69,123.73v.32c0,2.58,1.64,4.12,4.54,4.12s4.7-1.49,4.7-4.09c0-2.38-1.27-3.29-3.75-4.39-1.23-.55-1.99-.78-1.99-1.72,0-.64.46-1.07,1.2-1.07.86,0,1.18.55,1.2,1.81h3.19v-.23c0-2.52-1.6-3.91-4.47-3.91s-4.49,1.58-4.49,3.86c0,1.03.39,2.01,1.13,2.74.93.94,2.13,1.4,3.33,1.97.84.39,1.32.66,1.32,1.4,0,.66-.51,1.14-1.25,1.14-.9,0-1.34-.62-1.41-1.94h-3.26Zm-6,1.39c-.95,0-1.18-.89-1.18-2.88,0-3.15,0-4.69,1.27-4.69.95,0,1.16.96,1.16,3.04,0,3.18-.09,4.53-1.25,4.53m-4.75,7.05h3.63v-5.49c.67,1.03,1.51,1.51,2.59,1.51,3.03,0,3.4-2.29,3.4-7.16,0-2.63-.02-4.34-.88-5.4-.55-.66-1.41-1.03-2.45-1.03-1.23,0-2.25.59-2.94,1.76v-1.46h-3.36v17.27Zm-16.81-4.34h3.45v-8.07c0-1.44.51-2.22,1.25-2.22.86,0,.88.73.88,2.1v8.19h3.43v-8.07c0-1.44.51-2.22,1.25-2.22.86,0,.88.75.88,2.1v8.19h3.5v-9.01c0-2.79-.79-4.16-2.8-4.16-1.3,0-2.24.57-3.03,1.78-.46-1.17-1.37-1.78-2.55-1.78-1.3,0-2.22.55-3.01,1.78v-1.53h-3.24v12.92Zm-6-6.22v1.44c0,1.53-.35,2.33-1.53,2.33-.72,0-1.18-.53-1.18-1.35,0-1.19.88-1.92,2.71-2.42m.46,6.22h3.82c-.39-.8-.46-1.99-.46-3.62v-4.99c0-1.9-.05-3-1.39-3.89-.76-.5-1.95-.8-3.5-.8-3.36,0-4.98,1.4-4.98,4.32h3.66v-.09c0-1.1.42-1.62,1.32-1.62.74,0,1.14.41,1.14,1.17,0,1.17-1.16,1.28-3.17,2.08-2.25.89-3.26,2.04-3.26,4.05,0,2.22,1.27,3.64,3.33,3.64,1.27,0,2.36-.48,3.29-1.44l.21,1.19Zm-11.92-5.08c0,.21.02.41.02.59,0,1.46-.32,2.17-1.11,2.17-1.09,0-1.16-1.33-1.16-4.14s.02-4.12,1.18-4.12c.83,0,1.11.67,1.11,2.15v.37h3.52v-.23c0-3.41-1.46-4.98-4.65-4.98-3.73,0-4.86,1.99-4.86,6.82s1.13,6.79,4.86,6.79c3.15,0,4.7-1.6,4.7-4.92,0-.16-.02-.32-.02-.5h-3.59Zm-22.29.98v.32c0,2.58,1.64,4.12,4.54,4.12s4.7-1.49,4.7-4.09c0-2.38-1.27-3.29-3.75-4.39-1.23-.55-1.99-.78-1.99-1.72,0-.64.46-1.07,1.2-1.07.86,0,1.18.55,1.2,1.81h3.2v-.23c0-2.52-1.6-3.91-4.47-3.91s-4.49,1.58-4.49,3.86c0,1.03.39,2.01,1.13,2.74.93.94,2.13,1.4,3.33,1.97.83.39,1.32.66,1.32,1.4,0,.66-.51,1.14-1.25,1.14-.9,0-1.34-.62-1.41-1.94h-3.26Zm-9.93,0v.32c0,2.58,1.64,4.12,4.54,4.12s4.7-1.49,4.7-4.09c0-2.38-1.27-3.29-3.75-4.39-1.23-.55-1.99-.78-1.99-1.72,0-.64.46-1.07,1.2-1.07.86,0,1.18.55,1.2,1.81h3.2v-.23c0-2.52-1.6-3.91-4.47-3.91s-4.49,1.58-4.49,3.86c0,1.03.39,2.01,1.13,2.74.93.94,2.13,1.4,3.34,1.97.83.39,1.32.66,1.32,1.4,0,.66-.51,1.14-1.25,1.14-.9,0-1.34-.62-1.41-1.94h-3.26Zm-4.68-.43c.02.23.05.41.05.62,0,1.1-.42,1.65-1.25,1.65-1.02,0-1.3-.73-1.3-2.42,0-.37.02-.8.05-1.28h5.95v-1.55c0-1.85-.02-3.22-.93-4.3-.79-.96-2.04-1.44-3.75-1.44s-2.99.46-3.8,1.33c-1.14,1.24-1.18,3-1.18,5.6s.11,4.3,1.13,5.42c.7.75,2.02,1.26,3.68,1.26,3.17,0,4.77-1.53,4.77-4.55v-.32h-3.43Zm-2.36-3.68c-.02-.25-.02-.5-.02-.71,0-1.3.32-1.9,1.25-1.9.88,0,1.27.6,1.27,1.86,0,.23-.02.48-.05.75h-2.45Zm-15.19,8.21h3.66v-8.07c0-1.44.51-2.22,1.29-2.22.92,0,.92.82.92,2.31v7.98h3.64v-9.01c0-2.79-.83-4.16-2.92-4.16-1.37,0-2.36.55-3.17,1.78v-1.53h-3.43v12.92Zm-5.49-4.53c.02.23.05.41.05.62,0,1.1-.42,1.65-1.25,1.65-1.02,0-1.3-.73-1.3-2.42,0-.37.03-.8.05-1.28h5.95v-1.55c0-1.85-.02-3.22-.93-4.3-.79-.96-2.04-1.44-3.75-1.44s-2.99.46-3.79,1.33c-1.14,1.24-1.18,3-1.18,5.6s.12,4.3,1.13,5.42c.7.75,2.01,1.26,3.68,1.26,3.17,0,4.77-1.53,4.77-4.55v-.32h-3.43Zm-2.36-3.68c-.02-.25-.02-.5-.02-.71,0-1.3.33-1.9,1.25-1.9s1.27.6,1.27,1.86c0,.23-.02.48-.05.75h-2.45Zm-11.32,8.21h3.64v-6.2c0-2.1.25-3.02,1.58-3.02.3,0,.67.05,1.09.14v-4.09c-1.23.12-2.15.78-2.94,2.06v-1.81h-3.36v12.92Zm-5.93-6.22v1.44c0,1.53-.35,2.33-1.53,2.33-.72,0-1.18-.53-1.18-1.35,0-1.19.88-1.92,2.71-2.42m.46,6.22h3.82c-.4-.8-.46-1.99-.46-3.62v-4.99c0-1.9-.05-3-1.39-3.89-.76-.5-1.95-.8-3.5-.8-3.36,0-4.98,1.4-4.98,4.32h3.66v-.09c0-1.1.42-1.62,1.32-1.62.74,0,1.14.41,1.14,1.17,0,1.17-1.16,1.28-3.17,2.08-2.25.89-3.26,2.04-3.26,4.05,0,2.22,1.27,3.64,3.33,3.64,1.27,0,2.36-.48,3.29-1.44l.21,1.19Zm-19.84,0h3.8l1.13-7.11,1.16,7.11h3.8l2.55-12.92h-3.54l-1.04,8.99-1.37-8.99h-3.06l-1.39,8.99-1.02-8.99h-3.54l2.52,12.92Zm-7.5-6.22v1.44c0,1.53-.35,2.33-1.53,2.33-.72,0-1.18-.53-1.18-1.35,0-1.19.88-1.92,2.71-2.42m.46,6.22h3.82c-.39-.8-.46-1.99-.46-3.62v-4.99c0-1.9-.04-3-1.39-3.89-.76-.5-1.95-.8-3.5-.8-3.36,0-4.98,1.4-4.98,4.32h3.66v-.09c0-1.1.42-1.62,1.32-1.62.74,0,1.13.41,1.13,1.17,0,1.17-1.16,1.28-3.17,2.08-2.25.89-3.26,2.04-3.26,4.05,0,2.22,1.27,3.64,3.33,3.64,1.28,0,2.36-.48,3.29-1.44l.21,1.19Zm-17.76-4.53c.03.23.05.41.05.62,0,1.1-.42,1.65-1.25,1.65-1.02,0-1.3-.73-1.3-2.42,0-.37.02-.8.05-1.28h5.95v-1.55c0-1.85-.02-3.22-.92-4.3-.79-.96-2.04-1.44-3.75-1.44s-2.99.46-3.8,1.33c-1.13,1.24-1.18,3-1.18,5.6s.11,4.3,1.13,5.42c.69.75,2.01,1.26,3.68,1.26,3.17,0,4.77-1.53,4.77-4.55v-.32h-3.43Zm-2.36-3.68c-.02-.25-.02-.5-.02-.71,0-1.3.33-1.9,1.25-1.9s1.27.6,1.27,1.86c0,.23-.02.48-.04.75h-2.46Zm-15.19,8.21h3.66v-8.07c0-1.44.51-2.22,1.3-2.22.93,0,.93.82.93,2.31v7.98h3.63v-9.01c0-2.79-.83-4.16-2.92-4.16-1.37,0-2.36.55-3.17,1.78v-1.53h-3.43v12.92Zm-5.9-14.2h3.63v-3.13h-3.63v3.13Zm0,14.2h3.63v-12.92h-3.63v12.92Zm-6.78-2.7c-.95,0-1.18-.89-1.18-2.88,0-3.15,0-4.69,1.27-4.69.95,0,1.16.96,1.16,3.04,0,3.18-.09,4.53-1.25,4.53m-4.75,7.05h3.63v-5.49c.67,1.03,1.51,1.51,2.59,1.51,3.03,0,3.4-2.29,3.4-7.16,0-2.63-.02-4.34-.88-5.4-.55-.66-1.41-1.03-2.45-1.03-1.23,0-2.25.59-2.94,1.76v-1.46h-3.36v17.27Zm-2.34-21.55h-3.64v17.2h3.64v-17.2Zm-9.63,10.98v1.44c0,1.53-.35,2.33-1.53,2.33-.72,0-1.18-.53-1.18-1.35,0-1.19.88-1.92,2.71-2.42m.46,6.22h3.82c-.39-.8-.46-1.99-.46-3.62v-4.99c0-1.9-.05-3-1.39-3.89-.76-.5-1.94-.8-3.5-.8-3.36,0-4.98,1.4-4.98,4.32h3.66v-.09c0-1.1.42-1.62,1.32-1.62.74,0,1.14.41,1.14,1.17,0,1.17-1.16,1.28-3.17,2.08-2.25.89-3.26,2.04-3.26,4.05,0,2.22,1.27,3.64,3.33,3.64,1.27,0,2.36-.48,3.29-1.44l.21,1.19Zm-16.68-8.68c-.4-.51-.62-.92-.62-1.42,0-.44.3-.74.75-.74.48,0,.8.3.8.76,0,.52-.32.99-.93,1.4m1.02,6.16c-.45.35-.83.53-1.18.53-.88,0-1.5-.67-1.5-1.65,0-.64.28-1.2.85-1.75l1.83,2.87Zm1.7,2.52h2.93l-1.73-2.72c.71-1.22,1.12-2.52,1.17-3.85h-2.18c-.03.54-.17,1.09-.4,1.63l-1.23-1.98c1.4-.86,2.05-1.84,2.05-3.13,0-1.6-1.2-2.65-3.07-2.65s-3.17,1.22-3.17,2.82c0,.79.3,1.63.92,2.54-1.55,1.19-2.25,2.36-2.25,3.97,0,2.16,1.47,3.67,3.68,3.67,1.03,0,1.95-.3,2.82-.92l.47.63Zm-23.28,0h3.8l1.13-7.11,1.16,7.11h3.8l2.55-12.92h-3.54l-1.04,8.99-1.37-8.99h-3.06l-1.39,8.99-1.02-8.99h-3.54l2.52,12.92Zm-9.42-6.45c0-2.86.05-4.12,1.16-4.12s1.16,1.26,1.16,4.12-.02,4.09-1.16,4.09-1.16-1.24-1.16-4.09m-3.7,0c0,4.83,1.13,6.79,4.86,6.79s4.86-1.97,4.86-6.79-1.13-6.82-4.86-6.82-4.86,1.99-4.86,6.82m-11.37,6.45h3.66v-8.07c0-1.44.51-2.22,1.3-2.22.93,0,.93.82.93,2.31v7.98h3.63v-9.01c0-2.79-.83-4.16-2.92-4.16-1.37,0-2.36.55-3.17,1.78v-1.53h-3.43v12.92ZM0,123.73v.32c0,2.58,1.64,4.12,4.54,4.12s4.7-1.49,4.7-4.09c0-2.38-1.27-3.29-3.75-4.39-1.23-.55-1.99-.78-1.99-1.72,0-.64.46-1.07,1.2-1.07.86,0,1.18.55,1.2,1.81h3.19v-.23c0-2.52-1.6-3.91-4.47-3.91s-4.49,1.58-4.49,3.86c0,1.03.39,2.01,1.13,2.74.93.94,2.13,1.4,3.33,1.97.83.39,1.32.66,1.32,1.4,0,.66-.51,1.14-1.25,1.14-.9,0-1.34-.62-1.41-1.94H0Z"/>
</svg>