<?xml version="1.0" encoding="UTF-8"?>
<svg id="Ebene_1" data-name="Ebene 1" xmlns="http://www.w3.org/2000/svg" viewBox="0 0 492.45 208.83">
  <defs>
    <style>
      .cls-1 {
        fill: #fff;
      }
    </style>
  </defs>
  <path class="cls-1" d="m12.98,182.16h20.25s0,5.09,0,5.09h-7.35s0,21.11,0,21.11h-5.48s0-21.11,0-21.11h-7.42s0-5.09,0-5.09Zm28.24,26.2h5.48s0-26.2,0-26.2h-5.48s0,26.2,0,26.2Zm31.57-10.38l6.03,10.38h-6.34s-5.36-9.48-5.36-9.48h-5.01s0,9.48,0,9.48h-5.48s0-26.2,0-26.2h11.97c6.26,0,8.75,4.74,8.75,8.47,0,2.6-1.36,5.83-4.55,7.35Zm-.97-7.39c0-1.48-1.01-3.42-3.26-3.42h-6.45s0,6.72,0,6.72h6.45c2.25,0,3.26-1.9,3.26-3.3Zm35.11,4.35c0,8.24-3.89,13.88-11.55,13.88-7.46,0-11.39-5.48-11.39-13.76,0-8.16,4.28-13.37,11.47-13.37,7.74,0,11.47,6.1,11.47,13.26Zm-5.52.08c0-4.94-1.83-8.44-5.95-8.44-3.77,0-5.95,2.92-5.95,8.47,0,5.79,1.98,8.86,5.87,8.86,4.04,0,6.02-3.11,6.02-8.9Zm18.02-12.87h-5.48s0,26.2,0,26.2h17.61s0-5.09,0-5.09h-12.13s0-21.11,0-21.11Zm30.95,10.88c-4.74-1.24-7.97-1.28-7.97-3.69,0-1.87,1.79-2.95,4.12-2.95,2.57,0,3.92,1.52,4.2,3.34h5.6c-.47-3.85-3.03-8.05-9.8-8.05-5.71,0-9.64,3.07-9.64,7.74,0,4.43,3.5,6.41,6.49,7.19,5.33,1.36,8.09,1.36,8.09,4,0,2.1-2.06,3.42-4.98,3.42-2.72,0-4.51-1.71-4.78-3.96h-5.67c.43,4.28,3.5,8.75,10.34,8.75,6.3,0,10.57-3.42,10.57-8.32,0-4-2.14-6.3-6.57-7.46Zm44.68-10.88v10.3s-9.29,0-9.29,0v-10.3s-5.48,0-5.48,0v26.2s5.48,0,5.48,0v-10.81s9.29,0,9.29,0v10.81s5.48,0,5.48,0v-26.2s-5.48,0-5.48,0Zm36.16,12.79c0,8.24-3.89,13.88-11.55,13.88-7.46,0-11.39-5.48-11.39-13.76,0-8.16,4.28-13.37,11.47-13.37,7.74,0,11.47,6.1,11.47,13.26Zm-5.52.08c0-4.94-1.83-8.44-5.95-8.44-3.77,0-5.95,2.92-5.95,8.47,0,5.79,1.98,8.86,5.87,8.86,4.04,0,6.02-3.11,6.02-8.9Zm28.71,4.55c-.54,2.92-2.37,4.35-5.09,4.35-3.93,0-6.34-2.99-6.34-8.71,0-5.64,2.25-8.63,6.18-8.63,2.68,0,4.43,1.44,4.94,4.08h5.6c-.82-5.13-4.35-8.98-10.57-8.98-7.39,0-11.66,5.25-11.66,13.53,0,8.28,4.32,13.6,11.86,13.6,6.45,0,9.83-4.04,10.73-9.25h-5.64Zm33.5-17.41h-5.48s0,10.3,0,10.3h-9.29s0-10.3,0-10.3h-5.48s0,26.2,0,26.2h5.48s0-10.81,0-10.81h9.29s0,10.81,0,10.81h5.48s0-26.2,0-26.2Zm30.39,8.47c0,3.54-2.49,8.28-8.75,8.28h-6.3s0,9.45,0,9.45h-5.48s0-26.2,0-26.2h11.78c6.26,0,8.75,4.74,8.75,8.47Zm-5.52-.04c0-1.48-1.01-3.42-3.26-3.42h-6.26s0,6.72,0,6.72h6.26c2.25,0,3.26-1.9,3.26-3.3Zm17.81-8.43h-5.48s0,26.2,0,26.2h17.61s0-5.09,0-5.09h-12.13s0-21.11,0-21.11Zm65.33,0h-20.25s0,5.09,0,5.09h7.42s0,21.11,0,21.11h5.48s0-21.11,0-21.11h7.35s0-5.09,0-5.09Zm26.31,0h-18.7s0,26.2,0,26.2h18.7s0-5.01,0-5.01h-13.22s0-5.75,0-5.75h11.16s0-5.01,0-5.01h-11.16s0-5.4,0-5.4h13.22s0-5.01,0-5.01Zm57.26,0h-5.48s0,15.9,0,15.9c0,4.24-1.67,5.87-4.74,5.87-2.88,0-4.55-1.63-4.55-5.87v-15.9s-5.48,0-5.48,0v16.17c0,7.7,4.35,10.49,10.03,10.49,5.87,0,10.22-2.8,10.22-10.49v-16.17Zm-118.6,5.31h0s0,0,0,0h0Zm12.2,20.81h-5.47s-2.18-5.87-2.18-5.87h-5.37s0,0,0,0h-5.37s-2.18,5.87-2.18,5.87h-5.47s9.56-26.2,9.56-26.2h3.46s0,0,0,0h0s3.46,0,3.46,0l9.56,26.2Zm-9.35-10.81l-3.66-9.99h0s0-.01,0-.01h0s0,.04,0,.04v.03s0-.01,0-.01h0s0-.01,0-.01v-.03s0-.01,0-.01h0s0,.01,0,.01l-3.66,9.99h3.67s0,0,0,0h3.67Zm90.31,10.81h-5.47s-2.18-5.87-2.18-5.87h-5.37s0,0,0,0h-5.37s-2.18,5.87-2.18,5.87h-5.47s9.56-26.2,9.56-26.2h3.46s0,0,0,0h0s3.46,0,3.46,0l9.56,26.2Zm-9.35-10.81l-3.66-9.99h0s0-.01,0-.01h0s0,.04,0,.04v.03s0-.01,0-.01h0s0-.01,0-.01v-.03s0-.01,0-.01h0s0,.01,0,.01l-3.66,9.99h3.67s0,0,0,0h3.67Z"/>
  <path class="cls-1" d="m490.9,119.14c-10.23-20.11-15.7-73.73-17.11-109.72-.18-1.94-1.41-2.65-3.18-1.59-9.18,6.35-17.11,12.53-23.11,18.35-.88.88-1.23,1.59-1.06,3l1.94,23.44c-34.4,16.41-42.87,26.11-42.87,41.28,0,21.17,10.94,41.64,27.52,41.64,7.41,0,15.35-4.94,25.93-15.88,1.59,5.47,3.18,10.06,5.12,13.59.88,1.41,1.94,1.76,3.35,1.06,7.23-3,15.88-7.41,22.58-12,1.23-.71,1.59-1.94.88-3.18h0Zm-42.52-7.76c-8.11,0-15.35-18.52-15.35-31.4,0-6,2.47-8.82,16.76-13.06,1.77,16.06,3.88,30.52,6.53,42.17-3.53,1.76-5.82,2.29-7.94,2.29h0Zm-50.81-59.83c0,47.28,2.65,58.57,6.88,67.04.71,1.23.35,2.47-.88,3.35-7.76,5.12-15.35,9-25.41,13.23-1.23.71-2.47.53-3.35-.71-3-4.06-5.65-11.82-6-34.93,0,0-2.51-66.77-.53-70.37,1.98-3.6,15-14.44,26.82-21.32,1.77-1.06,3-.35,3,1.59-.18,9.53-.53,23.23-.53,42.11h0Zm-62.45,3.36c-13.94,0-39.7,15.7-41.46,32.82-2.12,21.7,9.7,47.81,32.64,47.81,9.18,0,24.35-6.88,35.46-16.06.88-.88,1.41-1.77,1.06-3.18-.53-2.82-1.59-5.82-2.47-7.94-.7-1.59-1.94-1.94-3.53-.88-7.23,4.41-10.94,5.65-13.23,5.65-4.41,0-9.53-4.94-13.94-11.47l31.76-18.17c.88-.53,1.77-1.23,2.12-1.77.35-.71.35-1.41,0-2.65-3.88-13.41-17.29-24.17-28.4-24.17h0Zm-11.29,35.99c-2.47-5.47-3.88-10.76-3.88-14.47,0-4.59,2.65-7.59,5.82-7.59,4.76,0,10.94,4.76,13.76,10.23l-15.7,11.82h0Zm-29.82-19.58c.18,1.41-.18,2.47-1.41,3.17l-10.23,5.98c1.75,29.53,1.17,31.03-1.35,40.24-3.5,12.77-14.51,29.46-27.57,36.87-1.24.71-2.29.71-3.35,0-2.65-1.76-4.55-3.54-6.67-6.01-1.06-1.24-.78-2.21.18-3.53,10.58-14.65,9.57-36.57,8.55-50.26l-8.12,4.67c-1.41.88-2.79.2-3.37-1.18-1.29-2.79-2.34-5.77-3.1-8.77-.35-1.41,0-2.29,1.23-3.17l12.13-7.01s-.28-4.21-2.29-14.77c-1.49-7.81-2.79-13.78-2.8-18.41-.02-12.38,25.23-36.65,32.64-40.53,4.06-2.12,9.88-1.41,15.17.71,8.12,3.35,11.44,5.37,18.85,12.07,1.06,1.06,1.23,2.29.18,3.53-6,6.88-10.76,11.82-17.47,17.64-1.06,1.06-2.29,1.06-3.53-.18-6.53-6.17-15.14-12.07-19.55-12.07-2.12,0-3.53,1.24-3.53,3.18,0,4.94,5.29,15.6,10.06,32.54l9-5.47c1.41-.88,2.64-.53,3.35,1.06,1.18,2.92,2.33,6.14,3,9.7h0Zm-154.55-16.41c-13.94,0-39.7,15.7-41.46,32.82-2.12,21.7,9.7,47.81,32.64,47.81,9.18,0,24.35-6.88,35.46-16.06.88-.88,1.41-1.77,1.06-3.18-.53-2.82-1.59-5.82-2.47-7.94-.71-1.59-1.94-1.94-3.53-.88-7.23,4.41-10.94,5.65-13.23,5.65-4.41,0-9.53-4.94-13.94-11.47l31.76-18.17c.88-.53,1.77-1.23,2.12-1.77.35-.71.35-1.41,0-2.65-3.88-13.41-17.29-24.17-28.41-24.17h0Zm-11.29,35.99c-2.47-5.47-3.88-10.76-3.88-14.47,0-4.59,2.65-7.59,5.82-7.59,4.76,0,10.94,4.76,13.76,10.23l-15.7,11.82h0Zm76.5,11.38c2,3.71,4.16,7.12,7.2,9.94,2.49,2.32,5.32,2.93,8.38,1.53,3.31-1.51,6.54-3.22,9.76-4.93,2.63-1.4,3.6-1.17,4.63,1.61.8,2.14,1.45,4.34,2.08,6.53.45,1.56.1,2.95-1.28,3.96-8.03,5.86-16.64,10.62-26.5,12.45-12.08,2.24-22.01-1.92-29.58-11.4-7.44-9.31-9.9-20.26-9.89-31.99,0-9.2,3.91-16.45,10.42-22.56,6.19-5.82,13.36-9.95,21.4-12.67,6.36-2.15,12.55-1.88,18.61.94,8.67,4.03,15.4,10.05,19.32,18.93.32.73.58,1.5.81,2.27,1.16,3.86.76,4.79-2.71,6.75-10.39,5.89-20.77,11.8-31.16,17.71-.47.27-.92.57-1.48.92h0Zm-5.22-11.85c2.98-2.33,5.74-4.5,8.51-6.67,2.81-2.2,5.62-4.4,8.49-6.65-3.02-4.22-6.53-7.65-11.18-9.69-5.12-2.24-9.3.51-9.3,6.09,0,5.76,1.61,11.21,3.49,16.91h0Zm5.22,11.85c2,3.71,4.16,7.12,7.2,9.94,2.49,2.32,5.32,2.93,8.38,1.53,3.31-1.51,6.54-3.22,9.76-4.93,2.63-1.4,3.6-1.17,4.63,1.61.8,2.14,1.45,4.34,2.08,6.53.45,1.56.1,2.95-1.28,3.96-8.03,5.86-16.64,10.62-26.5,12.45-12.08,2.24-22.01-1.92-29.58-11.4-7.44-9.31-9.9-20.26-9.89-31.99,0-9.2,3.91-16.45,10.42-22.56,6.19-5.82,13.36-9.95,21.4-12.67,6.36-2.15,12.55-1.88,18.61.94,8.67,4.03,15.4,10.05,19.32,18.93.32.73.58,1.5.81,2.27,1.16,3.86.76,4.79-2.71,6.75-10.39,5.89-20.77,11.8-31.16,17.71-.47.27-.92.57-1.48.92h0Zm-5.22-11.85c2.98-2.33,5.74-4.5,8.51-6.67,2.81-2.2,5.62-4.4,8.49-6.65-3.02-4.22-6.53-7.65-11.18-9.69-5.12-2.24-9.3.51-9.3,6.09,0,5.76,1.61,11.21,3.49,16.91h0ZM65.09,23.75c-2.63.28-5.77,6.1-5.07,9.01,2.74,11.37,34.62,47.11,33.14,72.45-.71,12.12-27.48,36.29-41.02,38.16-21.2,2.92-40.38-8.13-50.78-37.9-.32-1.39-.24-2.28.7-3.44,7.63-8.43,12.51-11.68,21.52-18.84,1.49-1.04,2.77-.65,3.31,1.07,6.23,20.46,21.54,43.28,32.59,42.12,4.39-.46,6.86-4.26,6.14-7.74-2.02-10.79-28.45-40.11-30.7-57.92-2.16-17.12,18-45.53,32.71-55.77,6.61-4.6,9.97-6.37,18.59-3.72,11.73,3.56,22.83,13.41,34.55,25.62,1.18,1.12,1.14,2.36.02,3.55-7.44,8.59-12.3,12.01-20.76,19.29-1.14,1.01-2.36,1.13-3.55.02-14.16-13.24-26.65-26.45-31.39-25.95h0Z"/>
</svg>