<?xml version="1.0" encoding="UTF-8"?>
<svg id="Ebene_5" data-name="Ebene 5" xmlns="http://www.w3.org/2000/svg" viewBox="0 0 546.6 144.76">
  <defs>
    <style>
      .cls-1 {
        fill: #fff;
      }

      .cls-2 {
        fill: #1d1d1b;
      }
    </style>
  </defs>
  <rect class="cls-2" x="152.73" width=".41" height="144.76"/>
  <rect class="cls-2" x="159.66" width=".45" height="144.76"/>
  <g>
    <path class="cls-1" d="m38.61,42.76c-2.9,0-7.36,1.94-7.36,10.18s4.46,10.11,7.36,10.11,7.36-1.86,7.36-10.11-4.46-10.18-7.36-10.18Zm0,0c-2.9,0-7.36,1.94-7.36,10.18s4.46,10.11,7.36,10.11,7.36-1.86,7.36-10.11-4.46-10.18-7.36-10.18Zm0,0c-2.9,0-7.36,1.94-7.36,10.18s4.46,10.11,7.36,10.11,7.36-1.86,7.36-10.11-4.46-10.18-7.36-10.18Zm0,0c-2.9,0-7.36,1.94-7.36,10.18s4.46,10.11,7.36,10.11,7.36-1.86,7.36-10.11-4.46-10.18-7.36-10.18Zm0,0c-2.9,0-7.36,1.94-7.36,10.18s4.46,10.11,7.36,10.11,7.36-1.86,7.36-10.11-4.46-10.18-7.36-10.18Zm37.66,54.81h-.11l-3.58,11.4h7.01l-3.32-11.4Zm0,0h-.11l-3.58,11.4h7.01l-3.32-11.4Zm-37.66-54.81c-2.9,0-7.36,1.94-7.36,10.18s4.46,10.11,7.36,10.11,7.36-1.86,7.36-10.11-4.46-10.18-7.36-10.18Zm0,0c-2.9,0-7.36,1.94-7.36,10.18s4.46,10.11,7.36,10.11,7.36-1.86,7.36-10.11-4.46-10.18-7.36-10.18Zm37.66,54.81h-.11l-3.58,11.4h7.01l-3.32-11.4Zm0,0h-.11l-3.58,11.4h7.01l-3.32-11.4Zm-37.66-54.81c-2.9,0-7.36,1.94-7.36,10.18s4.46,10.11,7.36,10.11,7.36-1.86,7.36-10.11-4.46-10.18-7.36-10.18Zm0,0c-2.9,0-7.36,1.94-7.36,10.18s4.46,10.11,7.36,10.11,7.36-1.86,7.36-10.11-4.46-10.18-7.36-10.18Zm37.66,54.81h-.11l-3.58,11.4h7.01l-3.32-11.4Zm0,0h-.11l-3.58,11.4h7.01l-3.32-11.4Zm-37.66-54.81c-2.9,0-7.36,1.94-7.36,10.18s4.46,10.11,7.36,10.11,7.36-1.86,7.36-10.11-4.46-10.18-7.36-10.18Zm0,0c-2.9,0-7.36,1.94-7.36,10.18s4.46,10.11,7.36,10.11,7.36-1.86,7.36-10.11-4.46-10.18-7.36-10.18Zm37.66,54.81h-.11l-3.58,11.4h7.01l-3.32-11.4Zm0,0h-.11l-3.58,11.4h7.01l-3.32-11.4Zm-37.66-54.81c-2.9,0-7.36,1.94-7.36,10.18s4.46,10.11,7.36,10.11,7.36-1.86,7.36-10.11-4.46-10.18-7.36-10.18Zm0,0c-2.9,0-7.36,1.94-7.36,10.18s4.46,10.11,7.36,10.11,7.36-1.86,7.36-10.11-4.46-10.18-7.36-10.18Zm37.66,54.81h-.11l-3.58,11.4h7.01l-3.32-11.4Zm0,0h-.11l-3.58,11.4h7.01l-3.32-11.4Zm-37.66-54.81c-2.9,0-7.36,1.94-7.36,10.18s4.46,10.11,7.36,10.11,7.36-1.86,7.36-10.11-4.46-10.18-7.36-10.18ZM0,0v144.76h153.14V0H0Zm40.12,17.46h8.81v14.12h-8.81v-14.12Zm-11.77,0h8.81v14.12h-8.81v-14.12Zm10.26,16.11c11.25,0,18.77,8.09,18.77,19.37s-7.52,19.39-18.77,19.39-18.75-8.08-18.75-19.39,7.5-19.37,18.75-19.37Zm5.2,88.59h-11.4v-27.52h-12.43v-9.46h37.25v9.46h-13.42v27.52Zm39.61,0l-1.55-5.25h-11.78l-1.64,5.25h-11.45l13.61-36.98h11.14l13.48,36.98h-11.81Zm12.23-78.26h-13.4v27.52h-11.4v-27.52h-12.44v-9.46h37.24v9.46Zm34.24,78.26h-31.13v-36.98h11.41v27.52h19.72v9.46Zm.07-79.46l-17.38,19.26h17.22v9.46h-31.39v-8.91l16.5-18.61h-16.22v-9.46h31.27v8.26Zm-53.8,54.87l-3.58,11.4h7.01l-3.32-11.4h-.11Zm-37.55-34.52c2.9,0,7.36-1.86,7.36-10.11s-4.46-10.18-7.36-10.18-7.36,1.94-7.36,10.18,4.46,10.11,7.36,10.11Zm0-20.29c-2.9,0-7.36,1.94-7.36,10.18s4.46,10.11,7.36,10.11,7.36-1.86,7.36-10.11-4.46-10.18-7.36-10.18Zm37.66,54.81h-.11l-3.58,11.4h7.01l-3.32-11.4Zm0,0h-.11l-3.58,11.4h7.01l-3.32-11.4Zm-37.66-54.81c-2.9,0-7.36,1.94-7.36,10.18s4.46,10.11,7.36,10.11,7.36-1.86,7.36-10.11-4.46-10.18-7.36-10.18Zm0,0c-2.9,0-7.36,1.94-7.36,10.18s4.46,10.11,7.36,10.11,7.36-1.86,7.36-10.11-4.46-10.18-7.36-10.18Zm37.66,54.81h-.11l-3.58,11.4h7.01l-3.32-11.4Zm0,0h-.11l-3.58,11.4h7.01l-3.32-11.4Zm-37.66-54.81c-2.9,0-7.36,1.94-7.36,10.18s4.46,10.11,7.36,10.11,7.36-1.86,7.36-10.11-4.46-10.18-7.36-10.18Zm0,0c-2.9,0-7.36,1.94-7.36,10.18s4.46,10.11,7.36,10.11,7.36-1.86,7.36-10.11-4.46-10.18-7.36-10.18Zm37.66,54.81h-.11l-3.58,11.4h7.01l-3.32-11.4Zm0,0h-.11l-3.58,11.4h7.01l-3.32-11.4Zm-37.66-54.81c-2.9,0-7.36,1.94-7.36,10.18s4.46,10.11,7.36,10.11,7.36-1.86,7.36-10.11-4.46-10.18-7.36-10.18Zm0,0c-2.9,0-7.36,1.94-7.36,10.18s4.46,10.11,7.36,10.11,7.36-1.86,7.36-10.11-4.46-10.18-7.36-10.18Zm37.66,54.81h-.11l-3.58,11.4h7.01l-3.32-11.4Zm0,0h-.11l-3.58,11.4h7.01l-3.32-11.4Zm-37.66-54.81c-2.9,0-7.36,1.94-7.36,10.18s4.46,10.11,7.36,10.11,7.36-1.86,7.36-10.11-4.46-10.18-7.36-10.18Zm0,0c-2.9,0-7.36,1.94-7.36,10.18s4.46,10.11,7.36,10.11,7.36-1.86,7.36-10.11-4.46-10.18-7.36-10.18Zm37.66,54.81h-.11l-3.58,11.4h7.01l-3.32-11.4Zm0,0h-.11l-3.58,11.4h7.01l-3.32-11.4Zm-37.66-54.81c-2.9,0-7.36,1.94-7.36,10.18s4.46,10.11,7.36,10.11,7.36-1.86,7.36-10.11-4.46-10.18-7.36-10.18Zm0,0c-2.9,0-7.36,1.94-7.36,10.18s4.46,10.11,7.36,10.11,7.36-1.86,7.36-10.11-4.46-10.18-7.36-10.18Zm0,0c-2.9,0-7.36,1.94-7.36,10.18s4.46,10.11,7.36,10.11,7.36-1.86,7.36-10.11-4.46-10.18-7.36-10.18Zm0,0c-2.9,0-7.36,1.94-7.36,10.18s4.46,10.11,7.36,10.11,7.36-1.86,7.36-10.11-4.46-10.18-7.36-10.18Zm0,0c-2.9,0-7.36,1.94-7.36,10.18s4.46,10.11,7.36,10.11,7.36-1.86,7.36-10.11-4.46-10.18-7.36-10.18Z"/>
    <g>
      <path class="cls-2" d="m45.97,52.94c0,8.25-4.46,10.11-7.36,10.11s-7.36-1.86-7.36-10.11,4.46-10.18,7.36-10.18,7.36,1.94,7.36,10.18Z"/>
      <path class="cls-1" d="m45.97,52.94c0,8.25-4.46,10.11-7.36,10.11s-7.36-1.86-7.36-10.11,4.46-10.18,7.36-10.18,7.36,1.94,7.36,10.18Z"/>
      <polygon class="cls-2" points="79.59 108.97 72.58 108.97 76.16 97.57 76.27 97.57 79.59 108.97"/>
      <polygon class="cls-1" points="79.59 108.97 72.58 108.97 76.16 97.57 76.27 97.57 79.59 108.97"/>
    </g>
  </g>
  <path class="cls-1" d="m277.04,81.43c-1.63-11.65-10.49-19.05-22.23-17.41-11.74,1.64-18.23,11.19-16.6,22.84,1.63,11.65,10.49,19.04,22.23,17.4s18.23-11.19,16.6-22.83Zm0,0c-1.63-11.65-10.49-19.05-22.23-17.41-11.74,1.64-18.23,11.19-16.6,22.84,1.63,11.65,10.49,19.04,22.23,17.4s18.23-11.19,16.6-22.83Zm0,0c-1.63-11.65-10.49-19.05-22.23-17.41-11.74,1.64-18.23,11.19-16.6,22.84,1.63,11.65,10.49,19.04,22.23,17.4s18.23-11.19,16.6-22.83Zm0,0c-1.63-11.65-10.49-19.05-22.23-17.41-11.74,1.64-18.23,11.19-16.6,22.84,1.63,11.65,10.49,19.04,22.23,17.4s18.23-11.19,16.6-22.83Zm0,0c-1.63-11.65-10.49-19.05-22.23-17.41-11.74,1.64-18.23,11.19-16.6,22.84,1.63,11.65,10.49,19.04,22.23,17.4s18.23-11.19,16.6-22.83Zm114.31-16.53c-1.72-12.27-12.31-16.63-23.97-15l-8.12,1.13,5.19,37.07,7.15-1c12.8-1.79,21.74-7.99,19.75-22.2Zm0,0c-1.72-12.27-12.31-16.63-23.97-15l-8.12,1.13,5.19,37.07,7.15-1c12.8-1.79,21.74-7.99,19.75-22.2Zm-114.31,16.53c-1.63-11.65-10.49-19.05-22.23-17.41-11.74,1.64-18.23,11.19-16.6,22.84,1.63,11.65,10.49,19.04,22.23,17.4s18.23-11.19,16.6-22.83Zm0,0c-1.63-11.65-10.49-19.05-22.23-17.41-11.74,1.64-18.23,11.19-16.6,22.84,1.63,11.65,10.49,19.04,22.23,17.4s18.23-11.19,16.6-22.83Zm114.31-16.53c-1.72-12.27-12.31-16.63-23.97-15l-8.12,1.13,5.19,37.07,7.15-1c12.8-1.79,21.74-7.99,19.75-22.2Zm0,0c-1.72-12.27-12.31-16.63-23.97-15l-8.12,1.13,5.19,37.07,7.15-1c12.8-1.79,21.74-7.99,19.75-22.2Zm-114.31,16.53c-1.63-11.65-10.49-19.05-22.23-17.41-11.74,1.64-18.23,11.19-16.6,22.84,1.63,11.65,10.49,19.04,22.23,17.4s18.23-11.19,16.6-22.83ZM159.66,0v144.76h386.94V0H159.66Zm99.88,32.85c4.06-.57,8.1,1.93,8.69,6.17.59,4.23-2.11,8.03-6.44,8.64-4.15.58-7.82-2.51-8.39-6.57-.52-3.79,2.26-7.69,6.14-8.24Zm-18.36,2.57c4.06-.57,8.1,1.93,8.69,6.16.59,4.24-2.11,8.04-6.44,8.64-4.15.58-7.82-2.5-8.39-6.56-.52-3.8,2.26-7.7,6.14-8.24Zm-43.66,90.6c-8.03,1.12-15.42-.27-22.1-4.92l8.29-12.14c3.34,3.32,8.24,4.88,12.83,4.24,4.5-.63,9.24-3.45,8.62-7.87-1.6-11.47-30.04-1.19-32.96-22.02-1.86-13.33,8.73-21.92,20.99-23.63,7.07-.99,14.12-.09,20.07,3.85l-8,11.65c-2.6-2.52-7.2-3.22-10.55-2.76-3.89.55-9.02,3.07-8.37,7.74,1.59,11.39,29.34.04,32.4,21.92,1.95,13.95-8.33,22.14-21.22,23.94Zm64.7-9.05c-19.51,2.73-35.51-8.08-38.31-28.11-2.8-20.04,9.62-34.82,29.12-37.55,19.51-2.73,35.51,8.08,38.31,28.12,2.8,20.03-9.62,34.81-29.12,37.54Zm43.37-7.68l-8.74-62.49,13.77-1.92,6.97,49.77,25.5-3.56,1.78,12.7-39.28,5.5Zm69.37-9.7l-22.5,3.14-8.74-62.48,20.65-2.89c20.12-2.81,38.18,3.39,41.37,26.25,2.83,20.21-12.16,33.37-30.78,35.98Zm45.01-6.3l-8.73-62.48,42.45-5.94,1.77,12.71-28.68,4.01,1.63,11.65,27.09-3.79,1.79,12.71-27.1,3.79,1.77,12.71,30.28-4.24,1.78,12.71-44.05,6.16Zm96.29-13.46l-33.49-40.67-.18.02,6.23,44.48-13.77,1.93-8.74-62.48,18.71-2.62,32.64,39.71.18-.03-6.08-43.42,13.77-1.93,8.74,62.49-18.01,2.52Zm-148.88-29.93l-8.12,1.13,5.19,37.07,7.15-1c12.8-1.79,21.74-7.99,19.75-22.2-1.72-12.27-12.31-16.63-23.97-15Zm-112.57,14.12c-11.74,1.64-18.23,11.19-16.6,22.84,1.63,11.65,10.49,19.04,22.23,17.4s18.23-11.19,16.6-22.83c-1.63-11.65-10.49-19.05-22.23-17.41Zm22.23,17.41c-1.63-11.65-10.49-19.05-22.23-17.41-11.74,1.64-18.23,11.19-16.6,22.84,1.63,11.65,10.49,19.04,22.23,17.4s18.23-11.19,16.6-22.83Zm114.31-16.53c-1.72-12.27-12.31-16.63-23.97-15l-8.12,1.13,5.19,37.07,7.15-1c12.8-1.79,21.74-7.99,19.75-22.2Zm0,0c-1.72-12.27-12.31-16.63-23.97-15l-8.12,1.13,5.19,37.07,7.15-1c12.8-1.79,21.74-7.99,19.75-22.2Zm-114.31,16.53c-1.63-11.65-10.49-19.05-22.23-17.41-11.74,1.64-18.23,11.19-16.6,22.84,1.63,11.65,10.49,19.04,22.23,17.4s18.23-11.19,16.6-22.83Zm0,0c-1.63-11.65-10.49-19.05-22.23-17.41-11.74,1.64-18.23,11.19-16.6,22.84,1.63,11.65,10.49,19.04,22.23,17.4s18.23-11.19,16.6-22.83Zm0,0c-1.63-11.65-10.49-19.05-22.23-17.41-11.74,1.64-18.23,11.19-16.6,22.84,1.63,11.65,10.49,19.04,22.23,17.4s18.23-11.19,16.6-22.83Zm0,0c-1.63-11.65-10.49-19.05-22.23-17.41-11.74,1.64-18.23,11.19-16.6,22.84,1.63,11.65,10.49,19.04,22.23,17.4s18.23-11.19,16.6-22.83Zm0,0c-1.63-11.65-10.49-19.05-22.23-17.41-11.74,1.64-18.23,11.19-16.6,22.84,1.63,11.65,10.49,19.04,22.23,17.4s18.23-11.19,16.6-22.83Z"/>
</svg>