<svg width="579" height="205" viewBox="0 0 579 205" fill="none" xmlns="http://www.w3.org/2000/svg">
<g clip-path="url(#clip0_2680_2)">
<path d="M304.52 204.028V182.308H309.98C316.64 182.308 319.01 186.358 319.01 192.838C319.01 199.918 316.07 204.028 309.56 204.028H304.52ZM309.65 202.288C314.57 202.288 316.91 199.258 316.91 193.288C316.91 186.118 314.57 184.048 309.8 184.048H306.53V202.288H309.65ZM322.86 204.028V182.308H324.87V204.028H322.86ZM336.79 182.308L343.45 204.028H341.35L339.07 196.258L331.69 198.778L330.25 204.028H328.24L334.48 182.308H336.79ZM332.23 196.858L338.59 194.668L335.62 184.558L332.23 196.858ZM347.875 204.028H346.075L347.425 182.308H349.435L355.705 198.358L362.185 182.308H363.985L365.365 204.028H363.535L362.425 186.178L356.575 200.608L357.925 204.028H356.095L348.925 186.058L347.875 204.028ZM376.37 204.388C370.79 204.388 368.3 199.798 368.3 193.138C368.3 186.508 371.24 181.918 376.73 181.918C382.19 181.918 384.65 186.658 384.65 192.688C384.65 199.768 381.86 204.388 376.37 204.388ZM370.4 193.138C370.4 199.468 372.59 202.618 376.49 202.618C380.18 202.618 382.58 199.798 382.58 192.988C382.58 186.898 380.27 183.688 376.67 183.688C373.01 183.688 370.4 186.868 370.4 193.138ZM390.345 204.028H388.485V182.308H390.345L400.335 193.378V182.308H402.195V204.028H400.335V195.958L390.345 185.008V204.028ZM407.235 204.028V182.308H412.695C419.355 182.308 421.725 186.358 421.725 192.838C421.725 199.918 418.785 204.028 412.275 204.028H407.235ZM412.365 202.288C417.285 202.288 419.625 199.258 419.625 193.288C419.625 186.118 417.285 184.048 412.515 184.048H409.245V202.288H412.365ZM438.158 204.388C432.578 204.388 430.088 199.798 430.088 193.138C430.088 186.508 433.028 181.918 438.518 181.918C443.978 181.918 446.438 186.658 446.438 192.688C446.438 199.768 443.648 204.388 438.158 204.388ZM432.188 193.138C432.188 199.468 434.378 202.618 438.278 202.618C441.968 202.618 444.368 199.798 444.368 192.988C444.368 186.898 442.058 183.688 438.458 183.688C434.798 183.688 432.188 186.868 432.188 193.138ZM450.272 204.028V182.308H460.742V184.048H452.282V192.508H460.112V194.278H452.282V204.028H450.272ZM467.565 184.048V182.308H480.315V184.048H475.005V204.028H472.995V184.048H467.565ZM483.202 204.028V182.308H485.212V193.228L494.422 190.018V182.308H496.432V204.028H494.422V191.878L485.212 195.088V204.028H483.202ZM501.483 204.028V182.308H511.953V184.048H503.493V192.118H511.413V193.888H503.493V202.288H512.223V204.028H501.483ZM528.48 182.308L535.14 204.028H533.04L530.76 196.258L523.38 198.778L521.94 204.028H519.93L526.17 182.308H528.48ZM523.92 196.858L530.28 194.668L527.31 184.558L523.92 196.858ZM538.514 204.028V182.308H540.524V202.288H548.834V204.028H538.514ZM554.322 204.028H552.342V182.308H558.102C562.752 182.308 564.162 185.248 564.162 188.428C564.162 190.798 563.532 192.418 562.692 193.498C561.282 194.158 560.442 194.458 559.662 194.758L554.322 196.768V204.028ZM558.672 193.228C559.902 192.778 560.592 192.448 561.162 192.178C561.732 191.308 562.062 190.258 562.062 188.428C562.062 185.068 560.232 184.048 557.382 184.048H554.322V194.878L558.672 193.228ZM567.886 198.058C568.306 200.608 569.566 202.708 572.326 202.708C574.546 202.708 576.496 201.538 576.496 198.058C576.496 196.528 576.196 195.838 575.776 195.118C575.716 194.998 575.446 194.908 575.296 194.848L568.006 192.088C567.916 192.058 567.736 191.998 567.706 191.938C566.986 190.798 566.536 189.628 566.536 187.858C566.536 184.108 569.026 181.918 572.386 181.918C575.686 181.918 577.876 183.538 578.266 187.948L576.406 188.188C576.076 186.088 575.416 183.658 572.386 183.658C569.866 183.658 568.576 185.338 568.576 187.678C568.576 188.698 568.756 189.598 569.236 190.528C569.266 190.618 569.446 190.648 569.536 190.678L576.796 193.468C576.946 193.528 577.156 193.588 577.246 193.708C578.026 194.728 578.506 195.898 578.506 197.908C578.506 202.588 575.506 204.388 572.326 204.388C568.726 204.388 566.446 202.288 565.936 198.358L567.886 198.058Z" fill="black"/>
<path d="M0.566406 66.1123C0.566406 22.9403 19.3144 0.236328 49.2424 0.236328C70.9144 0.236328 85.5344 11.7603 87.4264 40.8283L76.5904 41.8603C74.6984 18.4683 65.4104 10.0403 48.7264 10.0403C26.0224 10.0403 12.4344 30.1643 12.4344 65.0803C12.4344 107.908 27.7424 119.432 49.2424 119.432C60.4224 119.432 68.6784 116.852 76.5904 111.348V72.6483H48.2104V62.5003H87.4264V116.508C74.6984 125.624 60.2504 129.064 49.0704 129.064C13.8104 129.064 0.566406 103.264 0.566406 66.1123ZM112.41 88.8163V2.47233H123.934V88.1283C123.934 111.52 132.362 119.088 150.594 119.088C170.546 119.088 177.426 109.972 177.426 88.1283V2.47233H188.95V86.5803C188.95 114.788 177.082 129.064 149.734 129.064C127.546 129.064 112.41 119.948 112.41 88.8163ZM217.239 127V2.47233H254.563C280.535 2.47233 286.899 19.3283 286.899 34.6363C286.899 45.9883 282.943 55.2763 277.955 61.2963C273.999 63.3603 270.731 64.5643 264.711 66.9723L263.335 67.4883L292.059 127H279.675L252.671 71.6163L228.591 80.9043V127H217.239ZM257.487 59.2323C263.679 56.9963 265.915 55.7923 269.527 53.5563C272.795 49.4283 274.859 43.5803 274.859 34.6363C274.859 16.7483 265.227 12.4483 249.059 12.4483H228.591V69.8963L257.487 59.2323ZM303.078 66.1123C303.078 22.9403 321.826 0.236328 351.754 0.236328C373.426 0.236328 388.046 11.7603 389.938 40.8283L379.102 41.8603C377.21 18.4683 367.922 10.0403 351.238 10.0403C328.534 10.0403 314.946 30.1643 314.946 65.0803C314.946 107.908 330.254 119.432 351.754 119.432C362.934 119.432 371.19 116.852 379.102 111.348V72.6483H350.722V62.5003H389.938V116.508C377.21 125.624 362.762 129.064 351.582 129.064C316.322 129.064 303.078 103.264 303.078 66.1123ZM415.61 127V2.47233H427.134V117.024H474.778V127H415.61Z" fill="black"/>
</g>
<defs>
<clipPath id="clip0_2680_2">
<rect width="579" height="205" fill="white"/>
</clipPath>
</defs>
</svg>
