<svg width="1680" height="1526" viewBox="0 0 1680 1526" fill="none" xmlns="http://www.w3.org/2000/svg">
<g id="Diamant 1 d&#195;&#188;nn" clip-path="url(#clip0_3_224)">
<g id="Mask group">
<mask id="mask0_3_224" style="mask-type:alpha" maskUnits="userSpaceOnUse" x="-2" y="-50" width="1654" height="1577">
<g id="Group">
<g id="Group_2">
<path id="Vector" d="M1576.47 1346.51L1511.17 1291.28L1651.94 1109.63L1650.36 1108.4L1509.64 1289.98L1316.77 1126.85L1649.06 974.3L1649.75 973.98L1627.92 834.69L1651.07 836.56L1651.23 834.57L1627.6 832.66L1593.18 613.04L1650.46 667.11L1651.83 665.66L1592.67 609.81L1569.06 459.17L1444.84 470.26L975.98 27.65L987.66 -48.34L985.68 -48.64L974.21 25.99L894.55 -49.22L893.18 -47.77L973.85 28.38L900.37 506.51L730.93 249.52L695.98 -48.61L693.99 -48.38L728.47 245.81L559.3 -10.78C569.67 -33.91 575.64 -47.12 576.12 -47.95L575.28 -48.49V-49.5C574.82 -49.5 573.933 -48.0667 572.62 -45.2C571.5 -42.75 569.85 -39.12 567.71 -34.37C565.15 -28.7 561.89 -21.44 557.99 -12.75L534.07 -49.05L532.4 -47.95L557.03 -10.6C554.66 -5.32 552.08 0.439999 549.29 6.69C534.28 40.23 512.26 89.55 483.85 153.27C472.49 178.75 460.07 206.61 446.62 236.81L256.69 123.35L363.05 -50L201.18 61.29L102.99 -49.16L101.5 -47.83L199.52 62.43L102.54 129.1L-1.04023 133.44L-0.960234 135.44L99.4298 131.23L-1.57023 200.66L-0.440234 202.31L103.18 131.07L253.56 124.77L108.65 384.2L103.98 398.71L-0.580234 350.13L-1.42023 351.94L103.36 400.63L102.62 402.93L-1.94023 700.68L-0.0502343 701.34L104.52 403.57L105.19 401.48L327.36 504.71C314.02 534.7 300.16 565.83 285.81 598.09C276.24 619.59 266.67 641.11 257.13 662.56C247.84 667.37 185.33 701.46 126.26 733.82C91.8198 752.69 60.5898 769.86 38.3098 782.16C25.8298 789.05 16.1198 794.44 9.44977 798.18C1.8231 802.453 -1.99023 804.843 -1.99023 805.35H-0.890234L-0.320234 806.09C3.20977 803.38 225.94 681.17 255.85 665.46C227.11 730.07 198.71 793.91 171.86 854.28L-0.890234 834.58L-1.12023 836.57L170.98 856.2C150.88 901.39 131.66 944.61 113.82 984.73L-0.300234 873.97L-1.69023 875.41L112.97 986.68C94.4498 1028.34 77.4298 1066.6 62.4898 1100.21L-0.0702344 945.79L-1.92023 946.54L61.3698 1102.74C23.0398 1188.93 -1.33023 1243.75 -1.91023 1245.08L-0.0802344 1245.89C1.06977 1243.3 24.9598 1189.56 62.4098 1105.32L135.86 1286.62L-1.78023 1460.39L-0.210234 1461.63L137.36 1287.94L220.05 1315.09L3.72977 1523.89L5.11977 1525.33L222.2 1315.8L567.34 1429.12L332.29 1524.3L333.04 1526.15L569.44 1430.42L569.69 1432.18L570.1 1431.42L605.85 1524.96L607.72 1524.25L572.15 1431.18L746.42 1525.49L747.37 1523.73L572.75 1429.24L1023.63 1278.71C1029.48 1289.24 1058.97 1343.5 1087.57 1396.12C1104.86 1427.94 1122.39 1460.18 1135.61 1484.47C1142.22 1496.61 1147.76 1506.77 1151.66 1513.89C1155.94 1521.7 1158.3 1525.61 1158.74 1525.61V1524.56L1159.55 1524.03C1158.45 1522.37 1123.31 1457.7 1089.32 1395.17C1072.89 1364.95 1056.67 1335.11 1044.54 1312.83C1038.47 1301.69 1033.43 1292.44 1029.89 1285.98C1028.12 1282.75 1026.73 1280.21 1025.77 1278.49C1025.66 1278.29 1025.56 1278.1 1025.46 1277.93L1313.95 1128.24L1322.95 1524.65L1324.95 1524.61L1315.97 1128.81L1508.41 1291.58L1328.28 1524.02L1329.86 1525.24L1509.94 1292.87L1575.1 1347.98L1650.42 1427.13L1651.87 1425.75L1576.51 1346.56L1576.47 1346.52V1346.51ZM1647.32 971.4L1396.92 816.01L1625.87 834.54L1647.32 971.4ZM1567.38 461.34L1590.3 607.58L1446.79 472.11L1567.38 461.34ZM1590.81 610.81L1625.56 832.51L1393.21 813.71L918.75 519.27L1444.14 472.36L1590.82 610.82L1590.81 610.81ZM494.7 891.1L448.89 562.97C460.78 574.18 523.48 633.99 584.3 692.01C619.61 725.7 655.12 759.58 681.83 785.02C695.18 797.74 706.33 808.36 714.15 815.79C718.06 819.51 721.14 822.43 723.24 824.42C724.47 825.58 725.29 826.35 725.86 826.86L641.92 907.88L494.7 891.09V891.1ZM640.05 909.69L514.25 1031.12L494.99 893.14L640.06 909.69H640.05ZM789.4 765.54L727.29 825.49C720.68 819.36 652.1 753.93 585.68 690.56C551.17 657.64 516.85 624.89 491.13 600.38C463.23 573.79 453.4 564.42 449.79 561.12L762.17 533.23L789.4 765.54ZM764.16 533.05L898.12 521.09L859.79 770.52L791.35 764.98L764.16 533.05ZM727.34 828.22C735.02 835.34 797.8 895.61 833.3 929.72L644.49 908.18L727.34 828.21V828.22ZM782.45 878.13C768.85 865.08 755.24 852.04 745.01 842.27C739.9 837.38 735.63 833.31 732.63 830.47C730.76 828.69 729.56 827.56 728.77 826.85L790.82 766.96L859.49 772.52L835.44 929.01C829.59 923.39 806.05 900.77 782.46 878.14L782.45 878.13ZM861.48 772.67L1088.66 791.06L1312.26 1124.44L837.23 930.43L861.48 772.67ZM909.33 520.09L915.42 519.55L1388.83 813.34L1089.78 789.14L909.33 520.09ZM908.06 518.19L904.47 512.75L912.58 517.78L908.05 518.18L908.06 518.19ZM975.6 30.04L1442.17 470.49L915.9 517.48L902.01 508.86L975.6 30.03V30.04ZM901.54 511.93L905.79 518.38L900.47 518.85L901.53 511.92L901.54 511.93ZM907.05 520.28L1087.23 788.92L861.78 770.67L900.17 520.89L907.06 520.28H907.05ZM898.42 519.04L763.91 531.05L751.01 420.97L899.83 509.87L898.42 519.03V519.04ZM897.88 506.38L750.72 418.47L731.43 253.93L897.88 506.38ZM558.33 -8.62L729 250.23L748.57 417.19L448.35 237.85C497 128.65 536.7 39.65 558.33 -8.62ZM447.53 239.69L748.86 419.7L761.93 531.25L448.13 559.27L377.09 397.88C401.82 342.33 425.57 288.98 447.53 239.7V239.69ZM445.54 558.33C432.39 552.21 366.71 521.14 329.98 503.73C345.55 468.74 360.95 434.14 376 400.34L445.54 558.33ZM445.8 238.66C424.97 285.43 401.67 337.74 376 395.4L257.49 126.17L445.8 238.66ZM106.29 128.94L200.85 63.93L253.17 122.78L106.29 128.94ZM202.51 62.79L356.41 -43.01L255.16 122.03L202.5 62.8L202.51 62.79ZM105.8 399.56L110.44 385.09L255.21 125.94L374.91 397.87C360.11 431.12 344.52 466.14 328.17 502.89L105.8 399.57V399.56ZM329.17 505.56C416.78 547.06 439.37 557.67 445.31 560.39C384.45 593.64 274.27 653.74 259.92 661.19C282.96 609.4 306.24 557.08 329.16 505.56H329.17ZM258.68 664C258.84 663.92 258.97 663.86 259.04 663.83L259.02 663.78C259.95 663.47 262.02 662.36 267.42 659.47C272.61 656.69 280.01 652.7 288.87 647.9C304.55 639.41 326.38 627.54 353.75 612.62C396.35 589.41 438.91 566.16 446.72 561.89L492.65 890.86L173.93 854.51C200.98 793.69 229.62 729.29 258.67 663.99L258.68 664ZM173.08 856.44L492.94 892.92L512.47 1032.85L337.48 1201.76L115.37 986.22C133.36 945.77 152.76 902.13 173.08 856.44ZM221.68 1313.53L137.76 1285.98L63.5398 1102.79C78.5798 1068.96 95.7598 1030.32 114.5 988.17L336.04 1203.15L221.68 1313.54V1313.53ZM223.83 1314.24L337.48 1204.54L566.44 1426.73L223.83 1314.24ZM338.92 1203.15L512.82 1035.3L512.94 1036.16L568.85 1426.28L338.92 1203.16V1203.15ZM570.81 1425.86L514.92 1035.87L514.6 1033.58L642.64 909.99L834.57 931.88L570.81 1425.86ZM1022.64 1276.94L572.32 1427.28L836.15 933.16C842.78 945.4 885.76 1024.8 928.79 1104.19C952.18 1147.36 975.58 1190.52 993.15 1222.88C1001.94 1239.06 1009.27 1252.55 1014.41 1261.98C1016.98 1266.7 1019.01 1270.41 1020.39 1272.93C1021.62 1275.17 1022.24 1276.3 1022.66 1276.86L1022.61 1276.89C1022.61 1276.89 1022.62 1276.91 1022.63 1276.92L1022.64 1276.94ZM1024.49 1276.18C1024.39 1276.02 1024.3 1275.89 1024.23 1275.78L1024.26 1275.76C1022.09 1272.36 855.06 963.87 838.36 933.03L1312.56 1126.7L1024.49 1276.17V1276.18ZM1315.29 1125.34L1091.22 791.27L1392.56 815.66L1646.54 973.27L1315.29 1125.34Z" fill="#E41D0C"/>
</g>
</g>
</mask>
<g mask="url(#mask0_3_224)">
<ellipse id="Ellipse 5" cx="490.485" cy="609" rx="422" ry="405" fill="url(#paint0_radial_3_224)"/>
<ellipse id="Ellipse 6" cx="1067.48" cy="1256" rx="422" ry="405" fill="url(#paint1_radial_3_224)"/>
<path id="Ellipse 7" d="M1586 1297C1586 1559.34 1340.65 1772 1038 1772C735.348 1772 490 1559.34 490 1297C490 1034.66 735.348 822 1038 822C1340.65 822 1586 1034.66 1586 1297Z" fill="url(#paint2_radial_3_224)"/>
<path id="Ellipse 8" d="M740.689 790.786C904.968 1067.91 764.537 1454.76 427.026 1654.84C89.5159 1854.91 -317.266 1792.45 -481.545 1515.32C-645.825 1238.19 -505.394 851.34 -167.883 651.266C169.627 451.192 576.409 513.657 740.689 790.786Z" fill="url(#paint3_radial_3_224)" fill-opacity="0.7"/>
<path id="Ellipse 9" d="M862.753 482.584C1082.15 856.158 1097.17 1254.62 896.319 1372.58C695.463 1490.54 354.784 1283.33 135.39 909.751C-84.0037 536.177 -99.0317 137.711 101.824 19.7515C302.68 -98.2076 643.359 109.01 862.753 482.584Z" fill="url(#paint4_radial_3_224)" fill-opacity="0.2"/>
<path id="Ellipse 10" d="M422.485 1353C422.485 1540.23 273.172 1692 88.9853 1692C-95.2016 1692 -244.515 1540.23 -244.515 1353C-244.515 1165.78 -95.2016 1014 88.9853 1014C273.172 1014 422.485 1165.78 422.485 1353Z" fill="url(#paint5_radial_3_224)" fill-opacity="0.5"/>
</g>
</g>
</g>
<defs>
<radialGradient id="paint0_radial_3_224" cx="0" cy="0" r="1" gradientUnits="userSpaceOnUse" gradientTransform="translate(490.485 609) rotate(90) scale(405 422)">
<stop stop-color="white"/>
<stop offset="0.34375" stop-color="white" stop-opacity="0.46875"/>
<stop offset="0.619792" stop-color="white" stop-opacity="0"/>
</radialGradient>
<radialGradient id="paint1_radial_3_224" cx="0" cy="0" r="1" gradientUnits="userSpaceOnUse" gradientTransform="translate(1067.48 1256) rotate(90) scale(405 422)">
<stop stop-color="white"/>
<stop offset="0.34375" stop-color="white" stop-opacity="0.46875"/>
<stop offset="0.619792" stop-color="white" stop-opacity="0"/>
</radialGradient>
<radialGradient id="paint2_radial_3_224" cx="0" cy="0" r="1" gradientUnits="userSpaceOnUse" gradientTransform="translate(1086.62 1222.81) rotate(90) scale(475 496.055)">
<stop stop-color="white"/>
<stop offset="0.385417" stop-color="white" stop-opacity="0.46875"/>
<stop offset="0.869792" stop-color="white" stop-opacity="0"/>
</radialGradient>
<radialGradient id="paint3_radial_3_224" cx="0" cy="0" r="1" gradientUnits="userSpaceOnUse" gradientTransform="translate(137.331 1042.54) rotate(59.3408) scale(583.325 643.082)">
<stop stop-color="white"/>
<stop offset="0.385417" stop-color="white" stop-opacity="0.46875"/>
<stop offset="0.869792" stop-color="white" stop-opacity="0"/>
</radialGradient>
<radialGradient id="paint4_radial_3_224" cx="0" cy="0" r="1" gradientUnits="userSpaceOnUse" gradientTransform="translate(469.292 571.573) rotate(59.575) scale(784.439 381.782)">
<stop stop-color="white"/>
<stop offset="0.385417" stop-color="white" stop-opacity="0.46875"/>
<stop offset="0.869792" stop-color="white" stop-opacity="0"/>
</radialGradient>
<radialGradient id="paint5_radial_3_224" cx="0" cy="0" r="1" gradientUnits="userSpaceOnUse" gradientTransform="translate(118.573 1300.05) rotate(90) scale(339 301.888)">
<stop stop-color="white"/>
<stop offset="0.385417" stop-color="white" stop-opacity="0.46875"/>
<stop offset="0.869792" stop-color="white" stop-opacity="0"/>
</radialGradient>
<clipPath id="clip0_3_224">
<rect width="1680" height="1526" fill="white"/>
</clipPath>
</defs>
</svg>
