<?xml version="1.0" encoding="UTF-8"?>
<svg id="Ebene_1" data-name="Ebene 1" xmlns="http://www.w3.org/2000/svg" version="1.1" viewBox="0 0 1600 3460">
  <defs>
    <style>
      .cls-1 {
        fill: #000;
      }

      .cls-1, .cls-2, .cls-3, .cls-4 {
        stroke-width: 0px;
      }

      .cls-2 {
        fill: gray;
      }

      .cls-3 {
        fill: #004af0;
      }

      .cls-5 {
        fill: none;
        stroke: #000;
        stroke-miterlimit: 19;
        stroke-width: 5px;
      }

      .cls-4 {
        fill: #0026e8;
      }
    </style>
  </defs>
  <g>
    <g>
      <path class="cls-1" d="M774.01,2964.94h36.21v133.24h13.41v-133.24h35.41v-11.6h-85.03v11.6ZM880.45,3053.77c0,36.21,17.61,46.82,43.41,46.82,31.81,0,45.62-16.61,45.62-49.41v-97.83h-13.4v99.63c0,25.41-8.01,36.02-31.21,36.02-21.21,0-31.01-8.81-31.01-36.02v-99.63h-13.41v100.43ZM990.49,2953.34l41.4,144.84h18.01l38.61-144.84h-13.4l-34.22,131.44-36.02-131.44h-14.39ZM1246.17,3098.18h14l33.81-64.02,34.81,64.02h15.81l-42.22-74.62,39.21-70.22h-14l-32.61,59.82-32.4-59.82h-15.41l39.21,71.22-40.21,73.62ZM1350.59,2953.34l40.82,88.42v56.42h13.4v-56.02l40.01-88.82h-13.4l-32.61,73.62h-.39l-33.41-73.62h-14.41ZM1455.23,3098.18h83.43v-11.6h-68.82l66.62-123.24v-10h-78.41v11.6h64.02l-66.83,123.64v9.6Z"/>
      <path class="cls-1" d="M261.94,3099.67c36.61,0,55.22-30.81,55.22-78.02,0-40.22-16.41-71.83-52.82-71.83s-56.22,30.62-56.22,74.82,16.61,75.03,53.82,75.03M222.13,3024.64c0-41.81,17.4-63.02,41.81-63.02s39.42,21.41,39.42,62.03c0,45.42-16.01,64.21-40.61,64.21-26.01,0-40.61-21-40.61-63.22M358.97,3097.27v-55.22h19.41c28.8,0,46.21-12.2,46.21-47.01,0-23.01-9.4-42.62-40.4-42.62h-38.42v144.85h13.2ZM377.58,3030.25h-18.61v-66.23h20.41c19.01,0,31.21,6.81,31.21,31.41,0,30.41-14.61,34.82-33.01,34.82"/>
      <path class="cls-1" d="M739.25,2777.7c0,43.21,15.41,73.23,52.01,73.23,17.41,0,32.81-10.6,37.02-22.81l2,20.41h10.01v-75.03h-47.01v11.81h34.4v15c0,18.41-11.2,39.42-34.01,39.42s-40.61-13.41-40.61-63.22c0-40.61,15.8-64.03,42.22-64.03,19.4,0,30.21,9.81,32.41,37.01l12.61-1.19c-2.2-33.81-19.2-47.22-44.41-47.22-34.82,0-56.62,26.42-56.62,76.63M997.94,2848.52h13.41v-144.85h-13.41v144.85ZM1048.35,2817.91l-12.61,2.2c.8,20.41,10.81,30.81,30.21,30.81s32.81-8.21,32.81-37.02v-110.24h-13.4v110.63c0,22.01-8.21,25.22-18.81,25.22-13.8,0-17.01-8.4-18.2-21.61M1133.77,2848.52h13.41v-55.02l14.61-17.6,45.01,72.62h15l-51.21-82.63,48.02-62.22h-14.01l-57.42,73.23v-73.23h-13.41v144.85ZM1244.21,2848.52h68.82v-11.6h-55.41v-133.25h-13.41v144.85Z"/>
      <path class="cls-1" d="M203.73,2845.69h37.01c26.4,0,45.01-9.4,45.01-39.01,0-19.81-9.21-32.81-29.22-36.02v-.4c13.41-3.2,25.01-13.21,25.01-34.01s-7.8-35.41-36.61-35.41h-41.22v144.85ZM239.33,2833.88h-22.2v-56.41h17.41c20,0,37.01,2.79,37.01,28.8,0,24.2-14.01,27.61-32.22,27.61M236.14,2765.87h-19.01v-53.42h16.41c22.8,0,34.2,1.59,34.2,25.2s-18.01,28.22-31.6,28.22M305.36,2773.26c0,45.21,14.59,74.83,52.61,74.83,21.21,0,43.02-10.6,47.41-41.41l-11.8-2.6c-4.2,22.61-15.01,32.21-34.81,32.21-25.21,0-39.41-17.81-39.41-64.02,0-43.62,15.61-62.22,41.81-62.22,20.81,0,30.02,13.2,32.61,36.61l12.61-1.19c-1.21-18.41-6.8-47.22-45.22-47.22-28.8,0-55.81,18.2-55.81,75.03M432.6,2845.69h33.61c43.41,0,63.02-27.41,63.02-74.62,0-43.22-15.81-70.23-60.22-70.23h-36.41v144.85ZM466.8,2834.09h-20.81v-121.64h21.81c31.8,0,47.42,13.8,47.42,61.62,0,39.81-15.62,60.02-48.43,60.02M557.84,2845.69h71.62v-11.6h-58.23v-56.02h52.82v-11.81h-52.82v-53.82h56.43v-11.61h-69.82v144.85ZM656.86,2845.69h13.41v-65.02h52.21v-11.81h-52.21v-56.41h56.41v-11.61h-69.82v144.85Z"/>
      <path class="cls-3" d="M696.14,2987.54c0-15.22,7.21-26.84,26.45-26.84,21.02,0,26.04,16.22,28.23,30.24l12.42-1.6c-2.6-29.44-17.83-40.26-40.45-40.26s-40.46,15.02-40.46,38.46l.05,4.15,67.84,68.16c0,22.43-14.82,28.04-29.84,28.04-21.43,0-27.85-14.83-30.84-31.05l-13.02,2c3.4,26.25,17.62,40.26,43.87,40.26,22.23,0,43.66-10.42,43.66-41.06l-.17-2.38-67.73-68.12Z"/>
    </g>
    <polygon class="cls-3" points="164.68 3006.64 100.8 2952.36 100.8 2952.49 86.86 2952.49 86.86 3097.37 100.8 3097.37 100.8 2969.97 164.68 3024.25 164.68 3097.37 178.62 3097.37 178.62 2952.49 164.68 2952.49 164.68 3006.64"/>
    <g>
      <path class="cls-1" d="M494.02,3099.67c12.4,0,22.8-3.8,31.01-10.21l14.61,20,8.8-7.59-15.61-20.41c10.8-13.61,16.21-34.01,16.21-59.82,0-39.61-16.21-71.83-52.62-71.83s-56.43,31.42-56.43,74.83,17.01,75.03,54.02,75.03M454.01,3024.65c0-40.21,16.4-63.02,41.81-63.02s39.42,22.01,39.42,62.02c0,21.81-3.6,37.82-10.61,48.41l-21.61-29.41-8.8,7.41,23.01,30.41c-6.2,5.2-14.41,7.4-22.41,7.4-25.2,0-40.81-19.4-40.81-63.22"/>
      <path class="cls-1" d="M116.63,3356.93c33.81,0,40.62-33.41,40.62-77.02,0-39.42-5.6-72.83-38.41-72.83s-41.02,35.01-41.02,77.62c0,38.42,6.01,72.23,38.81,72.23M91.42,3283.31c0-41.22,5.8-64.42,26.61-64.42s25.41,21.6,25.41,62.41-4.6,64.43-26.01,64.43c-19.61,0-26-20.81-26-62.42M174.45,3226.49l1.2,10.4c5.6,0,20-2.8,25.81-7v124.64h13.41v-144.85h-7.21c-7.6,10.61-17.41,15.21-33.21,16.81M247.27,3242.09l12.01,2.4c2-14.41,5.4-26,23.01-26,12.4,0,21,7.2,21,24.8,0,20.01-6.81,32.22-24.6,57.62l-30.01,42.82v10.8h69.22v-11.4h-55.22v-.2l27.41-38.42c16.4-23,26-39.21,26-62.02,0-25.01-13.8-35.41-33.01-35.41-26.41,0-33.61,16.4-35.81,35.01M348.9,3322.52l-12.81,2.4c2.21,22.61,16.01,32.01,35.02,32.01,23.41,0,38.21-17.6,38.21-43.02,0-23-10.81-34.2-26.61-37.21v-.4c13.41-3.61,24.61-15.81,24.61-35.41,0-22.4-13.01-33.82-33.22-33.82-17.41,0-30.81,7.8-34.81,30.62l12.2,2.79c2.2-10,6-21.8,22.21-21.8s20.2,10,20.2,24.01c0,17.21-11.2,29.2-28.41,29.2h-7.81v11.61h8c19.21,0,29.81,7.41,29.81,30.41s-11.2,31.42-24.21,31.42c-17.61,0-20.41-10.01-22.41-22.81M483.14,3354.53h12.61v-37.41h14.41v-11.2h-14.41v-96.24h-17.01l-52.62,97.84v9.6h57.02v37.41ZM439.73,3305.92l43.41-82.63v82.63h-43.41ZM534.35,3321.52l-11.99,3.2c3.6,22.61,17.2,32.21,35.2,32.21,26.02,0,40.82-21.21,40.82-49.21,0-35.61-17.01-45.01-33.61-45.01-10.61,0-19.61,4.8-24.41,9.4l4-50.82h46.62v-11.61h-57.42l-5,72.23,9.8,4.4c6.41-7.4,13.61-12.4,24.61-12.4,14.2,0,21.8,11.2,21.8,34.01,0,27.81-13.6,37.42-26.2,37.42-16.4,0-22.21-12-24.22-23.81M682,3240.49l12.41-3.2c-3.01-21.4-14-30.21-30.01-30.21-33.41,0-44.21,38.61-44.21,80.23,0,37.21,6.59,69.62,38.21,69.62,24.81,0,37.41-20.61,37.41-48.82,0-23.41-10.2-41.61-32.01-41.61-13.4,0-23.8,8.21-30.41,17.4.41-28.41,6.2-65.41,30.21-65.41,9.8,0,16.4,5.4,18.4,22M633.8,3296.71c5.2-7.6,15-18.81,28.61-18.81s20.2,11.01,20.2,31.61c0,25.2-10.4,36.01-23.61,36.01-21.21,0-24.81-26.41-25.2-48.82M709.82,3221.29h62.42l-50.62,133.24h13.61l50.62-134.85v-10.01h-76.02v11.61ZM845.66,3279.5c15-8.6,25.61-21.61,25.61-39.41s-10.01-33.02-34.41-33.02-36.81,15.01-36.81,36.42c0,18.2,10.6,30.8,23.61,37.01-19.6,9.4-27.61,22.4-27.61,40.22,0,20.2,11.41,36.21,37.82,36.21,24.2,0,39.61-15.8,39.61-38.21s-13.81-32.22-27.81-39.22M834.26,3285.91c14.8,6.8,25.81,14.61,25.81,32.6,0,13.01-7.21,27.01-25.42,27.01s-25.2-11.01-25.2-25.61c0-13.61,5.4-24.41,24.81-34.01M813.25,3242.49c0-9,3.61-24.8,23.21-24.8,14.21,0,21.61,8.6,21.61,22.6,0,14.81-9.6,26.41-22.61,34.61-11.4-5.4-22.21-15.8-22.21-32.42M901.48,3323.52l-12.21,3.21c2.81,21.61,16.01,30.21,33.41,30.21,35.41,0,42.62-34.8,42.62-80.23,0-48.61-12.61-69.62-38.22-69.62s-37.41,21.41-37.41,49.82,12.01,42.41,32.01,42.41c13.81,0,25.21-8.6,30.41-17.21-.2,39.62-6,63.23-28.8,63.23-10.81,0-19.01-5-21.8-21.81M902.88,3255.1c0-25.81,10.4-36.61,23.81-36.61s24.6,11.4,25.01,50.61c-6.8,10.21-16.21,18.81-28.41,18.81-18.01,0-20.41-18.4-20.41-32.81"/>
    </g>
    <polygon class="cls-3" points="1423.13 2702.97 1389.4 2757.53 1354.38 2702.97 1335.68 2702.97 1335.68 2847.53 1346.89 2847.53 1346.89 2715.21 1385.36 2776.36 1393.26 2776.36 1430.22 2715.42 1430.22 2847.53 1442.03 2847.53 1442.03 2702.97 1423.13 2702.97"/>
    <polygon class="cls-3" points="1203.82 3081.92 1176.76 3010.27 1163.44 3010.6 1135.75 3081.92 1114.99 2953.34 1101.72 2953.34 1127.29 3097.88 1143.64 3097.88 1169.98 3029.35 1195.55 3097.88 1212.86 3097.88 1237.08 2953.34 1224.59 2953.34 1203.82 3081.92"/>
    <path class="cls-3" d="M641.32,3049.73l-7.58-17.42-4.41-10.11,25.79-14.96.51-2.07c.92-4.07,1.4-8.59,1.43-13.56v-.41c0-19.66-7.21-39.71-36.63-39.71h-42.27v148.19h12.86v-56.3l.03-.02,13.28-7.33,14.06-7.77,3.38,7.77,3.3,7.58,24.21,56.07h14.03l-21.98-49.95ZM591.01,2963.35h23.18c18.31,0,29.23,5.11,29.23,28.05,0,2.87-.15,5.51-.43,7.93l-44.54,24.6-7.41,4.1v-4.1h-.03v-60.59Z"/>
    <polygon class="cls-3" points="948.56 2753.07 884.98 2774.37 884.98 2700.55 871.1 2700.55 871.1 2849.95 884.98 2849.95 884.98 2790.84 948.56 2769.55 948.56 2849.95 962.44 2849.95 962.44 2700.55 948.56 2700.55 948.56 2753.07"/>
    <path class="cls-3" d="M179.61,2846.43h-15.17l-12.74-52.4-51.2,17.67-9.86,34.72h-13.55l41.86-148.19h18.2l42.46,148.19ZM148.27,2781.95l-20.22-72.45h-.21l-22.95,86.88,43.38-14.43Z"/>
  </g>
  <g>
    <g>
      <path class="cls-1" d="M177.47,1742.37h-15.11l-12.69-46.93h-48.34l-12.49,46.93h-13.5l41.7-145.83h18.13l42.3,145.83ZM146.25,1683.56l-20.14-75.94h-.2l-20.95,75.94h41.29Z"/>
      <path class="cls-1" d="M200.03,1596.54h41.49c29,0,36.86,15.71,36.86,35.65,0,20.95-11.68,31.02-25.18,34.24v.4c20.14,3.22,29.41,16.32,29.41,36.26,0,29.81-18.73,39.28-45.32,39.28h-37.26v-145.83ZM264.49,1633.6c0-23.77-11.48-25.38-34.44-25.38h-16.52v53.78h19.14c13.7,0,31.83-5.24,31.83-28.4ZM268.32,1702.69c0-26.18-17.12-29-37.26-29h-17.52v56.8h22.36c18.33,0,32.43-3.42,32.43-27.8Z"/>
      <path class="cls-1" d="M355.54,1593.92c38.67,0,44.31,29.01,45.52,47.54l-12.69,1.21c-2.62-23.57-11.88-36.86-32.83-36.86-26.39,0-42.1,18.73-42.1,62.64,0,46.53,14.3,64.46,39.68,64.46,19.94,0,30.82-9.67,35.05-32.43l11.88,2.62c-4.43,31.02-26.39,41.7-47.74,41.7-38.27,0-52.97-29.81-52.97-75.33,0-57.2,27.19-75.54,56.2-75.54Z"/>
      <path class="cls-1" d="M424.43,1596.54h36.66c44.72,0,60.63,27.19,60.63,70.7,0,47.54-19.74,75.13-63.45,75.13h-33.84v-145.83ZM507.62,1670.26c0-48.14-15.71-62.04-47.74-62.04h-21.96v122.47h20.95c33.03,0,48.74-20.34,48.74-60.43Z"/>
      <path class="cls-1" d="M547.51,1596.54h70.3v11.68h-56.8v54.18h53.18v11.88h-53.18v56.4h58.62v11.68h-72.11v-145.83Z"/>
      <path class="cls-1" d="M644.2,1596.54h70.3v11.68h-56.8v56.8h52.57v11.88h-52.57v65.46h-13.5v-145.83Z"/>
      <path class="cls-1" d="M785.4,1593.92c25.38,0,42.5,13.5,44.72,47.54l-12.69,1.21c-2.22-27.39-13.09-37.26-32.63-37.26-26.59,0-42.5,23.57-42.5,64.46,0,50.15,17.93,63.65,40.89,63.65s34.24-21.15,34.24-39.68v-15.11h-34.64v-11.88h47.34v75.54h-10.07l-2.01-20.54c-4.23,12.29-19.74,22.96-37.26,22.96-36.86,0-52.37-30.21-52.37-73.72,0-50.56,21.96-77.15,57-77.15Z"/>
      <path class="cls-1" d="M860.13,1596.54h13.5v65.06h61.84v-65.06h13.5v145.83h-13.5v-68.89h-61.84v68.89h-13.5v-145.83Z"/>
      <path class="cls-1" d="M982.81,1596.54h13.5v145.83h-13.5v-145.83Z"/>
      <path class="cls-1" d="M1048.88,1733.31c10.68,0,18.94-3.22,18.94-25.38v-111.39h13.49v110.99c0,29.01-12.89,37.26-33.03,37.26s-29.61-10.47-30.42-31.02l12.69-2.22c1.21,13.29,4.43,21.75,18.33,21.75Z"/>
      <path class="cls-1" d="M1113.54,1596.54h13.5v73.72l57.81-73.72h14.1l-48.34,62.64,51.57,83.19h-15.11l-45.32-73.12-14.7,17.73v55.39h-13.5v-145.83Z"/>
      <path class="cls-1" d="M1221.71,1596.54h13.5v134.15h55.8v11.68h-69.29v-145.83Z"/>
      <path class="cls-1" d="M1314.57,1596.54h20.14l39.68,132.34,38.27-132.34h20.34v145.83h-12.69v-131.33l-37.87,131.33h-16.32l-39.48-131.53v131.53h-12.09v-145.83Z"/>
    </g>
    <g>
      <path class="cls-1" d="M86.63,1851.76h18.93l60.63,128.71v-128.71h12.49v145.83h-17.12l-62.44-130.53v130.53h-12.49v-145.83Z"/>
      <path class="cls-1" d="M204.47,1924.48c0-44.52,19.74-75.33,56.6-75.33s53.18,31.83,53.18,72.31c0,47.54-18.73,78.55-55.59,78.55s-54.18-30.82-54.18-75.53ZM259.46,1988.13c24.78,0,40.89-18.94,40.89-64.66,0-40.89-15.51-62.44-39.68-62.44s-42.1,21.35-42.1,63.45,14.7,63.65,40.89,63.65Z"/>
    </g>
  </g>
  <g>
    <path class="cls-1" d="M341.65,1997.6v-145.83h38.67c31.22,0,40.69,19.74,40.69,42.9,0,35.05-17.52,47.34-46.53,47.34h-19.54v55.59h-13.29ZM406.91,1895.07c0-24.77-12.29-31.62-31.42-31.62h-20.54v66.67h18.73c18.53,0,33.24-4.43,33.24-35.05Z"/>
    <path class="cls-1" d="M437.53,1924.48c0-43.71,18.93-75.33,56.8-75.33s52.98,32.43,52.98,72.31c0,25.98-5.44,46.53-16.32,60.23l15.71,20.54-8.86,7.66-14.7-20.14c-8.26,6.45-18.73,10.27-31.22,10.27-37.26,0-54.39-30.41-54.39-75.53ZM492.72,1988.13c8.06,0,16.32-2.22,22.56-7.45l-23.16-30.62,8.86-7.45,21.75,29.61c7.05-10.68,10.68-26.79,10.68-48.75,0-40.28-15.31-62.44-39.68-62.44-25.58,0-42.1,22.96-42.1,63.45,0,44.11,15.71,63.65,41.09,63.65Z"/>
  </g>
  <g>
    <path class="cls-1" d="M645.01,1997.6l-28.4-62.64h-31.83v62.64h-13.29v-145.83h43.71c30.42,0,37.87,19.74,37.87,39.08,0,21.95-9.67,35.05-24.17,40.49l30.62,66.27h-14.5ZM638.97,1891.04c0-22.56-11.28-27.6-30.21-27.6h-23.97v59.62h25.98c16.72,0,28.2-7.25,28.2-32.03Z"/>
    <path class="cls-1" d="M712.89,1988.73c15.11,0,30.01-5.64,30.01-28.2,0-42.9-68.28-19.14-68.28-72.72,0-23.57,17.12-38.67,40.69-38.67s38.07,10.88,40.69,40.49l-12.49,1.61c-2.22-14.1-7.25-30.42-28.4-30.42-19.34,0-26.59,11.68-26.59,26.99,0,40.89,68.28,18.73,68.28,70.9,0,30.82-21.55,41.29-43.91,41.29-26.39,0-40.69-14.1-44.11-40.49l13.09-2.01c3.02,16.32,9.47,31.22,31.02,31.22Z"/>
  </g>
  <g>
    <path class="cls-1" d="M766.28,1851.76h85.61v11.68h-35.65v134.15h-13.5v-134.15h-36.46v-11.68Z"/>
    <path class="cls-1" d="M870.42,1851.76h13.49v100.31c0,27.39,9.87,36.26,31.22,36.26,23.37,0,31.42-10.68,31.42-36.26v-100.31h13.5v98.5c0,33.03-13.9,49.75-45.93,49.75-25.98,0-43.71-10.68-43.71-47.13v-101.11Z"/>
    <path class="cls-1" d="M992.69,1851.76l36.26,132.34,34.44-132.34h13.5l-38.88,145.83h-18.13l-41.7-145.83h14.5Z"/>
    <path class="cls-1" d="M1095.82,1851.76l21.75,129.72,28-129.72h16.11l27.19,129.72,21.75-129.72h13.09l-25.38,145.83h-18.13l-26.79-128.91-27.6,128.91h-17.12l-26.79-145.83h13.9Z"/>
    <path class="cls-1" d="M1270.07,1923.47l-39.48-71.71h15.51l32.63,60.23,32.83-60.23h14.1l-39.48,70.7,42.5,75.13h-15.91l-35.05-64.46-34.04,64.46h-14.1l40.49-74.13Z"/>
    <path class="cls-1" d="M1346.21,1851.76l33.64,74.13h.4l32.83-74.13h13.5l-40.29,89.43v56.4h-13.49v-56.8l-41.09-89.03h14.5Z"/>
  </g>
  <path class="cls-1" d="M1439.89,1987.93l67.28-124.48h-64.46v-11.68h78.96v10.07l-67.08,124.08h69.29v11.68h-83.99v-9.67Z"/>
  <g>
    <g>
      <path class="cls-1" d="M74.94,2182.52c0-42.9,6.85-78.15,41.29-78.15s38.67,33.64,38.67,73.32c0,43.91-6.85,77.55-40.89,77.55s-39.08-34.04-39.08-72.71ZM114.83,2243.95c21.55,0,26.19-25.58,26.19-64.86s-4.63-62.84-25.58-62.84-26.79,23.36-26.79,64.86,6.45,62.84,26.19,62.84Z"/>
      <path class="cls-1" d="M202.65,2106.98h7.25v145.83h-13.5v-125.49c-5.84,4.23-20.34,7.05-25.98,7.05l-1.21-10.48c15.91-1.61,25.78-6.24,33.44-16.92Z"/>
      <path class="cls-1" d="M275.57,2104.36c19.34,0,33.24,10.48,33.24,35.65,0,22.96-9.67,39.28-26.19,62.44l-27.6,38.67v.2h55.59v11.48h-69.69v-10.88l30.21-43.11c17.93-25.58,24.78-37.87,24.78-58.01,0-17.73-8.66-24.98-21.15-24.98-17.73,0-21.15,11.68-23.16,26.19l-12.09-2.42c2.22-18.73,9.47-35.25,36.06-35.25Z"/>
      <path class="cls-1" d="M361.38,2243.55c13.09,0,24.37-9.06,24.37-31.62s-10.68-30.62-30.01-30.62h-8.06v-11.68h7.86c17.32,0,28.6-12.09,28.6-29.41,0-14.1-4.83-24.17-20.34-24.17-16.32,0-20.14,11.88-22.36,21.96l-12.29-2.82c4.03-22.96,17.52-30.82,35.05-30.82,20.34,0,33.44,11.48,33.44,34.04,0,19.74-11.28,32.03-24.77,35.65v.4c15.91,3.02,26.79,14.3,26.79,37.46,0,25.58-14.91,43.31-38.47,43.31-19.14,0-33.03-9.47-35.25-32.23l12.89-2.42c2.01,12.89,4.83,22.96,22.56,22.96Z"/>
      <path class="cls-1" d="M471.17,2215.15h-57.41v-9.67l52.98-98.5h17.12v96.89h14.5v11.28h-14.5v37.67h-12.69v-37.67ZM471.17,2203.87v-83.19l-43.71,83.19h43.71Z"/>
      <path class="cls-1" d="M544.08,2243.55c12.69,0,26.39-9.67,26.39-37.67,0-22.96-7.65-34.24-21.96-34.24-11.08,0-18.33,5.04-24.77,12.49l-9.87-4.43,5.03-72.72h57.81v11.68h-46.93l-4.03,51.16c4.83-4.63,13.9-9.47,24.57-9.47,16.72,0,33.84,9.47,33.84,45.32,0,28.2-14.91,49.55-41.09,49.55-18.13,0-31.83-9.67-35.45-32.43l12.09-3.22c2.01,11.88,7.86,23.97,24.37,23.97Z"/>
    </g>
    <g>
      <path class="cls-1" d="M641.18,2115.85c-24.17,0-30.01,37.26-30.42,65.87,6.65-9.27,17.12-17.52,30.62-17.52,21.96,0,32.23,18.33,32.23,41.9,0,28.4-12.69,49.15-37.67,49.15-31.83,0-38.47-32.63-38.47-70.09,0-41.9,10.88-80.77,44.51-80.77,16.11,0,27.19,8.86,30.21,30.41l-12.49,3.22c-2.01-16.72-8.66-22.16-18.53-22.16ZM636.55,2243.75c13.29,0,23.77-10.88,23.77-36.26,0-20.75-6.85-31.83-20.34-31.83s-23.57,11.28-28.8,18.94c.4,22.56,4.03,49.15,25.38,49.15Z"/>
      <path class="cls-1" d="M687.92,2106.98h76.54v10.07l-50.96,135.76h-13.7l50.96-134.15h-62.85v-11.68Z"/>
      <path class="cls-1" d="M852.49,2216.76c0,22.56-15.51,38.47-39.88,38.47-26.59,0-38.07-16.11-38.07-36.46,0-17.93,8.06-31.02,27.8-40.49-13.09-6.24-23.77-18.93-23.77-37.26,0-21.55,13.7-36.66,37.06-36.66,24.57,0,34.65,14.7,34.65,33.24s-10.68,31.02-25.78,39.68c14.1,7.05,28,15.91,28,39.48ZM788.03,2217.97c0,14.7,7.05,25.78,25.38,25.78s25.58-14.1,25.58-27.19c0-18.13-11.08-25.98-25.98-32.83-19.54,9.67-24.98,20.54-24.98,34.24ZM814.21,2172.65c13.09-8.26,22.76-19.94,22.76-34.85,0-14.1-7.45-22.76-21.75-22.76-19.74,0-23.37,15.91-23.37,24.98,0,16.72,10.88,27.19,22.36,32.63Z"/>
      <path class="cls-1" d="M901.23,2243.55c22.96,0,28.8-23.77,29.01-63.65-5.24,8.66-16.72,17.32-30.62,17.32-20.14,0-32.23-15.51-32.23-42.7,0-28.6,11.88-50.16,37.67-50.16s38.47,21.15,38.47,70.1c0,45.72-7.25,80.77-42.9,80.77-17.52,0-30.82-8.66-33.64-30.41l12.29-3.22c2.82,16.92,11.08,21.95,21.96,21.95ZM901.23,2185.74c12.29,0,21.75-8.66,28.6-18.93-.4-39.48-11.08-50.96-25.18-50.96s-23.97,10.88-23.97,36.86c0,14.5,2.42,33.03,20.54,33.03Z"/>
    </g>
  </g>
  <g>
    <path class="cls-2" d="M689.08,759.44h-1.35v251.25h22.86v-.11h-21.52v-251.14ZM771.36,759.75c41.11,4.52,51.58,35.95,51.58,66.81v.7c-.05,8.42-.88,16.11-2.43,23.01-.24,1.2-.54,2.36-.87,3.51l-29.01,16.83c-4.09,4.09-9.01,6.95-14.62,8.81l7.37,16.88,12.87,29.57,37.28,84.72h-23.8l-14.31-33.15,13.34,33.26h24.97l-47.07-114.18c24.99-9.35,41.61-31.91,41.61-69.75,0-31.5-11.44-63.57-56.9-67.01M750.22,779.33h-39.32v.2h41.02c3.62,0,7.07.1,10.35.35-3.77-.38-7.79-.54-12.06-.54M723.16,882.31h-12.2v6.75l12.2-6.75ZM757.33,889.43l-23.85,13.17-.28.15h29.93l-.06-.15-5.73-13.17Z"/>
    <path class="cls-5" d="M485.32,839.94l47.6,45.14-47.6,45.11M427.39,885.07h105.52M1090.98,839.94l47.6,45.14-47.6,45.11M1033.05,885.07h105.52"/>
    <g>
      <g>
        <path class="cls-3" d="M771.36,759.75c-3.31-.37-6.83-.55-10.55-.55h-71.73v.25h73.95c2.89,0,5.67.1,8.33.31Z"/>
        <path class="cls-3" d="M796.24,925.86l-12.87-29.57-7.37-16.88c-6.12,2.04-13.06,2.9-20.61,2.9h-32.24l-12.2,6.74v-6.74h-.35s.35,0,.35,0v-.21h-.05v-102.57h0v-.2h39.32c4.26,0,8.29.16,12.06.55,0,0,0,0,0,0,23.73,2.4,37.53,13.46,37.53,47.04,0,4.87-.24,9.35-.73,13.46l-75.56,41.73-.37.21h32.24c7.55,0,14.49-.86,20.61-2.9l-.11-.26,14.73-8.54c8.48-8.47,13.38-22.25,13.38-43.51h0c0,21.26-4.9,35.03-13.38,43.51l29.01-16.83c.32-1.15.62-2.31.86-3.51,1.55-6.9,2.38-14.59,2.43-23.01v-.7c0-30.85-10.46-62.29-51.57-66.8-2.66-.2-5.44-.31-8.33-.31h-73.95v251.14h21.52s.3,0,.3,0v-95.51l.05-.02,22.24-12.3h0l.28-.15,23.85-13.17,5.73,13.17.06.15h0l5.54,12.71,26.74,61.96h0s14.31,33.15,14.31,33.15h23.8l-37.28-84.72Z"/>
      </g>
      <path class="cls-3" d="M1428.64,925.86l-12.87-29.57-7.48-17.15,43.74-25.37c.32-1.15.62-2.31.86-3.52,1.55-6.9,2.38-14.58,2.43-23.01v-.69c0-33.35-12.22-67.36-62.13-67.36h-71.73v251.39h21.81v-95.51l.05-.02,22.52-12.46,23.86-13.17,5.73,13.17,5.61,12.87,41.06,95.12h23.8l-37.28-84.72ZM1343.29,779.33h39.32c31.07,0,49.59,8.67,49.59,47.58,0,4.87-.24,9.35-.73,13.46l-75.56,41.73-12.58,6.95v-6.95h-.05v-102.77Z"/>
      <path class="cls-1" d="M227.38,1011.48l-48.61-107.21h-54.47v107.21h-22.75v-249.59h74.81c52.06,0,64.81,33.78,64.81,66.88,0,37.58-16.55,59.98-41.37,69.29l52.4,113.42h-24.82ZM217.04,829.11c0-38.61-19.31-47.23-51.71-47.23h-41.02v102.04h44.47c28.61,0,48.26-12.41,48.26-54.81Z"/>
    </g>
  </g>
  <path class="cls-2" d="M790.45,290.21h21.04l19.12,82.17,25.88.21-.06-.21h-24.9l-21.61-88.89-19.47,6.72ZM735.14,269.92l-4.64,17.57,53.18-17.7-48.54.13ZM769.45,140.1l-.37,1.4,27.45,94.43-26.74-95.83h-.34ZM753.1,121l-70.54,251.59,21.1-.17v-.04s-20.32,0-20.32,0l71.01-251.38h-1.25Z"/>
  <path class="cls-5" d="M494.31,203.03l47.6,45.14-47.6,45.11M436.38,248.16h105.52M1099.97,203.03l47.6,45.14-47.6,45.11M1042.04,248.16h105.52"/>
  <path class="cls-3" d="M726.23,290.21l-22.56,82.17h2.65l16.73-58.9,67.4-23.27h-64.23ZM804.09,263l-20.4,6.79,22.67-.06-9.83-33.8,7.56,27.07ZM768.27,139.91l-33.8,130h.67l33.93-128.42-.46-1.58h-.34ZM784.12,121l72.32,251.38h.83l-72.04-251.38h-1.1Z"/>
  <path class="cls-4" d="M768.27,139.91h.34l.46,1.58.37-1.4h.34l26.74,95.83,9.83,33.8-22.67.06-53.18,17.7,4.64-17.57h-.67l33.8-130ZM754.35,121l-71.01,251.38h20.33l22.56-82.17h64.23l19.47-6.72,21.61,88.89h24.9l-72.32-251.38h-29.77Z"/>
  <path class="cls-3" d="M1401.84,140.1h.34l34.3,122.9-73.58,24.49,38.94-147.39ZM1386.75,121l-71.01,251.38h22.98l16.74-58.9,86.86-29.99,21.62,88.89h25.72l-72.04-251.38h-30.87Z"/>
  <path class="cls-1" d="M266.03,373.97h-25.86l-21.72-80.32h-82.73l-21.37,80.32h-23.1l71.36-249.59h31.03l72.39,249.59ZM212.6,273.3l-34.47-129.96h-.34l-35.85,129.96h70.67Z"/>
  <g>
    <polyline class="cls-5" points="859.63 2457.52 814.49 2505.12 769.38 2457.52"/>
    <line class="cls-5" x1="814.5" y1="2399.59" x2="814.5" y2="2505.12"/>
  </g>
</svg>