<svg width="406" height="511" viewBox="0 0 406 511" fill="none" xmlns="http://www.w3.org/2000/svg">
<path d="M16.9992 109.6C20.1992 126.2 27.9992 141.6 48.1992 141.6C63.9992 141.6 79.3992 135.8 79.3992 107.6C79.3992 100.4 78.3992 91.5996 76.1992 88.1996C74.7992 87.1996 72.9992 86.1996 68.1992 84.3996L23.1992 67.7996C20.1992 66.5996 18.9992 65.7996 18.1992 65.1996C13.7992 58.1996 11.3992 48.9996 11.3992 39.1996C11.3992 15.5996 27.1992 0.599609 50.1992 0.599609C72.7992 0.599609 86.3992 11.7996 89.3992 40.3996L79.7992 41.5996C77.1992 27.3996 72.5992 9.79961 49.9992 9.79961C29.1992 9.79961 21.9992 22.1996 21.9992 38.9996C21.9992 45.5996 22.9992 52.5996 25.3992 57.1996C27.1992 58.3996 29.7992 59.1996 31.5992 59.9996L74.5992 76.3996C81.7992 79.1996 83.9992 80.3996 85.5992 81.5996C87.9992 85.1996 90.1992 95.7996 90.1992 106.4C90.1992 140.4 69.3992 150.4 48.3992 150.4C22.5992 150.4 10.7992 135 6.99922 111.2L16.9992 109.6ZM120.604 148V3.19961H130.604V78.7996L190.404 3.19961H201.004L152.004 65.7996L205.004 148H194.204L145.804 72.9996L130.604 91.1996V148H120.604ZM229.877 148V3.19961H239.877V148H229.877ZM60.1992 183.2H69.3992L107.399 318.6L129.999 183.2H139.599L114.799 328H100.999L71.5992 224.8L39.5992 328H27.7992L0.199219 183.2H10.5992L34.1992 317L67.3992 209.8L60.1992 183.2ZM162.596 328V183.2H230.196V192H172.596V249.6H226.396V258.8H172.596V319.2H231.596V328H162.596ZM261.322 328V183.2H271.322V319.4H327.322V328H261.322ZM360.151 328V191.8H323.951V183.2H405.351V191.8H370.151V328H360.151ZM59.7992 510.4C22.1992 510.4 8.39922 480.6 8.39922 435.4C8.39922 376.8 36.3992 360.6 62.9992 360.6C102.999 360.6 105.599 391.4 107.199 407L97.5992 407.8C94.5992 383.6 85.1992 369.8 62.9992 369.8C35.1992 369.8 18.7992 389.4 18.7992 434.6C18.7992 482.8 33.9992 501.2 60.5992 501.2C81.1992 501.2 92.7992 491.8 97.3992 467.8L106.199 470C101.399 499.8 80.7992 510.4 59.7992 510.4ZM177.238 510.4C153.238 510.4 135.238 500.6 135.238 464.4V363.2H145.238V464.6C145.238 493.2 156.438 501.6 178.238 501.6C202.838 501.6 211.638 490.8 211.638 464.6V363.2H221.638V461.6C221.638 493.8 209.238 510.4 177.238 510.4ZM270.341 508H260.541V363.2H297.941C327.941 363.2 336.941 382.8 336.941 404C336.941 418.6 333.941 429.2 329.141 435.8C319.541 440.8 313.741 443 308.341 445L270.341 459.6V508ZM301.741 438.2C311.141 434.6 316.941 432.2 321.541 429.2C324.941 424 326.341 416.4 326.341 404C326.341 379.8 313.341 372.4 293.141 372.4H270.341V450L301.741 438.2Z" fill="#004AF0"/>
</svg>
