<svg width="910" height="391" viewBox="0 0 910 391" fill="none" xmlns="http://www.w3.org/2000/svg">
<path d="M46.2492 112.799C17.2992 112.799 6.04922 90.1492 6.04922 57.7492C6.04922 19.7992 22.3992 0.449219 47.5992 0.449219C65.8992 0.449219 78.4992 10.3492 80.1492 35.3992L72.9492 36.1492C70.9992 13.9492 62.1492 6.89923 47.1492 6.89923C26.5992 6.89923 13.6992 24.7492 13.6992 57.1492C13.6992 96.7492 28.3992 106.499 47.4492 106.499C56.7492 106.499 66.4992 103.799 73.0992 99.8992V62.2492H44.8992V54.7492H79.9992V102.899C70.2492 109.499 58.9992 112.799 46.2492 112.799ZM137.805 112.799C119.805 112.799 106.305 105.449 106.305 78.2992V2.39922H113.805V78.4492C113.805 99.8992 122.205 106.199 138.555 106.199C157.005 106.199 163.605 98.0992 163.605 78.4492V2.39922H171.105V76.1992C171.105 100.349 161.805 112.799 137.805 112.799ZM200.283 110.999V2.39922H232.083C253.833 2.39922 259.083 17.0992 259.083 30.4492C259.083 38.9992 256.533 46.9492 253.833 51.4492C250.683 53.5492 245.583 55.6492 242.583 56.8492L238.683 58.4992L264.033 110.999H255.933L231.633 61.1992L207.633 70.4992V110.999H200.283ZM240.033 50.8492C243.783 49.3492 245.883 48.2992 247.833 46.7992C249.783 42.5992 251.133 37.7992 251.133 30.4492C251.133 13.3492 242.133 9.29923 227.283 9.29923H207.633V63.1492L240.033 50.8492ZM317.895 112.799C288.945 112.799 277.695 90.1492 277.695 57.7492C277.695 19.7992 294.045 0.449219 319.245 0.449219C337.545 0.449219 350.145 10.3492 351.795 35.3992L344.595 36.1492C342.645 13.9492 333.795 6.89923 318.795 6.89923C298.245 6.89923 285.345 24.7492 285.345 57.1492C285.345 96.7492 300.045 106.499 319.095 106.499C328.395 106.499 338.145 103.799 344.745 99.8992V62.2492H316.545V54.7492H351.645V102.899C341.895 109.499 330.645 112.799 317.895 112.799ZM378.402 110.999V2.39922H385.902V104.549H427.902V110.999H378.402ZM444.42 110.999V96.1492H454.02V110.999H444.42ZM109.679 249.999V141.399H135.629C168.629 141.399 180.629 161.649 180.629 194.049C180.629 229.899 165.779 249.999 133.529 249.999H109.679ZM134.429 243.099C160.079 243.099 172.829 227.499 172.829 196.449C172.829 158.949 160.079 148.299 135.029 148.299H117.179V243.099H134.429ZM203.939 249.999V141.399H211.439V249.999H203.939ZM249.32 215.949L284.72 203.949L268.97 146.199L249.32 215.949ZM274.37 141.399L305.57 249.999H297.02L286.22 210.099L247.37 223.299L239.87 249.999H232.52L263.87 141.399H274.37ZM330.883 249.999H324.133L330.733 141.399H338.083L370.333 224.649L403.033 141.399H410.233L417.133 249.999H409.933L403.933 156.699L373.783 233.349L380.533 249.999H372.883L336.583 156.249L330.883 249.999ZM475.194 251.799C446.994 251.799 435.594 227.799 435.594 195.399C435.594 162.099 449.994 139.449 476.844 139.449C503.694 139.449 515.844 162.999 515.844 193.149C515.844 229.599 501.144 251.799 475.194 251.799ZM475.794 244.899C494.994 244.899 508.044 230.799 508.044 194.649C508.044 162.999 495.744 146.349 476.694 146.349C457.494 146.349 443.394 162.999 443.394 195.549C443.394 228.399 454.944 244.899 475.794 244.899ZM539.083 249.999V141.399H546.133L598.483 199.449V141.399H605.533V249.999H598.483V209.949L546.133 151.899V249.999H539.083ZM635.247 249.999V141.399H661.197C694.197 141.399 706.197 161.649 706.197 194.049C706.197 229.899 691.347 249.999 659.097 249.999H635.247ZM659.997 243.099C685.647 243.099 698.397 227.499 698.397 196.449C698.397 158.949 685.647 148.299 660.597 148.299H642.747V243.099H659.997ZM795.251 251.799C767.051 251.799 755.651 227.799 755.651 195.399C755.651 162.099 770.051 139.449 796.901 139.449C823.751 139.449 835.901 162.999 835.901 193.149C835.901 229.599 821.201 251.799 795.251 251.799ZM795.851 244.899C815.051 244.899 828.101 230.799 828.101 194.649C828.101 162.999 815.801 146.349 796.751 146.349C777.551 146.349 763.451 162.999 763.451 195.549C763.451 228.399 775.001 244.899 795.851 244.899ZM859.14 249.999V141.399H909.84V147.999H866.64V193.149H906.69V200.049H866.64V249.999H859.14ZM28.0992 388.999V286.849H0.949219V280.399H61.9992V286.849H35.5992V388.999H28.0992ZM80.2418 388.999V280.399H87.7418V336.649L136.642 319.849V280.399H143.992V388.999H136.642V326.599L87.7418 343.399V388.999H80.2418ZM173.769 388.999V280.399H224.469V286.999H181.269V330.199H221.619V337.099H181.269V382.399H225.519V388.999H173.769ZM288.507 354.949L323.907 342.949L308.157 285.199L288.507 354.949ZM313.557 280.399L344.757 388.999H336.207L325.407 349.099L286.557 362.299L279.057 388.999H271.707L303.057 280.399H313.557ZM366.021 388.999V280.399H373.521V382.549H415.521V388.999H366.021ZM444.34 388.999H436.99V280.399H465.04C487.54 280.399 494.29 295.099 494.29 310.999C494.29 321.949 492.04 329.899 488.44 334.849C481.24 338.599 476.89 340.249 472.84 341.749L444.34 352.699V388.999ZM467.89 336.649C474.94 333.949 479.29 332.149 482.74 329.899C485.29 325.999 486.34 320.299 486.34 310.999C486.34 292.849 476.59 287.299 461.44 287.299H444.34V345.499L467.89 336.649ZM513.089 360.199C515.489 372.649 521.339 384.199 536.489 384.199C548.339 384.199 559.889 379.849 559.889 358.699C559.889 353.299 559.139 346.699 557.489 344.149C556.439 343.399 555.089 342.649 551.489 341.299L517.739 328.849C515.489 327.949 514.589 327.349 513.989 326.899C510.689 321.649 508.889 314.749 508.889 307.399C508.889 289.699 520.739 278.449 537.989 278.449C554.939 278.449 565.139 286.849 567.389 308.299L560.189 309.199C558.239 298.549 554.789 285.349 537.839 285.349C522.239 285.349 516.839 294.649 516.839 307.249C516.839 312.199 517.589 317.449 519.389 320.899C520.739 321.799 522.689 322.399 524.039 322.999L556.289 335.299C561.689 337.399 563.339 338.299 564.539 339.199C566.339 341.899 567.989 349.849 567.989 357.799C567.989 383.299 552.389 390.799 536.639 390.799C517.289 390.799 508.439 379.249 505.589 361.399L513.089 360.199ZM585.842 388.999V374.149H595.442V388.999H585.842Z" fill="white"/>
</svg>
