<svg width="664" height="328" viewBox="0 0 664 328" fill="none" xmlns="http://www.w3.org/2000/svg">
<path d="M22.7984 99.5992L69.9984 83.5992L48.9984 6.59922L22.7984 99.5992ZM56.1984 0.199219L97.7984 144.999H86.3984L71.9984 91.7992L20.1984 109.399L10.1984 144.999H0.398438L42.1984 0.199219H56.1984ZM126.15 144.999V0.199219H136.15V136.399H192.15V144.999H126.15ZM230.575 144.999H220.775V0.199219H258.175C288.175 0.199219 297.175 19.7992 297.175 40.9992C297.175 55.5992 294.175 66.1992 289.375 72.7992C279.775 77.7992 273.975 79.9992 268.575 81.9992L230.575 96.5992V144.999ZM261.975 75.1992C271.375 71.5992 277.175 69.1992 281.775 66.1992C285.175 60.9992 286.575 53.3992 286.575 40.9992C286.575 16.7992 273.575 9.39922 253.375 9.39922H230.575V86.9992L261.975 75.1992ZM326.923 144.999V0.199219H336.923V144.999H326.923ZM376.431 144.999V0.199219H385.831L455.631 77.5992V0.199219H465.031V144.999H455.631V91.5992L385.831 14.1992V144.999H376.431ZM504.65 144.999V0.199219H572.25V8.99923H514.65V66.5992H568.45V75.7992H514.65V136.199H573.65V144.999H504.65ZM22.7984 279.599L69.9984 263.599L48.9984 186.599L22.7984 279.599ZM56.1984 180.199L97.7984 324.999H86.3984L71.9984 271.799L20.1984 289.399L10.1984 324.999H0.398438L42.1984 180.199H56.1984ZM163.253 327.399C139.253 327.399 121.253 317.599 121.253 281.399V180.199H131.253V281.599C131.253 310.199 142.453 318.599 164.253 318.599C188.853 318.599 197.653 307.799 197.653 281.599V180.199H207.653V278.599C207.653 310.799 195.253 327.399 163.253 327.399ZM246.756 286.599C249.956 303.199 257.756 318.599 277.956 318.599C293.756 318.599 309.156 312.799 309.156 284.599C309.156 277.399 308.156 268.599 305.956 265.199C304.556 264.199 302.756 263.199 297.956 261.399L252.956 244.799C249.956 243.599 248.756 242.799 247.956 242.199C243.556 235.199 241.156 225.999 241.156 216.199C241.156 192.599 256.956 177.599 279.956 177.599C302.556 177.599 316.156 188.799 319.156 217.399L309.556 218.599C306.956 204.399 302.356 186.799 279.756 186.799C258.956 186.799 251.756 199.199 251.756 215.999C251.756 222.599 252.756 229.599 255.156 234.199C256.956 235.399 259.556 236.199 261.356 236.999L304.356 253.399C311.556 256.199 313.756 257.399 315.356 258.599C317.756 262.199 319.956 272.799 319.956 283.399C319.956 317.399 299.156 327.399 278.156 327.399C252.356 327.399 240.556 311.999 236.756 288.199L246.756 286.599ZM340.161 324.999V317.799L409.161 188.999H343.361V180.199H419.561V187.799L350.761 316.199H421.761V324.999H340.161ZM448.892 324.999V180.199H516.492V188.999H458.892V246.599H512.692V255.799H458.892V316.199H517.892V324.999H448.892ZM547.618 324.999V180.199H557.618V324.999H547.618ZM618.126 324.999V188.799H581.926V180.199H663.326V188.799H628.126V324.999H618.126Z" fill="white"/>
</svg>
