<?xml version="1.0" encoding="UTF-8"?>
<svg id="Ebene_1" data-name="Ebene 1" xmlns="http://www.w3.org/2000/svg" version="1.1" viewBox="0 0 1600 867">
  <defs>
    <style>
      .cls-1 {
        fill: #000;
      }

      .cls-1, .cls-2, .cls-3, .cls-4 {
        stroke-width: 0px;
      }

      .cls-2 {
        fill: gray;
      }

      .cls-3 {
        fill: #004af0;
      }

      .cls-5 {
        stroke-width: 1.44px;
      }

      .cls-5, .cls-6 {
        fill: none;
        stroke: #000;
        stroke-miterlimit: 19;
      }

      .cls-6 {
        stroke-width: 1.4px;
      }

      .cls-4 {
        fill: #0026e8;
      }
    </style>
  </defs>
  <g>
    <path class="cls-1" d="M1244.63,567.53h15.35v56.49h5.69v-56.49h15.01v-4.92h-36.05v4.92ZM1289.76,605.19c0,15.35,7.47,19.85,18.41,19.85,13.49,0,19.34-7.04,19.34-20.95v-41.48h-5.68v42.24c0,10.77-3.4,15.27-13.23,15.27-8.99,0-13.15-3.74-13.15-15.27v-42.24h-5.69v42.58ZM1336.42,562.61l17.55,61.41h7.63l16.37-61.41h-5.68l-14.51,55.73-15.27-55.73h-6.1ZM1444.82,624.02h5.94l14.34-27.14,14.76,27.14h6.71l-17.9-31.64,16.62-29.77h-5.94l-13.83,25.36-13.74-25.36h-6.53l16.62,30.2-17.05,31.22ZM1489.1,562.61l17.31,37.49v23.92h5.68v-23.75l16.96-37.66h-5.68l-13.83,31.22h-.17l-14.17-31.22h-6.11ZM1533.46,624.02h35.37v-4.92h-29.18l28.25-52.25v-4.24h-33.25v4.92h27.14l-28.34,52.42v4.07Z"/>
    <path class="cls-1" d="M1027.52,624.65c15.52,0,23.41-13.06,23.41-33.08,0-17.05-6.96-30.46-22.39-30.46s-23.84,12.98-23.84,31.72,7.04,31.81,22.82,31.81M1010.64,592.84c0-17.73,7.38-26.72,17.73-26.72s16.71,9.08,16.71,26.3c0,19.26-6.79,27.23-17.22,27.23-11.03,0-17.22-8.91-17.22-26.8M1068.66,623.63v-23.41h8.23c12.21,0,19.59-5.17,19.59-19.93,0-9.76-3.99-18.07-17.13-18.07h-16.29v61.42h5.6ZM1076.55,595.22h-7.89v-28.08h8.65c8.06,0,13.23,2.89,13.23,13.32,0,12.89-6.19,14.76-14,14.76"/>
    <path class="cls-1" d="M1229.89,488.14c0,18.32,6.53,31.05,22.05,31.05,7.38,0,13.91-4.49,15.69-9.67l.85,8.65h4.24v-31.81h-19.93v5.01h14.59v6.36c0,7.81-4.75,16.71-14.42,16.71s-17.22-5.69-17.22-26.8c0-17.22,6.7-27.15,17.9-27.15,8.23,0,12.81,4.16,13.74,15.69l5.35-.51c-.93-14.34-8.14-20.02-18.83-20.02-14.76,0-24.01,11.2-24.01,32.49M1339.58,518.17h5.69v-61.42h-5.69v61.42ZM1360.95,505.19l-5.35.93c.34,8.65,4.58,13.06,12.81,13.06s13.91-3.48,13.91-15.69v-46.74h-5.68v46.91c0,9.33-3.48,10.69-7.97,10.69-5.85,0-7.21-3.56-7.72-9.16M1397.17,518.17h5.68v-23.33l6.19-7.46,19.09,30.79h6.36l-21.71-35.03,20.36-26.38h-5.94l-24.34,31.05v-31.05h-5.68v61.42ZM1443.99,518.17h29.18v-4.92h-23.49v-56.5h-5.69v61.42Z"/>
    <path class="cls-1" d="M1002.83,516.97h15.69c11.19,0,19.09-3.99,19.09-16.54,0-8.4-3.91-13.91-12.39-15.27v-.17c5.69-1.36,10.6-5.6,10.6-14.42s-3.31-15.02-15.52-15.02h-17.48v61.42ZM1017.93,511.96h-9.41v-23.92h7.38c8.48,0,15.69,1.19,15.69,12.21,0,10.26-5.94,11.71-13.66,11.71M1016.57,483.12h-8.06v-22.65h6.96c9.67,0,14.5.68,14.5,10.69s-7.63,11.96-13.4,11.96M1045.92,486.26c0,19.17,6.19,31.73,22.31,31.73,8.99,0,18.24-4.49,20.1-17.56l-5-1.1c-1.78,9.58-6.36,13.66-14.76,13.66-10.69,0-16.71-7.55-16.71-27.14,0-18.49,6.62-26.38,17.73-26.38,8.82,0,12.73,5.6,13.83,15.52l5.35-.51c-.51-7.8-2.88-20.02-19.17-20.02-12.21,0-23.66,7.72-23.66,31.81M1099.87,516.97h14.25c18.41,0,26.72-11.62,26.72-31.64,0-18.33-6.7-29.78-25.53-29.78h-15.44v61.42ZM1114.37,512.05h-8.82v-51.57h9.25c13.48,0,20.11,5.85,20.11,26.12,0,16.88-6.62,25.45-20.53,25.45M1152.97,516.97h30.37v-4.92h-24.69v-23.75h22.39v-5.01h-22.39v-22.82h23.92v-4.92h-29.6v61.42ZM1194.96,516.97h5.69v-27.57h22.14v-5.01h-22.14v-23.92h23.92v-4.92h-29.6v61.42Z"/>
    <path class="cls-3" d="M1211.61,577.11c0-6.45,3.06-11.38,11.21-11.38,8.91,0,11.04,6.88,11.97,12.82l5.27-.68c-1.1-12.48-7.56-17.07-17.15-17.07s-17.15,6.37-17.15,16.31l.02,1.76,28.77,28.9c0,9.51-6.28,11.89-12.65,11.89-9.09,0-11.81-6.29-13.08-13.16l-5.52.85c1.44,11.13,7.47,17.07,18.6,17.07,9.43,0,18.51-4.42,18.51-17.41l-.07-1.01-28.72-28.88Z"/>
  </g>
  <polygon class="cls-3" points="986.28 585.21 959.19 562.19 959.19 562.25 953.28 562.25 953.28 623.68 959.19 623.68 959.19 569.66 986.28 592.68 986.28 623.68 992.19 623.68 992.19 562.25 986.28 562.25 986.28 585.21"/>
  <g>
    <path class="cls-1" d="M1125.92,624.65c5.26,0,9.67-1.61,13.15-4.33l6.19,8.48,3.73-3.22-6.62-8.65c4.58-5.77,6.87-14.42,6.87-25.36,0-16.8-6.87-30.46-22.31-30.46s-23.92,13.32-23.92,31.73,7.21,31.81,22.91,31.81M1108.95,592.84c0-17.05,6.95-26.72,17.73-26.72s16.71,9.33,16.71,26.3c0,9.25-1.52,16.03-4.5,20.53l-9.16-12.47-3.73,3.14,9.76,12.89c-2.63,2.2-6.11,3.14-9.5,3.14-10.69,0-17.3-8.23-17.3-26.8"/>
    <path class="cls-1" d="M965.9,733.73c14.34,0,17.22-14.17,17.22-32.66,0-16.71-2.37-30.88-16.29-30.88s-17.39,14.85-17.39,32.91c0,16.29,2.55,30.62,16.46,30.62M955.22,702.51c0-17.48,2.46-27.31,11.28-27.31s10.77,9.16,10.77,26.46-1.95,27.32-11.03,27.32c-8.31,0-11.03-8.82-11.03-26.46M990.42,678.42l.51,4.41c2.38,0,8.48-1.19,10.94-2.97v52.85h5.69v-61.42h-3.06c-3.22,4.5-7.38,6.45-14.08,7.13M1021.29,685.04l5.09,1.02c.85-6.11,2.29-11.03,9.76-11.03,5.26,0,8.91,3.05,8.91,10.51,0,8.49-2.89,13.66-10.43,24.43l-12.72,18.15v4.58h29.35v-4.83h-23.41v-.08l11.62-16.29c6.95-9.75,11.03-16.62,11.03-26.3,0-10.6-5.85-15.01-14-15.01-11.2,0-14.25,6.95-15.18,14.85M1064.39,719.14l-5.43,1.02c.94,9.58,6.79,13.57,14.85,13.57,9.92,0,16.2-7.46,16.2-18.24,0-9.75-4.58-14.5-11.28-15.78v-.17c5.69-1.53,10.44-6.71,10.44-15.02,0-9.5-5.52-14.34-14.08-14.34-7.38,0-13.06,3.31-14.76,12.98l5.17,1.19c.93-4.24,2.54-9.24,9.42-9.24s8.57,4.24,8.57,10.18c0,7.3-4.75,12.38-12.05,12.38h-3.31v4.92h3.39c8.15,0,12.64,3.14,12.64,12.89s-4.75,13.32-10.26,13.32c-7.47,0-8.65-4.24-9.5-9.67M1121.3,732.71h5.35v-15.86h6.11v-4.75h-6.11v-40.8h-7.21l-22.31,41.48v4.07h24.17v15.86ZM1102.9,712.1l18.41-35.03v35.03h-18.41ZM1143.02,718.72l-5.08,1.36c1.52,9.58,7.29,13.66,14.92,13.66,11.03,0,17.31-8.99,17.31-20.87,0-15.1-7.21-19.09-14.25-19.09-4.5,0-8.31,2.03-10.35,3.99l1.7-21.55h19.77v-4.92h-24.34l-2.12,30.62,4.15,1.87c2.72-3.14,5.77-5.26,10.44-5.26,6.02,0,9.24,4.75,9.24,14.42,0,11.79-5.77,15.86-11.11,15.86-6.95,0-9.42-5.09-10.27-10.09M1205.62,684.36l5.26-1.36c-1.28-9.07-5.94-12.81-12.72-12.81-14.17,0-18.75,16.37-18.75,34.02,0,15.78,2.8,29.52,16.2,29.52,10.52,0,15.86-8.74,15.86-20.7,0-9.92-4.32-17.64-13.57-17.64-5.68,0-10.09,3.48-12.89,7.38.17-12.05,2.63-27.73,12.81-27.73,4.15,0,6.95,2.29,7.8,9.33M1185.18,708.2c2.2-3.22,6.36-7.97,12.13-7.97s8.57,4.67,8.57,13.4c0,10.69-4.41,15.27-10.01,15.27-8.99,0-10.52-11.2-10.69-20.7M1217.41,676.22h26.46l-21.46,56.49h5.77l21.46-57.17v-4.24h-32.23v4.92ZM1275.01,700.9c6.36-3.65,10.86-9.16,10.86-16.71s-4.24-14-14.59-14-15.61,6.36-15.61,15.44c0,7.72,4.49,13.06,10.01,15.69-8.31,3.99-11.71,9.5-11.71,17.05,0,8.57,4.84,15.35,16.03,15.35,10.26,0,16.8-6.7,16.8-16.2s-5.85-13.66-11.79-16.63M1270.18,703.62c6.28,2.88,10.94,6.19,10.94,13.82,0,5.52-3.06,11.45-10.78,11.45s-10.69-4.67-10.69-10.86c0-5.77,2.29-10.35,10.52-14.42M1261.27,685.21c0-3.82,1.53-10.51,9.84-10.51,6.03,0,9.16,3.65,9.16,9.58,0,6.28-4.07,11.2-9.58,14.68-4.83-2.29-9.42-6.7-9.42-13.74M1298.68,719.56l-5.18,1.36c1.19,9.16,6.79,12.81,14.17,12.81,15.02,0,18.07-14.76,18.07-34.02,0-20.61-5.35-29.52-16.2-29.52s-15.86,9.08-15.86,21.12,5.09,17.98,13.57,17.98c5.85,0,10.69-3.65,12.89-7.3-.08,16.8-2.54,26.81-12.21,26.81-4.58,0-8.06-2.12-9.25-9.25M1299.27,690.55c0-10.94,4.41-15.52,10.1-15.52s10.43,4.83,10.6,21.46c-2.88,4.33-6.87,7.97-12.05,7.97-7.63,0-8.65-7.8-8.65-13.91"/>
  </g>
  <polygon class="cls-3" points="1519.85 456.45 1505.55 479.59 1490.7 456.45 1482.77 456.45 1482.77 517.75 1487.53 517.75 1487.53 461.65 1503.84 487.57 1507.19 487.57 1522.86 461.73 1522.86 517.75 1527.87 517.75 1527.87 456.45 1519.85 456.45"/>
  <polygon class="cls-3" points="1426.87 617.13 1415.39 586.75 1409.75 586.89 1398.01 617.13 1389.2 562.61 1383.58 562.61 1394.42 623.9 1401.35 623.9 1412.52 594.84 1423.36 623.9 1430.7 623.9 1440.97 562.61 1435.67 562.61 1426.87 617.13"/>
  <path class="cls-3" d="M1188.37,603.48l-3.22-7.39-1.87-4.29,10.94-6.34.22-.88c.39-1.72.6-3.64.61-5.75v-.17c0-8.34-3.06-16.84-15.53-16.84h-17.92v62.83h5.45v-23.87h.01s5.63-3.12,5.63-3.12l5.96-3.29,1.43,3.29,1.4,3.22,10.26,23.77h5.95l-9.32-21.18ZM1167.04,566.85h9.83c7.76,0,12.4,2.17,12.4,11.89,0,1.22-.06,2.34-.18,3.36l-18.89,10.43-3.14,1.74v-1.74h-.01v-25.69Z"/>
  <polygon class="cls-3" points="1318.64 477.7 1291.68 486.73 1291.68 455.43 1285.8 455.43 1285.8 518.77 1291.68 518.77 1291.68 493.71 1318.64 484.68 1318.64 518.77 1324.52 518.77 1324.52 455.43 1318.64 455.43 1318.64 477.7"/>
  <path class="cls-3" d="M992.61,517.28h-6.43l-5.4-22.22-21.71,7.49-4.18,14.72h-5.75l17.75-62.83h7.72l18,62.83ZM979.32,489.94l-8.57-30.72h-.09l-9.73,36.84,18.39-6.12Z"/>
  <g>
    <g>
      <path class="cls-1" d="M77.71,517.53h-6.41l-5.38-19.9h-20.5l-5.29,19.9h-5.72l17.68-61.83h7.69l17.93,61.83ZM64.47,492.59l-8.54-32.2h-.09l-8.88,32.2h17.51Z"/>
      <path class="cls-1" d="M87.28,455.7h17.59c12.3,0,15.63,6.66,15.63,15.12,0,8.88-4.95,13.15-10.68,14.52v.17c8.54,1.37,12.47,6.92,12.47,15.37,0,12.64-7.94,16.65-19.22,16.65h-15.8v-61.83ZM114.61,471.41c0-10.08-4.87-10.76-14.6-10.76h-7v22.8h8.11c5.81,0,13.49-2.22,13.49-12.04ZM116.23,500.7c0-11.1-7.26-12.3-15.8-12.3h-7.43v24.08h9.48c7.77,0,13.75-1.45,13.75-11.79Z"/>
      <path class="cls-1" d="M153.21,454.58c16.4,0,18.79,12.3,19.3,20.16l-5.38.51c-1.11-9.99-5.04-15.63-13.92-15.63-11.19,0-17.85,7.94-17.85,26.56,0,19.73,6.06,27.33,16.82,27.33,8.46,0,13.07-4.1,14.86-13.75l5.04,1.11c-1.88,13.15-11.19,17.68-20.24,17.68-16.23,0-22.46-12.64-22.46-31.94,0-24.25,11.53-32.03,23.83-32.03Z"/>
      <path class="cls-1" d="M182.42,455.7h15.54c18.96,0,25.71,11.53,25.71,29.98,0,20.16-8.37,31.86-26.9,31.86h-14.35v-61.83ZM217.69,486.95c0-20.41-6.66-26.3-20.24-26.3h-9.31v51.93h8.88c14.01,0,20.67-8.63,20.67-25.62Z"/>
      <path class="cls-1" d="M234.6,455.7h29.81v4.95h-24.08v22.97h22.55v5.04h-22.55v23.91h24.85v4.95h-30.57v-61.83Z"/>
      <path class="cls-1" d="M275.6,455.7h29.81v4.95h-24.08v24.08h22.29v5.04h-22.29v27.76h-5.72v-61.83Z"/>
      <path class="cls-1" d="M335.47,454.58c10.76,0,18.02,5.72,18.96,20.16l-5.38.51c-.94-11.61-5.55-15.8-13.83-15.8-11.27,0-18.02,9.99-18.02,27.33,0,21.27,7.6,26.99,17.34,26.99s14.52-8.97,14.52-16.82v-6.41h-14.69v-5.04h20.07v32.03h-4.27l-.85-8.71c-1.79,5.21-8.37,9.74-15.8,9.74-15.63,0-22.21-12.81-22.21-31.26,0-21.44,9.31-32.71,24.17-32.71Z"/>
      <path class="cls-1" d="M367.16,455.7h5.72v27.59h26.22v-27.59h5.72v61.83h-5.72v-29.21h-26.22v29.21h-5.72v-61.83Z"/>
      <path class="cls-1" d="M419.17,455.7h5.72v61.83h-5.72v-61.83Z"/>
      <path class="cls-1" d="M447.18,513.68c4.53,0,8.03-1.37,8.03-10.76v-47.23h5.72v47.06c0,12.3-5.47,15.8-14.01,15.8s-12.55-4.44-12.9-13.15l5.38-.94c.51,5.64,1.88,9.22,7.77,9.22Z"/>
      <path class="cls-1" d="M474.6,455.7h5.72v31.26l24.51-31.26h5.98l-20.5,26.56,21.86,35.27h-6.41l-19.22-31-6.23,7.52v23.49h-5.72v-61.83Z"/>
      <path class="cls-1" d="M520.46,455.7h5.72v56.88h23.66v4.95h-29.38v-61.83Z"/>
      <path class="cls-1" d="M559.83,455.7h8.54l16.82,56.11,16.23-56.11h8.63v61.83h-5.38v-55.68l-16.06,55.68h-6.92l-16.74-55.77v55.77h-5.12v-61.83Z"/>
    </g>
    <g>
      <path class="cls-1" d="M39.19,563.91h8.03l25.71,54.57v-54.57h5.29v61.83h-7.26l-26.48-55.34v55.34h-5.29v-61.83Z"/>
      <path class="cls-1" d="M89.16,594.74c0-18.88,8.37-31.94,24-31.94s22.55,13.49,22.55,30.66c0,20.16-7.94,33.31-23.57,33.31s-22.97-13.07-22.97-32.03ZM112.47,621.72c10.5,0,17.34-8.03,17.34-27.42,0-17.34-6.58-26.47-16.82-26.47s-17.85,9.05-17.85,26.9,6.23,26.99,17.34,26.99Z"/>
    </g>
  </g>
  <g>
    <path class="cls-1" d="M147.32,625.74v-61.83h16.4c13.24,0,17.25,8.37,17.25,18.19,0,14.86-7.43,20.07-19.73,20.07h-8.28v23.57h-5.64ZM174.99,582.27c0-10.5-5.21-13.41-13.32-13.41h-8.71v28.27h7.94c7.86,0,14.09-1.88,14.09-14.86Z"/>
    <path class="cls-1" d="M187.97,594.74c0-18.53,8.03-31.94,24.08-31.94s22.46,13.75,22.46,30.66c0,11.02-2.31,19.73-6.92,25.54l6.66,8.71-3.76,3.25-6.23-8.54c-3.5,2.73-7.94,4.36-13.24,4.36-15.8,0-23.06-12.9-23.06-32.03ZM211.37,621.73c3.42,0,6.92-.94,9.57-3.16l-9.82-12.98,3.76-3.16,9.22,12.55c2.99-4.53,4.53-11.36,4.53-20.67,0-17.08-6.49-26.47-16.82-26.47-10.85,0-17.85,9.74-17.85,26.9,0,18.7,6.66,26.99,17.42,26.99Z"/>
  </g>
  <g>
    <path class="cls-1" d="M275.94,625.74l-12.04-26.56h-13.49v26.56h-5.64v-61.83h18.53c12.9,0,16.06,8.37,16.06,16.57,0,9.31-4.1,14.86-10.25,17.17l12.98,28.1h-6.15ZM273.38,580.56c0-9.56-4.78-11.7-12.81-11.7h-10.16v25.28h11.02c7.09,0,11.96-3.07,11.96-13.58Z"/>
    <path class="cls-1" d="M304.73,621.98c6.41,0,12.73-2.39,12.73-11.96,0-18.19-28.95-8.11-28.95-30.83,0-9.99,7.26-16.4,17.25-16.4s16.14,4.61,17.25,17.17l-5.29.68c-.94-5.98-3.07-12.9-12.04-12.9-8.2,0-11.27,4.95-11.27,11.44,0,17.34,28.95,7.94,28.95,30.06,0,13.07-9.14,17.51-18.62,17.51-11.19,0-17.25-5.98-18.7-17.17l5.55-.85c1.28,6.92,4.01,13.24,13.15,13.24Z"/>
  </g>
  <g>
    <path class="cls-1" d="M327.36,563.91h36.3v4.95h-15.12v56.88h-5.72v-56.88h-15.46v-4.95Z"/>
    <path class="cls-1" d="M371.52,563.91h5.72v42.53c0,11.61,4.19,15.37,13.24,15.37,9.91,0,13.32-4.53,13.32-15.37v-42.53h5.72v41.76c0,14.01-5.89,21.09-19.47,21.09-11.02,0-18.53-4.53-18.53-19.98v-42.87Z"/>
    <path class="cls-1" d="M423.36,563.91l15.37,56.11,14.6-56.11h5.72l-16.48,61.83h-7.69l-17.68-61.83h6.15Z"/>
    <path class="cls-1" d="M467.09,563.91l9.22,55,11.87-55h6.83l11.53,55,9.22-55h5.55l-10.76,61.83h-7.69l-11.36-54.66-11.7,54.66h-7.26l-11.36-61.83h5.89Z"/>
    <path class="cls-1" d="M540.96,594.31l-16.74-30.4h6.58l13.84,25.54,13.92-25.54h5.98l-16.74,29.98,18.02,31.86h-6.75l-14.86-27.33-14.43,27.33h-5.98l17.17-31.43Z"/>
    <path class="cls-1" d="M573.25,563.91l14.26,31.43h.17l13.92-31.43h5.72l-17.08,37.92v23.91h-5.72v-24.08l-17.42-37.75h6.15Z"/>
  </g>
  <path class="cls-1" d="M612.97,621.64l28.52-52.78h-27.33v-4.95h33.48v4.27l-28.44,52.61h29.38v4.95h-35.61v-4.1Z"/>
  <g>
    <g>
      <path class="cls-1" d="M34.24,704.15c0-18.19,2.9-33.14,17.51-33.14s16.4,14.26,16.4,31.09c0,18.62-2.9,32.88-17.34,32.88s-16.57-14.43-16.57-30.83ZM51.15,730.19c9.14,0,11.1-10.85,11.1-27.5s-1.96-26.65-10.85-26.65-11.36,9.91-11.36,27.5,2.73,26.65,11.1,26.65Z"/>
      <path class="cls-1" d="M88.39,672.12h3.07v61.83h-5.72v-53.21c-2.48,1.79-8.63,2.99-11.02,2.99l-.51-4.44c6.75-.68,10.93-2.65,14.18-7.17Z"/>
      <path class="cls-1" d="M119.3,671.01c8.2,0,14.09,4.44,14.09,15.12,0,9.74-4.1,16.65-11.1,26.48l-11.7,16.4v.08h23.57v4.87h-29.55v-4.61l12.81-18.28c7.6-10.85,10.5-16.06,10.5-24.6,0-7.52-3.67-10.59-8.97-10.59-7.52,0-8.97,4.95-9.82,11.1l-5.12-1.03c.94-7.94,4.01-14.95,15.29-14.95Z"/>
      <path class="cls-1" d="M155.69,730.02c5.55,0,10.33-3.84,10.33-13.41s-4.53-12.98-12.73-12.98h-3.42v-4.95h3.33c7.34,0,12.13-5.12,12.13-12.47,0-5.98-2.05-10.25-8.63-10.25-6.92,0-8.54,5.04-9.48,9.31l-5.21-1.2c1.71-9.74,7.43-13.07,14.86-13.07,8.63,0,14.18,4.87,14.18,14.43,0,8.37-4.78,13.58-10.5,15.12v.17c6.75,1.28,11.36,6.06,11.36,15.88,0,10.85-6.32,18.36-16.31,18.36-8.11,0-14.01-4.01-14.95-13.66l5.47-1.02c.85,5.46,2.05,9.74,9.56,9.74Z"/>
      <path class="cls-1" d="M202.23,717.98h-24.34v-4.1l22.46-41.76h7.26v41.08h6.15v4.78h-6.15v15.97h-5.38v-15.97ZM202.23,713.2v-35.27l-18.53,35.27h18.53Z"/>
      <path class="cls-1" d="M233.15,730.02c5.38,0,11.19-4.1,11.19-15.97,0-9.74-3.25-14.52-9.31-14.52-4.7,0-7.77,2.14-10.5,5.29l-4.18-1.88,2.13-30.83h24.51v4.95h-19.9l-1.71,21.69c2.05-1.96,5.89-4.01,10.42-4.01,7.09,0,14.35,4.01,14.35,19.22,0,11.96-6.32,21.01-17.42,21.01-7.69,0-13.49-4.1-15.03-13.75l5.12-1.37c.85,5.04,3.33,10.16,10.33,10.16Z"/>
    </g>
    <g>
      <path class="cls-1" d="M274.32,675.88c-10.25,0-12.73,15.8-12.9,27.93,2.82-3.93,7.26-7.43,12.98-7.43,9.31,0,13.67,7.77,13.67,17.76,0,12.04-5.38,20.84-15.97,20.84-13.49,0-16.31-13.83-16.31-29.72,0-17.76,4.61-34.25,18.87-34.25,6.83,0,11.53,3.76,12.81,12.9l-5.29,1.37c-.85-7.09-3.67-9.39-7.86-9.39ZM272.36,730.11c5.64,0,10.08-4.61,10.08-15.37,0-8.8-2.9-13.49-8.63-13.49s-9.99,4.78-12.21,8.03c.17,9.57,1.71,20.84,10.76,20.84Z"/>
      <path class="cls-1" d="M294.14,672.12h32.45v4.27l-21.61,57.56h-5.81l21.61-56.88h-26.65v-4.95Z"/>
      <path class="cls-1" d="M363.91,718.66c0,9.57-6.58,16.31-16.91,16.31-11.27,0-16.14-6.83-16.14-15.46,0-7.6,3.42-13.15,11.79-17.17-5.55-2.65-10.08-8.03-10.08-15.8,0-9.14,5.81-15.54,15.71-15.54,10.42,0,14.69,6.23,14.69,14.09s-4.53,13.15-10.93,16.82c5.98,2.99,11.87,6.75,11.87,16.74ZM336.58,719.18c0,6.23,2.99,10.93,10.76,10.93s10.85-5.98,10.85-11.53c0-7.69-4.7-11.02-11.02-13.92-8.28,4.1-10.59,8.71-10.59,14.52ZM347.69,699.96c5.55-3.5,9.65-8.46,9.65-14.78,0-5.98-3.16-9.65-9.22-9.65-8.37,0-9.91,6.75-9.91,10.59,0,7.09,4.61,11.53,9.48,13.84Z"/>
      <path class="cls-1" d="M384.58,730.02c9.74,0,12.21-10.08,12.3-26.99-2.22,3.67-7.09,7.34-12.98,7.34-8.54,0-13.66-6.58-13.66-18.11,0-12.13,5.04-21.27,15.97-21.27s16.31,8.97,16.31,29.72c0,19.39-3.07,34.25-18.19,34.25-7.43,0-13.07-3.67-14.26-12.9l5.21-1.37c1.2,7.17,4.7,9.31,9.31,9.31ZM384.58,705.51c5.21,0,9.22-3.67,12.13-8.03-.17-16.74-4.7-21.61-10.68-21.61s-10.16,4.61-10.16,15.63c0,6.15,1.02,14.01,8.71,14.01Z"/>
    </g>
  </g>
  <path class="cls-5" d="M796.08,451.89l20.88,19.65-20.88,19.65M727.88,471.54h89.08"/>
  <path class="cls-2" d="M338.57,173.47h8.92l8.11,34.84,10.97.09-.03-.09h-10.56l-9.16-37.69-8.26,2.85ZM315.12,164.87l-1.97,7.45,22.55-7.5-20.58.05ZM329.66,109.83l-.16.59,11.64,40.04-11.34-40.63h-.14ZM322.73,101.73l-29.91,106.67,8.95-.07v-.02s-8.62,0-8.62,0l30.11-106.58h-.53Z"/>
  <path class="cls-6" d="M213,136.51l20.18,19.14-20.18,19.13M188.44,155.64h44.74M469.8,136.51l20.18,19.14-20.18,19.13M445.24,155.64h44.74"/>
  <path class="cls-3" d="M311.34,173.47l-9.56,34.84h1.12l7.1-24.97,28.58-9.87h-27.23ZM344.35,161.94l-8.65,2.88,9.61-.03-4.17-14.33,3.2,11.48ZM329.16,109.75l-14.33,55.12h.29l14.39-54.45-.2-.67h-.14ZM335.88,101.73l30.66,106.58h.35l-30.54-106.58h-.47Z"/>
  <path class="cls-4" d="M329.16,109.75h.14l.2.67.16-.59h.14l11.34,40.63,4.17,14.33-9.61.03-22.55,7.5,1.97-7.45h-.29l14.33-55.12ZM323.26,101.73l-30.11,106.58h8.62l9.56-34.84h27.23l8.26-2.85,9.16,37.69h10.56l-30.66-106.58h-12.62Z"/>
  <path class="cls-3" d="M597.79,109.83h.14l14.54,52.11-31.2,10.38,16.51-62.49ZM591.39,101.73l-30.11,106.58h9.74l7.1-24.97,36.83-12.72,9.17,37.69h10.91l-30.54-106.58h-13.09Z"/>
  <g>
    <path class="cls-1" d="M116.22,208.98h-10.96l-9.21-34.06h-35.08l-9.06,34.06h-9.79l30.26-105.82h13.15l30.69,105.82ZM93.56,166.3l-14.62-55.1h-.15l-15.2,55.1h29.96Z"/>
    <path class="cls-2" d="M1181.98,102.12h-.57v106.53h9.69v-.05h-9.12v-106.48ZM1216.86,102.25c17.43,1.91,21.87,15.24,21.87,28.32v.3c-.02,3.57-.37,6.83-1.03,9.76-.1.51-.23,1-.37,1.49l-12.3,7.14c-1.73,1.73-3.82,2.94-6.2,3.74l3.12,7.16,5.46,12.54,15.81,35.92h-10.09l-6.07-14.05,5.66,14.1h10.59l-19.96-48.41c10.59-3.97,17.64-13.53,17.64-29.57,0-13.36-4.85-26.95-24.13-28.41M1207.9,110.56h-16.67v.08h17.39c1.53,0,3,.04,4.39.15-1.6-.16-3.3-.23-5.11-.23M1196.43,154.22h-5.17v2.86l5.17-2.86ZM1210.92,157.24l-10.11,5.59-.12.07h12.69l-.03-.07-2.43-5.59Z"/>
  </g>
  <path class="cls-6" d="M1095.58,136.25l20.18,19.14-20.18,19.13M1071.02,155.39h44.74M1352.38,136.25l20.18,19.14-20.18,19.13M1327.82,155.39h44.74"/>
  <g>
    <g>
      <path class="cls-3" d="M1216.87,102.25c-1.41-.16-2.89-.23-4.47-.23h-30.41v.1h31.35c1.23,0,2.4.04,3.53.13Z"/>
      <path class="cls-3" d="M1227.41,172.68l-5.46-12.54-3.12-7.16c-2.6.86-5.54,1.23-8.74,1.23h-13.67l-5.17,2.86v-2.86h-.15s.15,0,.15,0v-.09h-.02v-43.49h0v-.08h16.67c1.81,0,3.51.07,5.11.23,0,0,0,0,0,0,10.06,1.02,15.91,5.71,15.91,19.94,0,2.06-.1,3.96-.31,5.71l-32.04,17.69-.16.09h13.67c3.2,0,6.14-.36,8.74-1.23l-.05-.11,6.25-3.62c3.59-3.59,5.67-9.43,5.67-18.45h0c0,9.01-2.08,14.85-5.67,18.45l12.3-7.14c.14-.49.26-.98.36-1.49.66-2.93,1.01-6.19,1.03-9.76v-.3c0-13.08-4.44-26.41-21.87-28.32-1.13-.09-2.31-.13-3.53-.13h-31.35v106.48h9.12s.13,0,.13,0v-40.49h.02s9.43-5.22,9.43-5.22h0l.12-.07,10.11-5.59,2.43,5.59.03.07h0l2.35,5.39,11.34,26.27h0s6.07,14.06,6.07,14.06h10.09l-15.81-35.92Z"/>
    </g>
    <path class="cls-3" d="M1495.55,172.68l-5.46-12.54-3.17-7.27,18.55-10.76c.14-.49.26-.98.36-1.49.66-2.92,1.01-6.18,1.03-9.76v-.29c0-14.14-5.18-28.56-26.34-28.56h-30.41v106.59h9.25v-40.5h.02s9.55-5.29,9.55-5.29l10.12-5.58,2.43,5.58,2.38,5.46,17.41,40.33h10.09l-15.81-35.92ZM1459.36,110.56h16.67c13.17,0,21.03,3.67,21.03,20.17,0,2.06-.1,3.97-.31,5.71l-32.04,17.69-5.33,2.94v-2.94h-.02v-43.57Z"/>
    <path class="cls-1" d="M986.22,208.98l-20.61-45.46h-23.09v45.46h-9.65v-105.82h31.72c22.07,0,27.48,14.32,27.48,28.36,0,15.93-7.02,25.43-17.54,29.38l22.22,48.09h-10.52ZM981.84,131.66c0-16.37-8.19-20.02-21.92-20.02h-17.39v43.26h18.85c12.13,0,20.46-5.26,20.46-23.24Z"/>
  </g>
</svg>