<svg width="638" height="325" viewBox="0 0 638 325" fill="none" xmlns="http://www.w3.org/2000/svg">
<path d="M22.7984 99.5992L69.9984 83.5992L48.9984 6.59922L22.7984 99.5992ZM56.1984 0.199219L97.7984 144.999H86.3984L71.9984 91.7992L20.1984 109.399L10.1984 144.999H0.398438L42.1984 0.199219H56.1984ZM126.15 144.999V0.199219H136.15V136.399H192.15V144.999H126.15ZM230.575 144.999H220.775V0.199219H258.175C288.175 0.199219 297.175 19.7992 297.175 40.9992C297.175 55.5992 294.175 66.1992 289.375 72.7992C279.775 77.7992 273.975 79.9992 268.575 81.9992L230.575 96.5992V144.999ZM261.975 75.1992C271.375 71.5992 277.175 69.1992 281.775 66.1992C285.175 60.9992 286.575 53.3992 286.575 40.9992C286.575 16.7992 273.575 9.39922 253.375 9.39922H230.575V86.9992L261.975 75.1992ZM326.923 144.999V0.199219H336.923V144.999H326.923ZM376.431 144.999V0.199219H385.831L455.631 77.5992V0.199219H465.031V144.999H455.631V91.5992L385.831 14.1992V144.999H376.431ZM504.65 144.999V0.199219H572.25V8.99923H514.65V66.5992H568.45V75.7992H514.65V136.199H573.65V144.999H504.65ZM22.7984 279.599L69.9984 263.599L48.9984 186.599L22.7984 279.599ZM56.1984 180.199L97.7984 324.999H86.3984L71.9984 271.799L20.1984 289.399L10.1984 324.999H0.398438L42.1984 180.199H56.1984ZM126.15 324.999V180.199H168.55C197.55 180.199 204.55 199.799 204.55 217.599C204.55 228.999 201.15 239.599 197.55 245.599C193.35 248.399 186.55 251.199 182.55 252.799L177.35 254.999L211.15 324.999H200.35L167.95 258.599L135.95 270.999V324.999H126.15ZM179.15 244.799C184.15 242.799 186.95 241.399 189.55 239.399C192.15 233.799 193.95 227.399 193.95 217.599C193.95 194.799 181.95 189.399 162.15 189.399H135.95V261.199L179.15 244.799ZM255.056 324.999V188.799H218.856V180.199H300.256V188.799H265.056V324.999H255.056ZM314.379 324.999V317.799L383.379 188.999H317.579V180.199H393.779V187.799L324.979 316.199H395.979V324.999H314.379ZM423.111 324.999V180.199H490.711V188.999H433.111V246.599H486.911V255.799H433.111V316.199H492.111V324.999H423.111ZM521.837 324.999V180.199H531.837V324.999H521.837ZM592.345 324.999V188.799H556.145V180.199H637.545V188.799H602.345V324.999H592.345Z" fill="white"/>
</svg>
