<?xml version="1.0" encoding="UTF-8"?>
<svg id="uuid-fec08fed-d23b-43f2-bdce-efe5471062ff" data-name="Ebene 1" xmlns="http://www.w3.org/2000/svg" viewBox="0 0 1920 761.62">
  <defs>
    <style>
      .uuid-644d0060-229b-4321-9ec0-bae168aaf1e9 {
        fill: #24353f;
        stroke-width: 0px;
      }
    </style>
  </defs>
  <path class="uuid-644d0060-229b-4321-9ec0-bae168aaf1e9" d="M201.47,196.67h-62.98l-12.81-37.62h-54.7l-10.67,37.62H0L61.91,3.47h70.18l69.38,193.2ZM95.8,56.84l-16.81,58.71h35.49l-17.08-58.71h-1.6Z"/>
  <path class="uuid-644d0060-229b-4321-9ec0-bae168aaf1e9" d="M211.08,3.47h198c66.98,0,99,35.22,99,92.86s-35.49,100.33-104.6,100.33h-192.4V3.47ZM449.37,96.86c0-37.09-16.28-49.63-47.23-49.63h-133.16v105.14h129.15c38.69,0,51.23-20.81,51.23-55.5Z"/>
  <path class="uuid-644d0060-229b-4321-9ec0-bae168aaf1e9" d="M671.13,149.7v46.96h-138.76V3.47h132.09v45.9h-74.18v30.15h62.44v44.03h-62.44v26.15h80.85Z"/>
  <path class="uuid-644d0060-229b-4321-9ec0-bae168aaf1e9" d="M829.38,149.7v46.96h-136.63V3.47h57.91v146.23h78.72Z"/>
  <path class="uuid-644d0060-229b-4321-9ec0-bae168aaf1e9" d="M985.48,149.7v46.96h-136.63V3.47h57.91v146.23h78.72Z"/>
  <path class="uuid-644d0060-229b-4321-9ec0-bae168aaf1e9" d="M1143.73,149.7v46.96h-138.76V3.47h132.09v45.9h-74.18v30.15h62.44v44.03h-62.44v26.15h80.85Z"/>
  <path class="uuid-644d0060-229b-4321-9ec0-bae168aaf1e9" d="M1272.08,53.64c0,12.01,14.94,16.28,33.36,21.08l14.94,4c24.55,6.67,48.83,20.28,48.83,55.77,0,46.7-38.69,65.38-79.79,65.38-28.82,0-77.39-4.54-79.25-64.31l51.23-6.94c2.13,16.81,6.14,30.15,29.62,30.15,13.61,0,22.68-4.54,22.68-16.28,0-8.81-7.47-13.61-18.68-16.54l-14.41-3.74c-28.02-7.2-64.04-15.21-64.04-59.77,0-41.36,34.69-62.44,75.78-62.44,34.96,0,72.05,7.74,73.65,57.37l-52.3,5.87c0-17.88-7.47-22.68-23.22-22.68-10.94,0-18.41,3.73-18.41,13.07Z"/>
  <path class="uuid-644d0060-229b-4321-9ec0-bae168aaf1e9" d="M1566.42,196.67h-62.98l-12.81-37.62h-54.7l-10.67,37.62h-60.31L1426.86,3.47h70.18l69.38,193.2ZM1460.75,56.84l-16.81,58.71h35.49l-17.08-58.71h-1.6Z"/>
  <path class="uuid-644d0060-229b-4321-9ec0-bae168aaf1e9" d="M1628.33,83.52v113.14h-52.3V3.47h66.18l53.64,115.28V3.47h51.77v193.2h-64.84l-54.44-113.14Z"/>
  <path class="uuid-644d0060-229b-4321-9ec0-bae168aaf1e9" d="M1822.87,53.64c0,12.01,14.94,16.28,33.36,21.08l14.94,4c24.55,6.67,48.83,20.28,48.83,55.77,0,46.7-38.69,65.38-79.79,65.38-28.82,0-77.39-4.54-79.25-64.31l51.23-6.94c2.13,16.81,6.14,30.15,29.62,30.15,13.61,0,22.68-4.54,22.68-16.28,0-8.81-7.47-13.61-18.68-16.54l-14.41-3.74c-28.02-7.2-64.04-15.21-64.04-59.77,0-41.36,34.69-62.44,75.78-62.44,34.96,0,72.05,7.74,73.65,57.37l-52.3,5.87c0-17.88-7.47-22.68-23.22-22.68-10.94,0-18.41,3.73-18.41,13.07Z"/>
  <path class="uuid-644d0060-229b-4321-9ec0-bae168aaf1e9" d="M72.58,355.82c0,11.21,10.14,14.41,44.03,15.48l100.87,2.94c59.51,1.6,89.13,17.61,89.13,56.84,0,46.7-38.69,70.18-148.1,70.18-100.33,0-148.9-8.54-150.77-66.98l54.7-6.94c2.13,16.81,4,31.75,97.67,31.75,79.25,0,88.33-7.74,88.33-19.48,0-9.61-4.8-14.94-30.95-15.74l-114.48-4c-61.91-2.13-88.59-20.01-88.59-58.71,0-41.36,34.69-65.11,147.03-65.11,103.27,0,140.36,10.41,141.96,60.04l-55.24,5.87c0-17.88-5.87-24.55-88.59-24.55s-86.99,7.2-86.99,18.41Z"/>
  <path class="uuid-644d0060-229b-4321-9ec0-bae168aaf1e9" d="M318.62,400.38c0-57.37,31.75-101.67,98.2-101.67s91.53,44.3,91.53,97.93c0,62.44-29.62,101.94-96.33,101.94s-93.4-40.83-93.4-98.2ZM380.53,289.91c-18.41,0-31.22-10.94-31.22-27.75s12.81-27.75,31.22-27.75,30.42,10.94,30.42,27.75-12.27,27.75-30.42,27.75ZM449.11,399.05c0-40.56-10.94-54.7-33.62-54.7-24.55,0-37.09,14.94-37.09,54.7,0,42.16,12.01,54.7,35.76,54.7,20.82,0,34.96-12.01,34.96-54.7ZM450.18,289.91c-18.41,0-30.95-10.94-30.95-27.75s12.54-27.75,30.95-27.75,30.69,10.94,30.69,27.75-12.28,27.75-30.69,27.75Z"/>
  <path class="uuid-644d0060-229b-4321-9ec0-bae168aaf1e9" d="M665.26,448.41v46.96h-136.63v-193.2h57.91v146.23h78.72Z"/>
  <path class="uuid-644d0060-229b-4321-9ec0-bae168aaf1e9" d="M684.74,302.18h198c66.98,0,99,35.22,99,92.86s-35.49,100.33-104.6,100.33h-192.4v-193.2ZM923.03,395.58c0-37.09-16.28-49.63-47.23-49.63h-133.16v105.14h129.15c38.69,0,51.23-20.81,51.23-55.5Z"/>
  <path class="uuid-644d0060-229b-4321-9ec0-bae168aaf1e9" d="M1144.79,448.41v46.96h-138.76v-193.2h132.09v45.9h-74.18v30.15h62.44v44.03h-62.44v26.15h80.85Z"/>
  <path class="uuid-644d0060-229b-4321-9ec0-bae168aaf1e9" d="M1218.72,382.23v113.14h-52.3v-193.2h66.18l53.64,115.28v-115.28h51.77v193.2h-64.84l-54.44-113.14Z"/>
  <path class="uuid-644d0060-229b-4321-9ec0-bae168aaf1e9" d="M249.5,761.62v-71.78H76.58v71.78H16.01v-193.2h60.57v73.65h172.92v-73.65h60.57v193.2h-60.57Z"/>
  <path class="uuid-644d0060-229b-4321-9ec0-bae168aaf1e9" d="M476.6,714.65v46.96h-138.76v-193.2h132.09v45.9h-74.18v30.15h62.44v44.03h-62.44v26.15h80.85Z"/>
  <path class="uuid-644d0060-229b-4321-9ec0-bae168aaf1e9" d="M683.67,761.62h-62.98l-12.81-37.63h-54.7l-10.67,37.63h-60.31l61.91-193.2h70.18l69.38,193.2ZM578,621.79l-16.81,58.71h35.49l-17.08-58.71h-1.6Z"/>
  <path class="uuid-644d0060-229b-4321-9ec0-bae168aaf1e9" d="M693.28,568.42h76.32c66.98,0,95.8,36.02,95.8,93.66s-31.22,99.53-100.33,99.53h-71.78v-193.2ZM806.69,663.15c0-38.43-10.67-50.97-41.63-50.97h-13.88v105.14h9.87c38.69,0,45.63-20.81,45.63-54.17Z"/>
  <path class="uuid-644d0060-229b-4321-9ec0-bae168aaf1e9" d="M1022.31,714.65v46.96h-136.63v-193.2h57.91v146.23h78.72Z"/>
  <path class="uuid-644d0060-229b-4321-9ec0-bae168aaf1e9" d="M1041.79,761.62v-193.2h57.91v193.2h-57.91Z"/>
  <path class="uuid-644d0060-229b-4321-9ec0-bae168aaf1e9" d="M1179.22,648.47v113.14h-52.3v-193.2h66.18l53.64,115.28v-115.28h51.77v193.2h-64.84l-54.44-113.14Z"/>
  <path class="uuid-644d0060-229b-4321-9ec0-bae168aaf1e9" d="M1617.65,714.65v46.96h-291.93v-193.2h285.26v45.9h-224.68v30.15h194.26v44.03h-194.26v26.15h231.36Z"/>
</svg>