<?xml version="1.0" encoding="UTF-8"?>
<svg id="uuid-1e8eb78c-7d5a-44b2-9b07-741e58e54a73" data-name="Ebene 1" xmlns="http://www.w3.org/2000/svg" viewBox="0 0 1920 929.38">
  <defs>
    <style>
      .uuid-92af2db2-6f8e-489b-aa44-943e166ebeb0 {
        fill: #24353f;
        stroke-width: 0px;
      }
    </style>
  </defs>
  <path class="uuid-92af2db2-6f8e-489b-aa44-943e166ebeb0" d="M860.1,270.72c0,50.76,45.93,65.26,199.41,70.1l456.83,13.29c269.51,7.25,403.66,79.76,403.66,257.42,0,211.5-175.24,317.85-670.75,317.85-454.42,0-674.37-38.67-682.83-303.35l247.75-31.42c9.67,76.14,18.13,143.82,442.33,143.82,358.94,0,400.03-35.05,400.03-88.22,0-43.51-21.75-67.68-140.19-71.3l-518.47-18.13c-280.38-9.67-401.24-90.64-401.24-265.88C596.64,107.56,753.75,0,1262.55,0c467.71,0,635.7,47.13,642.95,271.92l-250.17,26.59c0-80.97-26.59-111.19-401.24-111.19s-393.99,32.63-393.99,83.39Z"/>
  <g>
    <path class="uuid-92af2db2-6f8e-489b-aa44-943e166ebeb0" d="M60.88,96.57h-19.03l-3.87-11.37h-16.53l-3.23,11.37H0l18.71-58.39h21.21l20.97,58.39ZM28.95,54.31l-5.08,17.74h10.73l-5.16-17.74h-.48Z"/>
    <path class="uuid-92af2db2-6f8e-489b-aa44-943e166ebeb0" d="M63.79,38.19h69.43c13.79,0,17.9,6.29,17.9,14.27,0,7.5-5,11.77-10.32,13.55v.24c9.03.97,13.15,5.97,13.15,14.03,0,11.94-9.76,16.29-22.42,16.29H63.79v-58.39ZM133.46,55.44c0-5.16-4.36-5.16-7.34-5.16h-44.03v11.05h42.66c5.16,0,8.71-.81,8.71-5.89ZM134.51,78.75c0-5.4-3.31-5.64-6.94-5.64h-45.48v11.53h44.68c5.08,0,7.74-1.13,7.74-5.89Z"/>
    <path class="uuid-92af2db2-6f8e-489b-aa44-943e166ebeb0" d="M157.26,67.78c0-17.5,9.19-30.64,29.19-30.64,13.87,0,23.87,6.61,24.27,22.34l-15.81,1.53c-.16-7.82-3.31-10.32-8.79-10.32-6.85,0-10.73,4.76-10.73,16.45s3.39,16.85,10.81,16.85c6.69,0,8.15-4.35,9.03-8.71l15.48,2.42c-1.53,14.84-14.43,19.84-25.24,19.84-20.24,0-28.23-11.13-28.23-29.76Z"/>
    <path class="uuid-92af2db2-6f8e-489b-aa44-943e166ebeb0" d="M215.65,38.19h59.84c20.24,0,29.92,10.65,29.92,28.06s-10.73,30.32-31.61,30.32h-58.14v-58.39ZM287.66,66.41c0-11.21-4.92-15-14.27-15h-40.24v31.77h39.03c11.69,0,15.48-6.29,15.48-16.77Z"/>
    <path class="uuid-92af2db2-6f8e-489b-aa44-943e166ebeb0" d="M400.97,82.38v14.19h-88.22v-58.39h86.21v13.87h-67.9v9.11h58.71v13.31h-58.71v7.9h69.92Z"/>
    <path class="uuid-92af2db2-6f8e-489b-aa44-943e166ebeb0" d="M4.84,183.74v-58.39h86.29v13.87H23.14v10.08h58.79v13.23H23.14v21.21H4.84Z"/>
    <path class="uuid-92af2db2-6f8e-489b-aa44-943e166ebeb0" d="M144.35,185.51c-36.93,0-48.39-10.64-48.39-29.84s10.73-32.18,48.79-32.18c32.82,0,44.51,6.53,45.56,21.93l-17.02,1.53c-.73-4.03-1.05-9.92-28.79-9.92-25.24,0-30.32,6.21-30.32,17.1s3.63,18.55,30.16,18.55c23.71,0,29.43-3.23,29.43-7.74v-.48h-18.71v-11.29h36.21v30.56h-13.39l-1.69-6.45c-6.61,5.4-19.68,8.23-31.85,8.23Z"/>
    <path class="uuid-92af2db2-6f8e-489b-aa44-943e166ebeb0" d="M267.58,183.74v-21.69h-52.26v21.69h-18.31v-58.39h18.31v22.26h52.26v-22.26h18.31v58.39h-18.31Z"/>
    <path class="uuid-92af2db2-6f8e-489b-aa44-943e166ebeb0" d="M294.28,183.74v-58.39h17.5v58.39h-17.5Z"/>
    <path class="uuid-92af2db2-6f8e-489b-aa44-943e166ebeb0" d="M357.26,125.35v40.56c0,11.45-7.5,18.79-20.64,18.79-10.56,0-19.92-3.39-20.4-18.55l16.85-2.42c.24,4.68.4,7.82,3.71,7.82,2.5,0,2.98-1.94,2.98-4.84v-41.37h17.5Z"/>
    <path class="uuid-92af2db2-6f8e-489b-aa44-943e166ebeb0" d="M39.11,235.58l27.1-23.06h24.35l-31.05,25.72,29.27,32.66h-22.42l-18.22-20.56h-25.08v20.56H4.84v-58.39h18.31v23.06h15.97Z"/>
    <path class="uuid-92af2db2-6f8e-489b-aa44-943e166ebeb0" d="M175.48,256.71v14.19h-80.8v-58.39h17.5v44.19h63.3Z"/>
    <path class="uuid-92af2db2-6f8e-489b-aa44-943e166ebeb0" d="M232.02,270.9v-41.53h-.56l-9.92,41.53h-14.68l-9.11-41.69h-.64v41.69h-15.89v-58.39h25.81l7.5,36.21h.64l7.34-36.21h25.72v58.39h-16.21Z"/>
    <path class="uuid-92af2db2-6f8e-489b-aa44-943e166ebeb0" d="M272.26,236.71v34.19h-15.81v-58.39h20l16.21,34.84v-34.84h15.65v58.39h-19.6l-16.45-34.19Z"/>
    <path class="uuid-92af2db2-6f8e-489b-aa44-943e166ebeb0" d="M315.65,242.35c0-18.95,7.98-32.1,52.34-32.1s51.21,12.1,51.21,30.32c0,20.89-7.34,32.5-52.66,32.5s-50.88-11.45-50.88-30.72ZM401.05,241.79c0-14.27-5.48-17.74-33.47-17.74s-33.79,3.71-33.79,17.74c0,14.76,5.97,17.74,33.39,17.74s33.87-2.82,33.87-17.74Z"/>
    <path class="uuid-92af2db2-6f8e-489b-aa44-943e166ebeb0" d="M4.84,358.06v-58.39h66.45c14.92,0,19.43,9.52,19.43,18.79,0,14.19-7.18,22.34-23.39,22.34H23.06v17.26H4.84ZM72.82,319.92c0-6.69-4.19-7.26-6.85-7.26H23.06v15.4h42.01c4.36,0,7.74-1.77,7.74-8.14Z"/>
    <path class="uuid-92af2db2-6f8e-489b-aa44-943e166ebeb0" d="M93.71,329.36c0-17.34,9.6-30.72,29.68-30.72s27.66,13.39,27.66,29.6c0,8.47-2.26,15.24-6.05,20.4l6.37,6.29-9.44,8.39-6.69-6.77c-3.79,1.53-7.98,2.5-13.31,2.5-20.48,0-28.23-12.34-28.23-29.68ZM126.93,328.87l4.76,5.56,1.77,3.79c.57-2.74.73-6.21.73-9.03,0-12.26-4.36-16.77-11.21-16.77-7.42,0-11.21,4.52-11.21,16.53,0,12.74,3.63,17.18,10.81,17.18.81,0,2.18-.16,2.9-.4l-7.5-8.23,8.95-8.63Z"/>
    <path class="uuid-92af2db2-6f8e-489b-aa44-943e166ebeb0" d="M157.18,299.68h63.87c15.56,0,20.89,7.82,20.89,16.94,0,7.34-3.63,17.34-17.42,20.08l19.19,21.37h-22.26l-18.14-20.64h-27.9v20.64h-18.23v-58.39ZM223.14,318.31c0-3.63-2.18-5.65-6.94-5.65h-40.81v12.18h39.68c3.79,0,8.06-1.05,8.06-6.53Z"/>
    <path class="uuid-92af2db2-6f8e-489b-aa44-943e166ebeb0" d="M266.45,315.89c0,3.39,3.06,4.35,13.31,4.68l30.48.89c17.98.48,26.93,5.32,26.93,17.18,0,14.11-11.69,21.21-44.76,21.21-30.32,0-45-2.58-45.56-20.24l16.53-2.1c.64,5.08,1.21,9.6,29.51,9.6,23.95,0,26.69-2.34,26.69-5.89,0-2.9-1.45-4.52-9.35-4.76l-34.6-1.21c-18.71-.64-26.77-6.05-26.77-17.74,0-12.5,10.48-19.68,44.43-19.68,31.21,0,42.42,3.15,42.9,18.14l-16.69,1.77c0-5.4-1.77-7.42-26.77-7.42s-26.29,2.18-26.29,5.56Z"/>
    <path class="uuid-92af2db2-6f8e-489b-aa44-943e166ebeb0" d="M355.16,313.55h-16.77v-13.87h50.81v13.87h-16.53v44.51h-17.5v-44.51Z"/>
    <path class="uuid-92af2db2-6f8e-489b-aa44-943e166ebeb0" d="M74.51,414.1v-27.26h18.14v29.6c0,23.22-15.48,30.56-44.51,30.56-31.85,0-44.19-7.9-44.19-31.05v-29.11h18.31v26.93c0,14.11,4.92,19.68,26.37,19.68s25.89-4.68,25.89-19.35Z"/>
    <path class="uuid-92af2db2-6f8e-489b-aa44-943e166ebeb0" d="M94.68,386.84h19.84l10.16,41.53h.73l10.64-41.53h17.82l-17.66,58.39h-23.47l-18.06-58.39Z"/>
    <path class="uuid-92af2db2-6f8e-489b-aa44-943e166ebeb0" d="M195.08,412.08h-.48l-6.13,33.14h-23.55l-12.26-58.39h18.14l6.53,40.72h.48l7.98-40.72h18.31l8.55,40.56h.64l5.56-40.56h17.66l-12.66,58.39h-22.34l-6.45-33.14Z"/>
    <path class="uuid-92af2db2-6f8e-489b-aa44-943e166ebeb0" d="M292.5,445.23h-20.32l-9.36-15.32-8.87,15.32h-18.71l18.47-29.27-17.58-29.11h19.35l9.35,16.61,9.36-16.61h17.9l-18.06,29.27,18.47,29.11Z"/>
    <path class="uuid-92af2db2-6f8e-489b-aa44-943e166ebeb0" d="M309.19,445.23v-21.29l-20.4-37.1h19.03l10.08,21.85h.64l9.6-21.85h17.58l-19.03,37.1.08,21.29h-17.58Z"/>
    <path class="uuid-92af2db2-6f8e-489b-aa44-943e166ebeb0" d="M433.71,431.04v14.19h-88.79v-12.42l56.05-32.1h-55.56v-13.87h87.34v12.5l-55.97,31.69h56.93Z"/>
  </g>
  <g>
    <path class="uuid-92af2db2-6f8e-489b-aa44-943e166ebeb0" d="M62.09,800.28c0-3.95-1.69-5.89-21.37-5.89-21.53,0-22.58,3.55-23.14,9.27l-17.58-2.42c1.37-12.66,10.73-20.08,41.53-20.08,27.98,0,38.71,4.52,38.71,18.39,0,9.76-6.05,18.22-33.55,19.76v5.32h-18.31v-16.45c21.77-.48,33.71-1.29,33.71-7.9ZM37.58,842.21c-6.94,0-9.84-2.5-9.84-7.58s2.9-7.74,9.84-7.74,9.76,2.82,9.76,7.74-2.82,7.58-9.76,7.58Z"/>
    <path class="uuid-92af2db2-6f8e-489b-aa44-943e166ebeb0" d="M83.55,803.1l-.56-13.55c6.77-.57,13.47-2.58,17.5-6.69h12.5v58.39h-17.1v-40.32c-2.58,1.29-9.68,2.18-12.34,2.18Z"/>
    <path class="uuid-92af2db2-6f8e-489b-aa44-943e166ebeb0" d="M203.38,800.28c0,11.45-7.34,17.42-25.97,21.61l-20.89,4.68v.48h47.74v14.19h-81.69v-14.19l48.22-15c10.4-3.23,13.23-5.48,13.23-10.4s-2.98-7.9-19.27-7.9c-25.56,0-26.45,7.66-27.02,12.82l-17.02-2.42c1.13-12.34,10.32-23.14,44.03-23.14s38.63,9.11,38.63,19.27Z"/>
    <path class="uuid-92af2db2-6f8e-489b-aa44-943e166ebeb0" d="M249.84,828.83c20.48,0,23.14-1.86,23.14-5.89,0-4.27-1.69-5.24-18.06-5.24h-16.29v-13.06h14.27c16.61,0,19.27-1.77,19.27-5.89,0-3.31-2.74-5-21.45-5-24.27,0-25.4,5.97-26.13,10.16l-16.85-3.23c2.26-12.1,12.82-19.68,43.71-19.68s38.95,5.16,38.95,15.73c0,5.97-4.6,10.32-10.48,12.5v.4c7.82,2.1,11.94,5.32,11.94,13.23,0,11.21-9.19,18.71-42.42,18.71-31.45,0-40.08-3.47-42.09-15.97l17.18-3.87c.89,4.76,2.02,7.1,25.32,7.1Z"/>
    <path class="uuid-92af2db2-6f8e-489b-aa44-943e166ebeb0" d="M320.56,829.47h-25.32v-11.61l20.89-35h20.89v33.47h6.21v13.15h-6.21v11.77h-16.45v-11.77ZM320.56,797.21l-11.29,19.11h11.29v-19.11Z"/>
    <path class="uuid-92af2db2-6f8e-489b-aa44-943e166ebeb0" d="M384.92,782.86v13.87h-21.37l-1.21,11.05c2.42-2.18,5.73-3.87,10.89-3.87,9.19,0,15,5.97,15,17.82,0,13.47-10.32,20.48-22.66,20.48-9.92,0-18.79-3.79-20.24-16.29l14.43-2.74c.32,4.6,2.58,6.45,6.05,6.45s5.89-2.66,5.89-7.26c0-5.89-2.98-6.21-4.84-6.21-2.82,0-5.24,1.77-6.69,3.39l-10.89-4.27,2.1-32.42h33.55Z"/>
    <path class="uuid-92af2db2-6f8e-489b-aa44-943e166ebeb0" d="M24.76,880.91c-3.79,0-6.85,2.82-7.02,14.52,2.74-1.86,6.21-3.06,10.81-3.06,8.23,0,16.13,4.43,16.13,16.77,0,14.68-10.08,20.24-21.61,20.24-17.1,0-21.69-12.26-21.69-29.11,0-14.11,4.92-31.29,24.6-31.29,8.63,0,16.05,2.66,18.55,14.35l-14.76,3.71c-.32-4.52-1.85-6.13-5-6.13ZM23.39,917.12c3.63,0,4.19-3.39,4.19-6.45,0-4.52-1.21-6.61-4.52-6.61-1.29,0-3.31.56-4.68,1.53,0,6.53,1.05,11.53,5,11.53Z"/>
    <path class="uuid-92af2db2-6f8e-489b-aa44-943e166ebeb0" d="M110.89,883.89h-63.06v-13.87h87.09v12.42l-54.03,46.05h-24.35l54.35-44.6Z"/>
    <path class="uuid-92af2db2-6f8e-489b-aa44-943e166ebeb0" d="M225.56,910.02c0,11.29-9.03,19.35-45.81,19.35s-44.43-6.85-44.43-17.5c0-6.61,4.11-10.81,12.1-13.63-6.94-2.26-9.68-6.37-9.68-11.94,0-10,8.39-17.34,44.43-17.34s41.45,6.21,41.45,15.48c0,6.29-3.06,9.52-8.23,12.42,6.05,1.69,10.16,6.29,10.16,13.15ZM152.74,910.75c0,3.31,1.85,6.45,27.74,6.45,23.71,0,26.21-2.5,26.21-6.45s-2.9-4.84-22.82-5.89l-22.66-1.21c-5.24,2.18-8.47,3.87-8.47,7.1ZM206.69,886.31c0-3.15-2.58-5.64-25.56-5.64s-24.92,1.77-24.92,4.68,2.18,4.76,24.92,6.21l20.48,1.29c3.63-2.1,5.08-3.79,5.08-6.53Z"/>
    <path class="uuid-92af2db2-6f8e-489b-aa44-943e166ebeb0" d="M252.02,917.04c4.03,0,7.02-4.43,7.02-14.11-2.74,1.85-6.29,2.74-10.97,2.74-8.22,0-16.37-4.19-16.37-16.85,0-14.27,10.97-19.84,22.5-19.84,16.21,0,21.05,12.26,21.05,29.11,0,13.15-3.63,31.29-23.87,31.29-9.6,0-17.9-3.47-19.92-14.92l14.84-4.44c.57,3.87,1.77,7.02,5.73,7.02ZM253.23,881.15c-3.63,0-4.27,3.23-4.27,6.53,0,4.27,1.29,6.69,4.68,6.69,1.05,0,2.74-.32,4.43-1.29-.24-7.98-.89-11.94-4.84-11.94Z"/>
    <path class="uuid-92af2db2-6f8e-489b-aa44-943e166ebeb0" d="M338.87,900.59c5.24,2.42,12.26,5.64,16.45,7.26,3.31-2.98,5.56-5.73,7.5-9.44h20.89c-.89,5.81-5.73,10.89-14.03,14.84,3.47,1.05,10.56,1.94,14.03,1.61l1.05,13.06c-2.82.48-5.73.65-9.6.65-6.77,0-14.6-2.18-20-4.92-10.16,3.95-24.84,5.73-33.55,5.73-30.64,0-41.53-6.85-41.53-17.66,0-7.98,5.73-12.34,17.42-14.6-7.26-2.5-10.48-6.53-10.48-11.85,0-9.68,11.77-17.1,42.1-17.1,26.29,0,34.19,6.94,34.19,15.97,0,7.5-8.15,12.98-24.43,16.45ZM300.4,910.34c0,5.16,7.34,8.15,21.21,8.15,5.56,0,10.48-.48,16.29-1.85-8.79-3.39-20.16-8.63-27.82-12.66-6.45,1.13-9.68,3.22-9.68,6.37ZM322.18,893.33l2.9,1.21c11.94-2.58,20.24-5.89,20.24-10,0-2.58-1.77-5.24-17.02-5.24-17.34,0-18.87,3.39-18.87,5.81,0,2.58,4.11,4.6,12.74,8.22Z"/>
  </g>
</svg>