<?xml version="1.0" encoding="UTF-8"?>
<svg id="uuid-805926d5-1dd7-42f4-a39a-2b8a877f2c2f" data-name="Ebene 1" xmlns="http://www.w3.org/2000/svg" viewBox="0 0 1924.19 1121.18">
  <defs>
    <style>
      .uuid-8ba41de5-4770-4c2a-9906-58d671537b31 {
        fill: none;
        stroke: #fb6f50;
        stroke-miterlimit: 10;
        stroke-width: 8.39px;
      }

      .uuid-42b9089d-67ea-4561-a38c-dfac27e6ccf2 {
        fill: #fff;
        stroke-width: 0px;
      }
    </style>
  </defs>
  <path class="uuid-42b9089d-67ea-4561-a38c-dfac27e6ccf2" d="M1083.68,593.83c96.02,44.32,224.53,103.4,301.34,132.95,60.56-54.66,101.93-104.88,137.38-172.83h382.59c-16.25,106.36-104.88,199.42-257.03,271.8,63.52,19.2,193.51,35.45,257.03,29.54l19.2,239.3c-51.7,8.86-104.88,11.82-175.78,11.82-124.08,0-267.37-39.88-366.34-90.11-186.12,72.38-454.97,104.88-614.51,104.88C206.23,1121.18,6.81,995.62,6.81,797.68c0-146.24,104.88-226.01,319.07-267.37-132.95-45.79-192.03-119.65-192.03-217.15C133.85,135.9,349.52,0,904.94,0c481.56,0,626.32,127.04,626.32,292.48,0,137.38-149.2,237.83-447.59,301.34ZM379.06,772.56c0,94.54,134.42,149.2,388.5,149.2,101.93,0,192.03-8.86,298.39-33.98-161.01-62.04-369.3-158.06-509.63-231.92-118.17,20.68-177.26,59.09-177.26,116.7ZM777.9,460.88l53.18,22.16c218.62-47.27,370.77-107.83,370.77-183.17,0-47.27-32.5-96.02-311.68-96.02-317.59,0-345.66,62.04-345.66,106.36,0,47.27,75.34,84.2,233.39,150.67Z"/>
  <path class="uuid-8ba41de5-4770-4c2a-9906-58d671537b31" d="M615.75,532.05c42.84,54.66,87.15,104.88,137.38,159.53,14.77-53.18,14.77-109.31,11.82-163.97h274.76c5.91,91.59-13.3,196.47-85.68,301.34,35.45,10.34,91.59,16.25,125.56,8.86l23.64,230.44c-47.27,11.82-91.59,17.73-137.38,17.73-82.72,0-171.35-17.73-242.26-63.52-56.13,41.36-162.49,72.38-308.73,72.38-285.1,0-410.66-144.76-410.66-314.64,0-141.81,66.47-240.78,230.44-296.91-35.45-56.13-45.79-98.97-45.79-150.67,0-194.99,161.01-295.44,366.34-295.44,163.97,0,296.91,66.47,296.91,220.1,0,87.15-31.02,186.12-236.35,274.76ZM309.97,750.67c0,81.24,56.13,144.76,150.67,144.76,20.68,0,47.27-1.48,72.38-8.86-73.86-62.04-134.42-135.9-196.46-223.05-17.73,28.06-26.59,57.61-26.59,87.15ZM507.91,341.49l17.73,32.5c33.98-16.25,73.86-48.75,73.86-98.97,0-35.45-17.73-54.66-53.18-54.66-28.07,0-56.13,19.2-56.13,57.61,0,22.16,5.91,42.84,17.73,63.52Z"/>
</svg>