<svg width="336" height="141" viewBox="0 0 336 141" fill="none" xmlns="http://www.w3.org/2000/svg">
<path d="M14.3492 37.0008H3.54922V0.800781H19.1992C28.4492 0.800781 31.2492 6.70078 31.2492 12.4508C31.2492 21.2508 26.7992 26.3008 16.7492 26.3008H14.3492V37.0008ZM15.3492 18.4008C18.0492 18.4008 20.1492 17.3008 20.1492 13.3508C20.1492 9.20078 17.5492 8.85078 15.8992 8.85078H14.3492V18.4008H15.3492ZM45.698 28.2008H60.448V37.0008H34.848V0.800781H45.698V28.2008ZM85.8461 0.800781L98.8461 37.0008H87.0461L84.6461 29.9508H74.3961L72.3961 37.0008H61.0961L72.6961 0.800781H85.8461ZM79.3461 10.8008H79.0461L75.8961 21.8008H82.5461L79.3461 10.8008ZM112.018 15.1008H121.918L138.718 0.800781H153.818L134.568 16.7508L152.718 37.0008H138.818L127.518 24.2508H111.968V37.0008H100.668V0.800781H112.018V15.1008ZM178.131 0.800781L191.131 37.0008H179.331L176.931 29.9508H166.681L164.681 37.0008H153.381L164.981 0.800781H178.131ZM171.631 10.8008H171.331L168.181 21.8008H174.831L171.631 10.8008ZM196.656 37.0008V9.40078H186.256V0.800781H217.756V9.40078H207.506V37.0008H196.656ZM231.294 37.0008H220.444V0.800781H231.294V37.0008ZM244.31 37.0008L233.11 0.800781H245.41L251.71 26.5508H252.16L258.76 0.800781H269.81L258.86 37.0008H244.31ZM269.062 29.1508H279.761L274.162 44.2008L265.562 43.5008L269.062 29.1508ZM14.3492 90.0008H3.54922V53.8008H19.1992C28.4492 53.8008 31.2492 59.7008 31.2492 65.4508C31.2492 74.2508 26.7992 79.3008 16.7492 79.3008H14.3492V90.0008ZM15.3492 71.4008C18.0492 71.4008 20.1492 70.3008 20.1492 66.3508C20.1492 62.2008 17.5492 61.8508 15.8992 61.8508H14.3492V71.4008H15.3492ZM47.348 77.2008H45.648V90.0008H34.848V53.8008H50.698C59.698 53.8008 62.998 58.6508 62.998 64.3008C62.998 67.7008 61.798 72.1008 57.548 74.7508L65.048 90.0008H53.348L47.348 77.2008ZM46.848 69.4008C49.198 69.4008 51.848 68.7508 51.848 65.3508C51.848 63.3508 50.848 61.8508 47.898 61.8508H45.648V69.4008H46.848ZM89.557 53.8008L102.557 90.0008H90.757L88.357 82.9508H78.107L76.107 90.0008H64.807L76.407 53.8008H89.557ZM83.057 63.8008H82.757L79.607 74.8008H86.257L83.057 63.8008ZM82.157 46.3008C82.157 49.4508 79.857 51.5008 76.457 51.5008C73.007 51.5008 70.607 49.4508 70.607 46.3008C70.607 43.1508 73.007 41.1008 76.457 41.1008C79.857 41.1008 82.157 43.1508 82.157 46.3008ZM95.257 46.3008C95.257 49.4508 92.957 51.5008 89.507 51.5008C86.057 51.5008 83.707 49.4508 83.707 46.3008C83.707 43.1508 86.057 41.1008 89.507 41.1008C92.957 41.1008 95.257 43.1508 95.257 46.3008ZM131.426 60.4008C116.526 60.4008 115.126 61.7508 115.126 63.8508C115.126 65.9508 117.026 66.5508 123.376 66.7508L142.276 67.3008C153.426 67.6008 158.976 70.6008 158.976 77.9508C158.976 86.7008 151.726 91.1008 131.226 91.1008C112.426 91.1008 103.326 89.5008 102.976 78.5508L113.226 77.2508C113.626 80.4008 113.976 83.2008 131.526 83.2008C146.376 83.2008 148.076 81.7508 148.076 79.5508C148.076 77.7508 147.176 76.7508 142.276 76.6008L120.826 75.8508C109.226 75.4508 104.226 72.1008 104.226 64.8508C104.226 57.1008 110.726 52.6508 131.776 52.6508C151.126 52.6508 158.076 54.6008 158.376 63.9008L148.026 65.0008C148.026 61.6508 146.926 60.4008 131.426 60.4008ZM173.383 81.2008H188.533V90.0008H162.533V53.8008H187.283V62.4008H173.383V68.0508H185.083V76.3008H173.383V81.2008ZM212.563 90.0008L202.363 68.8008V90.0008H192.563V53.8008H204.963L215.013 75.4008V53.8008H224.713V90.0008H212.563ZM237.819 90.0008V62.4008H227.419V53.8008H258.919V62.4008H248.669V90.0008H237.819ZM323.804 63.5008C323.804 68.1508 318.504 72.7008 310.504 74.3508C313.754 75.8508 314.654 76.3008 317.254 77.3008C319.304 75.4508 320.804 73.7008 322.004 71.4008H334.954C334.404 75.0008 331.404 78.1508 326.254 80.6008C328.404 81.2508 332.804 81.8008 334.954 81.6008L335.604 89.7008C333.854 90.0008 332.054 90.1008 329.654 90.1008C325.454 90.1008 320.604 88.7508 317.254 87.0508C310.954 89.5008 301.854 90.6008 296.454 90.6008C277.454 90.6008 271.054 85.7008 271.054 79.3008C271.054 75.1508 273.804 72.0008 281.454 70.5008C277.904 69.0008 276.504 66.5508 276.504 64.2008C276.504 58.2008 283.804 54.1008 302.604 54.1008C318.904 54.1008 323.804 58.4008 323.804 63.5008ZM288.254 74.7508C285.454 75.2508 283.654 76.6508 283.654 78.6008C283.654 81.8008 289.604 83.8508 296.454 83.8508C299.904 83.8508 303.454 83.5508 307.054 82.7008C301.604 80.6008 293.004 77.2508 288.254 74.7508ZM290.254 64.1508C290.254 65.7508 291.354 66.6008 296.654 68.6508L302.104 70.7508C309.904 68.9008 312.654 66.7508 312.654 64.4508C312.654 62.6008 311.554 61.0008 302.104 61.0008C291.354 61.0008 290.254 62.6508 290.254 64.1508ZM15.9992 110.751C13.9492 110.751 12.5492 111.451 12.5492 113.201C12.5492 115.451 15.3492 116.251 18.7992 117.151L21.5992 117.901C26.1992 119.151 30.7492 121.701 30.7492 128.351C30.7492 137.101 23.4992 140.601 15.7992 140.601C10.3992 140.601 1.29922 139.751 0.949219 128.551L10.5492 127.251C10.9492 130.401 11.6992 132.901 16.0992 132.901C18.6492 132.901 20.3492 132.051 20.3492 129.851C20.3492 128.201 18.9492 127.301 16.8492 126.751L14.1492 126.051C8.89922 124.701 2.14922 123.201 2.14922 114.851C2.14922 107.101 8.64922 103.151 16.3492 103.151C22.8992 103.151 29.8492 104.601 30.1492 113.901L20.3492 115.001C20.3492 111.651 18.9492 110.751 15.9992 110.751ZM44.7691 140.001H33.9691V103.801H49.6191C58.8691 103.801 61.6691 109.701 61.6691 115.451C61.6691 124.251 57.2191 129.301 47.1691 129.301H44.7691V140.001ZM45.7691 121.401C48.4691 121.401 50.5691 120.301 50.5691 116.351C50.5691 112.201 47.9691 111.851 46.3191 111.851H44.7691V121.401H45.7691ZM81.0773 140.601C68.3773 140.601 63.5773 132.951 63.5773 122.201C63.5773 111.451 69.5273 103.151 81.9773 103.151C94.4773 103.151 99.1273 111.451 99.1273 121.501C99.1273 133.201 93.5773 140.601 81.0773 140.601ZM81.4773 132.201C85.3773 132.201 88.0273 129.951 88.0273 121.951C88.0273 114.351 85.9773 111.701 81.7273 111.701C77.1273 111.701 74.7773 114.501 74.7773 121.951C74.7773 129.851 77.0273 132.201 81.4773 132.201ZM138.814 119.401C141.164 119.401 143.814 118.751 143.814 115.351C143.814 113.101 142.464 111.851 139.514 111.851H114.214V119.401H138.814ZM102.914 140.001V103.801H142.514C152.164 103.801 155.464 108.651 155.464 114.301C155.464 118.851 153.214 125.051 144.664 126.751L156.564 140.001H142.764L131.514 127.201H114.214V140.001H102.914ZM167.067 140.001V112.401H156.667V103.801H188.167V112.401H177.917V140.001H167.067ZM201.704 131.201H216.454V140.001H190.854V103.801H201.704V131.201ZM230.952 140.001H220.102V103.801H230.952V140.001ZM252.269 140.601C239.719 140.601 234.769 133.701 234.769 122.151C234.769 111.301 240.469 103.151 252.869 103.151C261.469 103.151 267.669 107.251 267.919 117.001L258.119 117.951C258.019 113.101 256.069 111.551 252.669 111.551C248.419 111.551 246.019 114.501 246.019 121.751C246.019 129.301 248.119 132.201 252.719 132.201C256.869 132.201 257.769 129.501 258.319 126.801L267.919 128.301C266.969 137.501 258.969 140.601 252.269 140.601ZM302.781 140.001H291.931V126.551H281.831V140.001H270.981V103.801H281.831V117.601H291.931V103.801H302.781V140.001Z" fill="#24353F"/>
</svg>
