<?xml version="1.0" encoding="UTF-8"?>
<svg id="uuid-6a32a11e-b99b-4003-932d-a61517935103" data-name="Ebene 1" xmlns="http://www.w3.org/2000/svg" viewBox="0 0 1200 405.7">
  <defs>
    <style>
      .uuid-98daf7de-69b7-4cab-b475-1bbfb1e1c051 {
        fill: #ff5700;
        stroke-width: 0px;
      }
    </style>
  </defs>
  <polygon class="uuid-98daf7de-69b7-4cab-b475-1bbfb1e1c051" points="925.25 309.5 923 303.2 925.78 302.21 928.28 309.2 931.82 307.94 927.76 296.54 911.55 302.33 913.12 306.73 919.45 304.47 921.7 310.77 925.25 309.5"/>
  <path class="uuid-98daf7de-69b7-4cab-b475-1bbfb1e1c051" d="M940.83,325.84l-2.2-4.12-9.38,4.99c-.47.25-.94.37-1.42.36-.48-.01-.92-.14-1.32-.4s-.73-.62-.98-1.1c-.25-.47-.37-.94-.36-1.42.01-.48.15-.92.4-1.32.26-.4.62-.73,1.09-.98l9.38-4.99-2.2-4.12-9.73,5.18c-1.16.61-2.01,1.42-2.56,2.42-.55,1-.8,2.11-.73,3.33s.45,2.5,1.15,3.81c.69,1.3,1.53,2.32,2.51,3.06.98.74,2.04,1.16,3.18,1.26,1.14.1,2.28-.15,3.44-.77l9.73-5.18Z"/>
  <path class="uuid-98daf7de-69b7-4cab-b475-1bbfb1e1c051" d="M941.04,315.93c.15-.53.1-1.04-.16-1.53-.27-.5-.66-.84-1.19-1.01s-1.02-.13-1.5.12c-.47.25-.79.64-.94,1.17-.15.53-.09,1.05.18,1.55.26.49.65.82,1.17.99.52.17,1.02.13,1.49-.12.47-.25.79-.64.94-1.17Z"/>
  <path class="uuid-98daf7de-69b7-4cab-b475-1bbfb1e1c051" d="M941.12,321.94c.52.17,1.02.13,1.49-.12.48-.25.79-.64.94-1.17.15-.53.1-1.04-.16-1.53-.27-.5-.66-.84-1.19-1.01-.52-.17-1.02-.13-1.5.12-.48.25-.79.64-.94,1.17s-.09,1.05.18,1.55c.26.49.65.82,1.17.99Z"/>
  <path class="uuid-98daf7de-69b7-4cab-b475-1bbfb1e1c051" d="M948.35,336.53l-4.45-5.95-13.78,10.31,2.8,3.74,4.55-3.4.97,1.29-2.74,5.82,3.04,4.06,3.05-6.65c.88.46,1.78.66,2.72.6,1-.07,2-.47,2.99-1.21.98-.73,1.66-1.57,2.04-2.52.38-.95.47-1.95.27-2.99s-.68-2.08-1.45-3.1ZM945.35,340.27c-.12.35-.38.68-.78.97-.39.29-.77.44-1.14.46-.37.01-.72-.09-1.07-.32-.34-.23-.68-.56-1.01-1l-.99-1.32,3.34-2.5.99,1.32c.33.44.55.86.66,1.26s.11.78-.01,1.13Z"/>
  <polygon class="uuid-98daf7de-69b7-4cab-b475-1bbfb1e1c051" points="972.5 361.05 963.21 366.02 963.05 365.89 966.18 355.83 961.7 352.12 950.74 365.39 954.26 368.3 960.64 360.58 960.74 360.67 957.4 370.72 959.53 372.48 968.73 367.36 968.84 367.44 962.5 375.11 966.02 378.02 976.98 364.76 972.5 361.05"/>
  <path class="uuid-98daf7de-69b7-4cab-b475-1bbfb1e1c051" d="M987.22,369.15c.48.27.99.34,1.52.2.53-.14.93-.44,1.19-.91.26-.47.31-.97.16-1.49-.16-.53-.48-.92-.96-1.2-.5-.28-1.01-.35-1.55-.21-.53.14-.93.44-1.19.91-.26.47-.31.97-.15,1.49.16.53.49.93.99,1.21Z"/>
  <path class="uuid-98daf7de-69b7-4cab-b475-1bbfb1e1c051" d="M972.65,382.45l4.4,2.46,2.48-2.39,4.95,2.77-.74,3.36,4.4,2.46,3.45-17.79-5.57-3.12-13.37,12.24ZM986.54,375.94l-1.28,5.79-3.11-1.74,4.27-4.12.12.07Z"/>
  <path class="uuid-98daf7de-69b7-4cab-b475-1bbfb1e1c051" d="M993.79,368.36c-.5-.28-1.01-.35-1.55-.21-.53.14-.93.44-1.19.91s-.31.97-.15,1.49c.16.53.49.93.99,1.21.48.27.99.34,1.52.2.53-.14.93-.44,1.19-.91.26-.47.32-.97.16-1.49-.16-.52-.48-.92-.96-1.19Z"/>
  <path class="uuid-98daf7de-69b7-4cab-b475-1bbfb1e1c051" d="M1011.27,382.85c-.98-1.08-2.3-1.93-3.97-2.53l-6.16-2.23-5.85,16.18,6.23,2.25c1.64.59,3.19.79,4.63.58s2.71-.8,3.8-1.77,1.95-2.3,2.56-3.99c.61-1.69.8-3.25.58-4.7-.22-1.45-.83-2.71-1.81-3.8ZM1008.08,389.75c-.41,1.13-.87,1.95-1.4,2.48-.53.52-1.12.81-1.78.87-.66.05-1.39-.06-2.19-.35l-1.68-.61,3.15-8.72,1.55.56c.84.31,1.51.69,2,1.16s.77,1.07.85,1.82c.07.74-.09,1.68-.5,2.8Z"/>
  <path class="uuid-98daf7de-69b7-4cab-b475-1bbfb1e1c051" d="M1033.86,388.71c-.57-.68-1.28-1.26-2.13-1.72-.84-.46-1.8-.79-2.87-.99-1.52-.28-2.96-.21-4.32.23-1.36.43-2.52,1.23-3.49,2.39-.97,1.16-1.63,2.68-1.98,4.56-.35,1.87-.29,3.52.19,4.95.47,1.43,1.26,2.59,2.37,3.48,1.11.9,2.44,1.49,3.99,1.78,1.24.23,2.36.24,3.37.04,1.01-.21,1.89-.56,2.64-1.07.75-.51,1.37-1.1,1.86-1.77s.82-1.37,1.01-2.07l-4.65-.9c-.12.35-.29.66-.5.92-.21.26-.46.47-.74.63-.29.16-.61.26-.96.3-.36.05-.75.03-1.17-.05-.74-.14-1.35-.43-1.81-.88-.46-.45-.77-1.05-.92-1.8-.15-.75-.13-1.64.07-2.68.18-.98.48-1.79.88-2.44.4-.65.9-1.11,1.51-1.39.6-.28,1.29-.34,2.06-.2.44.08.82.22,1.15.41.32.19.59.42.79.69.2.27.34.58.43.92.08.34.1.71.06,1.1l4.66.87c.11-1.07.03-2.05-.23-2.94-.26-.89-.68-1.68-1.25-2.37Z"/>
  <polygon class="uuid-98daf7de-69b7-4cab-b475-1bbfb1e1c051" points="1052.68 395.13 1046.5 395.01 1046.63 388.29 1041.96 388.2 1041.62 405.4 1046.3 405.49 1046.43 398.77 1052.61 398.89 1052.48 405.61 1057.15 405.7 1057.49 388.5 1052.81 388.41 1052.68 395.13"/>
  <polygon class="uuid-98daf7de-69b7-4cab-b475-1bbfb1e1c051" points="1069.54 400.78 1069.16 397.85 1076.19 396.93 1075.7 393.19 1068.67 394.12 1068.28 391.19 1075.95 390.18 1075.46 386.45 1063.16 388.06 1065.4 405.13 1077.67 403.51 1077.18 399.78 1069.54 400.78"/>
  <polygon class="uuid-98daf7de-69b7-4cab-b475-1bbfb1e1c051" points="1090.98 382.57 1093.45 391.23 1093.32 391.27 1084.97 384.28 1081.15 385.37 1085.87 401.92 1090.36 400.64 1087.88 391.94 1087.98 391.91 1096.44 398.91 1100.19 397.84 1095.47 381.29 1090.98 382.57"/>
  <polygon class="uuid-98daf7de-69b7-4cab-b475-1bbfb1e1c051" points="1112.26 377.98 1110.07 376.39 1108.54 378.97 1107.57 376.16 1105.12 377.27 1106.58 379.85 1103.64 379.31 1103.39 382 1106.35 382.03 1104.41 384.27 1106.61 385.86 1108.14 383.28 1109.11 386.09 1111.56 384.98 1110.1 382.4 1113.04 382.94 1113.29 380.24 1110.33 380.22 1112.26 377.98"/>
  <path class="uuid-98daf7de-69b7-4cab-b475-1bbfb1e1c051" d="M1140.85,367.3c.6-.3,1.18-.69,1.78-1.13l.37-.28-1.97-2.65-3.28,2.45-3.25-1.5-3,2.24,1.03.47c.94.43,1.71.79,2.55,1-.44.19-.86.43-1.22.69l-1.71,1.27c-.43.32-.95.47-1.45.41-.5-.06-.95-.33-1.27-.75-.32-.42-.44-.93-.36-1.43.08-.5.37-.95.8-1.27l6.78-5.06-1.97-2.65-6.76,5.05c-1.14.85-1.89,2.07-2.12,3.42-.23,1.37.12,2.76.97,3.9.87,1.17,2.1,1.83,3.45,1.89-.33,1.31-.04,2.67.83,3.84.85,1.14,2.08,1.86,3.46,2.04.22.03.43.04.65.04,1.14,0,2.27-.38,3.23-1.1l3.01-2.25c.83-.62,1.35-1.41,1.5-2.28.12-.7,0-1.41-.36-2.08l2.89,1.36,3.02-2.25-6.44-2.99c-.35-.16-.74-.29-1.15-.39ZM1140.28,372.04c-.1.47-.39.91-.83,1.23l-3.05,2.28c-.9.67-2.07.52-2.71-.34-.65-.87-.46-2.03.44-2.7l4-2.99c.08.04.15.07.23.11.64.29,1.24.56,1.6,1.04.31.41.42.89.31,1.37Z"/>
  <path class="uuid-98daf7de-69b7-4cab-b475-1bbfb1e1c051" d="M1161.04,349.9l-8.69-7.98-3.11,3.39,8.69,7.98c.32.3.55.6.69.9.14.29.18.58.13.86-.05.28-.19.54-.43.8-.23.25-.48.41-.75.49s-.56.06-.87-.04c-.31-.1-.63-.3-.95-.57l-3.16,3.44c.97.9,1.94,1.43,2.92,1.59s1.91.03,2.81-.38c.9-.41,1.72-1.03,2.47-1.84.86-.94,1.45-1.92,1.76-2.97.31-1.04.34-2.05.1-3.04-.25-.99-.78-1.86-1.6-2.62Z"/>
  <path class="uuid-98daf7de-69b7-4cab-b475-1bbfb1e1c051" d="M1173.47,331.43l-9.11-6.21-2.63,3.86,8.78,5.98c.44.3.77.67.98,1.09s.3.88.26,1.36c-.04.48-.21.94-.51,1.38-.3.44-.66.77-1.09.98s-.88.3-1.36.26c-.48-.04-.94-.21-1.38-.51l-8.78-5.98-2.63,3.86,9.11,6.21c1.08.74,2.19,1.12,3.33,1.14,1.14.03,2.23-.28,3.29-.9,1.06-.63,2-1.56,2.84-2.78.83-1.22,1.34-2.43,1.54-3.65.2-1.21.08-2.35-.36-3.4-.44-1.05-1.2-1.95-2.28-2.69Z"/>
  <polygon class="uuid-98daf7de-69b7-4cab-b475-1bbfb1e1c051" points="1171.52 311.1 1179.66 314.95 1179.61 315.07 1168.85 316.75 1167.15 320.34 1182.71 327.69 1184.71 323.47 1176.53 319.6 1176.58 319.51 1187.41 317.75 1189.08 314.23 1173.52 306.87 1171.52 311.1"/>
  <path class="uuid-98daf7de-69b7-4cab-b475-1bbfb1e1c051" d="M1193.17,291.02c-.89-.95-2.08-1.63-3.59-2.07l-2.29-.66-2.11,7.33,3.2.92.86-3c.46.14.83.37,1.12.68.3.33.49.75.55,1.27.07.51,0,1.11-.19,1.79-.22.78-.59,1.37-1.11,1.79-.52.42-1.16.66-1.92.72-.76.07-1.63-.04-2.6-.32-.96-.28-1.74-.65-2.34-1.12-.6-.47-1-1.03-1.21-1.66-.21-.63-.2-1.33.01-2.08.1-.35.23-.66.39-.93.16-.27.35-.5.57-.68s.46-.31.72-.4c.26-.09.54-.13.85-.11l1.3-4.54c-.85-.15-1.69-.13-2.49.07-.81.2-1.56.55-2.26,1.05-.7.5-1.3,1.13-1.82,1.9s-.92,1.63-1.2,2.61c-.32,1.12-.43,2.21-.34,3.3.09,1.08.4,2.1.91,3.05.52.95,1.24,1.79,2.18,2.51.94.72,2.09,1.28,3.45,1.67,1.74.5,3.35.59,4.81.28s2.71-.99,3.74-2.01,1.78-2.34,2.24-3.95c.41-1.44.5-2.8.25-4.08-.25-1.28-.81-2.39-1.7-3.34Z"/>
  <polygon class="uuid-98daf7de-69b7-4cab-b475-1bbfb1e1c051" points="1194.91 277.74 1191.97 277.36 1192.86 270.33 1189.13 269.85 1188.24 276.89 1185.3 276.52 1186.28 268.85 1182.54 268.37 1180.98 280.68 1198.05 282.84 1199.61 270.57 1195.87 270.1 1194.91 277.74"/>
  <polygon class="uuid-98daf7de-69b7-4cab-b475-1bbfb1e1c051" points="1192.4 241.47 1188.65 241.77 1189.18 248.44 1186.23 248.67 1185.64 241.27 1181.89 241.57 1182.85 253.63 1200 252.27 1199.63 247.61 1192.93 248.14 1192.4 241.47"/>
  <path class="uuid-98daf7de-69b7-4cab-b475-1bbfb1e1c051" d="M1187.09,221.73c-.94-.35-2.02-.39-3.22-.13-1.19.26-2.16.75-2.9,1.46s-1.23,1.58-1.48,2.62c-.25,1.04-.23,2.18.04,3.42l1.6,7.25,16.8-3.72-1.01-4.56-5.55,1.23-.35-1.58,4.89-4.18-1.1-4.96-5.52,4.8c-.61-.78-1.35-1.34-2.23-1.67ZM1183.78,230.99l-.36-1.61c-.12-.54-.15-1.01-.09-1.42.06-.41.22-.75.48-1.03.26-.27.63-.46,1.11-.57.48-.11.88-.09,1.22.05s.62.38.84.74c.22.35.39.79.51,1.33l.36,1.61-4.07.9Z"/>
  <path class="uuid-98daf7de-69b7-4cab-b475-1bbfb1e1c051" d="M1174.8,212.93l18.09-1.04-1.85-4.69-3.43.29-2.09-5.28,2.7-2.14-1.85-4.69-13.92,11.61,2.35,5.94ZM1182.67,204.48l1.31,3.31-5.91.49-.05-.12,4.65-3.68Z"/>
  <path class="uuid-98daf7de-69b7-4cab-b475-1bbfb1e1c051" d="M1160.41,184.56l2.4,4,9.11-5.47c.46-.27.92-.42,1.4-.43.48-.01.93.1,1.34.33.42.23.76.58,1.04,1.04.27.46.42.92.43,1.4.01.48-.1.93-.34,1.34-.24.42-.58.76-1.04,1.03l-9.11,5.47,2.4,4.01,9.45-5.67c1.12-.67,1.94-1.52,2.44-2.55s.69-2.14.56-3.37c-.13-1.22-.58-2.47-1.34-3.74-.76-1.26-1.65-2.24-2.66-2.93-1.02-.69-2.1-1.06-3.24-1.1-1.14-.04-2.27.27-3.4.95l-9.45,5.67Z"/>
  <polygon class="uuid-98daf7de-69b7-4cab-b475-1bbfb1e1c051" points="1170.33 169.01 1162.46 159.47 1159.55 161.87 1164.45 167.8 1162.17 169.69 1157.66 164.22 1154.75 166.61 1159.27 172.08 1156.98 173.96 1152.07 168 1149.16 170.4 1157.05 179.96 1170.33 169.01"/>
  <polygon class="uuid-98daf7de-69b7-4cab-b475-1bbfb1e1c051" points="1143.65 152.62 1143.75 152.71 1142.27 163.49 1145.22 166.15 1156.73 153.35 1153.26 150.23 1147.21 156.95 1147.14 156.88 1148.56 146 1145.66 143.39 1134.15 156.19 1137.63 159.31 1143.65 152.62"/>
  <polygon class="uuid-98daf7de-69b7-4cab-b475-1bbfb1e1c051" points="1128.14 150.32 1130.56 149.1 1129.01 146.58 1131.94 147.03 1132.12 144.33 1129.13 144.4 1130.99 142.08 1128.75 140.59 1127.33 143.21 1126.24 140.42 1123.82 141.64 1125.37 144.16 1122.44 143.71 1122.26 146.41 1125.25 146.34 1123.39 148.66 1125.63 150.15 1127.04 147.53 1128.14 150.32"/>
  <path class="uuid-98daf7de-69b7-4cab-b475-1bbfb1e1c051" d="M375.78,76.84C375.78,33.04,340.79,0,297.35,0h-80.35v268.94h38.45V38.42h41.91c22.68,0,39.98,17.67,39.98,40.34s-16.92,40.34-39.98,40.34h-41.14l80.35,149.84h43.45l-64.59-121.02c35.76-6.92,60.36-34.19,60.36-71.08Z"/>
  <polygon class="uuid-98daf7de-69b7-4cab-b475-1bbfb1e1c051" points="467.72 0 495.78 195.94 439.65 195.94 467.72 0 428.89 0 390.44 268.94 429.27 268.94 434.65 230.52 500.78 230.52 506.16 268.94 544.99 268.94 506.55 0 467.72 0"/>
  <rect class="uuid-98daf7de-69b7-4cab-b475-1bbfb1e1c051" x="564.72" y="0" width="38.45" height="268.94"/>
  <rect class="uuid-98daf7de-69b7-4cab-b475-1bbfb1e1c051" x="720.05" y="0" width="38.45" height="268.94"/>
  <polygon class="uuid-98daf7de-69b7-4cab-b475-1bbfb1e1c051" points="603.17 0 680.06 268.94 720.05 268.94 643.15 0 603.17 0"/>
  <polygon class="uuid-98daf7de-69b7-4cab-b475-1bbfb1e1c051" points="1036.67 0 1064.73 195.94 1008.6 195.94 1036.67 0 997.83 0 959.39 268.94 998.22 268.94 1003.6 230.52 1069.73 230.52 1075.11 268.94 1113.94 268.94 1075.5 0 1036.67 0"/>
  <path class="uuid-98daf7de-69b7-4cab-b475-1bbfb1e1c051" d="M946.82,230.52h-118.8V38.42h53.12c-23.45,20.36-38.45,46.1-38.45,77.61,0,34.58,21.86,61.86,58.76,61.86,16.53,0,31.91-5.38,44.98-15.75v-57c-15.11,35.23-51.13,34.72-51.13,34.72-21.53,0-30.26-15.75-30.26-36.11,0-24.65,19.32-53.1,31.76-64.78C912.55,26.33,917.25,18.92,973.1,0h-183.52v268.94h157.25v-38.42Z"/>
  <path class="uuid-98daf7de-69b7-4cab-b475-1bbfb1e1c051" d="M63.43.04c8.46,14.21,14.61,50.71,14.61,67.22C78.03,146.4,0,165.99,0,230.91c0,13.45,3.46,26.89,11.53,38.03h52.8c-22.5-19.09-19.82-32.01-19.82-32.01h33.94c53.76-4.66,40.44-94.23,40.44-94.23l49.47,126.24h41.13L104.56.04h-41.13ZM76.16,209.88h-31.61c0-27.12,17.44-54.78,17.44-54.78,15.04-29.85,27.6-49.76,24.5-95.9,25.62,60.51,26.12,62.16,27.27,77.36,0,0,3.47,73.33-37.61,73.33Z"/>
</svg>