<?xml version="1.0" encoding="UTF-8"?>
<svg id="uuid-44374152-f96b-4dde-ad9e-cc9b30381c2d" data-name="Ebene 1" xmlns="http://www.w3.org/2000/svg" viewBox="0 0 800 635">
  <defs>
    <style>
      .uuid-f3bb8c9d-ba7e-4d20-8387-a3ee176453ca {
        fill: #a6fca3;
      }

      .uuid-f3bb8c9d-ba7e-4d20-8387-a3ee176453ca, .uuid-b9132e50-1a87-4431-8e07-ccfdcb41a915 {
        stroke-width: 0px;
      }

      .uuid-b9132e50-1a87-4431-8e07-ccfdcb41a915 {
        fill: #fff;
      }
    </style>
  </defs>
  <polygon class="uuid-f3bb8c9d-ba7e-4d20-8387-a3ee176453ca" points="148.65 2.32 157.48 63.97 139.82 63.97 148.65 2.32 136.43 2.32 124.34 86.93 136.55 86.93 138.25 74.84 159.05 74.84 160.74 86.93 172.96 86.93 160.86 2.32 148.65 2.32"/>
  <rect class="uuid-f3bb8c9d-ba7e-4d20-8387-a3ee176453ca" x="179.16" y="2.32" width="12.1" height="84.61"/>
  <rect class="uuid-f3bb8c9d-ba7e-4d20-8387-a3ee176453ca" x="228.03" y="2.32" width="12.1" height="84.61"/>
  <polygon class="uuid-f3bb8c9d-ba7e-4d20-8387-a3ee176453ca" points="191.26 2.32 215.45 86.93 228.03 86.93 203.84 2.32 191.26 2.32"/>
  <polygon class="uuid-f3bb8c9d-ba7e-4d20-8387-a3ee176453ca" points="327.63 2.32 336.46 63.97 318.8 63.97 327.63 2.32 315.42 2.32 303.32 86.93 315.54 86.93 317.23 74.84 338.03 74.84 339.73 86.93 351.94 86.93 339.85 2.32 327.63 2.32"/>
  <g>
    <path class="uuid-f3bb8c9d-ba7e-4d20-8387-a3ee176453ca" d="M299.37,74.84h-37.37V14.41h16.71c-7.38,6.41-12.09,14.5-12.09,24.41,0,10.88,6.88,19.46,18.49,19.46,5.2,0,10.04-1.69,14.15-4.96v-17.93c-4.76,11.08-16.09,10.92-16.09,10.92-6.77,0-9.52-4.96-9.52-11.36,0-7.75,6.08-16.7,9.99-20.38,4.95-3.97,6.43-6.3,24-12.25h-57.73v84.61h49.47v-12.09Z"/>
    <path class="uuid-f3bb8c9d-ba7e-4d20-8387-a3ee176453ca" d="M25.47,68.35h-9.94c0-8.53,5.49-17.23,5.49-17.23,4.73-9.39,8.68-15.66,7.71-30.17,8.06,19.03,8.22,19.56,8.58,24.34,0,0,1.09,23.07-11.83,23.07M21.46,2.34c2.66,4.47,4.6,15.95,4.6,21.15,0,24.89-24.55,31.06-24.55,51.48,0,4.23,1.09,8.46,3.63,11.96h16.61c-7.08-6.01-6.23-10.07-6.23-10.07h10.68c16.91-1.47,12.72-29.64,12.72-29.64l15.56,39.71h12.94L34.4,2.34h-12.94Z"/>
  </g>
  <path class="uuid-b9132e50-1a87-4431-8e07-ccfdcb41a915" d="M751.2,571.26l15.6,4.61-10.16,13.23,9.57,6.85,9.45-13.82,9.45,13.82,9.57-6.85-10.28-13.35,15.6-4.49-3.66-11.34-15.24,5.55.47-15.95h-11.82l.47,16.07-15.36-5.55-3.66,11.23ZM703.94,549.52h-24.1v82.71h11.82v-82.71l23.63,82.71h24.1v-82.71h-11.82v82.71l-23.63-82.71ZM669.2,632.23v-11.82h-30.6v-23.63h30.6v-11.82h-30.6v-23.63h30.6v-11.82h-42.42v82.71h42.42ZM593.11,618.64c0-13.59,20.56-24.69,20.91-44.54l-.24,25.88c-.12,7.8-.35,28.71-11.82,28.71-5.67,0-8.86-4.84-8.86-10.04M526.47,632.23h11.82v-82.71l23.63,82.71h14.18v-50.57c0-10.28,1.89-26.58,15.48-26.58,8.86,0,12.64,6.85,12.64,14.89,0,20.09-22.92,27.77-22.92,47.97,0,5.08,1.42,10.16,4.37,14.3h16.07c14.65,0,15.01-23.16,15.01-33.32v-23.99c0-14.41-6.62-27.06-22.57-27.06-18.79,0-21.62,18.91-21.62,33.79v44.78l-21.98-76.92h-24.1v82.71ZM480.39,571.73c0-6.73,4.96-12.17,11.82-12.17s11.82,5.44,11.82,12.17v38.28c0,6.73-4.96,12.17-11.82,12.17s-11.82-5.44-11.82-12.17v-38.28ZM468.58,571.85v38.05c0,13.35,10.28,24.1,23.75,24.1s23.51-10.75,23.51-24.1v-38.05c0-13.35-10.04-24.1-23.51-24.1s-23.75,10.75-23.75,24.1M381.85,632.23h23.87l11.82-82.71,11.82,82.71h23.87l11.82-82.71h-11.93l-11.82,82.71-11.82-82.71h-23.87l-11.82,82.71-11.82-82.71h-11.93l11.82,82.71ZM293.11,621.48c-14.42,0-21.15-16.66-21.15-28.83h8.04c10.04,0,25.52,5.79,25.52,17.96,0,6.97-6.03,10.87-12.41,10.87M271.96,589.1c1.3-17.13,13-29.54,30.6-29.54s30.6,12.17,31.55,29.54h-62.15ZM260.03,592.29c0,19.97,12.29,41,34.38,41,11.82,0,21.74-6.85,21.74-19.5,0-16.66-17.49-21.15-31.08-21.15h40.17v39.58h11.82v-68.18c-8.27-10.63-20.68-16.31-34.03-16.31-25.4,0-43.01,19.61-43.01,44.55M216.91,549.52h-24.1v82.71h11.82v-82.71l23.63,82.71h24.1v-82.71h-11.82v82.71l-23.63-82.71ZM134.91,609.9c0,13.59,10.4,24.1,23.75,24.1s23.51-10.52,23.51-24.1v-60.38h-11.82v60.5c0,6.97-5.08,12.17-11.82,12.17s-11.82-5.2-11.82-12.17v-60.5h-11.82v60.38ZM118.48,609.54c0,6.5-5.08,11.58-11.58,11.58-3.31,0-6.5-1.42-8.74-3.66l-36.51-36.51c-2.25-2.25-3.66-5.44-3.66-8.74,0-6.5,5.08-11.58,11.58-11.58,3.19,0,6.38,1.3,8.74,3.66l36.51,36.51c2.36,2.36,3.66,5.55,3.66,8.74M46.41,572.32c0,6.26,2.48,12.64,6.97,17.13l36.27,36.27c4.61,4.61,10.99,7.09,17.37,7.09,13.23,0,23.16-9.93,23.16-23.16,0-6.38-2.48-12.76-7.09-17.37l-36.27-36.27c-4.49-4.49-10.87-6.97-17.25-6.97-13.23,0-23.16,10.04-23.16,23.28M17.46,608.36v23.87h11.82v-23.87l17.72-58.84h-12.17l-6.85,24.46c-2.6,9.22-4.37,23.51-4.37,33.08h-.36c0-9.57-1.89-23.87-4.49-33.08l-6.85-24.46H-.26l17.72,58.84Z"/>
  <path class="uuid-b9132e50-1a87-4431-8e07-ccfdcb41a915" d="M622.53,487.72h26.35c2.01,3.9,4.84,7.92,4.84,12.41,0,6.85-5.67,11.22-12.17,11.22h-19.02c-6.73,0-12.17-4.96-12.17-11.82s5.44-11.82,12.17-11.82M598.54,463.97c0,7.44,3.43,14.06,9.93,17.84-6.5,3.78-9.93,10.4-9.93,17.84,0,13.47,10.75,23.51,24.1,23.51h18.79c9.22,0,15.48-5.67,15.48-15.01,0-2.72-.47-5.44-1.3-8.03l12.29,23.04h13.47l-15.01-27.77c-2.48-4.61-7.21-9.33-11.7-11.93l.24-.35c6.62,3.9,13,4.61,20.56,4.61v-11.82h-19.5l-8.51-15.71h-13.35c4.96,9.1,7.56,14.53,16.54,20.32l-.24.35c-4.73-2.72-11.82-4.96-17.25-4.96h-10.63c-6.73,0-12.17-4.96-12.17-11.82s5.44-11.82,12.17-11.82h39.94v-11.82h-39.82c-13.35,0-24.1,10.04-24.1,23.51M510.76,462.2l15.6,4.61-10.16,13.23,9.57,6.85,9.45-13.82,9.45,13.82,9.57-6.85-10.28-13.35,15.6-4.49-3.66-11.34-15.24,5.55.47-15.95h-11.82l.47,16.07-15.36-5.55-3.66,11.23ZM475.31,524.47c13.94,0,25.99-8.27,25.99-23.16,0-24.93-35.45-21.62-35.45-38.99,0-8.03,7.33-11.34,14.3-11.34,9.45,0,17.25,6.38,18.31,15.95v-21.74c-5.32-4.02-11.82-6.03-18.43-6.03-14.3,0-25.99,8.86-25.99,23.87,0,25.88,35.45,21.27,35.45,37.93,0,7.8-7.33,11.7-14.3,11.7-9.69,0-19.97-6.74-21.15-16.9v21.62c6.03,4.73,13.71,7.09,21.27,7.09M408.67,523.17h42.42v-11.82h-30.6v-70.89h-11.82v82.71ZM367.08,509.34c0-16.9,22.57-22.33,28.95-33.2,0,12.17-1.18,43.48-18.79,43.48-6.26,0-10.16-4.02-10.16-10.28M372.75,452.27c7.09,0,14.18,4.02,14.18,11.82s-6.97,11.82-14.18,11.82h-32.85v-23.63h32.85ZM339.9,523.17v-35.45h35.21c.95,0,1.89,0,2.84-.12-8.98,5.55-22.69,14.3-22.69,26.23,0,3.31,1.06,6.62,3.07,9.33h19.02c20.2,0,21.86-31.31,21.86-45.61v-13.47c0-13.47-10.75-23.63-24.1-23.63h-47.03v82.71h11.82ZM304.46,523.17h11.82v-82.71h-11.82v82.71ZM220.57,481.81c0,24.58,18.55,43.13,43.13,43.13,11.93,0,22.45-4.37,30.13-11.7v-31.31h-41.95v11.82h40.88c-4.49,11.58-15.48,19.38-29.07,19.38-17.84,0-31.31-13.47-31.31-31.31s13.47-31.31,31.31-31.31c14.77,0,26.47,9.22,30.13,22.45v-22.57c-7.68-7.33-18.2-11.7-30.13-11.7-24.58,0-43.13,18.55-43.13,43.13M160.19,452.27c6.74,0,12.29,4.96,12.29,11.82s-5.55,11.82-12.29,11.82h-34.15v-23.63h34.15ZM114.23,440.46v82.71h11.82v-35.45h26.7l20.56,35.45h13.59c-9.33-16.54-16.66-35.21-37.1-39.82v-.35c3.9.83,7.8,1.3,11.82,1.3,13.59,0,22.69-5.55,22.69-20.2,0-13.47-10.75-23.63-24.1-23.63h-45.96ZM68.15,462.67c0-6.73,4.96-12.17,11.82-12.17s11.82,5.44,11.82,12.17v38.28c0,6.74-4.96,12.17-11.82,12.17s-11.82-5.44-11.82-12.17v-38.28ZM56.33,462.79v38.05c0,13.35,10.28,24.1,23.75,24.1s23.51-10.75,23.51-24.1v-38.05c0-13.35-10.04-24.1-23.51-24.1s-23.75,10.75-23.75,24.1M19.23,523.17v-35.45h30.6v-11.82h-30.6v-23.63h30.6v-11.82H7.42v82.71h11.82Z"/>
  <path class="uuid-b9132e50-1a87-4431-8e07-ccfdcb41a915" d="M605.16,343.22h15.36v70.89h11.82v-70.89h15.36v-11.82h-42.54v11.82ZM552.7,331.4v82.71h11.82v-70.89h12.88c6.97,0,12.29,5.44,12.29,12.41s-5.2,12.41-12.29,12.41h-12.64l24.69,46.08h13.35l-19.85-37.22c10.99-2.13,18.55-10.52,18.55-21.86,0-13.47-10.75-23.63-24.1-23.63h-24.69ZM535.09,391.42c0,6.5-5.08,11.58-11.58,11.58-3.31,0-6.5-1.42-8.74-3.66l-36.51-36.51c-2.25-2.24-3.66-5.44-3.66-8.74,0-6.5,5.08-11.58,11.58-11.58,3.19,0,6.38,1.3,8.74,3.66l36.51,36.51c2.36,2.36,3.66,5.55,3.66,8.74M463.02,354.2c0,6.26,2.48,12.64,6.97,17.13l36.27,36.27c4.61,4.61,10.99,7.09,17.37,7.09,13.23,0,23.16-9.93,23.16-23.16,0-6.38-2.48-12.76-7.09-17.37l-36.27-36.27c-4.49-4.49-10.87-6.97-17.25-6.97-13.23,0-23.16,10.04-23.16,23.28M435.49,343.22c6.74,0,12.17,4.96,12.17,11.82s-5.44,11.82-12.17,11.82h-11.46v-23.63h11.46ZM424.03,414.11v-35.45h11.34c13.35,0,24.1-10.28,24.1-23.75s-10.75-23.51-24.1-23.51h-23.16v82.71h11.82ZM381.14,343.22c6.73,0,12.17,4.96,12.17,11.82s-5.44,11.82-12.17,11.82h-11.46v-23.63h11.46ZM369.68,414.11v-35.45h11.34c13.35,0,24.1-10.28,24.1-23.75s-10.75-23.51-24.1-23.51h-23.16v82.71h11.82ZM299.97,391.78c0,13.59,10.4,24.1,23.75,24.1s23.51-10.52,23.51-24.1v-60.38h-11.82v60.5c0,6.97-5.08,12.17-11.82,12.17s-11.82-5.2-11.82-12.17v-60.5h-11.82v60.38ZM266.88,415.41c13.94,0,25.99-8.27,25.99-23.16,0-24.93-35.45-21.62-35.45-38.99,0-8.03,7.33-11.34,14.3-11.34,9.45,0,17.25,6.38,18.31,15.95v-21.74c-5.32-4.02-11.82-6.03-18.43-6.03-14.3,0-25.99,8.86-25.99,23.87,0,25.88,35.45,21.27,35.45,37.93,0,7.8-7.33,11.7-14.3,11.7-9.69,0-19.97-6.74-21.15-16.9v21.62c6.03,4.73,13.71,7.09,21.27,7.09M128.64,366.96c3.19,5.2,8.63,8.74,14.89,8.74,9.45,0,18.08-10.16,23.63-16.66l-38.52,51.75v-43.84ZM178.39,343.92c-6.97,9.45-16.19,22.33-29.42,22.33-6.85,0-12.05-4.73-12.05-11.7s5.32-11.93,12.17-11.93h20.56c2.95,0,5.91.47,8.74,1.3M181.58,345.22c10.75,4.96,16.78,15.95,16.78,27.53,0,16.54-11.93,29.54-28.71,29.54h-30.6l42.54-57.07ZM149.2,330.81c-13.47,0-24.1,9.69-24.1,23.39v59.91h44.43c23.28,0,40.65-18.43,40.65-41.47s-17.37-41.83-40.65-41.83h-20.32ZM79.02,331.4h-24.1v82.71h11.82v-82.71l23.63,82.71h24.1v-82.71h-11.82v82.71l-23.63-82.71ZM25.26,331.4h-11.93L1.51,414.11h11.93l1.65-11.82h20.32l1.65,11.82h11.93l-11.82-82.71h-11.93l8.63,60.26h-17.25l8.63-60.26Z"/>
  <path class="uuid-f3bb8c9d-ba7e-4d20-8387-a3ee176453ca" d="M706.65,234.16h15.36v70.89h11.82v-70.89h15.36v-11.82h-42.54v11.82ZM665.3,222.34h-24.1v82.71h11.82v-82.71l23.63,82.71h24.1v-82.71h-11.82v82.71l-23.63-82.71ZM630.56,305.05v-11.82h-30.6v-23.63h30.6v-11.82h-30.6v-23.63h30.6v-11.82h-42.42v82.71h42.42ZM554.47,291.46c0-13.59,20.56-24.69,20.91-44.55l-.24,25.88c-.12,7.8-.35,28.71-11.82,28.71-5.67,0-8.86-4.84-8.86-10.04M487.83,305.05h11.82v-82.71l23.63,82.71h14.18v-50.57c0-10.28,1.89-26.58,15.48-26.58,8.86,0,12.64,6.85,12.64,14.89,0,20.09-22.92,27.77-22.92,47.97,0,5.08,1.42,10.16,4.37,14.3h16.07c14.65,0,15.01-23.16,15.01-33.32v-23.99c0-14.41-6.62-27.06-22.57-27.06-18.79,0-21.62,18.91-21.62,33.79v44.78l-21.98-76.92h-24.1v82.71ZM429.46,222.34v82.71h11.82v-70.89h12.88c6.97,0,12.29,5.44,12.29,12.41s-5.2,12.41-12.29,12.41h-12.64l24.69,46.08h13.35l-19.85-37.22c10.99-2.13,18.55-10.52,18.55-21.86,0-13.47-10.75-23.63-24.1-23.63h-24.69ZM418.83,305.05v-11.82h-30.6v-23.63h30.6v-11.82h-30.6v-23.63h30.6v-11.82h-42.42v82.71h42.42ZM287.32,305.05h23.87l11.82-82.71,11.82,82.71h23.87l11.82-82.71h-11.93l-11.82,82.71-11.82-82.71h-23.87l-11.82,82.71-11.82-82.71h-11.93l11.82,82.71ZM238.88,244.55c0-6.74,4.96-12.17,11.82-12.17s11.82,5.44,11.82,12.17v38.28c0,6.73-4.96,12.17-11.82,12.17s-11.82-5.44-11.82-12.17v-38.28ZM227.07,244.67v38.05c0,13.35,10.28,24.1,23.75,24.1s23.51-10.75,23.51-24.1v-38.05c0-13.35-10.04-24.1-23.51-24.1s-23.75,10.75-23.75,24.1M197.17,234.16c6.74,0,12.17,4.96,12.17,11.82s-5.44,11.82-12.17,11.82h-11.46v-23.63h11.46ZM185.71,305.05v-35.45h11.34c13.35,0,24.1-10.28,24.1-23.75s-10.75-23.51-24.1-23.51h-23.16v82.71h11.82ZM78.43,305.05v-82.71l23.63,82.71h24.58l23.63-82.71v82.71h11.82v-82.71h-24.1l-23.63,82.71-23.63-82.71h-24.1v82.71h11.82ZM7.42,222.34v82.71h48.33v-11.82H19.23v-59.08h17.37c-7.21,6.26-11.82,14.18-11.82,23.87,0,10.63,5.67,19.02,17.01,19.02,5.08,0,9.81-1.65,13.82-4.84v-27.41c0,8.98-5.44,20.56-15.71,20.56-6.62,0-10.16-4.84-10.16-11.11,0-15.48,21.86-28.59,35.09-31.9H7.42Z"/>
  <path class="uuid-b9132e50-1a87-4431-8e07-ccfdcb41a915" d="M537.22,125.1c6.73,0,12.29,4.96,12.29,11.82s-5.55,11.82-12.29,11.82h-34.15v-23.63h34.15ZM491.26,113.28v82.71h11.82v-35.45h26.7l20.56,35.45h13.59c-9.33-16.54-16.66-35.21-37.1-39.82v-.35c3.9.83,7.8,1.3,11.82,1.3,13.59,0,22.69-5.55,22.69-20.2,0-13.47-10.75-23.63-24.1-23.63h-45.96ZM445.18,135.49c0-6.74,4.96-12.17,11.82-12.17s11.82,5.44,11.82,12.17v38.28c0,6.74-4.96,12.17-11.82,12.17s-11.82-5.44-11.82-12.17v-38.28ZM433.36,135.61v38.05c0,13.35,10.28,24.1,23.75,24.1s23.51-10.75,23.51-24.1v-38.05c0-13.35-10.04-24.1-23.51-24.1s-23.75,10.75-23.75,24.1M396.26,195.99v-35.45h30.6v-11.82h-30.6v-23.63h30.6v-11.82h-42.42v82.71h11.82ZM319.46,197.29c13.94,0,25.99-8.27,25.99-23.16,0-24.93-35.45-21.62-35.45-38.99,0-8.04,7.33-11.34,14.3-11.34,9.45,0,17.25,6.38,18.31,15.95v-21.74c-5.32-4.02-11.82-6.03-18.43-6.03-14.3,0-25.99,8.86-25.99,23.87,0,25.88,35.45,21.27,35.45,37.93,0,7.8-7.33,11.7-14.3,11.7-9.69,0-19.97-6.73-21.15-16.9v21.62c6.03,4.73,13.71,7.09,21.27,7.09M252.94,125.1c16.42,0,28.71,13,28.71,29.78s-12.29,29.3-28.71,29.3h-23.28v-59.08h23.28ZM217.85,195.99h34.97c22.92,0,40.65-17.84,40.65-41.12s-17.72-41.59-40.65-41.59h-34.97v82.71ZM170.59,113.28h-24.1v82.71h11.82v-82.71l23.63,82.71h24.1v-82.71h-11.82v82.71l-23.63-82.71ZM116.83,113.28h-11.93l-11.82,82.71h11.93l1.65-11.82h20.32l1.65,11.82h11.93l-11.82-82.71h-11.93l8.63,60.26h-17.25l8.63-60.26ZM54.09,125.1h15.36v70.89h11.82v-70.89h15.36v-11.82h-42.54v11.82ZM26.91,197.29c13.94,0,25.99-8.27,25.99-23.16,0-24.93-35.45-21.62-35.45-38.99,0-8.04,7.33-11.34,14.3-11.34,9.45,0,17.25,6.38,18.31,15.95v-21.74c-5.32-4.02-11.82-6.03-18.43-6.03-14.3,0-25.99,8.86-25.99,23.87,0,25.88,35.45,21.27,35.45,37.93,0,7.8-7.33,11.7-14.3,11.7-9.69,0-19.97-6.73-21.15-16.9v21.62c6.03,4.73,13.71,7.09,21.27,7.09"/>
  <path class="uuid-f3bb8c9d-ba7e-4d20-8387-a3ee176453ca" d="M119.73,26.5c0-13.78-11.01-24.17-24.67-24.17h-25.28v84.61h12.09V14.41h13.18c7.14,0,12.58,5.56,12.58,12.69s-5.32,12.69-12.58,12.69h-12.94l25.28,47.14h13.67l-20.32-38.07c11.25-2.18,18.99-10.76,18.99-22.36"/>
</svg>