<?xml version="1.0" encoding="UTF-8"?>
<svg id="uuid-daacc161-ab9b-46f0-8e46-ed8fa0c197db" data-name="Ebene 1"
  xmlns="http://www.w3.org/2000/svg" viewBox="0 0 1707.61 1947.99">
  <defs>
    <style>
      .uuid-6f6e523a-98bc-4dac-862b-71ecc9eb559f {
      fill: #ff5700;
      }

      .uuid-6f6e523a-98bc-4dac-862b-71ecc9eb559f, .uuid-a87dc78d-4841-42e7-88f6-532582f949ad,
      .uuid-50aa85e7-6301-45ca-9469-8c81839032bd {
      stroke-width: 0px;
      }

      .uuid-a87dc78d-4841-42e7-88f6-532582f949ad {
      fill: #22544f;
      }

      .uuid-50aa85e7-6301-45ca-9469-8c81839032bd {
      fill: #fff;
      }
    </style>
  </defs>
  <polygon class="uuid-a87dc78d-4841-42e7-88f6-532582f949ad"
    points="1570.51 470.22 1409.69 1947.99 623.49 1158.05 844.98 635.44 352.3 471.59 244.45 363.23 609.41 0 1121.56 0 1121.81 267.78 1570.51 470.22" />
  <g>
    <path class="uuid-50aa85e7-6301-45ca-9469-8c81839032bd"
      d="M1346.76,890.28h16.2v4.5h-5.85v27h-4.5v-27h-5.85v-4.5Z" />
    <path class="uuid-50aa85e7-6301-45ca-9469-8c81839032bd"
      d="M1362.51,897.75c0-4.72,3.69-8.14,8.32-8.14,3.29,0,6.43,1.62,8.24,4.41l-6.21,11.83c.9.14,1.8.18,2.7.18h10.12v-15.75h4.5v31.5h-4.5v-14.4h-10.08l-7.79,14.4h-5.13l8.19-15.12c-4.45-.99-8.37-4-8.37-8.91ZM1364.76,898.74c0,3.83,3.33,6.12,6.7,6.88l4.28-8.19c-1.12-2.29-3.2-4-5.8-4-3.02,0-5.17,2.34-5.17,5.31Z" />
    <path class="uuid-50aa85e7-6301-45ca-9469-8c81839032bd"
      d="M1394.68,921.78v-31.5h16.15v4.5h-11.65v9h11.65v4.5h-11.65v9h11.65v4.5h-16.15Z" />
    <path class="uuid-50aa85e7-6301-45ca-9469-8c81839032bd"
      d="M1430.64,890.28v13.5h19.8v-13.5h4.5v31.5h-4.5v-13.5h-19.8v13.5h-4.5v-31.5h4.5Z" />
    <path class="uuid-50aa85e7-6301-45ca-9469-8c81839032bd"
      d="M1459.44,921.78v-31.5h16.15v4.5h-11.65v9h11.65v4.5h-11.65v9h11.65v4.5h-16.15Z" />
    <path class="uuid-50aa85e7-6301-45ca-9469-8c81839032bd"
      d="M1482.7,913.23h6.57l-3.28-22.95h4.54l4.5,31.5h-4.54l-.63-4.5h-7.74l-.63,4.5h-4.54l4.5-31.5h4.54l-3.29,22.95Z" />
    <path class="uuid-50aa85e7-6301-45ca-9469-8c81839032bd"
      d="M1497.28,890.28h13.32c8.73,0,15.48,6.97,15.48,15.84s-6.75,15.66-15.48,15.66h-13.32v-31.5ZM1501.78,894.78v22.5h8.86c6.25,0,10.93-4.72,10.93-11.16s-4.68-11.34-10.93-11.34h-8.86Z" />
    <path class="uuid-50aa85e7-6301-45ca-9469-8c81839032bd"
      d="M1529.01,890.28h4.5v27h11.65v4.5h-16.15v-31.5Z" />
    <path class="uuid-50aa85e7-6301-45ca-9469-8c81839032bd" d="M1547.41,890.28h4.5v31.5h-4.5v-31.5Z" />
    <path class="uuid-50aa85e7-6301-45ca-9469-8c81839032bd"
      d="M1574.59,921.78v-31.5h4.5v31.5h-9.18l-9-31.5v31.5h-4.5v-31.5h9.18l9,31.5Z" />
    <path class="uuid-50aa85e7-6301-45ca-9469-8c81839032bd"
      d="M1583.59,921.78v-31.5h16.15v4.5h-11.65v9h11.65v4.5h-11.65v9h11.65v4.5h-16.15Z" />
    <path class="uuid-50aa85e7-6301-45ca-9469-8c81839032bd"
      d="M1615.05,921.78v-31.5h16.15v4.5h-11.65v9h11.65v4.5h-11.65v13.5h-4.5Z" />
    <path class="uuid-50aa85e7-6301-45ca-9469-8c81839032bd"
      d="M1641.15,890.1c2.43,0,4.86.95,6.57,2.66l13.81,13.81c1.75,1.75,2.7,4.18,2.7,6.61,0,5.04-3.78,8.82-8.82,8.82-2.43,0-4.86-.94-6.61-2.7l-13.81-13.81c-1.71-1.71-2.66-4.14-2.66-6.53,0-5.04,3.78-8.86,8.82-8.86ZM1658.38,909.81l-13.9-13.9c-.9-.9-2.12-1.39-3.33-1.39-2.47,0-4.41,1.93-4.41,4.41,0,1.26.54,2.48,1.39,3.33l13.9,13.9c.86.86,2.07,1.4,3.33,1.4,2.47,0,4.41-1.94,4.41-4.41,0-1.21-.5-2.43-1.4-3.33Z" />
    <path class="uuid-50aa85e7-6301-45ca-9469-8c81839032bd"
      d="M1684.66,921.78v-31.5h4.5v31.5h-9.18l-9-31.5v31.5h-4.5v-31.5h9.18l9,31.5Z" />
    <path class="uuid-50aa85e7-6301-45ca-9469-8c81839032bd"
      d="M1691.41,890.28h16.2v4.5h-5.85v27h-4.5v-27h-5.85v-4.5Z" />
    <path class="uuid-50aa85e7-6301-45ca-9469-8c81839032bd" d="M1350.13,945.28h4.5v31.5h-4.5v-31.5Z" />
    <path class="uuid-50aa85e7-6301-45ca-9469-8c81839032bd"
      d="M1358.46,974.58v-8.23c.45,3.87,4.36,6.43,8.05,6.43,2.65,0,5.44-1.49,5.44-4.46,0-6.34-13.5-4.59-13.5-14.44,0-5.71,4.45-9.09,9.9-9.09,2.52,0,5,.77,7.02,2.29v8.28c-.41-3.65-3.38-6.08-6.97-6.08-2.66,0-5.44,1.26-5.44,4.32,0,6.61,13.5,5.35,13.5,14.85,0,5.67-4.59,8.82-9.9,8.82-2.88,0-5.8-.9-8.1-2.7Z" />
    <path class="uuid-50aa85e7-6301-45ca-9469-8c81839032bd"
      d="M1393.6,976.78h-4.54l4.5-31.5h9.09l4.5,31.5h-4.54l-4.5-31.5-4.5,31.5Z" />
    <path class="uuid-50aa85e7-6301-45ca-9469-8c81839032bd"
      d="M1427.58,976.78v-31.5h4.5v31.5h-9.18l-9-31.5v31.5h-4.5v-31.5h9.18l9,31.5Z" />
    <path class="uuid-50aa85e7-6301-45ca-9469-8c81839032bd"
      d="M1436.58,976.78v-31.5h16.15v4.5h-11.65v9h11.65v4.5h-11.65v9h11.65v4.5h-16.15Z" />
    <path class="uuid-50aa85e7-6301-45ca-9469-8c81839032bd"
      d="M1459.75,954.28l-7.25-9h5.8l10.84,13.5c3.6-.27,6.21-3.15,6.21-6.75,0-3.83-2.92-6.75-6.75-6.75h9.09c1.53,1.98,2.16,4.5,2.16,6.97,0,6.71-4.46,9.72-10.75,9.72-1.04,0-2.07-.09-3.11-.22l-.04.13c3.69.5,8.05,2.92,10.39,5.8l7.33,9.09h-5.8l-10.89-13.5c-3.73.09-6.57,3.01-6.57,6.75s2.92,6.75,6.75,6.75h-9.09c-1.49-1.98-2.16-4.46-2.16-6.93,0-6.71,4.72-9.76,10.98-9.76,1.08,0,2.12.09,3.2.22v-.13c-3.65-.54-8.05-3.01-10.35-5.89Z" />
    <path class="uuid-50aa85e7-6301-45ca-9469-8c81839032bd"
      d="M1501.02,945.28c5.08,0,9.18,3.83,9.18,8.96s-4.09,9.04-9.18,9.04h-11.97v13.5h-4.5v-31.5h16.47ZM1501.06,958.78c2.56,0,4.63-1.89,4.63-4.5s-2.07-4.5-4.63-4.5h-12.01v9h12.01Z" />
    <path class="uuid-50aa85e7-6301-45ca-9469-8c81839032bd"
      d="M1512.9,976.78v-31.5h16.15v4.5h-11.65v9h11.65v4.5h-11.65v9h11.65v4.5h-16.15Z" />
    <path class="uuid-50aa85e7-6301-45ca-9469-8c81839032bd"
      d="M1550.61,945.28c5.08,0,9.18,3.87,9.18,9,0,5.58-3.46,7.69-8.64,7.69-1.53,0-3.01-.18-4.5-.5v.14c7.79,1.75,10.58,8.86,14.13,15.16h-5.17l-7.83-13.5h-10.17v13.5h-4.5v-31.5h17.5ZM1537.6,949.78v9h13c2.57,0,4.68-1.89,4.68-4.5s-2.11-4.5-4.68-4.5h-13Z" />
    <path class="uuid-50aa85e7-6301-45ca-9469-8c81839032bd" d="M1563.93,945.28h4.5v31.5h-4.5v-31.5Z" />
    <path class="uuid-50aa85e7-6301-45ca-9469-8c81839032bd"
      d="M1572.93,945.28h9.18l8.37,29.29v-17.05c0-5.67,1.08-12.87,8.24-12.87,6.07,0,8.59,4.82,8.59,10.3v9.13c0,3.87-.14,12.69-5.71,12.69h-6.12c-1.12-1.58-1.67-3.51-1.67-5.44,0-7.7,8.73-10.62,8.73-18.27,0-3.06-1.44-5.67-4.81-5.67-5.17,0-5.89,6.21-5.89,10.12v19.26h-5.4l-9-31.5v31.5h-4.5v-31.5ZM1601.68,975.43c4.36,0,4.46-7.96,4.5-10.93l.09-9.85c-.13,7.56-7.96,11.79-7.96,16.96,0,1.98,1.21,3.83,3.38,3.83Z" />
    <path class="uuid-50aa85e7-6301-45ca-9469-8c81839032bd"
      d="M1611.13,976.78v-31.5h16.15v4.5h-11.65v9h11.65v4.5h-11.65v9h11.65v4.5h-16.15Z" />
    <path class="uuid-50aa85e7-6301-45ca-9469-8c81839032bd"
      d="M1649.52,976.78v-31.5h4.5v31.5h-9.18l-9-31.5v31.5h-4.5v-31.5h9.18l9,31.5Z" />
    <path class="uuid-50aa85e7-6301-45ca-9469-8c81839032bd"
      d="M1656.27,945.28h16.2v4.5h-5.85v27h-4.5v-27h-5.85v-4.5Z" />
    <path class="uuid-50aa85e7-6301-45ca-9469-8c81839032bd"
      d="M1676.88,968.23h6.57l-3.28-22.95h4.54l4.5,31.5h-4.54l-.63-4.5h-7.74l-.63,4.5h-4.54l4.5-31.5h4.54l-3.29,22.95Z" />
    <path class="uuid-50aa85e7-6301-45ca-9469-8c81839032bd"
      d="M1691.46,945.28h4.5v27h11.65v4.5h-16.15v-31.5Z" />
    <path class="uuid-50aa85e7-6301-45ca-9469-8c81839032bd"
      d="M1269.86,1031.78v-31.5h16.15v4.5h-11.65v9h11.65v4.5h-11.65v13.5h-4.5Z" />
    <path class="uuid-50aa85e7-6301-45ca-9469-8c81839032bd"
      d="M1288.49,1000.28h4.5v23.04c0,2.66,1.93,4.63,4.5,4.63s4.5-1.98,4.5-4.63v-23.04h4.5v22.99c0,5.17-3.91,9.18-8.95,9.18s-9.04-4-9.04-9.18v-22.99Z" />
    <path class="uuid-50aa85e7-6301-45ca-9469-8c81839032bd"
      d="M1308.96,1029.58v-8.23c.45,3.87,4.36,6.43,8.05,6.43,2.65,0,5.44-1.49,5.44-4.46,0-6.34-13.5-4.59-13.5-14.44,0-5.71,4.45-9.09,9.9-9.09,2.52,0,5,.77,7.02,2.29v8.28c-.41-3.65-3.38-6.08-6.97-6.08-2.66,0-5.44,1.26-5.44,4.32,0,6.61,13.5,5.35,13.5,14.85,0,5.67-4.59,8.82-9.9,8.82-2.88,0-5.8-.9-8.1-2.7Z" />
    <path class="uuid-50aa85e7-6301-45ca-9469-8c81839032bd"
      d="M1330.56,1000.28h4.5v31.5h-4.5v-31.5Z" />
    <path class="uuid-50aa85e7-6301-45ca-9469-8c81839032bd"
      d="M1354.41,999.61c9.36,0,16.42,7.06,16.42,16.42s-7.06,16.42-16.42,16.42-16.42-7.06-16.42-16.42,7.06-16.42,16.42-16.42ZM1354.41,1027.96c6.79,0,11.92-5.13,11.92-11.92s-5.13-11.92-11.92-11.92-11.92,5.13-11.92,11.92,5.13,11.92,11.92,11.92Z" />
    <path class="uuid-50aa85e7-6301-45ca-9469-8c81839032bd"
      d="M1391.94,1031.78v-31.5h4.5v31.5h-9.18l-9-31.5v31.5h-4.5v-31.5h9.18l9,31.5Z" />
    <path class="uuid-50aa85e7-6301-45ca-9469-8c81839032bd"
      d="M1427.04,999.61c9.36,0,16.42,7.06,16.42,16.42s-7.06,16.42-16.42,16.42-16.42-7.06-16.42-16.42,7.06-16.42,16.42-16.42ZM1440.54,1019.54c0-8.28-8.73-17.01-17.01-17.01-5.76,0-9.99,4.28-9.99,10.04,0,8.28,8.68,16.96,16.96,16.96,5.76,0,10.03-4.23,10.03-9.99Z" />
    <path class="uuid-50aa85e7-6301-45ca-9469-8c81839032bd"
      d="M1446.39,1031.78v-31.5h16.15v4.5h-11.65v9h11.65v4.5h-11.65v13.5h-4.5Z" />
    <path class="uuid-50aa85e7-6301-45ca-9469-8c81839032bd"
      d="M1492.02,999.61c4.54,0,8.55,1.67,11.47,4.46v8.59c-1.4-5.04-5.85-8.55-11.47-8.55-6.79,0-11.92,5.13-11.92,11.92s5.13,11.92,11.92,11.92c5.17,0,9.36-2.97,11.07-7.38h-15.57v-4.5h15.97v11.92c-2.92,2.79-6.93,4.46-11.47,4.46-9.36,0-16.42-7.06-16.42-16.42s7.06-16.42,16.42-16.42Z" />
    <path class="uuid-50aa85e7-6301-45ca-9469-8c81839032bd"
      d="M1507.54,1031.78v-31.5h16.15v4.5h-11.65v9h11.65v4.5h-11.65v9h11.65v4.5h-16.15Z" />
    <path class="uuid-50aa85e7-6301-45ca-9469-8c81839032bd"
      d="M1542.6,999.61c9.36,0,16.42,7.06,16.42,16.42s-7.06,16.42-16.42,16.42-16.42-7.06-16.42-16.42,7.06-16.42,16.42-16.42ZM1542.6,1027.96c6.79,0,11.92-5.13,11.92-11.92s-5.13-11.92-11.92-11.92-11.92,5.13-11.92,11.92,5.13,11.92,11.92,11.92Z" />
    <path class="uuid-50aa85e7-6301-45ca-9469-8c81839032bd"
      d="M1561.95,1031.78v-31.5h9.18l9,31.5,9-31.5h9.18v31.5h-4.5v-31.5l-9,31.5h-9.36l-9-31.5v31.5h-4.5Z" />
    <path class="uuid-50aa85e7-6301-45ca-9469-8c81839032bd"
      d="M1602.81,1031.78v-31.5h16.15v4.5h-11.65v9h11.65v4.5h-11.65v9h11.65v4.5h-16.15Z" />
    <path class="uuid-50aa85e7-6301-45ca-9469-8c81839032bd"
      d="M1621.21,1000.28h16.2v4.5h-5.85v27h-4.5v-27h-5.85v-4.5Z" />
    <path class="uuid-50aa85e7-6301-45ca-9469-8c81839032bd"
      d="M1657.17,1000.28c5.08,0,9.18,3.87,9.18,9,0,5.58-3.46,7.69-8.64,7.69-1.53,0-3.01-.18-4.5-.5v.14c7.79,1.75,10.58,8.86,14.13,15.16h-5.17l-7.83-13.5h-10.17v13.5h-4.5v-31.5h17.5ZM1644.16,1004.78v9h13c2.57,0,4.68-1.89,4.68-4.5s-2.11-4.5-4.68-4.5h-13Z" />
    <path class="uuid-50aa85e7-6301-45ca-9469-8c81839032bd"
      d="M1670.49,1000.28h4.5v31.5h-4.5v-31.5Z" />
    <path class="uuid-50aa85e7-6301-45ca-9469-8c81839032bd"
      d="M1677.91,1016.03c0-9.36,7.06-16.42,16.42-16.42,4.23,0,8.37,1.49,11.47,4.46v8.59c-1.44-5.26-6.08-8.55-11.47-8.55-6.79,0-11.92,5.13-11.92,11.92s5.13,11.92,11.92,11.92c5.4,0,10.03-3.28,11.47-8.55v8.59c-3.11,2.97-7.25,4.46-11.47,4.46-9.36,0-16.42-7.06-16.42-16.42Z" />
    <path class="uuid-50aa85e7-6301-45ca-9469-8c81839032bd"
      d="M1312.47,1086.78v-31.5h9.18l9,31.5,9-31.5h9.18v31.5h-4.5v-31.5l-9,31.5h-9.36l-9-31.5v31.5h-4.5Z" />
    <path class="uuid-50aa85e7-6301-45ca-9469-8c81839032bd"
      d="M1368.18,1054.61c9.36,0,16.42,7.06,16.42,16.42s-7.06,16.42-16.42,16.42-16.42-7.06-16.42-16.42,7.06-16.42,16.42-16.42ZM1368.18,1082.96c6.79,0,11.92-5.13,11.92-11.92s-5.13-11.92-11.92-11.92-11.92,5.13-11.92,11.92,5.13,11.92,11.92,11.92Z" />
    <path class="uuid-50aa85e7-6301-45ca-9469-8c81839032bd"
      d="M1405.71,1086.78v-31.5h4.5v31.5h-9.18l-9-31.5v31.5h-4.5v-31.5h9.18l9,31.5Z" />
    <path class="uuid-50aa85e7-6301-45ca-9469-8c81839032bd"
      d="M1429.56,1054.61c9.36,0,16.42,7.06,16.42,16.42s-7.06,16.42-16.42,16.42-16.42-7.06-16.42-16.42,7.06-16.42,16.42-16.42ZM1429.56,1082.96c6.79,0,11.92-5.13,11.92-11.92s-5.13-11.92-11.92-11.92-11.92,5.13-11.92,11.92,5.13,11.92,11.92,11.92Z" />
    <path class="uuid-50aa85e7-6301-45ca-9469-8c81839032bd"
      d="M1448.91,1055.28h4.5v27h11.65v4.5h-16.15v-31.5Z" />
    <path class="uuid-50aa85e7-6301-45ca-9469-8c81839032bd"
      d="M1467.31,1055.28h4.5v31.5h-4.5v-31.5Z" />
    <path class="uuid-50aa85e7-6301-45ca-9469-8c81839032bd"
      d="M1494.49,1086.78v-31.5h4.5v31.5h-9.18l-9-31.5v31.5h-4.5v-31.5h9.18l9,31.5Z" />
    <path class="uuid-50aa85e7-6301-45ca-9469-8c81839032bd"
      d="M1503.49,1086.78v-31.5h16.15v4.5h-11.65v9h11.65v4.5h-11.65v9h11.65v4.5h-16.15Z" />
    <path class="uuid-50aa85e7-6301-45ca-9469-8c81839032bd"
      d="M1534.27,1084.58v-8.23c.45,3.87,4.36,6.43,8.05,6.43,2.65,0,5.44-1.49,5.44-4.46,0-6.34-13.5-4.59-13.5-14.44,0-5.71,4.45-9.09,9.9-9.09,2.52,0,5,.77,7.02,2.29v8.28c-.41-3.65-3.38-6.08-6.97-6.08-2.66,0-5.44,1.26-5.44,4.32,0,6.61,13.5,5.35,13.5,14.85,0,5.67-4.59,8.82-9.9,8.82-2.88,0-5.8-.9-8.1-2.7Z" />
    <path class="uuid-50aa85e7-6301-45ca-9469-8c81839032bd"
      d="M1557.72,1086.78h-4.54l4.5-31.5h9.09l4.5,31.5h-4.54l-4.5-31.5-4.5,31.5Z" />
    <path class="uuid-50aa85e7-6301-45ca-9469-8c81839032bd"
      d="M1591.69,1086.78v-31.5h4.5v31.5h-9.18l-9-31.5v31.5h-4.5v-31.5h9.18l9,31.5Z" />
    <path class="uuid-50aa85e7-6301-45ca-9469-8c81839032bd"
      d="M1600.02,1084.58v-8.23c.45,3.87,4.36,6.43,8.05,6.43,2.65,0,5.44-1.49,5.44-4.46,0-6.34-13.5-4.59-13.5-14.44,0-5.71,4.45-9.09,9.9-9.09,2.52,0,5,.77,7.02,2.29v8.28c-.41-3.65-3.38-6.08-6.97-6.08-2.66,0-5.44,1.26-5.44,4.32,0,6.61,13.5,5.35,13.5,14.85,0,5.67-4.59,8.82-9.9,8.82-2.88,0-5.8-.9-8.1-2.7Z" />
    <path class="uuid-50aa85e7-6301-45ca-9469-8c81839032bd"
      d="M1635.16,1086.78h-4.54l4.5-31.5h9.09l4.5,31.5h-4.54l-4.5-31.5-4.5,31.5Z" />
    <path class="uuid-50aa85e7-6301-45ca-9469-8c81839032bd"
      d="M1669.14,1086.78v-31.5h4.5v31.5h-9.18l-9-31.5v31.5h-4.5v-31.5h9.18l9,31.5Z" />
    <path class="uuid-50aa85e7-6301-45ca-9469-8c81839032bd"
      d="M1678.14,1055.28h13.32c8.73,0,15.48,6.97,15.48,15.84s-6.75,15.66-15.48,15.66h-13.32v-31.5ZM1682.64,1059.78v22.5h8.86c6.25,0,10.93-4.72,10.93-11.16s-4.68-11.34-10.93-11.34h-8.86Z" />
    <path class="uuid-50aa85e7-6301-45ca-9469-8c81839032bd"
      d="M1380.15,1110.28v13.5h19.8v-13.5h4.5v31.5h-4.5v-13.5h-19.8v13.5h-4.5v-31.5h4.5Z" />
    <path class="uuid-50aa85e7-6301-45ca-9469-8c81839032bd"
      d="M1430.64,1137.28v4.5h-22.14v-29.97c1.53-1.3,3.38-2.16,5.45-2.16,4.99,0,8.05,4.54,8.05,9.18v18.45h8.64ZM1417.5,1137.28v-25.74c-6.84-.05-7.65,7.65-7.65,12.87v12.87h7.65Z" />
    <path class="uuid-50aa85e7-6301-45ca-9469-8c81839032bd"
      d="M1445.04,1109.61c4.54,0,8.55,1.67,11.47,4.46v8.59c-1.4-5.04-5.85-8.55-11.47-8.55-6.79,0-11.92,5.13-11.92,11.92s5.13,11.92,11.92,11.92c5.17,0,9.36-2.97,11.07-7.38h-15.57v-4.5h15.97v11.92c-2.92,2.79-6.93,4.46-11.47,4.46-9.36,0-16.42-7.06-16.42-16.42s7.06-16.42,16.42-16.42Z" />
    <path class="uuid-50aa85e7-6301-45ca-9469-8c81839032bd"
      d="M1465.06,1110.28v13.5h19.8v-13.5h4.5v31.5h-4.5v-13.5h-19.8v13.5h-4.5v-31.5h4.5Z" />
    <path class="uuid-50aa85e7-6301-45ca-9469-8c81839032bd"
      d="M1493.86,1123.78h13.5v4.5h-13.5v-4.5Z" />
    <path class="uuid-50aa85e7-6301-45ca-9469-8c81839032bd"
      d="M1539.63,1115.64v20.79c-3.15,3.96-7.92,6.03-12.91,6.03-9.36,0-16.42-7.06-16.42-16.42s7.06-16.42,16.42-16.42c4.99,0,9.76,2.07,12.91,6.03ZM1526.71,1137.96c6.79,0,11.92-5.13,11.92-11.92s-5.13-11.92-11.92-11.92-11.92,5.13-11.92,11.92,5.13,11.92,11.92,11.92Z" />
    <path class="uuid-50aa85e7-6301-45ca-9469-8c81839032bd"
      d="M1558.53,1109.61c9.36,0,16.42,7.06,16.42,16.42s-7.06,16.42-16.42,16.42-16.42-7.06-16.42-16.42,7.06-16.42,16.42-16.42ZM1558.53,1137.96c6.79,0,11.92-5.13,11.92-11.92s-5.13-11.92-11.92-11.92-11.92,5.13-11.92,11.92,5.13,11.92,11.92,11.92Z" />
    <path class="uuid-50aa85e7-6301-45ca-9469-8c81839032bd"
      d="M1582.38,1140.43h16.11l-16.11-30.15h5.08c2.7,5,5.35,9.67,6.97,15.17l.13-.04c-.76-2.61-1.84-6.08-1.84-8.78,0-4.05,1.93-7.15,6.25-7.15,2.02,0,3.91.72,5.4,2.16v30.15h-26.5v-31.5h4.5v30.15ZM1594.3,1118.65c0,5.49,5.99,15.66,8.73,20.61v-18.81c0-2.88-1.44-6.52-4.82-6.52-2.75,0-3.92,2.25-3.92,4.72Z" />
    <path class="uuid-50aa85e7-6301-45ca-9469-8c81839032bd"
      d="M1606.18,1110.28h16.2v4.5h-5.85v27h-4.5v-27h-5.85v-4.5Z" />
    <path class="uuid-50aa85e7-6301-45ca-9469-8c81839032bd"
      d="M1624.63,1141.78v-31.5h17.91c5.08,0,9.18,3.87,9.18,9v5.13c0,5.44-.63,17.37-8.33,17.37h-7.24c-.76-1.04-1.17-2.29-1.17-3.55,0-4.54,5.22-7.88,8.64-9.99-.36.05-.72.05-1.08.05h-13.41v13.5h-4.5ZM1629.13,1114.78v9h12.51c2.75,0,5.4-1.49,5.4-4.5s-2.7-4.5-5.4-4.5h-12.51ZM1643.35,1140.43c6.71,0,7.16-11.92,7.16-16.56-2.43,4.14-11.02,6.21-11.02,12.64,0,2.38,1.48,3.92,3.87,3.92Z" />
    <path class="uuid-50aa85e7-6301-45ca-9469-8c81839032bd"
      d="M1657.17,1141.78h-4.54l4.5-31.5h9.09l4.5,31.5h-4.54l-4.5-31.5-4.5,31.5Z" />
    <path class="uuid-50aa85e7-6301-45ca-9469-8c81839032bd"
      d="M1672.06,1139.71v-21.1c0-5.58,4.59-8.82,9.81-8.82,3.06,0,6.08,1.26,8.19,3.51v20.07c0,5.71-4.81,8.91-10.12,8.91-2.79,0-5.62-.86-7.88-2.57ZM1673.41,1123.38v6.12c0,4.36,1.85,8.28,6.75,8.28,2.66,0,5.4-1.26,5.4-4.27,0-5.13-8.87-5.45-12.15-10.12ZM1688.71,1128.91v-5.99c0-4.5-1.8-8.64-6.88-8.64-2.61,0-5.26,1.26-5.26,4.23,0,5.04,9.04,6.12,12.15,10.39Z" />
    <path class="uuid-50aa85e7-6301-45ca-9469-8c81839032bd"
      d="M1691.41,1110.28h16.2v4.5h-5.85v27h-4.5v-27h-5.85v-4.5Z" />
    <path class="uuid-50aa85e7-6301-45ca-9469-8c81839032bd"
      d="M1336.55,1196.78v-31.5h16.15v4.5h-11.65v9h11.65v4.5h-11.65v13.5h-4.5Z" />
    <path class="uuid-50aa85e7-6301-45ca-9469-8c81839032bd"
      d="M1356.08,1173.97c0-5.08,3.83-9.18,8.95-9.18,2.16,0,4.28.77,5.9,2.16v29.83h-14.85v-22.81ZM1369.57,1192.28v-12.73c0-6.3-1.48-12.64-9-12.6v25.33h9Z" />
    <path class="uuid-50aa85e7-6301-45ca-9469-8c81839032bd"
      d="M1389.83,1164.61c9.36,0,16.42,7.06,16.42,16.42s-7.06,16.42-16.42,16.42-16.42-7.06-16.42-16.42,7.06-16.42,16.42-16.42ZM1389.83,1192.96c6.79,0,11.92-5.13,11.92-11.92s-5.13-11.92-11.92-11.92-11.92,5.13-11.92,11.92,5.13,11.92,11.92,11.92Z" />
    <path class="uuid-50aa85e7-6301-45ca-9469-8c81839032bd"
      d="M1408.72,1165.28h4.5v23.04c0,2.66,1.93,4.63,4.5,4.63s4.5-1.98,4.5-4.63v-23.04h4.5v22.99c0,5.17-3.91,9.18-8.95,9.18s-9.04-4-9.04-9.18v-22.99Z" />
    <path class="uuid-50aa85e7-6301-45ca-9469-8c81839032bd"
      d="M1430.78,1196.78v-31.5h17.91c5.08,0,9.18,3.87,9.18,9v5.13c0,5.44-.63,17.37-8.33,17.37h-7.24c-.76-1.04-1.17-2.29-1.17-3.55,0-4.54,5.22-7.88,8.64-9.99-.36.05-.72.05-1.08.05h-13.41v13.5h-4.5ZM1435.28,1169.78v9h12.51c2.75,0,5.4-1.49,5.4-4.5s-2.7-4.5-5.4-4.5h-12.51ZM1449.49,1195.43c6.71,0,7.16-11.92,7.16-16.56-2.43,4.14-11.02,6.21-11.02,12.64,0,2.38,1.48,3.92,3.87,3.92Z" />
    <path class="uuid-50aa85e7-6301-45ca-9469-8c81839032bd"
      d="M1461.46,1165.28h4.5v31.5h-4.5v-31.5Z" />
    <path class="uuid-50aa85e7-6301-45ca-9469-8c81839032bd"
      d="M1470.01,1194.71v-21.1c0-5.58,4.59-8.82,9.81-8.82,3.06,0,6.08,1.26,8.19,3.51v20.07c0,5.71-4.81,8.91-10.12,8.91-2.79,0-5.62-.86-7.88-2.57ZM1471.36,1178.38v6.12c0,4.36,1.85,8.28,6.75,8.28,2.66,0,5.4-1.26,5.4-4.27,0-5.13-8.87-5.45-12.15-10.12ZM1486.66,1183.91v-5.99c0-4.5-1.8-8.64-6.88-8.64-2.61,0-5.26,1.26-5.26,4.23,0,5.04,9.04,6.12,12.15,10.39Z" />
    <path class="uuid-50aa85e7-6301-45ca-9469-8c81839032bd"
      d="M1496.56,1165.28v13.5h19.8v-13.5h4.5v31.5h-4.5v-13.5h-19.8v13.5h-4.5v-31.5h4.5Z" />
    <path class="uuid-50aa85e7-6301-45ca-9469-8c81839032bd"
      d="M1536.61,1165.28h13.32c8.73,0,15.48,6.97,15.48,15.84s-6.75,15.66-15.48,15.66h-13.32v-31.5ZM1541.11,1169.78v22.5h8.86c6.25,0,10.93-4.72,10.93-11.16s-4.68-11.34-10.93-11.34h-8.86Z" />
    <path class="uuid-50aa85e7-6301-45ca-9469-8c81839032bd"
      d="M1590.03,1192.28v4.5h-22.14v-29.97c1.53-1.3,3.38-2.16,5.45-2.16,4.99,0,8.05,4.54,8.05,9.18v18.45h8.64ZM1576.89,1192.28v-25.74c-6.84-.05-7.65,7.65-7.65,12.87v12.87h7.65Z" />
    <path class="uuid-50aa85e7-6301-45ca-9469-8c81839032bd"
      d="M1592.28,1165.28h13.32c8.73,0,15.48,6.97,15.48,15.84s-6.75,15.66-15.48,15.66h-13.32v-31.5ZM1596.78,1169.78v22.5h8.86c6.25,0,10.93-4.72,10.93-11.16s-4.68-11.34-10.93-11.34h-8.86Z" />
    <path class="uuid-50aa85e7-6301-45ca-9469-8c81839032bd"
      d="M1639.75,1164.61c9.36,0,16.42,7.06,16.42,16.42s-7.06,16.42-16.42,16.42-16.42-7.06-16.42-16.42,7.06-16.42,16.42-16.42ZM1639.75,1192.96c6.79,0,11.92-5.13,11.92-11.92s-5.13-11.92-11.92-11.92-11.92,5.13-11.92,11.92,5.13,11.92,11.92,11.92Z" />
    <path class="uuid-50aa85e7-6301-45ca-9469-8c81839032bd"
      d="M1663.6,1195.43h16.11l-16.11-30.15h5.08c2.7,5,5.35,9.67,6.97,15.17l.13-.04c-.76-2.61-1.84-6.08-1.84-8.78,0-4.05,1.93-7.15,6.25-7.15,2.02,0,3.91.72,5.4,2.16v30.15h-26.5v-31.5h4.5v30.15ZM1675.53,1173.65c0,5.49,5.99,15.66,8.73,20.61v-18.81c0-2.88-1.44-6.52-4.82-6.52-2.75,0-3.92,2.25-3.92,4.72Z" />
    <path class="uuid-50aa85e7-6301-45ca-9469-8c81839032bd"
      d="M1689.66,1196.78v-31.5h16.15v4.5h-11.65v9h11.65v4.5h-11.65v9h11.65v4.5h-16.15Z" />
  </g>
  <g>
    <path class="uuid-6f6e523a-98bc-4dac-862b-71ecc9eb559f"
      d="M10.39,1545.51v-11.75h59.26v11.75H10.39ZM34.11,1569.27v-59.26h11.79v59.26h-11.79Z" />
    <path class="uuid-6f6e523a-98bc-4dac-862b-71ecc9eb559f"
      d="M106.19,1584.35v-89.77h55.67v11.66h-42.12v27.35h38.14v11.62h-38.14v39.14h-13.54Z" />
    <path class="uuid-6f6e523a-98bc-4dac-862b-71ecc9eb559f"
      d="M178.52,1584.35v-89.77h13.54v78.11h40.68v11.66h-54.22Z" />
    <path class="uuid-6f6e523a-98bc-4dac-862b-71ecc9eb559f"
      d="M261.72,1494.58v89.77h-13.54v-89.77h13.54Z" />
    <path class="uuid-6f6e523a-98bc-4dac-862b-71ecc9eb559f"
      d="M281.44,1584.35v-89.77h56.28v11.66h-42.74v27.35h39.8v11.62h-39.8v27.48h43.26v11.66h-56.81Z" />
    <path class="uuid-6f6e523a-98bc-4dac-862b-71ecc9eb559f"
      d="M355.88,1584.35v-66.54c0-5.06,1.16-9.42,3.48-13.08,2.32-3.67,5.55-6.48,9.69-8.44,4.13-1.96,8.93-2.94,14.4-2.94s10.02.93,14.27,2.78c4.25,1.86,7.62,4.54,10.1,8.04,2.48,3.51,3.73,7.74,3.73,12.71s-1.26,9.12-3.77,12.56c-2.51,3.43-5.85,5.82-10,7.17v.92c5.73.5,10.38,2.73,13.96,6.71,3.58,3.97,5.37,9.1,5.37,15.39-.03,4.91-1.17,9.22-3.42,12.93-2.25,3.71-5.4,6.61-9.45,8.68-4.05,2.08-8.77,3.11-14.18,3.11h-10.48v-11.48h9.6c3.01,0,5.61-.58,7.8-1.75,2.19-1.17,3.89-2.8,5.11-4.89,1.21-2.09,1.82-4.49,1.82-7.21,0-4.24-1.48-7.71-4.43-10.43-2.95-2.72-6.96-4.08-12.01-4.08h-7.54v-11.4h5.26c2.69,0,5.01-.67,6.97-2.02,1.96-1.34,3.47-3.11,4.54-5.28,1.07-2.18,1.6-4.49,1.6-6.95,0-3.92-1.29-7.2-3.88-9.86-2.59-2.66-6.13-3.99-10.63-3.99s-7.84,1.26-10.63,3.79-4.19,5.82-4.19,9.88v65.66h-13.11Z" />
    <path class="uuid-6f6e523a-98bc-4dac-862b-71ecc9eb559f"
      d="M428.9,1506.24v-11.66h69.48v11.66h-28.01v78.11h-13.5v-78.11h-27.97Z" />
    <path class="uuid-6f6e523a-98bc-4dac-862b-71ecc9eb559f"
      d="M513.68,1584.35v-89.77h56.28v11.66h-42.74v27.35h39.8v11.62h-39.8v27.48h43.26v11.66h-56.81Z" />
    <path class="uuid-6f6e523a-98bc-4dac-862b-71ecc9eb559f"
      d="M597.53,1494.58l21.48,35.11h.7l21.48-35.11h15.69l-27.97,44.89,28.14,44.89h-15.78l-21.57-34.63h-.7l-21.57,34.63h-15.78l28.62-44.89-28.45-44.89h15.69Z" />
    <path class="uuid-6f6e523a-98bc-4dac-862b-71ecc9eb559f"
      d="M665.91,1506.24v-11.66h69.48v11.66h-28.01v78.11h-13.5v-78.11h-27.97Z" />
  </g>
  <g>
    <path class="uuid-50aa85e7-6301-45ca-9469-8c81839032bd"
      d="M.68,1313.51v-2.35h16.43v2.35h-6.89v19.56h-2.65v-19.56H.68Z" />
    <path class="uuid-50aa85e7-6301-45ca-9469-8c81839032bd"
      d="M23.41,1323.18v9.89h-2.53v-21.91h2.53v8.04h.21c.38-.85.96-1.52,1.74-2.03s1.81-.75,3.1-.75c1.12,0,2.1.22,2.94.67.84.45,1.5,1.13,1.96,2.04.47.92.7,2.08.7,3.49v10.44h-2.52v-10.27c0-1.31-.34-2.32-1.01-3.03-.67-.72-1.61-1.08-2.8-1.08-.83,0-1.57.17-2.22.52-.65.35-1.17.86-1.54,1.53-.38.67-.56,1.48-.56,2.44Z" />
    <path class="uuid-50aa85e7-6301-45ca-9469-8c81839032bd"
      d="M45.58,1333.4c-1.58,0-2.95-.35-4.09-1.05-1.14-.7-2.03-1.69-2.64-2.95s-.92-2.74-.92-4.42.31-3.17.92-4.46,1.48-2.29,2.59-3.02c1.11-.72,2.41-1.09,3.89-1.09.86,0,1.7.14,2.54.43s1.59.75,2.28,1.39c.69.64,1.23,1.48,1.64,2.53.41,1.05.61,2.34.61,3.87v1.07h-12.67v-2.18h10.1c0-.93-.18-1.75-.55-2.48-.37-.73-.89-1.3-1.56-1.72-.67-.42-1.47-.63-2.38-.63-1.01,0-1.87.25-2.61.74-.73.5-1.29,1.14-1.68,1.93-.39.79-.59,1.64-.59,2.55v1.46c0,1.24.22,2.29.65,3.15s1.03,1.51,1.8,1.96c.77.45,1.67.67,2.69.67.66,0,1.26-.09,1.8-.28.54-.19,1-.47,1.4-.86.39-.38.7-.86.91-1.43l2.44.68c-.26.83-.69,1.55-1.29,2.18-.61.62-1.36,1.11-2.25,1.46s-1.89.52-3.01.52Z" />
    <path class="uuid-50aa85e7-6301-45ca-9469-8c81839032bd"
      d="M75.92,1339.22v-8.69h-.21c-.19.3-.45.68-.79,1.13-.34.45-.83.86-1.47,1.21-.63.35-1.48.53-2.54.53-1.37,0-2.58-.35-3.63-1.04-1.05-.7-1.87-1.68-2.46-2.95-.59-1.27-.89-2.78-.89-4.52s.3-3.22.89-4.49,1.42-2.25,2.47-2.94c1.05-.69,2.27-1.04,3.66-1.04,1.07,0,1.92.18,2.54.53.62.35,1.1.75,1.43,1.2s.59.81.78,1.1h.3v-2.61h2.44v22.59h-2.53ZM71.25,1331.14c1.01,0,1.87-.27,2.57-.8s1.23-1.27,1.59-2.21c.36-.95.54-2.04.54-3.28s-.18-2.3-.53-3.23c-.36-.92-.88-1.64-1.58-2.16-.7-.52-1.56-.78-2.59-.78s-1.96.27-2.67.82c-.71.55-1.24,1.28-1.59,2.21-.35.93-.53,1.97-.53,3.13s.18,2.23.54,3.18.9,1.71,1.61,2.27c.71.56,1.59.84,2.65.84Z" />
    <path class="uuid-50aa85e7-6301-45ca-9469-8c81839032bd"
      d="M93.42,1326.34v-9.71h2.52v16.43h-2.52v-2.78h-.17c-.39.83-.98,1.54-1.8,2.12-.81.58-1.84.87-3.08.87-1.03,0-1.94-.23-2.74-.68-.8-.45-1.43-1.14-1.88-2.05-.46-.92-.68-2.07-.68-3.47v-10.44h2.53v10.27c0,1.2.34,2.15,1.01,2.87s1.54,1.07,2.58,1.07c.63,0,1.27-.16,1.92-.48.65-.32,1.2-.81,1.65-1.48.45-.66.67-1.51.67-2.54Z" />
    <path class="uuid-50aa85e7-6301-45ca-9469-8c81839032bd"
      d="M101.85,1313.89c-.49,0-.92-.17-1.27-.5-.35-.33-.53-.74-.53-1.21s.18-.87.53-1.21c.35-.33.78-.5,1.27-.5s.92.17,1.27.5c.35.34.53.74.53,1.21s-.18.87-.53,1.21c-.35.34-.78.5-1.27.5ZM100.56,1333.06v-16.43h2.53v16.43h-2.53Z" />
    <path class="uuid-50aa85e7-6301-45ca-9469-8c81839032bd"
      d="M114.39,1333.4c-1.54,0-2.87-.36-3.98-1.09s-1.97-1.73-2.57-3.01c-.6-1.28-.9-2.74-.9-4.38s.31-3.14.92-4.42,1.48-2.28,2.59-3.01c1.11-.72,2.41-1.09,3.89-1.09,1.16,0,2.2.21,3.12.64.93.43,1.69,1.03,2.28,1.8.59.77.96,1.67,1.1,2.7h-2.52c-.19-.75-.62-1.41-1.28-2-.66-.58-1.55-.87-2.66-.87-.98,0-1.84.25-2.58.76-.74.51-1.31,1.23-1.72,2.15-.41.92-.62,2.01-.62,3.25s.2,2.38.6,3.32c.4.94.97,1.67,1.71,2.19.74.52,1.61.78,2.6.78.66,0,1.25-.11,1.79-.34.54-.23.99-.56,1.36-.98.37-.43.63-.94.79-1.54h2.52c-.14.97-.49,1.84-1.05,2.62-.56.77-1.3,1.39-2.21,1.84-.92.45-1.98.68-3.19.68Z" />
    <path class="uuid-50aa85e7-6301-45ca-9469-8c81839032bd"
      d="M124.53,1333.06v-21.91h2.53v21.91h-2.53ZM126.88,1327.07l-.04-3.12h.51l7.19-7.32h3.12l-7.66,7.75h-.21l-2.91,2.7ZM134.97,1333.06l-6.42-8.13,1.8-1.75,7.83,9.89h-3.21Z" />
    <path class="uuid-50aa85e7-6301-45ca-9469-8c81839032bd"
      d="M149.73,1333.06v-21.91h2.52v8.09h.21c.19-.29.44-.65.78-1.1.33-.45.81-.85,1.43-1.2.62-.35,1.47-.53,2.54-.53,1.38,0,2.6.35,3.66,1.04,1.06.69,1.88,1.67,2.47,2.94s.89,2.77.89,4.49-.3,3.25-.89,4.52c-.59,1.27-1.41,2.26-2.46,2.95-1.05.7-2.26,1.04-3.63,1.04-1.06,0-1.9-.18-2.54-.53-.63-.35-1.12-.76-1.47-1.21-.34-.45-.61-.83-.79-1.13h-.3v2.52h-2.44ZM152.22,1324.85c0,1.24.18,2.33.54,3.28.36.95.9,1.68,1.59,2.21.7.53,1.55.8,2.57.8s1.94-.28,2.65-.84c.71-.56,1.25-1.32,1.61-2.27.36-.95.54-2.01.54-3.18s-.18-2.2-.53-3.13c-.35-.93-.88-1.67-1.59-2.21s-1.6-.82-2.67-.82-1.89.26-2.59.78c-.7.52-1.23,1.24-1.58,2.16-.36.92-.53,2-.53,3.23Z" />
    <path class="uuid-50aa85e7-6301-45ca-9469-8c81839032bd"
      d="M168.09,1333.06v-16.43h2.44v2.48h.17c.3-.81.84-1.47,1.63-1.98.78-.51,1.67-.76,2.65-.76.18,0,.42,0,.7.01.28,0,.49.02.63.03v2.57c-.09-.02-.28-.06-.58-.1-.3-.05-.62-.07-.96-.07-.8,0-1.51.17-2.13.5s-1.12.79-1.48,1.37c-.36.58-.54,1.24-.54,1.98v10.4h-2.53Z" />
    <path class="uuid-50aa85e7-6301-45ca-9469-8c81839032bd"
      d="M185.47,1333.4c-1.48,0-2.78-.35-3.9-1.06s-1.99-1.69-2.61-2.96-.94-2.75-.94-4.45.31-3.21.94-4.48c.62-1.28,1.49-2.27,2.61-2.97s2.42-1.06,3.9-1.06,2.78.35,3.9,1.06,1.99,1.7,2.61,2.97c.62,1.28.94,2.77.94,4.48s-.31,3.18-.94,4.45-1.49,2.26-2.61,2.96-2.42,1.06-3.9,1.06ZM185.47,1331.14c1.13,0,2.05-.29,2.78-.87.73-.58,1.27-1.34,1.62-2.28s.52-1.96.52-3.06-.17-2.12-.52-3.07-.89-1.72-1.62-2.3c-.73-.58-1.66-.88-2.78-.88s-2.05.29-2.78.88c-.73.58-1.27,1.35-1.62,2.3s-.52,1.97-.52,3.07.17,2.12.52,3.06.89,1.7,1.62,2.28c.73.58,1.65.87,2.78.87Z" />
    <path class="uuid-50aa85e7-6301-45ca-9469-8c81839032bd"
      d="M199.93,1333.06l-5.01-16.43h2.65l3.55,12.58h.17l3.51-12.58h2.7l3.47,12.54h.17l3.55-12.54h2.65l-5.01,16.43h-2.48l-3.59-12.62h-.26l-3.59,12.62h-2.48Z" />
    <path class="uuid-50aa85e7-6301-45ca-9469-8c81839032bd"
      d="M223.21,1323.18v9.89h-2.53v-16.43h2.44v2.57h.21c.39-.83.97-1.51,1.75-2.02.78-.51,1.8-.76,3.04-.76,1.11,0,2.09.23,2.92.68.83.45,1.48,1.14,1.95,2.05.46.92.7,2.07.7,3.47v10.44h-2.52v-10.27c0-1.29-.34-2.3-1.01-3.02-.67-.72-1.59-1.09-2.76-1.09-.81,0-1.52.17-2.16.52-.63.35-1.13.86-1.49,1.53-.36.67-.55,1.48-.55,2.44Z" />
    <path class="uuid-50aa85e7-6301-45ca-9469-8c81839032bd"
      d="M8.86,1352.78v2.14H0v-2.14h8.86ZM2.65,1369.21v-18.7c0-.94.22-1.73.66-2.35s1.02-1.1,1.72-1.41,1.45-.47,2.24-.47c.62,0,1.13.05,1.52.15.39.1.68.19.88.28l-.73,2.18c-.13-.04-.3-.1-.53-.16-.22-.06-.52-.1-.88-.1-.83,0-1.44.21-1.8.63-.37.42-.55,1.04-.55,1.85v18.1h-2.52Z" />
    <path class="uuid-50aa85e7-6301-45ca-9469-8c81839032bd"
      d="M18.4,1369.56c-1.48,0-2.78-.35-3.9-1.06s-1.99-1.69-2.61-2.96-.94-2.75-.94-4.45.31-3.21.94-4.48c.62-1.28,1.49-2.27,2.61-2.97s2.42-1.06,3.9-1.06,2.78.35,3.9,1.06,1.99,1.7,2.61,2.97c.62,1.28.94,2.77.94,4.48s-.31,3.18-.94,4.45-1.49,2.26-2.61,2.96-2.42,1.06-3.9,1.06ZM18.4,1367.29c1.13,0,2.05-.29,2.78-.87.73-.58,1.27-1.34,1.62-2.28s.52-1.96.52-3.06-.17-2.12-.52-3.07-.89-1.72-1.62-2.3c-.73-.58-1.66-.88-2.78-.88s-2.05.29-2.78.88c-.73.58-1.27,1.35-1.62,2.3s-.52,1.97-.52,3.07.17,2.12.52,3.06.89,1.7,1.62,2.28c.73.58,1.65.87,2.78.87Z" />
    <path class="uuid-50aa85e7-6301-45ca-9469-8c81839032bd"
      d="M30.9,1352.78l3.94,6.72,3.94-6.72h2.91l-5.31,8.22,5.31,8.22h-2.91l-3.94-6.38-3.94,6.38h-2.91l5.22-8.22-5.22-8.22h2.91Z" />
    <path class="uuid-50aa85e7-6301-45ca-9469-8c81839032bd"
      d="M53.75,1352.78h2.53v17.63c0,1.01-.17,1.89-.52,2.63-.35.74-.87,1.32-1.56,1.72-.7.41-1.57.61-2.63.61h-.51v-2.35h.47c.77,0,1.33-.23,1.69-.68.36-.45.53-1.1.53-1.93v-17.63ZM54.99,1350.04c-.49,0-.92-.17-1.27-.5-.35-.33-.53-.74-.53-1.21s.18-.87.53-1.21c.35-.33.78-.5,1.27-.5s.92.17,1.27.5c.35.34.53.74.53,1.21s-.18.87-.53,1.21c-.35.34-.78.5-1.27.5Z" />
    <path class="uuid-50aa85e7-6301-45ca-9469-8c81839032bd"
      d="M71.25,1362.5v-9.71h2.52v16.43h-2.52v-2.78h-.17c-.39.83-.98,1.54-1.8,2.12-.81.58-1.84.87-3.08.87-1.03,0-1.94-.23-2.74-.68-.8-.45-1.43-1.14-1.88-2.05-.46-.92-.68-2.07-.68-3.47v-10.44h2.53v10.27c0,1.2.34,2.15,1.01,2.87s1.54,1.07,2.58,1.07c.63,0,1.27-.16,1.92-.48.65-.32,1.2-.81,1.65-1.48.45-.66.67-1.51.67-2.54Z" />
    <path class="uuid-50aa85e7-6301-45ca-9469-8c81839032bd"
      d="M78.4,1369.21v-16.43h2.44v2.57h.21c.34-.88.9-1.56,1.66-2.05.76-.49,1.68-.73,2.75-.73s1.99.24,2.71.73,1.29,1.17,1.7,2.05h.17c.42-.85,1.05-1.52,1.89-2.03.84-.5,1.85-.75,3.03-.75,1.47,0,2.67.46,3.61,1.37.93.92,1.4,2.34,1.4,4.27v11h-2.52v-11c0-1.21-.33-2.08-1-2.6s-1.44-.78-2.34-.78c-1.16,0-2.05.35-2.69,1.04s-.95,1.58-.95,2.64v10.7h-2.57v-11.25c0-.93-.3-1.69-.91-2.26-.61-.57-1.39-.86-2.34-.86-.66,0-1.27.17-1.83.52-.57.35-1.02.83-1.37,1.45-.35.62-.52,1.33-.52,2.13v10.27h-2.53Z" />
    <path class="uuid-50aa85e7-6301-45ca-9469-8c81839032bd"
      d="M104.59,1375.38v-22.59h2.44v2.61h.3c.19-.29.44-.65.78-1.1.33-.45.81-.85,1.43-1.2.62-.35,1.47-.53,2.54-.53,1.38,0,2.6.35,3.66,1.04,1.06.69,1.88,1.67,2.47,2.94.59,1.27.89,2.77.89,4.49s-.3,3.25-.89,4.52c-.59,1.27-1.41,2.26-2.46,2.95-1.05.7-2.26,1.04-3.63,1.04-1.06,0-1.9-.18-2.54-.53-.63-.35-1.12-.76-1.46-1.21-.34-.45-.61-.83-.79-1.13h-.21v8.69h-2.53ZM107.07,1361c0,1.24.18,2.33.55,3.28.36.95.89,1.68,1.59,2.21s1.55.8,2.57.8,1.94-.28,2.65-.84c.71-.56,1.24-1.32,1.6-2.27s.54-2.01.54-3.18-.18-2.2-.53-3.13c-.35-.93-.88-1.67-1.59-2.21-.71-.55-1.6-.82-2.67-.82s-1.89.26-2.59.78c-.7.52-1.23,1.24-1.58,2.16-.36.92-.54,2-.54,3.23Z" />
    <path class="uuid-50aa85e7-6301-45ca-9469-8c81839032bd"
      d="M134.59,1356.46l-2.27.64c-.14-.38-.35-.75-.63-1.11s-.65-.66-1.12-.89-1.07-.35-1.81-.35c-1.01,0-1.84.23-2.51.69s-1,1.04-1,1.75c0,.63.23,1.12.68,1.49.46.36,1.17.67,2.14.91l2.44.6c1.47.36,2.56.9,3.28,1.63.72.73,1.08,1.67,1.08,2.82,0,.94-.27,1.78-.81,2.53-.54.74-1.29,1.33-2.25,1.75s-2.08.64-3.36.64c-1.68,0-3.06-.36-4.16-1.09-1.1-.73-1.79-1.79-2.09-3.19l2.4-.6c.23.88.66,1.55,1.3,1.99.64.44,1.47.66,2.51.66,1.18,0,2.11-.25,2.81-.75.7-.5,1.04-1.11,1.04-1.81,0-.57-.2-1.05-.6-1.44s-1.01-.68-1.84-.87l-2.74-.64c-1.5-.36-2.61-.91-3.31-1.66-.7-.75-1.05-1.7-1.05-2.83,0-.93.26-1.75.79-2.46.52-.71,1.24-1.27,2.15-1.68.91-.41,1.94-.61,3.1-.61,1.63,0,2.9.36,3.83,1.07.93.71,1.59,1.66,1.99,2.82Z" />
    <path class="uuid-50aa85e7-6301-45ca-9469-8c81839032bd"
      d="M153.84,1369.56c-1.48,0-2.78-.35-3.9-1.06s-1.99-1.69-2.61-2.96-.94-2.75-.94-4.45.31-3.21.94-4.48c.62-1.28,1.49-2.27,2.61-2.97s2.42-1.06,3.9-1.06,2.78.35,3.9,1.06,1.99,1.7,2.61,2.97c.62,1.28.94,2.77.94,4.48s-.31,3.18-.94,4.45-1.49,2.26-2.61,2.96-2.42,1.06-3.9,1.06ZM153.84,1367.29c1.13,0,2.05-.29,2.78-.87.73-.58,1.27-1.34,1.62-2.28s.52-1.96.52-3.06-.17-2.12-.52-3.07-.89-1.72-1.62-2.3c-.73-.58-1.66-.88-2.78-.88s-2.05.29-2.78.88c-.73.58-1.27,1.35-1.62,2.3s-.52,1.97-.52,3.07.17,2.12.52,3.06.89,1.7,1.62,2.28c.73.58,1.65.87,2.78.87Z" />
    <path class="uuid-50aa85e7-6301-45ca-9469-8c81839032bd"
      d="M177.98,1352.78l-6.08,16.43h-2.57l-6.08-16.43h2.74l4.54,13.09h.17l4.54-13.09h2.74Z" />
    <path class="uuid-50aa85e7-6301-45ca-9469-8c81839032bd"
      d="M187.61,1369.56c-1.58,0-2.95-.35-4.09-1.05-1.14-.7-2.03-1.69-2.64-2.95s-.92-2.74-.92-4.42.31-3.17.92-4.46,1.48-2.29,2.59-3.02c1.11-.72,2.41-1.09,3.89-1.09.86,0,1.7.14,2.54.43s1.59.75,2.28,1.39c.69.64,1.23,1.48,1.64,2.53.41,1.05.61,2.34.61,3.87v1.07h-12.67v-2.18h10.1c0-.93-.18-1.75-.55-2.48-.37-.73-.89-1.3-1.56-1.72-.67-.42-1.47-.63-2.38-.63-1.01,0-1.87.25-2.61.74-.73.5-1.29,1.14-1.68,1.93-.39.79-.59,1.64-.59,2.55v1.46c0,1.24.22,2.29.65,3.15s1.03,1.51,1.8,1.96c.77.45,1.67.67,2.69.67.66,0,1.26-.09,1.8-.28.54-.19,1-.47,1.4-.86.39-.38.7-.86.91-1.43l2.44.68c-.26.83-.69,1.55-1.29,2.18-.61.62-1.36,1.11-2.25,1.46s-1.89.52-3.01.52Z" />
    <path class="uuid-50aa85e7-6301-45ca-9469-8c81839032bd"
      d="M198.26,1369.21v-16.43h2.44v2.48h.17c.3-.81.84-1.47,1.63-1.98.78-.51,1.67-.76,2.65-.76.18,0,.42,0,.7.01.28,0,.49.02.63.03v2.57c-.09-.02-.28-.06-.58-.1-.3-.05-.62-.07-.96-.07-.8,0-1.51.17-2.13.5s-1.12.79-1.48,1.37c-.36.58-.54,1.24-.54,1.98v10.4h-2.53Z" />
    <path class="uuid-50aa85e7-6301-45ca-9469-8c81839032bd"
      d="M8.69,1388.93v2.14H.17v-2.14h8.52ZM2.65,1385h2.52v15.66c0,.71.11,1.25.32,1.6.21.35.48.59.81.71.33.12.68.18,1.05.18.28,0,.51-.02.68-.05s.32-.06.43-.08l.51,2.27c-.17.06-.41.13-.72.2s-.7.1-1.17.1c-.71,0-1.41-.15-2.09-.46-.68-.31-1.24-.77-1.69-1.4-.45-.63-.67-1.42-.67-2.38v-16.35Z" />
    <path class="uuid-50aa85e7-6301-45ca-9469-8c81839032bd"
      d="M15.36,1395.48v9.89h-2.53v-21.91h2.53v8.04h.21c.38-.85.96-1.52,1.74-2.03s1.81-.75,3.1-.75c1.12,0,2.1.22,2.94.67.84.45,1.5,1.13,1.96,2.04.47.92.7,2.08.7,3.49v10.44h-2.52v-10.27c0-1.31-.34-2.32-1.01-3.03-.67-.72-1.61-1.08-2.8-1.08-.83,0-1.57.17-2.22.52-.65.35-1.17.86-1.54,1.53-.38.67-.56,1.48-.56,2.44Z" />
    <path class="uuid-50aa85e7-6301-45ca-9469-8c81839032bd"
      d="M37.53,1405.71c-1.58,0-2.95-.35-4.09-1.05-1.14-.7-2.03-1.69-2.64-2.95s-.92-2.74-.92-4.42.31-3.17.92-4.46,1.48-2.29,2.59-3.02c1.11-.72,2.41-1.09,3.89-1.09.86,0,1.7.14,2.54.43s1.59.75,2.28,1.39c.69.64,1.23,1.48,1.64,2.53.41,1.05.61,2.34.61,3.87v1.07h-12.67v-2.18h10.1c0-.93-.18-1.75-.55-2.48-.37-.73-.89-1.3-1.56-1.72-.67-.42-1.47-.63-2.38-.63-1.01,0-1.87.25-2.61.74-.73.5-1.29,1.14-1.68,1.93-.39.79-.59,1.64-.59,2.55v1.46c0,1.24.22,2.29.65,3.15s1.03,1.51,1.8,1.96c.77.45,1.67.67,2.69.67.66,0,1.26-.09,1.8-.28.54-.19,1-.47,1.4-.86.39-.38.7-.86.91-1.43l2.44.68c-.26.83-.69,1.55-1.29,2.18-.61.62-1.36,1.11-2.25,1.46s-1.89.52-3.01.52Z" />
    <path class="uuid-50aa85e7-6301-45ca-9469-8c81839032bd"
      d="M59.18,1383.46v21.91h-2.53v-21.91h2.53Z" />
    <path class="uuid-50aa85e7-6301-45ca-9469-8c81839032bd"
      d="M68.64,1405.75c-1.04,0-1.99-.2-2.83-.59-.85-.4-1.52-.97-2.02-1.72-.5-.75-.75-1.66-.75-2.73,0-.94.18-1.71.56-2.29.37-.59.87-1.05,1.49-1.39s1.31-.59,2.06-.75c.75-.17,1.51-.3,2.27-.4,1-.13,1.81-.23,2.43-.29.62-.07,1.08-.18,1.37-.35.29-.16.43-.45.43-.86v-.09c0-1.05-.29-1.88-.86-2.46s-1.44-.88-2.6-.88-2.15.26-2.83.79c-.69.53-1.17,1.09-1.44,1.69l-2.4-.86c.43-1,1-1.78,1.72-2.34s1.5-.95,2.35-1.18,1.69-.34,2.52-.34c.53,0,1.14.06,1.82.19.69.12,1.35.38,2,.77.64.38,1.18.97,1.61,1.74.43.78.64,1.82.64,3.12v10.83h-2.53v-2.23h-.13c-.17.36-.46.74-.86,1.15-.4.41-.93.75-1.59,1.04s-1.47.43-2.43.43ZM69.03,1403.48c1,0,1.84-.2,2.53-.59.69-.39,1.21-.9,1.56-1.52.35-.62.53-1.27.53-1.96v-2.31c-.11.13-.34.24-.7.35-.36.1-.77.19-1.24.27-.47.08-.92.14-1.36.19-.44.05-.79.1-1.06.13-.66.08-1.27.22-1.83.41-.57.19-1.02.47-1.37.85-.35.37-.52.88-.52,1.52,0,.88.33,1.54.98,1.98.65.45,1.48.67,2.49.67Z" />
    <path class="uuid-50aa85e7-6301-45ca-9469-8c81839032bd"
      d="M80.32,1405.37v-1.93l9.33-11.98v-.17h-9.03v-2.35h12.28v2.01l-9.07,11.9v.17h9.37v2.35h-12.88Z" />
    <path class="uuid-50aa85e7-6301-45ca-9469-8c81839032bd"
      d="M98.72,1411.53c-.43,0-.81-.03-1.15-.1-.33-.07-.57-.13-.7-.2l.64-2.22c.61.16,1.16.21,1.63.17s.89-.25,1.26-.63c.37-.37.7-.98,1.01-1.81l.47-1.28-6.08-16.52h2.74l4.54,13.09h.17l4.54-13.09h2.74l-6.98,18.83c-.31.85-.7,1.55-1.17,2.11-.46.56-1,.97-1.61,1.25-.61.27-1.3.41-2.06.41Z" />
    <path class="uuid-50aa85e7-6301-45ca-9469-8c81839032bd"
      d="M129.02,1405.71c-1.48,0-2.78-.35-3.9-1.06s-1.99-1.69-2.61-2.96-.94-2.75-.94-4.45.31-3.21.94-4.48c.62-1.28,1.49-2.27,2.61-2.97s2.42-1.06,3.9-1.06,2.78.35,3.9,1.06,1.99,1.7,2.61,2.97c.62,1.28.94,2.77.94,4.48s-.31,3.18-.94,4.45-1.49,2.26-2.61,2.96-2.42,1.06-3.9,1.06ZM129.02,1403.44c1.13,0,2.05-.29,2.78-.87.73-.58,1.27-1.34,1.62-2.28s.52-1.96.52-3.06-.17-2.12-.52-3.07-.89-1.72-1.62-2.3c-.73-.58-1.66-.88-2.78-.88s-2.05.29-2.78.88c-.73.58-1.27,1.35-1.62,2.3s-.52,1.97-.52,3.07.17,2.12.52,3.06.89,1.7,1.62,2.28c.73.58,1.65.87,2.78.87Z" />
    <path class="uuid-50aa85e7-6301-45ca-9469-8c81839032bd"
      d="M142.84,1383.46v21.91h-2.53v-21.91h2.53Z" />
    <path class="uuid-50aa85e7-6301-45ca-9469-8c81839032bd"
      d="M153.67,1405.71c-1.37,0-2.58-.35-3.63-1.04-1.05-.7-1.87-1.68-2.46-2.95-.59-1.27-.89-2.78-.89-4.52s.3-3.22.89-4.49,1.42-2.25,2.47-2.94c1.05-.69,2.27-1.04,3.66-1.04,1.07,0,1.92.18,2.54.53.62.35,1.1.75,1.43,1.2s.59.81.78,1.1h.21v-8.09h2.53v21.91h-2.44v-2.52h-.3c-.19.3-.45.68-.79,1.13-.34.45-.83.86-1.47,1.21-.63.35-1.48.53-2.54.53ZM154.01,1403.44c1.01,0,1.87-.27,2.57-.8s1.23-1.27,1.59-2.21c.36-.95.54-2.04.54-3.28s-.18-2.3-.53-3.23c-.36-.92-.88-1.64-1.58-2.16-.7-.52-1.56-.78-2.59-.78s-1.96.27-2.67.82c-.71.55-1.24,1.28-1.59,2.21-.35.93-.53,1.97-.53,3.13s.18,2.23.54,3.18.9,1.71,1.61,2.27c.71.56,1.59.84,2.65.84Z" />
    <path class="uuid-50aa85e7-6301-45ca-9469-8c81839032bd"
      d="M180.84,1405.71c-1.37,0-2.58-.35-3.63-1.04-1.05-.7-1.87-1.68-2.46-2.95-.59-1.27-.89-2.78-.89-4.52s.3-3.22.89-4.49,1.42-2.25,2.47-2.94c1.05-.69,2.27-1.04,3.66-1.04,1.07,0,1.92.18,2.54.53.62.35,1.1.75,1.43,1.2s.59.81.78,1.1h.21v-8.09h2.53v21.91h-2.44v-2.52h-.3c-.19.3-.45.68-.79,1.13-.34.45-.83.86-1.47,1.21-.63.35-1.48.53-2.54.53ZM181.19,1403.44c1.01,0,1.87-.27,2.57-.8s1.23-1.27,1.59-2.21c.36-.95.54-2.04.54-3.28s-.18-2.3-.53-3.23c-.36-.92-.88-1.64-1.58-2.16-.7-.52-1.56-.78-2.59-.78s-1.96.27-2.67.82c-.71.55-1.24,1.28-1.59,2.21-.35.93-.53,1.97-.53,3.13s.18,2.23.54,3.18.9,1.71,1.61,2.27c.71.56,1.59.84,2.65.84Z" />
    <path class="uuid-50aa85e7-6301-45ca-9469-8c81839032bd"
      d="M200.02,1405.71c-1.48,0-2.78-.35-3.9-1.06s-1.99-1.69-2.61-2.96-.94-2.75-.94-4.45.31-3.21.94-4.48c.62-1.28,1.49-2.27,2.61-2.97s2.42-1.06,3.9-1.06,2.78.35,3.9,1.06,1.99,1.7,2.61,2.97c.62,1.28.94,2.77.94,4.48s-.31,3.18-.94,4.45-1.49,2.26-2.61,2.96-2.42,1.06-3.9,1.06ZM200.02,1403.44c1.13,0,2.05-.29,2.78-.87.73-.58,1.27-1.34,1.62-2.28s.52-1.96.52-3.06-.17-2.12-.52-3.07-.89-1.72-1.62-2.3c-.73-.58-1.66-.88-2.78-.88s-2.05.29-2.78.88c-.73.58-1.27,1.35-1.62,2.3s-.52,1.97-.52,3.07.17,2.12.52,3.06.89,1.7,1.62,2.28c.73.58,1.65.87,2.78.87Z" />
    <path class="uuid-50aa85e7-6301-45ca-9469-8c81839032bd"
      d="M217.95,1411.87c-1.22,0-2.27-.16-3.15-.47-.88-.31-1.61-.72-2.19-1.22-.58-.5-1.04-1.04-1.38-1.61l2.01-1.41c.23.3.52.64.87,1.03.35.39.83.73,1.44,1.02.61.29,1.41.43,2.4.43,1.33,0,2.42-.32,3.28-.96.86-.64,1.29-1.65,1.29-3.02v-3.34h-.21c-.19.3-.45.67-.79,1.11-.34.44-.82.83-1.46,1.17-.63.34-1.48.51-2.55.51-1.33,0-2.52-.31-3.57-.94-1.05-.63-1.88-1.54-2.49-2.74-.61-1.2-.91-2.65-.91-4.36s.3-3.15.89-4.4c.59-1.25,1.42-2.22,2.47-2.91,1.05-.69,2.27-1.03,3.66-1.03,1.07,0,1.92.18,2.55.53.63.35,1.12.75,1.46,1.2s.6.81.79,1.1h.26v-2.61h2.44v16.9c0,1.41-.32,2.56-.96,3.45-.64.89-1.49,1.54-2.57,1.96s-2.27.63-3.58.63ZM217.86,1402.84c1.01,0,1.87-.23,2.57-.7.7-.46,1.23-1.13,1.59-2,.36-.87.54-1.91.54-3.12s-.18-2.23-.53-3.13c-.36-.91-.88-1.62-1.58-2.13s-1.56-.77-2.59-.77-1.96.27-2.67.81c-.71.54-1.24,1.27-1.59,2.18-.35.91-.53,1.93-.53,3.04s.18,2.15.54,3.02c.36.87.9,1.56,1.61,2.05.71.5,1.59.74,2.65.74Z" />
    <path class="uuid-50aa85e7-6301-45ca-9469-8c81839032bd"
      d="M231.51,1405.54c-.53,0-.98-.19-1.36-.57s-.57-.83-.57-1.36.19-.98.57-1.36.83-.57,1.36-.57.98.19,1.36.57.57.83.57,1.36c0,.35-.09.67-.26.96-.17.29-.41.53-.7.7s-.61.26-.97.26Z" />
  </g>
  <g>
    <path class="uuid-6f6e523a-98bc-4dac-862b-71ecc9eb559f"
      d="M11.22,496.26V192.75h43.36v130.07h108.39v-130.07h43.36v303.5h-43.36v-130.07H54.58v130.07H11.22Z" />
    <path class="uuid-6f6e523a-98bc-4dac-862b-71ecc9eb559f"
      d="M249.69,496.26V192.75h155.66v43.36h-112.3v86.72h112.3v43.36h-112.3v86.72h112.3v43.36h-155.66Z" />
    <path class="uuid-6f6e523a-98bc-4dac-862b-71ecc9eb559f"
      d="M424.85,453.34c0-73.28,88.02-95.39,88.02-184.71,0-18.64-6.94-59.83-16.48-75.88h46.39l118.37,303.5h-46.39l-44.66-114.03c3.47,44.23-6.5,114.03-64.17,114.03h-68.07c-9.1-12.57-13.01-27.75-13.01-42.92ZM468.21,443.36c0,23.41,13.44,39.89,37.72,39.89,43.36,0,53.33-50.73,53.33-84.55,0-51.6-18.64-92.35-36.85-139.18,5.64,84.11-54.2,129.21-54.2,183.84Z" />
    <path class="uuid-6f6e523a-98bc-4dac-862b-71ecc9eb559f"
      d="M678.49,192.75h128.34c84.11,0,149.15,67.21,149.15,152.62s-65.04,150.89-149.15,150.89h-128.34V192.75ZM721.85,236.11v216.79h85.42c60.27,0,105.36-45.53,105.36-107.53s-45.09-109.26-105.36-109.26h-85.42Z" />
    <path class="uuid-6f6e523a-98bc-4dac-862b-71ecc9eb559f"
      d="M984.16,192.75h43.36v260.15h112.3v43.36h-155.66V192.75Z" />
    <path class="uuid-6f6e523a-98bc-4dac-862b-71ecc9eb559f"
      d="M1161.49,192.75h43.36v303.5h-43.36V192.75Z" />
    <path class="uuid-6f6e523a-98bc-4dac-862b-71ecc9eb559f"
      d="M1291.57,483.25h155.22l-155.22-290.5h48.99c26.01,48.13,51.6,93.22,67.2,146.12l1.3-.43c-7.37-25.15-17.78-58.53-17.78-84.55,0-39.02,18.64-68.94,60.27-68.94,19.51,0,37.72,6.94,52.03,20.81v290.5h-255.38V192.75h43.36v290.5ZM1406.47,273.4c0,52.9,57.67,150.89,84.11,198.58v-181.24c0-27.75-13.87-62.87-46.39-62.87-26.45,0-37.72,21.68-37.72,45.53Z" />
    <path class="uuid-6f6e523a-98bc-4dac-862b-71ecc9eb559f"
      d="M1542.6,496.26V192.75h155.66v43.36h-112.3v86.72h112.3v43.36h-112.3v86.72h112.3v43.36h-155.66Z" />
    <path class="uuid-6f6e523a-98bc-4dac-862b-71ecc9eb559f"
      d="M11.22,890.42v-303.5h155.66v43.36H54.58v86.72h112.3v43.36H54.58v130.07H11.22Z" />
    <path class="uuid-6f6e523a-98bc-4dac-862b-71ecc9eb559f"
      d="M262.7,585.18c23.41,0,46.83,9.11,63.3,25.58l133.11,133.11c16.91,16.91,26.01,40.32,26.01,63.74,0,48.56-36.42,84.98-84.98,84.98-23.41,0-46.83-9.11-63.74-26.01l-133.11-133.11c-16.48-16.48-25.58-39.89-25.58-62.87,0-48.56,36.42-85.42,84.98-85.42ZM428.76,775.09l-133.98-133.98c-8.67-8.67-20.38-13.44-32.08-13.44-23.85,0-42.49,18.64-42.49,42.49,0,12.14,5.2,23.85,13.44,32.08l133.98,133.98c8.24,8.24,19.94,13.44,32.08,13.44,23.85,0,42.49-18.64,42.49-42.49,0-11.71-4.77-23.41-13.44-32.08Z" />
    <path class="uuid-6f6e523a-98bc-4dac-862b-71ecc9eb559f"
      d="M681.97,890.42v-303.5h43.36v303.5h-88.45l-86.72-303.5v303.5h-43.36v-303.5h88.45l86.72,303.5Z" />
    <path class="uuid-6f6e523a-98bc-4dac-862b-71ecc9eb559f"
      d="M744.83,586.92h180.37v287.46c-15.61,13.44-35.55,20.81-56.37,20.81-55.5,0-91.05-35.55-91.05-91.05,0-59.83,35.99-114.03,35.99-173.87h-68.94v-43.36ZM825.48,874.38c72.41.43,86.72-60.7,86.72-121.4v-122.7h-86.72v244.11Z" />
  </g>
</svg>