<?xml version="1.0" encoding="UTF-8"?>
<svg id="uuid-8c72324d-83d2-4525-9e1f-1c7c729618db" data-name="Ebene 1" xmlns="http://www.w3.org/2000/svg" viewBox="0 0 484.72 948.36">
  <defs>
    <style>
      .uuid-9fbdd176-20b7-4aa8-9f11-1f5835ef15a7 {
        fill: #ff5700;
      }

      .uuid-9fbdd176-20b7-4aa8-9f11-1f5835ef15a7, .uuid-d06bcbdd-e32b-4042-83e3-83b33671b4cb, .uuid-545bef5d-838c-43c0-a5a4-8b24f1063427, .uuid-51b03c96-367a-4ed4-8e94-737736aa554c, .uuid-11ac7927-ead8-4cdd-9bee-5fe549309d94 {
        stroke-width: 0px;
      }

      .uuid-d06bcbdd-e32b-4042-83e3-83b33671b4cb {
        fill: #2c6566;
      }

      .uuid-f8fcc7d9-668f-44aa-b44b-5b32e92ef58a {
        fill: #ebe9e9;
        stroke: #004842;
        stroke-miterlimit: 10;
        stroke-width: .5px;
      }

      .uuid-545bef5d-838c-43c0-a5a4-8b24f1063427 {
        fill: #004842;
      }

      .uuid-51b03c96-367a-4ed4-8e94-737736aa554c {
        fill: #2f797c;
      }

      .uuid-11ac7927-ead8-4cdd-9bee-5fe549309d94 {
        fill: #a6fca3;
      }
    </style>
  </defs>
  <rect class="uuid-545bef5d-838c-43c0-a5a4-8b24f1063427" x="0" y="0" width="344.45" height="344.45"/>
  <rect class="uuid-f8fcc7d9-668f-44aa-b44b-5b32e92ef58a" x="364.09" y="84.02" width="82.65" height="82.65"/>
  <rect class="uuid-51b03c96-367a-4ed4-8e94-737736aa554c" x="48.81" y="285.48" width="140.76" height="140.76"/>
  <rect class="uuid-d06bcbdd-e32b-4042-83e3-83b33671b4cb" x="274.07" y="189.57" width="210.27" height="210.27"/>
  <rect class="uuid-9fbdd176-20b7-4aa8-9f11-1f5835ef15a7" x="130.42" y="641.05" width="262.79" height="262.79"/>
  <rect class="uuid-11ac7927-ead8-4cdd-9bee-5fe549309d94" x="355.87" y="819.5" width="128.86" height="128.86"/>
  <g>
    <g>
      <path class="uuid-9fbdd176-20b7-4aa8-9f11-1f5835ef15a7" d="M49.02,491.52l.19-1.16h7.52l-.19,1.16h-7.52ZM49.6,488.08l.19-1.16h7.51l-.19,1.16h-7.51ZM50.03,494.18l1.63-9.92h1.16l-1.63,9.92h-1.16ZM53.51,494.18l1.63-9.92h1.16l-1.63,9.92h-1.16Z"/>
      <path class="uuid-9fbdd176-20b7-4aa8-9f11-1f5835ef15a7" d="M61.91,494.34c-.77,0-1.42-.21-1.96-.61-.54-.4-.96-.98-1.25-1.75s-.43-1.69-.43-2.76.14-1.99.43-2.76c.29-.76.71-1.34,1.25-1.74.54-.4,1.2-.6,1.95-.6s1.41.2,1.95.6c.54.4.96.98,1.25,1.74.29.76.43,1.68.43,2.75s-.14,2-.43,2.77-.7,1.35-1.24,1.75c-.54.4-1.2.6-1.96.6ZM61.91,493.05c.67,0,1.2-.33,1.58-.98s.57-1.6.57-2.84c0-.82-.09-1.52-.26-2.09-.17-.57-.42-1-.74-1.3-.32-.3-.7-.44-1.15-.44-.67,0-1.19.33-1.57.99-.38.66-.57,1.61-.58,2.84,0,.83.09,1.52.26,2.09.17.57.42,1,.74,1.29.32.29.7.44,1.15.44Z"/>
      <path class="uuid-9fbdd176-20b7-4aa8-9f11-1f5835ef15a7" d="M70.72,494.34c-.77,0-1.42-.21-1.96-.61-.54-.4-.96-.98-1.25-1.75s-.43-1.69-.43-2.76.14-1.99.43-2.76c.29-.76.71-1.34,1.25-1.74.54-.4,1.2-.6,1.95-.6s1.41.2,1.95.6c.54.4.96.98,1.25,1.74.29.76.43,1.68.43,2.75s-.14,2-.43,2.77-.7,1.35-1.24,1.75c-.54.4-1.2.6-1.96.6ZM70.72,493.05c.67,0,1.2-.33,1.58-.98s.57-1.6.57-2.84c0-.82-.09-1.52-.26-2.09-.17-.57-.42-1-.74-1.3-.32-.3-.7-.44-1.15-.44-.67,0-1.19.33-1.57.99-.38.66-.57,1.61-.58,2.84,0,.83.09,1.52.26,2.09.17.57.42,1,.74,1.29.32.29.7.44,1.15.44Z"/>
      <path class="uuid-9fbdd176-20b7-4aa8-9f11-1f5835ef15a7" d="M75.87,492.24v-1.21l4.29-6.77h.95v1.78h-.6l-3.06,4.85v.08h5.87v1.27h-7.44ZM80.57,494.18v-2.86s0-7.06,0-7.06h1.42v9.92h-1.43Z"/>
      <path class="uuid-9fbdd176-20b7-4aa8-9f11-1f5835ef15a7" d="M88.35,494.31c-.69,0-1.31-.12-1.84-.36-.53-.24-.95-.57-1.25-.99-.3-.42-.45-.9-.45-1.43,0-.42.08-.81.26-1.16.18-.35.42-.65.72-.89.3-.24.64-.39,1.02-.45v-.06c-.49-.12-.89-.38-1.19-.79s-.44-.88-.44-1.41c0-.51.13-.96.4-1.36.27-.4.65-.71,1.13-.94.48-.23,1.02-.34,1.63-.34s1.14.12,1.62.35.85.55,1.13.94c.28.4.41.85.42,1.35,0,.53-.16,1-.45,1.41-.3.41-.69.67-1.17.79v.06c.37.06.71.22,1,.45.3.24.54.53.72.89.18.35.27.74.27,1.16,0,.54-.15,1.01-.45,1.43-.3.42-.72.75-1.25.99-.53.24-1.14.36-1.83.36ZM88.35,493.09c.41,0,.77-.07,1.07-.21.3-.14.53-.33.7-.58.16-.25.25-.54.25-.87,0-.35-.09-.65-.27-.91-.18-.26-.41-.47-.71-.62-.3-.15-.64-.23-1.03-.23s-.74.08-1.04.23c-.3.15-.54.36-.72.62s-.26.57-.26.91c0,.33.08.62.24.87s.4.44.7.58c.3.14.66.21,1.07.21ZM88.35,488.47c.33,0,.62-.07.88-.2.26-.13.46-.32.6-.55.15-.24.22-.51.23-.83,0-.31-.08-.58-.22-.81-.14-.23-.34-.41-.6-.54s-.55-.19-.89-.19-.64.06-.9.19-.46.31-.6.54-.21.5-.21.81c0,.32.07.59.21.83.15.24.35.42.6.55.26.13.55.2.89.2Z"/>
      <path class="uuid-9fbdd176-20b7-4aa8-9f11-1f5835ef15a7" d="M93.4,492.24v-1.21l4.29-6.77h.95v1.78h-.6l-3.06,4.85v.08h5.87v1.27h-7.44ZM98.1,494.18v-2.86s0-7.06,0-7.06h1.42v9.92h-1.43Z"/>
      <path class="uuid-9fbdd176-20b7-4aa8-9f11-1f5835ef15a7" d="M102.52,494.18v-1.08l3.36-3.48c.36-.38.65-.71.89-1,.23-.29.41-.56.53-.82s.17-.53.17-.82c0-.33-.08-.61-.23-.85-.15-.24-.37-.43-.63-.56-.27-.13-.57-.2-.91-.2-.36,0-.67.07-.93.22-.27.14-.47.35-.61.61s-.21.57-.21.93h-1.43c0-.6.14-1.13.42-1.58.28-.45.66-.8,1.14-1.05s1.03-.38,1.65-.38,1.17.12,1.65.37.85.58,1.12,1.01c.27.42.4.9.4,1.44,0,.37-.07.73-.21,1.08-.14.35-.38.74-.71,1.17-.34.43-.81.95-1.41,1.57l-1.97,2.06v.07h4.46v1.28h-6.53Z"/>
    </g>
    <g>
      <path class="uuid-9fbdd176-20b7-4aa8-9f11-1f5835ef15a7" d="M49.02,537.22l.19-1.16h7.52l-.19,1.16h-7.52ZM49.6,533.77l.19-1.16h7.51l-.19,1.16h-7.51ZM50.03,539.87l1.63-9.92h1.16l-1.63,9.92h-1.16ZM53.51,539.87l1.63-9.92h1.16l-1.63,9.92h-1.16Z"/>
      <path class="uuid-9fbdd176-20b7-4aa8-9f11-1f5835ef15a7" d="M58.6,539.87v-9.92h6.22v1.29h-4.72v3.02h4.4v1.28h-4.4v3.04h4.78v1.29h-6.28Z"/>
      <path class="uuid-9fbdd176-20b7-4aa8-9f11-1f5835ef15a7" d="M66.82,539.87v-9.92h3.63c.7,0,1.29.12,1.75.35s.81.54,1.04.93c.23.39.34.83.34,1.32,0,.41-.08.76-.23,1.04-.15.28-.35.51-.61.68-.25.17-.53.29-.84.37v.1c.33.02.65.12.97.32.31.2.57.47.78.83s.31.79.31,1.31-.12.96-.36,1.36-.6.72-1.1.95c-.49.23-1.12.35-1.89.35h-3.8ZM68.31,534.25h2.01c.34,0,.64-.06.91-.19s.48-.31.64-.54.24-.51.24-.83c0-.41-.14-.75-.43-1.03-.29-.28-.73-.42-1.32-.42h-2.04v3.02ZM68.31,538.59h2.16c.72,0,1.23-.14,1.54-.42.31-.28.46-.62.46-1.04,0-.31-.08-.6-.24-.86-.16-.26-.38-.47-.68-.62-.29-.15-.64-.23-1.04-.23h-2.21v3.18Z"/>
      <path class="uuid-9fbdd176-20b7-4aa8-9f11-1f5835ef15a7" d="M75.74,539.87v-9.92h6.22v1.29h-4.72v3.02h4.4v1.28h-4.4v3.04h4.78v1.29h-6.28Z"/>
      <path class="uuid-9fbdd176-20b7-4aa8-9f11-1f5835ef15a7" d="M87.12,529.82c.44,0,.88.08,1.31.24.43.16.82.42,1.17.77s.62.84.83,1.45c.21.61.31,1.36.32,2.27,0,.87-.09,1.64-.26,2.32-.17.68-.42,1.25-.75,1.71-.32.46-.72.82-1.18,1.06-.46.24-.98.36-1.56.36s-1.12-.12-1.57-.35-.83-.55-1.12-.97-.47-.89-.54-1.42h1.48c.1.43.3.77.59,1.03s.68.39,1.16.39c.73,0,1.29-.32,1.7-.95.41-.63.61-1.52.62-2.66h-.08c-.17.28-.38.52-.63.72-.25.2-.53.36-.84.46-.31.11-.64.16-.99.16-.57,0-1.09-.14-1.56-.42-.47-.28-.84-.67-1.12-1.16-.28-.49-.42-1.05-.42-1.68s.14-1.19.43-1.7c.29-.51.69-.91,1.2-1.21s1.12-.44,1.81-.44ZM87.13,531.08c-.38,0-.72.09-1.02.28-.3.19-.54.44-.71.75-.17.31-.26.66-.26,1.05s.08.73.25,1.04c.17.31.4.56.7.74.3.18.63.27,1.01.27.28,0,.55-.05.79-.16s.46-.26.64-.46c.18-.2.33-.42.43-.67s.15-.51.15-.78c0-.36-.09-.7-.26-1.02-.17-.31-.41-.57-.71-.76-.3-.19-.64-.29-1.03-.29Z"/>
      <path class="uuid-9fbdd176-20b7-4aa8-9f11-1f5835ef15a7" d="M92.63,539.87v-9.92h6.22v1.29h-4.72v3.02h4.4v1.28h-4.4v3.04h4.78v1.29h-6.28Z"/>
      <path class="uuid-9fbdd176-20b7-4aa8-9f11-1f5835ef15a7" d="M104.01,529.82c.44,0,.88.08,1.31.24.43.16.82.42,1.17.77s.62.84.83,1.45c.21.61.31,1.36.32,2.27,0,.87-.09,1.64-.26,2.32-.17.68-.42,1.25-.75,1.71-.32.46-.72.82-1.18,1.06-.46.24-.98.36-1.56.36s-1.12-.12-1.57-.35-.83-.55-1.12-.97-.47-.89-.54-1.42h1.48c.1.43.3.77.59,1.03s.68.39,1.16.39c.73,0,1.29-.32,1.7-.95.41-.63.61-1.52.62-2.66h-.08c-.17.28-.38.52-.63.72-.25.2-.53.36-.84.46-.31.11-.64.16-.99.16-.57,0-1.09-.14-1.56-.42-.47-.28-.84-.67-1.12-1.16-.28-.49-.42-1.05-.42-1.68s.14-1.19.43-1.7c.29-.51.69-.91,1.2-1.21s1.12-.44,1.81-.44ZM104.02,531.08c-.38,0-.72.09-1.02.28-.3.19-.54.44-.71.75-.17.31-.26.66-.26,1.05s.08.73.25,1.04c.17.31.4.56.7.74.3.18.63.27,1.01.27.28,0,.55-.05.79-.16s.46-.26.64-.46c.18-.2.33-.42.43-.67s.15-.51.15-.78c0-.36-.09-.7-.26-1.02-.17-.31-.41-.57-.71-.76-.3-.19-.64-.29-1.03-.29Z"/>
    </g>
    <g>
      <path class="uuid-9fbdd176-20b7-4aa8-9f11-1f5835ef15a7" d="M49.02,582.89l.19-1.16h7.52l-.19,1.16h-7.52ZM49.6,579.44l.19-1.16h7.51l-.19,1.16h-7.51ZM50.03,585.55l1.63-9.92h1.16l-1.63,9.92h-1.16ZM53.51,585.55l1.63-9.92h1.16l-1.63,9.92h-1.16Z"/>
      <path class="uuid-9fbdd176-20b7-4aa8-9f11-1f5835ef15a7" d="M58.46,585.55v-1.08l3.36-3.48c.36-.38.65-.71.89-1,.23-.29.41-.56.53-.82s.17-.53.17-.82c0-.33-.08-.61-.23-.85-.15-.24-.37-.43-.63-.56-.27-.13-.57-.2-.91-.2-.36,0-.67.07-.93.22-.27.14-.47.35-.61.61s-.21.57-.21.93h-1.43c0-.6.14-1.13.42-1.58.28-.45.66-.8,1.14-1.05s1.03-.38,1.65-.38,1.17.12,1.65.37.85.58,1.12,1.01c.27.42.4.9.4,1.44,0,.37-.07.73-.21,1.08-.14.35-.38.74-.71,1.17-.34.43-.81.95-1.41,1.57l-1.97,2.06v.07h4.46v1.28h-6.53Z"/>
      <path class="uuid-9fbdd176-20b7-4aa8-9f11-1f5835ef15a7" d="M75.19,578.85h-1.51c-.06-.32-.17-.61-.32-.85-.16-.25-.35-.45-.58-.62-.23-.17-.48-.3-.77-.39-.28-.09-.58-.13-.9-.13-.57,0-1.08.14-1.53.43s-.81.71-1.07,1.26-.39,1.23-.39,2.03.13,1.49.39,2.04c.26.56.62.97,1.07,1.26s.96.43,1.52.43c.31,0,.61-.04.89-.13.28-.09.54-.21.77-.38.23-.17.42-.37.58-.62.16-.24.27-.52.33-.84h1.51c-.08.49-.24.94-.47,1.35s-.53.76-.89,1.06c-.36.3-.77.52-1.23.69s-.97.24-1.51.24c-.86,0-1.62-.2-2.3-.61s-1.2-.99-1.59-1.75c-.39-.76-.58-1.67-.58-2.73s.19-1.97.58-2.73c.39-.76.92-1.34,1.59-1.75s1.43-.61,2.29-.61c.53,0,1.02.07,1.47.23.46.15.87.37,1.23.66s.67.64.91,1.06c.24.42.4.89.48,1.42Z"/>
      <path class="uuid-9fbdd176-20b7-4aa8-9f11-1f5835ef15a7" d="M80.31,585.68c-.44,0-.88-.09-1.3-.24-.43-.15-.82-.41-1.17-.77-.35-.36-.63-.85-.84-1.46-.21-.61-.31-1.37-.31-2.29,0-.87.09-1.63.26-2.3.17-.67.42-1.24.75-1.7.33-.46.72-.82,1.18-1.06.46-.24.98-.36,1.55-.36s1.12.12,1.57.35c.46.23.83.55,1.12.96.29.41.47.88.54,1.4h-1.48c-.1-.41-.3-.75-.6-1.01-.3-.26-.68-.39-1.16-.39-.73,0-1.29.32-1.7.95-.41.63-.61,1.51-.61,2.64h.07c.17-.28.38-.52.63-.72.25-.2.53-.35.84-.46.31-.11.64-.16.99-.16.57,0,1.1.14,1.56.42s.84.66,1.12,1.15c.28.49.42,1.05.42,1.69s-.14,1.21-.43,1.72-.69.92-1.2,1.22c-.52.3-1.12.44-1.81.44ZM80.31,584.42c.38,0,.72-.09,1.02-.28.3-.19.54-.44.71-.76.18-.32.26-.67.26-1.06s-.08-.73-.25-1.04-.4-.56-.7-.75c-.3-.18-.63-.28-1.01-.28-.29,0-.55.05-.8.16-.24.11-.46.26-.64.46s-.33.42-.43.67c-.1.25-.16.51-.16.79,0,.37.09.71.26,1.03.17.32.41.57.71.76s.64.29,1.02.29Z"/>
      <path class="uuid-9fbdd176-20b7-4aa8-9f11-1f5835ef15a7" d="M88.79,585.68c-.61,0-1.15-.12-1.63-.35-.48-.23-.87-.56-1.16-.97s-.44-.88-.46-1.4h1.45c.04.43.22.78.57,1.05.34.27.75.41,1.23.41.38,0,.72-.09,1.02-.26.3-.18.53-.42.7-.73.17-.31.25-.66.25-1.06s-.09-.76-.26-1.08c-.17-.32-.41-.56-.72-.75-.3-.18-.65-.27-1.05-.28-.3,0-.6.05-.91.16-.3.1-.55.24-.74.41l-1.37-.2.56-5h5.45v1.28h-4.21l-.32,2.77h.06c.19-.19.45-.34.77-.47.32-.13.67-.19,1.03-.19.6,0,1.14.14,1.61.43.47.29.85.68,1.12,1.17.27.5.41,1.06.41,1.71,0,.64-.14,1.22-.43,1.72-.29.5-.7.9-1.21,1.19-.51.29-1.1.43-1.77.43Z"/>
      <path class="uuid-9fbdd176-20b7-4aa8-9f11-1f5835ef15a7" d="M97.44,585.68c-.44,0-.88-.09-1.3-.24-.43-.15-.82-.41-1.17-.77-.35-.36-.63-.85-.84-1.46-.21-.61-.31-1.37-.31-2.29,0-.87.09-1.63.26-2.3.17-.67.42-1.24.75-1.7.33-.46.72-.82,1.18-1.06.46-.24.98-.36,1.55-.36s1.12.12,1.57.35c.46.23.83.55,1.12.96.29.41.47.88.54,1.4h-1.48c-.1-.41-.3-.75-.6-1.01-.3-.26-.68-.39-1.16-.39-.73,0-1.29.32-1.7.95-.41.63-.61,1.51-.61,2.64h.07c.17-.28.38-.52.63-.72.25-.2.53-.35.84-.46.31-.11.64-.16.99-.16.57,0,1.1.14,1.56.42s.84.66,1.12,1.15c.28.49.42,1.05.42,1.69s-.14,1.21-.43,1.72-.69.92-1.2,1.22c-.52.3-1.12.44-1.81.44ZM97.43,584.42c.38,0,.72-.09,1.02-.28.3-.19.54-.44.71-.76.18-.32.26-.67.26-1.06s-.08-.73-.25-1.04-.4-.56-.7-.75c-.3-.18-.63-.28-1.01-.28-.29,0-.55.05-.8.16-.24.11-.46.26-.64.46s-.33.42-.43.67c-.1.25-.16.51-.16.79,0,.37.09.71.26,1.03.17.32.41.57.71.76s.64.29,1.02.29Z"/>
      <path class="uuid-9fbdd176-20b7-4aa8-9f11-1f5835ef15a7" d="M106.1,585.68c-.44,0-.88-.09-1.3-.24-.43-.15-.82-.41-1.17-.77-.35-.36-.63-.85-.84-1.46-.21-.61-.31-1.37-.31-2.29,0-.87.09-1.63.26-2.3.17-.67.42-1.24.75-1.7.33-.46.72-.82,1.18-1.06.46-.24.98-.36,1.55-.36s1.12.12,1.57.35c.46.23.83.55,1.12.96.29.41.47.88.54,1.4h-1.48c-.1-.41-.3-.75-.6-1.01-.3-.26-.68-.39-1.16-.39-.73,0-1.29.32-1.7.95-.41.63-.61,1.51-.61,2.64h.07c.17-.28.38-.52.63-.72.25-.2.53-.35.84-.46.31-.11.64-.16.99-.16.57,0,1.1.14,1.56.42s.84.66,1.12,1.15c.28.49.42,1.05.42,1.69s-.14,1.21-.43,1.72-.69.92-1.2,1.22c-.52.3-1.12.44-1.81.44ZM106.1,584.42c.38,0,.72-.09,1.02-.28.3-.19.54-.44.71-.76.18-.32.26-.67.26-1.06s-.08-.73-.25-1.04-.4-.56-.7-.75c-.3-.18-.63-.28-1.01-.28-.29,0-.55.05-.8.16-.24.11-.46.26-.64.46s-.33.42-.43.67c-.1.25-.16.51-.16.79,0,.37.09.71.26,1.03.17.32.41.57.71.76s.64.29,1.02.29Z"/>
    </g>
    <g>
      <path class="uuid-9fbdd176-20b7-4aa8-9f11-1f5835ef15a7" d="M146.75,491.54l.19-1.16h7.52l-.19,1.16h-7.52ZM147.32,488.09l.19-1.16h7.51l-.19,1.16h-7.51ZM147.75,494.19l1.63-9.92h1.16l-1.63,9.92h-1.16ZM151.23,494.19l1.63-9.92h1.16l-1.63,9.92h-1.16Z"/>
      <path class="uuid-9fbdd176-20b7-4aa8-9f11-1f5835ef15a7" d="M156.18,494.19v-1.08l3.36-3.48c.36-.38.65-.71.89-1,.23-.29.41-.56.53-.82s.17-.53.17-.82c0-.33-.08-.61-.23-.85-.15-.24-.37-.43-.63-.56-.27-.13-.57-.2-.91-.2-.36,0-.67.07-.93.22-.27.14-.47.35-.61.61s-.21.57-.21.93h-1.43c0-.6.14-1.13.42-1.58.28-.45.66-.8,1.14-1.05s1.03-.38,1.65-.38,1.17.12,1.65.37.85.58,1.12,1.01c.27.42.4.9.4,1.44,0,.37-.07.73-.21,1.08-.14.35-.38.74-.71,1.17-.34.43-.81.95-1.41,1.57l-1.97,2.06v.07h4.46v1.28h-6.53Z"/>
      <path class="uuid-9fbdd176-20b7-4aa8-9f11-1f5835ef15a7" d="M164.68,494.19v-9.92h6.15v1.29h-4.65v3.02h4.21v1.28h-4.21v4.32h-1.5Z"/>
      <path class="uuid-9fbdd176-20b7-4aa8-9f11-1f5835ef15a7" d="M172.87,494.19l4.33-8.56v-.07h-5.01v-1.28h6.56v1.33l-4.31,8.59h-1.56Z"/>
      <path class="uuid-9fbdd176-20b7-4aa8-9f11-1f5835ef15a7" d="M183.59,484.14c.44,0,.88.08,1.31.24.43.16.82.42,1.17.77s.62.84.83,1.45c.21.61.31,1.36.32,2.27,0,.87-.09,1.64-.26,2.32-.17.68-.42,1.25-.75,1.71-.32.46-.72.82-1.18,1.06-.46.24-.98.36-1.56.36s-1.12-.12-1.57-.35-.83-.55-1.12-.97-.47-.89-.54-1.42h1.48c.1.43.3.77.59,1.03s.68.39,1.16.39c.73,0,1.29-.32,1.7-.95.41-.63.61-1.52.62-2.66h-.08c-.17.28-.38.52-.63.72-.25.2-.53.36-.84.46-.31.11-.64.16-.99.16-.57,0-1.09-.14-1.56-.42-.47-.28-.84-.67-1.12-1.16-.28-.49-.42-1.05-.42-1.68s.14-1.19.43-1.7c.29-.51.69-.91,1.2-1.21s1.12-.44,1.81-.44ZM183.6,485.4c-.38,0-.72.09-1.02.28-.3.19-.54.44-.71.75-.17.31-.26.66-.26,1.05s.08.73.25,1.04c.17.31.4.56.7.74.3.18.63.27,1.01.27.28,0,.55-.05.79-.16s.46-.26.64-.46c.18-.2.33-.42.43-.67s.15-.51.15-.78c0-.36-.09-.7-.26-1.02-.17-.31-.41-.57-.71-.76-.3-.19-.64-.29-1.03-.29Z"/>
      <path class="uuid-9fbdd176-20b7-4aa8-9f11-1f5835ef15a7" d="M189.02,494.19l4.33-8.56v-.07h-5.01v-1.28h6.56v1.33l-4.31,8.59h-1.56Z"/>
      <path class="uuid-9fbdd176-20b7-4aa8-9f11-1f5835ef15a7" d="M204.95,487.5h-1.51c-.06-.32-.17-.61-.32-.85-.16-.25-.35-.45-.58-.62-.23-.17-.48-.3-.77-.39-.28-.09-.58-.13-.9-.13-.57,0-1.08.14-1.53.43s-.81.71-1.07,1.26c-.26.56-.39,1.23-.39,2.03s.13,1.49.39,2.04c.26.56.62.97,1.07,1.26s.96.43,1.52.43c.31,0,.61-.04.89-.13.28-.09.54-.21.77-.38.23-.17.42-.37.58-.62.16-.24.27-.52.33-.84h1.51c-.08.49-.24.94-.47,1.35s-.53.76-.89,1.06c-.36.3-.77.52-1.23.69s-.97.24-1.51.24c-.86,0-1.62-.2-2.3-.61s-1.2-.99-1.59-1.75c-.39-.76-.58-1.67-.58-2.73s.19-1.97.58-2.73c.39-.76.92-1.34,1.59-1.75s1.43-.61,2.29-.61c.53,0,1.02.07,1.47.23.46.15.87.37,1.23.66s.67.64.91,1.06c.24.42.4.89.48,1.42Z"/>
    </g>
    <g>
      <path class="uuid-9fbdd176-20b7-4aa8-9f11-1f5835ef15a7" d="M146.75,537.2l.19-1.16h7.52l-.19,1.16h-7.52ZM147.32,533.76l.19-1.16h7.51l-.19,1.16h-7.51ZM147.75,539.86l1.63-9.92h1.16l-1.63,9.92h-1.16ZM151.23,539.86l1.63-9.92h1.16l-1.63,9.92h-1.16Z"/>
      <path class="uuid-9fbdd176-20b7-4aa8-9f11-1f5835ef15a7" d="M156.32,539.86v-9.92h6.15v1.29h-4.65v3.02h4.21v1.28h-4.21v4.32h-1.5Z"/>
      <path class="uuid-9fbdd176-20b7-4aa8-9f11-1f5835ef15a7" d="M164.31,539.86v-9.92h6.15v1.29h-4.65v3.02h4.21v1.28h-4.21v4.32h-1.5Z"/>
      <path class="uuid-9fbdd176-20b7-4aa8-9f11-1f5835ef15a7" d="M175.44,539.99c-.61,0-1.15-.12-1.63-.35-.48-.23-.87-.56-1.16-.97s-.44-.88-.46-1.4h1.45c.04.43.22.78.57,1.05.34.27.75.41,1.23.41.38,0,.72-.09,1.02-.26.3-.18.53-.42.7-.73.17-.31.25-.66.25-1.06s-.09-.76-.26-1.08c-.17-.32-.41-.56-.72-.75-.3-.18-.65-.27-1.05-.28-.3,0-.6.05-.91.16-.3.1-.55.24-.74.41l-1.37-.2.56-5h5.45v1.28h-4.21l-.32,2.77h.06c.19-.19.45-.34.77-.47.32-.13.67-.19,1.03-.19.6,0,1.14.14,1.61.43.47.29.85.68,1.12,1.17.27.5.41,1.06.41,1.71,0,.64-.14,1.22-.43,1.72-.29.5-.7.9-1.21,1.19-.51.29-1.1.43-1.77.43Z"/>
      <path class="uuid-9fbdd176-20b7-4aa8-9f11-1f5835ef15a7" d="M180.95,539.86l4.33-8.56v-.07h-5.01v-1.28h6.56v1.33l-4.31,8.59h-1.56Z"/>
      <path class="uuid-9fbdd176-20b7-4aa8-9f11-1f5835ef15a7" d="M191.75,540.02c-.77,0-1.42-.21-1.96-.61-.54-.4-.96-.98-1.25-1.75s-.43-1.69-.43-2.76.14-1.99.43-2.76c.29-.76.71-1.34,1.25-1.74.54-.4,1.2-.6,1.95-.6s1.41.2,1.95.6c.54.4.96.98,1.25,1.74.29.76.43,1.68.43,2.75s-.14,2-.43,2.77-.7,1.35-1.24,1.75c-.54.4-1.2.6-1.96.6ZM191.75,538.73c.67,0,1.2-.33,1.58-.98s.57-1.6.57-2.84c0-.82-.09-1.52-.26-2.09-.17-.57-.42-1-.74-1.3-.32-.3-.7-.44-1.15-.44-.67,0-1.19.33-1.57.99-.38.66-.57,1.61-.58,2.84,0,.83.09,1.52.26,2.09.17.57.42,1,.74,1.29.32.29.7.44,1.15.44Z"/>
      <path class="uuid-9fbdd176-20b7-4aa8-9f11-1f5835ef15a7" d="M200.56,540.02c-.77,0-1.42-.21-1.96-.61-.54-.4-.96-.98-1.25-1.75s-.43-1.69-.43-2.76.14-1.99.43-2.76c.29-.76.71-1.34,1.25-1.74.54-.4,1.2-.6,1.95-.6s1.41.2,1.95.6c.54.4.96.98,1.25,1.74.29.76.43,1.68.43,2.75s-.14,2-.43,2.77-.7,1.35-1.24,1.75c-.54.4-1.2.6-1.96.6ZM200.56,538.73c.67,0,1.2-.33,1.58-.98s.57-1.6.57-2.84c0-.82-.09-1.52-.26-2.09-.17-.57-.42-1-.74-1.3-.32-.3-.7-.44-1.15-.44-.67,0-1.19.33-1.57.99-.38.66-.57,1.61-.58,2.84,0,.83.09,1.52.26,2.09.17.57.42,1,.74,1.29.32.29.7.44,1.15.44Z"/>
    </g>
    <g>
      <path class="uuid-9fbdd176-20b7-4aa8-9f11-1f5835ef15a7" d="M146.75,582.89l.19-1.16h7.52l-.19,1.16h-7.52ZM147.32,579.44l.19-1.16h7.51l-.19,1.16h-7.51ZM147.75,585.55l1.63-9.92h1.16l-1.63,9.92h-1.16ZM151.23,585.55l1.63-9.92h1.16l-1.63,9.92h-1.16Z"/>
      <path class="uuid-9fbdd176-20b7-4aa8-9f11-1f5835ef15a7" d="M157.16,585.55h-1.59l3.57-9.92h1.73l3.57,9.92h-1.59l-2.8-8.12h-.08l-2.81,8.12ZM157.42,581.66h5.15v1.26h-5.15v-1.26Z"/>
      <path class="uuid-9fbdd176-20b7-4aa8-9f11-1f5835ef15a7" d="M169.19,585.68c-.44,0-.88-.09-1.3-.24-.43-.15-.82-.41-1.17-.77s-.63-.85-.84-1.46c-.21-.61-.31-1.37-.31-2.29,0-.87.09-1.63.26-2.3.17-.67.42-1.24.75-1.7.33-.46.72-.82,1.18-1.06.46-.24.98-.36,1.55-.36s1.12.12,1.57.35c.46.23.83.55,1.12.96.29.41.47.88.54,1.4h-1.48c-.1-.41-.3-.75-.6-1.01-.3-.26-.68-.39-1.16-.39-.73,0-1.29.32-1.7.95s-.61,1.51-.61,2.64h.07c.17-.28.38-.52.63-.72.25-.2.53-.35.84-.46.31-.11.64-.16.99-.16.57,0,1.1.14,1.56.42.47.28.84.66,1.12,1.15.28.49.42,1.05.42,1.69s-.14,1.21-.43,1.72c-.29.51-.69.92-1.2,1.22-.52.3-1.12.44-1.81.44ZM169.18,584.42c.38,0,.72-.09,1.02-.28s.54-.44.71-.76c.18-.32.26-.67.26-1.06s-.08-.73-.25-1.04-.4-.56-.7-.75c-.3-.18-.63-.28-1.01-.28-.29,0-.55.05-.8.16s-.46.26-.64.45c-.18.19-.33.42-.43.67-.1.25-.16.51-.16.79,0,.37.09.71.26,1.03.17.32.41.57.71.76s.64.29,1.02.29Z"/>
      <path class="uuid-9fbdd176-20b7-4aa8-9f11-1f5835ef15a7" d="M174.53,585.55v-9.92h6.15v1.29h-4.65v3.02h4.21v1.28h-4.21v4.32h-1.5Z"/>
      <path class="uuid-9fbdd176-20b7-4aa8-9f11-1f5835ef15a7" d="M190.76,578.85h-1.51c-.06-.32-.17-.61-.32-.85-.16-.25-.35-.45-.58-.62-.23-.17-.48-.3-.77-.39-.28-.09-.58-.13-.9-.13-.57,0-1.08.14-1.53.43s-.81.71-1.07,1.26c-.26.56-.39,1.23-.39,2.03s.13,1.49.39,2.04c.26.56.62.98,1.07,1.26s.96.43,1.52.43c.31,0,.61-.04.89-.13.28-.09.54-.21.77-.38.23-.17.42-.37.58-.62.16-.24.27-.52.33-.84h1.51c-.08.49-.24.94-.47,1.35s-.53.76-.89,1.06c-.36.3-.77.52-1.23.68-.46.16-.97.24-1.51.24-.86,0-1.62-.2-2.3-.61s-1.2-.99-1.59-1.75c-.39-.76-.58-1.67-.58-2.73s.19-1.97.58-2.73c.39-.76.92-1.34,1.59-1.75s1.43-.61,2.29-.61c.53,0,1.02.08,1.47.23.46.15.87.37,1.23.66.37.29.67.64.91,1.06s.4.89.48,1.42Z"/>
      <path class="uuid-9fbdd176-20b7-4aa8-9f11-1f5835ef15a7" d="M193.32,585.55h-1.59l3.57-9.92h1.73l3.57,9.92h-1.59l-2.8-8.12h-.08l-2.81,8.12ZM193.59,581.66h5.15v1.26h-5.15v-1.26Z"/>
      <path class="uuid-9fbdd176-20b7-4aa8-9f11-1f5835ef15a7" d="M205.35,585.68c-.66,0-1.26-.11-1.78-.34-.52-.23-.93-.55-1.23-.96-.3-.41-.46-.88-.49-1.42h1.52c.02.29.12.55.3.76.18.22.41.38.7.5.29.12.61.17.97.17.39,0,.74-.07,1.04-.2.3-.14.54-.33.71-.57.17-.24.26-.53.26-.85s-.09-.62-.25-.88c-.17-.25-.42-.45-.74-.6s-.72-.22-1.17-.22h-.84v-1.22h.84c.37,0,.69-.07.97-.2.28-.13.5-.32.66-.55.16-.24.24-.52.24-.84s-.07-.57-.21-.8c-.14-.23-.33-.41-.58-.53-.25-.13-.54-.19-.88-.19s-.62.06-.9.18c-.28.12-.51.29-.68.5-.17.22-.27.48-.28.78h-1.45c.02-.54.17-1.01.48-1.41.3-.41.7-.72,1.2-.95.5-.23,1.05-.34,1.66-.34s1.19.12,1.65.37c.46.25.82.58,1.07.99.25.41.38.86.38,1.35,0,.56-.15,1.03-.46,1.41-.31.39-.73.65-1.24.78v.08c.66.1,1.17.36,1.53.78.36.42.54.95.54,1.57,0,.55-.15,1.03-.45,1.47s-.72.77-1.25,1.02c-.53.25-1.13.37-1.81.37Z"/>
    </g>
  </g>
</svg>