<?xml version="1.0" encoding="UTF-8"?>
<svg id="uuid-b730e79c-fa13-457d-8476-e5a8b26a6dd2" data-name="Ebene 1" xmlns="http://www.w3.org/2000/svg" xmlns:xlink="http://www.w3.org/1999/xlink" viewBox="0 0 1920 1080">
  <defs>
    <style>
      .uuid-e8ff6140-4c40-4557-ad72-67c8fac3b63e {
        clip-path: url(#uuid-33dbeb37-29dc-4b98-8845-7ea5bb9f00cd);
      }

      .uuid-5ebf9520-20b2-4fb7-8f01-2d3e744d66a6 {
        fill: none;
      }

      .uuid-5ebf9520-20b2-4fb7-8f01-2d3e744d66a6, .uuid-960a1548-b5aa-417c-a69d-507caf01884a, .uuid-b40cf59d-d4cb-42c8-853d-0c8f9aa16982, .uuid-26a4e759-1bf6-425d-9d29-05a160a3ff97, .uuid-2c5ceef1-7b61-41dc-884a-3a49e82f3237 {
        stroke-width: 0px;
      }

      .uuid-92ecb3ab-bc5d-4393-9e4e-a1f0f0a4f102 {
        clip-path: url(#uuid-2fc9acc8-832d-4fcf-be76-ce741d60fcca);
      }

      .uuid-0d0e7508-2f08-4bc5-9c88-73534f951eca {
        clip-path: url(#uuid-32b051df-faa5-4ac2-b4fb-f42f5d5a1d15);
      }

      .uuid-2efd84f7-ad77-4e42-afb8-c3906d0ade67 {
        clip-path: url(#uuid-304979b7-620f-484c-9b15-4ade0018f00e);
      }

      .uuid-280b3718-ca7a-454b-9f82-b7665b93b5ce {
        clip-path: url(#uuid-7fa13495-9b29-4e8b-8d97-3294e8584a73);
      }

      .uuid-960a1548-b5aa-417c-a69d-507caf01884a {
        fill: #a6fca3;
      }

      .uuid-b40cf59d-d4cb-42c8-853d-0c8f9aa16982 {
        fill: #004842;
      }

      .uuid-b521994c-9697-40a8-a378-93ca297a75d2 {
        clip-path: url(#uuid-f41c0621-9581-4a2b-a913-b205d0a58e0c);
      }

      .uuid-a914d073-3e68-4c91-b15a-aa873d5d4bd0 {
        clip-path: url(#uuid-c968de19-6d27-4318-8c45-365457b1877d);
      }

      .uuid-26a4e759-1bf6-425d-9d29-05a160a3ff97 {
        fill: #2f797c;
      }

      .uuid-57958e57-3d49-489b-8830-99898f3ea496 {
        clip-path: url(#uuid-f93ea39b-0656-4942-b18a-e1c761ad9bfd);
      }

      .uuid-2c5ceef1-7b61-41dc-884a-3a49e82f3237 {
        fill: #ff5700;
      }
    </style>
    <clipPath id="uuid-f41c0621-9581-4a2b-a913-b205d0a58e0c">
      <rect class="uuid-5ebf9520-20b2-4fb7-8f01-2d3e744d66a6" y=".5" width="1920" height="1080"/>
    </clipPath>
    <clipPath id="uuid-7fa13495-9b29-4e8b-8d97-3294e8584a73">
      <rect class="uuid-5ebf9520-20b2-4fb7-8f01-2d3e744d66a6" y=".5" width="1920" height="1080"/>
    </clipPath>
    <clipPath id="uuid-33dbeb37-29dc-4b98-8845-7ea5bb9f00cd">
      <rect class="uuid-5ebf9520-20b2-4fb7-8f01-2d3e744d66a6" y=".5" width="1920" height="1080"/>
    </clipPath>
    <clipPath id="uuid-304979b7-620f-484c-9b15-4ade0018f00e">
      <rect class="uuid-5ebf9520-20b2-4fb7-8f01-2d3e744d66a6" y=".5" width="1920" height="1080"/>
    </clipPath>
    <clipPath id="uuid-32b051df-faa5-4ac2-b4fb-f42f5d5a1d15">
      <rect class="uuid-5ebf9520-20b2-4fb7-8f01-2d3e744d66a6" y=".5" width="1920" height="1080"/>
    </clipPath>
    <clipPath id="uuid-c968de19-6d27-4318-8c45-365457b1877d">
      <rect class="uuid-5ebf9520-20b2-4fb7-8f01-2d3e744d66a6" y=".5" width="1920" height="1080"/>
    </clipPath>
    <clipPath id="uuid-f93ea39b-0656-4942-b18a-e1c761ad9bfd">
      <rect class="uuid-5ebf9520-20b2-4fb7-8f01-2d3e744d66a6" y=".5" width="1920" height="1080"/>
    </clipPath>
    <clipPath id="uuid-2fc9acc8-832d-4fcf-be76-ce741d60fcca">
      <rect class="uuid-5ebf9520-20b2-4fb7-8f01-2d3e744d66a6" y=".5" width="1920" height="1080"/>
    </clipPath>
  </defs>
  <rect class="uuid-b40cf59d-d4cb-42c8-853d-0c8f9aa16982" y=".5" width="960" height="540"/>
  <rect class="uuid-2c5ceef1-7b61-41dc-884a-3a49e82f3237" y="540.5" width="960" height="540"/>
  <rect class="uuid-26a4e759-1bf6-425d-9d29-05a160a3ff97" x="960" y="540.5" width="960" height="540"/>
  <rect class="uuid-960a1548-b5aa-417c-a69d-507caf01884a" x="960" y=".5" width="960" height="540"/>
  <polygon class="uuid-2c5ceef1-7b61-41dc-884a-3a49e82f3237" points="356.51 277.23 391.33 277.23 425.47 396.63 425.47 277.23 442.53 277.23 442.53 396.63 407.71 396.63 373.58 277.23 373.58 396.63 356.51 396.63 356.51 277.23"/>
  <path class="uuid-2c5ceef1-7b61-41dc-884a-3a49e82f3237" d="M581.64,364.22l-12.46-86.99-12.46,86.99h24.92ZM534.88,396.63l17.07-119.4h34.48l17.07,119.4h-17.24l-2.39-17.06h-29.36l-2.39,17.06h-17.24Z"/>
  <g class="uuid-b521994c-9697-40a8-a378-93ca297a75d2">
    <path class="uuid-2c5ceef1-7b61-41dc-884a-3a49e82f3237" d="M507.09,294.53c-5.52,5.19-14.1,17.82-14.1,28.76,0,9.04,3.88,16.03,13.44,16.03,0,0,15.99.23,22.7-15.41v25.31c-5.8,4.6-12.63,6.99-19.97,6.99-16.39,0-26.09-12.11-26.09-27.46,0-13.99,6.66-25.41,17.07-34.46h-23.58v85.29h52.74v17.06h-69.81v-119.4h81.48c-24.79,8.4-26.88,11.69-33.87,17.29"/>
    <path class="uuid-2c5ceef1-7b61-41dc-884a-3a49e82f3237" d="M488.1,144.37c19.29,0,34.82,14.67,34.82,34.11,0,16.38-10.92,28.49-26.8,31.56l28.68,53.73h-19.29l-35.67-66.52h18.26c10.24,0,17.75-7.85,17.75-17.91s-7.68-17.91-17.75-17.91h-18.61v102.34h-17.07v-119.4h35.67Z"/>
  </g>
  <path class="uuid-2c5ceef1-7b61-41dc-884a-3a49e82f3237" d="M573.28,231.36l-12.46-86.99-12.46,86.99h24.92ZM526.51,263.77l17.07-119.4h34.48l17.07,119.4h-17.24l-2.39-17.06h-29.36l-2.39,17.06h-17.24Z"/>
  <g class="uuid-280b3718-ca7a-454b-9f82-b7665b93b5ce">
    <path class="uuid-2c5ceef1-7b61-41dc-884a-3a49e82f3237" d="M376.25,237.59h14.01c18.21,0,16.67-32.5,16.67-32.5-.51-6.74-.73-7.47-12.09-34.29,1.37,20.45-4.19,29.28-10.86,42.51,0,0-7.73,12.26-7.73,24.28M376.24,249.58s-1.19,5.72,8.78,14.19h-23.4c-3.58-4.94-5.11-10.9-5.11-16.86,0-28.77,34.59-37.46,34.59-72.53,0-7.32-2.73-23.5-6.47-29.8h18.23l46.51,119.18h-18.23l-21.93-55.95s5.9,39.7-17.92,41.77h-15.04Z"/>
  </g>
  <polygon class="uuid-b40cf59d-d4cb-42c8-853d-0c8f9aa16982" points="1316.51 277.23 1351.33 277.23 1385.47 396.63 1385.47 277.23 1402.53 277.23 1402.53 396.63 1367.71 396.63 1333.58 277.23 1333.58 396.63 1316.51 396.63 1316.51 277.23"/>
  <path class="uuid-b40cf59d-d4cb-42c8-853d-0c8f9aa16982" d="M1541.65,364.22l-12.46-86.99-12.46,86.99h24.92ZM1494.88,396.63l17.07-119.4h34.48l17.07,119.4h-17.24l-2.39-17.06h-29.36l-2.39,17.06h-17.24Z"/>
  <g class="uuid-e8ff6140-4c40-4557-ad72-67c8fac3b63e">
    <path class="uuid-b40cf59d-d4cb-42c8-853d-0c8f9aa16982" d="M1467.09,294.53c-5.52,5.19-14.1,17.82-14.1,28.76,0,9.04,3.88,16.03,13.44,16.03,0,0,15.99.23,22.7-15.41v25.31c-5.8,4.6-12.63,6.99-19.97,6.99-16.39,0-26.09-12.11-26.09-27.46,0-13.99,6.66-25.41,17.07-34.46h-23.58v85.29h52.74v17.06h-69.81v-119.4h81.48c-24.79,8.4-26.88,11.69-33.87,17.29"/>
    <path class="uuid-b40cf59d-d4cb-42c8-853d-0c8f9aa16982" d="M1448.1,144.37c19.29,0,34.82,14.67,34.82,34.11,0,16.38-10.92,28.49-26.8,31.56l28.68,53.73h-19.29l-35.67-66.52h18.26c10.24,0,17.75-7.85,17.75-17.91s-7.68-17.91-17.75-17.91h-18.6v102.34h-17.07v-119.4h35.68Z"/>
  </g>
  <path class="uuid-b40cf59d-d4cb-42c8-853d-0c8f9aa16982" d="M1533.28,231.36l-12.46-86.99-12.46,86.99h24.92ZM1486.51,263.77l17.07-119.4h34.48l17.07,119.4h-17.24l-2.39-17.06h-29.36l-2.39,17.06h-17.24Z"/>
  <g class="uuid-2efd84f7-ad77-4e42-afb8-c3906d0ade67">
    <path class="uuid-b40cf59d-d4cb-42c8-853d-0c8f9aa16982" d="M1336.25,237.59h14.01c18.21,0,16.67-32.5,16.67-32.5-.51-6.74-.73-7.47-12.09-34.29,1.37,20.45-4.19,29.28-10.86,42.51,0,0-7.73,12.26-7.73,24.28M1336.24,249.58s-1.19,5.72,8.78,14.19h-23.4c-3.58-4.94-5.11-10.9-5.11-16.86,0-28.77,34.59-37.46,34.59-72.53,0-7.32-2.73-23.5-6.47-29.8h18.23l46.51,119.18h-18.23l-21.93-55.95s5.9,39.7-17.92,41.77h-15.04Z"/>
  </g>
  <polygon class="uuid-b40cf59d-d4cb-42c8-853d-0c8f9aa16982" points="356.51 817.23 391.33 817.23 425.47 936.63 425.47 817.23 442.53 817.23 442.53 936.63 407.71 936.63 373.58 817.23 373.58 936.63 356.51 936.63 356.51 817.23"/>
  <path class="uuid-b40cf59d-d4cb-42c8-853d-0c8f9aa16982" d="M581.64,904.22l-12.46-86.99-12.46,86.99h24.92ZM534.88,936.63l17.07-119.4h34.48l17.07,119.4h-17.24l-2.39-17.06h-29.36l-2.39,17.06h-17.24Z"/>
  <g class="uuid-0d0e7508-2f08-4bc5-9c88-73534f951eca">
    <path class="uuid-b40cf59d-d4cb-42c8-853d-0c8f9aa16982" d="M507.09,834.53c-5.52,5.19-14.1,17.82-14.1,28.76,0,9.04,3.88,16.03,13.44,16.03,0,0,15.99.23,22.7-15.41v25.31c-5.8,4.6-12.63,6.99-19.97,6.99-16.39,0-26.09-12.11-26.09-27.46,0-13.99,6.66-25.41,17.07-34.46h-23.58v85.29h52.74v17.06h-69.81v-119.4h81.48c-24.79,8.4-26.88,11.69-33.87,17.29"/>
    <path class="uuid-b40cf59d-d4cb-42c8-853d-0c8f9aa16982" d="M488.1,684.37c19.29,0,34.82,14.67,34.82,34.11,0,16.38-10.92,28.49-26.8,31.56l28.68,53.73h-19.29l-35.67-66.52h18.26c10.24,0,17.75-7.85,17.75-17.91s-7.68-17.91-17.75-17.91h-18.61v102.34h-17.07v-119.4h35.67Z"/>
  </g>
  <path class="uuid-b40cf59d-d4cb-42c8-853d-0c8f9aa16982" d="M573.28,771.36l-12.46-86.99-12.46,86.99h24.92ZM526.51,803.77l17.07-119.4h34.48l17.07,119.4h-17.24l-2.39-17.06h-29.36l-2.39,17.06h-17.24Z"/>
  <g class="uuid-a914d073-3e68-4c91-b15a-aa873d5d4bd0">
    <path class="uuid-b40cf59d-d4cb-42c8-853d-0c8f9aa16982" d="M376.25,777.59h14.01c18.21,0,16.67-32.5,16.67-32.5-.51-6.73-.73-7.47-12.09-34.29,1.37,20.45-4.19,29.28-10.86,42.51,0,0-7.73,12.26-7.73,24.28M376.24,789.58s-1.19,5.73,8.78,14.19h-23.4c-3.58-4.94-5.11-10.9-5.11-16.86,0-28.77,34.59-37.46,34.59-72.53,0-7.32-2.73-23.5-6.47-29.8h18.23l46.51,119.18h-18.23l-21.93-55.95s5.9,39.7-17.92,41.76h-15.04Z"/>
  </g>
  <polygon class="uuid-2c5ceef1-7b61-41dc-884a-3a49e82f3237" points="1316.51 817.23 1351.33 817.23 1385.47 936.63 1385.47 817.23 1402.53 817.23 1402.53 936.63 1367.71 936.63 1333.58 817.23 1333.58 936.63 1316.51 936.63 1316.51 817.23"/>
  <path class="uuid-2c5ceef1-7b61-41dc-884a-3a49e82f3237" d="M1541.65,904.22l-12.46-86.99-12.46,86.99h24.92ZM1494.88,936.63l17.07-119.4h34.48l17.07,119.4h-17.24l-2.39-17.06h-29.36l-2.39,17.06h-17.24Z"/>
  <g class="uuid-57958e57-3d49-489b-8830-99898f3ea496">
    <path class="uuid-2c5ceef1-7b61-41dc-884a-3a49e82f3237" d="M1467.09,834.53c-5.52,5.19-14.1,17.82-14.1,28.76,0,9.04,3.88,16.03,13.44,16.03,0,0,15.99.23,22.7-15.41v25.31c-5.8,4.6-12.63,6.99-19.97,6.99-16.39,0-26.09-12.11-26.09-27.46,0-13.99,6.66-25.41,17.07-34.46h-23.58v85.29h52.74v17.06h-69.81v-119.4h81.48c-24.79,8.4-26.88,11.69-33.87,17.29"/>
    <path class="uuid-2c5ceef1-7b61-41dc-884a-3a49e82f3237" d="M1448.1,684.37c19.29,0,34.82,14.67,34.82,34.11,0,16.38-10.92,28.49-26.8,31.56l28.68,53.73h-19.29l-35.67-66.52h18.26c10.24,0,17.75-7.85,17.75-17.91s-7.68-17.91-17.75-17.91h-18.6v102.34h-17.07v-119.4h35.68Z"/>
  </g>
  <path class="uuid-2c5ceef1-7b61-41dc-884a-3a49e82f3237" d="M1533.28,771.36l-12.46-86.99-12.46,86.99h24.92ZM1486.51,803.77l17.07-119.4h34.48l17.07,119.4h-17.24l-2.39-17.06h-29.36l-2.39,17.06h-17.24Z"/>
  <g class="uuid-92ecb3ab-bc5d-4393-9e4e-a1f0f0a4f102">
    <path class="uuid-2c5ceef1-7b61-41dc-884a-3a49e82f3237" d="M1336.25,777.59h14.01c18.21,0,16.67-32.5,16.67-32.5-.51-6.73-.73-7.47-12.09-34.29,1.37,20.45-4.19,29.28-10.86,42.51,0,0-7.73,12.26-7.73,24.28M1336.24,789.58s-1.19,5.73,8.78,14.19h-23.4c-3.58-4.94-5.11-10.9-5.11-16.86,0-28.77,34.59-37.46,34.59-72.53,0-7.32-2.73-23.5-6.47-29.8h18.23l46.51,119.18h-18.23l-21.93-55.95s5.9,39.7-17.92,41.76h-15.04Z"/>
  </g>
</svg>