<?xml version="1.0" encoding="UTF-8"?>
<svg id="uuid-b22b65c1-df0d-407f-aa3b-d13d6d91ca9e" data-name="Ebene 1" xmlns="http://www.w3.org/2000/svg" viewBox="0 0 1152.72 426.24">
  <defs>
    <style>
      .uuid-56f17803-8588-40a6-a73c-1d485d1dbb2c {
        fill: #ff5700;
      }

      .uuid-56f17803-8588-40a6-a73c-1d485d1dbb2c, .uuid-1697892c-5713-486f-8769-ea7262a31d9c, .uuid-ce46ebfa-e85f-470a-bbd9-3bf3ce66da2c, .uuid-1ae00578-d63e-4b68-a0f8-40d4745cbb70, .uuid-5d93dd3e-de2d-4af6-b3b8-76f878ce5afe {
        stroke-width: 0px;
      }

      .uuid-1697892c-5713-486f-8769-ea7262a31d9c {
        fill: #2c6566;
      }

      .uuid-5d22aa82-7c20-465a-8b5e-ad9fbf1f1cad {
        fill: #ebe9e9;
        stroke: #004842;
        stroke-miterlimit: 10;
        stroke-width: .5px;
      }

      .uuid-ce46ebfa-e85f-470a-bbd9-3bf3ce66da2c {
        fill: #004842;
      }

      .uuid-1ae00578-d63e-4b68-a0f8-40d4745cbb70 {
        fill: #2f797c;
      }

      .uuid-5d93dd3e-de2d-4af6-b3b8-76f878ce5afe {
        fill: #a6fca3;
      }
    </style>
  </defs>
  <rect class="uuid-ce46ebfa-e85f-470a-bbd9-3bf3ce66da2c" x="0" y="0" width="344.45" height="344.45"/>
  <rect class="uuid-5d22aa82-7c20-465a-8b5e-ad9fbf1f1cad" x="364.09" y="84.02" width="82.65" height="82.65"/>
  <rect class="uuid-1ae00578-d63e-4b68-a0f8-40d4745cbb70" x="48.81" y="285.48" width="140.76" height="140.76"/>
  <rect class="uuid-1697892c-5713-486f-8769-ea7262a31d9c" x="274.07" y="189.57" width="210.27" height="210.27"/>
  <rect class="uuid-56f17803-8588-40a6-a73c-1d485d1dbb2c" x="798.42" y="84.05" width="262.79" height="262.79"/>
  <rect class="uuid-5d93dd3e-de2d-4af6-b3b8-76f878ce5afe" x="1023.87" y="262.5" width="128.86" height="128.86"/>
  <g>
    <g>
      <path class="uuid-56f17803-8588-40a6-a73c-1d485d1dbb2c" d="M590.69,130.89l.22-1.35h8.74l-.22,1.35h-8.74ZM591.36,126.88l.22-1.35h8.74l-.22,1.35h-8.74ZM591.86,133.97l1.89-11.53h1.35l-1.89,11.53h-1.35ZM595.91,133.97l1.89-11.53h1.35l-1.89,11.53h-1.35Z"/>
      <path class="uuid-56f17803-8588-40a6-a73c-1d485d1dbb2c" d="M605.68,134.16c-.89,0-1.65-.24-2.28-.7-.63-.47-1.11-1.14-1.45-2.03s-.5-1.96-.5-3.22.17-2.32.5-3.2c.34-.89.82-1.56,1.45-2.03.63-.47,1.39-.7,2.27-.7s1.64.23,2.27.7c.63.47,1.12,1.14,1.45,2.03.34.88.5,1.95.5,3.2s-.17,2.33-.5,3.22-.82,1.57-1.45,2.03c-.63.47-1.39.7-2.28.7ZM605.68,132.66c.78,0,1.39-.38,1.83-1.14s.66-1.86.66-3.31c0-.96-.1-1.77-.3-2.43-.2-.66-.49-1.17-.86-1.51-.37-.34-.82-.52-1.33-.52-.78,0-1.39.38-1.83,1.15-.44.77-.67,1.87-.67,3.31,0,.96.1,1.77.3,2.44.2.66.49,1.16.86,1.5.37.34.82.51,1.34.51Z"/>
      <path class="uuid-56f17803-8588-40a6-a73c-1d485d1dbb2c" d="M615.93,134.16c-.89,0-1.65-.24-2.28-.7-.63-.47-1.11-1.14-1.45-2.03s-.5-1.96-.5-3.22.17-2.32.5-3.2c.34-.89.82-1.56,1.45-2.03.63-.47,1.39-.7,2.27-.7s1.64.23,2.27.7c.63.47,1.12,1.14,1.45,2.03.34.88.5,1.95.5,3.2s-.17,2.33-.5,3.22-.82,1.57-1.45,2.03c-.63.47-1.39.7-2.28.7ZM615.93,132.66c.78,0,1.39-.38,1.83-1.14s.66-1.86.66-3.31c0-.96-.1-1.77-.3-2.43-.2-.66-.49-1.17-.86-1.51-.37-.34-.82-.52-1.33-.52-.78,0-1.39.38-1.83,1.15-.44.77-.67,1.87-.67,3.31,0,.96.1,1.77.3,2.44.2.66.49,1.16.86,1.5.37.34.82.51,1.34.51Z"/>
      <path class="uuid-56f17803-8588-40a6-a73c-1d485d1dbb2c" d="M621.92,131.72v-1.41l4.98-7.87h1.11v2.07h-.7l-3.57,5.64v.09h6.83v1.48h-8.66ZM627.39,133.97v-3.32s.01-8.21.01-8.21h1.65v11.53h-1.66Z"/>
      <path class="uuid-56f17803-8588-40a6-a73c-1d485d1dbb2c" d="M636.43,134.13c-.81,0-1.52-.14-2.14-.42-.62-.28-1.1-.66-1.45-1.15-.35-.49-.52-1.04-.52-1.67,0-.49.1-.94.3-1.35.2-.41.48-.76.84-1.03.35-.28.75-.45,1.18-.53v-.07c-.57-.14-1.03-.45-1.38-.92s-.52-1.03-.51-1.65c0-.59.15-1.12.47-1.58.32-.46.75-.83,1.31-1.1.56-.27,1.19-.4,1.9-.4s1.33.13,1.88.4.99.64,1.31,1.1c.32.46.48.99.49,1.57,0,.62-.18,1.17-.53,1.65-.35.48-.8.78-1.36.92v.07c.43.07.82.25,1.17.53.35.28.62.62.83,1.03.21.41.31.86.32,1.35,0,.62-.18,1.18-.53,1.67-.35.49-.83.87-1.45,1.15-.62.28-1.33.42-2.13.42ZM636.43,132.71c.48,0,.89-.08,1.24-.24.35-.16.62-.38.81-.67.19-.29.29-.62.29-1.01,0-.4-.11-.76-.31-1.06-.2-.31-.48-.55-.83-.73-.35-.18-.75-.26-1.2-.26s-.86.09-1.21.26c-.35.18-.63.42-.83.73s-.3.66-.3,1.06c0,.39.09.72.28,1.01s.46.51.81.67c.35.16.77.24,1.25.24ZM636.43,127.34c.38,0,.72-.08,1.02-.23.3-.15.53-.37.7-.64.17-.27.26-.6.26-.96,0-.36-.09-.68-.26-.95-.17-.27-.4-.48-.7-.63s-.64-.22-1.03-.22-.75.07-1.04.22-.53.36-.7.63-.25.59-.24.95c0,.37.08.69.25.96.17.27.4.49.7.64.3.15.64.23,1.03.23Z"/>
      <path class="uuid-56f17803-8588-40a6-a73c-1d485d1dbb2c" d="M642.31,131.72v-1.41l4.98-7.87h1.11v2.07h-.7l-3.57,5.64v.09h6.83v1.48h-8.66ZM647.77,133.97v-3.32s.01-8.21.01-8.21h1.65v11.53h-1.66Z"/>
      <path class="uuid-56f17803-8588-40a6-a73c-1d485d1dbb2c" d="M652.92,133.97v-1.26l3.9-4.04c.42-.44.76-.83,1.03-1.16.27-.33.48-.65.61-.95s.2-.62.2-.96c0-.38-.09-.71-.27-.99-.18-.28-.43-.5-.74-.65-.31-.15-.66-.23-1.05-.23-.41,0-.77.08-1.08.25-.31.17-.54.41-.71.72s-.25.67-.25,1.08h-1.66c0-.7.16-1.32.48-1.84.32-.53.77-.93,1.33-1.22s1.2-.44,1.92-.44,1.36.14,1.92.43.99.68,1.3,1.17c.31.49.47,1.05.47,1.67,0,.43-.08.85-.24,1.26-.16.41-.44.86-.83,1.37-.39.5-.94,1.11-1.64,1.82l-2.29,2.4v.08h5.19v1.49h-7.59Z"/>
    </g>
    <g>
      <path class="uuid-56f17803-8588-40a6-a73c-1d485d1dbb2c" d="M590.69,184.02l.22-1.35h8.74l-.22,1.35h-8.74ZM591.36,180.01l.22-1.35h8.74l-.22,1.35h-8.74ZM591.86,187.11l1.89-11.53h1.35l-1.89,11.53h-1.35ZM595.91,187.11l1.89-11.53h1.35l-1.89,11.53h-1.35Z"/>
      <path class="uuid-56f17803-8588-40a6-a73c-1d485d1dbb2c" d="M601.83,187.11v-11.53h7.23v1.5h-5.49v3.51h5.11v1.49h-5.11v3.53h5.56v1.5h-7.3Z"/>
      <path class="uuid-56f17803-8588-40a6-a73c-1d485d1dbb2c" d="M611.39,187.11v-11.53h4.22c.82,0,1.5.13,2.03.4s.94.63,1.21,1.09c.27.46.4.97.4,1.54,0,.48-.09.89-.26,1.21-.18.33-.41.59-.71.79-.3.2-.62.34-.97.43v.11c.38.02.76.14,1.12.37.37.23.67.55.91.97s.36.92.36,1.52-.14,1.12-.41,1.59-.7.84-1.28,1.11c-.57.27-1.31.41-2.2.41h-4.42ZM613.13,180.56h2.33c.39,0,.74-.07,1.06-.23s.56-.36.75-.63.28-.59.28-.97c0-.48-.17-.88-.5-1.2-.33-.32-.85-.48-1.54-.48h-2.38v3.51ZM613.13,185.61h2.51c.83,0,1.43-.16,1.79-.48.36-.32.54-.73.54-1.21,0-.36-.09-.7-.28-1-.18-.3-.45-.55-.79-.73-.34-.18-.74-.27-1.21-.27h-2.57v3.69Z"/>
      <path class="uuid-56f17803-8588-40a6-a73c-1d485d1dbb2c" d="M621.77,187.11v-11.53h7.23v1.5h-5.49v3.51h5.11v1.49h-5.11v3.53h5.56v1.5h-7.3Z"/>
      <path class="uuid-56f17803-8588-40a6-a73c-1d485d1dbb2c" d="M635.01,175.41c.52,0,1.02.1,1.52.28.5.18.95.48,1.36.9s.73.98.97,1.69c.24.71.37,1.59.37,2.64,0,1.01-.1,1.91-.3,2.7-.2.79-.49,1.45-.87,1.99-.38.54-.83.95-1.37,1.23-.54.28-1.14.42-1.81.42s-1.3-.13-1.83-.41-.97-.64-1.3-1.12-.54-1.03-.63-1.65h1.72c.11.5.34.9.69,1.2s.8.46,1.35.46c.84,0,1.5-.37,1.98-1.11.47-.74.71-1.77.72-3.1h-.09c-.19.32-.44.6-.73.83-.29.23-.62.41-.98.54-.36.13-.75.19-1.16.19-.66,0-1.27-.16-1.81-.49-.54-.33-.98-.78-1.3-1.35-.32-.57-.48-1.22-.48-1.95s.17-1.39.5-1.98c.33-.59.8-1.06,1.4-1.41s1.3-.52,2.11-.51ZM635.01,176.88c-.44,0-.84.11-1.19.32-.35.22-.63.51-.83.87-.2.37-.3.77-.3,1.22s.1.85.3,1.21c.2.36.47.65.81.86.34.21.74.32,1.18.32.33,0,.64-.06.92-.19s.54-.31.75-.53c.21-.23.38-.49.5-.77s.18-.59.18-.91c0-.42-.1-.82-.3-1.18-.2-.36-.48-.66-.82-.88-.35-.22-.75-.34-1.19-.34Z"/>
      <path class="uuid-56f17803-8588-40a6-a73c-1d485d1dbb2c" d="M641.41,187.11v-11.53h7.23v1.5h-5.49v3.51h5.11v1.49h-5.11v3.53h5.56v1.5h-7.3Z"/>
      <path class="uuid-56f17803-8588-40a6-a73c-1d485d1dbb2c" d="M654.65,175.41c.52,0,1.02.1,1.52.28.5.18.95.48,1.36.9s.73.98.97,1.69c.24.71.37,1.59.37,2.64,0,1.01-.1,1.91-.3,2.7-.2.79-.49,1.45-.87,1.99-.38.54-.83.95-1.37,1.23-.54.28-1.14.42-1.81.42s-1.3-.13-1.83-.41-.97-.64-1.3-1.12-.54-1.03-.63-1.65h1.72c.11.5.34.9.69,1.2s.8.46,1.35.46c.84,0,1.5-.37,1.98-1.11.47-.74.71-1.77.72-3.1h-.09c-.19.32-.44.6-.73.83-.29.23-.62.41-.98.54-.36.13-.75.19-1.16.19-.66,0-1.27-.16-1.81-.49-.54-.33-.98-.78-1.3-1.35-.32-.57-.48-1.22-.48-1.95s.17-1.39.5-1.98c.33-.59.8-1.06,1.4-1.41s1.3-.52,2.11-.51ZM654.66,176.88c-.44,0-.84.11-1.19.32-.35.22-.63.51-.83.87-.2.37-.3.77-.3,1.22s.1.85.3,1.21c.2.36.47.65.81.86.34.21.74.32,1.18.32.33,0,.64-.06.92-.19s.54-.31.75-.53c.21-.23.38-.49.5-.77s.18-.59.18-.91c0-.42-.1-.82-.3-1.18-.2-.36-.48-.66-.82-.88-.35-.22-.75-.34-1.19-.34Z"/>
    </g>
    <g>
      <path class="uuid-56f17803-8588-40a6-a73c-1d485d1dbb2c" d="M590.69,237.15l.22-1.35h8.74l-.22,1.35h-8.74ZM591.36,233.14l.22-1.35h8.74l-.22,1.35h-8.74ZM591.86,240.24l1.89-11.53h1.35l-1.89,11.53h-1.35ZM595.91,240.24l1.89-11.53h1.35l-1.89,11.53h-1.35Z"/>
      <path class="uuid-56f17803-8588-40a6-a73c-1d485d1dbb2c" d="M601.67,240.24v-1.26l3.9-4.04c.42-.44.76-.83,1.03-1.16.27-.33.48-.65.61-.95s.2-.62.2-.96c0-.38-.09-.71-.27-.99-.18-.28-.43-.5-.74-.65-.31-.15-.66-.23-1.05-.23-.41,0-.77.08-1.08.25-.31.17-.54.41-.71.72s-.25.67-.25,1.08h-1.66c0-.7.16-1.32.48-1.84.32-.53.77-.93,1.33-1.22s1.2-.44,1.92-.44,1.36.14,1.92.43.99.68,1.3,1.17c.31.49.47,1.05.47,1.67,0,.43-.08.85-.24,1.26-.16.41-.44.86-.83,1.37-.39.5-.94,1.11-1.64,1.82l-2.29,2.4v.08h5.19v1.49h-7.59Z"/>
      <path class="uuid-56f17803-8588-40a6-a73c-1d485d1dbb2c" d="M621.13,232.46h-1.76c-.07-.38-.19-.71-.38-.99-.18-.29-.41-.53-.68-.73-.27-.2-.56-.35-.89-.45-.33-.1-.68-.15-1.04-.15-.66,0-1.26.17-1.78.5s-.94.82-1.24,1.47-.45,1.43-.45,2.37.15,1.73.45,2.38c.3.65.72,1.13,1.24,1.46s1.12.5,1.77.5c.37,0,.71-.05,1.04-.15.33-.1.63-.25.89-.44.27-.2.49-.43.68-.72.19-.28.31-.61.39-.98h1.76c-.09.57-.27,1.09-.54,1.57s-.61.88-1.03,1.23c-.42.34-.9.61-1.43.8s-1.12.28-1.76.28c-1,0-1.89-.24-2.67-.71s-1.4-1.16-1.84-2.04c-.45-.89-.67-1.94-.67-3.17s.22-2.29.68-3.17c.45-.88,1.07-1.56,1.85-2.04s1.67-.71,2.66-.71c.61,0,1.18.09,1.71.26.53.17,1.01.43,1.43.77s.78.75,1.05,1.23c.28.48.47,1.03.56,1.65Z"/>
      <path class="uuid-56f17803-8588-40a6-a73c-1d485d1dbb2c" d="M627.09,240.4c-.52,0-1.02-.1-1.52-.28-.5-.18-.95-.48-1.36-.9-.41-.42-.73-.99-.97-1.7-.24-.71-.36-1.6-.36-2.66,0-1.01.1-1.9.3-2.68.2-.78.49-1.44.87-1.98.38-.54.84-.95,1.37-1.23.54-.28,1.14-.42,1.81-.42s1.3.14,1.83.41c.53.27.97.64,1.3,1.12.33.48.54,1.02.63,1.63h-1.72c-.12-.48-.35-.87-.69-1.18-.34-.3-.8-.46-1.35-.46-.84,0-1.5.37-1.97,1.1-.47.74-.71,1.76-.71,3.07h.08c.2-.33.44-.61.74-.84.29-.23.62-.41.98-.54.36-.13.74-.19,1.15-.19.67,0,1.27.16,1.82.49s.98.77,1.3,1.34c.32.57.48,1.22.48,1.96s-.17,1.4-.5,2-.8,1.07-1.4,1.42c-.6.35-1.3.52-2.11.51ZM627.08,238.93c.44,0,.84-.11,1.19-.33.35-.22.62-.51.83-.88.2-.37.3-.78.3-1.23s-.1-.85-.3-1.21-.47-.65-.81-.87c-.34-.21-.74-.32-1.17-.32-.33,0-.64.06-.93.19-.28.13-.53.3-.75.53s-.38.48-.5.77c-.12.29-.18.6-.18.92,0,.43.1.83.3,1.2.2.37.48.66.83.89s.75.33,1.19.33Z"/>
      <path class="uuid-56f17803-8588-40a6-a73c-1d485d1dbb2c" d="M636.95,240.4c-.71,0-1.34-.14-1.9-.41-.56-.27-1.01-.65-1.34-1.12s-.51-1.02-.54-1.63h1.69c.04.5.26.9.66,1.22.4.32.88.48,1.43.48.44,0,.84-.1,1.18-.31.34-.2.61-.49.81-.85.2-.36.3-.77.3-1.23s-.1-.89-.3-1.26c-.2-.37-.48-.66-.84-.87-.35-.21-.76-.32-1.22-.32-.35,0-.7.06-1.05.18-.35.12-.64.28-.86.47l-1.59-.24.65-5.81h6.34v1.49h-4.89l-.37,3.23h.07c.22-.22.52-.4.9-.55.37-.15.77-.22,1.2-.22.7,0,1.33.17,1.88.5.55.33.98.79,1.3,1.37.32.58.47,1.24.47,1.99,0,.75-.16,1.41-.5,2-.34.59-.81,1.05-1.41,1.38-.6.34-1.28.5-2.06.5Z"/>
      <path class="uuid-56f17803-8588-40a6-a73c-1d485d1dbb2c" d="M647,240.4c-.52,0-1.02-.1-1.52-.28-.5-.18-.95-.48-1.36-.9-.41-.42-.73-.99-.97-1.7-.24-.71-.36-1.6-.36-2.66,0-1.01.1-1.9.3-2.68.2-.78.49-1.44.87-1.98.38-.54.84-.95,1.37-1.23.54-.28,1.14-.42,1.81-.42s1.3.14,1.83.41c.53.27.97.64,1.3,1.12.33.48.54,1.02.63,1.63h-1.72c-.12-.48-.35-.87-.69-1.18-.34-.3-.8-.46-1.35-.46-.84,0-1.5.37-1.97,1.1-.47.74-.71,1.76-.71,3.07h.08c.2-.33.44-.61.74-.84.29-.23.62-.41.98-.54.36-.13.74-.19,1.15-.19.67,0,1.27.16,1.82.49s.98.77,1.3,1.34c.32.57.48,1.22.48,1.96s-.17,1.4-.5,2-.8,1.07-1.4,1.42c-.6.35-1.3.52-2.11.51ZM647,238.93c.44,0,.84-.11,1.19-.33.35-.22.62-.51.83-.88.2-.37.3-.78.3-1.23s-.1-.85-.3-1.21-.47-.65-.81-.87c-.34-.21-.74-.32-1.17-.32-.33,0-.64.06-.93.19-.28.13-.53.3-.75.53s-.38.48-.5.77c-.12.29-.18.6-.18.92,0,.43.1.83.3,1.2.2.37.48.66.83.89s.75.33,1.19.33Z"/>
      <path class="uuid-56f17803-8588-40a6-a73c-1d485d1dbb2c" d="M657.09,240.4c-.52,0-1.02-.1-1.52-.28-.5-.18-.95-.48-1.36-.9-.41-.42-.73-.99-.97-1.7-.24-.71-.36-1.6-.36-2.66,0-1.01.1-1.9.3-2.68.2-.78.49-1.44.87-1.98.38-.54.84-.95,1.37-1.23.54-.28,1.14-.42,1.81-.42s1.3.14,1.83.41c.53.27.97.64,1.3,1.12.33.48.54,1.02.63,1.63h-1.72c-.12-.48-.35-.87-.69-1.18-.34-.3-.8-.46-1.35-.46-.84,0-1.5.37-1.97,1.1-.47.74-.71,1.76-.71,3.07h.08c.2-.33.44-.61.74-.84.29-.23.62-.41.98-.54.36-.13.74-.19,1.15-.19.67,0,1.27.16,1.82.49s.98.77,1.3,1.34c.32.57.48,1.22.48,1.96s-.17,1.4-.5,2-.8,1.07-1.4,1.42c-.6.35-1.3.52-2.11.51ZM657.08,238.93c.44,0,.84-.11,1.19-.33.35-.22.62-.51.83-.88.2-.37.3-.78.3-1.23s-.1-.85-.3-1.21-.47-.65-.81-.87c-.34-.21-.74-.32-1.17-.32-.33,0-.64.06-.93.19-.28.13-.53.3-.75.53s-.38.48-.5.77c-.12.29-.18.6-.18.92,0,.43.1.83.3,1.2.2.37.48.66.83.89s.75.33,1.19.33Z"/>
    </g>
    <g>
      <path class="uuid-56f17803-8588-40a6-a73c-1d485d1dbb2c" d="M590.69,290.29l.22-1.35h8.74l-.22,1.35h-8.74ZM591.36,286.28l.22-1.35h8.74l-.22,1.35h-8.74ZM591.86,293.37l1.89-11.53h1.35l-1.89,11.53h-1.35ZM595.91,293.37l1.89-11.53h1.35l-1.89,11.53h-1.35Z"/>
      <path class="uuid-56f17803-8588-40a6-a73c-1d485d1dbb2c" d="M601.67,293.37v-1.26l3.9-4.04c.42-.44.76-.83,1.03-1.16.27-.33.48-.65.61-.95s.2-.62.2-.96c0-.38-.09-.71-.27-.99-.18-.28-.43-.5-.74-.65-.31-.15-.66-.23-1.05-.23-.41,0-.77.08-1.08.25-.31.17-.54.41-.71.72s-.25.67-.25,1.08h-1.66c0-.7.16-1.32.48-1.84.32-.53.77-.93,1.33-1.22s1.2-.44,1.92-.44,1.36.14,1.92.43.99.68,1.3,1.17c.31.49.47,1.05.47,1.67,0,.43-.08.85-.24,1.26-.16.41-.44.86-.83,1.37-.39.5-.94,1.11-1.64,1.82l-2.29,2.4v.08h5.19v1.49h-7.59Z"/>
      <path class="uuid-56f17803-8588-40a6-a73c-1d485d1dbb2c" d="M611.55,293.37v-11.53h7.15v1.5h-5.41v3.51h4.9v1.49h-4.9v5.03h-1.74Z"/>
      <path class="uuid-56f17803-8588-40a6-a73c-1d485d1dbb2c" d="M621.08,293.37l5.04-9.96v-.08h-5.82v-1.49h7.63v1.54l-5.02,9.99h-1.82Z"/>
      <path class="uuid-56f17803-8588-40a6-a73c-1d485d1dbb2c" d="M633.55,281.68c.52,0,1.02.1,1.52.28.5.18.95.48,1.36.9s.73.98.97,1.69c.24.71.37,1.59.37,2.64,0,1.01-.1,1.91-.3,2.7-.2.79-.49,1.45-.87,1.99-.38.54-.83.95-1.37,1.23-.54.28-1.14.42-1.81.42s-1.3-.13-1.83-.41-.97-.64-1.3-1.12-.54-1.03-.63-1.65h1.72c.11.5.34.9.69,1.2s.8.46,1.35.46c.84,0,1.5-.37,1.98-1.11.47-.74.71-1.77.72-3.1h-.09c-.19.32-.44.6-.73.83-.29.23-.62.41-.98.54-.36.13-.75.19-1.16.19-.66,0-1.27-.16-1.81-.49-.54-.33-.98-.78-1.3-1.35-.32-.57-.48-1.22-.48-1.95s.17-1.39.5-1.98c.33-.59.8-1.06,1.4-1.41s1.3-.52,2.11-.51ZM633.55,283.14c-.44,0-.84.11-1.19.32-.35.22-.63.51-.83.87-.2.37-.3.77-.3,1.22s.1.85.3,1.21c.2.36.47.65.81.86.34.21.74.32,1.18.32.33,0,.64-.06.92-.19s.54-.31.75-.53c.21-.23.38-.49.5-.77s.18-.59.18-.91c0-.42-.1-.82-.3-1.18-.2-.36-.48-.66-.82-.88-.35-.22-.75-.34-1.19-.34Z"/>
      <path class="uuid-56f17803-8588-40a6-a73c-1d485d1dbb2c" d="M639.87,293.37l5.04-9.96v-.08h-5.82v-1.49h7.63v1.54l-5.02,9.99h-1.82Z"/>
      <path class="uuid-56f17803-8588-40a6-a73c-1d485d1dbb2c" d="M658.4,285.59h-1.76c-.07-.38-.19-.71-.38-.99-.18-.29-.41-.53-.68-.73-.27-.2-.56-.35-.89-.45-.33-.1-.68-.15-1.04-.15-.66,0-1.26.17-1.78.5s-.94.82-1.24,1.47c-.3.65-.45,1.43-.45,2.37s.15,1.73.45,2.38c.3.65.72,1.13,1.24,1.46s1.12.5,1.77.5c.37,0,.71-.05,1.04-.15.33-.1.63-.25.89-.44.27-.2.49-.43.68-.72.19-.28.31-.61.39-.98h1.76c-.09.57-.27,1.09-.54,1.57s-.61.88-1.03,1.23c-.42.34-.9.61-1.43.8s-1.12.28-1.76.28c-1,0-1.89-.24-2.67-.71s-1.4-1.16-1.84-2.04c-.45-.89-.67-1.94-.67-3.17s.22-2.29.68-3.17c.45-.88,1.07-1.56,1.85-2.04s1.67-.71,2.66-.71c.61,0,1.18.09,1.71.26.53.17,1.01.43,1.43.77s.78.75,1.05,1.23c.28.48.47,1.03.56,1.65Z"/>
    </g>
    <g>
      <path class="uuid-56f17803-8588-40a6-a73c-1d485d1dbb2c" d="M590.69,343.42l.22-1.35h8.74l-.22,1.35h-8.74ZM591.36,339.41l.22-1.35h8.74l-.22,1.35h-8.74ZM591.86,346.51l1.89-11.53h1.35l-1.89,11.53h-1.35ZM595.91,346.51l1.89-11.53h1.35l-1.89,11.53h-1.35Z"/>
      <path class="uuid-56f17803-8588-40a6-a73c-1d485d1dbb2c" d="M601.83,346.51v-11.53h7.15v1.5h-5.41v3.51h4.9v1.49h-4.9v5.03h-1.74Z"/>
      <path class="uuid-56f17803-8588-40a6-a73c-1d485d1dbb2c" d="M611.12,346.51v-11.53h7.15v1.5h-5.41v3.51h4.9v1.49h-4.9v5.03h-1.74Z"/>
      <path class="uuid-56f17803-8588-40a6-a73c-1d485d1dbb2c" d="M624.06,346.66c-.71,0-1.34-.14-1.9-.41-.56-.27-1.01-.65-1.34-1.12s-.51-1.02-.54-1.63h1.69c.04.5.26.9.66,1.22.4.32.88.48,1.43.48.44,0,.84-.1,1.18-.31.34-.2.61-.49.81-.85.2-.36.3-.77.3-1.23s-.1-.89-.3-1.26c-.2-.37-.48-.66-.84-.87-.35-.21-.76-.32-1.22-.32-.35,0-.7.06-1.05.18-.35.12-.64.28-.86.47l-1.59-.24.65-5.81h6.34v1.49h-4.89l-.37,3.23h.07c.22-.22.52-.4.9-.55.37-.15.77-.22,1.2-.22.7,0,1.33.17,1.88.5.55.33.98.79,1.3,1.37.32.58.47,1.24.47,1.99,0,.75-.16,1.41-.5,2-.34.59-.81,1.05-1.41,1.38-.6.34-1.28.5-2.06.5Z"/>
      <path class="uuid-56f17803-8588-40a6-a73c-1d485d1dbb2c" d="M630.48,346.51l5.04-9.96v-.08h-5.82v-1.49h7.63v1.54l-5.02,9.99h-1.82Z"/>
      <path class="uuid-56f17803-8588-40a6-a73c-1d485d1dbb2c" d="M643.04,346.7c-.89,0-1.65-.24-2.28-.7-.63-.47-1.11-1.14-1.45-2.03s-.5-1.96-.5-3.22.17-2.32.5-3.2c.34-.89.82-1.56,1.45-2.03.63-.47,1.39-.7,2.27-.7s1.64.23,2.27.7c.63.47,1.12,1.14,1.45,2.03.34.88.5,1.95.5,3.2s-.17,2.33-.5,3.22-.82,1.57-1.45,2.03c-.63.47-1.39.7-2.28.7ZM643.04,345.19c.78,0,1.39-.38,1.83-1.14s.66-1.86.66-3.31c0-.96-.1-1.77-.3-2.43-.2-.66-.49-1.17-.86-1.51-.37-.34-.82-.52-1.33-.52-.78,0-1.39.38-1.83,1.15-.44.77-.67,1.87-.67,3.31,0,.96.1,1.77.3,2.44.2.66.49,1.16.86,1.5.37.34.82.51,1.34.51Z"/>
      <path class="uuid-56f17803-8588-40a6-a73c-1d485d1dbb2c" d="M653.28,346.7c-.89,0-1.65-.24-2.28-.7-.63-.47-1.11-1.14-1.45-2.03s-.5-1.96-.5-3.22.17-2.32.5-3.2c.34-.89.82-1.56,1.45-2.03.63-.47,1.39-.7,2.27-.7s1.64.23,2.27.7c.63.47,1.12,1.14,1.45,2.03.34.88.5,1.95.5,3.2s-.17,2.33-.5,3.22-.82,1.57-1.45,2.03c-.63.47-1.39.7-2.28.7ZM653.28,345.19c.78,0,1.39-.38,1.83-1.14s.66-1.86.66-3.31c0-.96-.1-1.77-.3-2.43-.2-.66-.49-1.17-.86-1.51-.37-.34-.82-.52-1.33-.52-.78,0-1.39.38-1.83,1.15-.44.77-.67,1.87-.67,3.31,0,.96.1,1.77.3,2.44.2.66.49,1.16.86,1.5.37.34.82.51,1.34.51Z"/>
    </g>
    <g>
      <path class="uuid-56f17803-8588-40a6-a73c-1d485d1dbb2c" d="M590.69,396.55l.22-1.35h8.74l-.22,1.35h-8.74ZM591.36,392.54l.22-1.35h8.74l-.22,1.35h-8.74ZM591.86,399.64l1.89-11.53h1.35l-1.89,11.53h-1.35ZM595.91,399.64l1.89-11.53h1.35l-1.89,11.53h-1.35Z"/>
      <path class="uuid-56f17803-8588-40a6-a73c-1d485d1dbb2c" d="M602.8,399.64h-1.85l4.15-11.53h2.01l4.15,11.53h-1.85l-3.26-9.44h-.09l-3.27,9.44ZM603.11,395.12h5.99v1.46h-5.99v-1.46Z"/>
      <path class="uuid-56f17803-8588-40a6-a73c-1d485d1dbb2c" d="M616.8,399.8c-.52,0-1.02-.1-1.52-.28-.5-.18-.95-.48-1.36-.9s-.73-.99-.97-1.69c-.24-.71-.36-1.6-.36-2.66,0-1.01.1-1.9.3-2.68.2-.78.49-1.44.87-1.98.38-.54.84-.95,1.37-1.23.54-.28,1.14-.42,1.81-.42s1.3.14,1.83.41c.53.27.97.64,1.3,1.12.33.48.54,1.02.63,1.63h-1.72c-.12-.48-.35-.87-.69-1.18-.34-.3-.8-.46-1.35-.46-.84,0-1.5.37-1.97,1.1s-.71,1.76-.71,3.07h.08c.2-.33.44-.61.74-.84.29-.23.62-.41.98-.54.36-.13.74-.19,1.15-.19.67,0,1.27.16,1.82.49.54.32.98.77,1.3,1.34.32.57.48,1.22.48,1.96s-.17,1.4-.5,2c-.33.6-.8,1.07-1.4,1.42-.6.35-1.3.52-2.11.51ZM616.79,398.33c.44,0,.84-.11,1.19-.33s.62-.51.83-.88c.2-.37.3-.78.3-1.23s-.1-.85-.3-1.21-.47-.65-.81-.87c-.34-.21-.74-.32-1.17-.32-.33,0-.64.06-.93.19s-.53.3-.75.53c-.21.23-.38.48-.5.77-.12.29-.18.6-.18.92,0,.43.1.83.3,1.2.2.37.48.66.83.89s.75.34,1.19.34Z"/>
      <path class="uuid-56f17803-8588-40a6-a73c-1d485d1dbb2c" d="M623.01,399.64v-11.53h7.15v1.5h-5.41v3.51h4.9v1.49h-4.9v5.03h-1.74Z"/>
      <path class="uuid-56f17803-8588-40a6-a73c-1d485d1dbb2c" d="M641.88,391.86h-1.76c-.07-.38-.19-.71-.38-.99-.18-.29-.41-.53-.68-.73-.27-.2-.56-.35-.89-.45-.33-.1-.68-.15-1.04-.15-.66,0-1.26.17-1.78.5s-.94.82-1.24,1.47c-.3.65-.45,1.43-.45,2.37s.15,1.73.45,2.38c.3.65.72,1.13,1.24,1.47s1.12.5,1.77.5c.37,0,.71-.05,1.04-.15.33-.1.63-.25.89-.44.27-.2.49-.43.68-.72.19-.28.31-.61.39-.98h1.76c-.09.57-.27,1.09-.54,1.57s-.61.88-1.03,1.23c-.42.34-.9.61-1.43.8-.54.19-1.12.28-1.76.28-1,0-1.89-.24-2.67-.71s-1.4-1.16-1.84-2.04c-.45-.89-.67-1.94-.67-3.17s.22-2.29.68-3.17c.45-.88,1.07-1.56,1.85-2.04s1.67-.71,2.66-.71c.61,0,1.18.09,1.71.26.53.18,1.01.43,1.43.77.42.34.78.74,1.05,1.23s.47,1.03.56,1.65Z"/>
      <path class="uuid-56f17803-8588-40a6-a73c-1d485d1dbb2c" d="M644.87,399.64h-1.85l4.15-11.53h2.01l4.15,11.53h-1.85l-3.26-9.44h-.09l-3.27,9.44ZM645.18,395.12h5.99v1.46h-5.99v-1.46Z"/>
      <path class="uuid-56f17803-8588-40a6-a73c-1d485d1dbb2c" d="M658.85,399.8c-.77,0-1.46-.13-2.07-.4-.61-.27-1.08-.64-1.44-1.11-.35-.47-.54-1.03-.57-1.65h1.77c.02.34.14.64.35.89.21.25.48.44.82.58.34.13.71.2,1.13.2.45,0,.86-.08,1.21-.24.35-.16.63-.38.82-.66.2-.28.3-.61.3-.98s-.1-.73-.3-1.02c-.2-.29-.49-.53-.86-.7s-.83-.25-1.37-.25h-.97v-1.42h.97c.43,0,.8-.08,1.13-.23.32-.15.58-.37.76-.64.18-.28.28-.6.28-.97s-.08-.67-.24-.93c-.16-.26-.38-.47-.68-.62-.29-.15-.63-.23-1.03-.23s-.73.07-1.05.21c-.33.14-.59.33-.79.59-.2.25-.31.56-.33.91h-1.68c.02-.62.2-1.17.55-1.64.35-.47.82-.84,1.39-1.11.58-.27,1.22-.4,1.93-.4s1.38.14,1.92.43c.54.29.96.67,1.25,1.15.3.48.44,1,.44,1.57,0,.65-.18,1.19-.54,1.64-.36.45-.84.75-1.44.91v.09c.77.12,1.36.42,1.78.91.42.49.63,1.1.63,1.83,0,.64-.17,1.2-.53,1.71s-.84.9-1.45,1.19c-.61.29-1.31.43-2.1.43Z"/>
    </g>
  </g>
</svg>