<?xml version="1.0" encoding="UTF-8"?>
<svg id="uuid-c6552d1d-79d9-4a8e-a11c-b92fbd3229a5" data-name="ARANEA Farben" xmlns="http://www.w3.org/2000/svg" viewBox="0 0 3507.44 1207.94">
  <defs>
    <style>
      .uuid-737e10f7-dc8b-4c71-8236-2164730d513f {
        fill: #ff5700;
      }

      .uuid-737e10f7-dc8b-4c71-8236-2164730d513f, .uuid-8d7564f9-b9d0-478d-adbe-f60fc8151370, .uuid-ac732e8a-b893-4ec2-b8f3-3a955b332411 {
        stroke-width: 0px;
      }

      .uuid-8d7564f9-b9d0-478d-adbe-f60fc8151370 {
        fill: #004842;
      }

      .uuid-ac732e8a-b893-4ec2-b8f3-3a955b332411 {
        fill: #fff;
      }
    </style>
  </defs>
  <g>
    <rect class="uuid-ac732e8a-b893-4ec2-b8f3-3a955b332411" y="717.47" width="273.63" height="473.95"/>
    <ellipse class="uuid-ac732e8a-b893-4ec2-b8f3-3a955b332411" cx="649.88" cy="253.49" rx="160.37" ry="236.98"/>
    <g>
      <polygon class="uuid-ac732e8a-b893-4ec2-b8f3-3a955b332411" points="136.82 253.49 205.23 371.98 273.63 490.47 136.82 490.47 0 490.47 68.41 371.98 136.82 253.49"/>
      <polygon class="uuid-ac732e8a-b893-4ec2-b8f3-3a955b332411" points="136.82 253.49 68.41 135.01 0 16.52 136.82 16.52 273.63 16.52 205.23 135.01 136.82 253.49"/>
    </g>
    <polygon class="uuid-ac732e8a-b893-4ec2-b8f3-3a955b332411" points="1174.7 490.47 1074.17 253.49 973.63 16.52 1174.7 16.52 1375.78 16.52 1275.24 253.49 1174.7 490.47"/>
    <polygon class="uuid-ac732e8a-b893-4ec2-b8f3-3a955b332411" points="649.88 717.47 750.42 954.45 850.95 1191.42 649.88 1191.42 448.81 1191.42 549.34 954.45 649.88 717.47"/>
  </g>
  <g>
    <polygon class="uuid-8d7564f9-b9d0-478d-adbe-f60fc8151370" points="3127.07 0 3053.77 32.47 3154.58 419.97 3053.77 533.65 3182.08 512.77 3507.44 146.16 3127.11 0 3127.07 0"/>
    <polygon class="uuid-8d7564f9-b9d0-478d-adbe-f60fc8151370" points="2692.1 674.28 2645.41 794.35 2471.97 974.46 2502.24 1107.88 2638.74 1207.94 2755.47 1101.21 2865.54 1027.83 2758.81 637.59 2692.1 674.28"/>
    <polygon class="uuid-8d7564f9-b9d0-478d-adbe-f60fc8151370" points="2572.88 183.47 2572.88 516.21 2687.82 479.91 2687.82 419.41 2887.46 349.84 2887.46 116.94 2808.82 92.73 2557.75 92.73 2448.86 132.05 2488.18 180.45 2572.88 183.47"/>
    <polygon class="uuid-8d7564f9-b9d0-478d-adbe-f60fc8151370" points="1985.02 9.93 1985.02 60.43 2062.19 213.6 1888.56 284.34 1888.56 652.49 2270.55 343.98 2212.67 192.02 2282.13 122.11 2282.13 9.93 1985.02 9.93"/>
    <polygon class="uuid-8d7564f9-b9d0-478d-adbe-f60fc8151370" points="1904.35 828.73 1904.35 1175.4 2147.34 1175.4 2222.11 1026.82 2178.49 729.65 2078.81 680.13 1904.35 828.73"/>
  </g>
  <polygon class="uuid-737e10f7-dc8b-4c71-8236-2164730d513f" points="1618.36 542.85 1608.08 553.79 1654.02 596.84 1446.49 595.97 1446.43 610.97 1653.93 611.84 1607.66 654.5 1617.84 665.53 1684.07 604.46 1618.36 542.85"/>
</svg>