<?xml version="1.0" encoding="UTF-8"?>
<svg id="uuid-bdbe0538-e2dc-4d2d-8f66-e8e8cac5ef5d" data-name="ARANEA Farben" xmlns="http://www.w3.org/2000/svg" viewBox="0 0 1618.89 3291.5">
  <defs>
    <style>
      .uuid-d647f762-ffa3-4a59-b44b-3f9c304bb617 {
        fill: #ff5700;
      }

      .uuid-d647f762-ffa3-4a59-b44b-3f9c304bb617, .uuid-604d0505-3a6d-4702-aaee-20b3d10ab41f, .uuid-6e92c303-43a2-4805-aebb-85e4cd96700d {
        stroke-width: 0px;
      }

      .uuid-604d0505-3a6d-4702-aaee-20b3d10ab41f {
        fill: #004842;
      }

      .uuid-6e92c303-43a2-4805-aebb-85e4cd96700d {
        fill: #fff;
      }
    </style>
  </defs>
  <g>
    <rect class="uuid-6e92c303-43a2-4805-aebb-85e4cd96700d" x="121.55" y="700.95" width="273.63" height="473.95"/>
    <ellipse class="uuid-6e92c303-43a2-4805-aebb-85e4cd96700d" cx="771.43" cy="236.98" rx="160.37" ry="236.98"/>
    <g>
      <polygon class="uuid-6e92c303-43a2-4805-aebb-85e4cd96700d" points="258.37 236.98 326.78 355.46 395.19 473.95 258.37 473.95 121.55 473.95 189.96 355.46 258.37 236.98"/>
      <polygon class="uuid-6e92c303-43a2-4805-aebb-85e4cd96700d" points="258.37 236.98 189.96 118.49 121.55 0 258.37 0 395.19 0 326.78 118.49 258.37 236.98"/>
    </g>
    <polygon class="uuid-6e92c303-43a2-4805-aebb-85e4cd96700d" points="1296.26 473.95 1195.72 236.98 1095.18 0 1296.26 0 1497.33 0 1396.79 236.98 1296.26 473.95"/>
    <polygon class="uuid-6e92c303-43a2-4805-aebb-85e4cd96700d" points="771.43 700.96 871.97 937.93 972.51 1174.9 771.43 1174.9 570.36 1174.9 670.9 937.93 771.43 700.96"/>
  </g>
  <g>
    <polygon class="uuid-604d0505-3a6d-4702-aaee-20b3d10ab41f" points="1238.51 2083.56 1165.21 2116.03 1266.03 2503.52 1165.21 2617.21 1293.52 2596.33 1618.89 2229.72 1238.55 2083.56 1238.51 2083.56"/>
    <polygon class="uuid-604d0505-3a6d-4702-aaee-20b3d10ab41f" points="803.55 2757.83 756.85 2877.91 583.41 3058.02 613.69 3191.44 750.18 3291.5 866.92 3184.76 976.99 3111.39 870.26 2721.15 803.55 2757.83"/>
    <polygon class="uuid-604d0505-3a6d-4702-aaee-20b3d10ab41f" points="684.32 2267.03 684.32 2599.76 799.27 2563.46 799.27 2502.97 998.91 2433.4 998.91 2200.49 920.26 2176.29 669.2 2176.29 560.3 2215.61 599.63 2264.01 684.32 2267.03"/>
    <polygon class="uuid-604d0505-3a6d-4702-aaee-20b3d10ab41f" points="96.46 2093.49 96.46 2143.99 173.63 2297.15 0 2367.9 0 2736.05 382 2427.53 324.12 2275.58 393.57 2205.67 393.57 2093.49 96.46 2093.49"/>
    <polygon class="uuid-604d0505-3a6d-4702-aaee-20b3d10ab41f" points="15.79 2912.28 15.79 3258.96 258.79 3258.96 333.56 3110.37 289.94 2813.21 190.25 2763.69 15.79 2912.28"/>
  </g>
  <polygon class="uuid-d647f762-ffa3-4a59-b44b-3f9c304bb617" points="859.62 1740.27 816.57 1786.21 817.44 1578.68 802.44 1578.62 801.57 1786.12 758.92 1739.85 747.89 1750.03 808.96 1816.26 870.57 1750.55 859.62 1740.27"/>
</svg>