<?xml version="1.0" encoding="UTF-8"?>
<svg id="uuid-63987cd5-094c-4bf7-840b-76119a6b09ce" data-name="Ebene 1" xmlns="http://www.w3.org/2000/svg" viewBox="0 0 1200 382.31">
  <defs>
    <style>
      .uuid-e5d96ebd-bc1a-4703-bc52-aad7f7945e83 {
        fill: #004842;
        stroke-width: 0px;
      }
    </style>
  </defs>
  <polygon class="uuid-e5d96ebd-bc1a-4703-bc52-aad7f7945e83" points="13.15 381.65 22.93 381.65 22.93 362.56 41.73 362.56 41.73 354.5 22.93 354.5 22.93 343.48 43.76 343.48 43.76 335.42 13.15 335.42 13.15 381.65"/>
  <path class="uuid-e5d96ebd-bc1a-4703-bc52-aad7f7945e83" d="M79.6,321.5c-1.29,0-2.41.44-3.34,1.33-.93.89-1.4,1.97-1.4,3.25s.47,2.33,1.4,3.24c.93.91,2.05,1.37,3.34,1.37s2.42-.46,3.33-1.37c.91-.91,1.37-1.99,1.37-3.24s-.46-2.36-1.37-3.25c-.91-.89-2.02-1.33-3.33-1.33Z"/>
  <path class="uuid-e5d96ebd-bc1a-4703-bc52-aad7f7945e83" d="M62.45,322.83c-.93.89-1.4,1.97-1.4,3.25s.47,2.33,1.4,3.24c.93.91,2.05,1.37,3.34,1.37s2.42-.46,3.33-1.37,1.37-1.99,1.37-3.24-.46-2.36-1.37-3.25c-.91-.89-2.02-1.33-3.33-1.33s-2.41.44-3.34,1.33Z"/>
  <path class="uuid-e5d96ebd-bc1a-4703-bc52-aad7f7945e83" d="M82.06,364.61c0,1.76-.39,3.33-1.16,4.7-.78,1.37-1.87,2.45-3.27,3.23-1.41.78-3.06,1.17-4.95,1.17s-3.53-.39-4.94-1.17c-1.41-.78-2.51-1.86-3.28-3.23-.78-1.37-1.16-2.93-1.16-4.7v-29.19h-9.77v30.02c0,3.37.8,6.32,2.39,8.85,1.59,2.53,3.83,4.5,6.7,5.9,2.87,1.41,6.23,2.11,10.07,2.11s7.17-.7,10.04-2.11c2.87-1.41,5.11-3.37,6.72-5.9,1.6-2.53,2.4-5.48,2.4-8.85v-30.02h-9.77v29.19Z"/>
  <path class="uuid-e5d96ebd-bc1a-4703-bc52-aad7f7945e83" d="M130.12,363.5c2.51-1.17,4.42-2.86,5.74-5.07,1.32-2.2,1.99-4.84,1.99-7.91s-.65-5.71-1.95-7.98c-1.3-2.26-3.19-4.02-5.67-5.26-2.48-1.24-5.46-1.86-8.95-1.86h-18.24v46.23h9.77v-16.39h7.13l8.76,16.39h10.79l-9.81-17.96c.14-.06.29-.12.43-.18ZM112.82,343.41h6.59c1.88,0,3.44.27,4.68.82,1.24.55,2.17,1.35,2.78,2.4s.91,2.35.91,3.88-.3,2.79-.91,3.81c-.61,1.02-1.53,1.79-2.76,2.3-1.23.51-2.78.77-4.65.77h-6.64v-14Z"/>
  <polygon class="uuid-e5d96ebd-bc1a-4703-bc52-aad7f7945e83" points="191.19 366.48 190.64 366.48 177.91 335.42 165.86 335.42 165.86 381.65 175.34 381.65 175.34 351.45 175.72 351.45 187.69 381.43 194.14 381.43 206.11 351.56 206.49 351.56 206.49 381.65 215.97 381.65 215.97 335.42 203.92 335.42 191.19 366.48"/>
  <path class="uuid-e5d96ebd-bc1a-4703-bc52-aad7f7945e83" d="M240.64,335.42l-15.96,46.23h10.47l3.43-10.54h16.69l3.42,10.54h10.47l-15.94-46.23h-12.6ZM241.06,363.48l5.69-17.49h.36l5.68,17.49h-11.73Z"/>
  <path class="uuid-e5d96ebd-bc1a-4703-bc52-aad7f7945e83" d="M243.38,329.32c.91-.91,1.37-1.99,1.37-3.24s-.46-2.36-1.37-3.25c-.91-.89-2.02-1.33-3.33-1.33s-2.41.44-3.34,1.33c-.93.89-1.4,1.97-1.4,3.25s.47,2.33,1.4,3.24c.93.91,2.05,1.37,3.34,1.37s2.42-.46,3.33-1.37Z"/>
  <path class="uuid-e5d96ebd-bc1a-4703-bc52-aad7f7945e83" d="M257.19,329.32c.91-.91,1.37-1.99,1.37-3.24s-.46-2.36-1.37-3.25c-.91-.89-2.02-1.33-3.33-1.33s-2.41.44-3.34,1.33c-.93.89-1.4,1.97-1.4,3.25s.47,2.33,1.4,3.24c.93.91,2.05,1.37,3.34,1.37s2.42-.46,3.33-1.37Z"/>
  <path class="uuid-e5d96ebd-bc1a-4703-bc52-aad7f7945e83" d="M306.43,338.19c-3.36-1.84-7.36-2.77-12.01-2.77h-16.52v46.23h16.39c4.7,0,8.73-.93,12.11-2.78,3.38-1.85,5.97-4.51,7.79-7.97,1.81-3.46,2.72-7.6,2.72-12.41s-.91-8.92-2.72-12.37-4.4-6.09-7.75-7.93ZM305.65,366.92c-1,2.17-2.49,3.78-4.47,4.81-1.98,1.03-4.41,1.55-7.3,1.55h-6.21v-29.48h6.23c2.89,0,5.32.51,7.29,1.53,1.97,1.02,3.46,2.62,4.46,4.79,1,2.17,1.5,4.96,1.5,8.37s-.5,6.26-1.5,8.43Z"/>
  <path class="uuid-e5d96ebd-bc1a-4703-bc52-aad7f7945e83" d="M342,345.21c1.78-1.18,3.86-1.77,6.25-1.77,1.32,0,2.55.19,3.69.56,1.14.38,2.14.92,3.01,1.63.87.71,1.59,1.56,2.14,2.56.56,1,.93,2.14,1.11,3.42h9.89c-.32-2.68-1.04-5.06-2.16-7.13-1.12-2.08-2.57-3.83-4.35-5.27-1.78-1.44-3.81-2.53-6.11-3.28-2.3-.75-4.78-1.13-7.46-1.13-4.06,0-7.72.93-10.97,2.79-3.25,1.86-5.82,4.56-7.72,8.09s-2.84,7.82-2.84,12.87.94,9.31,2.81,12.84,4.43,6.24,7.67,8.1c3.24,1.87,6.93,2.8,11.05,2.8,2.96,0,5.62-.45,7.98-1.34,2.35-.9,4.39-2.11,6.09-3.66,1.71-1.54,3.07-3.3,4.09-5.26s1.65-4.01,1.91-6.13l-9.89-.05c-.23,1.23-.63,2.33-1.21,3.3-.58.96-1.31,1.78-2.18,2.45-.87.67-1.87,1.18-2.99,1.52-1.12.35-2.34.52-3.65.52-2.33,0-4.39-.57-6.16-1.72-1.78-1.14-3.16-2.84-4.14-5.08-.99-2.24-1.48-5.01-1.48-8.31s.49-5.93,1.47-8.18c.98-2.25,2.36-3.96,4.13-5.15Z"/>
  <polygon class="uuid-e5d96ebd-bc1a-4703-bc52-aad7f7945e83" points="407.91 354.5 388.06 354.5 388.06 335.42 378.29 335.42 378.29 381.65 388.06 381.65 388.06 362.56 407.91 362.56 407.91 381.65 417.66 381.65 417.66 335.42 407.91 335.42 407.91 354.5"/>
  <polygon class="uuid-e5d96ebd-bc1a-4703-bc52-aad7f7945e83" points="438.67 362.56 458.44 362.56 458.44 354.5 438.67 354.5 438.67 343.48 460.04 343.48 460.04 335.42 428.89 335.42 428.89 381.65 460.13 381.65 460.13 373.59 438.67 373.59 438.67 362.56"/>
  <polygon class="uuid-e5d96ebd-bc1a-4703-bc52-aad7f7945e83" points="499.95 364.5 499.54 364.5 479.59 335.42 471.01 335.42 471.01 381.65 480.78 381.65 480.78 352.56 481.12 352.56 501.23 381.65 509.68 381.65 509.68 335.42 499.95 335.42 499.95 364.5"/>
  <polygon class="uuid-e5d96ebd-bc1a-4703-bc52-aad7f7945e83" points="544.61 339.26 537.3 344.16 537.89 335.42 531.81 335.42 532.38 344.16 525.07 339.26 522.04 344.59 529.92 348.43 522.04 352.26 525.07 357.59 532.38 352.69 531.81 361.43 537.89 361.43 537.3 352.69 544.61 357.59 547.64 352.26 539.78 348.43 547.64 344.59 544.61 339.26"/>
  <path class="uuid-e5d96ebd-bc1a-4703-bc52-aad7f7945e83" d="M610.47,362.14c2.46.79,5,.99,7.84.99h.54v-7.44h-10.71l-4.58-8.45h-8.42l.88,1.62c1.78,3.28,3.11,5.73,5.62,8.02-2.1-.74-4.32-1.18-6.09-1.18h-5.72c-3.42,0-6-2.5-6-5.81s2.58-5.81,6-5.81h22.03v-7.44h-21.96c-7.58,0-13.51,5.8-13.51,13.19,0,4.01,1.76,7.46,4.87,9.6-3.1,2.13-4.87,5.58-4.87,9.6,0,7.4,5.94,13.19,13.51,13.19h10.11c5.39,0,8.87-3.38,8.87-8.62,0-.29-.01-.59-.03-.89l5.07,9.51h8.49l-8.51-15.74c-.79-1.47-2.03-3-3.43-4.31ZM600.07,374.75h-10.23c-3.42,0-6-2.5-6-5.81s2.58-5.81,6-5.81h13.84c.17.32.35.64.53.97.91,1.65,1.86,3.36,1.86,5.16,0,3.57-3.09,5.49-6,5.49Z"/>
  <path class="uuid-e5d96ebd-bc1a-4703-bc52-aad7f7945e83" d="M663.85,367.66c0,1.48-.22,2.72-.65,3.72-.44,1.01-1.07,1.77-1.91,2.29-.84.52-1.85.78-3.06.78s-2.13-.23-2.97-.69c-.84-.46-1.49-1.12-1.96-1.99-.47-.86-.73-1.91-.76-3.13h-9.73c-.01,3.07.64,5.62,1.96,7.64s3.12,3.53,5.38,4.51c2.26.99,4.79,1.48,7.57,1.48,3.13,0,5.88-.59,8.24-1.78,2.36-1.19,4.21-2.88,5.54-5.08,1.33-2.2,2-4.79,2-7.76v-32.23h-9.66v32.23Z"/>
  <path class="uuid-e5d96ebd-bc1a-4703-bc52-aad7f7945e83" d="M713.3,364.61c0,1.76-.39,3.33-1.16,4.7s-1.87,2.45-3.27,3.23c-1.41.78-3.06,1.17-4.95,1.17s-3.53-.39-4.94-1.17c-1.41-.78-2.51-1.86-3.28-3.23s-1.16-2.93-1.16-4.7v-29.19h-9.77v30.02c0,3.37.8,6.32,2.39,8.85,1.59,2.53,3.83,4.5,6.7,5.9,2.87,1.41,6.23,2.11,10.07,2.11s7.17-.7,10.04-2.11c2.87-1.41,5.11-3.37,6.72-5.9,1.6-2.53,2.4-5.48,2.4-8.85v-30.02h-9.77v29.19Z"/>
  <polygon class="uuid-e5d96ebd-bc1a-4703-bc52-aad7f7945e83" points="763.23 364.5 762.82 364.5 742.86 335.42 734.29 335.42 734.29 381.65 744.06 381.65 744.06 352.56 744.4 352.56 764.51 381.65 772.95 381.65 772.95 335.42 763.23 335.42 763.23 364.5"/>
  <path class="uuid-e5d96ebd-bc1a-4703-bc52-aad7f7945e83" d="M805.86,364.27h9.92c-.04,1.85-.45,3.46-1.25,4.83-.84,1.44-2.04,2.56-3.61,3.35-1.57.79-3.47,1.18-5.68,1.18-2.44,0-4.55-.59-6.34-1.77-1.79-1.18-3.18-2.9-4.15-5.16-.98-2.26-1.47-5-1.47-8.22s.5-5.95,1.49-8.18c.99-2.23,2.38-3.94,4.16-5.11s3.86-1.76,6.22-1.76c1.26,0,2.42.16,3.47.47,1.05.32,1.98.77,2.8,1.37.82.59,1.52,1.32,2.09,2.17s1.02,1.82,1.33,2.92h9.93c-.32-2.29-1.03-4.38-2.14-6.29-1.11-1.9-2.55-3.55-4.3-4.93-1.75-1.38-3.76-2.46-6.02-3.22s-4.69-1.14-7.31-1.14c-3.05,0-5.89.53-8.51,1.6-2.62,1.07-4.91,2.63-6.88,4.67-1.97,2.05-3.5,4.54-4.59,7.48-1.09,2.94-1.64,6.29-1.64,10.03,0,4.88.91,9.08,2.74,12.63,1.83,3.54,4.38,6.27,7.66,8.19s7.09,2.88,11.42,2.88c3.88,0,7.33-.79,10.34-2.36,3.01-1.57,5.37-3.81,7.09-6.73s2.57-6.4,2.57-10.46v-5.82h-19.34v7.36Z"/>
  <polygon class="uuid-e5d96ebd-bc1a-4703-bc52-aad7f7945e83" points="845.49 362.56 865.27 362.56 865.27 354.5 845.49 354.5 845.49 343.48 866.87 343.48 866.87 335.42 835.72 335.42 835.72 381.65 866.96 381.65 866.96 373.59 845.49 373.59 845.49 362.56"/>
  <polygon class="uuid-e5d96ebd-bc1a-4703-bc52-aad7f7945e83" points="895.75 381.65 905.53 381.65 905.53 362.56 924.33 362.56 924.33 354.5 905.53 354.5 905.53 343.48 926.36 343.48 926.36 335.42 895.75 335.42 895.75 381.65"/>
  <path class="uuid-e5d96ebd-bc1a-4703-bc52-aad7f7945e83" d="M963.18,363.5c2.51-1.17,4.42-2.86,5.74-5.07,1.32-2.2,1.99-4.84,1.99-7.91s-.65-5.71-1.95-7.98c-1.3-2.26-3.19-4.02-5.67-5.26-2.48-1.24-5.46-1.86-8.95-1.86h-18.24v46.23h9.77v-16.39h7.13l8.76,16.39h10.79l-9.81-17.96c.14-.06.29-.12.43-.18ZM945.88,343.41h6.59c1.88,0,3.44.27,4.68.82s2.17,1.35,2.78,2.4c.61,1.05.91,2.35.91,3.88s-.3,2.79-.91,3.81c-.61,1.02-1.53,1.79-2.77,2.3-1.23.51-2.78.77-4.65.77h-6.64v-14Z"/>
  <path class="uuid-e5d96ebd-bc1a-4703-bc52-aad7f7945e83" d="M994.45,335.42l-15.96,46.23h10.47l3.43-10.54h16.69l3.42,10.54h10.47l-15.94-46.23h-12.6ZM994.88,363.48l5.69-17.49h.36l5.68,17.49h-11.73Z"/>
  <path class="uuid-e5d96ebd-bc1a-4703-bc52-aad7f7945e83" d="M1060.27,364.61c0,1.76-.39,3.33-1.16,4.7s-1.87,2.45-3.27,3.23c-1.41.78-3.06,1.17-4.95,1.17s-3.53-.39-4.94-1.17c-1.41-.78-2.51-1.86-3.28-3.23s-1.16-2.93-1.16-4.7v-29.19h-9.77v30.02c0,3.37.8,6.32,2.39,8.85,1.59,2.53,3.83,4.5,6.7,5.9,2.87,1.41,6.23,2.11,10.07,2.11s7.17-.7,10.04-2.11c2.87-1.41,5.11-3.37,6.72-5.9,1.6-2.53,2.4-5.48,2.4-8.85v-30.02h-9.77v29.19Z"/>
  <polygon class="uuid-e5d96ebd-bc1a-4703-bc52-aad7f7945e83" points="1091.03 362.56 1110.8 362.56 1110.8 354.5 1091.03 354.5 1091.03 343.48 1112.41 343.48 1112.41 335.42 1081.26 335.42 1081.26 381.65 1112.5 381.65 1112.5 373.59 1091.03 373.59 1091.03 362.56"/>
  <polygon class="uuid-e5d96ebd-bc1a-4703-bc52-aad7f7945e83" points="1152.31 364.5 1151.9 364.5 1131.95 335.42 1123.37 335.42 1123.37 381.65 1133.14 381.65 1133.14 352.56 1133.48 352.56 1153.6 381.65 1162.04 381.65 1162.04 335.42 1152.31 335.42 1152.31 364.5"/>
  <polygon class="uuid-e5d96ebd-bc1a-4703-bc52-aad7f7945e83" points="1200 344.59 1196.98 339.26 1189.66 344.16 1190.25 335.42 1184.18 335.42 1184.74 344.16 1177.43 339.26 1174.4 344.59 1182.28 348.43 1174.4 352.26 1177.43 357.59 1184.74 352.69 1184.18 361.43 1190.25 361.43 1189.66 352.69 1196.98 357.59 1200 352.26 1192.14 348.43 1200 344.59"/>
  <path class="uuid-e5d96ebd-bc1a-4703-bc52-aad7f7945e83" d="M319.45,127.95h-44.2l86.33,160.97h46.67l-69.39-130.02c38.41-7.43,64.85-36.74,64.85-76.36C403.71,35.5,366.13,0,319.45,0h-86.33v288.93h41.3V41.28h45.02c24.37,0,42.96,18.99,42.96,43.34s-18.17,43.34-42.96,43.34Z"/>
  <polygon class="uuid-e5d96ebd-bc1a-4703-bc52-aad7f7945e83" points="543.79 288.93 585.5 288.93 544.2 0 502.48 0 532.63 210.5 472.33 210.5 502.48 0 460.76 0 419.46 288.93 461.18 288.93 466.96 247.65 538 247.65 543.79 288.93"/>
  <polygon class="uuid-e5d96ebd-bc1a-4703-bc52-aad7f7945e83" points="648 0 730.61 288.93 773.56 288.93 690.96 0 648 0"/>
  <rect class="uuid-e5d96ebd-bc1a-4703-bc52-aad7f7945e83" x="606.7" y="0" width="41.3" height="288.93"/>
  <rect class="uuid-e5d96ebd-bc1a-4703-bc52-aad7f7945e83" x="773.56" y="0" width="41.3" height="288.93"/>
  <polygon class="uuid-e5d96ebd-bc1a-4703-bc52-aad7f7945e83" points="1155.02 288.93 1196.74 288.93 1155.44 0 1113.72 0 1143.87 210.5 1083.57 210.5 1113.72 0 1072 0 1030.7 288.93 1072.41 288.93 1078.2 247.65 1149.24 247.65 1155.02 288.93"/>
  <path class="uuid-e5d96ebd-bc1a-4703-bc52-aad7f7945e83" d="M1017.2,247.65h-127.63V41.28h57.06c-25.2,21.88-41.3,49.53-41.3,83.38,0,37.15,23.48,66.45,63.13,66.45,17.76,0,34.28-5.78,48.33-16.92v-61.24c-16.24,37.85-54.93,37.3-54.93,37.3-23.13,0-32.51-16.92-32.51-38.8,0-26.49,20.76-57.05,34.12-69.6C980.37,28.29,985.43,20.33,1045.43,0h-197.16v288.93h168.93v-41.28Z"/>
  <path class="uuid-e5d96ebd-bc1a-4703-bc52-aad7f7945e83" d="M47.82,254.54h36.47c57.76-5.01,43.44-101.23,43.44-101.23l53.15,135.62h44.19L112.33.05h-44.19c9.09,15.27,15.69,54.47,15.69,72.22C83.83,157.28,0,178.33,0,248.07c0,14.44,3.72,28.89,12.39,40.86h56.72c-24.17-20.51-21.29-34.39-21.29-34.39ZM66.6,166.63c16.16-32.06,29.65-53.46,26.32-103.03,27.53,65,28.06,66.78,29.3,83.11,0,0,3.73,78.78-40.4,78.78h-33.96c0-29.14,18.74-58.85,18.74-58.85Z"/>
</svg>