<svg width="1044" height="227" viewBox="0 0 1044 227" fill="none" xmlns="http://www.w3.org/2000/svg">
<g clip-path="url(#clip0_2733_4)">
<path d="M39.9179 6.69275V2.03075C39.9179 1.86275 39.9359 1.76075 39.9719 1.72475C40.0199 1.67675 40.1219 1.65275 40.2779 1.65275H42.0059C42.1739 1.65275 42.2759 1.67675 42.3119 1.72475C42.3599 1.76075 42.3839 1.86275 42.3839 2.03075V13.6228C42.3839 13.7908 42.3599 13.8988 42.3119 13.9468C42.2759 13.9828 42.1739 14.0008 42.0059 14.0008H40.2779C40.1099 14.0008 40.0079 13.9828 39.9719 13.9468C39.9359 13.8988 39.9179 13.7908 39.9179 13.6228V8.52875H36.5519V13.6228C36.5519 13.7908 36.5279 13.8988 36.4799 13.9468C36.4439 13.9828 36.3419 14.0008 36.1739 14.0008H34.4639C34.2959 14.0008 34.1879 13.9828 34.1399 13.9468C34.1039 13.8988 34.0859 13.7908 34.0859 13.6228V2.03075C34.0859 1.86275 34.1039 1.76075 34.1399 1.72475C34.1879 1.67675 34.2959 1.65275 34.4639 1.65275H36.1739C36.3419 1.65275 36.4439 1.67675 36.4799 1.72475C36.5279 1.76075 36.5519 1.86275 36.5519 2.03075V6.69275H39.9179ZM48.3758 6.62075C47.8598 6.62075 47.4878 6.84875 47.2598 7.30475C47.0318 7.76075 46.9178 8.51075 46.9178 9.55475C46.9178 10.5988 47.0318 11.3488 47.2598 11.8048C47.4878 12.2608 47.8658 12.4888 48.3938 12.4888C48.9338 12.4888 49.3178 12.2608 49.5458 11.8048C49.7738 11.3488 49.8878 10.6048 49.8878 9.57275C49.8878 8.50475 49.7678 7.74875 49.5278 7.30475C49.2998 6.84875 48.9158 6.62075 48.3758 6.62075ZM48.4838 4.80275C49.0718 4.80275 49.5998 4.91675 50.0678 5.14475C50.5478 5.36075 50.9498 5.67275 51.2738 6.08075C51.6098 6.48875 51.8678 6.98675 52.0478 7.57475C52.2278 8.15075 52.3178 8.80475 52.3178 9.53675C52.3178 10.2688 52.2278 10.9288 52.0478 11.5168C51.8678 12.1048 51.6098 12.6088 51.2738 13.0288C50.9378 13.4368 50.5238 13.7548 50.0318 13.9828C49.5518 14.1988 49.0118 14.3068 48.4118 14.3068C47.1758 14.3068 46.2098 13.8928 45.5138 13.0648C44.8298 12.2248 44.4878 11.0548 44.4878 9.55475C44.4878 8.10275 44.8358 6.95675 45.5318 6.11675C45.9158 5.66075 46.3418 5.33075 46.8098 5.12675C47.2778 4.91075 47.8358 4.80275 48.4838 4.80275ZM55.9538 1.00475C56.0498 0.98075 56.1038 0.96875 56.1158 0.96875C56.1278 0.96875 56.1458 0.96875 56.1698 0.96875C56.2898 0.96875 56.3498 1.07075 56.3498 1.27475V10.6528C56.3498 10.9048 56.3498 11.1028 56.3498 11.2468C56.3498 11.3908 56.3498 11.4988 56.3498 11.5708C56.3498 11.6428 56.3498 11.6968 56.3498 11.7328C56.3618 11.7688 56.3738 11.8048 56.3858 11.8408C56.4578 12.0808 56.6078 12.2008 56.8358 12.2008C56.9318 12.2008 57.0218 12.1948 57.1058 12.1828C57.2018 12.1588 57.3098 12.1288 57.4298 12.0928C57.4658 12.0808 57.5078 12.0748 57.5558 12.0748C57.6278 12.0748 57.6758 12.1108 57.6998 12.1828L58.0598 13.6588L58.0778 13.7308C58.0898 13.7548 58.0958 13.7788 58.0958 13.8028C58.0958 13.8628 58.0418 13.9228 57.9338 13.9828C57.8258 14.0428 57.6818 14.0968 57.5018 14.1448C57.3338 14.1928 57.1418 14.2288 56.9258 14.2528C56.7098 14.2888 56.4938 14.3068 56.2778 14.3068C55.2098 14.3068 54.5258 13.8748 54.2258 13.0108C54.1898 12.9028 54.1598 12.8068 54.1358 12.7228C54.1118 12.6268 54.0938 12.5008 54.0818 12.3448C54.0818 12.1888 54.0758 11.9968 54.0638 11.7688C54.0638 11.5288 54.0638 11.2108 54.0638 10.8148V1.67075C54.0638 1.47875 54.1538 1.36475 54.3338 1.32875L55.9538 1.00475ZM59.6856 2.84075C59.6856 2.70875 59.6976 2.63075 59.7216 2.60675C59.7576 2.57075 59.8416 2.54075 59.9736 2.51675L61.6296 2.28275H61.7916C61.9116 2.28275 61.9716 2.37875 61.9716 2.57075V5.10875H64.0236C64.2276 5.10875 64.3296 5.16875 64.3296 5.28875C64.3296 5.36075 64.3236 5.41475 64.3116 5.45075L64.0776 6.51275C64.0536 6.62075 64.0176 6.69275 63.9696 6.72875C63.9336 6.76475 63.8616 6.78275 63.7536 6.78275H61.9716V11.1568C61.9716 11.6368 62.0136 11.9488 62.0976 12.0928C62.1816 12.2368 62.3616 12.3088 62.6376 12.3088C62.7216 12.3088 62.7996 12.3088 62.8716 12.3088C62.9556 12.2968 63.0396 12.2788 63.1236 12.2548C63.2076 12.2308 63.3036 12.2008 63.4116 12.1648C63.5196 12.1288 63.6576 12.0748 63.8256 12.0028C63.8976 11.9788 63.9516 11.9668 63.9876 11.9668C64.0716 11.9668 64.1316 12.0268 64.1676 12.1468L64.4556 13.4068C64.4796 13.4668 64.4916 13.5088 64.4916 13.5328C64.4916 13.5568 64.4916 13.5808 64.4916 13.6048C64.4916 13.7008 64.4556 13.7728 64.3836 13.8208C64.3116 13.8688 64.1616 13.9288 63.9336 14.0008C63.2976 14.2048 62.6916 14.3068 62.1156 14.3068C61.1676 14.3068 60.4896 14.0008 60.0816 13.3888C59.9256 13.1608 59.8176 12.9148 59.7576 12.6508C59.7096 12.3748 59.6856 11.9848 59.6856 11.4808V6.78275H58.4436C58.3116 6.78275 58.2276 6.76475 58.1916 6.72875C58.1556 6.69275 58.1376 6.60875 58.1376 6.47675V5.41475C58.1376 5.28275 58.1556 5.19875 58.1916 5.16275C58.2276 5.12675 58.3116 5.10875 58.4436 5.10875H59.6856V2.84075ZM68.1477 13.6948C68.1477 13.8268 68.1297 13.9108 68.0937 13.9468C68.0577 13.9828 67.9737 14.0008 67.8417 14.0008H66.2037C66.0717 14.0008 65.9877 13.9828 65.9517 13.9468C65.9157 13.9108 65.8977 13.8268 65.8977 13.6948V7.64675C65.8977 7.41875 65.8917 7.22075 65.8797 7.05275C65.8677 6.87275 65.8497 6.71075 65.8257 6.56675C65.8017 6.42275 65.7657 6.28475 65.7177 6.15275C65.6817 6.02075 65.6337 5.87075 65.5737 5.70275C65.5377 5.63075 65.5197 5.56475 65.5197 5.50475C65.5197 5.42075 65.5857 5.34875 65.7177 5.28875L67.1757 4.80275C67.2237 4.79075 67.2597 4.78475 67.2837 4.78475C67.3077 4.77275 67.3317 4.76675 67.3557 4.76675C67.4517 4.76675 67.5477 4.88675 67.6437 5.12675C67.7517 5.35475 67.8477 5.66675 67.9317 6.06275C68.4357 5.60675 68.8857 5.28275 69.2817 5.09075C69.6777 4.89875 70.1217 4.80275 70.6137 4.80275C71.5377 4.80275 72.1917 5.22275 72.5757 6.06275C73.0917 5.59475 73.5537 5.27075 73.9617 5.09075C74.3817 4.89875 74.8437 4.80275 75.3477 4.80275C76.1757 4.80275 76.7517 5.10275 77.0757 5.70275C77.2077 5.95475 77.2917 6.22475 77.3277 6.51275C77.3757 6.80075 77.3997 7.22075 77.3997 7.77275V13.6948C77.3997 13.8268 77.3817 13.9108 77.3457 13.9468C77.3097 13.9828 77.2257 14.0008 77.0937 14.0008H75.4377C75.3057 14.0008 75.2217 13.9828 75.1857 13.9468C75.1497 13.9108 75.1317 13.8268 75.1317 13.6948V7.98875C75.1317 7.48475 75.0717 7.13075 74.9517 6.92675C74.8317 6.71075 74.6217 6.60275 74.3217 6.60275C74.0817 6.60275 73.8417 6.66275 73.6017 6.78275C73.3737 6.90275 73.0977 7.11275 72.7737 7.41275V13.6948C72.7737 13.8268 72.7557 13.9108 72.7197 13.9468C72.6837 13.9828 72.5997 14.0008 72.4677 14.0008H70.8297C70.6977 14.0008 70.6137 13.9828 70.5777 13.9468C70.5417 13.9108 70.5237 13.8268 70.5237 13.6948V8.16875C70.5237 7.56875 70.4637 7.16675 70.3437 6.96275C70.2357 6.74675 70.0197 6.63875 69.6957 6.63875C69.4557 6.63875 69.2157 6.69875 68.9757 6.81875C68.7357 6.93875 68.4597 7.13675 68.1477 7.41275V13.6948ZM84.2815 8.49275C84.2575 7.74875 84.1435 7.22075 83.9395 6.90875C83.7475 6.59675 83.4235 6.44075 82.9675 6.44075C82.5115 6.44075 82.1695 6.59675 81.9415 6.90875C81.7135 7.22075 81.5575 7.74875 81.4735 8.49275H84.2815ZM81.4375 10.1668C81.4615 10.9468 81.6295 11.5228 81.9415 11.8948C82.2655 12.2548 82.7635 12.4348 83.4355 12.4348C84.0955 12.4348 84.7795 12.2488 85.4875 11.8768C85.5715 11.8288 85.6495 11.8048 85.7215 11.8048C85.7935 11.8048 85.8595 11.8588 85.9195 11.9668L86.3695 13.0468C86.3935 13.1068 86.4055 13.1488 86.4055 13.1728C86.4175 13.1848 86.4235 13.2088 86.4235 13.2448C86.4235 13.3408 86.3755 13.4248 86.2795 13.4968C86.1835 13.5688 85.9855 13.6708 85.6855 13.8028C84.9055 14.1388 84.0775 14.3068 83.2015 14.3068C82.0375 14.3068 81.1435 14.0128 80.5195 13.4248C80.0875 13.0408 79.7515 12.5188 79.5115 11.8588C79.2835 11.1988 79.1695 10.4548 79.1695 9.62675C79.1695 8.90675 79.2595 8.25275 79.4395 7.66475C79.6315 7.06475 79.9015 6.55475 80.2495 6.13475C80.5975 5.70275 81.0115 5.37275 81.4915 5.14475C81.9715 4.91675 82.5115 4.80275 83.1115 4.80275C85.4875 4.80275 86.6755 6.44075 86.6755 9.71675C86.6755 9.89675 86.6515 10.0168 86.6035 10.0768C86.5555 10.1368 86.4475 10.1668 86.2795 10.1668H81.4375ZM90.7 9.66275C90.772 9.97475 90.838 10.2628 90.898 10.5268C90.97 10.7788 91.03 11.0308 91.078 11.2828C91.138 11.5228 91.192 11.7628 91.24 12.0028C91.288 12.2428 91.342 12.5008 91.402 12.7768C91.438 12.5848 91.468 12.4228 91.492 12.2908C91.516 12.1468 91.534 12.0208 91.546 11.9128C91.57 11.8048 91.588 11.7028 91.6 11.6068C91.624 11.5108 91.648 11.3968 91.672 11.2648C91.696 11.1088 91.72 10.9648 91.744 10.8328C91.78 10.6888 91.81 10.5568 91.834 10.4368L92.014 9.66275L93.022 5.25275C93.046 5.14475 93.07 5.07275 93.094 5.03675C93.118 5.00075 93.16 4.98275 93.22 4.98275C93.268 4.98275 93.316 4.98875 93.364 5.00075L94.948 5.18075C95.14 5.19275 95.236 5.25275 95.236 5.36075C95.236 5.38475 95.236 5.40875 95.236 5.43275C95.236 5.44475 95.224 5.48075 95.2 5.54075L93.4 12.1288C93.28 12.5128 93.178 12.9088 93.094 13.3168C92.938 13.9528 92.8 14.4748 92.68 14.8828C92.572 15.3028 92.464 15.6448 92.356 15.9088C92.26 16.1848 92.164 16.4068 92.068 16.5748C91.972 16.7428 91.858 16.9048 91.726 17.0608C91.21 17.6848 90.484 17.9968 89.548 17.9968C89.296 17.9968 89.026 17.9668 88.738 17.9068C88.45 17.8588 88.18 17.7928 87.928 17.7088C87.688 17.6248 87.484 17.5348 87.316 17.4388C87.16 17.3428 87.082 17.2468 87.082 17.1508C87.082 17.1268 87.088 17.1028 87.1 17.0788C87.1 17.0668 87.118 17.0248 87.154 16.9528L87.712 15.8008C87.748 15.7168 87.802 15.6748 87.874 15.6748C87.91 15.6748 87.958 15.6928 88.018 15.7288C88.558 15.9928 89.02 16.1248 89.404 16.1248C89.788 16.1248 90.076 16.0288 90.268 15.8368C90.472 15.6448 90.652 15.2848 90.808 14.7568L91.024 14.0008H90.268C90.148 14.0008 90.07 13.9888 90.034 13.9648C90.01 13.9408 89.974 13.8748 89.926 13.7668L87.1 5.55875C87.076 5.49875 87.064 5.45675 87.064 5.43275C87.052 5.40875 87.046 5.38475 87.046 5.36075C87.046 5.25275 87.142 5.19275 87.334 5.18075L89.17 4.98275H89.296C89.392 4.98275 89.464 5.06675 89.512 5.23475L90.7 9.66275ZM100.769 8.49275C100.745 7.74875 100.631 7.22075 100.427 6.90875C100.235 6.59675 99.9118 6.44075 99.4558 6.44075C98.9998 6.44075 98.6578 6.59675 98.4298 6.90875C98.2018 7.22075 98.0458 7.74875 97.9618 8.49275H100.769ZM97.9258 10.1668C97.9498 10.9468 98.1178 11.5228 98.4298 11.8948C98.7538 12.2548 99.2518 12.4348 99.9238 12.4348C100.583 12.4348 101.267 12.2488 101.975 11.8768C102.059 11.8288 102.137 11.8048 102.209 11.8048C102.281 11.8048 102.347 11.8588 102.407 11.9668L102.857 13.0468C102.881 13.1068 102.893 13.1488 102.893 13.1728C102.905 13.1848 102.911 13.2088 102.911 13.2448C102.911 13.3408 102.863 13.4248 102.767 13.4968C102.671 13.5688 102.473 13.6708 102.173 13.8028C101.393 14.1388 100.565 14.3068 99.6898 14.3068C98.5258 14.3068 97.6318 14.0128 97.0078 13.4248C96.5758 13.0408 96.2398 12.5188 95.9998 11.8588C95.7718 11.1988 95.6578 10.4548 95.6578 9.62675C95.6578 8.90675 95.7478 8.25275 95.9278 7.66475C96.1198 7.06475 96.3898 6.55475 96.7378 6.13475C97.0858 5.70275 97.4998 5.37275 97.9798 5.14475C98.4598 4.91675 98.9998 4.80275 99.5998 4.80275C101.975 4.80275 103.163 6.44075 103.163 9.71675C103.163 9.89675 103.139 10.0168 103.091 10.0768C103.043 10.1368 102.935 10.1668 102.767 10.1668H97.9258ZM106.123 4.85675C106.195 4.83275 106.237 4.82075 106.249 4.82075C106.273 4.80875 106.303 4.80275 106.339 4.80275C106.447 4.80275 106.561 4.92875 106.681 5.18075C106.813 5.43275 106.927 5.77475 107.023 6.20675C107.119 6.09875 107.197 6.00875 107.257 5.93675C107.317 5.86475 107.365 5.80475 107.401 5.75675C107.449 5.70875 107.485 5.66675 107.509 5.63075C107.545 5.59475 107.587 5.55275 107.635 5.50475C108.103 5.03675 108.649 4.80275 109.273 4.80275C109.549 4.80275 109.789 4.84475 109.993 4.92875C110.197 5.01275 110.299 5.10275 110.299 5.19875C110.299 5.23475 110.287 5.30075 110.263 5.39675L109.705 6.85475C109.669 6.96275 109.621 7.01675 109.561 7.01675C109.549 7.01675 109.507 7.00475 109.435 6.98075C109.171 6.88475 108.931 6.83675 108.715 6.83675C108.331 6.83675 107.875 7.12475 107.347 7.70075V13.6948C107.347 13.8268 107.329 13.9108 107.293 13.9468C107.257 13.9828 107.173 14.0008 107.041 14.0008H105.367C105.235 14.0008 105.151 13.9828 105.115 13.9468C105.079 13.9108 105.061 13.8268 105.061 13.6948V8.22275C105.061 7.97075 105.049 7.74275 105.025 7.53875C105.013 7.33475 104.989 7.14275 104.953 6.96275C104.917 6.77075 104.863 6.57875 104.791 6.38675C104.719 6.18275 104.629 5.96075 104.521 5.72075C104.497 5.64875 104.485 5.59475 104.485 5.55875C104.485 5.47475 104.545 5.41475 104.665 5.37875L106.123 4.85675ZM121.129 6.69275V2.03075C121.129 1.86275 121.147 1.76075 121.183 1.72475C121.231 1.67675 121.333 1.65275 121.489 1.65275H123.217C123.385 1.65275 123.487 1.67675 123.523 1.72475C123.571 1.76075 123.595 1.86275 123.595 2.03075V13.6228C123.595 13.7908 123.571 13.8988 123.523 13.9468C123.487 13.9828 123.385 14.0008 123.217 14.0008H121.489C121.321 14.0008 121.219 13.9828 121.183 13.9468C121.147 13.8988 121.129 13.7908 121.129 13.6228V8.52875H117.763V13.6228C117.763 13.7908 117.739 13.8988 117.691 13.9468C117.655 13.9828 117.553 14.0008 117.385 14.0008H115.675C115.507 14.0008 115.399 13.9828 115.351 13.9468C115.315 13.8988 115.297 13.7908 115.297 13.6228V2.03075C115.297 1.86275 115.315 1.76075 115.351 1.72475C115.399 1.67675 115.507 1.65275 115.675 1.65275H117.385C117.553 1.65275 117.655 1.67675 117.691 1.72475C117.739 1.76075 117.763 1.86275 117.763 2.03075V6.69275H121.129ZM129.586 6.62075C129.07 6.62075 128.698 6.84875 128.47 7.30475C128.242 7.76075 128.128 8.51075 128.128 9.55475C128.128 10.5988 128.242 11.3488 128.47 11.8048C128.698 12.2608 129.076 12.4888 129.604 12.4888C130.144 12.4888 130.528 12.2608 130.756 11.8048C130.984 11.3488 131.098 10.6048 131.098 9.57275C131.098 8.50475 130.978 7.74875 130.738 7.30475C130.51 6.84875 130.126 6.62075 129.586 6.62075ZM129.694 4.80275C130.282 4.80275 130.81 4.91675 131.278 5.14475C131.758 5.36075 132.16 5.67275 132.484 6.08075C132.82 6.48875 133.078 6.98675 133.258 7.57475C133.438 8.15075 133.528 8.80475 133.528 9.53675C133.528 10.2688 133.438 10.9288 133.258 11.5168C133.078 12.1048 132.82 12.6088 132.484 13.0288C132.148 13.4368 131.734 13.7548 131.242 13.9828C130.762 14.1988 130.222 14.3068 129.622 14.3068C128.386 14.3068 127.42 13.8928 126.724 13.0648C126.04 12.2248 125.698 11.0548 125.698 9.55475C125.698 8.10275 126.046 6.95675 126.742 6.11675C127.126 5.66075 127.552 5.33075 128.02 5.12675C128.488 4.91075 129.046 4.80275 129.694 4.80275ZM137.164 1.00475C137.26 0.98075 137.314 0.96875 137.326 0.96875C137.338 0.96875 137.356 0.96875 137.38 0.96875C137.5 0.96875 137.56 1.07075 137.56 1.27475V10.6528C137.56 10.9048 137.56 11.1028 137.56 11.2468C137.56 11.3908 137.56 11.4988 137.56 11.5708C137.56 11.6428 137.56 11.6968 137.56 11.7328C137.572 11.7688 137.584 11.8048 137.596 11.8408C137.668 12.0808 137.818 12.2008 138.046 12.2008C138.142 12.2008 138.232 12.1948 138.316 12.1828C138.412 12.1588 138.52 12.1288 138.64 12.0928C138.676 12.0808 138.718 12.0748 138.766 12.0748C138.838 12.0748 138.886 12.1108 138.91 12.1828L139.27 13.6588L139.288 13.7308C139.3 13.7548 139.306 13.7788 139.306 13.8028C139.306 13.8628 139.252 13.9228 139.144 13.9828C139.036 14.0428 138.892 14.0968 138.712 14.1448C138.544 14.1928 138.352 14.2288 138.136 14.2528C137.92 14.2888 137.704 14.3068 137.488 14.3068C136.42 14.3068 135.736 13.8748 135.436 13.0108C135.4 12.9028 135.37 12.8068 135.346 12.7228C135.322 12.6268 135.304 12.5008 135.292 12.3448C135.292 12.1888 135.286 11.9968 135.274 11.7688C135.274 11.5288 135.274 11.2108 135.274 10.8148V1.67075C135.274 1.47875 135.364 1.36475 135.544 1.32875L137.164 1.00475ZM144.838 6.94475C144.406 6.72875 143.974 6.62075 143.542 6.62075C142.978 6.62075 142.576 6.84275 142.336 7.28675C142.108 7.73075 141.994 8.49875 141.994 9.59075C141.994 10.6468 142.102 11.4028 142.318 11.8588C142.534 12.3148 142.894 12.5428 143.398 12.5428C143.962 12.5428 144.442 12.3328 144.838 11.9128V6.94475ZM145.828 14.1988C145.756 14.2348 145.696 14.2528 145.648 14.2528C145.552 14.2528 145.462 14.1688 145.378 14.0008C145.294 13.8328 145.222 13.6108 145.162 13.3348C144.37 13.9828 143.53 14.3068 142.642 14.3068C141.706 14.3068 140.98 13.9108 140.464 13.1188C139.96 12.3148 139.708 11.1808 139.708 9.71675C139.708 8.82875 139.792 8.07875 139.96 7.46675C140.128 6.85475 140.398 6.32675 140.77 5.88275C141.382 5.16275 142.144 4.80275 143.056 4.80275C143.368 4.80275 143.662 4.84475 143.938 4.92875C144.214 5.00075 144.514 5.12675 144.838 5.30675V1.65275C144.838 1.53275 144.85 1.45475 144.874 1.41875C144.898 1.38275 144.976 1.35275 145.108 1.32875L146.782 0.98675L146.944 0.96875C147.064 0.96875 147.124 1.07075 147.124 1.27475V11.7868C147.124 11.9788 147.124 12.1348 147.124 12.2548C147.136 12.3748 147.154 12.4888 147.178 12.5968C147.202 12.7048 147.232 12.8188 147.268 12.9388C147.316 13.0468 147.376 13.1788 147.448 13.3348C147.472 13.4068 147.484 13.4428 147.484 13.4428C147.484 13.5148 147.43 13.5688 147.322 13.6048L145.828 14.1988ZM148.772 6.78275C148.64 6.78275 148.556 6.76475 148.52 6.72875C148.484 6.69275 148.466 6.60875 148.466 6.47675V5.41475C148.466 5.28275 148.484 5.19875 148.52 5.16275C148.556 5.12675 148.64 5.10875 148.772 5.10875H152.12C152.252 5.10875 152.336 5.12675 152.372 5.16275C152.408 5.19875 152.426 5.28275 152.426 5.41475V13.6948C152.426 13.8268 152.408 13.9108 152.372 13.9468C152.336 13.9828 152.252 14.0008 152.12 14.0008H150.446C150.314 14.0008 150.23 13.9828 150.194 13.9468C150.158 13.9108 150.14 13.8268 150.14 13.6948V6.78275H148.772ZM151.238 1.00475C151.634 1.00475 151.97 1.14875 152.246 1.43675C152.534 1.72475 152.678 2.06675 152.678 2.46275C152.678 2.87075 152.534 3.21875 152.246 3.50675C151.97 3.78275 151.628 3.92075 151.22 3.92075C150.812 3.92075 150.464 3.78275 150.176 3.50675C149.9 3.21875 149.762 2.86475 149.762 2.44475C149.762 2.04875 149.906 1.71275 150.194 1.43675C150.482 1.14875 150.83 1.00475 151.238 1.00475ZM156.42 4.74875C156.492 4.72475 156.552 4.71275 156.6 4.71275C156.708 4.71275 156.816 4.82075 156.924 5.03675C157.044 5.25275 157.152 5.55875 157.248 5.95475C157.704 5.53475 158.136 5.24075 158.544 5.07275C158.964 4.89275 159.432 4.80275 159.948 4.80275C160.752 4.80275 161.34 5.03075 161.712 5.48675C162.084 5.94275 162.27 6.66275 162.27 7.64675V13.6948C162.27 13.8268 162.252 13.9108 162.216 13.9468C162.18 13.9828 162.096 14.0008 161.964 14.0008H160.29C160.158 14.0008 160.074 13.9828 160.038 13.9468C160.002 13.9108 159.984 13.8268 159.984 13.6948V8.15075C159.984 7.61075 159.9 7.22675 159.732 6.99875C159.576 6.75875 159.318 6.63875 158.958 6.63875C158.694 6.63875 158.442 6.69275 158.202 6.80075C157.974 6.90875 157.704 7.10075 157.392 7.37675V13.6948C157.392 13.8268 157.374 13.9108 157.338 13.9468C157.302 13.9828 157.218 14.0008 157.086 14.0008H155.412C155.28 14.0008 155.196 13.9828 155.16 13.9468C155.124 13.9108 155.106 13.8268 155.106 13.6948V7.64675C155.106 6.87875 154.98 6.22475 154.728 5.68475C154.692 5.61275 154.674 5.55275 154.674 5.50475C154.674 5.43275 154.722 5.37875 154.818 5.34275L156.42 4.74875ZM169.076 7.21475C168.824 7.02275 168.602 6.89075 168.41 6.81875C168.218 6.73475 168.014 6.69275 167.798 6.69275C167.318 6.69275 166.952 6.92675 166.7 7.39475C166.448 7.86275 166.322 8.54075 166.322 9.42875C166.322 10.2928 166.436 10.9528 166.664 11.4088C166.892 11.8528 167.222 12.0748 167.654 12.0748C168.206 12.0748 168.68 11.8708 169.076 11.4628V7.21475ZM164.756 15.3508C164.792 15.2308 164.858 15.1708 164.954 15.1708C165.002 15.1708 165.056 15.1888 165.116 15.2248C166.088 15.6688 166.976 15.8908 167.78 15.8908C168.284 15.8908 168.638 15.7768 168.842 15.5488C169.058 15.3208 169.166 14.9368 169.166 14.3968C169.166 14.2528 169.154 14.0848 169.13 13.8928C169.118 13.6888 169.1 13.4668 169.076 13.2268C168.74 13.4668 168.404 13.6408 168.068 13.7488C167.732 13.8448 167.372 13.8928 166.988 13.8928C166.076 13.8928 165.356 13.5028 164.828 12.7228C164.3 11.9308 164.036 10.8628 164.036 9.51875C164.036 8.79875 164.114 8.15075 164.27 7.57475C164.426 6.98675 164.642 6.48875 164.918 6.08075C165.206 5.67275 165.554 5.36075 165.962 5.14475C166.37 4.91675 166.826 4.80275 167.33 4.80275C167.75 4.80275 168.11 4.86275 168.41 4.98275C168.71 5.10275 169.04 5.31875 169.4 5.63075C169.508 5.36675 169.622 5.15675 169.742 5.00075C169.862 4.83275 169.958 4.74875 170.03 4.74875C170.102 4.74875 170.162 4.76075 170.21 4.78475L171.632 5.28875C171.74 5.34875 171.794 5.40875 171.794 5.46875C171.794 5.49275 171.788 5.52275 171.776 5.55875C171.776 5.58275 171.746 5.66075 171.686 5.79275C171.542 6.12875 171.44 6.45275 171.38 6.76475C171.32 7.06475 171.29 7.41875 171.29 7.82675V10.4908C171.29 11.4748 171.308 12.4528 171.344 13.4248C171.356 13.6648 171.362 13.8808 171.362 14.0728C171.374 14.2768 171.38 14.4388 171.38 14.5588C171.38 15.5908 171.086 16.3828 170.498 16.9348C169.922 17.4868 169.088 17.7628 167.996 17.7628C167.612 17.7628 167.204 17.7268 166.772 17.6548C166.352 17.5948 165.962 17.5168 165.602 17.4208C165.242 17.3248 164.942 17.2168 164.702 17.0968C164.462 16.9888 164.342 16.8808 164.342 16.7728C164.342 16.7248 164.354 16.6648 164.378 16.5928L164.756 15.3508Z" fill="black"/>
<path d="M381.504 12.6928V8.03075C381.504 7.86275 381.522 7.76075 381.558 7.72475C381.606 7.67675 381.708 7.65275 381.864 7.65275H383.592C383.76 7.65275 383.862 7.67675 383.898 7.72475C383.946 7.76075 383.97 7.86275 383.97 8.03075V19.6227C383.97 19.7907 383.946 19.8987 383.898 19.9467C383.862 19.9827 383.76 20.0007 383.592 20.0007H381.864C381.696 20.0007 381.594 19.9827 381.558 19.9467C381.522 19.8987 381.504 19.7907 381.504 19.6227V14.5287H378.138V19.6227C378.138 19.7907 378.114 19.8987 378.066 19.9467C378.03 19.9827 377.928 20.0007 377.76 20.0007H376.05C375.882 20.0007 375.774 19.9827 375.726 19.9467C375.69 19.8987 375.672 19.7907 375.672 19.6227V8.03075C375.672 7.86275 375.69 7.76075 375.726 7.72475C375.774 7.67675 375.882 7.65275 376.05 7.65275H377.76C377.928 7.65275 378.03 7.67675 378.066 7.72475C378.114 7.76075 378.138 7.86275 378.138 8.03075V12.6928H381.504ZM389.961 12.6207C389.445 12.6207 389.073 12.8487 388.845 13.3047C388.617 13.7607 388.503 14.5108 388.503 15.5548C388.503 16.5988 388.617 17.3488 388.845 17.8048C389.073 18.2608 389.451 18.4888 389.979 18.4888C390.519 18.4888 390.903 18.2608 391.131 17.8048C391.359 17.3488 391.473 16.6048 391.473 15.5728C391.473 14.5048 391.353 13.7487 391.113 13.3047C390.885 12.8487 390.501 12.6207 389.961 12.6207ZM390.069 10.8028C390.657 10.8028 391.185 10.9168 391.653 11.1448C392.133 11.3608 392.535 11.6727 392.859 12.0807C393.195 12.4887 393.453 12.9868 393.633 13.5748C393.813 14.1508 393.903 14.8048 393.903 15.5368C393.903 16.2688 393.813 16.9288 393.633 17.5168C393.453 18.1048 393.195 18.6087 392.859 19.0287C392.523 19.4367 392.109 19.7547 391.617 19.9827C391.137 20.1987 390.597 20.3067 389.997 20.3067C388.761 20.3067 387.795 19.8927 387.099 19.0647C386.415 18.2247 386.073 17.0548 386.073 15.5548C386.073 14.1028 386.421 12.9568 387.117 12.1168C387.501 11.6608 387.927 11.3308 388.395 11.1268C388.863 10.9108 389.421 10.8028 390.069 10.8028ZM397.539 7.00475C397.635 6.98075 397.689 6.96875 397.701 6.96875C397.713 6.96875 397.731 6.96875 397.755 6.96875C397.875 6.96875 397.935 7.07075 397.935 7.27475V16.6528C397.935 16.9048 397.935 17.1027 397.935 17.2467C397.935 17.3907 397.935 17.4987 397.935 17.5707C397.935 17.6427 397.935 17.6967 397.935 17.7327C397.947 17.7687 397.959 17.8047 397.971 17.8407C398.043 18.0807 398.193 18.2008 398.421 18.2008C398.517 18.2008 398.607 18.1947 398.691 18.1827C398.787 18.1587 398.895 18.1287 399.015 18.0927C399.051 18.0807 399.093 18.0747 399.141 18.0747C399.213 18.0747 399.261 18.1107 399.285 18.1827L399.645 19.6588L399.663 19.7307C399.675 19.7547 399.681 19.7787 399.681 19.8027C399.681 19.8627 399.627 19.9227 399.519 19.9827C399.411 20.0427 399.267 20.0967 399.087 20.1447C398.919 20.1927 398.727 20.2288 398.511 20.2528C398.295 20.2888 398.079 20.3067 397.863 20.3067C396.795 20.3067 396.111 19.8747 395.811 19.0107C395.775 18.9027 395.745 18.8067 395.721 18.7227C395.697 18.6267 395.679 18.5007 395.667 18.3447C395.667 18.1887 395.661 17.9967 395.649 17.7687C395.649 17.5287 395.649 17.2107 395.649 16.8147V7.67075C395.649 7.47875 395.739 7.36475 395.919 7.32875L397.539 7.00475ZM401.271 8.84075C401.271 8.70875 401.283 8.63075 401.307 8.60675C401.343 8.57075 401.427 8.54075 401.559 8.51675L403.215 8.28275H403.377C403.497 8.28275 403.557 8.37875 403.557 8.57075V11.1087H405.609C405.813 11.1087 405.915 11.1688 405.915 11.2888C405.915 11.3608 405.909 11.4147 405.897 11.4507L405.663 12.5128C405.639 12.6208 405.603 12.6927 405.555 12.7287C405.519 12.7647 405.447 12.7827 405.339 12.7827H403.557V17.1567C403.557 17.6367 403.599 17.9487 403.683 18.0927C403.767 18.2367 403.947 18.3088 404.223 18.3088C404.307 18.3088 404.385 18.3088 404.457 18.3088C404.541 18.2968 404.625 18.2787 404.709 18.2547C404.793 18.2307 404.889 18.2007 404.997 18.1647C405.105 18.1287 405.243 18.0748 405.411 18.0028C405.483 17.9788 405.537 17.9667 405.573 17.9667C405.657 17.9667 405.717 18.0267 405.753 18.1467L406.041 19.4067C406.065 19.4667 406.077 19.5087 406.077 19.5327C406.077 19.5567 406.077 19.5807 406.077 19.6047C406.077 19.7007 406.041 19.7727 405.969 19.8207C405.897 19.8687 405.747 19.9287 405.519 20.0007C404.883 20.2047 404.277 20.3067 403.701 20.3067C402.753 20.3067 402.075 20.0008 401.667 19.3888C401.511 19.1608 401.403 18.9147 401.343 18.6507C401.295 18.3747 401.271 17.9847 401.271 17.4807V12.7827H400.029C399.897 12.7827 399.813 12.7647 399.777 12.7287C399.741 12.6927 399.723 12.6087 399.723 12.4767V11.4147C399.723 11.2827 399.741 11.1987 399.777 11.1627C399.813 11.1267 399.897 11.1087 400.029 11.1087H401.271V8.84075ZM409.733 19.6947C409.733 19.8267 409.715 19.9107 409.679 19.9467C409.643 19.9827 409.559 20.0007 409.427 20.0007H407.789C407.657 20.0007 407.573 19.9827 407.537 19.9467C407.501 19.9107 407.483 19.8267 407.483 19.6947V13.6467C407.483 13.4187 407.477 13.2208 407.465 13.0528C407.453 12.8728 407.435 12.7108 407.411 12.5668C407.387 12.4228 407.351 12.2848 407.303 12.1528C407.267 12.0208 407.219 11.8707 407.159 11.7027C407.123 11.6307 407.105 11.5647 407.105 11.5047C407.105 11.4207 407.171 11.3488 407.303 11.2888L408.761 10.8028C408.809 10.7908 408.845 10.7848 408.869 10.7848C408.893 10.7728 408.917 10.7667 408.941 10.7667C409.037 10.7667 409.133 10.8868 409.229 11.1268C409.337 11.3548 409.433 11.6668 409.517 12.0628C410.021 11.6068 410.471 11.2828 410.867 11.0908C411.263 10.8988 411.707 10.8028 412.199 10.8028C413.123 10.8028 413.777 11.2228 414.161 12.0628C414.677 11.5948 415.139 11.2708 415.547 11.0908C415.967 10.8988 416.429 10.8028 416.933 10.8028C417.761 10.8028 418.337 11.1027 418.661 11.7027C418.793 11.9547 418.877 12.2248 418.913 12.5128C418.961 12.8008 418.985 13.2208 418.985 13.7728V19.6947C418.985 19.8267 418.967 19.9107 418.931 19.9467C418.895 19.9827 418.811 20.0007 418.679 20.0007H417.023C416.891 20.0007 416.807 19.9827 416.771 19.9467C416.735 19.9107 416.717 19.8267 416.717 19.6947V13.9887C416.717 13.4847 416.657 13.1307 416.537 12.9267C416.417 12.7107 416.207 12.6028 415.907 12.6028C415.667 12.6028 415.427 12.6627 415.187 12.7827C414.959 12.9027 414.683 13.1127 414.359 13.4127V19.6947C414.359 19.8267 414.341 19.9107 414.305 19.9467C414.269 19.9827 414.185 20.0007 414.053 20.0007H412.415C412.283 20.0007 412.199 19.9827 412.163 19.9467C412.127 19.9107 412.109 19.8267 412.109 19.6947V14.1688C412.109 13.5688 412.049 13.1667 411.929 12.9627C411.821 12.7467 411.605 12.6387 411.281 12.6387C411.041 12.6387 410.801 12.6987 410.561 12.8187C410.321 12.9387 410.045 13.1367 409.733 13.4127V19.6947ZM425.867 14.4927C425.843 13.7487 425.729 13.2208 425.525 12.9088C425.333 12.5968 425.009 12.4407 424.553 12.4407C424.097 12.4407 423.755 12.5968 423.527 12.9088C423.299 13.2208 423.143 13.7487 423.059 14.4927H425.867ZM423.023 16.1667C423.047 16.9467 423.215 17.5227 423.527 17.8947C423.851 18.2547 424.349 18.4347 425.021 18.4347C425.681 18.4347 426.365 18.2487 427.073 17.8767C427.157 17.8287 427.235 17.8048 427.307 17.8048C427.379 17.8048 427.445 17.8587 427.505 17.9667L427.955 19.0467C427.979 19.1067 427.991 19.1488 427.991 19.1728C428.003 19.1848 428.009 19.2087 428.009 19.2447C428.009 19.3407 427.961 19.4247 427.865 19.4967C427.769 19.5687 427.571 19.6707 427.271 19.8027C426.491 20.1387 425.663 20.3067 424.787 20.3067C423.623 20.3067 422.729 20.0127 422.105 19.4247C421.673 19.0407 421.337 18.5187 421.097 17.8587C420.869 17.1987 420.755 16.4548 420.755 15.6268C420.755 14.9068 420.845 14.2527 421.025 13.6647C421.217 13.0647 421.487 12.5547 421.835 12.1347C422.183 11.7027 422.597 11.3728 423.077 11.1448C423.557 10.9168 424.097 10.8028 424.697 10.8028C427.073 10.8028 428.261 12.4407 428.261 15.7167C428.261 15.8967 428.237 16.0167 428.189 16.0767C428.141 16.1367 428.033 16.1667 427.865 16.1667H423.023ZM432.286 15.6628C432.358 15.9748 432.424 16.2627 432.484 16.5267C432.556 16.7787 432.616 17.0307 432.664 17.2827C432.724 17.5227 432.778 17.7628 432.826 18.0028C432.874 18.2428 432.928 18.5007 432.988 18.7767C433.024 18.5847 433.054 18.4228 433.078 18.2908C433.102 18.1468 433.12 18.0208 433.132 17.9128C433.156 17.8048 433.174 17.7028 433.186 17.6068C433.21 17.5108 433.234 17.3967 433.258 17.2647C433.282 17.1087 433.306 16.9648 433.33 16.8328C433.366 16.6888 433.396 16.5568 433.42 16.4368L433.6 15.6628L434.608 11.2527C434.632 11.1447 434.656 11.0728 434.68 11.0368C434.704 11.0008 434.746 10.9828 434.806 10.9828C434.854 10.9828 434.902 10.9888 434.95 11.0008L436.534 11.1808C436.726 11.1928 436.822 11.2527 436.822 11.3607C436.822 11.3847 436.822 11.4088 436.822 11.4328C436.822 11.4448 436.81 11.4808 436.786 11.5408L434.986 18.1287C434.866 18.5127 434.764 18.9087 434.68 19.3167C434.524 19.9527 434.386 20.4747 434.266 20.8827C434.158 21.3027 434.05 21.6448 433.942 21.9088C433.846 22.1848 433.75 22.4067 433.654 22.5747C433.558 22.7427 433.444 22.9047 433.312 23.0607C432.796 23.6847 432.07 23.9967 431.134 23.9967C430.882 23.9967 430.612 23.9667 430.324 23.9067C430.036 23.8587 429.766 23.7927 429.514 23.7087C429.274 23.6247 429.07 23.5347 428.902 23.4387C428.746 23.3427 428.668 23.2467 428.668 23.1507C428.668 23.1267 428.674 23.1027 428.686 23.0787C428.686 23.0667 428.704 23.0247 428.74 22.9527L429.298 21.8007C429.334 21.7167 429.388 21.6747 429.46 21.6747C429.496 21.6747 429.544 21.6928 429.604 21.7288C430.144 21.9928 430.606 22.1248 430.99 22.1248C431.374 22.1248 431.662 22.0288 431.854 21.8368C432.058 21.6448 432.238 21.2848 432.394 20.7568L432.61 20.0007H431.854C431.734 20.0007 431.656 19.9888 431.62 19.9648C431.596 19.9408 431.56 19.8748 431.512 19.7668L428.686 11.5587C428.662 11.4987 428.65 11.4568 428.65 11.4328C428.638 11.4088 428.632 11.3847 428.632 11.3607C428.632 11.2527 428.728 11.1928 428.92 11.1808L430.756 10.9828H430.882C430.978 10.9828 431.05 11.0668 431.098 11.2348L432.286 15.6628ZM442.355 14.4927C442.331 13.7487 442.217 13.2208 442.013 12.9088C441.821 12.5968 441.497 12.4407 441.041 12.4407C440.585 12.4407 440.243 12.5968 440.015 12.9088C439.787 13.2208 439.631 13.7487 439.547 14.4927H442.355ZM439.511 16.1667C439.535 16.9467 439.703 17.5227 440.015 17.8947C440.339 18.2547 440.837 18.4347 441.509 18.4347C442.169 18.4347 442.853 18.2487 443.561 17.8767C443.645 17.8287 443.723 17.8048 443.795 17.8048C443.867 17.8048 443.933 17.8587 443.993 17.9667L444.443 19.0467C444.467 19.1067 444.479 19.1488 444.479 19.1728C444.491 19.1848 444.497 19.2087 444.497 19.2447C444.497 19.3407 444.449 19.4247 444.353 19.4967C444.257 19.5687 444.059 19.6707 443.759 19.8027C442.979 20.1387 442.151 20.3067 441.275 20.3067C440.111 20.3067 439.217 20.0127 438.593 19.4247C438.161 19.0407 437.825 18.5187 437.585 17.8587C437.357 17.1987 437.243 16.4548 437.243 15.6268C437.243 14.9068 437.333 14.2527 437.513 13.6647C437.705 13.0647 437.975 12.5547 438.323 12.1347C438.671 11.7027 439.085 11.3728 439.565 11.1448C440.045 10.9168 440.585 10.8028 441.185 10.8028C443.561 10.8028 444.749 12.4407 444.749 15.7167C444.749 15.8967 444.725 16.0167 444.677 16.0767C444.629 16.1367 444.521 16.1667 444.353 16.1667H439.511ZM447.709 10.8568C447.781 10.8328 447.823 10.8207 447.835 10.8207C447.859 10.8087 447.889 10.8028 447.925 10.8028C448.033 10.8028 448.147 10.9288 448.267 11.1808C448.399 11.4328 448.513 11.7748 448.609 12.2068C448.705 12.0988 448.783 12.0087 448.843 11.9367C448.903 11.8647 448.951 11.8047 448.987 11.7567C449.035 11.7087 449.071 11.6668 449.095 11.6308C449.131 11.5948 449.173 11.5527 449.221 11.5047C449.689 11.0367 450.235 10.8028 450.859 10.8028C451.135 10.8028 451.375 10.8448 451.579 10.9288C451.783 11.0128 451.885 11.1028 451.885 11.1988C451.885 11.2348 451.873 11.3007 451.849 11.3967L451.291 12.8548C451.255 12.9628 451.207 13.0167 451.147 13.0167C451.135 13.0167 451.093 13.0047 451.021 12.9807C450.757 12.8847 450.517 12.8368 450.301 12.8368C449.917 12.8368 449.461 13.1247 448.933 13.7007V19.6947C448.933 19.8267 448.915 19.9107 448.879 19.9467C448.843 19.9827 448.759 20.0007 448.627 20.0007H446.953C446.821 20.0007 446.737 19.9827 446.701 19.9467C446.665 19.9107 446.647 19.8267 446.647 19.6947V14.2228C446.647 13.9708 446.635 13.7428 446.611 13.5388C446.599 13.3348 446.575 13.1427 446.539 12.9627C446.503 12.7707 446.449 12.5787 446.377 12.3867C446.305 12.1827 446.215 11.9608 446.107 11.7208C446.083 11.6488 446.071 11.5947 446.071 11.5587C446.071 11.4747 446.131 11.4148 446.251 11.3788L447.709 10.8568ZM462.553 10.0467C462.505 10.1307 462.451 10.1727 462.391 10.1727C462.379 10.1727 462.367 10.1727 462.355 10.1727C462.343 10.1607 462.313 10.1487 462.265 10.1367C462.217 10.1127 462.145 10.0827 462.049 10.0467C461.965 9.99875 461.845 9.93275 461.689 9.84875C461.089 9.53675 460.489 9.38075 459.889 9.38075C459.385 9.38075 458.983 9.50075 458.683 9.74075C458.395 9.96875 458.251 10.2868 458.251 10.6948C458.251 11.1388 458.485 11.5168 458.953 11.8288C459.013 11.8648 459.073 11.9007 459.133 11.9367C459.193 11.9727 459.283 12.0207 459.403 12.0807C459.523 12.1407 459.691 12.2308 459.907 12.3508C460.135 12.4588 460.447 12.6147 460.843 12.8187C461.779 13.2747 462.451 13.7967 462.859 14.3847C463.267 14.9607 463.471 15.6687 463.471 16.5087C463.471 17.0727 463.375 17.5827 463.183 18.0387C462.991 18.4947 462.721 18.8907 462.373 19.2267C462.037 19.5507 461.629 19.8027 461.149 19.9827C460.669 20.1627 460.135 20.2528 459.547 20.2528C459.187 20.2528 458.785 20.2167 458.341 20.1447C457.909 20.0727 457.501 19.9828 457.117 19.8748C456.745 19.7668 456.427 19.6527 456.163 19.5327C455.911 19.4007 455.785 19.2808 455.785 19.1728C455.785 19.1368 455.797 19.0708 455.821 18.9748L456.415 17.4268C456.451 17.3188 456.505 17.2647 456.577 17.2647C456.613 17.2647 456.667 17.2828 456.739 17.3188C457.807 17.9068 458.725 18.2008 459.493 18.2008C460.009 18.2008 460.405 18.0748 460.681 17.8228C460.969 17.5588 461.113 17.1867 461.113 16.7067C461.113 16.5027 461.077 16.3047 461.005 16.1127C460.945 15.9087 460.855 15.7407 460.735 15.6087C460.663 15.5247 460.585 15.4468 460.501 15.3748C460.417 15.3028 460.303 15.2248 460.159 15.1408C460.015 15.0568 459.823 14.9547 459.583 14.8347C459.355 14.7147 459.055 14.5588 458.683 14.3668C458.143 14.1028 457.693 13.8448 457.333 13.5928C456.973 13.3408 456.685 13.0827 456.469 12.8187C456.253 12.5427 456.097 12.2487 456.001 11.9367C455.917 11.6247 455.875 11.2707 455.875 10.8747C455.875 9.80675 456.229 8.96075 456.937 8.33675C457.645 7.71275 458.605 7.40075 459.817 7.40075C460.177 7.40075 460.555 7.43675 460.951 7.50875C461.359 7.58075 461.731 7.67675 462.067 7.79675C462.415 7.90475 462.697 8.02475 462.913 8.15675C463.141 8.28875 463.255 8.41475 463.255 8.53475C463.255 8.55875 463.249 8.57675 463.237 8.58875C463.237 8.58875 463.225 8.61875 463.201 8.67875L462.553 10.0467ZM469.886 7.29275C470.222 7.29275 470.51 7.41275 470.75 7.65275C470.99 7.89275 471.11 8.18675 471.11 8.53475C471.11 8.88275 470.99 9.17675 470.75 9.41675C470.51 9.65675 470.216 9.77675 469.868 9.77675C469.52 9.77675 469.226 9.65675 468.986 9.41675C468.746 9.17675 468.626 8.88275 468.626 8.53475C468.626 8.18675 468.746 7.89275 468.986 7.65275C469.238 7.41275 469.538 7.29275 469.886 7.29275ZM466.7 7.29275C467.036 7.29275 467.324 7.41275 467.564 7.65275C467.804 7.89275 467.924 8.18675 467.924 8.53475C467.924 8.88275 467.804 9.17675 467.564 9.41675C467.324 9.65675 467.03 9.77675 466.682 9.77675C466.334 9.77675 466.04 9.65675 465.8 9.41675C465.56 9.17675 465.44 8.88275 465.44 8.53475C465.44 8.18675 465.56 7.89275 465.8 7.65275C466.052 7.41275 466.352 7.29275 466.7 7.29275ZM469.328 15.9688C468.428 15.9688 467.78 16.0767 467.384 16.2927C467 16.5087 466.808 16.8808 466.808 17.4088C466.808 17.7568 466.916 18.0508 467.132 18.2908C467.36 18.5308 467.636 18.6507 467.96 18.6507C468.44 18.6507 468.896 18.4167 469.328 17.9487V15.9688ZM469.328 13.9168C469.328 13.4008 469.244 13.0468 469.076 12.8548C468.908 12.6628 468.596 12.5668 468.14 12.5668C467.6 12.5668 466.928 12.7228 466.124 13.0348C466.052 13.0708 465.986 13.0888 465.926 13.0888C465.842 13.0888 465.782 13.0288 465.746 12.9088L465.368 11.8288C465.344 11.7568 465.332 11.6908 465.332 11.6308C465.332 11.5348 465.422 11.4388 465.602 11.3428C465.794 11.2468 466.034 11.1567 466.322 11.0727C466.622 10.9887 466.952 10.9227 467.312 10.8747C467.684 10.8267 468.05 10.8028 468.41 10.8028C469.862 10.8028 470.798 11.2647 471.218 12.1887C471.314 12.3807 471.38 12.5907 471.416 12.8187C471.452 13.0467 471.47 13.3348 471.47 13.6828V17.3547C471.47 17.7507 471.5 18.0988 471.56 18.3988C471.62 18.6868 471.728 18.9867 471.884 19.2987C471.92 19.3707 471.938 19.4367 471.938 19.4967C471.938 19.5807 471.89 19.6408 471.794 19.6768L470.39 20.2347C470.33 20.2707 470.258 20.2887 470.174 20.2887C470.006 20.2887 469.826 19.9347 469.634 19.2267C469.274 19.5987 468.914 19.8627 468.554 20.0187C468.206 20.1747 467.798 20.2528 467.33 20.2528C466.502 20.2528 465.842 20.0067 465.35 19.5147C464.87 19.0227 464.63 18.3627 464.63 17.5347C464.63 15.9388 465.524 14.9727 467.312 14.6367C467.552 14.5767 467.822 14.5407 468.122 14.5287C468.422 14.5047 468.824 14.4868 469.328 14.4748V13.9168ZM478.354 13.2147C478.102 13.0227 477.88 12.8907 477.688 12.8187C477.496 12.7347 477.292 12.6928 477.076 12.6928C476.596 12.6928 476.23 12.9268 475.978 13.3948C475.726 13.8628 475.6 14.5408 475.6 15.4288C475.6 16.2928 475.714 16.9528 475.942 17.4088C476.17 17.8528 476.5 18.0747 476.932 18.0747C477.484 18.0747 477.958 17.8707 478.354 17.4627V13.2147ZM474.034 21.3507C474.07 21.2307 474.136 21.1707 474.232 21.1707C474.28 21.1707 474.334 21.1888 474.394 21.2248C475.366 21.6688 476.254 21.8907 477.058 21.8907C477.562 21.8907 477.916 21.7767 478.12 21.5487C478.336 21.3207 478.444 20.9367 478.444 20.3967C478.444 20.2527 478.432 20.0847 478.408 19.8927C478.396 19.6887 478.378 19.4667 478.354 19.2267C478.018 19.4667 477.682 19.6407 477.346 19.7487C477.01 19.8447 476.65 19.8927 476.266 19.8927C475.354 19.8927 474.634 19.5027 474.106 18.7227C473.578 17.9307 473.314 16.8627 473.314 15.5187C473.314 14.7987 473.392 14.1508 473.548 13.5748C473.704 12.9868 473.92 12.4887 474.196 12.0807C474.484 11.6727 474.832 11.3608 475.24 11.1448C475.648 10.9168 476.104 10.8028 476.608 10.8028C477.028 10.8028 477.388 10.8628 477.688 10.9828C477.988 11.1028 478.318 11.3188 478.678 11.6308C478.786 11.3668 478.9 11.1568 479.02 11.0008C479.14 10.8328 479.236 10.7488 479.308 10.7488C479.38 10.7488 479.44 10.7608 479.488 10.7848L480.91 11.2888C481.018 11.3488 481.072 11.4088 481.072 11.4688C481.072 11.4928 481.066 11.5227 481.054 11.5587C481.054 11.5827 481.024 11.6607 480.964 11.7927C480.82 12.1287 480.718 12.4527 480.658 12.7648C480.598 13.0648 480.568 13.4188 480.568 13.8268V16.4907C480.568 17.4747 480.586 18.4527 480.622 19.4247C480.634 19.6647 480.64 19.8808 480.64 20.0728C480.652 20.2768 480.658 20.4388 480.658 20.5588C480.658 21.5908 480.364 22.3827 479.776 22.9347C479.2 23.4867 478.366 23.7627 477.274 23.7627C476.89 23.7627 476.482 23.7267 476.05 23.6547C475.63 23.5947 475.24 23.5167 474.88 23.4207C474.52 23.3247 474.22 23.2168 473.98 23.0968C473.74 22.9888 473.62 22.8807 473.62 22.7727C473.62 22.7247 473.632 22.6647 473.656 22.5927L474.034 21.3507ZM487.32 14.4927C487.296 13.7487 487.182 13.2208 486.978 12.9088C486.786 12.5968 486.462 12.4407 486.006 12.4407C485.55 12.4407 485.208 12.5968 484.98 12.9088C484.752 13.2208 484.596 13.7487 484.512 14.4927H487.32ZM484.476 16.1667C484.5 16.9467 484.668 17.5227 484.98 17.8947C485.304 18.2547 485.802 18.4347 486.474 18.4347C487.134 18.4347 487.818 18.2487 488.526 17.8767C488.61 17.8287 488.688 17.8048 488.76 17.8048C488.832 17.8048 488.898 17.8587 488.958 17.9667L489.408 19.0467C489.432 19.1067 489.444 19.1488 489.444 19.1728C489.456 19.1848 489.462 19.2087 489.462 19.2447C489.462 19.3407 489.414 19.4247 489.318 19.4967C489.222 19.5687 489.024 19.6707 488.724 19.8027C487.944 20.1387 487.116 20.3067 486.24 20.3067C485.076 20.3067 484.182 20.0127 483.558 19.4247C483.126 19.0407 482.79 18.5187 482.55 17.8587C482.322 17.1987 482.208 16.4548 482.208 15.6268C482.208 14.9068 482.298 14.2527 482.478 13.6647C482.67 13.0647 482.94 12.5547 483.288 12.1347C483.636 11.7027 484.05 11.3728 484.53 11.1448C485.01 10.9168 485.55 10.8028 486.15 10.8028C488.526 10.8028 489.714 12.4407 489.714 15.7167C489.714 15.8967 489.69 16.0167 489.642 16.0767C489.594 16.1367 489.486 16.1667 489.318 16.1667H484.476ZM496.117 13.2868C496.081 13.5388 496.051 13.7488 496.027 13.9168C496.003 14.0728 495.979 14.2228 495.955 14.3668C495.931 14.5108 495.907 14.6548 495.883 14.7988C495.859 14.9428 495.829 15.1107 495.793 15.3027L494.731 19.8748C494.707 20.0068 494.677 20.0847 494.641 20.1087C494.605 20.1327 494.527 20.1447 494.407 20.1447H492.931C492.799 20.1447 492.715 20.1327 492.679 20.1087C492.655 20.0847 492.631 20.0068 492.607 19.8748L490.429 11.5947C490.405 11.5107 490.393 11.4627 490.393 11.4507C490.393 11.4387 490.393 11.4207 490.393 11.3967C490.393 11.3127 490.483 11.2527 490.663 11.2167L492.247 10.9828C492.259 10.9708 492.277 10.9647 492.301 10.9647C492.337 10.9647 492.367 10.9647 492.391 10.9647C492.487 10.9647 492.559 11.0487 492.607 11.2167L493.453 15.3568C493.477 15.4648 493.501 15.5908 493.525 15.7348C493.549 15.8788 493.573 16.0587 493.597 16.2747C493.633 16.4907 493.669 16.7547 493.705 17.0667C493.741 17.3667 493.783 17.7387 493.831 18.1827C493.891 17.5707 493.945 17.0487 493.993 16.6167C494.053 16.1727 494.107 15.8307 494.155 15.5907L495.055 11.3788C495.079 11.2468 495.103 11.1688 495.127 11.1448C495.163 11.1208 495.247 11.1087 495.379 11.1087H496.999C497.119 11.1087 497.197 11.1267 497.233 11.1627C497.269 11.1867 497.299 11.2588 497.323 11.3788L498.133 15.4288C498.157 15.5368 498.181 15.6987 498.205 15.9147C498.241 16.1187 498.277 16.3527 498.313 16.6167C498.349 16.8687 498.379 17.1328 498.403 17.4088C498.439 17.6848 498.469 17.9427 498.493 18.1827C498.541 17.7387 498.583 17.3607 498.619 17.0487C498.655 16.7367 498.685 16.4668 498.709 16.2388C498.745 15.9988 498.775 15.8008 498.799 15.6448C498.823 15.4768 498.853 15.3267 498.889 15.1947L499.807 11.2167C499.855 11.0487 499.921 10.9647 500.005 10.9647C500.029 10.9647 500.059 10.9647 500.095 10.9647C500.131 10.9647 500.155 10.9708 500.167 10.9828L501.643 11.2167C501.823 11.2527 501.913 11.3187 501.913 11.4147C501.913 11.4387 501.907 11.4568 501.895 11.4688C501.895 11.4808 501.883 11.5227 501.859 11.5947L499.375 19.8927C499.339 20.0127 499.303 20.0847 499.267 20.1087C499.243 20.1327 499.165 20.1447 499.033 20.1447H497.539C497.407 20.1447 497.323 20.1267 497.287 20.0907C497.263 20.0667 497.239 19.9888 497.215 19.8568L496.369 15.3027C496.357 15.2547 496.345 15.2128 496.333 15.1768C496.333 15.1288 496.327 15.0747 496.315 15.0147C496.303 14.9547 496.291 14.8767 496.279 14.7807C496.267 14.6847 496.255 14.5527 496.243 14.3847L496.171 13.7188L496.117 13.2868ZM507.57 14.4927C507.546 13.7487 507.432 13.2208 507.228 12.9088C507.036 12.5968 506.712 12.4407 506.256 12.4407C505.8 12.4407 505.458 12.5968 505.23 12.9088C505.002 13.2208 504.846 13.7487 504.762 14.4927H507.57ZM504.726 16.1667C504.75 16.9467 504.918 17.5227 505.23 17.8947C505.554 18.2547 506.052 18.4347 506.724 18.4347C507.384 18.4347 508.068 18.2487 508.776 17.8767C508.86 17.8287 508.938 17.8048 509.01 17.8048C509.082 17.8048 509.148 17.8587 509.208 17.9667L509.658 19.0467C509.682 19.1067 509.694 19.1488 509.694 19.1728C509.706 19.1848 509.712 19.2087 509.712 19.2447C509.712 19.3407 509.664 19.4247 509.568 19.4967C509.472 19.5687 509.274 19.6707 508.974 19.8027C508.194 20.1387 507.366 20.3067 506.49 20.3067C505.326 20.3067 504.432 20.0127 503.808 19.4247C503.376 19.0407 503.04 18.5187 502.8 17.8587C502.572 17.1987 502.458 16.4548 502.458 15.6268C502.458 14.9068 502.548 14.2527 502.728 13.6647C502.92 13.0647 503.19 12.5547 503.538 12.1347C503.886 11.7027 504.3 11.3728 504.78 11.1448C505.26 10.9168 505.8 10.8028 506.4 10.8028C508.776 10.8028 509.964 12.4407 509.964 15.7167C509.964 15.8967 509.94 16.0167 509.892 16.0767C509.844 16.1367 509.736 16.1667 509.568 16.1667H504.726ZM512.924 10.8568C512.996 10.8328 513.038 10.8207 513.05 10.8207C513.074 10.8087 513.104 10.8028 513.14 10.8028C513.248 10.8028 513.362 10.9288 513.482 11.1808C513.614 11.4328 513.728 11.7748 513.824 12.2068C513.92 12.0988 513.998 12.0087 514.058 11.9367C514.118 11.8647 514.166 11.8047 514.202 11.7567C514.25 11.7087 514.286 11.6668 514.31 11.6308C514.346 11.5948 514.388 11.5527 514.436 11.5047C514.904 11.0367 515.45 10.8028 516.074 10.8028C516.35 10.8028 516.59 10.8448 516.794 10.9288C516.998 11.0128 517.1 11.1028 517.1 11.1988C517.1 11.2348 517.088 11.3007 517.064 11.3967L516.506 12.8548C516.47 12.9628 516.422 13.0167 516.362 13.0167C516.35 13.0167 516.308 13.0047 516.236 12.9807C515.972 12.8847 515.732 12.8368 515.516 12.8368C515.132 12.8368 514.676 13.1247 514.148 13.7007V19.6947C514.148 19.8267 514.13 19.9107 514.094 19.9467C514.058 19.9827 513.974 20.0007 513.842 20.0007H512.168C512.036 20.0007 511.952 19.9827 511.916 19.9467C511.88 19.9107 511.862 19.8267 511.862 19.6947V14.2228C511.862 13.9708 511.85 13.7428 511.826 13.5388C511.814 13.3348 511.79 13.1427 511.754 12.9627C511.718 12.7707 511.664 12.5787 511.592 12.3867C511.52 12.1827 511.43 11.9608 511.322 11.7208C511.298 11.6488 511.286 11.5947 511.286 11.5587C511.286 11.4747 511.346 11.4148 511.466 11.3788L512.924 10.8568ZM524.022 10.9828C524.094 10.9108 524.136 10.8688 524.148 10.8568C524.172 10.8448 524.202 10.8388 524.238 10.8388C524.274 10.8388 524.298 10.8448 524.31 10.8568C524.334 10.8688 524.382 10.9047 524.454 10.9647L525.426 11.7387C525.522 11.8107 525.57 11.8828 525.57 11.9548C525.57 12.0148 525.528 12.0868 525.444 12.1708L522.492 15.0147L525.804 19.0107C525.876 19.0827 525.912 19.1547 525.912 19.2267C525.912 19.2987 525.852 19.3707 525.732 19.4427L524.31 20.2347C524.25 20.2707 524.208 20.2887 524.184 20.2887C524.172 20.3007 524.154 20.3067 524.13 20.3067C524.046 20.3067 523.968 20.2527 523.896 20.1447L520.53 15.8248V19.6947C520.53 19.8267 520.512 19.9107 520.476 19.9467C520.44 19.9827 520.356 20.0007 520.224 20.0007H518.55C518.418 20.0007 518.334 19.9827 518.298 19.9467C518.262 19.9107 518.244 19.8267 518.244 19.6947V7.65275C518.244 7.53275 518.256 7.45475 518.28 7.41875C518.304 7.38275 518.382 7.35275 518.514 7.32875L520.188 6.98675L520.35 6.96875C520.47 6.96875 520.53 7.07075 520.53 7.27475V14.4927L524.022 10.9828Z" fill="black"/>
<path d="M641.383 12.6928V8.03075C641.383 7.86275 641.401 7.76075 641.437 7.72475C641.485 7.67675 641.587 7.65275 641.743 7.65275H643.471C643.639 7.65275 643.741 7.67675 643.777 7.72475C643.825 7.76075 643.849 7.86275 643.849 8.03075V19.6227C643.849 19.7907 643.825 19.8987 643.777 19.9467C643.741 19.9827 643.639 20.0007 643.471 20.0007H641.743C641.575 20.0007 641.473 19.9827 641.437 19.9467C641.401 19.8987 641.383 19.7907 641.383 19.6227V14.5287H638.017V19.6227C638.017 19.7907 637.993 19.8987 637.945 19.9467C637.909 19.9827 637.807 20.0007 637.639 20.0007H635.929C635.761 20.0007 635.653 19.9827 635.605 19.9467C635.569 19.8987 635.551 19.7907 635.551 19.6227V8.03075C635.551 7.86275 635.569 7.76075 635.605 7.72475C635.653 7.67675 635.761 7.65275 635.929 7.65275H637.639C637.807 7.65275 637.909 7.67675 637.945 7.72475C637.993 7.76075 638.017 7.86275 638.017 8.03075V12.6928H641.383ZM649.84 12.6207C649.324 12.6207 648.952 12.8487 648.724 13.3047C648.496 13.7607 648.382 14.5108 648.382 15.5548C648.382 16.5988 648.496 17.3488 648.724 17.8048C648.952 18.2608 649.33 18.4888 649.858 18.4888C650.398 18.4888 650.782 18.2608 651.01 17.8048C651.238 17.3488 651.352 16.6048 651.352 15.5728C651.352 14.5048 651.232 13.7487 650.992 13.3047C650.764 12.8487 650.38 12.6207 649.84 12.6207ZM649.948 10.8028C650.536 10.8028 651.064 10.9168 651.532 11.1448C652.012 11.3608 652.414 11.6727 652.738 12.0807C653.074 12.4887 653.332 12.9868 653.512 13.5748C653.692 14.1508 653.782 14.8048 653.782 15.5368C653.782 16.2688 653.692 16.9288 653.512 17.5168C653.332 18.1048 653.074 18.6087 652.738 19.0287C652.402 19.4367 651.988 19.7547 651.496 19.9827C651.016 20.1987 650.476 20.3067 649.876 20.3067C648.64 20.3067 647.674 19.8927 646.978 19.0647C646.294 18.2247 645.952 17.0548 645.952 15.5548C645.952 14.1028 646.3 12.9568 646.996 12.1168C647.38 11.6608 647.806 11.3308 648.274 11.1268C648.742 10.9108 649.3 10.8028 649.948 10.8028ZM657.418 7.00475C657.514 6.98075 657.568 6.96875 657.58 6.96875C657.592 6.96875 657.61 6.96875 657.634 6.96875C657.754 6.96875 657.814 7.07075 657.814 7.27475V16.6528C657.814 16.9048 657.814 17.1027 657.814 17.2467C657.814 17.3907 657.814 17.4987 657.814 17.5707C657.814 17.6427 657.814 17.6967 657.814 17.7327C657.826 17.7687 657.838 17.8047 657.85 17.8407C657.922 18.0807 658.072 18.2008 658.3 18.2008C658.396 18.2008 658.486 18.1947 658.57 18.1827C658.666 18.1587 658.774 18.1287 658.894 18.0927C658.93 18.0807 658.972 18.0747 659.02 18.0747C659.092 18.0747 659.14 18.1107 659.164 18.1827L659.524 19.6588L659.542 19.7307C659.554 19.7547 659.56 19.7787 659.56 19.8027C659.56 19.8627 659.506 19.9227 659.398 19.9827C659.29 20.0427 659.146 20.0967 658.966 20.1447C658.798 20.1927 658.606 20.2288 658.39 20.2528C658.174 20.2888 657.958 20.3067 657.742 20.3067C656.674 20.3067 655.99 19.8747 655.69 19.0107C655.654 18.9027 655.624 18.8067 655.6 18.7227C655.576 18.6267 655.558 18.5007 655.546 18.3447C655.546 18.1887 655.54 17.9967 655.528 17.7687C655.528 17.5287 655.528 17.2107 655.528 16.8147V7.67075C655.528 7.47875 655.618 7.36475 655.798 7.32875L657.418 7.00475ZM661.15 8.84075C661.15 8.70875 661.162 8.63075 661.186 8.60675C661.222 8.57075 661.306 8.54075 661.438 8.51675L663.094 8.28275H663.256C663.376 8.28275 663.436 8.37875 663.436 8.57075V11.1087H665.488C665.692 11.1087 665.794 11.1688 665.794 11.2888C665.794 11.3608 665.788 11.4147 665.776 11.4507L665.542 12.5128C665.518 12.6208 665.482 12.6927 665.434 12.7287C665.398 12.7647 665.326 12.7827 665.218 12.7827H663.436V17.1567C663.436 17.6367 663.478 17.9487 663.562 18.0927C663.646 18.2367 663.826 18.3088 664.102 18.3088C664.186 18.3088 664.264 18.3088 664.336 18.3088C664.42 18.2968 664.504 18.2787 664.588 18.2547C664.672 18.2307 664.768 18.2007 664.876 18.1647C664.984 18.1287 665.122 18.0748 665.29 18.0028C665.362 17.9788 665.416 17.9667 665.452 17.9667C665.536 17.9667 665.596 18.0267 665.632 18.1467L665.92 19.4067C665.944 19.4667 665.956 19.5087 665.956 19.5327C665.956 19.5567 665.956 19.5807 665.956 19.6047C665.956 19.7007 665.92 19.7727 665.848 19.8207C665.776 19.8687 665.626 19.9287 665.398 20.0007C664.762 20.2047 664.156 20.3067 663.58 20.3067C662.632 20.3067 661.954 20.0008 661.546 19.3888C661.39 19.1608 661.282 18.9147 661.222 18.6507C661.174 18.3747 661.15 17.9847 661.15 17.4807V12.7827H659.908C659.776 12.7827 659.692 12.7647 659.656 12.7287C659.62 12.6927 659.602 12.6087 659.602 12.4767V11.4147C659.602 11.2827 659.62 11.1987 659.656 11.1627C659.692 11.1267 659.776 11.1087 659.908 11.1087H661.15V8.84075ZM669.612 19.6947C669.612 19.8267 669.594 19.9107 669.558 19.9467C669.522 19.9827 669.438 20.0007 669.306 20.0007H667.668C667.536 20.0007 667.452 19.9827 667.416 19.9467C667.38 19.9107 667.362 19.8267 667.362 19.6947V13.6467C667.362 13.4187 667.356 13.2208 667.344 13.0528C667.332 12.8728 667.314 12.7108 667.29 12.5668C667.266 12.4228 667.23 12.2848 667.182 12.1528C667.146 12.0208 667.098 11.8707 667.038 11.7027C667.002 11.6307 666.984 11.5647 666.984 11.5047C666.984 11.4207 667.05 11.3488 667.182 11.2888L668.64 10.8028C668.688 10.7908 668.724 10.7848 668.748 10.7848C668.772 10.7728 668.796 10.7667 668.82 10.7667C668.916 10.7667 669.012 10.8868 669.108 11.1268C669.216 11.3548 669.312 11.6668 669.396 12.0628C669.9 11.6068 670.35 11.2828 670.746 11.0908C671.142 10.8988 671.586 10.8028 672.078 10.8028C673.002 10.8028 673.656 11.2228 674.04 12.0628C674.556 11.5948 675.018 11.2708 675.426 11.0908C675.846 10.8988 676.308 10.8028 676.812 10.8028C677.64 10.8028 678.216 11.1027 678.54 11.7027C678.672 11.9547 678.756 12.2248 678.792 12.5128C678.84 12.8008 678.864 13.2208 678.864 13.7728V19.6947C678.864 19.8267 678.846 19.9107 678.81 19.9467C678.774 19.9827 678.69 20.0007 678.558 20.0007H676.902C676.77 20.0007 676.686 19.9827 676.65 19.9467C676.614 19.9107 676.596 19.8267 676.596 19.6947V13.9887C676.596 13.4847 676.536 13.1307 676.416 12.9267C676.296 12.7107 676.086 12.6028 675.786 12.6028C675.546 12.6028 675.306 12.6627 675.066 12.7827C674.838 12.9027 674.562 13.1127 674.238 13.4127V19.6947C674.238 19.8267 674.22 19.9107 674.184 19.9467C674.148 19.9827 674.064 20.0007 673.932 20.0007H672.294C672.162 20.0007 672.078 19.9827 672.042 19.9467C672.006 19.9107 671.988 19.8267 671.988 19.6947V14.1688C671.988 13.5688 671.928 13.1667 671.808 12.9627C671.7 12.7467 671.484 12.6387 671.16 12.6387C670.92 12.6387 670.68 12.6987 670.44 12.8187C670.2 12.9387 669.924 13.1367 669.612 13.4127V19.6947ZM685.746 14.4927C685.722 13.7487 685.608 13.2208 685.404 12.9088C685.212 12.5968 684.888 12.4407 684.432 12.4407C683.976 12.4407 683.634 12.5968 683.406 12.9088C683.178 13.2208 683.022 13.7487 682.938 14.4927H685.746ZM682.902 16.1667C682.926 16.9467 683.094 17.5227 683.406 17.8947C683.73 18.2547 684.228 18.4347 684.9 18.4347C685.56 18.4347 686.244 18.2487 686.952 17.8767C687.036 17.8287 687.114 17.8048 687.186 17.8048C687.258 17.8048 687.324 17.8587 687.384 17.9667L687.834 19.0467C687.858 19.1067 687.87 19.1488 687.87 19.1728C687.882 19.1848 687.888 19.2087 687.888 19.2447C687.888 19.3407 687.84 19.4247 687.744 19.4967C687.648 19.5687 687.45 19.6707 687.15 19.8027C686.37 20.1387 685.542 20.3067 684.666 20.3067C683.502 20.3067 682.608 20.0127 681.984 19.4247C681.552 19.0407 681.216 18.5187 680.976 17.8587C680.748 17.1987 680.634 16.4548 680.634 15.6268C680.634 14.9068 680.724 14.2527 680.904 13.6647C681.096 13.0647 681.366 12.5547 681.714 12.1347C682.062 11.7027 682.476 11.3728 682.956 11.1448C683.436 10.9168 683.976 10.8028 684.576 10.8028C686.952 10.8028 688.14 12.4407 688.14 15.7167C688.14 15.8967 688.116 16.0167 688.068 16.0767C688.02 16.1367 687.912 16.1667 687.744 16.1667H682.902ZM692.165 15.6628C692.237 15.9748 692.303 16.2627 692.363 16.5267C692.435 16.7787 692.495 17.0307 692.543 17.2827C692.603 17.5227 692.657 17.7628 692.705 18.0028C692.753 18.2428 692.807 18.5007 692.867 18.7767C692.903 18.5847 692.933 18.4228 692.957 18.2908C692.981 18.1468 692.999 18.0208 693.011 17.9128C693.035 17.8048 693.053 17.7028 693.065 17.6068C693.089 17.5108 693.113 17.3967 693.137 17.2647C693.161 17.1087 693.185 16.9648 693.209 16.8328C693.245 16.6888 693.275 16.5568 693.299 16.4368L693.479 15.6628L694.487 11.2527C694.511 11.1447 694.535 11.0728 694.559 11.0368C694.583 11.0008 694.625 10.9828 694.685 10.9828C694.733 10.9828 694.781 10.9888 694.829 11.0008L696.413 11.1808C696.605 11.1928 696.701 11.2527 696.701 11.3607C696.701 11.3847 696.701 11.4088 696.701 11.4328C696.701 11.4448 696.689 11.4808 696.665 11.5408L694.865 18.1287C694.745 18.5127 694.643 18.9087 694.559 19.3167C694.403 19.9527 694.265 20.4747 694.145 20.8827C694.037 21.3027 693.929 21.6448 693.821 21.9088C693.725 22.1848 693.629 22.4067 693.533 22.5747C693.437 22.7427 693.323 22.9047 693.191 23.0607C692.675 23.6847 691.949 23.9967 691.013 23.9967C690.761 23.9967 690.491 23.9667 690.203 23.9067C689.915 23.8587 689.645 23.7927 689.393 23.7087C689.153 23.6247 688.949 23.5347 688.781 23.4387C688.625 23.3427 688.547 23.2467 688.547 23.1507C688.547 23.1267 688.553 23.1027 688.565 23.0787C688.565 23.0667 688.583 23.0247 688.619 22.9527L689.177 21.8007C689.213 21.7167 689.267 21.6747 689.339 21.6747C689.375 21.6747 689.423 21.6928 689.483 21.7288C690.023 21.9928 690.485 22.1248 690.869 22.1248C691.253 22.1248 691.541 22.0288 691.733 21.8368C691.937 21.6448 692.117 21.2848 692.273 20.7568L692.489 20.0007H691.733C691.613 20.0007 691.535 19.9888 691.499 19.9648C691.475 19.9408 691.439 19.8748 691.391 19.7668L688.565 11.5587C688.541 11.4987 688.529 11.4568 688.529 11.4328C688.517 11.4088 688.511 11.3847 688.511 11.3607C688.511 11.2527 688.607 11.1928 688.799 11.1808L690.635 10.9828H690.761C690.857 10.9828 690.929 11.0668 690.977 11.2348L692.165 15.6628ZM702.234 14.4927C702.21 13.7487 702.096 13.2208 701.892 12.9088C701.7 12.5968 701.376 12.4407 700.92 12.4407C700.464 12.4407 700.122 12.5968 699.894 12.9088C699.666 13.2208 699.51 13.7487 699.426 14.4927H702.234ZM699.39 16.1667C699.414 16.9467 699.582 17.5227 699.894 17.8947C700.218 18.2547 700.716 18.4347 701.388 18.4347C702.048 18.4347 702.732 18.2487 703.44 17.8767C703.524 17.8287 703.602 17.8048 703.674 17.8048C703.746 17.8048 703.812 17.8587 703.872 17.9667L704.322 19.0467C704.346 19.1067 704.358 19.1488 704.358 19.1728C704.37 19.1848 704.376 19.2087 704.376 19.2447C704.376 19.3407 704.328 19.4247 704.232 19.4967C704.136 19.5687 703.938 19.6707 703.638 19.8027C702.858 20.1387 702.03 20.3067 701.154 20.3067C699.99 20.3067 699.096 20.0127 698.472 19.4247C698.04 19.0407 697.704 18.5187 697.464 17.8587C697.236 17.1987 697.122 16.4548 697.122 15.6268C697.122 14.9068 697.212 14.2527 697.392 13.6647C697.584 13.0647 697.854 12.5547 698.202 12.1347C698.55 11.7027 698.964 11.3728 699.444 11.1448C699.924 10.9168 700.464 10.8028 701.064 10.8028C703.44 10.8028 704.628 12.4407 704.628 15.7167C704.628 15.8967 704.604 16.0167 704.556 16.0767C704.508 16.1367 704.4 16.1667 704.232 16.1667H699.39ZM707.588 10.8568C707.66 10.8328 707.702 10.8207 707.714 10.8207C707.738 10.8087 707.768 10.8028 707.804 10.8028C707.912 10.8028 708.026 10.9288 708.146 11.1808C708.278 11.4328 708.392 11.7748 708.488 12.2068C708.584 12.0988 708.662 12.0087 708.722 11.9367C708.782 11.8647 708.83 11.8047 708.866 11.7567C708.914 11.7087 708.95 11.6668 708.974 11.6308C709.01 11.5948 709.052 11.5527 709.1 11.5047C709.568 11.0367 710.114 10.8028 710.738 10.8028C711.014 10.8028 711.254 10.8448 711.458 10.9288C711.662 11.0128 711.764 11.1028 711.764 11.1988C711.764 11.2348 711.752 11.3007 711.728 11.3967L711.17 12.8548C711.134 12.9628 711.086 13.0167 711.026 13.0167C711.014 13.0167 710.972 13.0047 710.9 12.9807C710.636 12.8847 710.396 12.8368 710.18 12.8368C709.796 12.8368 709.34 13.1247 708.812 13.7007V19.6947C708.812 19.8267 708.794 19.9107 708.758 19.9467C708.722 19.9827 708.638 20.0007 708.506 20.0007H706.832C706.7 20.0007 706.616 19.9827 706.58 19.9467C706.544 19.9107 706.526 19.8267 706.526 19.6947V14.2228C706.526 13.9708 706.514 13.7428 706.49 13.5388C706.478 13.3348 706.454 13.1427 706.418 12.9627C706.382 12.7707 706.328 12.5787 706.256 12.3867C706.184 12.1827 706.094 11.9608 705.986 11.7208C705.962 11.6488 705.95 11.5947 705.95 11.5587C705.95 11.4747 706.01 11.4148 706.13 11.3788L707.588 10.8568ZM719.731 13.0348C720.523 13.0348 721.075 12.8967 721.387 12.6207C721.711 12.3447 721.873 11.8648 721.873 11.1808C721.873 10.5448 721.729 10.1068 721.441 9.86675C721.165 9.61475 720.661 9.48875 719.929 9.48875H719.227V13.0348H719.731ZM719.227 19.6227C719.227 19.7907 719.203 19.8987 719.155 19.9467C719.119 19.9827 719.017 20.0007 718.849 20.0007H717.139C716.971 20.0007 716.863 19.9827 716.815 19.9467C716.779 19.8987 716.761 19.7907 716.761 19.6227V8.03075C716.761 7.86275 716.779 7.76075 716.815 7.72475C716.863 7.67675 716.971 7.65275 717.139 7.65275H720.055C720.775 7.65275 721.351 7.69475 721.783 7.77875C722.215 7.85075 722.581 7.97675 722.881 8.15675C723.301 8.42075 723.631 8.80475 723.871 9.30875C724.123 9.81275 724.249 10.3888 724.249 11.0368C724.249 11.6488 724.153 12.2008 723.961 12.6928C723.769 13.1848 723.493 13.6108 723.133 13.9708C722.773 14.3188 722.341 14.5887 721.837 14.7807C721.333 14.9727 720.769 15.0688 720.145 15.0688H719.227V19.6227ZM730.043 14.4927C730.019 13.7487 729.905 13.2208 729.701 12.9088C729.509 12.5968 729.185 12.4407 728.729 12.4407C728.273 12.4407 727.931 12.5968 727.703 12.9088C727.475 13.2208 727.319 13.7487 727.235 14.4927H730.043ZM727.199 16.1667C727.223 16.9467 727.391 17.5227 727.703 17.8947C728.027 18.2547 728.525 18.4347 729.197 18.4347C729.857 18.4347 730.541 18.2487 731.249 17.8767C731.333 17.8287 731.411 17.8048 731.483 17.8048C731.555 17.8048 731.621 17.8587 731.681 17.9667L732.131 19.0467C732.155 19.1067 732.167 19.1488 732.167 19.1728C732.179 19.1848 732.185 19.2087 732.185 19.2447C732.185 19.3407 732.137 19.4247 732.041 19.4967C731.945 19.5687 731.747 19.6707 731.447 19.8027C730.667 20.1387 729.839 20.3067 728.963 20.3067C727.799 20.3067 726.905 20.0127 726.281 19.4247C725.849 19.0407 725.513 18.5187 725.273 17.8587C725.045 17.1987 724.931 16.4548 724.931 15.6268C724.931 14.9068 725.021 14.2527 725.201 13.6647C725.393 13.0647 725.663 12.5547 726.011 12.1347C726.359 11.7027 726.773 11.3728 727.253 11.1448C727.733 10.9168 728.273 10.8028 728.873 10.8028C731.249 10.8028 732.437 12.4407 732.437 15.7167C732.437 15.8967 732.413 16.0167 732.365 16.0767C732.317 16.1367 732.209 16.1667 732.041 16.1667H727.199ZM736.063 7.00475C736.159 6.98075 736.213 6.96875 736.225 6.96875C736.237 6.96875 736.255 6.96875 736.279 6.96875C736.399 6.96875 736.459 7.07075 736.459 7.27475V16.6528C736.459 16.9048 736.459 17.1027 736.459 17.2467C736.459 17.3907 736.459 17.4987 736.459 17.5707C736.459 17.6427 736.459 17.6967 736.459 17.7327C736.471 17.7687 736.483 17.8047 736.495 17.8407C736.567 18.0807 736.717 18.2008 736.945 18.2008C737.041 18.2008 737.131 18.1947 737.215 18.1827C737.311 18.1587 737.419 18.1287 737.539 18.0927C737.575 18.0807 737.617 18.0747 737.665 18.0747C737.737 18.0747 737.785 18.1107 737.809 18.1827L738.169 19.6588L738.187 19.7307C738.199 19.7547 738.205 19.7787 738.205 19.8027C738.205 19.8627 738.151 19.9227 738.043 19.9827C737.935 20.0427 737.791 20.0967 737.611 20.1447C737.443 20.1927 737.251 20.2288 737.035 20.2528C736.819 20.2888 736.603 20.3067 736.387 20.3067C735.319 20.3067 734.635 19.8747 734.335 19.0107C734.299 18.9027 734.269 18.8067 734.245 18.7227C734.221 18.6267 734.203 18.5007 734.191 18.3447C734.191 18.1887 734.185 17.9967 734.173 17.7687C734.173 17.5287 734.173 17.2107 734.173 16.8147V7.67075C734.173 7.47875 734.263 7.36475 734.443 7.32875L736.063 7.00475ZM741.073 7.00475C741.169 6.98075 741.223 6.96875 741.235 6.96875C741.247 6.96875 741.265 6.96875 741.289 6.96875C741.409 6.96875 741.469 7.07075 741.469 7.27475V16.6528C741.469 16.9048 741.469 17.1027 741.469 17.2467C741.469 17.3907 741.469 17.4987 741.469 17.5707C741.469 17.6427 741.469 17.6967 741.469 17.7327C741.481 17.7687 741.493 17.8047 741.505 17.8407C741.577 18.0807 741.727 18.2008 741.955 18.2008C742.051 18.2008 742.141 18.1947 742.225 18.1827C742.321 18.1587 742.429 18.1287 742.549 18.0927C742.585 18.0807 742.627 18.0747 742.675 18.0747C742.747 18.0747 742.795 18.1107 742.819 18.1827L743.179 19.6588L743.197 19.7307C743.209 19.7547 743.215 19.7787 743.215 19.8027C743.215 19.8627 743.161 19.9227 743.053 19.9827C742.945 20.0427 742.801 20.0967 742.621 20.1447C742.453 20.1927 742.261 20.2288 742.045 20.2528C741.829 20.2888 741.613 20.3067 741.397 20.3067C740.329 20.3067 739.645 19.8747 739.345 19.0107C739.309 18.9027 739.279 18.8067 739.255 18.7227C739.231 18.6267 739.213 18.5007 739.201 18.3447C739.201 18.1887 739.195 17.9967 739.183 17.7687C739.183 17.5287 739.183 17.2107 739.183 16.8147V7.67075C739.183 7.47875 739.273 7.36475 739.453 7.32875L741.073 7.00475ZM748.728 14.4927C748.704 13.7487 748.59 13.2208 748.386 12.9088C748.194 12.5968 747.87 12.4407 747.414 12.4407C746.958 12.4407 746.616 12.5968 746.388 12.9088C746.16 13.2208 746.004 13.7487 745.92 14.4927H748.728ZM745.884 16.1667C745.908 16.9467 746.076 17.5227 746.388 17.8947C746.712 18.2547 747.21 18.4347 747.882 18.4347C748.542 18.4347 749.226 18.2487 749.934 17.8767C750.018 17.8287 750.096 17.8048 750.168 17.8048C750.24 17.8048 750.306 17.8587 750.366 17.9667L750.816 19.0467C750.84 19.1067 750.852 19.1488 750.852 19.1728C750.864 19.1848 750.87 19.2087 750.87 19.2447C750.87 19.3407 750.822 19.4247 750.726 19.4967C750.63 19.5687 750.432 19.6707 750.132 19.8027C749.352 20.1387 748.524 20.3067 747.648 20.3067C746.484 20.3067 745.59 20.0127 744.966 19.4247C744.534 19.0407 744.198 18.5187 743.958 17.8587C743.73 17.1987 743.616 16.4548 743.616 15.6268C743.616 14.9068 743.706 14.2527 743.886 13.6647C744.078 13.0647 744.348 12.5547 744.696 12.1347C745.044 11.7027 745.458 11.3728 745.938 11.1448C746.418 10.9168 746.958 10.8028 747.558 10.8028C749.934 10.8028 751.122 12.4407 751.122 15.7167C751.122 15.8967 751.098 16.0167 751.05 16.0767C751.002 16.1367 750.894 16.1667 750.726 16.1667H745.884ZM753.435 8.84075C753.435 8.70875 753.447 8.63075 753.471 8.60675C753.507 8.57075 753.591 8.54075 753.723 8.51675L755.379 8.28275H755.541C755.661 8.28275 755.721 8.37875 755.721 8.57075V11.1087H757.773C757.977 11.1087 758.079 11.1688 758.079 11.2888C758.079 11.3608 758.073 11.4147 758.061 11.4507L757.827 12.5128C757.803 12.6208 757.767 12.6927 757.719 12.7287C757.683 12.7647 757.611 12.7827 757.503 12.7827H755.721V17.1567C755.721 17.6367 755.763 17.9487 755.847 18.0927C755.931 18.2367 756.111 18.3088 756.387 18.3088C756.471 18.3088 756.549 18.3088 756.621 18.3088C756.705 18.2968 756.789 18.2787 756.873 18.2547C756.957 18.2307 757.053 18.2007 757.161 18.1647C757.269 18.1287 757.407 18.0748 757.575 18.0028C757.647 17.9788 757.701 17.9667 757.737 17.9667C757.821 17.9667 757.881 18.0267 757.917 18.1467L758.205 19.4067C758.229 19.4667 758.241 19.5087 758.241 19.5327C758.241 19.5567 758.241 19.5807 758.241 19.6047C758.241 19.7007 758.205 19.7727 758.133 19.8207C758.061 19.8687 757.911 19.9287 757.683 20.0007C757.047 20.2047 756.441 20.3067 755.865 20.3067C754.917 20.3067 754.239 20.0008 753.831 19.3888C753.675 19.1608 753.567 18.9147 753.507 18.6507C753.459 18.3747 753.435 17.9847 753.435 17.4807V12.7827H752.193C752.061 12.7827 751.977 12.7647 751.941 12.7287C751.905 12.6927 751.887 12.6087 751.887 12.4767V11.4147C751.887 11.2827 751.905 11.1987 751.941 11.1627C751.977 11.1267 752.061 11.1087 752.193 11.1087H753.435V8.84075ZM759.359 17.8947C759.395 17.7747 759.455 17.7148 759.539 17.7148C759.575 17.7148 759.629 17.7327 759.701 17.7687C760.649 18.2847 761.465 18.5427 762.149 18.5427C762.461 18.5427 762.713 18.4588 762.905 18.2908C763.097 18.1108 763.193 17.8828 763.193 17.6068C763.193 17.4868 763.175 17.3787 763.139 17.2827C763.103 17.1867 763.037 17.0967 762.941 17.0127C762.845 16.9287 762.701 16.8447 762.509 16.7607C762.329 16.6767 762.095 16.5807 761.807 16.4727C761.519 16.3647 761.273 16.2687 761.069 16.1847C760.877 16.0887 760.709 16.0048 760.565 15.9328C760.421 15.8608 760.301 15.7887 760.205 15.7167C760.109 15.6447 760.019 15.5727 759.935 15.5007C759.455 15.0447 759.215 14.4568 759.215 13.7368C759.215 13.3048 759.293 12.9088 759.449 12.5488C759.605 12.1888 759.827 11.8828 760.115 11.6308C760.403 11.3668 760.739 11.1627 761.123 11.0187C761.519 10.8747 761.951 10.8028 762.419 10.8028C762.707 10.8028 763.007 10.8328 763.319 10.8928C763.643 10.9408 763.943 11.0068 764.219 11.0908C764.495 11.1748 764.723 11.2647 764.903 11.3607C765.083 11.4567 765.173 11.5468 765.173 11.6308C765.173 11.6908 765.155 11.7568 765.119 11.8288L764.669 12.8548C764.609 12.9628 764.549 13.0167 764.489 13.0167C764.465 13.0167 764.417 13.0047 764.345 12.9807C763.649 12.6687 763.043 12.5128 762.527 12.5128C761.759 12.5128 761.375 12.8188 761.375 13.4308C761.375 13.6708 761.447 13.8567 761.591 13.9887C761.747 14.1207 762.071 14.2828 762.563 14.4748C762.899 14.6068 763.175 14.7208 763.391 14.8168C763.619 14.9128 763.811 15.0028 763.967 15.0868C764.123 15.1588 764.249 15.2367 764.345 15.3207C764.453 15.3927 764.555 15.4708 764.651 15.5548C765.143 16.0468 765.389 16.6587 765.389 17.3907C765.389 17.7747 765.317 18.1527 765.173 18.5247C765.029 18.8847 764.825 19.2028 764.561 19.4788C764.021 20.0308 763.283 20.3067 762.347 20.3067C761.843 20.3067 761.321 20.2407 760.781 20.1087C760.253 19.9767 759.755 19.7907 759.287 19.5507C759.119 19.4667 759.011 19.4068 758.963 19.3708C758.915 19.3228 758.891 19.2687 758.891 19.2087C758.891 19.1727 758.891 19.1427 758.891 19.1187C758.903 19.0947 758.921 19.0528 758.945 18.9928L759.359 17.8947Z" fill="black"/>
<path d="M862.633 12.6928V8.03075C862.633 7.86275 862.651 7.76075 862.687 7.72475C862.735 7.67675 862.837 7.65275 862.993 7.65275H864.721C864.889 7.65275 864.991 7.67675 865.027 7.72475C865.075 7.76075 865.099 7.86275 865.099 8.03075V19.6227C865.099 19.7907 865.075 19.8987 865.027 19.9467C864.991 19.9827 864.889 20.0007 864.721 20.0007H862.993C862.825 20.0007 862.723 19.9827 862.687 19.9467C862.651 19.8987 862.633 19.7907 862.633 19.6227V14.5287H859.267V19.6227C859.267 19.7907 859.243 19.8987 859.195 19.9467C859.159 19.9827 859.057 20.0007 858.889 20.0007H857.179C857.011 20.0007 856.903 19.9827 856.855 19.9467C856.819 19.8987 856.801 19.7907 856.801 19.6227V8.03075C856.801 7.86275 856.819 7.76075 856.855 7.72475C856.903 7.67675 857.011 7.65275 857.179 7.65275H858.889C859.057 7.65275 859.159 7.67675 859.195 7.72475C859.243 7.76075 859.267 7.86275 859.267 8.03075V12.6928H862.633ZM871.09 12.6207C870.574 12.6207 870.202 12.8487 869.974 13.3047C869.746 13.7607 869.632 14.5108 869.632 15.5548C869.632 16.5988 869.746 17.3488 869.974 17.8048C870.202 18.2608 870.58 18.4888 871.108 18.4888C871.648 18.4888 872.032 18.2608 872.26 17.8048C872.488 17.3488 872.602 16.6048 872.602 15.5728C872.602 14.5048 872.482 13.7487 872.242 13.3047C872.014 12.8487 871.63 12.6207 871.09 12.6207ZM871.198 10.8028C871.786 10.8028 872.314 10.9168 872.782 11.1448C873.262 11.3608 873.664 11.6727 873.988 12.0807C874.324 12.4887 874.582 12.9868 874.762 13.5748C874.942 14.1508 875.032 14.8048 875.032 15.5368C875.032 16.2688 874.942 16.9288 874.762 17.5168C874.582 18.1048 874.324 18.6087 873.988 19.0287C873.652 19.4367 873.238 19.7547 872.746 19.9827C872.266 20.1987 871.726 20.3067 871.126 20.3067C869.89 20.3067 868.924 19.8927 868.228 19.0647C867.544 18.2247 867.202 17.0548 867.202 15.5548C867.202 14.1028 867.55 12.9568 868.246 12.1168C868.63 11.6608 869.056 11.3308 869.524 11.1268C869.992 10.9108 870.55 10.8028 871.198 10.8028ZM878.668 7.00475C878.764 6.98075 878.818 6.96875 878.83 6.96875C878.842 6.96875 878.86 6.96875 878.884 6.96875C879.004 6.96875 879.064 7.07075 879.064 7.27475V16.6528C879.064 16.9048 879.064 17.1027 879.064 17.2467C879.064 17.3907 879.064 17.4987 879.064 17.5707C879.064 17.6427 879.064 17.6967 879.064 17.7327C879.076 17.7687 879.088 17.8047 879.1 17.8407C879.172 18.0807 879.322 18.2008 879.55 18.2008C879.646 18.2008 879.736 18.1947 879.82 18.1827C879.916 18.1587 880.024 18.1287 880.144 18.0927C880.18 18.0807 880.222 18.0747 880.27 18.0747C880.342 18.0747 880.39 18.1107 880.414 18.1827L880.774 19.6588L880.792 19.7307C880.804 19.7547 880.81 19.7787 880.81 19.8027C880.81 19.8627 880.756 19.9227 880.648 19.9827C880.54 20.0427 880.396 20.0967 880.216 20.1447C880.048 20.1927 879.856 20.2288 879.64 20.2528C879.424 20.2888 879.208 20.3067 878.992 20.3067C877.924 20.3067 877.24 19.8747 876.94 19.0107C876.904 18.9027 876.874 18.8067 876.85 18.7227C876.826 18.6267 876.808 18.5007 876.796 18.3447C876.796 18.1887 876.79 17.9967 876.778 17.7687C876.778 17.5287 876.778 17.2107 876.778 16.8147V7.67075C876.778 7.47875 876.868 7.36475 877.048 7.32875L878.668 7.00475ZM882.4 8.84075C882.4 8.70875 882.412 8.63075 882.436 8.60675C882.472 8.57075 882.556 8.54075 882.688 8.51675L884.344 8.28275H884.506C884.626 8.28275 884.686 8.37875 884.686 8.57075V11.1087H886.738C886.942 11.1087 887.044 11.1688 887.044 11.2888C887.044 11.3608 887.038 11.4147 887.026 11.4507L886.792 12.5128C886.768 12.6208 886.732 12.6927 886.684 12.7287C886.648 12.7647 886.576 12.7827 886.468 12.7827H884.686V17.1567C884.686 17.6367 884.728 17.9487 884.812 18.0927C884.896 18.2367 885.076 18.3088 885.352 18.3088C885.436 18.3088 885.514 18.3088 885.586 18.3088C885.67 18.2968 885.754 18.2787 885.838 18.2547C885.922 18.2307 886.018 18.2007 886.126 18.1647C886.234 18.1287 886.372 18.0748 886.54 18.0028C886.612 17.9788 886.666 17.9667 886.702 17.9667C886.786 17.9667 886.846 18.0267 886.882 18.1467L887.17 19.4067C887.194 19.4667 887.206 19.5087 887.206 19.5327C887.206 19.5567 887.206 19.5807 887.206 19.6047C887.206 19.7007 887.17 19.7727 887.098 19.8207C887.026 19.8687 886.876 19.9287 886.648 20.0007C886.012 20.2047 885.406 20.3067 884.83 20.3067C883.882 20.3067 883.204 20.0008 882.796 19.3888C882.64 19.1608 882.532 18.9147 882.472 18.6507C882.424 18.3747 882.4 17.9847 882.4 17.4807V12.7827H881.158C881.026 12.7827 880.942 12.7647 880.906 12.7287C880.87 12.6927 880.852 12.6087 880.852 12.4767V11.4147C880.852 11.2827 880.87 11.1987 880.906 11.1627C880.942 11.1267 881.026 11.1087 881.158 11.1087H882.4V8.84075ZM890.862 19.6947C890.862 19.8267 890.844 19.9107 890.808 19.9467C890.772 19.9827 890.688 20.0007 890.556 20.0007H888.918C888.786 20.0007 888.702 19.9827 888.666 19.9467C888.63 19.9107 888.612 19.8267 888.612 19.6947V13.6467C888.612 13.4187 888.606 13.2208 888.594 13.0528C888.582 12.8728 888.564 12.7108 888.54 12.5668C888.516 12.4228 888.48 12.2848 888.432 12.1528C888.396 12.0208 888.348 11.8707 888.288 11.7027C888.252 11.6307 888.234 11.5647 888.234 11.5047C888.234 11.4207 888.3 11.3488 888.432 11.2888L889.89 10.8028C889.938 10.7908 889.974 10.7848 889.998 10.7848C890.022 10.7728 890.046 10.7667 890.07 10.7667C890.166 10.7667 890.262 10.8868 890.358 11.1268C890.466 11.3548 890.562 11.6668 890.646 12.0628C891.15 11.6068 891.6 11.2828 891.996 11.0908C892.392 10.8988 892.836 10.8028 893.328 10.8028C894.252 10.8028 894.906 11.2228 895.29 12.0628C895.806 11.5948 896.268 11.2708 896.676 11.0908C897.096 10.8988 897.558 10.8028 898.062 10.8028C898.89 10.8028 899.466 11.1027 899.79 11.7027C899.922 11.9547 900.006 12.2248 900.042 12.5128C900.09 12.8008 900.114 13.2208 900.114 13.7728V19.6947C900.114 19.8267 900.096 19.9107 900.06 19.9467C900.024 19.9827 899.94 20.0007 899.808 20.0007H898.152C898.02 20.0007 897.936 19.9827 897.9 19.9467C897.864 19.9107 897.846 19.8267 897.846 19.6947V13.9887C897.846 13.4847 897.786 13.1307 897.666 12.9267C897.546 12.7107 897.336 12.6028 897.036 12.6028C896.796 12.6028 896.556 12.6627 896.316 12.7827C896.088 12.9027 895.812 13.1127 895.488 13.4127V19.6947C895.488 19.8267 895.47 19.9107 895.434 19.9467C895.398 19.9827 895.314 20.0007 895.182 20.0007H893.544C893.412 20.0007 893.328 19.9827 893.292 19.9467C893.256 19.9107 893.238 19.8267 893.238 19.6947V14.1688C893.238 13.5688 893.178 13.1667 893.058 12.9627C892.95 12.7467 892.734 12.6387 892.41 12.6387C892.17 12.6387 891.93 12.6987 891.69 12.8187C891.45 12.9387 891.174 13.1367 890.862 13.4127V19.6947ZM906.996 14.4927C906.972 13.7487 906.858 13.2208 906.654 12.9088C906.462 12.5968 906.138 12.4407 905.682 12.4407C905.226 12.4407 904.884 12.5968 904.656 12.9088C904.428 13.2208 904.272 13.7487 904.188 14.4927H906.996ZM904.152 16.1667C904.176 16.9467 904.344 17.5227 904.656 17.8947C904.98 18.2547 905.478 18.4347 906.15 18.4347C906.81 18.4347 907.494 18.2487 908.202 17.8767C908.286 17.8287 908.364 17.8048 908.436 17.8048C908.508 17.8048 908.574 17.8587 908.634 17.9667L909.084 19.0467C909.108 19.1067 909.12 19.1488 909.12 19.1728C909.132 19.1848 909.138 19.2087 909.138 19.2447C909.138 19.3407 909.09 19.4247 908.994 19.4967C908.898 19.5687 908.7 19.6707 908.4 19.8027C907.62 20.1387 906.792 20.3067 905.916 20.3067C904.752 20.3067 903.858 20.0127 903.234 19.4247C902.802 19.0407 902.466 18.5187 902.226 17.8587C901.998 17.1987 901.884 16.4548 901.884 15.6268C901.884 14.9068 901.974 14.2527 902.154 13.6647C902.346 13.0647 902.616 12.5547 902.964 12.1347C903.312 11.7027 903.726 11.3728 904.206 11.1448C904.686 10.9168 905.226 10.8028 905.826 10.8028C908.202 10.8028 909.39 12.4407 909.39 15.7167C909.39 15.8967 909.366 16.0167 909.318 16.0767C909.27 16.1367 909.162 16.1667 908.994 16.1667H904.152ZM913.415 15.6628C913.487 15.9748 913.553 16.2627 913.613 16.5267C913.685 16.7787 913.745 17.0307 913.793 17.2827C913.853 17.5227 913.907 17.7628 913.955 18.0028C914.003 18.2428 914.057 18.5007 914.117 18.7767C914.153 18.5847 914.183 18.4228 914.207 18.2908C914.231 18.1468 914.249 18.0208 914.261 17.9128C914.285 17.8048 914.303 17.7028 914.315 17.6068C914.339 17.5108 914.363 17.3967 914.387 17.2647C914.411 17.1087 914.435 16.9648 914.459 16.8328C914.495 16.6888 914.525 16.5568 914.549 16.4368L914.729 15.6628L915.737 11.2527C915.761 11.1447 915.785 11.0728 915.809 11.0368C915.833 11.0008 915.875 10.9828 915.935 10.9828C915.983 10.9828 916.031 10.9888 916.079 11.0008L917.663 11.1808C917.855 11.1928 917.951 11.2527 917.951 11.3607C917.951 11.3847 917.951 11.4088 917.951 11.4328C917.951 11.4448 917.939 11.4808 917.915 11.5408L916.115 18.1287C915.995 18.5127 915.893 18.9087 915.809 19.3167C915.653 19.9527 915.515 20.4747 915.395 20.8827C915.287 21.3027 915.179 21.6448 915.071 21.9088C914.975 22.1848 914.879 22.4067 914.783 22.5747C914.687 22.7427 914.573 22.9047 914.441 23.0607C913.925 23.6847 913.199 23.9967 912.263 23.9967C912.011 23.9967 911.741 23.9667 911.453 23.9067C911.165 23.8587 910.895 23.7927 910.643 23.7087C910.403 23.6247 910.199 23.5347 910.031 23.4387C909.875 23.3427 909.797 23.2467 909.797 23.1507C909.797 23.1267 909.803 23.1027 909.815 23.0787C909.815 23.0667 909.833 23.0247 909.869 22.9527L910.427 21.8007C910.463 21.7167 910.517 21.6747 910.589 21.6747C910.625 21.6747 910.673 21.6928 910.733 21.7288C911.273 21.9928 911.735 22.1248 912.119 22.1248C912.503 22.1248 912.791 22.0288 912.983 21.8368C913.187 21.6448 913.367 21.2848 913.523 20.7568L913.739 20.0007H912.983C912.863 20.0007 912.785 19.9888 912.749 19.9648C912.725 19.9408 912.689 19.8748 912.641 19.7668L909.815 11.5587C909.791 11.4987 909.779 11.4568 909.779 11.4328C909.767 11.4088 909.761 11.3847 909.761 11.3607C909.761 11.2527 909.857 11.1928 910.049 11.1808L911.885 10.9828H912.011C912.107 10.9828 912.179 11.0668 912.227 11.2348L913.415 15.6628ZM923.484 14.4927C923.46 13.7487 923.346 13.2208 923.142 12.9088C922.95 12.5968 922.626 12.4407 922.17 12.4407C921.714 12.4407 921.372 12.5968 921.144 12.9088C920.916 13.2208 920.76 13.7487 920.676 14.4927H923.484ZM920.64 16.1667C920.664 16.9467 920.832 17.5227 921.144 17.8947C921.468 18.2547 921.966 18.4347 922.638 18.4347C923.298 18.4347 923.982 18.2487 924.69 17.8767C924.774 17.8287 924.852 17.8048 924.924 17.8048C924.996 17.8048 925.062 17.8587 925.122 17.9667L925.572 19.0467C925.596 19.1067 925.608 19.1488 925.608 19.1728C925.62 19.1848 925.626 19.2087 925.626 19.2447C925.626 19.3407 925.578 19.4247 925.482 19.4967C925.386 19.5687 925.188 19.6707 924.888 19.8027C924.108 20.1387 923.28 20.3067 922.404 20.3067C921.24 20.3067 920.346 20.0127 919.722 19.4247C919.29 19.0407 918.954 18.5187 918.714 17.8587C918.486 17.1987 918.372 16.4548 918.372 15.6268C918.372 14.9068 918.462 14.2527 918.642 13.6647C918.834 13.0647 919.104 12.5547 919.452 12.1347C919.8 11.7027 920.214 11.3728 920.694 11.1448C921.174 10.9168 921.714 10.8028 922.314 10.8028C924.69 10.8028 925.878 12.4407 925.878 15.7167C925.878 15.8967 925.854 16.0167 925.806 16.0767C925.758 16.1367 925.65 16.1667 925.482 16.1667H920.64ZM928.838 10.8568C928.91 10.8328 928.952 10.8207 928.964 10.8207C928.988 10.8087 929.018 10.8028 929.054 10.8028C929.162 10.8028 929.276 10.9288 929.396 11.1808C929.528 11.4328 929.642 11.7748 929.738 12.2068C929.834 12.0988 929.912 12.0087 929.972 11.9367C930.032 11.8647 930.08 11.8047 930.116 11.7567C930.164 11.7087 930.2 11.6668 930.224 11.6308C930.26 11.5948 930.302 11.5527 930.35 11.5047C930.818 11.0367 931.364 10.8028 931.988 10.8028C932.264 10.8028 932.504 10.8448 932.708 10.9288C932.912 11.0128 933.014 11.1028 933.014 11.1988C933.014 11.2348 933.002 11.3007 932.978 11.3967L932.42 12.8548C932.384 12.9628 932.336 13.0167 932.276 13.0167C932.264 13.0167 932.222 13.0047 932.15 12.9807C931.886 12.8847 931.646 12.8368 931.43 12.8368C931.046 12.8368 930.59 13.1247 930.062 13.7007V19.6947C930.062 19.8267 930.044 19.9107 930.008 19.9467C929.972 19.9827 929.888 20.0007 929.756 20.0007H928.082C927.95 20.0007 927.866 19.9827 927.83 19.9467C927.794 19.9107 927.776 19.8267 927.776 19.6947V14.2228C927.776 13.9708 927.764 13.7428 927.74 13.5388C927.728 13.3348 927.704 13.1427 927.668 12.9627C927.632 12.7707 927.578 12.5787 927.506 12.3867C927.434 12.1827 927.344 11.9608 927.236 11.7208C927.212 11.6488 927.2 11.5947 927.2 11.5587C927.2 11.4747 927.26 11.4148 927.38 11.3788L928.838 10.8568ZM940.477 12.5668H943.483C943.651 12.5668 943.753 12.5907 943.789 12.6387C943.837 12.6747 943.861 12.7768 943.861 12.9448V14.1507C943.861 14.3187 943.837 14.4268 943.789 14.4748C943.753 14.5108 943.651 14.5287 943.483 14.5287H940.477V18.0387H944.257C944.425 18.0387 944.527 18.0628 944.563 18.1108C944.611 18.1468 944.635 18.2487 944.635 18.4167V19.6227C944.635 19.7907 944.611 19.8987 944.563 19.9467C944.527 19.9827 944.425 20.0007 944.257 20.0007H938.389C938.221 20.0007 938.113 19.9827 938.065 19.9467C938.029 19.8987 938.011 19.7907 938.011 19.6227V8.03075C938.011 7.86275 938.029 7.76075 938.065 7.72475C938.113 7.67675 938.221 7.65275 938.389 7.65275H944.401C944.641 7.65275 944.761 7.71875 944.761 7.85075C944.761 7.88675 944.749 7.96475 944.725 8.08475L944.365 9.30875C944.341 9.42875 944.299 9.51275 944.239 9.56075C944.191 9.59675 944.101 9.61475 943.969 9.61475H940.477V12.5668ZM947.811 10.7488C947.883 10.7248 947.943 10.7127 947.991 10.7127C948.099 10.7127 948.207 10.8208 948.315 11.0368C948.435 11.2528 948.543 11.5588 948.639 11.9548C949.095 11.5348 949.527 11.2407 949.935 11.0727C950.355 10.8927 950.823 10.8028 951.339 10.8028C952.143 10.8028 952.731 11.0308 953.103 11.4868C953.475 11.9428 953.661 12.6627 953.661 13.6467V19.6947C953.661 19.8267 953.643 19.9107 953.607 19.9467C953.571 19.9827 953.487 20.0007 953.355 20.0007H951.681C951.549 20.0007 951.465 19.9827 951.429 19.9467C951.393 19.9107 951.375 19.8267 951.375 19.6947V14.1507C951.375 13.6107 951.291 13.2268 951.123 12.9988C950.967 12.7588 950.709 12.6387 950.349 12.6387C950.085 12.6387 949.833 12.6928 949.593 12.8008C949.365 12.9088 949.095 13.1008 948.783 13.3768V19.6947C948.783 19.8267 948.765 19.9107 948.729 19.9467C948.693 19.9827 948.609 20.0007 948.477 20.0007H946.803C946.671 20.0007 946.587 19.9827 946.551 19.9467C946.515 19.9107 946.497 19.8267 946.497 19.6947V13.6467C946.497 12.8787 946.371 12.2248 946.119 11.6848C946.083 11.6128 946.065 11.5527 946.065 11.5047C946.065 11.4327 946.113 11.3788 946.209 11.3428L947.811 10.7488ZM960.539 14.4927C960.515 13.7487 960.401 13.2208 960.197 12.9088C960.005 12.5968 959.681 12.4407 959.225 12.4407C958.769 12.4407 958.427 12.5968 958.199 12.9088C957.971 13.2208 957.815 13.7487 957.731 14.4927H960.539ZM957.695 16.1667C957.719 16.9467 957.887 17.5227 958.199 17.8947C958.523 18.2547 959.021 18.4347 959.693 18.4347C960.353 18.4347 961.037 18.2487 961.745 17.8767C961.829 17.8287 961.907 17.8048 961.979 17.8048C962.051 17.8048 962.117 17.8587 962.177 17.9667L962.627 19.0467C962.651 19.1067 962.663 19.1488 962.663 19.1728C962.675 19.1848 962.681 19.2087 962.681 19.2447C962.681 19.3407 962.633 19.4247 962.537 19.4967C962.441 19.5687 962.243 19.6707 961.943 19.8027C961.163 20.1387 960.335 20.3067 959.459 20.3067C958.295 20.3067 957.401 20.0127 956.777 19.4247C956.345 19.0407 956.009 18.5187 955.769 17.8587C955.541 17.1987 955.427 16.4548 955.427 15.6268C955.427 14.9068 955.517 14.2527 955.697 13.6647C955.889 13.0647 956.159 12.5547 956.507 12.1347C956.855 11.7027 957.269 11.3728 957.749 11.1448C958.229 10.9168 958.769 10.8028 959.369 10.8028C961.745 10.8028 962.933 12.4407 962.933 15.7167C962.933 15.8967 962.909 16.0167 962.861 16.0767C962.813 16.1367 962.705 16.1667 962.537 16.1667H957.695ZM965.893 10.8568C965.965 10.8328 966.007 10.8207 966.019 10.8207C966.043 10.8087 966.073 10.8028 966.109 10.8028C966.217 10.8028 966.331 10.9288 966.451 11.1808C966.583 11.4328 966.697 11.7748 966.793 12.2068C966.889 12.0988 966.967 12.0087 967.027 11.9367C967.087 11.8647 967.135 11.8047 967.171 11.7567C967.219 11.7087 967.255 11.6668 967.279 11.6308C967.315 11.5948 967.357 11.5527 967.405 11.5047C967.873 11.0367 968.419 10.8028 969.043 10.8028C969.319 10.8028 969.559 10.8448 969.763 10.9288C969.967 11.0128 970.069 11.1028 970.069 11.1988C970.069 11.2348 970.057 11.3007 970.033 11.3967L969.475 12.8548C969.439 12.9628 969.391 13.0167 969.331 13.0167C969.319 13.0167 969.277 13.0047 969.205 12.9807C968.941 12.8847 968.701 12.8368 968.485 12.8368C968.101 12.8368 967.645 13.1247 967.117 13.7007V19.6947C967.117 19.8267 967.099 19.9107 967.063 19.9467C967.027 19.9827 966.943 20.0007 966.811 20.0007H965.137C965.005 20.0007 964.921 19.9827 964.885 19.9467C964.849 19.9107 964.831 19.8267 964.831 19.6947V14.2228C964.831 13.9708 964.819 13.7428 964.795 13.5388C964.783 13.3348 964.759 13.1427 964.723 12.9627C964.687 12.7707 964.633 12.5787 964.561 12.3867C964.489 12.1827 964.399 11.9608 964.291 11.7208C964.267 11.6488 964.255 11.5947 964.255 11.5587C964.255 11.4747 964.315 11.4148 964.435 11.3788L965.893 10.8568ZM975.373 13.2147C975.121 13.0227 974.899 12.8907 974.707 12.8187C974.515 12.7347 974.311 12.6928 974.095 12.6928C973.615 12.6928 973.249 12.9268 972.997 13.3948C972.745 13.8628 972.619 14.5408 972.619 15.4288C972.619 16.2928 972.733 16.9528 972.961 17.4088C973.189 17.8528 973.519 18.0747 973.951 18.0747C974.503 18.0747 974.977 17.8707 975.373 17.4627V13.2147ZM971.053 21.3507C971.089 21.2307 971.155 21.1707 971.251 21.1707C971.299 21.1707 971.353 21.1888 971.413 21.2248C972.385 21.6688 973.273 21.8907 974.077 21.8907C974.581 21.8907 974.935 21.7767 975.139 21.5487C975.355 21.3207 975.463 20.9367 975.463 20.3967C975.463 20.2527 975.451 20.0847 975.427 19.8927C975.415 19.6887 975.397 19.4667 975.373 19.2267C975.037 19.4667 974.701 19.6407 974.365 19.7487C974.029 19.8447 973.669 19.8927 973.285 19.8927C972.373 19.8927 971.653 19.5027 971.125 18.7227C970.597 17.9307 970.333 16.8627 970.333 15.5187C970.333 14.7987 970.411 14.1508 970.567 13.5748C970.723 12.9868 970.939 12.4887 971.215 12.0807C971.503 11.6727 971.851 11.3608 972.259 11.1448C972.667 10.9168 973.123 10.8028 973.627 10.8028C974.047 10.8028 974.407 10.8628 974.707 10.9828C975.007 11.1028 975.337 11.3188 975.697 11.6308C975.805 11.3668 975.919 11.1568 976.039 11.0008C976.159 10.8328 976.255 10.7488 976.327 10.7488C976.399 10.7488 976.459 10.7608 976.507 10.7848L977.929 11.2888C978.037 11.3488 978.091 11.4088 978.091 11.4688C978.091 11.4928 978.085 11.5227 978.073 11.5587C978.073 11.5827 978.043 11.6607 977.983 11.7927C977.839 12.1287 977.737 12.4527 977.677 12.7648C977.617 13.0648 977.587 13.4188 977.587 13.8268V16.4907C977.587 17.4747 977.605 18.4527 977.641 19.4247C977.653 19.6647 977.659 19.8808 977.659 20.0728C977.671 20.2768 977.677 20.4388 977.677 20.5588C977.677 21.5908 977.383 22.3827 976.795 22.9347C976.219 23.4867 975.385 23.7627 974.293 23.7627C973.909 23.7627 973.501 23.7267 973.069 23.6547C972.649 23.5947 972.259 23.5167 971.899 23.4207C971.539 23.3247 971.239 23.2168 970.999 23.0968C970.759 22.9888 970.639 22.8807 970.639 22.7727C970.639 22.7247 970.651 22.6647 970.675 22.5927L971.053 21.3507ZM979.063 12.7827C978.931 12.7827 978.847 12.7647 978.811 12.7287C978.775 12.6927 978.757 12.6087 978.757 12.4767V11.4147C978.757 11.2827 978.775 11.1987 978.811 11.1627C978.847 11.1267 978.931 11.1087 979.063 11.1087H982.411C982.543 11.1087 982.627 11.1267 982.663 11.1627C982.699 11.1987 982.717 11.2827 982.717 11.4147V19.6947C982.717 19.8267 982.699 19.9107 982.663 19.9467C982.627 19.9827 982.543 20.0007 982.411 20.0007H980.737C980.605 20.0007 980.521 19.9827 980.485 19.9467C980.449 19.9107 980.431 19.8267 980.431 19.6947V12.7827H979.063ZM981.529 7.00475C981.925 7.00475 982.261 7.14875 982.537 7.43675C982.825 7.72475 982.969 8.06675 982.969 8.46275C982.969 8.87075 982.825 9.21875 982.537 9.50675C982.261 9.78275 981.919 9.92075 981.511 9.92075C981.103 9.92075 980.755 9.78275 980.467 9.50675C980.191 9.21875 980.053 8.86475 980.053 8.44475C980.053 8.04875 980.197 7.71275 980.485 7.43675C980.773 7.14875 981.121 7.00475 981.529 7.00475ZM989.771 14.4927C989.747 13.7487 989.633 13.2208 989.429 12.9088C989.237 12.5968 988.913 12.4407 988.457 12.4407C988.001 12.4407 987.659 12.5968 987.431 12.9088C987.203 13.2208 987.047 13.7487 986.963 14.4927H989.771ZM986.927 16.1667C986.951 16.9467 987.119 17.5227 987.431 17.8947C987.755 18.2547 988.253 18.4347 988.925 18.4347C989.585 18.4347 990.269 18.2487 990.977 17.8767C991.061 17.8287 991.139 17.8048 991.211 17.8048C991.283 17.8048 991.349 17.8587 991.409 17.9667L991.859 19.0467C991.883 19.1067 991.895 19.1488 991.895 19.1728C991.907 19.1848 991.913 19.2087 991.913 19.2447C991.913 19.3407 991.865 19.4247 991.769 19.4967C991.673 19.5687 991.475 19.6707 991.175 19.8027C990.395 20.1387 989.567 20.3067 988.691 20.3067C987.527 20.3067 986.633 20.0127 986.009 19.4247C985.577 19.0407 985.241 18.5187 985.001 17.8587C984.773 17.1987 984.659 16.4548 984.659 15.6268C984.659 14.9068 984.749 14.2527 984.929 13.6647C985.121 13.0647 985.391 12.5547 985.739 12.1347C986.087 11.7027 986.501 11.3728 986.981 11.1448C987.461 10.9168 988.001 10.8028 988.601 10.8028C990.977 10.8028 992.165 12.4407 992.165 15.7167C992.165 15.8967 992.141 16.0167 992.093 16.0767C992.045 16.1367 991.937 16.1667 991.769 16.1667H986.927Z" fill="black"/>
<path d="M580.365 151.925H348.611V67.0566C348.611 59.8494 354.46 54 361.667 54H580.365V151.925Z" fill="#BF9A57"/>
<path d="M580.367 151.925H812.487V54H580.367V151.925Z" fill="#9EC540"/>
<path d="M1043.88 151.925H812.121V54H1030.82C1038.03 54 1043.88 59.8494 1043.88 67.0566V151.925Z" fill="#00A099"/>
<path opacity="0.6" d="M348.611 200.887H580.365V151.924H348.611V200.887Z" fill="#BF9A57"/>
<path opacity="0.6" d="M580.367 200.887H812.122V151.924H580.367V200.887Z" fill="#9EC540"/>
<path opacity="0.6" d="M812.121 200.887H1043.88V151.924H812.121V200.887Z" fill="#00A099"/>
<path opacity="0.3" d="M580.365 227H361.667C354.46 227 348.611 221.151 348.611 213.943V200.887H580.365V227Z" fill="#BF9A57"/>
<path d="M231.755 151.925H0V67.0566C0 59.8494 5.84935 54 13.0566 54H218.698C225.906 54 231.755 59.8494 231.755 67.0566V151.925Z" fill="#503B21"/>
<path opacity="0.6" d="M0 200.887H231.755V151.924H0V200.887Z" fill="#503B21"/>
<path opacity="0.3" d="M218.698 227H13.0566C5.84935 227 0 221.151 0 213.943V200.887H231.755V213.943C231.755 221.151 225.906 227 218.698 227Z" fill="#503B21"/>
<path opacity="0.3" d="M580.367 227H812.122V200.887H580.367V227Z" fill="#9EC540"/>
<path opacity="0.3" d="M1030.82 227H812.121V200.887H1043.88V213.943C1043.88 221.151 1038.03 227 1030.82 227Z" fill="#00A099"/>
</g>
<defs>
<clipPath id="clip0_2733_4">
<rect width="1044" height="227" fill="white"/>
</clipPath>
</defs>
</svg>
