<?xml version="1.0" encoding="UTF-8"?>
<svg id="uuid-385ed20f-6375-4dcf-8897-10455a7281b8" xmlns="http://www.w3.org/2000/svg" version="1.1" viewBox="0 0 5442.5 1242.4">
  <defs>
    <style>
      .cls-1 {
        fill: #9fc640;
      }

      .cls-1, .cls-2, .cls-3, .cls-4 {
        stroke-width: 0px;
      }

      .cls-2 {
        fill: #00a19a;
      }

      .cls-3 {
        fill: #c09b57;
      }

      .cls-4 {
        fill: #fff;
      }
    </style>
  </defs>
  <g>
    <path class="cls-4" d="M511.1,19.5h-106.4c-19.5,0-24,3.4-24,24v292.8h-217.3V43.5c0-20.6-4.6-24-24-24H32.9c-19.5,0-24,3.4-24,24v735.5c0,20.6,4.6,24,24,24h106.4c19.4,0,24-3.4,24-24v-319.1h217.3v319.1c0,20.6,4.6,24,24,24h106.4c19.4,0,24-3.4,24-24V43.5c0-20.6-4.6-24-24-24h.1Z"/>
    <path class="cls-4" d="M950.5,0C774.3,0,665.6,133.8,665.6,411.8s107.5,410.6,284.8,410.6,284.8-133.8,284.8-410.6S1126.6,0,950.5,0ZM950.5,702.3c-85.8,0-122.4-112.1-122.4-290.5s36.6-291.7,122.4-291.7,122.4,112.1,122.4,291.7-36.6,290.5-122.4,290.5h0Z"/>
    <path class="cls-4" d="M1778.4,665.7h-258.1V43.5c0-20.6-4.6-24-24-24h-106.4c-19.4,0-24,3.4-24,24v735.5c0,20.6,4.6,24,24,24h383.3c9.2,0,24.8,0,26.3-18.3l5-100.1c.8-14.6-8.1-18.9-26.1-18.9h0Z"/>
    <path class="cls-4" d="M5438.3,779h-.3l-183-327.1c42.3-21.7,130.4-56,130.4-211.6s-178.4-220.8-266.5-220.8h-185.3c-19.5,0-24,3.4-24,24v735.5c0,20.6,4.6,24,24,24h106.4c19.5,0,24-3.4,24-24v-306h51.4l158,314c8,14.9,8,16,26.3,16h122.7c20.1,0,24.5-12,15.9-24h0ZM5093.8,349.5h-29.7v-206.6h42.3c59.5,0,124.7,6.1,124.7,99.6s-62.9,107-137.3,107Z"/>
    <path class="cls-4" d="M2282.6,19.5h-461.5c-16,0-19.4,3.4-19.4,19.5v98.4c0,16,3.4,19.4,19.4,19.4h149.8v622.3c0,20.6,4.6,24,24,24h106.4c19.4,0,24-3.4,24-24V156.7h152c9.1,0,24.8,0,26.3-18.3l5-100.1c.8-14.6-8.1-18.9-26.1-18.9h.1Z"/>
    <path class="cls-4" d="M3578.4,679.5h-244.8v-206.5h194.5c19.4,0,24-3.4,24-24v-75.5c0-20.6-3.4-24-24-24h-194.5v-206.5h239.9c19.4,0,22.9-3.4,22.9-24V43.5c0-20.6-3.4-24-24-24h-369.1c-19.4,0-24,3.4-24,24v735.5c0,20.6,4.6,24,24,24h376.3c19.4,0,22.9-3.4,22.9-24v-75.5c0-20.6-3.4-24-24-24h0Z"/>
    <path class="cls-4" d="M3906.3,779c0,20.6,4.6,24,24,24h106.4c19.4,0,24-3.4,24-24v-297.4s224.6-438.5,226.1-442.7c4.6-12.4-3.4-19.5-19.5-19.5h-118.3c-18.3,0-18.3,1.1-25.2,16l-81.5,175c-14.9,30.9-29.7,66.3-50.3,133.8h-2.3c-16-59.5-33.2-97.2-45.8-124.7l-86.5-184.2c-6.9-14.9-6.9-16-25.2-16h-134.5c-16,0-24.1,7-19.4,19.5,1.6,4.2,227.8,442.7,227.8,442.7v297.4h.2Z"/>
    <path class="cls-4" d="M2987.7,19.5h-109.8c-20.6,0-21.7,2.3-27.4,18.3l-97.2,288.2c-25.2,75.5-29.7,92.6-36.6,137.3h-3.4c-6.9-44.6-11.4-61.8-36.6-137.3l-97.2-288.2c-5.7-16-6.9-18.3-27.4-18.3h-109.8c-19.4,0-21.7,5.7-24,36.6l-32,722.9c0,20.6,4.6,24,24,24h100.7c19.4,0,24-3.4,24-24l9.1-387.8c1.1-41.2,2.3-141.8,2.3-183h2.3c6.9,41.2,27.4,138.4,40,179.6l69.8,223c4.6,16,5.7,19.5,25.2,19.5h62.9c19.4,0,20.6-3.4,25.2-19.5l69.8-223c12.6-41.2,33.2-138.4,40-179.6h2.3c0,41.2,1.1,141.8,2.3,183l9.1,387.8c0,20.6,4.6,24,24,24h100.7c19.4,0,24-3.4,24-24l-32-722.9c-2.3-30.9-4.6-36.6-24-36.6h-.3Z"/>
    <path class="cls-4" d="M4765.4,679.5h-244.8v-206.5h194.5c19.5,0,24-3.4,24-24v-75.5c0-20.6-3.4-24-24-24h-194.5v-206.5h239.9c19.5,0,22.9-3.4,22.9-24V43.5c0-20.6-3.4-24-24-24h-369.1c-19.5,0-24,3.4-24,24v735.5c0,20.6,4.6,24,24,24h376.3c19.5,0,22.9-3.4,22.9-24v-75.5c0-20.6-3.4-24-24-24h0Z"/>
  </g>
  <g>
    <g>
      <rect class="cls-2" x="5050.4" y="1012" width="384.1" height="225.6" rx="15.1" ry="15.1"/>
      <rect class="cls-1" x="4627.2" y="1011.9" width="384.1" height="225.6" rx="15.1" ry="15.1"/>
      <rect class="cls-3" x="4204.1" y="1011.9" width="384.1" height="225.6" rx="15.1" ry="15.1"/>
    </g>
    <g>
      <path class="cls-4" d="M2046.7,1205.3h-72.8v-187.7c0-4.9-1.3-5.6-5.9-5.6h-25c-4.9,0-5.3.7-5.3,5.6v214.4c0,4.9.3,5.6,5.3,5.6h104.6c3.6,0,4.9-1,5.9-4.6v-20.1c.1-5.6-.9-7.6-6.8-7.6h0Z"/>
      <path class="cls-4" d="M2194.7,1205.2h-72.8v-187.7c0-4.9-1.3-5.6-5.9-5.6h-25c-4.9,0-5.3.7-5.3,5.6v214.4c0,4.9.3,5.6,5.3,5.6h104.6c3.6,0,4.9-1,5.9-4.6v-20.1c.1-5.6-.9-7.6-6.8-7.6h0Z"/>
      <path class="cls-4" d="M2346.2,1207.6h-73.3v-73.3h59.5c4.6,0,5.6-.7,5.6-5.3v-17.8c0-4.9-1-5.6-5.6-5.6h-59.5v-64.1h73.1c4.9,0,5.6-.6,5.6-5.5v-18.2c0-4.9-.7-5.9-5.6-5.9h-104c-4.9,0-5.3.7-5.3,5.6v214.4c0,4.9.3,5.6,5.3,5.6h104.2c4.9,0,5.6-.7,5.6-5.6v-18.4c0-4.9-.7-5.9-5.6-5.9h0Z"/>
      <path class="cls-4" d="M2514.4,1011.9h-122.5c-4.9,0-5.6.7-5.6,5.6v19.7c0,4.9.7,5.9,5.6,5.9h44.7v188.7c0,4.9,1,5.6,5.9,5.6h25c4.9,0,5.3-.7,5.3-5.6v-188.7h44.4c3.6,0,4.6-1,5.6-4.6v-19.1c0-6.3-2.1-7.6-8.4-7.6h0Z"/>
      <path class="cls-4" d="M2606.1,1100c-24.7-13.5-30.6-19.1-30.6-34.8s12.2-27.9,32.9-27.9,26.3,4.3,40.1,11.5c5.3,3,7.6,3.6,9.2-.3l8.6-19.7c1.3-3.3.3-4.3-2.6-6.2-14.8-9.2-36.5-14.8-55.6-14.8-41.1,0-68.7,24.3-68.7,61.2s25.3,49.3,53.3,64.4c35.8,19.4,42.7,25.3,42.7,45.7s-13.5,32.2-34.9,32.2-29.9-3.9-46.7-12.8c-2.6-1.3-7.6-5.3-9.2-1l-8.2,21.4c-1.6,4.6-1.3,5.9,2.9,8.2,15.8,8.6,41.4,14.8,60.8,14.8,42.7,0,70.7-26.3,70.7-66.1s-30.6-57.2-64.8-75.6h0v-.2Z"/>
      <path class="cls-4" d="M1891.5,1207.6h-73.3v-73.3h59.5c4.6,0,5.6-.7,5.6-5.3v-17.8c0-4.9-1-5.6-5.6-5.6h-59.5v-64.1h73.1c4.9,0,5.6-.6,5.6-5.5v-18.2c0-4.9-.7-5.9-5.6-5.9h-104c-4.9,0-5.3.7-5.3,5.6v214.4c0,4.9.3,5.6,5.3,5.6h104.2c4.9,0,5.6-.7,5.6-5.6v-18.4c0-4.9-.7-5.9-5.6-5.9h0Z"/>
      <path class="cls-4" d="M1730.5,1024.8c-10.8-9.5-25.3-12.8-53.6-12.8h-51.9c-4.9,0-5.3.7-5.3,5.6v214.4c0,4.9.3,5.6,5.3,5.6h25c4.6,0,5.9-.7,5.9-5.6v-87.1h21.4c41.8,0,71.7-24.7,71.7-71.7s-6.6-37.8-18.4-48.3h0ZM1672.3,1114.5h-16.8v-74.6h18.7c28.9,0,38.8,8.6,38.8,34.8s-14.8,39.8-40.8,39.8h.1Z"/>
    </g>
    <g>
      <path class="cls-4" d="M70.6,1100c-24.7-13.5-30.6-19.1-30.6-34.8s12.2-27.9,32.9-27.9,26.3,4.3,40.1,11.5c5.3,3,7.6,3.6,9.2-.3l8.6-19.7c1.3-3.3.3-4.3-2.6-6.2-14.8-9.2-36.5-14.8-55.6-14.8-41.1,0-68.7,24.3-68.7,61.2s25.3,49.3,53.3,64.4c35.8,19.4,42.7,25.3,42.7,45.7s-13.5,32.2-34.8,32.2-29.9-3.9-46.7-12.8c-2.6-1.3-7.6-5.3-9.2-1l-8.2,21.4c-1.6,4.6-1.3,5.9,3,8.2,15.8,8.6,41.4,14.8,60.8,14.8,42.7,0,70.7-26.3,70.7-66.1s-30.6-57.2-64.8-75.6h0v-.2Z"/>
      <path class="cls-4" d="M274.9,993.4c10.2,0,18.3-8.1,18.3-18.3s-8.1-18.9-18.3-18.9-18.3,8.7-18.3,18.9,8.1,18.3,18.3,18.3Z"/>
      <path class="cls-4" d="M213.3,993.4c10.2,0,18.6-8.4,18.6-18.3s-8.4-18.9-18.6-18.9-18,8.7-18,18.9,7.8,18.3,18,18.3Z"/>
      <path class="cls-4" d="M485.6,1121.1h-53.3c-4.9,0-5.6,1-5.6,5.9v17.8c0,4.9.7,5.6,5.6,5.6h25.3v56.9c-8.5,3.9-16.8,5.9-25.3,5.9-46.7,0-49-53.9-49-91.1,0-59.2,14.8-86.5,47.3-86.5s22,3,40.4,13.8c2,1,4.6,2.3,6.6-1.3l8.5-16.8c1.6-3.3,2-5.6-1.3-7.9-14.5-10.5-34.9-16.8-54.9-16.8-55.2,0-84.2,41.1-84.2,119.7s28.3,116.1,83.5,116.1,42.4-5.3,56.9-14.1c4.3-2.6,5.3-3.9,5.3-7.2v-94c0-4.9-1.3-5.9-5.9-5.9h.1Z"/>
      <path class="cls-4" d="M647.6,1207.6h-73.3v-73.3h59.5c4.6,0,5.6-.7,5.6-5.3v-17.8c0-4.9-1-5.6-5.6-5.6h-59.5v-64.1h73.1c4.9,0,5.6-.6,5.6-5.5v-18.2c0-4.9-.7-5.9-5.6-5.9h-104c-4.9,0-5.3.7-5.3,5.6v214.4c0,4.9.3,5.6,5.3,5.6h104.2c4.9,0,5.6-.7,5.6-5.6v-18.4c0-4.9-.7-5.9-5.6-5.9h0Z"/>
      <path class="cls-4" d="M1045.6,1207.6h-73.3v-73.3h59.5c4.6,0,5.6-.7,5.6-5.3v-17.8c0-4.9-1-5.6-5.6-5.6h-59.5v-64.1h73.1c4.9,0,5.6-.6,5.6-5.5v-18.2c0-4.9-.7-5.9-5.6-5.9h-104c-4.9,0-5.3.7-5.3,5.6v214.4c0,4.9.3,5.6,5.3,5.6h104.2c4.9,0,5.6-.7,5.6-5.6v-18.4c0-4.9-.7-5.9-5.6-5.9h0Z"/>
      <path class="cls-4" d="M328.4,1229.3l-65.4-212.7c-1.3-4.3-1.3-4.6-5.9-4.6h-27c-4.3,0-4.6.3-5.9,4.6l-65.4,212.7c-1.3,4.6-2.6,8.2,4.6,8.2h26.3c3.9,0,5.3-.7,6.2-4.6l16.1-58.9h61.2l16.1,58.9c1,3.9,2.3,4.6,6.2,4.6h28.3c6.9,0,5.9-3.6,4.6-8.2h0ZM219.2,1144.2l17.1-66.1c2.6-10.8,4.9-22.4,7.2-36.2,2.6,14.1,4.9,25.6,7.6,36.2l16.4,66.1h-48.3Z"/>
      <path class="cls-4" d="M1235.4,1226.6l-51-90.8c26.6-11.5,39.8-32.2,39.8-63.5s-6.6-37.8-19.1-48c-11.5-9.5-24.7-12.5-52.3-12.5h-52.3c-4.9,0-5.3.7-5.3,5.6v213.7c0,5.3.3,6.2,5.3,6.2h24.3c4.9,0,5.9-.7,5.9-5.6v-91.7h21l49.2,92.7h0l1.2,2.2c1.4,2.5,1.4,2.2,5.3,2.2h24.2c7.4,0,5.9-6.7,3.5-10.7l.3.2ZM1147.6,1111.6h-17.1v-72.7h19.4c27.9,0,37.8,8.6,37.8,33.9s-12.2,38.8-40.1,38.8h0Z"/>
      <path class="cls-4" d="M900.4,1012h-22c-3.5,0-4.8.5-5.6,2.7l-.5,1.7c0,.5-.2,1.1-.3,1.7l-22.9,126.5c-3.3,17.9-4.9,36.2-6.2,54.4-1.6-16.3-3.9-33.2-6.8-49.2l-24.1-131.7c-1-4.6-1.3-5.5-6.2-5.5h-21.8c-4.6,0-4.9.7-5.9,4.9l-27,128.7c-3.6,16.9-5.5,34.5-7.8,51.5-1.3-20.9-2.3-35.5-4.6-47.9l-23.8-129.4c-1-6.2-1.2-8.3-6.7-8.3h-21.8c-5.7,0-6.4,2.5-5.4,7.1l41.7,214.1c1,4.6,1.6,4.6,6.2,4.6h24.8c4.2,0,4.9-.3,5.9-4.6l23.8-115.7c1.6-8.5,9.5-48.9,10.1-57.4.7,9.1,6.8,48.2,8.5,57.4l20.2,115.7c.7,4.2,1.3,4.6,5.9,4.6h25.1c4.2,0,5.2-.3,6.2-4.6l46-210.8.6-3.2c1-4.6.4-7.1-5.4-7.1h0l-.2-.2Z"/>
      <path class="cls-4" d="M1423.8,1226.8l-5.1-6.4-78.2-96.7,71.3-94c1.9-2.8,8.4-11.3,8.4-11.3,2.4-4.1,3.4-6.4-4.3-6.4h-25.2c-2.7,0-3.6,0-4.3.3l-78.4,105.2v-100c0-4.9-1.3-5.6-5.9-5.6h-25c-4.9,0-5.3.7-5.3,5.6v214.4c0,4.9.3,5.6,5.3,5.6h25c4.6,0,5.9-.7,5.9-5.6v-97.3l77.1,100.7c1.6,2.5,1.6,2.2,6.2,2.2h28.4c8.7,0,6.9-6.7,4.1-10.7h0Z"/>
    </g>
    <g>
      <path class="cls-4" d="M3173.1,1012h-19.7c-4.9,0-5.6.7-5.6,5.6v127.9c0,11.5.3,23.3,1.3,34.8-3.9-12.5-7.6-23.7-15.1-38.8l-62.5-125.3c-2-3.9-2.6-4.3-6.6-4.3h-23.7c-4.9,0-5.6.7-5.6,5.6v214.4c0,4.9.7,5.6,5.6,5.6h19.7c4.9,0,5.9-.7,5.9-5.6v-136.4c0-12.2-1-24-2-36.2,3.9,12.5,7.6,23.7,15.1,38.8l66.4,134.8c2,3.9,2.9,4.6,6.9,4.6h19.7c4.9,0,5.6-.7,5.6-5.6v-214.4c0-4.9-.7-5.6-5.6-5.6h.2Z"/>
      <path class="cls-4" d="M3341.7,1207.7h-73.3v-73.3h59.5c4.6,0,5.6-.7,5.6-5.3v-17.8c0-4.9-1-5.6-5.6-5.6h-59.5v-64.1h73.1c4.9,0,5.6-.6,5.6-5.5v-18.2c0-4.9-.7-5.9-5.6-5.9h-104c-4.9,0-5.3.7-5.3,5.6v214.4c0,4.9.3,5.6,5.3,5.6h104.2c4.9,0,5.6-.7,5.6-5.6v-18.4c0-4.9-.7-5.9-5.6-5.9h0Z"/>
      <path class="cls-4" d="M3704.2,1121.1h-53.3c-4.9,0-5.6,1-5.6,5.9v17.8c0,4.9.7,5.6,5.6,5.6h25.3v56.9c-8.6,3.9-16.8,5.9-25.3,5.9-46.7,0-49-53.9-49-91.1,0-59.2,14.8-86.5,47.4-86.5s22,3,40.4,13.8c2,1,4.6,2.3,6.6-1.3l8.6-16.8c1.6-3.3,2-5.6-1.3-7.9-14.5-10.5-34.9-16.8-54.9-16.8-55.2,0-84.2,41.1-84.2,119.7s28.3,116.1,83.5,116.1,42.4-5.3,56.9-14.1c4.3-2.6,5.3-3.9,5.3-7.2v-94c0-4.9-1.3-5.9-5.9-5.9h-.1Z"/>
      <path class="cls-4" d="M2989.1,1207.6h-73.3v-73.3h59.5c4.6,0,5.6-.7,5.6-5.3v-17.8c0-4.9-1-5.6-5.6-5.6h-59.5v-64.1h73.1c4.9,0,5.6-.6,5.6-5.5v-18.2c0-4.9-.7-5.9-5.6-5.9h-104c-4.9,0-5.3.7-5.3,5.6v214.4c0,4.9.3,5.6,5.3,5.6h104.2c4.9,0,5.6-.7,5.6-5.6v-18.4c0-4.9-.7-5.9-5.6-5.9h0Z"/>
      <path class="cls-4" d="M3974.8,1207.6h-73.3v-73.3h59.5c4.6,0,5.6-.7,5.6-5.3v-17.8c0-4.9-1-5.6-5.6-5.6h-59.5v-64.1h73.1c4.9,0,5.6-.6,5.6-5.5v-18.2c0-4.9-.7-5.9-5.6-5.9h-104c-4.9,0-5.3.7-5.3,5.6v214.4c0,4.9.3,5.6,5.3,5.6h104.2c4.9,0,5.6-.7,5.6-5.6v-18.4c0-4.9-.7-5.9-5.6-5.9h0Z"/>
      <path class="cls-4" d="M3533.1,1226.6l-51-90.8c26.6-11.5,39.8-32.2,39.8-63.5s-6.6-37.8-19.1-48c-11.5-9.5-24.7-12.5-52.3-12.5h-52.3c-4.9,0-5.3.7-5.3,5.6v213.7c0,5.3.3,6.2,5.3,6.2h24.3c4.9,0,5.9-.7,5.9-5.6v-91.7h21l49.2,92.7h0l1.2,2.2c1.4,2.5,1.4,2.2,5.3,2.2h24.2c7.4,0,5.9-6.7,3.5-10.7l.3.2ZM3445.3,1111.6h-17.1v-72.7h19.4c27.9,0,37.8,8.6,37.8,33.9s-12.2,38.8-40.1,38.8h0Z"/>
      <path class="cls-4" d="M3800.4,1011.8h-23.6c-5.6,0-6.2.7-6.2,5.6v216.3c.3,3.1,1.7,3.7,6.4,3.7h23.4c5.6,0,6.3-.7,6.3-5.6v-214.4c0-4.9-.7-5.6-6.3-5.6h0Z"/>
    </g>
  </g>
</svg>