<?xml version="1.0" encoding="UTF-8"?>
<svg id="Ebene_1" data-name="Ebene 1" xmlns="http://www.w3.org/2000/svg" xmlns:xlink="http://www.w3.org/1999/xlink" version="1.1" viewBox="0 0 1600 1200">
  <defs>
    <style>
      .cls-1 {
        clip-path: url(#clippath);
      }

      .cls-2, .cls-3, .cls-4 {
        fill: none;
      }

      .cls-2, .cls-5 {
        stroke-width: 0px;
      }

      .cls-3 {
        stroke-width: .9px;
      }

      .cls-3, .cls-4 {
        stroke: #fff;
        stroke-miterlimit: 10;
      }

      .cls-6 {
        clip-path: url(#clippath-1);
      }

      .cls-7 {
        clip-path: url(#clippath-2);
      }

      .cls-8 {
        opacity: .8;
      }

      .cls-5 {
        fill: #fff;
      }
    </style>
    <clipPath id="clippath">
      <rect class="cls-2" x="122.1" y="149.5" width="467.8" height="470.5"/>
    </clipPath>
    <clipPath id="clippath-1">
      <rect class="cls-2" x="122.1" y="149.5" width="467.8" height="470.5"/>
    </clipPath>
    <clipPath id="clippath-2">
      <rect class="cls-2" x="98.1" y="130.9" width="515.8" height="491.8"/>
    </clipPath>
  </defs>
  <g>
    <line class="cls-3" x1="698.5" y1="384.8" x2="965.9" y2="384.8"/>
    <path class="cls-5" d="M956.6,391.3c-.2-.3-.1-.7.2-.9l8.8-5.6-8.8-5.6c-.3-.2-.4-.6-.2-.9.2-.3.6-.4.9-.2l9.6,6.1c.2.1.3.3.3.6s-.1.5-.3.6l-9.6,6.1c-.1,0-.2.1-.4.1-.2,0-.4-.1-.6-.3h0Z"/>
  </g>
  <g class="cls-1">
    <g class="cls-6">
      <g class="cls-8">
        <g class="cls-7">
          <path class="cls-4" d="M356,411.2c-14.5,0-26.3-11.9-26.3-26.5s11.8-26.5,26.3-26.5,26.3,11.9,26.3,26.5-11.8,26.5-26.3,26.5M578.1,380.9l11.8,3.9s1.2-13.2-12.9-19.6h0s0,0,0,0c-8.2-3.8-8.2-13.9-1.3-13.3l12.2,2.3s-.5-13.3-15.3-17.8c0,0,0,0,0,0h0c-8.6-2.7-9.9-12.7-3-13l12.4.6s-2.2-13.1-17.5-15.6h0,0c-8.9-1.5-11.5-11.3-4.7-12.5l12.3-1s-3.9-12.7-19.4-13.2h0,0c-9-.4-12.9-9.7-6.2-11.8l12.1-2.6s-5.5-12.1-20.9-10.5h0,0c-9,.8-14-7.9-7.7-10.9l11.7-4.2s-7-11.2-22.1-7.7h0,0c-8.8,2-14.9-6-9.1-9.8l11-5.6s-8.4-10.2-22.9-4.7c0,0,0,0,0,0h0c-8.5,3.1-15.6-4-10.3-8.5l10.2-7.1s-9.7-9-23.4-1.6c0,0,0,0,0,0h0c-8,4.2-15.9-1.9-11.3-7.1l9.2-8.3s-10.8-7.7-23.4,1.4c0,0,0,0,0,0h0c-7.4,5.2-16,.2-12.1-5.6l8-9.5s-11.7-6.2-23,4.5c0,0,0,0,0,0h0c-6.6,6.1-15.9,2.3-12.7-4l6.7-10.4s-12.4-4.6-22.2,7.5c0,0,0,0,0,0h0c-5.8,6.9-15.4,4.4-13.1-2.2l5.3-11.2s-12.9-3-21,10.3c0,0,0,0,0,0h0c-4.8,7.6-14.8,6.3-13.3-.5l3.8-11.8s-13.1-1.2-19.5,13c0,0,0,0,0,0h0c-3.8,8.2-13.8,8.2-13.2,1.2l2.3-12.2s-13.2.5-17.7,15.4c0,0,0,0,0,0h0c-2.7,8.6-12.6,10-13,3l.6-12.4s-13,2.2-15.5,17.6h0s0,0,0,0c-1.5,8.9-11.2,11.6-12.5,4.7l-1-12.4s-12.6,3.9-13.1,19.5h0s0,0,0,0c-.4,9.1-9.6,12.9-11.8,6.3l-2.6-12.2s-12,5.5-10.4,21.1h0s0,0,0,0c.8,9-7.8,14.1-10.8,7.8l-4.1-11.7s-11.2,7.1-7.6,22.2h0s0,0,0,0c2,8.9-5.9,15-9.7,9.1l-5.6-11.1s-10.2,8.5-4.7,23.1c0,0,0,0,0,0h0c3.1,8.5-3.9,15.6-8.5,10.3l-7-10.3s-9,9.7-1.6,23.5h0s0,0,0,0c4.2,8-1.9,16-7.1,11.3l-8.3-9.3s-7.6,10.8,1.4,23.5c0,0,0,0,0,0h0c5.2,7.4.2,16.1-5.5,12.2l-9.4-8.1s-6.2,11.7,4.5,23.1c0,0,0,0,0,0h0c6.1,6.6,2.3,16-3.9,12.8l-10.4-6.8s-4.6,12.4,7.4,22.3c0,0,0,0,0,0h0c6.9,5.8,4.4,15.5-2.2,13.2l-11.2-5.4s-2.9,12.9,10.3,21.1c0,0,0,0,0,0h0c7.6,4.8,6.3,14.8-.5,13.4l-11.8-3.9s-1.2,13.2,12.9,19.6c0,0,0,0,0,0h0c8.2,3.8,8.2,13.9,1.3,13.3l-12.2-2.3s.5,13.3,15.3,17.8c0,0,0,0,0,0h0c8.6,2.7,9.9,12.7,3,13l-12.4-.6s2.2,13.1,17.5,15.6h0,0c8.9,1.5,11.5,11.3,4.6,12.5l-12.4,1s3.9,12.7,19.4,13.2h0,0c9,.4,12.9,9.7,6.2,11.8l-12.1,2.6s5.5,12.1,20.9,10.5h0,0c9-.8,14,7.9,7.7,10.9l-11.7,4.2s7,11.2,22.1,7.7h0,0c8.8-2,14.9,6,9.1,9.8l-11,5.7s8.4,10.2,22.9,4.7c0,0,0,0,0,0h0c8.5-3.1,15.6,4,10.3,8.6l-10.2,7s9.7,9,23.4,1.6c0,0,0,0,0,0h0c8-4.2,15.9,1.9,11.3,7.1l-9.2,8.3s10.8,7.7,23.4-1.4c0,0,0,0,0,0h0c7.4-5.2,16-.2,12.1,5.6l-8,9.5s11.7,6.2,23-4.5c0,0,0,0,0,0h0c6.6-6.1,15.9-2.3,12.7,4l-6.7,10.5s12.4,4.6,22.2-7.5c0,0,0,0,0,0h0c5.8-6.9,15.4-4.3,13.1,2.2l-5.3,11.2s12.9,3,21-10.3c0,0,0,0,0,0h0c4.8-7.6,14.8-6.3,13.3.5l-3.8,11.8s13.1,1.2,19.5-13c0,0,0,0,0,0h0c3.8-8.2,13.8-8.2,13.2-1.2l-2.3,12.2s13.2-.5,17.7-15.4c0,0,0,0,0,0h0c2.7-8.6,12.6-10,13-3l-.6,12.4s13-2.2,15.5-17.6h0s0,0,0,0c1.5-9,11.2-11.6,12.5-4.7l1,12.4s12.6-3.9,13.1-19.5h0s0,0,0,0c.4-9.1,9.6-12.9,11.8-6.3l2.6,12.2s12-5.5,10.5-21.1h0s0,0,0,0c-.8-9,7.9-14.1,10.9-7.8l4.1,11.7s11.2-7.1,7.6-22.2h0s0,0,0,0c-2-8.8,6-15,9.7-9.1l5.6,11.1s10.2-8.5,4.7-23.1c0,0,0,0,0,0h0c-3.1-8.5,4-15.6,8.5-10.3l7,10.3s9-9.7,1.6-23.5c0,0,0,0,0,0h0c-4.2-8,1.9-16,7.1-11.3l8.3,9.3s7.6-10.8-1.4-23.5c0,0,0,0,0,0h0c-5.2-7.4-.2-16.1,5.5-12.2l9.4,8.1s6.2-11.7-4.5-23.1h0s0,0,0,0c-6.1-6.7-2.3-16,3.9-12.8l10.4,6.8s4.6-12.5-7.4-22.3c0,0,0,0,0,0h0c-6.9-5.8-4.4-15.5,2.2-13.2l11.2,5.4s3-12.9-10.2-21.2c0,0,0,0,0,0h0c-7.6-4.8-6.3-14.8.5-13.4"/>
        </g>
      </g>
    </g>
  </g>
  <g class="cls-8">
    <path class="cls-5" d="M1600,128.9h0c0,0-.6,0-1.7,0h1.7Z"/>
    <path class="cls-5" d="M1592,153.7l8-24.7v36.5c-5.5-.8-9.4-5-8-11.8h0Z"/>
    <polygon class="cls-5" points="1111.8 620 1111.8 620 1111.8 620 1111.8 620"/>
    <path class="cls-5" d="M1600,165.5v399.2c-30.3,0-54.9,24.7-54.9,55.2h-397c.9-6.2-2.3-14.5-10.7-19.9h0s0,0,0,0c-27.6-17.1-21.4-44.2-21.4-44.2l23.3,11.2c13.7,4.9,19.1-15.5,4.6-27.5h0s0,0,0,0c-25.1-20.6-15.5-46.6-15.5-46.6l21.7,14.2c13,6.6,20.9-12.8,8.2-26.7h0s0,0,0,0c-22.2-23.7-9.3-48.2-9.3-48.2l19.7,16.9c12,8.3,22.4-9.9,11.6-25.4h0s0,0,0,0c-18.9-26.4-3-49-3-49l17.3,19.3c10.8,9.8,23.5-6.9,14.8-23.7h0s0,0,0,0c-15.3-28.7,3.4-49,3.4-49l14.6,21.4c9.4,11.1,24.2-3.8,17.7-21.5h0s0,0,0,0c-11.5-30.5,9.8-48.1,9.8-48.1l11.7,23.2c7.9,12.3,24.5-.6,20.3-19h0s0,0,0,0c-7.4-31.7,15.9-46.4,15.9-46.4l8.6,24.5c6.3,13.2,24.4,2.7,22.6-16.2h0c0,0,0,0,0,0-3.2-32.4,21.8-44,21.8-44l5.4,25.4c4.5,13.9,23.8,5.8,24.6-13.1h0c0,0,0,0,0,0,1-32.6,27.3-40.7,27.3-40.7l2,25.9c2.7,14.4,22.9,8.9,26-9.8h0c0,0,0,0,0,0,5.2-32.2,32.4-36.8,32.4-36.8l-1.3,26c.8,14.6,21.5,11.8,27.1-6.3h0c0,0,0,0,0,0,9.3-31.2,36.9-32.2,36.9-32.2l-4.7,25.6c-1.1,14.6,19.8,14.6,27.7-2.6h0c0,0,0,0,0,0,.2-.4.4-.8.6-1.2.1-.3.2-.5.4-.8.5-1,1-1.9,1.5-2.9.2-.4.4-.8.7-1.1.3-.5.6-.9.8-1.4.2-.4.5-.7.7-1.1.1-.2.2-.4.4-.5.2-.3.4-.6.7-.9.3-.4.6-.8.9-1.2.3-.4.6-.8.9-1.1.3-.4.6-.7.9-1.1.3-.3.6-.6.8-.9,1.6-1.7,3.3-3.2,4.9-4.5.5-.4,1-.7,1.4-1.1.4-.3.7-.5,1.1-.8.2-.1.4-.2.6-.4,0,0,0,0,0,0,.4-.2.8-.5,1.2-.7.3-.1.5-.3.8-.4.8-.4,1.5-.8,2.3-1.2.2-.1.5-.2.8-.4.5-.2,1-.4,1.5-.6.2-.1.5-.2.7-.3.9-.4,1.9-.7,2.8-.9,0,0,.2,0,.2,0,.4-.1.8-.2,1.1-.3,1.6-.4,3.2-.7,4.5-.9.3,0,.6,0,.8-.1,2.1-.3,3.8-.3,4.9-.3s1.7,0,1.7,0l-8,24.7c-1.4,6.8,2.4,10.9,8,11.8h0Z"/>
    <path class="cls-5" d="M1111.8,620s0,.6,0,1.6v-1.6h0Z"/>
    <path class="cls-5" d="M2062.7,639.9h0s0,0,0,0c27.6,17.2,21.4,44.2,21.4,44.2l-23.3-11.2c-13.7-4.9-19.1,15.4-4.6,27.5h0s0,0,0,0c25.1,20.6,15.5,46.6,15.5,46.6l-21.7-14.2c-13-6.6-20.9,12.8-8.2,26.7h0s0,0,0,0c22.2,23.7,9.3,48.2,9.3,48.2l-19.7-16.9c-12-8.3-22.4,10-11.6,25.4h0s0,0,0,0c18.9,26.4,3,49,3,49l-17.3-19.3c-10.8-9.8-23.5,6.9-14.7,23.7h0s0,0,0,0c15.3,28.7-3.4,49-3.4,49l-14.6-21.4c-9.4-11.1-24.2,3.8-17.7,21.5h0s0,0,0,0c11.5,30.5-9.8,48.2-9.8,48.2l-11.7-23.2c-7.9-12.3-24.5.6-20.3,19h0s0,0,0,0c7.4,31.7-15.9,46.5-15.9,46.5l-8.6-24.5c-6.3-13.2-24.4-2.7-22.6,16.2h0c0,0,0,0,0,0,3.2,32.4-21.8,44-21.8,44l-5.4-25.4c-4.5-13.9-23.8-5.8-24.6,13.1h0c0,0,0,0,0,0-1,32.6-27.3,40.7-27.3,40.7l-2-25.9c-2.7-14.4-22.9-8.9-26,9.8h0c0,0,0,0,0,0-5.2,32.2-32.4,36.8-32.4,36.8l1.3-26c-.8-14.6-21.5-11.8-27.1,6.3h0c0,0,0,0,0,0-9.3,31.2-36.9,32.2-36.9,32.2l4.7-25.6c1.1-14.6-19.8-14.6-27.7,2.7h0c0,0,0,0,0,0-10.8,24.1-30.9,26.9-38.1,27.2-.7,0-1.3,0-1.7,0-.6,0-1,0-1,0l8-24.7c3-14.3-17.7-17-27.8-1h0c0,0,0,0,0,0-17.1,27.7-43.9,21.5-43.9,21.5l11.1-23.5c4.8-13.8-15.4-19.2-27.4-4.6h0c0,0,0,0,0,0-20.5,25.2-46.3,15.6-46.3,15.6l14.1-21.8c6.6-13-12.7-21.1-26.6-8.2h0c0,0,0,0,0,0-23.6,22.3-48,9.4-48,9.4l16.8-19.8c8.2-12.1-9.9-22.6-25.3-11.6h0c0,0,0,0,0,0-26.3,19-48.8,3-48.8,3l19.2-17.4c9.7-10.9-6.9-23.7-23.6-14.8h0c0,0,0,0,0,0-28.5,15.4-48.7-3.4-48.7-3.4l21.3-14.7c11.1-9.5-3.7-24.4-21.4-17.8h0s0,0,0,0c-30.3,11.5-47.9-9.8-47.9-9.8l23-11.8c12.2-8-.6-24.6-18.9-20.5h0s0,0,0,0c-31.5,7.5-46.2-16-46.2-16l24.4-8.7c13.1-6.3,2.7-24.5-16.1-22.8h0s0,0,0,0c-32.2,3.3-43.7-21.9-43.7-21.9l25.3-5.4c13.8-4.5,5.8-24-13-24.7h0s0,0,0,0c-32.4-1-40.5-27.5-40.5-27.5l25.8-2c14.3-2.7,8.9-23-9.7-26.2h0s0,0,0,0c-32-5.2-36.6-32.6-36.6-32.6l25.8,1.4c14.5-.8,11.8-21.6-6.2-27.2h0s0,0,0,0c-31-9.4-32.1-37.1-32.1-37.1l25.4,4.7c14.5,1.2,14.5-19.9-2.6-27.8h0s0,0,0,0c-24.9-11.3-27-32.7-27-39.1v-.3c0-1,0-1.6,0-1.6h0l24.6,8c6.7,1.4,10.9-2.5,11.7-8h397c0,30.5,24.6,55.3,54.9,55.3s54.9-24.8,54.9-55.3-24.6-55.2-54.9-55.2V165.5c6.2.9,14.5-2.3,19.8-10.8h0c0,0,0,0,0,0,17.1-27.7,43.9-21.5,43.9-21.5l-11.1,23.5c-4.8,13.8,15.4,19.2,27.4,4.6h0c0,0,0,0,0,0,20.5-25.2,46.3-15.6,46.3-15.6l-14.1,21.8c-6.6,13,12.7,21.1,26.6,8.2h0c0,0,0,0,0,0,23.6-22.3,48-9.4,48-9.4l-16.8,19.8c-8.2,12.1,9.9,22.6,25.3,11.6h0c0,0,0,0,0,0,26.3-19,48.8-3,48.8-3l-19.2,17.4c-9.7,10.9,6.9,23.7,23.6,14.8h0c0,0,0,0,0,0,28.5-15.4,48.7,3.4,48.7,3.4l-21.3,14.7c-11.1,9.5,3.8,24.4,21.4,17.8h0s0,0,0,0c30.3-11.6,47.9,9.8,47.9,9.8l-23,11.8c-12.2,8,.6,24.6,18.9,20.5h0s0,0,0,0c31.5-7.5,46.2,16,46.2,16l-24.4,8.7c-13.1,6.3-2.7,24.5,16.1,22.8h0s0,0,0,0c32.2-3.3,43.7,21.9,43.7,21.9l-25.3,5.4c-13.8,4.5-5.8,24,13,24.7h0s0,0,0,0c32.4,1,40.5,27.5,40.5,27.5l-25.8,2c-14.3,2.7-8.9,23,9.7,26.2h0s0,0,0,0c32,5.2,36.6,32.6,36.6,32.6l-25.8-1.4c-14.5.8-11.8,21.6,6.2,27.2h0s0,0,0,0c31,9.4,32.1,37.1,32.1,37.1l-25.4-4.7c-14.5-1.1-14.5,19.9,2.6,27.8h0s0,0,0,0c25.1,11.4,27,33.1,27,39.3s0,1.7,0,1.7l-24.6-8c-14.2-3-16.9,17.8-1,27.9h0Z"/>
  </g>
</svg>