<?xml version="1.0" encoding="UTF-8"?>
<svg id="Ebene_1" data-name="Ebene 1" xmlns="http://www.w3.org/2000/svg" xmlns:xlink="http://www.w3.org/1999/xlink" version="1.1" viewBox="0 0 1600 1200">
  <defs>
    <style>
      .cls-1 {
        clip-path: url(#clippath);
      }

      .cls-2, .cls-3, .cls-4 {
        stroke-width: 0px;
      }

      .cls-2, .cls-5, .cls-6 {
        fill: none;
      }

      .cls-3 {
        opacity: .8;
      }

      .cls-3, .cls-4 {
        fill: #fff;
      }

      .cls-5 {
        stroke-width: .9px;
      }

      .cls-5, .cls-6 {
        stroke: #fff;
        stroke-miterlimit: 10;
      }

      .cls-7 {
        clip-path: url(#clippath-1);
      }

      .cls-8 {
        clip-path: url(#clippath-2);
      }

      .cls-9 {
        opacity: .8;
      }
    </style>
    <clipPath id="clippath">
      <rect class="cls-2" x="122.1" y="149.5" width="467.8" height="470.5"/>
    </clipPath>
    <clipPath id="clippath-1">
      <rect class="cls-2" x="122.1" y="149.5" width="467.8" height="470.5"/>
    </clipPath>
    <clipPath id="clippath-2">
      <rect class="cls-2" x="98.1" y="130.9" width="515.8" height="491.8"/>
    </clipPath>
  </defs>
  <g>
    <line class="cls-5" x1="698.5" y1="384.8" x2="965.9" y2="384.8"/>
    <path class="cls-4" d="M956.6,391.3c-.2-.3,0-.7.2-.9l8.8-5.6-8.8-5.6c-.3-.2-.4-.6-.2-.9s.6-.4.9-.2l9.6,6.1c.2.1.3.3.3.6s0,.5-.3.6l-9.6,6.1c0,0-.2.1-.4.1s-.4-.1-.6-.3h0Z"/>
  </g>
  <g class="cls-1">
    <g class="cls-7">
      <g class="cls-9">
        <g class="cls-8">
          <path class="cls-6" d="M356,411.2c-14.5,0-26.3-11.9-26.3-26.5s11.8-26.5,26.3-26.5,26.3,11.9,26.3,26.5-11.8,26.5-26.3,26.5M578.1,380.9l11.8,3.9s1.2-13.2-12.9-19.6h0c-8.2-3.8-8.2-13.9-1.3-13.3l12.2,2.3s-.5-13.3-15.3-17.8h0c-8.6-2.7-9.9-12.7-3-13l12.4.6s-2.2-13.1-17.5-15.6h0c-8.9-1.5-11.5-11.3-4.7-12.5l12.3-1s-3.9-12.7-19.4-13.2h0c-9-.4-12.9-9.7-6.2-11.8l12.1-2.6s-5.5-12.1-20.9-10.5h0c-9,.8-14-7.9-7.7-10.9l11.7-4.2s-7-11.2-22.1-7.7h0c-8.8,2-14.9-6-9.1-9.8l11-5.6s-8.4-10.2-22.9-4.7h0c-8.5,3.1-15.6-4-10.3-8.5l10.2-7.1s-9.7-9-23.4-1.6h0c-8,4.2-15.9-1.9-11.3-7.1l9.2-8.3s-10.8-7.7-23.4,1.4h0c-7.4,5.2-16,.2-12.1-5.6l8-9.5s-11.7-6.2-23,4.5h0c-6.6,6.1-15.9,2.3-12.7-4l6.7-10.4s-12.4-4.6-22.2,7.5h0c-5.8,6.9-15.4,4.4-13.1-2.2l5.3-11.2s-12.9-3-21,10.3h0c-4.8,7.6-14.8,6.3-13.3-.5l3.8-11.8s-13.1-1.2-19.5,13h0c-3.8,8.2-13.8,8.2-13.2,1.2l2.3-12.2s-13.2.5-17.7,15.4h0c-2.7,8.6-12.6,10-13,3l.6-12.4s-13,2.2-15.5,17.6h0c-1.5,8.9-11.2,11.6-12.5,4.7l-1-12.4s-12.6,3.9-13.1,19.5h0c-.4,9.1-9.6,12.9-11.8,6.3l-2.6-12.2s-12,5.5-10.4,21.1h0c.8,9-7.8,14.1-10.8,7.8l-4.1-11.7s-11.2,7.1-7.6,22.2h0c2,8.9-5.9,15-9.7,9.1l-5.6-11.1s-10.2,8.5-4.7,23.1h0c3.1,8.5-3.9,15.6-8.5,10.3l-7-10.3s-9,9.7-1.6,23.5h0c4.2,8-1.9,16-7.1,11.3l-8.3-9.3s-7.6,10.8,1.4,23.5h0c5.2,7.4.2,16.1-5.5,12.2l-9.4-8.1s-6.2,11.7,4.5,23.1h0c6.1,6.6,2.3,16-3.9,12.8l-10.4-6.8s-4.6,12.4,7.4,22.3h0c6.9,5.8,4.4,15.5-2.2,13.2l-11.2-5.4s-2.9,12.9,10.3,21.1h0c7.6,4.8,6.3,14.8-.5,13.4l-11.8-3.9s-1.2,13.2,12.9,19.6h0c8.2,3.8,8.2,13.9,1.3,13.3l-12.2-2.3s.5,13.3,15.3,17.8h0c8.6,2.7,9.9,12.7,3,13l-12.4-.6s2.2,13.1,17.5,15.6h0c8.9,1.5,11.5,11.3,4.6,12.5l-12.4,1s3.9,12.7,19.4,13.2h0c9,.4,12.9,9.7,6.2,11.8l-12.1,2.6s5.5,12.1,20.9,10.5h0c9-.8,14,7.9,7.7,10.9l-11.7,4.2s7,11.2,22.1,7.7h0c8.8-2,14.9,6,9.1,9.8l-11,5.7s8.4,10.2,22.9,4.7h0c8.5-3.1,15.6,4,10.3,8.6l-10.2,7s9.7,9,23.4,1.6h0c8-4.2,15.9,1.9,11.3,7.1l-9.2,8.3s10.8,7.7,23.4-1.4h0c7.4-5.2,16-.2,12.1,5.6l-8,9.5s11.7,6.2,23-4.5h0c6.6-6.1,15.9-2.3,12.7,4l-6.7,10.5s12.4,4.6,22.2-7.5h0c5.8-6.9,15.4-4.3,13.1,2.2l-5.3,11.2s12.9,3,21-10.3h0c4.8-7.6,14.8-6.3,13.3.5l-3.8,11.8s13.1,1.2,19.5-13h0c3.8-8.2,13.8-8.2,13.2-1.2l-2.3,12.2s13.2-.5,17.7-15.4h0c2.7-8.6,12.6-10,13-3l-.6,12.4s13-2.2,15.5-17.6h0c1.5-9,11.2-11.6,12.5-4.7l1,12.4s12.6-3.9,13.1-19.5h0c.4-9.1,9.6-12.9,11.8-6.3l2.6,12.2s12-5.5,10.5-21.1h0c-.8-9,7.9-14.1,10.9-7.8l4.1,11.7s11.2-7.1,7.6-22.2h0c-2-8.8,6-15,9.7-9.1l5.6,11.1s10.2-8.5,4.7-23.1h0c-3.1-8.5,4-15.6,8.5-10.3l7,10.3s9-9.7,1.6-23.5h0c-4.2-8,1.9-16,7.1-11.3l8.3,9.3s7.6-10.8-1.4-23.5h0c-5.2-7.4-.2-16.1,5.5-12.2l9.4,8.1s6.2-11.7-4.5-23.1h0c-6.1-6.7-2.3-16,3.9-12.8l10.4,6.8s4.6-12.5-7.4-22.3h0c-6.9-5.8-4.4-15.5,2.2-13.2l11.2,5.4s3-12.9-10.2-21.2h0c-7.6-4.8-6.3-14.8.5-13.4"/>
        </g>
      </g>
    </g>
  </g>
  <g>
    <polygon class="cls-3" points="1599.7 1110.8 1599.7 1110.8 1599.7 1110.8 1599.7 1110.8"/>
    <path class="cls-3" d="M1599.7,675.4c-71.8-1.4-72.7-109.5-.2-110.7h.2c0,.1,0-399,0-399-5.3-.5-9.3-4-8.4-11.5,0,0,8-24.7,8-24.7-16.7-1.1-32.8,9.9-39.6,25.1-6.3,17.6-29.8,20.8-28.7,4.6,0,0,4.7-25.6,4.7-25.6,0,0-27.6,1-36.9,32.2-5.6,18.1-26.3,20.9-27.1,6.3l1.3-26s-27.2,4.6-32.4,36.8c-3.1,18.7-23.3,24.2-26,9.8l-2-25.9s-26.3,8.1-27.3,40.7c-.8,18.9-20.1,27-24.6,13.1l-5.4-25.4s-25,11.6-21.8,44c1.8,18.9-16.3,29.4-22.6,16.2l-8.6-24.5s-23.3,14.7-15.9,46.4c4.2,18.4-12.4,31.3-20.3,19l-11.7-23.2s-21.3,17.6-9.8,48.1c6.5,17.7-8.3,32.6-17.7,21.5l-14.6-21.4s-18.7,20.3-3.4,49c8.7,16.8-4,33.5-14.8,23.7l-17.3-19.3s-15.9,22.6,3,49c10.8,15.5.4,33.7-11.6,25.4l-19.7-16.9s-12.9,24.5,9.3,48.2c12.7,13.9,4.8,33.3-8.2,26.7l-21.7-14.2s-9.6,26,15.5,46.6c14.5,12,9.1,32.4-4.6,27.5l-23.3-11.2s-6.2,27.1,21.4,44.2c13.1,7.3,17,30-.7,28.1,0,0-24.6-8-24.6-8,0,8.5,1,28.5,27,41,17.1,7.9,17.1,29,2.6,27.8l-25.4-4.7s1.1,27.7,32.1,37.1c18,5.6,20.7,26.4,6.2,27.2l-25.8-1.4s4.6,27.4,36.6,32.6c18.6,3.2,24,23.5,9.7,26.2l-25.8,2s8.1,26.5,40.5,27.5c18.8.7,26.8,20.2,13,24.7l-25.3,5.4s11.5,25.2,43.7,21.9c18.8-1.7,29.2,16.5,16.1,22.8l-24.4,8.7s14.7,23.5,46.2,16c18.3-4.1,31.1,12.5,18.9,20.5l-23,11.8s17.6,21.3,47.9,9.8c17.7-6.6,32.5,8.3,21.4,17.8l-21.3,14.7s20.2,18.8,48.7,3.4c16.7-8.9,33.3,3.9,23.6,14.8l-19.2,17.4s22.5,16,48.8-3c15.4-11,33.5-.5,25.3,11.6l-16.8,19.8s24.4,12.9,48-9.4c13.9-12.9,33.2-4.8,26.6,8.2l-14.1,21.8s25.8,9.6,46.3-15.6c12-14.6,32.2-9.2,27.4,4.6l-11.1,23.5s26.8,6.2,43.9-21.5c5.3-8.4,13.6-11.7,19.8-10.7v-399Z"/>
  </g>
</svg>