<?xml version="1.0" encoding="UTF-8"?>
<svg id="Ebene_1" data-name="Ebene 1" xmlns="http://www.w3.org/2000/svg" version="1.1" viewBox="0 0 845.6 1495.7">
  <defs>
    <style>
      .cls-1 {
        fill: #fff;
      }

      .cls-1, .cls-2 {
        stroke-width: 0px;
      }

      .cls-2 {
        fill: #503b21;
      }
    </style>
  </defs>
  <g>
    <path class="cls-2" d="M837.1,617.3c0,3.8-.5,7.1-1.4,9.3-.8,2.1-2.3,3.1-4.4,3.1s-3.2-.9-4.1-2.7c-1.1-2.3-1.7-5.5-1.7-9.5,0-7.7,2.2-12.2,5.9-12.2s5.6,4,5.6,12M840.8,617.2c0-9.8-3.2-15.2-9.1-15.2s-9.9,5.9-9.9,15.8,1,9.2,3.2,12.1c1.5,2.1,3.5,3,6.2,3,6.2,0,9.5-5.5,9.5-15.8"/>
    <path class="cls-2" d="M744.9,612.4c0,4.8-1.8,7.4-5.1,7.4s-5-2.7-5-7.3,2-7.2,5.1-7.2,4.9,2.5,4.9,7.1M748.6,614.6c0-8.4-2.9-12.6-8.5-12.6s-9,4.3-9,10.7,3.1,10.2,7.8,10.2,4.5-1.1,6-3.6c-1.1,7.3-3.6,10.4-8.5,10.4s-2-.1-2.8-.4c-.1,0-.3,0-.4,0-.2,0-.4.1-.4.4l-.2,1.8v.3c0,.6,1.8,1.1,4.4,1.1,7.2,0,11.6-6.9,11.6-18.3"/>
    <path class="cls-2" d="M655,624.8c0,3-2.4,5.1-5.8,5.1s-6-2-6-5.1,1.1-4,2.9-5c.8-.5,1.3-.7,3-1.4,4.2,1.8,6,3.6,6,6.5M653.9,609.4c0,2.5-1.4,4.2-4.7,5.7-3.4-1.7-4.9-3.5-4.9-5.8s1.9-4.3,4.7-4.3,4.9,1.7,4.9,4.4M658.8,624.6c0-3.6-2.3-6.4-6.5-8.1,3.6-1.8,5.2-4.1,5.2-7.5s-3.4-7-8.3-7-4.8.7-6.4,2.3c-1.4,1.4-2.1,3.2-2.1,5.1,0,3.3,1.8,5.6,5.4,7.1-2,.8-3.1,1.3-4.1,2.2-1.7,1.4-2.6,3.6-2.6,5.9,0,5,3.8,8.3,9.7,8.3s5.8-1,7.6-3.1c1.4-1.5,2.1-3.4,2.1-5.3"/>
    <path class="cls-2" d="M555.5,632.2l10.7-28v-1.1c0-.6,0-.6-.6-.6h-15.6c-.6,0-.6,0-.6.6v2c0,.6,0,.6.6.6h11.9l-10,25.6c-.1.3-.1.3-.1.4,0,.2.2.3.6.4l2.5.3h.3c.2,0,.3,0,.5-.4"/>
    <path class="cls-2" d="M472,622c0,4.9-1.8,7.7-5.1,7.7s-5.1-2.8-5.1-7.7,1.8-6.6,5-6.6,5.2,2.4,5.2,6.7M475.8,622c0-6-3-9.9-7.7-9.9s-4,.8-5.9,3c.4-3,1.1-4.9,2.4-6.8,1.6-2.3,3.5-3.3,6-3.3s2,.2,2.9.5c.1,0,.3,0,.4,0,.1,0,.2,0,.3-.2l.6-2.1q0-.2,0-.3c0-.5-2-1-4-1-7.7,0-12.7,7.1-12.7,18.3s.6,6.2,1.8,8.4c1.5,2.7,4.1,4.2,7,4.2,5.3,0,8.9-4.5,8.9-11"/>
    <path class="cls-2" d="M384.2,622.2c0-5.4-3.2-9-7.8-9s-3.6.6-5.5,2l1-9.4h9.6c.6,0,.6,0,.6-.6v-1.9c0-.6,0-.6-.6-.6h-12c-.5,0-.6,0-.6.6l-1.4,14.8c0,.1,0,.2,0,.3,0,.2,0,.3.5.5l1.6.5h.4c.1,0,.3,0,.5-.2,1.7-1.7,3.5-2.5,5.4-2.5,3,0,4.8,2.2,4.8,5.9s-.6,4.1-1.8,5.4c-1.1,1.3-2.9,1.9-5.5,1.9s-3.2-.2-4.5-.7c-.2,0-.4,0-.5,0-.2,0-.4.1-.4.3l-.5,2.1c0,0,0,.3,0,.4,0,.3.2.5.6.6,1.8.5,3.9.7,5.8.7,6.3,0,10.5-4.2,10.5-10.7"/>
    <path class="cls-2" d="M287.1,622.7h-8.8l11.8-19.2c.1-.2.2-.3.2-.4,0-.2-.1-.4-.6-.4l-2.3-.4h-.3c-.2,0-.3,0-.5.4l-11.9,19.8v2.6c0,.6,0,.6.6.6h11.8v6.5c0,.6,0,.6.6.6h2.2c.6,0,.6,0,.6-.6v-6.5h3.6c.6,0,.6,0,.6-.6v-1.7c0-.6,0-.6-.6-.6h-3.6v-7.4c0-.6,0-.6-.6-.6h-1.7c-.5,0-.6,0-.6.6l-.5,7.4Z"/>
    <path class="cls-2" d="M202,624c0-2.6-1.1-5-2.8-6.4-.8-.6-1.5-1-3-1.4,3.2-1.2,4.8-3.5,4.8-6.8s-3.2-7.5-7.9-7.5-3.9.6-5.6,1.8c-1.2.9-2.3,2-2.3,2.4s0,.1.2.2l1.7,1.5s.2,0,.3,0q.2,0,1-.8c1.4-1.4,3-2.1,4.5-2.1,2.7,0,4.5,1.8,4.5,4.5s-2.3,5.5-6,5.5h-1.5c-.6,0-.6,0-.6.6v1.8c0,.6,0,.6.6.6h1.6c4.4,0,6.7,1.9,6.7,5.7s-2.2,5.8-6.1,5.8-3.6-.4-5.9-1.4c0,0-.2,0-.2,0-.1,0-.3.1-.4.3l-.9,2.1q-.1.2-.1.4c0,.8,4.4,2,7.5,2,6,0,9.9-3.6,9.9-8.9"/>
    <path class="cls-2" d="M110.2,628.9h-11.9c.5-4.2,2.4-6.7,7.1-10,4.2-2.9,5.4-5.1,5.4-8.6,0-5.1-3.1-8.3-8-8.3s-5.2,1.1-6.7,3.2c-.9,1.1-1.8,3.2-1.8,4s.1.3.4.4l2,.6c.2,0,.3,0,.4,0,.2,0,.3,0,.4-.4,1.2-3.3,2.7-4.6,5.2-4.6s4.5,1.9,4.5,4.9-1.6,4.5-5.1,6.8c-5.6,3.7-7.8,8.1-7.8,14.7s0,.6.6.6h15.5c.6,0,.6,0,.6-.6v-2.1c0-.6,0-.6-.6-.6"/>
    <path class="cls-2" d="M11.3,606.7v22.6h-4.7c-.6,0-.6,0-.6.6v1.8c0,.6,0,.6.6.6h12.2c.6,0,.6,0,.6-.6v-1.8c0-.6,0-.6-.6-.6h-4v-26c0-.6,0-.6-.6-.6h-2.3l-8.2,5.8c-.3.1-.4.3-.4.4,0,.1,0,.3.1.5l.6,1c.1.3.2.4.4.4s.3,0,.5-.2l6.5-3.7Z"/>
    <path class="cls-2" d="M834.6,554.7c0-1.8-1.5-3.2-3.2-3.2s-3.3,1.4-3.3,3.2,1.4,3.3,3.3,3.3,3.2-1.5,3.2-3.3"/>
    <path class="cls-2" d="M742,554.7c0-1.8-1.5-3.2-3.2-3.2s-3.3,1.4-3.3,3.2,1.4,3.3,3.2,3.3,3.3-1.5,3.3-3.3M747.2,532.5c0-4.5-3-7.2-8.1-7.2s-7,1.1-7,2,0,0,0,.3l.6,1.8c0,.2.2.4.4.4s.3,0,.4,0c1.8-.8,3.5-1.2,5-1.2,3.1,0,4.8,1.5,4.8,4.1s-.7,3.1-1.9,3.8c-.9.6-1.9.9-3.8,1.5-.6.2-.8.4-.8.9v5.7c0,.6,0,.6.6.6h1.8c.6,0,.6,0,.6-.6v-4.2c4.8-1.3,7.1-3.8,7.1-7.8"/>
    <path class="cls-2" d="M652.4,554.7c0-1.8-1.5-3.2-3.2-3.2s-3.3,1.4-3.3,3.2,1.4,3.3,3.3,3.3,3.2-1.5,3.2-3.3M650.4,544.5l1-18.2h0c0-.6-.1-.6-.6-.6h-3.4c-.5,0-.6,0-.6.5v.2l1.1,18.2c0,.5.1.6.6.6h1.3c.6,0,.6,0,.6-.6"/>
    <path class="cls-2" d="M554.4,542.7l8.3,9.5c-2.1,1.8-4,2.6-6.4,2.6-3.7,0-6-2.2-6-5.6s.9-4,4.1-6.5M560.3,532.3c0,2.4-1.2,4.1-4.7,6.5-2.6-2.9-3.6-4.7-3.6-6.5s1.8-4.1,4.2-4.1,4,1.7,4,4.2M570.5,555.8c0,0,0-.2-.1-.3l-3.2-3.6c1.7-2.3,2.7-5.3,2.7-8.1s-.1-.8-.6-.8h-2.3c-.4,0-.6.1-.6.6v.6c0,2-.5,3.9-1.4,5.4l-7.7-8.6c4.4-2.9,6.3-5.5,6.3-8.9s-2.8-6.8-7-6.8-8.2,3.1-8.2,7.5,1.1,4.6,4,8c-1.4,1-1.8,1.3-2.5,1.8-2.4,1.8-3.6,4.2-3.6,7,0,5,3.8,8.3,9.5,8.3s5.6-.9,8.6-3.3l2.8,3.2c.2.2.4.3.5.3s.3,0,.5-.2l1.8-1.5c.2-.1.3-.3.3-.4"/>
    <path class="cls-2" d="M475.5,554.6c0-.2,0-.3-.5-.3h-11.5l11.5-16.7v-1.9c0-.4,0-.5-.5-.5h-14c-.5,0-.5,0-.5.5v1.9c0,.5,0,.5.5.5h10.2l-11.7,16.8v1.8c0,.5,0,.6.6.6h14.4c.3,0,.5-.1.6-.4l.9-1.9q0-.2,0-.4"/>
    <path class="cls-2" d="M385.4,536.1c0-.2,0-.3-.4-.4l-2.4-.9h-.2c-.2,0-.4.1-.5.3l-4.5,17.6c-.3,1-.5,1.9-.8,3.2-.5-2-.5-2.1-.9-3.3l-5.9-17.4c0-.3-.2-.4-.3-.4h-.4s-2.5.9-2.5.9c-.3,0-.4.2-.4.4s0,.1,0,.3l7.2,20.5c.1.4.2.4.6.4h1.8l-1,2.9c-.9,2.7-2,4-3.6,4s-2.5-.6-4.1-1.7c-.1,0-.3-.1-.3-.1,0,0-.3,0-.3.2l-.9,1.8s0,.2,0,.3c0,.9,3.6,2.4,5.8,2.4s4.4-1.3,5.6-3.8c.7-1.6,2-5.4,3-8.9l5.3-18.1q0-.2,0-.3"/>
    <path class="cls-2" d="M294.2,556.6q0-.1-.2-.4l-7.2-10.6,6.8-9.1c.1-.1.2-.3.2-.4,0-.1-.1-.2-.4-.3l-2.3-.9q-.2,0-.3,0c-.2,0-.3,0-.5.3l-4.2,6.1c-.7,1-.7,1.1-1.4,2.2-.4-.6-.4-.6-.5-.8-.2-.3-.5-.7-.8-1.3l-4-6.2c-.1-.2-.3-.3-.4-.3s-.2,0-.3,0l-2.4.9c-.2,0-.4.2-.4.4s0,.2.1.3l6.7,9.7-7.6,10.1q-.2.2-.2.3c0,.2,0,.3.4.4l2.4,1h.3c.1,0,.3,0,.4-.2l5.1-7.3q.6-.9,1.1-1.8l.3.5.5.7c.1.2.3.5.4.6l4.7,7.2c.2.3.2.3.4.3s0,0,.3,0l2.4-.9c.3-.1.4-.2.4-.3"/>
    <path class="cls-2" d="M207.2,535.7c0-.2-.1-.3-.5-.4l-2.1-.5h-.3c-.2,0-.3,0-.4.4l-3.9,15.9-.2,1.2v.6c-.1,0-.2-.5-.2-.5v-.7c0,0-.2-.6-.2-.6l-3.8-15.5q0-.4-.6-.4h-1.8c-.4,0-.5,0-.6.4l-4.4,14.9c-.5,1.7-.4,1.8-.6,2.5-.2-1.3-.2-1.4-.3-1.8v-.7c-.1,0-3.3-15.3-3.3-15.3,0-.3-.2-.5-.4-.5s0,0-.3,0l-2.4.6c-.3,0-.4.1-.4.4s0,0,0,.3l5.3,21.2c0,.4.1.5.6.5h1.7c.4,0,.5,0,.6-.4l4.3-14.1c.4-1.2.6-2.3.7-3.6v1c.1,0,.2.7.2.7.1.9.2,1.5.4,2l3.6,14c0,.4.2.5.6.5h1.8q.4,0,.6-.5l6.1-21.2h0c0-.2,0-.3,0-.3"/>
    <path class="cls-2" d="M112.2,535.7c0-.2,0-.3-.4-.4l-2.4-.6h-.3c-.2,0-.3,0-.4.4l-5.5,15.2c-.4,1.2-.6,1.6-.9,2.9l-.2-.8-.3-1.1c0-.3-.2-.6-.3-1l-4.9-15.1c0-.3-.2-.4-.4-.4h-.3s-2.6.6-2.6.6c-.4,0-.5.1-.5.4s0,0,0,.3l7.8,21.3c.1.4.2.4.6.4h1.8c.4,0,.5,0,.6-.4l8.4-21.2q0-.2,0-.3"/>
    <path class="cls-2" d="M20.7,556.3c0,0,0-.2-.1-.3-.9-1.3-1.2-2.4-1.2-4.8v-16.1c0-.4,0-.5-.3-.5s0,0-.3,0l-2.4.6c-.3,0-.5.3-.5.6v16.6c-1.8,1.5-3.9,2.4-5.8,2.4s-3.3-1.3-3.3-5.4v-14.4c0-.4,0-.5-.3-.5s0,0-.3,0l-2.4.6c-.3,0-.5.3-.5.6v15.9c0,4.1,2.2,6.2,6.3,6.2s4.3-.7,6.9-2.8c.5,1.5,1.2,2.8,1.6,2.8s.2,0,.3-.1l2.1-1.3c0,0,.2-.2.2-.2"/>
    <path class="cls-2" d="M839.4,481s0,0,0-.2l-.5-1.9c0-.2-.2-.3-.3-.3s-.2,0-.3,0c-2,.9-3,1.2-4.2,1.2s-1.8-.3-2.3-.9c-.4-.6-.5-1-.5-2.8v-13h6.1c.4,0,.6-.1.6-.5l.5-1.8q0-.2,0-.3c0-.2-.1-.3-.4-.3h-6.9v-7.1c0-.5,0-.6-.3-.6s0,0-.3,0l-2.4.6c-.3,0-.5.3-.5.6v6.3h-3.3c-.5,0-.6,0-.6.6v1.8c0,.5,0,.5.6.5h3.3v13c0,2.4.1,3.2.6,4.2.8,1.6,2.7,2.6,5,2.6s6-1.1,6-1.8"/>
    <path class="cls-2" d="M747.3,476.5c0-2.8-1.2-4.3-4.6-6q-4.2-2-4.8-2.6c-.6-.6-.9-1.4-.9-2.3,0-1.9,1.3-3.1,3.5-3.1s2.6.4,4.3,1.2c.2,0,.3,0,.4,0,.1,0,.3-.1.4-.3l.8-1.7q0-.2,0-.3c0-.8-3.6-1.9-6-1.9-4.1,0-7,2.7-7,6.4s.7,3.2,2.1,4.4c1.1.9,2.1,1.4,5.2,2.9,2.2,1,3,1.9,3,3.5s-1.5,3.3-3.7,3.3-3.6-.6-5.6-1.6c-.1,0-.3,0-.4,0s-.2,0-.3.2l-.9,2q0,0,0,.2c0,.2,0,.3.3.4,1.9,1.1,4.5,1.8,6.8,1.8,4.4,0,7.3-2.6,7.3-6.5"/>
    <path class="cls-2" d="M656.8,460.3c0-.3-1.2-.7-2.3-.7-1.9,0-2.8.6-5.7,3.8-.3-1.9-1.2-3.8-1.8-3.8s-.2,0-.4.1l-1.9,1.2c-.1,0-.2.2-.2.4s0,.2.2.5c1,1.8,1.1,2.5,1.1,6.2v13.8c0,.5,0,.6.5.6h2.4c.4,0,.5,0,.5-.6v-15.3c2.4-2.7,3.4-3.5,4.6-3.5s.6,0,.8,0l.8.2c0,0,.2,0,.2-.1l1.1-2.6c0,0,0-.2,0-.3"/>
    <path class="cls-2" d="M562,464.4v12.8c-2.1,1.8-3.6,2.6-5.2,2.6s-2.4-.7-3-1.8c-.8-1.4-1.2-3.7-1.2-6.9,0-5.6,1.6-8.5,4.6-8.5s3,.5,4.8,1.8M566.8,461.1c0,0,0-.3-.2-.4l-1.9-1.2c0,0-.2,0-.2,0-.4,0-1,1-1.4,2.3-2.3-1.7-3.8-2.2-6.1-2.2-5,0-8,4.5-8,12s2.7,11.4,7.1,11.4,4.1-.8,6.1-2.7v11.5c0,.4,0,.5.3.5s.1,0,.3,0l2.5-.7c.3,0,.4-.3.4-.7v-24.4c0-1.7.3-3,1-4.6.3-.6.3-.6.3-.7"/>
    <path class="cls-2" d="M472.3,470.9c0,6.5-1.2,8.9-4.3,8.9s-2.9-.5-5-1.9v-13c2.5-1.7,3.8-2.3,5.4-2.3s2.8.9,3.3,2.4c.5,1.3.7,3.1.7,5.9M476.1,470.8c0-3.2-.5-6-1.5-8.1-1-2.1-3-3.2-5.6-3.2s-4.1.7-6.6,2.7c-.5-1.4-1.3-2.8-1.7-2.8s-.3,0-.4.1l-2,1.4c0,0-.1.1-.1.2,0,.1,0,.3.5.9.8,1.2.9,2.2.9,4.5v25c0,.4,0,.5.3.5s.1,0,.3,0l2.4-.6c.3,0,.4-.3.4-.6v-9.9c2.1,1.5,3.6,2,5.4,2,4.8,0,7.7-4.6,7.7-12.2"/>
    <path class="cls-2" d="M381.3,471.1c0,3-.6,5.6-1.5,7.1-.7,1.2-2.3,1.9-3.9,1.9s-3.3-.8-4.1-2c-.9-1.5-1.4-4.2-1.4-7.1,0-5.5,1.9-8.4,5.4-8.4s5.5,3,5.5,8.6M385,471.2c0-7.2-3.3-11.6-8.9-11.6s-9.5,4.3-9.5,11.8,3.3,11.6,8.9,11.6,9.5-4.4,9.5-11.9"/>
    <path class="cls-2" d="M280.3,481.8v-16.3c2.3-2.1,4-2.9,6.1-2.9s3,1.1,3,3.8v15.4c0,.5,0,.6.5.6h2.4c.4,0,.5,0,.5-.6v-15.4c0-2.6-.1-3.6-.8-4.7-.8-1.4-2.5-2.2-4.7-2.2s-4.6.9-7.4,3.1c-.3-1.8-1-3-1.4-3s-.2,0-.4.1l-2.1,1.2c-.1,0-.2.2-.2.3s0,.2,0,.3c.7,1.5.9,2.3.9,4.4v15.8c0,.5,0,.6.5.6h2.4c.4,0,.5,0,.5-.6"/>
    <path class="cls-2" d="M184.4,481.8v-17.3c1.9-1.5,3.1-2,4.6-2s3,1.2,3,3.4v15.8c0,.5,0,.6.5.6h2.4c.4,0,.5,0,.5-.6v-17.4c2.1-1.4,3.2-1.8,4.7-1.8s3,1.1,3,3.4v15.9c0,.5,0,.6.6.6h2.4c.5,0,.6,0,.6-.6v-15.7c0-2.2-.2-3.5-.8-4.5-.7-1.2-2.3-2-4.2-2s-4,.8-6.7,2.7c-.8-1.8-2.2-2.7-4.4-2.7s-3.9.7-6.5,2.7c-.4-1.5-1-2.6-1.3-2.6s-.3,0-.4.1l-1.8,1.1c-.1,0-.2.2-.2.3s0,.2,0,.2c.7,1.6.8,2.2.8,3.9v16.6c0,.5,0,.6.6.6h2.4c.5,0,.6,0,.6-.6"/>
    <path class="cls-2" d="M108.7,481.7q0,0,0-.4l-.6-1.7c0-.2-.2-.3-.3-.3s-.2,0-.4,0c-.7.4-1.4.6-2.1.6-1,0-1.8-.6-1.9-1.8,0-.6,0-2,0-4.2v-24.5c0-.4,0-.5-.3-.5s-.3,0-.3,0l-2.4.6c-.3,0-.5.3-.5.6v23.8c0,4.7,0,4.7.2,5.7.4,2,2.2,3.2,4.7,3.2s3.9-.6,3.9-1.1"/>
    <path class="cls-2" d="M21,480.7c0-.1,0-.3-.1-.4l-8.3-9.9,7.9-8.6c.1-.1.2-.3.2-.4,0-.1,0-.3-.2-.4l-1.8-1.2c-.2-.2-.3-.2-.4-.2s-.3,0-.5.3l-9.3,10.4v-20.9c0-.4,0-.5-.3-.5h-.3s-2.4.6-2.4.6c-.3,0-.5.3-.5.6v31.6c0,.5,0,.6.5.6h2.4c.4,0,.5,0,.5-.6v-10.8l9.6,11.5c.1.1.2.2.3.2q.1,0,.4-.2l1.9-1.4c.1-.1.2-.2.2-.4"/>
    <path class="cls-2" d="M826.2,388.1h3.7v20.9c0,2.8,0,5-3,5s-2.8-.4-4.2-1.1c-.1,0-.2,0-.3,0-.1,0-.3.1-.4.3l-.9,1.8c0,.2,0,.3,0,.4,0,.7,3.4,1.8,5.7,1.8,4.4,0,6.6-2.7,6.6-7.8v-23.6c0-.5,0-.6-.5-.6h-6.6c-.5,0-.5,0-.5.6v1.8c0,.5,0,.5.5.5M834.1,377.1c0-1.5-1.2-2.8-2.7-2.8s-2.9,1.2-2.9,2.8,1.2,2.8,2.8,2.8,2.8-1.2,2.8-2.8"/>
    <path class="cls-2" d="M742.3,406.9v-21c0-.5,0-.6-.5-.6h-6.6c-.5,0-.6,0-.6.6v1.8c0,.4,0,.5.6.5h3.7v18.7c0,.5,0,.6.5.6h2.4c.4,0,.5,0,.5-.6M743,377.1c0-1.5-1.2-2.8-2.7-2.8s-2.9,1.2-2.9,2.8,1.2,2.8,2.8,2.8,2.8-1.2,2.8-2.8"/>
    <path class="cls-2" d="M644.5,406.9v-16.3c2.6-2.1,4.2-2.9,6.1-2.9s3.2,1,3.2,3.9v15.4c0,.5,0,.6.5.6h2.4c.4,0,.5,0,.5-.6v-15.3c0-2.9-.3-4-1.2-5.2-.9-1.2-2.4-1.8-4.4-1.8s-4.7.8-7.1,3v-13.1c0-.4,0-.5-.3-.5s-.3,0-.3,0l-2.4.6c-.3,0-.5.3-.5.6v31.6c0,.5,0,.6.5.6h2.4c.4,0,.5,0,.5-.6"/>
    <path class="cls-2" d="M562.2,389v12.5c-2.3,1.7-3.8,2.3-5.5,2.3-2.9,0-4.1-2.4-4.1-8s1.8-8,5.3-8,2.5.4,4.3,1.3M567.1,386.1c0-.1,0-.2-.1-.3l-2.1-1.3c0,0-.3,0-.4,0-.3,0-.8.8-1.3,2.1-2-1.4-3.5-1.9-5.6-1.9-5.6,0-8.7,4.3-8.7,11.9s2.7,10.2,7.1,10.2,4.3-.8,6.4-2.5v2.4c0,.8,0,1.6,0,2.4,0,1.8-.2,2.6-.7,3.4-.7,1-2.4,1.7-4.2,1.7s-4.1-.7-6-1.7c-.1,0-.3-.1-.4-.1s-.2,0-.3.3l-.8,1.8c0,.1,0,.2,0,.3,0,.3,0,.4.8.8,2,1.1,4.6,1.7,6.9,1.7,5.4,0,8.2-2.8,8.2-8.2s0-1.6,0-2.6q-.2-4.5-.2-7.9v-7.1c0-2,.3-3.4,1.2-4.7.2-.4.3-.5.3-.6"/>
    <path class="cls-2" d="M475.9,375.6c0-.7-2.9-1.6-5.1-1.6s-4,.8-5.2,2.3c-.9,1.2-1.2,2.4-1.2,5.4v3.6h-3c-.5,0-.6,0-.6.6v1.8c0,.4,0,.5.6.5h3v18.7c0,.5,0,.6.5.6h2.4c.4,0,.5,0,.5-.6v-18.7h5.9c.3,0,.5-.1.6-.4l.6-1.8c0,0,0-.2,0-.3,0-.2-.1-.3-.5-.3h-6.6v-3.6c0-2.4.1-3.1.6-3.8.4-.6,1.2-.9,2.1-.9s2.3.4,3.6,1c.2,0,.3.1.5.1s.3,0,.3-.3l.8-1.9q0-.2,0-.3"/>
    <path class="cls-2" d="M381.3,394.3h-10c.2-4.5,1.9-6.8,5-6.8s4.8,2.4,4.9,6.8M385,396.3c0-3-.2-4.7-.7-6.1-1.2-3.5-4-5.5-7.7-5.5-5.5,0-9.1,4.6-9.1,11.8s3.7,11.7,9.6,11.7,3.9-.5,5.7-1.3c1.2-.6,1.7-.9,1.7-1.3s0,0,0-.3l-.8-1.8c0-.1-.2-.2-.3-.2-.1,0-.3,0-.5.1-2,1.2-3.7,1.7-5.4,1.7-3.7,0-5.9-2.8-6.1-7.8h13.2c.4,0,.5-.2.5-.8"/>
    <path class="cls-2" d="M288.9,389.2v13.1c-2,1.9-3.6,2.7-5.3,2.7-3,0-4.3-2.6-4.3-9s1.4-8.2,4.9-8.2,2.8.4,4.7,1.5M293.8,406.3q0-.1-.4-.7c-.9-1.5-1.2-2.6-1.2-5.4v-25.6c0-.4,0-.5-.3-.5s-.2,0-.3,0l-2.4.6c-.3,0-.5.3-.5.6v10.9c-1.9-1.1-3.4-1.5-5.1-1.5-5.1,0-8.3,4.4-8.3,11.5s2.7,11.9,7.2,11.9,3.9-.7,6.9-3c.4,1.5,1.1,2.8,1.5,2.8s.3,0,.4-.1l2.1-1.2c.2,0,.2-.2.2-.3"/>
    <path class="cls-2" d="M202.5,387.9v-.3c0-.3-.2-.6-1-1.2-1.7-1.2-3.6-1.8-5.6-1.8-5.8,0-9.4,4.7-9.4,12.2s3.2,11.2,8.7,11.2,4.6-.8,6.5-2.2c.5-.4.7-.6.7-.9v-.5c-.1,0-.8-1.8-.8-1.8,0-.2-.2-.3-.3-.3s-.2,0-.3.1c-2.6,1.8-3.6,2.3-5.4,2.3-3.4,0-5.1-2.9-5.1-8.6s1.9-8.6,5.6-8.6,2.5.4,4.8,2.1c.1.1.3.2.4.2.1,0,.2,0,.4-.3l1-1.8Z"/>
    <path class="cls-2" d="M108,395.4c0,6.6-1.5,9.5-4.8,9.5s-3.4-.6-4.8-1.8v-13.1c2.4-1.7,3.8-2.3,5.5-2.3,2.9,0,4.1,2.3,4.1,7.7M111.7,394.9c0-6.7-2.4-10.2-7.2-10.2s-3.7.6-6.1,2.3v-12.4c0-.4,0-.5-.3-.5s-.3,0-.3,0l-2.4.6c-.3,0-.5.3-.5.6v25.9c0,2.2-.4,3.6-1.3,4.8,0,.1-.1.3-.1.3,0,0,0,.2.1.2l2,1.2c.1,0,.3.1.4.1.3,0,1-.9,1.5-2.1,1.9,1.6,3.6,2.3,5.9,2.3,5.7,0,8.4-4.2,8.4-13.2"/>
    <path class="cls-2" d="M14.8,396.4v6c-2,1.8-3.6,2.6-5.3,2.6s-3.4-1.5-3.4-3.7c0-3.2,2.9-4.8,8.6-4.9M19.6,406.3c0,0,0-.2,0-.3-1-1.8-1.2-2.9-1.2-6v-8.7c0-4.4-2.3-6.5-7.2-6.5s-4.3.4-6.1,1.2c-1,.4-1.2.6-1.2.9v.4s.7,1.8.7,1.8c0,.1.2.2.3.2h.3c2.4-1.1,3.7-1.4,5.5-1.4,3,0,4.2,1.2,4.2,4.1v1.5c-8.2.1-12.2,2.8-12.2,8s2.4,6.3,6.1,6.3,4.5-.9,6.6-2.9c.5,1.5,1.3,2.9,1.8,2.9s.2,0,.4-.1l2-1.2c0,0,.2-.1.2-.2"/>
    <path class="cls-2" d="M834.6,329.8c0-1.8-1.5-3.2-3.2-3.2s-3.3,1.4-3.3,3.2,1.4,3.3,3.3,3.3,3.2-1.5,3.2-3.3"/>
    <path class="cls-2" d="M742,329.8c0-1.8-1.5-3.2-3.2-3.2s-3.3,1.4-3.3,3.2,1.4,3.3,3.2,3.3,3.3-1.5,3.3-3.3M747.2,307.6c0-4.5-3-7.2-8.1-7.2s-7,1.1-7,2,0,0,0,.3l.6,1.8c0,.2.2.4.4.4s.3,0,.4,0c1.8-.8,3.5-1.2,5-1.2,3.1,0,4.8,1.5,4.8,4.1s-.7,3.1-1.9,3.8c-.9.6-1.9.9-3.8,1.5-.6.2-.8.4-.8.9v5.7c0,.6,0,.6.6.6h1.8c.6,0,.6,0,.6-.6v-4.2c4.8-1.3,7.1-3.8,7.1-7.8"/>
    <path class="cls-2" d="M652.4,329.8c0-1.8-1.5-3.2-3.2-3.2s-3.3,1.4-3.3,3.2,1.4,3.3,3.3,3.3,3.2-1.5,3.2-3.3M650.4,319.7l1-18.2h0c0-.6-.1-.6-.6-.6h-3.4c-.5,0-.6,0-.6.5v.2l1.1,18.2c0,.5.1.6.6.6h1.3c.6,0,.6,0,.6-.6"/>
    <path class="cls-2" d="M554.4,317.8l8.3,9.5c-2.1,1.8-4,2.6-6.4,2.6-3.7,0-6-2.2-6-5.6s.9-4,4.1-6.5M560.3,307.5c0,2.4-1.2,4.1-4.7,6.5-2.6-2.9-3.6-4.7-3.6-6.5s1.8-4.1,4.2-4.1,4,1.7,4,4.2M570.5,331c0,0,0-.2-.1-.3l-3.2-3.6c1.7-2.3,2.7-5.3,2.7-8.1s-.1-.8-.6-.8h-2.3c-.4,0-.6.1-.6.6v.6c0,2-.5,3.9-1.4,5.4l-7.7-8.6c4.4-2.9,6.3-5.5,6.3-8.9s-2.8-6.8-7-6.8-8.2,3.1-8.2,7.5,1.1,4.6,4,8c-1.4,1-1.8,1.3-2.5,1.8-2.4,1.8-3.6,4.2-3.6,7,0,5,3.8,8.3,9.5,8.3s5.6-.9,8.6-3.3l2.8,3.2c.2.2.4.3.5.3s.3,0,.5-.2l1.8-1.5c.2-.1.3-.3.3-.4"/>
    <path class="cls-2" d="M459.2,304h12.2l-13.6,25.4v2.4c0,.6,0,.6.6.6h17.2c.6,0,.6,0,.6-.6v-2c0-.6,0-.6-.6-.6h-13.5l13.7-25.5v-2.2c0-.6,0-.6-.6-.6h-15.4c-.4,0-.6.1-.7.6l-.5,1.9h0c0,.2,0,.3,0,.3,0,.3.2.4.6.4"/>
    <path class="cls-2" d="M386.7,301.6c0-.1-.2-.3-.5-.4l-2.5-.7c-.2,0-.3,0-.4,0-.2,0-.3.1-.5.4l-5.6,11.9c-.6,1.2-.9,1.9-1.2,2.9-.5-1.2-.6-1.6-1.2-2.9l-5.8-12c-.2-.4-.3-.5-.5-.5s0,0-.2,0h-.2s-2.8.8-2.8.8c-.4,0-.5.2-.5.4s0,.3.1.5l9,17v12.7c0,.6,0,.6.6.6h2.5c.6,0,.6,0,.6-.6v-12.8l8.8-17c0-.1.1-.4.1-.5"/>
    <path class="cls-2" d="M295.4,331.6c0-.1,0-.2-.2-.5l-8.4-15.3,7.6-13.5c.1-.2.2-.4.2-.5,0-.2,0-.3-.5-.4l-2.3-.9c-.2,0-.3,0-.4,0-.2,0-.3.1-.5.4l-5,9.3c-.6,1.1-.9,1.8-1.2,2.6-.6-1.4-.6-1.6-1.1-2.4l-5.2-9.6c-.2-.4-.3-.4-.5-.4s0,0-.4,0l-2.3.8c-.3,0-.5.2-.5.4s0,.3.1.5l7.6,13.7-8.2,15.2c-.1.2-.2.4-.2.5,0,.2.1.3.5.4l2.4.7q.3,0,.4,0c.2,0,.2,0,.4-.4l6-11.3c.3-.6.6-1.3,1-2.2.2.6.5,1.3.9,2.2l6,11.2c.2.3.3.4.4.4s.1,0,.2,0h.1s2.5-.8,2.5-.8c.4,0,.5-.2.5-.4"/>
    <path class="cls-2" d="M208.4,301.5c0-.2-.2-.3-.6-.4l-2.4-.5q-.2,0-.3,0c-.2,0-.3.1-.4.6l-4.2,23.1c-.3,1.8-.3,3-.4,5.6-.2-3.1-.1-3.5-.5-5.6l-3.8-22.8c0-.5-.1-.6-.7-.6h-2.4c-.5,0-.6,0-.7.6l-4.5,22.6c-.3,1.7-.3,2.8-.6,5.6,0-3-.1-4.2-.4-5.8l-4-22.8c0-.5-.1-.6-.4-.6h-.4s-2.4.5-2.4.5c-.4,0-.6.2-.6.4v.4s5.8,30.2,5.8,30.2c0,.5.2.6.7.6h2.8c.5,0,.6,0,.7-.6l4.8-25.5,4,25.5c0,.5.1.6.6.6h3c.5,0,.6,0,.7-.6l6.4-30.1v-.2s0-.1,0-.2"/>
    <path class="cls-2" d="M112.9,301.9v-.4c0-.2,0-.3-.5-.4l-2.5-.6c0,0-.3,0-.4,0-.2,0-.3.1-.4.5l-6,24.5c-.2.8-.5,2.2-.7,3.6l-.2-1.1c-.2-1-.3-1.5-.5-2.6l-5.9-24.4c0-.4-.2-.6-.4-.6s-.1,0-.2,0h-.1s-2.6.6-2.6.6c-.4.1-.6.2-.6.4s0,0,0,.4l8,30.1c.1.5.2.5.7.5h3.2c.5,0,.6,0,.7-.5l8.2-30.1Z"/>
    <path class="cls-2" d="M21.2,324v-22.5c0-.6,0-.6-.6-.6h-2.4c-.6,0-.6,0-.6.6v22.4c0,4.2-2,6.2-6.3,6.2s-5.9-1.7-5.9-6.2v-22.4c0-.6,0-.6-.6-.6h-2.5c-.6,0-.6,0-.6.6v22.5c0,6.1,3.1,9.1,9.5,9.1s10.1-3,10.1-9.1"/>
    <path class="cls-2" d="M841.4,226.2c0-.2-.2-.3-.6-.3h-18c-.6,0-.6,0-.6.6v1.9c0,.6,0,.6.6.6h6.7v27.8c0,.6,0,.6.6.6h2.5c.6,0,.6,0,.6-.6v-27.8h6.6c.4,0,.6-.2.7-.5l.7-2h0c0-.2,0-.3,0-.4"/>
    <path class="cls-2" d="M749.3,249.1c0-1.8-.5-3.6-1.5-5-1-1.4-1.8-2.1-4.6-3.7q-4.5-2.7-5.5-3.5c-1.2-.9-1.8-2.3-1.8-3.9,0-2.9,1.9-4.6,5.1-4.6s3.2.4,4.5,1q1.8.9,2,.9c.2,0,.3,0,.4-.3l.8-2.1q0-.3,0-.4c0-1-4.6-2.5-7.7-2.5-5.4,0-9.1,3.5-9.1,8.3s.6,3.7,1.8,5.1c1.1,1.2,1.9,1.8,5.8,4.1,4.6,2.6,5.8,4.1,5.8,6.9s-2.2,5.2-5.6,5.2-4.4-.7-6.7-1.9c-.6-.3-.6-.3-.8-.3s-.3,0-.3.2l-.9,2.2c0,0,0,.3,0,.4,0,1.1,5.3,2.8,8.7,2.8,5.8,0,9.7-3.6,9.7-9"/>
    <path class="cls-2" d="M654.7,234c0,2.4-.6,4.1-2,5.2-1,.8-1.9,1.1-3.8,1.1h-3.6v-11.4h3.7c1.8,0,2.6,0,3.4.5,1.5.7,2.3,2.3,2.3,4.7M660.4,257.1c0,0,0-.3-.2-.5l-7.7-13.7c3.8-1.3,6-4.6,6-9.1s-1.2-5.8-3.5-6.9c-1.3-.7-2.9-1-5.8-1h-7.1c-.6,0-.6,0-.6.6v30.4c0,.6,0,.6.6.6h2.5c.6,0,.6,0,.6-.6v-13.7h3.5l7.5,14.4c.1.3.3.4.5.4h.2l2.8-.6c.4,0,.6-.2.6-.3"/>
    <path class="cls-2" d="M564.3,242c0,4.4-.6,8-1.6,10.2-.9,1.8-2.6,2.9-4.8,2.9s-3.6-.9-4.5-2.7c-1.2-2.4-1.8-6.1-1.8-10.8s.5-8.2,1.6-10.4c.8-1.8,2.7-2.9,4.8-2.9s3.6.8,4.5,2.7c1.2,2.3,1.8,6.1,1.8,11M570.4,258.6c0-.2,0-.2-.2-.4-2.4-1.5-4-2.7-4.9-3.6,2.2-3.1,3.1-7.1,3.1-12.9,0-10.9-3.5-16.5-10.1-16.5s-10.7,5.7-10.7,16.6,3.5,16.4,10.1,16.4,3.2-.3,4.8-1.2c1.8,1.9,4.1,3.8,4.8,3.8s.4,0,.4-.1l2.4-1.7c.1,0,.2-.2.2-.4"/>
    <path class="cls-2" d="M473.4,234.4c0,2.4-.7,4.2-2,5.4-1.1.8-2,1.1-4.3,1.1h-3v-11.8h3.6c1.8,0,2.4,0,3.2.4,1.7.6,2.6,2.4,2.6,5M477.3,234.4c0-3.5-1.2-6.1-3.5-7.4-1.2-.7-3-1.1-5.9-1.1h-7.1c-.6,0-.6,0-.6.6v30.4c0,.6,0,.6.6.6h2.5c.6,0,.6,0,.6-.6v-12.7h3.3c2.4,0,3.9-.2,5.4-1,3-1.5,4.6-4.7,4.6-8.8"/>
    <path class="cls-2" d="M382.1,242c0,4.5-.6,8-1.6,10.2-.9,1.8-2.6,2.9-4.8,2.9s-3.6-.9-4.5-2.7c-1.2-2.4-1.8-6.1-1.8-10.8s.5-8.2,1.6-10.4c.8-1.8,2.7-2.9,4.8-2.9s3.6.8,4.5,2.7c1.2,2.3,1.8,6,1.8,11M386.2,241.7c0-10.7-3.5-16.4-10-16.4s-10.8,5.6-10.8,16.7,3.5,16.3,10.1,16.3,10.7-5.7,10.7-16.5"/>
    <path class="cls-2" d="M294.1,256.9v-30.4c0-.6,0-.6-.6-.6h-2.1c-.6,0-.6,0-.6.6v21.2c0,1.2,0,2.3.3,4-.4-1.6-.7-2.7-1.3-3.9l-10.1-21.5c-.1-.3-.3-.5-.7-.5h-2.9c-.6,0-.6,0-.6.6v30.4c0,.6,0,.6.6.6h2.1c.6,0,.6,0,.6-.6v-22.5c0-1.4,0-2.1-.5-4.5.5,2.1.8,3,1.4,4.3l10.6,22.8c.1.3.4.5.7.5h2.5c.6,0,.6,0,.6-.6"/>
    <path class="cls-2" d="M186.1,233.5v-1.8s0-.8,0-.8v-.9c.2,1.5.5,2.8.9,4.1l5.2,15.6c.1.4.3.5.7.5h1.3c.5,0,.6,0,.7-.5l5.4-15.6c.3-.9.7-2.4,1-4.1v.9c0,.9-.2,1.8-.2,2.4v.2l.7,23.4c0,.5,0,.6.6.6h2.7c.5,0,.6,0,.6-.5v-.2l-1.8-30.4c0-.5,0-.6-.6-.6h-2.9c-.5,0-.5,0-.7.5l-5.5,15.9c-.4,1.3-.4,1.7-.6,2.9,0-.8-.4-2-.6-2.9l-5.4-15.9c-.1-.5-.2-.5-.7-.5h-2.7c-.6,0-.6,0-.6.6l-1.8,30.4v.2c0,.4.1.5.6.5h2.5c.5,0,.6,0,.6-.6l.7-23.4Z"/>
    <path class="cls-2" d="M112.8,254.6c0-.2-.1-.3-.6-.3h-11.7v-27.7c0-.6,0-.6-.6-.6h-2.5c-.6,0-.6,0-.6.6v30.4c0,.6,0,.6.6.6h13.9c.3,0,.6-.2.7-.5l.7-2c0-.2,0-.3,0-.4"/>
    <path class="cls-2" d="M22.7,255.8c0,0,0-.2-.2-.4l-11.1-13.6,10.8-14c.2-.3.2-.3.2-.5s0-.2-.4-.5l-1.7-1.2q-.3-.2-.4-.2c-.2,0-.2,0-.5.4l-11.9,15.7v-15c0-.6,0-.6-.6-.6h-2.5c-.6,0-.6,0-.6.6v30.4c0,.6,0,.6.6.6h2.5c.6,0,.6,0,.6-.6v-14.3l11.7,15.1c.2.3.3.3.5.3s.1,0,.4-.2l2.1-1.5c.2-.2.3-.3.3-.5"/>
    <path class="cls-2" d="M825.9,154.1h8v18.9c0,3.4,0,3.8-.4,4.6-.6,1.6-2.1,2.5-4,2.5-2.9,0-4.4-1.9-4.4-5.6v-.6c0-.3-.1-.5-.4-.5h-2.7c-.4,0-.4.1-.4.9,0,5.7,2.8,8.8,7.9,8.8s5.6-1.2,7-3.3c1.1-1.7,1.2-2.6,1.2-7.1v-21.2c0-.6,0-.6-.6-.6h-11.1c-.6,0-.6,0-.6.6v1.9c0,.6,0,.6.6.6"/>
    <path class="cls-2" d="M738.3,153.9v25.6h-4.1c-.6,0-.6,0-.6.6v1.7c0,.6,0,.6.6.6h11.9c.6,0,.6,0,.6-.6v-1.7c0-.6,0-.6-.6-.6h-4.1v-25.6h4.1c.6,0,.6,0,.6-.6v-1.7c0-.6,0-.6-.6-.6h-11.9c-.6,0-.6,0-.6.6v1.7c0,.6,0,.6.6.6h4.1Z"/>
    <path class="cls-2" d="M655,164.5h-11.8v-13c0-.6,0-.6-.6-.6h-2.5c-.6,0-.6,0-.6.6v30.4c0,.6,0,.6.6.6h2.5c.6,0,.6,0,.6-.6v-14.2h11.8v14.2c0,.6,0,.6.6.6h2.5c.6,0,.6,0,.6-.6v-30.4c0-.6,0-.6-.6-.6h-2.5c-.6,0-.6,0-.6.6v13Z"/>
    <path class="cls-2" d="M563.4,169.7v9.5c-1.3.6-2.4.9-3.6.9-5.4,0-7.7-4.1-7.7-13.7s2.2-13,7.1-13,3.3.5,4.8,1.4q1.2.8,1.4.8c0,0,.2,0,.3-.2l1-2c0-.1.1-.3.1-.4,0-.2-.3-.5-.9-.9-2-1.2-4.3-1.9-6.6-1.9-7.3,0-11.3,5.8-11.3,16.6s3.9,16.3,11.1,16.3,5.9-.7,7.7-1.8c.4-.2.4-.3.4-.7v-13.5c0-.6,0-.6-.6-.6h-6.7c-.6,0-.6,0-.6.6v1.9c0,.6,0,.6.6.6h3.6Z"/>
    <path class="cls-2" d="M477,151.2c0-.2-.2-.3-.6-.3h-14.2c-.6,0-.6,0-.6.6v30.4c0,.6,0,.6.6.6h2.5c.6,0,.6,0,.6-.6v-13.9h9c.6,0,.6,0,.6-.6v-1.8c0-.6,0-.6-.6-.6h-9v-10.7h10.2c.3,0,.6-.2.7-.5l.7-2v-.2c0,0,0-.1,0-.2"/>
    <path class="cls-2" d="M385.1,151.2c0-.2-.2-.3-.6-.3h-14.2c-.6,0-.6,0-.6.6v30.4c0,.6,0,.6.6.6h14.2c.6,0,.6,0,.6-.6v-2c0-.6,0-.6-.6-.6h-11v-11.6h9c.6,0,.6,0,.6-.6v-1.8c0-.6,0-.6-.6-.6h-9v-10.4h10.2c.3,0,.6-.2.7-.5l.7-2q0-.3,0-.4"/>
    <path class="cls-2" d="M291,166.2c0,5-.6,8.3-2,10.3-1.5,2.2-3,2.8-6.5,2.8h-2.4v-25.1h1.9c2.4,0,3.9.3,5.1.9,2.7,1.4,3.9,4.9,3.9,11.1M295.1,166.2c0-6.4-1.8-11.2-5.1-13.4-1.9-1.3-4.2-1.8-8.2-1.8h-4.8c-.6,0-.6,0-.6.6v30.4c0,.6,0,.6.6.6h5.2c8.6,0,12.9-5.4,12.9-16.4"/>
    <path class="cls-2" d="M203.3,179.6c0-.1,0-.3-.1-.4l-1.2-1.5c-.1-.2-.3-.3-.4-.3-.1,0-.3,0-.5.3-1.8,1.6-3.6,2.4-5.2,2.4-4.3,0-6.5-4.8-6.5-14.1s1.8-12.6,6-12.6,2.7.5,4.2,1.6q1.4,1.1,1.6,1.1c.1,0,.3,0,.4-.2l1.3-1.8c0,0,0-.2,0-.4,0-.3-.2-.4-.7-.9-1.9-1.6-4.4-2.6-6.9-2.6s-5.9,1.5-7.5,3.9c-1.8,2.9-2.6,6.8-2.6,12.2,0,10.9,3.6,16.8,10.4,16.8s4.5-.7,6.2-2.1c.9-.6,1.3-1.2,1.3-1.5"/>
    <path class="cls-2" d="M108.6,173.7c0,2-.7,3.7-2,4.7-1.1.8-2.1,1.1-4.2,1.1h-4.5v-11.5h4.3c1.6,0,2.9.2,3.8.7,1.7.9,2.6,2.7,2.6,5M107.4,158.9c0,2.4-.8,4.2-2.3,5.2-1,.7-1.7.8-3.9.8h-3.3v-10.9h4.3c3.8,0,5.2,1.3,5.2,4.9M112.8,173.8c0-2.5-.9-4.8-2.4-6.2-.9-.8-1.7-1.2-3.3-1.6,3-1.4,4.5-4.1,4.5-7.5s-1.1-5.1-3-6.3c-1.4-.9-3-1.2-6.3-1.2h-7.5c-.6,0-.6,0-.6.6v30.4c0,.6,0,.6.6.6h6.7c3.3,0,4.6,0,6-.6,3.3-1.1,5.3-4.2,5.3-8.1"/>
    <path class="cls-2" d="M12.4,159.7l2.8,10.1h-7.7l2.8-10.2c.5-1.7.8-3.2,1.1-4.4.3,1.3.6,2.8,1.1,4.4M22.9,182.2v-.4c0,0-9.4-30.4-9.4-30.4-.1-.5-.2-.5-.7-.5h-2.8c-.5,0-.6,0-.7.5L0,181.8q0,.3,0,.4c0,.2.2.3.6.3h2.8c.4,0,.6-.2.7-.5l2.6-9h9.4l2.5,9c.1.3.3.5.7.5h3c.5,0,.6,0,.6-.4"/>
    <path class="cls-1" d="M591,33.3h4v-11.9c0-.7,0-1.3.2-1.9.6-3,2.6-5.2,5.4-5.2s1,0,1.4.1v-3.8c-.4,0-.7-.1-1.2-.1-2.7,0-5.2,1.9-6.2,4.9h-.2v-4.4h-3.7c.1,2.1.2,4.3.2,7v15.4ZM580.5,25.7c0,.4,0,.9-.2,1.3-.6,1.9-2.5,3.7-5.4,3.7s-3.8-1.2-3.8-3.9c0-4.3,5-5.1,9.5-5v3.9ZM584.8,33.3c-.3-1.5-.4-3.4-.4-5.4v-8.3c0-4.5-1.7-9.1-8.5-9.1s-5.5.8-7.3,2l.9,2.7c1.6-1,3.7-1.7,5.8-1.7,4.6,0,5.1,3.3,5.1,5.2v.5c-8.6,0-13.4,2.9-13.4,8.3s2.3,6.4,6.8,6.4,5.6-1.6,6.8-3.3h.1l.3,2.8h3.7ZM557.9,33.3h4.1V.5h-4.1v32.7ZM551.2,10.9h-4.1v13.7c0,.7-.1,1.5-.4,2.1-.7,1.8-2.6,3.7-5.4,3.7s-5-2.9-5-7.1v-12.4h-4.1v13.1c0,7.8,4.2,9.8,7.7,9.8s6.3-2.4,7.4-4.2h0l.2,3.6h3.6c-.1-1.8-.2-3.8-.2-6.1V10.9ZM521.7,23.8c0,.7,0,1.5-.3,2.2-.9,2.6-3.1,4.2-5.6,4.2-4.4,0-6.6-3.6-6.6-8s2.8-8.4,6.6-8.4,4.9,1.9,5.7,4.3c.2.6.2,1.2.2,1.8v4ZM522.4,10.9l-.2,3.4h0c-1-1.8-3.1-3.9-7-3.9s-10.1,4.3-10.1,11.9,4,10.9,9.5,10.9,5.9-1.7,7.1-3.7h0v2.5c0,5.6-3,7.8-7.2,7.8s-5.1-.8-6.5-1.8l-1,3.1c1.8,1.2,4.8,1.8,7.4,1.8s6-.6,8.1-2.7c2.2-1.9,3.2-5.1,3.2-10.2v-13c0-2.7,0-4.5.2-6.1h-3.6ZM485.9,19.9c.3-2.8,2.1-6.6,6.2-6.6s5.7,4,5.6,6.6h-11.9ZM501.5,22.8c0-.4.1-1.1.1-1.9,0-4.1-1.9-10.5-9.2-10.5s-10.5,5.3-10.5,12,4.1,11.3,11,11.3,6-.7,7.4-1.4l-.7-2.9c-1.5.6-3.3,1.2-6.2,1.2s-7.6-2.3-7.7-7.7h15.7ZM469,33.3h4v-11.9c0-.7,0-1.3.2-1.9.6-3,2.6-5.2,5.4-5.2s1,0,1.4.1v-3.8c-.4,0-.7-.1-1.2-.1-2.7,0-5.2,1.9-6.2,4.9h-.2v-4.4h-3.7c.1,2.1.2,4.3.2,7v15.4ZM444.8,5.6v5.4h-3.5v3.1h3.5v12.2c0,2.6.4,4.6,1.6,5.8,1,1.1,2.5,1.7,4.4,1.7s2.8-.2,3.6-.6l-.2-3c-.5.1-1.3.3-2.4.3-2.3,0-3-1.6-3-4.3v-12h5.8v-3.1h-5.8v-6.4l-4,1.1ZM434.4,33.3V14h5.4v-3.1h-5.4v-1.2c0-3.4.9-6.5,4.3-6.5s2,.2,2.6.5l.6-3.1c-.8-.3-2-.6-3.5-.6s-3.9.6-5.4,2.1c-1.9,1.8-2.6,4.7-2.6,7.8v1.1h-3.1v3.1h3.1v19.2h4ZM421.2,2.1c-1.5,0-2.5,1.1-2.5,2.5s1,2.5,2.4,2.5,2.6-1.1,2.6-2.5c0-1.4-1-2.5-2.5-2.5M423.2,10.9h-4.1v22.3h4.1V10.9ZM403.9,33.3h4v-11.9c0-.7,0-1.3.2-1.9.6-3,2.6-5.2,5.4-5.2s1,0,1.4.1v-3.8c-.4,0-.7-.1-1.2-.1-2.7,0-5.2,1.9-6.2,4.9h-.2v-4.4h-3.7c.1,2.1.2,4.3.2,7v15.4ZM378.3,33.3h4.1v-13.5c0-.8,0-1.4.3-1.9.7-2.2,2.8-4.1,5.4-4.1,3.8,0,5.2,3,5.2,6.6v12.8h4.1v-13.3c0-7.7-4.8-9.5-7.8-9.5s-3,.5-4.2,1.2c-1.2.7-2.3,1.7-2.9,2.9h0V.5h-4.1v32.7ZM372.8,29.4c-1.2.5-2.7,1.1-5,1.1-4.4,0-7.7-3.2-7.7-8.3s2.8-8.4,7.9-8.4,3.7.5,4.7,1.1l.9-3.1c-1.1-.6-3.2-1.2-5.6-1.2-7.3,0-12,5-12,11.9s4.4,11.4,11.1,11.4,5.4-.7,6.4-1.3l-.7-3ZM337.8,32.2c1.6.9,3.8,1.5,6.3,1.5,5.3,0,8.3-2.8,8.3-6.7s-2-5.3-5.9-6.7c-2.9-1.1-4.2-1.9-4.2-3.8s1.3-3,3.7-3,3.7.7,4.6,1.3l1-3c-1.2-.7-3.2-1.4-5.5-1.4-4.8,0-7.7,3-7.7,6.5s1.9,4.9,5.9,6.3c3,1.1,4.2,2.2,4.2,4.1s-1.4,3.3-4.3,3.3-4.2-.8-5.4-1.6l-1,3.1ZM319.5,32.2c1.6.9,3.8,1.5,6.3,1.5,5.3,0,8.3-2.8,8.3-6.7s-2-5.3-5.9-6.7c-2.9-1.1-4.2-1.9-4.2-3.8s1.3-3,3.7-3,3.7.7,4.6,1.3l1-3c-1.2-.7-3.2-1.4-5.5-1.4-4.8,0-7.7,3-7.7,6.5s1.9,4.9,5.9,6.3c3,1.1,4.2,2.2,4.2,4.1s-1.4,3.3-4.3,3.3-4.2-.8-5.4-1.6l-1,3.1ZM314.3,10.9h-4.1v13.7c0,.7-.1,1.5-.4,2.1-.7,1.8-2.6,3.7-5.4,3.7s-5-2.9-5-7.1v-12.4h-4.1v13.1c0,7.8,4.2,9.8,7.7,9.8s6.3-2.4,7.4-4.2h0l.2,3.6h3.6c-.1-1.8-.2-3.8-.2-6.1V10.9ZM285.2,25.7c0,.4,0,.9-.2,1.3-.6,1.9-2.5,3.7-5.4,3.7s-3.8-1.2-3.8-3.9c0-4.3,5-5.1,9.5-5v3.9ZM289.5,33.3c-.3-1.5-.4-3.4-.4-5.4v-8.3c0-4.5-1.7-9.1-8.5-9.1s-5.5.8-7.3,2l.9,2.7c1.6-1,3.7-1.7,5.8-1.7,4.6,0,5.1,3.3,5.1,5.2v.5c-8.6,0-13.4,2.9-13.4,8.3s2.3,6.4,6.8,6.4,5.6-1.6,6.8-3.3h.1l.3,2.8h3.7ZM243.5,2.2v31.1h4v-14.6h15v14.6h4.1V2.2h-4.1v13h-15V2.2h-4Z"/>
  </g>
  <g>
    <path class="cls-2" d="M844.7,1471.3c-.6-2.1-1.5-3.8-2.9-5.3-.9-1-2-1.7-3.2-2.3-1.2-.6-2.7-.8-4.3-.8s-3.2.3-4.6.9c-1.4.6-2.6,1.4-3.6,2.4-1.4,1.4-2.4,3.3-3,5.6-.6,2.3-.9,4.9-.9,7.7,0,5,1,8.9,2.9,11.7,1.9,2.8,4.8,4.2,8.6,4.2s3.5-.3,4.9-.9c1.4-.6,2.5-1.5,3.5-2.6,1.3-1.5,2.2-3.3,2.7-5.4.5-2.2.7-4.8.7-7.8s-.3-5.2-.9-7.2M838.2,1484.2c-.1,1.1-.3,2-.7,2.8-.3.9-.8,1.5-1.5,1.9-.6.4-1.4.6-2.2.6s-1.4-.2-1.9-.5c-.6-.4-1-.9-1.4-1.7-.4-.8-.7-1.9-.9-3.2-.2-1.3-.3-2.9-.3-4.8s.1-3.6.3-5c.2-1.4.5-2.5.9-3.3.4-.8.9-1.5,1.5-1.8.6-.4,1.2-.6,2-.6,1.5,0,2.6.8,3.3,2.4.2.4.3.9.5,1.5.1.5.2,1.2.3,1.8,0,.7.2,1.5.2,2.4,0,.9,0,1.9,0,3.1,0,1.8,0,3.3-.2,4.4"/>
    <path class="cls-2" d="M750.7,1466.5c-1.8-2.4-4.4-3.6-7.8-3.6s-3.1.3-4.4.8c-1.3.6-2.4,1.3-3.3,2.4-.9,1-1.6,2.2-2.1,3.6-.5,1.4-.8,3-.8,4.7s.3,3.9.8,5.3c.5,1.4,1.4,2.6,2.5,3.6.8.7,1.7,1.2,2.7,1.5s2,.5,3.1.5,1.7-.2,2.5-.5,1.6-.9,2.4-1.6c-.8,2.2-1.8,3.9-3,4.8-1.2,1-2.7,1.5-4.3,1.5s-1.1,0-1.7-.2c-.6-.1-1.2-.2-1.6-.4-.1,0-.3,0-.4,0s-.3.1-.3.4l-1,4.4c0,.3,0,.6.5.8.5.2,1.2.4,2,.6.8.1,1.7.2,2.6.2,2.2,0,4.2-.4,6-1.3,1.8-.9,3.2-2.2,4.5-3.8,1.2-1.6,2.2-3.6,2.8-5.9.7-2.3,1-4.8,1-7.6,0-4.4-.9-7.8-2.6-10.2M745.3,1478.6c-.6.9-1.6,1.4-2.7,1.4-2.4,0-3.6-1.8-3.6-5.5s.3-3.4,1-4.3c.6-1,1.6-1.5,2.8-1.5s2,.5,2.6,1.4c.6,1,.9,2.4.9,4.3s-.3,3.2-1,4.2"/>
    <path class="cls-2" d="M662.6,1483.4c-.3-.8-.7-1.5-1.2-2.2-.5-.7-1.1-1.2-1.8-1.8s-1.4-1-2.2-1.4c1.5-.9,2.7-1.9,3.5-3.1.8-1.2,1.2-2.5,1.2-3.9s-.3-2.4-.8-3.4c-.5-1-1.3-1.9-2.2-2.7-.9-.7-2-1.3-3.3-1.7-1.3-.4-2.6-.6-4.1-.6s-2.8.2-4,.6c-1.2.4-2.3,1-3.3,1.7-.9.7-1.6,1.6-2.2,2.7-.5,1-.8,2.2-.8,3.4s.4,2.9,1.2,4.1c.8,1.2,2,2.2,3.5,3-1.8.8-3.3,1.9-4.3,3.3-1,1.4-1.6,2.9-1.6,4.7s.3,2.7.8,3.9c.5,1.1,1.3,2.1,2.3,2.9,1,.8,2.2,1.4,3.6,1.8,1.4.4,3,.6,4.7.6s2.9-.2,4.2-.6c1.4-.4,2.6-1,3.7-1.8,1.1-.8,1.9-1.8,2.6-2.9.6-1.2,1-2.6,1-4.2s-.2-1.8-.5-2.6M654.2,1474.2c-.5.6-1.3,1.1-2.2,1.5-.9-.4-1.8-.9-2.5-1.5-.7-.6-1.1-1.5-1.1-2.6s.3-1.7.9-2.3c.6-.6,1.4-.9,2.4-.9s1.9.3,2.4.9c.6.6.9,1.4.9,2.4s-.3,1.9-.8,2.5M654.8,1488.7c-.8.7-1.8,1.1-3.1,1.1s-2.5-.3-3.3-1c-.8-.7-1.2-1.6-1.2-2.7s.1-1.2.4-1.7c.2-.5.6-1,.9-1.4.4-.4.8-.8,1.3-1.1.5-.3,1-.6,1.5-.8.6.2,1.1.5,1.7.8.5.3,1,.6,1.4,1,.4.4.7.8,1,1.4.2.5.4,1.1.4,1.8,0,1.1-.4,2-1.1,2.7"/>
    <path class="cls-2" d="M570.5,1467v-2.4c0-.4,0-.7-.1-.8,0-.1-.4-.2-.8-.2h-18.1c-.4,0-.7,0-.8.2-.1.1-.2.4-.2.8v4.6c0,.4,0,.7.2.8.1,0,.4.1.8.1h10.9l-9.5,23c-.2.4-.2.7-.2.8,0,.2.3.3.7.3l5.2.9c.4,0,.7,0,.8,0,.1,0,.2-.2.4-.6l10.7-27.6Z"/>
    <path class="cls-2" d="M479.4,1478.9c-.5-1.5-1.3-2.8-2.4-3.9-.7-.7-1.6-1.2-2.7-1.6-1-.4-2.1-.5-3.3-.5s-1.7.2-2.5.5c-.8.3-1.6.9-2.5,1.6.8-2.3,1.8-3.9,3.1-4.9,1.2-1,2.7-1.5,4.2-1.5s1.1,0,1.7.2c.5.2,1.1.4,1.6.6.1,0,.3,0,.4,0,.2,0,.3-.1.3-.3l1.4-4.1c0-.3,0-.5-.2-.8-.3-.4-1-.7-1.9-1-.9-.3-2-.4-3.3-.4-2.2,0-4.2.4-5.9,1.3-1.8.9-3.3,2.2-4.5,3.8-1.2,1.6-2.2,3.6-2.8,5.9-.7,2.3-1,4.8-1,7.6,0,4.4.9,7.8,2.6,10.2,1.8,2.4,4.4,3.6,7.8,3.6s3.1-.3,4.4-.8c1.3-.5,2.4-1.3,3.3-2.3.9-1,1.6-2.2,2.1-3.6.5-1.4.8-2.9.8-4.7s-.3-3.6-.8-5.1M469.8,1489.6c-1.1,0-2-.5-2.7-1.4-.6-.9-1-2.4-1-4.3s.3-3.2,1-4.2,1.6-1.4,2.8-1.4c2.4,0,3.6,1.8,3.6,5.4s-1.3,5.8-3.8,5.8"/>
    <path class="cls-2" d="M388.5,1479.8c-.5-1.2-1.1-2.3-1.9-3.1-.8-.9-1.8-1.5-3-2-1.2-.5-2.5-.7-3.9-.7s-2.9.4-4.1,1.1l.6-5.3h9.8c.4,0,.7,0,.8-.1,0,0,.1-.4.1-.8v-4.2c0-.5,0-.8-.2-.9-.1,0-.4-.1-.8-.1h-14.8c-.4,0-.7,0-.8.2,0,.1-.2.4-.2.8l-1.5,15c0,.4,0,.6,0,.8,0,.1.3.3.6.3l3.8,1.2c.2,0,.4,0,.6,0,.1,0,.3-.2.4-.3.7-.7,1.3-1.2,1.9-1.6.6-.3,1.4-.5,2.5-.5s2.3.4,3,1.1c.7.7,1.1,1.8,1.1,3.3s-.5,3.2-1.6,4.2c-1.1,1-2.6,1.5-4.5,1.5s-2.2-.1-3.2-.3c-1-.2-2.1-.5-3.3-.9-.2,0-.4,0-.6,0s-.4.2-.4.5l-.8,4.2c0,.3,0,.5,0,.6,0,.1.2.2.5.4.5.3,1.1.5,1.8.7.7.2,1.4.4,2.1.5.7.1,1.4.2,2.1.3.7,0,1.3,0,1.8,0,1.9,0,3.6-.3,5.2-.8,1.6-.6,2.9-1.3,4-2.4,1.1-1,2-2.2,2.6-3.7.6-1.4.9-3.1.9-4.9s-.2-2.9-.7-4.1"/>
    <path class="cls-2" d="M298.9,1487.8v-3.6c0-.5,0-.8-.1-1,0-.1-.4-.2-.8-.2h-2.5v-6.6c0-.4,0-.7-.2-.8-.1-.1-.4-.2-.8-.2h-4.1c-.4,0-.6,0-.7.2,0,.1-.1.4-.2.8l-.8,6.6h-6.3l11.3-16.9c.2-.3.3-.6.3-.8,0-.2-.3-.3-.7-.5l-4.6-1.9c-.4-.2-.6-.2-.7-.2-.1,0-.3.2-.5.6l-11.8,19.1v5.4c0,.4,0,.7.2.8.1.1.4.2.8.2h11.8v5.7c0,.4,0,.6.2.7.1,0,.4.1.8.1h5c.4,0,.7,0,.8-.1.1,0,.2-.4.2-.8v-5.6h2.5c.4,0,.7,0,.8-.2,0-.1.1-.4.1-.8"/>
    <path class="cls-2" d="M205.1,1480.9c-.9-1.3-2.1-2.3-3.6-3,1.2-.7,2.1-1.6,2.8-2.7.7-1,1-2.3,1-3.9s-.2-2.5-.7-3.5c-.5-1-1.2-1.9-2-2.7-.9-.8-1.9-1.3-3.1-1.7-1.2-.4-2.5-.6-3.9-.6s-3.4.4-5,1.1c-1.6.8-2.8,1.9-3.8,3.4-.1.2-.2.4-.3.6,0,.2,0,.4.2.5l3.4,3c.2.2.4.2.6,0,.1-.2.3-.4.4-.5.5-.6,1.1-1.2,1.7-1.7.6-.5,1.4-.8,2.4-.8s1.8.3,2.4.9c.6.6.9,1.3.9,2.3,0,1.4-.4,2.5-1.3,3-.8.6-1.9.8-3.2.8h-1.6c-.4,0-.7,0-.8,0s-.2.4-.2.8v3.8c0,.4,0,.7.2.8.1.1.4.2.8.2h1.5c1.9,0,3.3.3,4.1,1,.8.6,1.2,1.7,1.2,3s-.4,2.4-1.2,3.2c-.8.7-1.9,1.1-3.5,1.1s-1.8-.2-3-.5c-1.2-.3-2.4-.8-3.6-1.4-.2,0-.4-.2-.6-.2-.2,0-.3,0-.4.3l-1.3,4.3c0,.3,0,.6.3.7.6.5,1.4.8,2.2,1.2.8.3,1.7.6,2.5.7s1.6.3,2.4.4c.8,0,1.5.1,2,.1,1.6,0,3.1-.2,4.5-.7,1.4-.5,2.6-1.1,3.6-2,1-.9,1.8-1.9,2.3-3.1s.8-2.5.8-4-.4-3.3-1.3-4.6"/>
    <path class="cls-2" d="M112.1,1465.2c-1.7-1.5-4-2.3-6.9-2.3-4.3,0-7.4,1.6-9.2,4.9-.5.9-.9,1.6-1.1,2.1-.2.5-.3.9-.3,1.3s.2.5.5.6l4,1.5c.3.1.5.1.7,0,.2,0,.3-.3.5-.6.5-1.1,1-2.1,1.6-2.8.6-.7,1.5-1.1,2.7-1.1,2.2,0,3.2,1.1,3.2,3.2s-.3,2.1-.8,2.9c-.5.8-1.3,1.7-2.5,2.6-.6.4-1.2.9-1.8,1.4-.6.5-1.3,1-1.9,1.6-.9.7-1.7,1.5-2.5,2.3-.8.8-1.5,1.7-2.1,2.8-.5.9-.9,1.8-1.1,2.8-.2,1-.4,2.2-.4,3.5v1.8c0,.3,0,.6.1.6,0,0,.3.1.6.1h18c.4,0,.7,0,.8-.2s.2-.4.2-.8v-4.3c0-.4,0-.7-.2-.8-.1-.1-.4-.2-.8-.2h-10.8c.2-.8.5-1.5,1.1-2.2.6-.7,1.3-1.3,2.2-2l2.3-1.7c2.2-1.6,3.8-3.2,4.8-4.7.6-.8,1-1.7,1.2-2.7.3-1,.4-2.1.4-3.5,0-2.7-.9-4.9-2.6-6.4"/>
    <path class="cls-2" d="M23.4,1493.5v-3.6c0-.4,0-.7-.2-.8-.1,0-.4-.1-.8-.1h-3.2v-24.4c0-.4,0-.7-.1-.8,0-.1-.4-.2-.8-.2h-4.1l-9.2,6.3c-.4.2-.6.4-.6.6s0,.4.3.7l1.7,2.9c.2.3.4.5.5.6.1,0,.4,0,.7-.2l4.4-2.4v17h-4.2c-.4,0-.7,0-.8.1-.1,0-.2.4-.2.8v3.6c0,.4,0,.7.2.8.1.1.4.2.8.2h14.5c.4,0,.7,0,.8-.2s.2-.4.2-.8"/>
    <path class="cls-2" d="M838.6,1413.5c-.3-.6-.6-1.2-1.1-1.6-.5-.5-1-.8-1.6-1.1-.6-.3-1.3-.4-2-.4s-1.4.1-2,.4c-.6.3-1.2.6-1.6,1.1-.5.5-.8,1-1.1,1.6-.3.6-.4,1.3-.4,2s.1,1.4.4,2c.3.6.6,1.2,1.1,1.6.5.5,1,.8,1.6,1.1.6.3,1.3.4,2,.4s1.4-.1,2-.4c.6-.3,1.2-.6,1.6-1.1.5-.5.8-1,1.1-1.6.3-.6.4-1.3.4-2s-.1-1.4-.4-2"/>
    <path class="cls-2" d="M752,1392.2c-.5-1.1-1.2-2.1-2-2.8s-1.9-1.4-3.1-1.8c-1.2-.4-2.5-.6-4-.6s-1.1,0-1.8.1c-.7,0-1.5.2-2.3.4-.8.2-1.6.4-2.4.6-.8.3-1.5.6-2.1.9-.3.2-.6.4-.7.5-.2.2-.2.4,0,.8l1.5,4.2c.2.4.3.6.6.5.2,0,.5-.2.7-.3,1-.4,1.9-.8,2.7-1.1.8-.3,1.7-.5,2.7-.5s2.2.2,2.9.7c.6.5.9,1.1.9,1.9,0,1.2-.5,2.1-1.5,2.7-1,.6-2.6,1.1-4.6,1.7-.4.1-.7.2-.9.4-.1.1-.2.4-.2.7v5.5c0,.4,0,.7.2.8.1.1.4.2.8.2h4.7c.4,0,.7,0,.8-.2.1-.1.2-.4.2-.8v-2.4c.8-.2,1.3-.5,1.8-.6.4-.2.9-.4,1.4-.6,1.5-.8,2.6-1.8,3.4-3,.8-1.2,1.1-2.6,1.1-4.2s-.2-2.6-.7-3.7M745.2,1413.1c-.9-.9-2-1.3-3.3-1.3s-2.4.4-3.3,1.3c-.9.9-1.3,2-1.3,3.3s.4,2.4,1.3,3.3c.9.9,2,1.3,3.3,1.3s2.4-.4,3.3-1.3c.9-.9,1.3-2,1.3-3.3s-.4-2.4-1.3-3.3"/>
    <path class="cls-2" d="M655.7,1388.4c0-.4,0-.7,0-.8,0-.1-.4-.2-.8-.2h-6.4c-.5,0-.8,0-.9.2,0,.1-.1.4,0,.8l1.1,18.4c0,.4,0,.7.2.8.1.1.4.2.8.2h4.2c.4,0,.7,0,.8-.2.1-.1.2-.4.2-.8l1.1-18.4ZM655,1413.1c-.9-.9-2-1.3-3.3-1.3s-2.4.4-3.3,1.3c-.9.9-1.3,2-1.3,3.3s.4,2.4,1.3,3.3c.9.9,2,1.3,3.3,1.3s2.4-.4,3.3-1.3c.9-.9,1.3-2,1.3-3.3s-.4-2.4-1.3-3.3"/>
    <path class="cls-2" d="M574.6,1415.9l-3.1-3.4c.3-.6.7-1.3,1-2,.3-.8.6-1.5.8-2.3.2-.8.4-1.5.6-2.2.1-.7.2-1.3.2-1.8s-.2-.7-.6-.8l-4.4-.8c-.2,0-.4,0-.6,0-.2,0-.3.2-.3.6,0,.8-.2,1.6-.4,2.5-.2.9-.4,1.6-.7,2.3l-4.2-4.7c.7-.5,1.3-1,1.7-1.3.4-.3.8-.8,1.3-1.3.8-.8,1.4-1.7,1.9-2.7.5-1,.7-2,.7-3.2s-.2-2.2-.7-3.1c-.4-1-1.1-1.8-1.8-2.5-.8-.7-1.7-1.2-2.8-1.6-1.1-.4-2.3-.6-3.6-.6s-2.6.2-3.7.6c-1.2.4-2.2,1-3,1.7-.9.7-1.5,1.6-2.1,2.6-.5,1-.8,2.1-.8,3.3s0,1.1.2,1.7c.1.5.4,1.1.6,1.7.3.6.7,1.2,1.2,1.9.5.7,1.1,1.4,1.9,2.3-.8.5-1.6,1.1-2.4,1.6-.8.6-1.5,1.2-2.1,1.9-.6.7-1.1,1.5-1.4,2.4-.4.9-.5,1.9-.5,3s.3,2.7.8,3.9c.5,1.1,1.3,2.1,2.2,2.9,1,.8,2.1,1.4,3.5,1.8,1.4.4,2.9.6,4.6.6s2,0,2.9-.2c.8-.1,1.6-.3,2.3-.6.7-.3,1.3-.6,1.9-1,.6-.4,1.2-.8,1.8-1.3l2.5,2.5c.2.2.5.4.6.4s.4,0,.6-.3l3.2-3c.3-.3.4-.5.4-.7,0-.2-.1-.4-.4-.7M561.3,1397.1c-.4.6-1.1,1.4-2.1,2.3-.2-.2-.3-.3-.3-.4,0,0-.2-.2-.3-.3,0,0-.2-.2-.3-.3-.1-.1-.3-.3-.5-.6-.4-.4-.7-.9-.9-1.4-.2-.5-.3-1-.3-1.5,0-.8.3-1.4.8-1.9.5-.5,1.2-.7,2-.7s1.4.2,1.9.7c.5.4.7,1.1.7,2s-.2,1.5-.6,2.2M563.4,1413.1c-.6.6-1.3,1.1-2.1,1.4-.7.3-1.5.5-2.4.5s-2.2-.4-3-1.1c-.8-.7-1.2-1.7-1.2-2.8s1-3.1,3-4.5l5.7,6.5Z"/>
    <path class="cls-2" d="M479.3,1414.7c0-.4.1-.6,0-.8,0-.1-.3-.2-.6-.2h-7.9c-.5,0-.9,0-1.4,0-.5,0-.9.1-1.3.2.3-.2.7-.5,1.1-.9.4-.4.7-.8,1.1-1.3l8.3-10.3v-3.8c0-.3,0-.6-.1-.7,0-.1-.3-.2-.6-.2h-15.9c-.3,0-.6,0-.7.2-.1.1-.2.3-.2.7v3.9c0,.4,0,.6.1.7,0,0,.3.1.7.1h5.9c.8,0,1.4,0,1.8,0,.4,0,.8,0,1.2-.1-.3.2-.6.5-1.1,1-.4.5-.9,1-1.3,1.5l-8.3,10.2v3.7c0,.3,0,.6.1.6,0,0,.3.1.6.1h16.4c.2,0,.4,0,.6,0,.1,0,.2-.2.3-.5l1.1-4.3Z"/>
    <path class="cls-2" d="M389.9,1397.9c0-.3,0-.5,0-.6s-.2-.2-.7-.3l-5.4-.6c-.3,0-.5,0-.6,0-.1,0-.2.2-.3.6l-2.7,12.3c-.2.9-.4,1.8-.5,2.9-.2,1-.3,2-.5,3-.2-1-.4-2.2-.6-3.4-.2-1.2-.5-2.3-.7-3.4l-3-11.4c0-.3-.2-.5-.3-.6-.1,0-.3,0-.6,0l-6,.6c-.4,0-.7.2-.7.3,0,.1,0,.4.1.7l7.5,20.9c0,.3.2.5.3.5.1,0,.3,0,.6,0h1.8l-.6,1.9c-.3,1-.7,1.7-1.1,2.1-.5.4-1.1.5-2,.5s-1.2-.1-1.9-.4c-.7-.3-1.3-.6-1.8-.8-.4-.2-.6-.2-.8.2l-1.8,3.6c0,.2-.1.4-.2.6,0,.2,0,.3.3.5.4.3.8.6,1.4.8.6.2,1.2.5,1.8.6.6.2,1.3.3,1.9.4.6,0,1.1.1,1.6.1,1.8,0,3.4-.4,4.5-1.2.8-.5,1.4-1.1,1.9-1.8.5-.7,1-1.5,1.3-2.4.4-.9.7-1.7.9-2.6.2-.9.5-1.8.7-2.6.2-.6.3-1.1.4-1.5.1-.5.2-.9.3-1.3l5.2-18.3Z"/>
    <path class="cls-2" d="M298.7,1418.2l-7.1-10.1,6.6-8.9c.2-.3.4-.5.3-.7,0-.2-.2-.3-.6-.4l-5.5-1.5c-.3,0-.5,0-.6,0-.1,0-.3.1-.4.4l-2.6,4.2c-.5.8-1,1.6-1.4,2.3-.2-.3-.3-.7-.6-1.1-.2-.4-.4-.8-.6-1.2l-2.3-4.1c-.2-.2-.3-.4-.4-.4,0,0-.3,0-.6,0l-5.5,1.3c-.4,0-.6.2-.6.4s0,.4.3.7l6.2,9-7.1,9.6c-.4.6-.2,1,.4,1.1l5.5,1.3c.3,0,.5,0,.6,0,0,0,.2-.1.4-.4l3.1-4.8c.2-.4.5-.8.7-1.2.2-.4.4-.8.6-1.2.2.4.4.7.6,1.1.2.4.4.8.7,1.3l2.9,4.8c.2.2.3.4.4.4.1,0,.3,0,.6,0l5.7-.9c.7-.1.8-.5.4-1.1"/>
    <path class="cls-2" d="M211.9,1398c0-.3.1-.6,0-.7,0-.1-.3-.2-.7-.3l-5.1-.6c-.3,0-.6,0-.7,0-.1,0-.2.3-.3.6l-2.1,9.6c-.2.6-.3,1.5-.4,2.5-.1,1-.3,2.2-.4,3.6-.1-1.3-.2-2.4-.3-3.4,0-1-.2-1.8-.3-2.4l-1.8-9.5c0-.3-.1-.5-.2-.6,0,0-.3-.1-.6-.1h-5.1c-.3,0-.5,0-.6.1,0,0-.1.3-.2.6l-2.1,9.8c-.1.6-.2,1.4-.3,2.3,0,1-.2,2-.3,3.2,0-.9-.2-1.9-.3-3-.1-1.1-.3-2.1-.4-2.9l-1.9-9.8c0-.3-.1-.5-.2-.6,0,0-.3,0-.6,0l-5.4.6c-.4,0-.6.2-.7.3,0,.1,0,.4,0,.7l5.8,21.3c0,.3.1.5.2.5s.3,0,.6,0h4.8c.3,0,.5,0,.6,0,0,0,.2-.2.2-.6l2.4-10.7c.2-.7.3-1.5.4-2.4.1-.9.2-1.7.3-2.4,0,.7.1,1.5.2,2.4,0,.9.2,1.7.3,2.4l1.8,10.7c0,.3.1.5.2.6,0,0,.3,0,.6,0h4.8c.3,0,.5,0,.6,0,0,0,.2-.2.3-.5l6.7-21.3Z"/>
    <path class="cls-2" d="M116.6,1397.9c.1-.3.1-.6,0-.7,0-.1-.3-.2-.7-.2l-5.5-.5c-.3,0-.5,0-.6,0-.1,0-.2.2-.3.6l-2.8,10.2c-.2.7-.4,1.5-.6,2.6-.2,1.1-.4,2.1-.6,3.2-.2-1.1-.4-2.2-.6-3.3-.2-1-.4-1.9-.5-2.6l-2.6-10.2c0-.3-.1-.5-.3-.6-.1,0-.3,0-.7,0l-6.2.4c-.4,0-.7.1-.7.3s0,.4.1.7l7.9,22c0,.3.2.5.3.5,0,0,.3.1.6.1h4.9c.3,0,.5,0,.6-.1,0,0,.2-.3.3-.5l8-22Z"/>
    <path class="cls-2" d="M24,1416.3c-.1-.7-.2-1.6-.2-2.8v-16.7c0-.4,0-.6-.1-.7,0,0-.3,0-.8,0l-5.5.8c-.3,0-.5.1-.6.2,0,0,0,.3,0,.6v16c-1.1,1-2.2,1.5-3.4,1.5s-1.5-.3-1.8-.8c-.3-.5-.5-1.4-.5-2.6v-15c0-.4,0-.6-.1-.7,0,0-.3,0-.7,0l-5.6.8c-.3,0-.5.1-.6.2,0,0,0,.3,0,.6v13.4c0,1,0,1.9,0,2.6,0,.7.1,1.3.3,1.8.1.5.3,1,.5,1.4.2.4.5.8.9,1.2.6.7,1.4,1.2,2.4,1.6,1,.4,2.1.5,3.3.5s2.4-.2,3.3-.6c.9-.4,1.8-1,2.8-1.9.2.7.4,1.3.6,1.7.2.4.5.6.8.6s.4,0,.6,0l4.9-1c.4,0,.5-.4.2-.8-.3-.6-.5-1.3-.7-2"/>
    <path class="cls-2" d="M843,1342.9l-1-3.9c-.1-.5-.4-.6-.8-.4-.8.3-1.4.6-1.9.7-.5.1-1,.2-1.4.2s-.9-.1-1.1-.4c-.2-.3-.3-.9-.3-1.7v-10.3h4.5c.2,0,.4,0,.5-.1.1,0,.2-.3.3-.5l.7-3.7c0-.3,0-.5,0-.6,0-.1-.3-.2-.7-.2h-5.3v-6.6c0-.3,0-.5-.2-.6-.1,0-.3,0-.7,0l-5.5.6c-.3,0-.5,0-.6.2,0,0,0,.3,0,.6v5.9h-3c-.4,0-.6,0-.7.1,0,0-.1.3-.1.7v3.6c0,.4,0,.6.1.7,0,0,.3,0,.7,0h3.1v10.8c0,1,0,1.9.2,2.6.1.7.3,1.3.7,2,.5,1,1.3,1.7,2.3,2.3,1,.5,2.3.8,3.9.8s2-.1,3.1-.4c1.1-.2,2.1-.6,3-.9.4-.2.6-.3.6-.5,0-.2,0-.4,0-.8"/>
    <path class="cls-2" d="M750.1,1333.6c-.6-.6-1.4-1.2-2.2-1.6-.9-.4-2.1-1-3.6-1.6-1.1-.4-1.9-.8-2.3-1-.5-.3-.7-.7-.7-1.3s.2-1.1.7-1.3c.5-.3,1.1-.4,1.8-.4s1.5.1,2.4.4c.9.3,1.7.6,2.5.9.2,0,.4.1.5,0,.1,0,.2-.2.3-.4l1.4-3.6c0-.2.1-.4.1-.6s-.1-.3-.4-.4c-.9-.5-1.9-.9-3.1-1.2-1.2-.3-2.6-.5-4.2-.5s-2.4.2-3.5.5c-1.1.3-2,.8-2.8,1.5-.8.6-1.4,1.4-1.8,2.3-.4.9-.7,1.9-.7,3.1s.2,1.9.5,2.7c.3.7.7,1.3,1.2,1.8.5.5,1.2,1,2,1.4.8.4,1.8.9,3.1,1.4,1.3.5,2.2.9,2.7,1.2.5.3.8.7.8,1.4s-.2,1.1-.6,1.4c-.4.3-1,.4-1.7.4s-.9,0-1.5-.2c-.6-.1-1.2-.3-1.8-.5-.6-.2-1.2-.4-1.8-.7-.6-.2-1.1-.5-1.6-.7-.2-.1-.4-.2-.6-.1-.2,0-.3.2-.3.4l-1.2,3.8c0,.3-.1.6-.1.7s.2.3.5.5c1.1.6,2.4,1.1,3.9,1.5,1.5.4,3.2.6,5,.6s2.4-.2,3.4-.5c1-.3,1.9-.8,2.7-1.4.8-.6,1.3-1.4,1.8-2.3s.6-2,.6-3.2c0-1.8-.5-3.3-1.5-4.4"/>
    <path class="cls-2" d="M659.8,1321.4c-.6-.2-1.2-.3-1.8-.3-1,0-1.9.2-2.6.7-.7.4-1.5,1.1-2.4,2.1,0,0-.1.1-.2.2,0,.1-.2.2-.2.3-.3-1-.6-1.8-.9-2.3-.3-.6-.6-.9-1-.9s-.4,0-.6.1l-4.5,1.2c-.3,0-.5.2-.4.5,0,.2.1.4.2.7.2.6.5,1.5.8,2.6.3,1.1.4,2.3.4,3.6v14.2c0,.4,0,.6,0,.6,0,0,.3,0,.6,0h5.7c.3,0,.5,0,.6,0,0,0,.1-.3.1-.6v-14.9c.6-.7,1.2-1.2,1.6-1.4.4-.2.9-.4,1.4-.4s.9,0,1.2.2c.3.1.6.3.9.4.3.2.6,0,.7-.4l1.5-4.1c0-.2.1-.3.2-.5,0-.2,0-.4-.1-.5-.3-.4-.8-.7-1.3-.9"/>
    <path class="cls-2" d="M570.9,1322.1l-4.3-1.1c0,0-.2,0-.4,0-.2,0-.3,0-.3,0-.4,0-.7.2-1,.6-.3.4-.6.9-.9,1.5-.9-.7-1.7-1.2-2.5-1.5-.8-.3-1.7-.5-2.7-.5-1.5,0-2.8.3-3.9.9-1.1.6-2.1,1.5-2.8,2.6-.8,1.1-1.3,2.4-1.7,4-.4,1.6-.6,3.3-.6,5.2,0,3.6.7,6.5,2.1,8.5,1.4,2.1,3.6,3.1,6.4,3.1s1.6-.1,2.4-.3c.8-.2,1.5-.6,2.2-1.1v9.5c0,.3,0,.6.1.7,0,.1.3.1.5,0l5.9-.9c.2,0,.4-.1.5-.2,0,0,0-.3,0-.5v-23.7c0-1.3.1-2.4.3-3.3.2-.9.5-1.8.9-2.5.2-.5,0-.8-.4-.9M562.9,1339.2c-1,1-2,1.4-3.1,1.4s-1.6-.5-2.1-1.6c-.5-1.1-.8-2.8-.8-5.3s.3-4.4.8-5.5c.6-1.1,1.3-1.7,2.3-1.7s2,.4,3,1.2v11.5Z"/>
    <path class="cls-2" d="M478.3,1324.2c-1.4-2.1-3.6-3.2-6.5-3.2s-2.1.2-3,.5c-.9.3-1.8.9-2.7,1.7-.2-.6-.4-1.1-.6-1.5-.2-.4-.4-.6-.7-.6s-.4,0-.6.1l-4.8,1.7c-.2,0-.3.1-.4.3,0,.1,0,.3,0,.5.2.7.5,1.4.6,2.2.2.7.3,1.6.3,2.6v25.2c0,.3,0,.6.1.7,0,.1.3.1.6,0l5.9-.9c.2,0,.4-.1.5-.2,0,0,0-.3,0-.6v-8.3c.7.3,1.3.6,2,.8.6.2,1.3.3,2.1.3,3.2,0,5.5-1,7-3.1,1.5-2.1,2.2-5.2,2.2-9.3s-.7-6.6-2.1-8.8M473.4,1336.8c-.1,1-.4,1.7-.6,2.3-.3.6-.7,1-1.1,1.2-.4.2-1,.3-1.6.3s-1.8-.2-2.8-.7v-12.3c.6-.5,1.2-.9,1.6-1.1.5-.2,1-.3,1.5-.3,1,0,1.8.5,2.4,1.6.6,1,.9,2.8.9,5.3s0,2.7-.2,3.6"/>
    <path class="cls-2" d="M388.3,1328.2c-.5-1.5-1.1-2.8-2-3.9-.9-1.1-2-1.9-3.3-2.4-1.3-.6-2.8-.9-4.5-.9s-3.2.3-4.5.9c-1.3.6-2.5,1.4-3.4,2.4-.9,1.1-1.6,2.3-2.1,3.8-.5,1.5-.7,3.2-.7,5,0,3.8.9,6.8,2.8,8.9,1.8,2.2,4.5,3.3,7.9,3.3s3.1-.3,4.5-.9c1.3-.6,2.4-1.4,3.3-2.5.9-1.1,1.6-2.3,2.1-3.8.5-1.5.7-3.1.7-5s-.2-3.6-.7-5.1M381,1338.7c-.6,1-1.4,1.6-2.6,1.6s-2-.5-2.6-1.5c-.6-1-.9-2.9-.9-5.5s.3-4.5.9-5.5c.6-1,1.4-1.6,2.6-1.6s2,.5,2.6,1.6c.6,1,.8,2.9.8,5.5s-.3,4.4-.8,5.5"/>
    <path class="cls-2" d="M297.4,1343.9v-15.3c0-2.5-.5-4.4-1.6-5.6-1.1-1.3-2.8-1.9-5.1-1.9s-2.4.2-3.4.6c-1.1.4-2.1,1.1-3.2,2.1-.2-.6-.3-1.1-.5-1.4-.2-.4-.3-.7-.5-.9-.2-.3-.4-.5-.6-.5-.2,0-.5,0-.8.1l-4.7,1.3c-.4.1-.5.4-.3.9.2.6.5,1.4.6,2.2.2.9.3,1.9.3,3v15.4c0,.3,0,.5,0,.6,0,0,.3.1.6.1h5.6c.4,0,.6,0,.6-.1,0,0,0-.3,0-.6v-16.1c.7-.6,1.3-1,1.8-1.2.5-.2,1.1-.3,1.7-.3,1.4,0,2.1,1,2.1,3v14.6c0,.3,0,.5.1.6,0,0,.3.1.6.1h5.7c.3,0,.5,0,.6-.1,0,0,.1-.3.1-.6"/>
    <path class="cls-2" d="M211.9,1343.7v-14.8c0-1.3,0-2.4-.2-3.3-.2-.9-.4-1.7-.9-2.4-.4-.7-1-1.3-1.8-1.7-.8-.4-1.8-.6-3-.6s-2.5.2-3.5.7c-1.1.5-2.2,1.2-3.3,2.3-.4-1-1.1-1.7-2-2.2-.9-.5-2-.8-3.2-.8s-2.3.2-3.3.6c-1,.4-2,1.1-3.1,2-.2-.6-.3-1-.5-1.4-.2-.3-.3-.6-.5-.9-.2-.3-.4-.5-.6-.5s-.4,0-.6,0l-4.8,1.1c-.3,0-.5.2-.5.3,0,.2,0,.4.2.7.3.8.5,1.6.6,2.4.2.8.2,1.8.2,3v15.2c0,.4,0,.6.1.7,0,0,.3.1.7.1h5.4c.4,0,.6,0,.7-.1,0,0,.1-.3.1-.7v-16c.7-.6,1.3-1,1.8-1.2.5-.2,1-.4,1.6-.4s1.1.2,1.3.6c.2.4.3,1.2.3,2.3v14.6c0,.4,0,.6.1.7,0,0,.3.1.7.1h5.4c.3,0,.5,0,.6-.1,0,0,0-.3,0-.7v-16c.7-.6,1.3-1,1.8-1.3.5-.2,1-.4,1.6-.4s1,.2,1.2.7c.2.4.4,1.2.4,2.1v14.8c0,.4,0,.7.1.8,0,0,.3.1.6.1h5.4c.4,0,.6,0,.7-.1,0,0,.1-.3.1-.7"/>
    <path class="cls-2" d="M112.6,1343.3l-1-4.2c0-.2-.2-.2-.3-.3-.1,0-.3,0-.4,0-.2,0-.5.2-.8.3-.3,0-.6.1-1,.1-.6,0-.9-.6-.9-1.8v-25.6c0-.4,0-.6-.2-.7-.1,0-.4,0-.8,0l-5.5.9c-.5,0-.7.4-.7.9v24.9c0,1.4.2,2.6.4,3.4.2.8.6,1.6,1.2,2.2.5.6,1.2,1,2.1,1.3.8.3,1.8.4,2.7.4s1.7-.1,2.6-.3c.9-.2,1.7-.5,2.4-.9.2-.2.4-.3.4-.4,0-.1,0-.3,0-.5"/>
    <path class="cls-2" d="M25.7,1341.9l-8.3-10.1,7-7.1c.4-.4.4-.8,0-1.2l-3.5-2.5c-.2-.2-.4-.3-.6-.3-.1,0-.3.1-.6.3l-7.9,8.2v-17.3c0-.4,0-.7-.2-.8s-.4-.1-.9,0l-5.3.9c-.3,0-.6.1-.6.3,0,.1-.1.3-.1.7v30.9c0,.3,0,.5,0,.6,0,0,.3,0,.6,0h5.8c.3,0,.5,0,.6,0,0,0,.1-.3.1-.6v-8.8l7.6,9.8c.2.2.4.4.5.4s.4,0,.6-.2l5-2.1c.3-.2.5-.3.5-.5s-.1-.4-.3-.6"/>
    <path class="cls-2" d="M838.5,1238c-.2-.5-.5-1-.9-1.4-.4-.4-.9-.7-1.4-.9-.5-.2-1.1-.3-1.7-.3-1.3,0-2.3.4-3.1,1.3-.8.9-1.2,1.9-1.2,3s.1,1.1.3,1.7c.2.5.5,1,.9,1.4.4.4.9.7,1.4.9.5.2,1.1.3,1.7.3s1.2-.1,1.7-.3c.5-.2,1-.5,1.4-.9.4-.4.7-.9.9-1.4.2-.5.3-1.1.3-1.7s-.1-1.1-.3-1.7M838.3,1269.1v-21.5c0-.3,0-.5-.1-.6,0,0-.3-.1-.6-.1h-9.4c-.3,0-.5,0-.6.1,0,0-.1.3-.1.6v4c0,.3,0,.5.1.6,0,0,.3.1.6.1h3v16.8c0,1.1,0,2.1,0,2.8,0,.7-.1,1.3-.3,1.7-.2.4-.4.7-.6.9-.3.2-.6.3-1.1.3s-1,0-1.4-.2c-.5-.1-1-.3-1.6-.6-.2,0-.3,0-.5,0-.2,0-.3,0-.3.3l-1.3,4.2c0,.2,0,.4,0,.6,0,.2.2.3.5.4.7.3,1.5.6,2.4.8.9.2,1.8.3,3,.3s2.7-.2,3.8-.6c1.2-.4,2.1-1,2.8-1.8.4-.5.7-.9,1-1.5.3-.5.5-1.1.6-1.8.2-.7.3-1.5.3-2.4,0-.9,0-2.1,0-3.4"/>
    <path class="cls-2" d="M747.2,1238c-.2-.5-.5-1-.9-1.4-.4-.4-.9-.7-1.4-.9-.5-.2-1.1-.3-1.7-.3-1.3,0-2.3.4-3.1,1.3-.8.9-1.2,1.9-1.2,3s.1,1.1.3,1.7c.2.5.5,1,.9,1.4.4.4.8.7,1.4.9.5.2,1.1.3,1.7.3s1.2-.1,1.7-.3c.5-.2,1-.5,1.4-.9.4-.4.7-.9.9-1.4.2-.5.3-1.1.3-1.7s-.1-1.1-.3-1.7M747,1269v-21.4c0-.3,0-.5-.1-.6,0,0-.3-.1-.6-.1h-9.4c-.3,0-.5,0-.6.1,0,0-.1.3-.1.6v4c0,.3,0,.5.1.6,0,0,.3.1.6.1h3v16.7c0,.3,0,.5.1.6,0,0,.3,0,.6,0h5.6c.3,0,.5,0,.6,0,0,0,.1-.3.1-.6"/>
    <path class="cls-2" d="M661.5,1268.9v-15.5c0-1.1,0-2.1-.3-2.9-.2-.8-.5-1.5-.9-2.1-.5-.7-1.2-1.3-2.2-1.8-.9-.4-2-.6-3.4-.6s-2.1.2-3.1.6c-1,.4-1.9,1-2.8,1.8v-11.3c0-.4,0-.7-.2-.8-.1,0-.4-.1-.8,0l-5.4.9c-.3,0-.5.1-.6.2,0,0,0,.3,0,.6v30.9c0,.3,0,.6.1.6,0,0,.3.1.6.1h5.4c.4,0,.7,0,.8-.1,0,0,.1-.3.1-.7v-16c.6-.6,1.2-1,1.8-1.2.5-.2,1.1-.3,1.7-.3s1.3.2,1.6.7c.3.5.5,1.3.5,2.3v14.5c0,.4,0,.6.1.7,0,0,.3.1.6.1h5.4c.4,0,.6,0,.7-.1,0,0,.1-.3.1-.7"/>
    <path class="cls-2" d="M571,1248.2c0-.1,0-.3,0-.4,0-.2,0-.3,0-.4,0-.1-.1-.2-.2-.2l-4.8-1.2c-.4-.1-.7,0-1,.5-.2.2-.3.5-.5.7-.2.2-.3.5-.5.9-.8-.7-1.6-1.2-2.4-1.5-.8-.3-1.7-.4-2.7-.4-1.4,0-2.7.3-3.9.9-1.1.6-2.1,1.4-2.8,2.5-.8,1.1-1.4,2.4-1.8,3.9-.4,1.5-.6,3.2-.6,5,0,3.4.7,6,2.1,8,1.4,2,3.4,3,6.1,3s1.7-.1,2.5-.4c.8-.2,1.5-.6,2.3-1.1,0,.4.1.9.2,1.4,0,.6,0,1,0,1.2,0,1.2-.2,2-.6,2.4-.4.4-1.2.6-2.3.6s-2.4-.2-3.6-.5c-1.2-.3-2.3-.8-3.5-1.3-.3-.1-.5-.2-.7-.2-.2,0-.3.1-.4.4l-1.2,4c0,.3-.1.5,0,.6,0,.1.2.2.5.4.6.3,1.3.6,2.1.9.8.3,1.6.5,2.5.7.8.2,1.7.4,2.5.5.8.1,1.6.2,2.3.2,3,0,5.3-.7,7-2.2,1.6-1.5,2.4-3.6,2.4-6.4s0-3.3,0-4.9c0-1.6,0-3.3,0-4.9v-6.9c0-1.8.3-3.6,1-5.4,0,0,0-.2.1-.3M562.9,1263.1c-.4.4-.9.8-1.4,1-.5.2-1.1.3-1.8.3s-1.6-.5-2.1-1.5c-.5-1-.8-2.7-.8-4.9s.3-3.9.9-5c.6-1.1,1.4-1.6,2.4-1.6s1.1,0,1.5.3c.4.2.9.4,1.4.8v10.7Z"/>
    <path class="cls-2" d="M479.2,1238.5c0-.2,0-.4,0-.5,0-.1-.1-.2-.4-.4-.8-.4-1.7-.8-2.8-1-1.1-.2-2.1-.3-3.1-.3-2.3,0-4.2.6-5.5,1.8-.9.7-1.5,1.7-2,2.8-.4,1.1-.6,2.5-.6,4.2v1.8h-2.9c-.3,0-.6,0-.7.2s-.2.3-.2.5v3.6c0,.4,0,.7.1.7,0,0,.3,0,.6,0h2.9v16.9c0,.4,0,.6.2.6.1,0,.3,0,.6,0h5.6c.3,0,.5,0,.6,0,0,0,0-.3,0-.6v-16.9h4.4c.5,0,.7-.2.8-.6l.7-3.7c0-.4,0-.7,0-.8,0-.1-.3-.2-.7-.2h-5.3v-1.9c0-1.2.1-2,.4-2.4.3-.4.9-.7,1.7-.7s1.2,0,1.7.3c.5.2,1,.4,1.5.6.5.2.8,0,1-.4l1.1-3.8Z"/>
    <path class="cls-2" d="M386.3,1249.4c-1.6-2.2-4.1-3.3-7.4-3.3s-3.1.3-4.5.9c-1.3.6-2.4,1.4-3.3,2.5-.9,1.1-1.6,2.4-2.1,3.9-.5,1.5-.7,3.2-.7,5,0,3.8.9,6.8,2.7,8.9,1.8,2.1,4.5,3.1,8.2,3.1s2.3-.1,3.6-.4c1.2-.3,2.5-.8,3.8-1.4.5-.3.9-.5,1.2-.8.3-.2.3-.5.1-.9l-1.6-3.1c-.2-.5-.6-.6-1.1-.3-.9.5-1.8.9-2.7,1.2s-1.9.4-3,.4-2.5-.4-3.2-1.2c-.7-.8-1.1-2.1-1.2-3.9h12.6c.4,0,.6,0,.8-.1.2,0,.2-.4.2-.8,0-4.2-.8-7.5-2.4-9.6M381.7,1255.3h-6.6c.2-1.7.6-2.9,1.1-3.5.5-.7,1.3-1,2.4-1s1.8.3,2.3,1c.5.6.7,1.8.8,3.6"/>
    <path class="cls-2" d="M297.3,1266.7c-.1-.3-.2-.6-.3-.8,0-.3-.1-.6-.2-.9,0-.3,0-.8,0-1.2v-26.7c0-.4,0-.6-.2-.7-.1,0-.3,0-.6,0l-5.8,1.1c-.2,0-.4.1-.5.2,0,0,0,.3,0,.5v9c-1.4-.7-2.7-1-4-1s-2.5.2-3.5.6c-1,.4-2,1.1-2.9,2.1-1,1.2-1.8,2.5-2.2,4.1-.4,1.6-.6,3.5-.6,6s.2,3.3.5,4.7c.3,1.4.8,2.6,1.5,3.6.7,1,1.5,1.8,2.5,2.4,1,.6,2.2.8,3.5.8,2.1,0,4.2-.8,6.2-2.4.2.7.3,1.2.6,1.6.2.4.5.6.7.6s.4,0,.8-.1l4.4-1.5c.2,0,.4-.2.5-.3,0-.1,0-.3,0-.6-.2-.4-.3-.7-.4-1M289.7,1264c-.9.9-2,1.3-3.2,1.3s-1.8-.5-2.3-1.5c-.5-1-.8-2.9-.8-5.6s0-2.5.2-3.4c.1-.9.4-1.6.6-2.2.3-.6.7-.9,1.1-1.2.4-.2.9-.3,1.5-.3.9,0,1.9.2,2.9.6v12.3Z"/>
    <path class="cls-2" d="M205.8,1249.5c.2-.5.1-1-.3-1.3-.9-.7-1.9-1.2-3-1.6-1.1-.4-2.3-.6-3.6-.6-1.8,0-3.4.3-4.8.9-1.4.6-2.6,1.4-3.5,2.5-1,1.1-1.7,2.4-2.2,4-.5,1.6-.8,3.3-.8,5.2,0,3.7.9,6.5,2.7,8.6,1.8,2.1,4.4,3.1,7.8,3.1s1,0,1.6-.1c.6,0,1.2-.2,1.8-.4.6-.2,1.1-.4,1.7-.6.5-.2,1-.5,1.3-.8.5-.4.8-.6.9-.8.1-.2,0-.4,0-.7l-1.4-3.1c-.2-.3-.3-.5-.5-.5-.2,0-.4,0-.6.3-.6.4-1.2.7-1.8,1-.6.2-1.3.4-2,.4-1.3,0-2.3-.5-3.1-1.5-.8-1-1.1-2.7-1.1-5.1s.4-4.3,1.1-5.3c.8-1.1,1.8-1.6,3-1.6s1.4.1,2.1.4c.6.3,1.4.7,2.2,1.2.2.2.4.2.6.2s.3-.1.4-.4l1.7-3.5Z"/>
    <path class="cls-2" d="M114,1249.1c-1.4-2-3.4-3-6.2-3s-3.3.6-5,1.7v-10.7c0-.4,0-.6-.2-.7-.1,0-.4,0-.7,0l-5.6.9c-.3,0-.5.1-.6.3,0,.1,0,.3,0,.6v25.5c0,.6,0,1.2,0,1.6,0,.5-.1.9-.2,1.3,0,.4-.2.7-.3,1.1-.1.3-.2.7-.4,1-.2.5,0,.8.4.9l4.6.7c.2,0,.3,0,.4,0,0,0,.1,0,.2,0,.2,0,.5,0,.6-.3s.4-.6.8-1.4c.8.6,1.5,1.1,2.1,1.4.7.3,1.4.4,2.3.4,1.4,0,2.7-.3,3.9-.9,1.2-.6,2.3-1.5,3.2-2.6,1-1.2,1.7-2.5,2.1-4,.4-1.5.6-3.3.6-5.5,0-3.5-.7-6.3-2.1-8.3M108.1,1263.4c-.8,1.3-1.8,1.9-3,1.9s-1.5-.2-2.3-.7v-12.3c.7-.5,1.3-.8,1.7-1,.5-.2.9-.3,1.4-.3,1,0,1.7.6,2.3,1.7.6,1.1.9,2.8.9,5.1s-.4,4.3-1.2,5.6"/>
    <path class="cls-2" d="M22.9,1265.7c-.2-.7-.3-1.8-.3-3.1v-8.9c0-.6,0-1.2,0-1.6,0-.4-.1-.9-.3-1.3-.5-1.6-1.4-2.7-2.9-3.5-1.4-.8-3.2-1.2-5.4-1.2s-2.7.1-4,.3c-1.3.2-2.5.6-3.6,1.1-.4.2-.7.3-.9.5-.1.1-.1.4,0,.7l1.3,3.7c0,.2.2.4.3.4.1,0,.3,0,.5,0,1.1-.4,2.1-.8,3-1,.9-.2,1.7-.4,2.4-.4,1.2,0,2,.2,2.3.6.4.4.5,1,.5,1.9v1.3h-.4c-1.7,0-3.1.1-4.3.3-1.2.2-2.4.6-3.5,1.1-1.3.6-2.3,1.4-3,2.5-.7,1-1,2.4-1,4.1s.7,4,2,5.2c1.3,1.3,3.1,1.9,5.4,1.9s2.1-.2,3-.6c.9-.4,1.8-1,2.7-1.8.3.9.6,1.5.8,1.9.2.4.4.6.7.6s.4,0,.7-.2l4.3-1.4c.2,0,.4-.2.4-.3s0-.4-.1-.6c-.3-.7-.6-1.4-.8-2.2M15.9,1264.1c-1,1.1-2.1,1.6-3.2,1.6s-1.3-.3-1.8-.8c-.5-.5-.8-1.2-.8-2.1s.4-1.9,1.2-2.5c.8-.6,2.2-.9,4.1-.9h.4v4.6Z"/>
    <path class="cls-2" d="M838.6,1188.6c-.3-.6-.6-1.2-1.1-1.6-.5-.5-1-.8-1.6-1.1-.6-.3-1.3-.4-2-.4s-1.4.1-2,.4c-.6.3-1.2.6-1.6,1.1-.5.5-.8,1-1.1,1.6-.3.6-.4,1.3-.4,2s.1,1.4.4,2c.3.6.6,1.2,1.1,1.6.5.5,1,.8,1.6,1.1.6.3,1.3.4,2,.4s1.4-.1,2-.4c.6-.3,1.2-.6,1.6-1.1.5-.5.8-1,1.1-1.6.3-.6.4-1.3.4-2s-.1-1.4-.4-2"/>
    <path class="cls-2" d="M752,1167.3c-.5-1.1-1.2-2.1-2-2.8s-1.9-1.4-3.1-1.8c-1.2-.4-2.5-.6-4-.6s-1.1,0-1.8.1c-.7,0-1.5.2-2.3.4-.8.2-1.6.4-2.4.6-.8.3-1.5.6-2.1.9-.3.2-.6.4-.7.5-.2.2-.2.4,0,.8l1.5,4.2c.2.4.3.6.6.5.2,0,.5-.2.7-.3,1-.4,1.9-.8,2.7-1.1.8-.3,1.7-.5,2.7-.5s2.2.2,2.9.7c.6.5.9,1.1.9,1.9,0,1.2-.5,2.1-1.5,2.7-1,.6-2.6,1.1-4.6,1.7-.4.1-.7.2-.9.4-.1.1-.2.4-.2.7v5.5c0,.4,0,.7.2.8.1.1.4.2.8.2h4.7c.4,0,.7,0,.8-.2.1-.1.2-.4.2-.8v-2.4c.8-.2,1.3-.5,1.8-.6.4-.2.9-.4,1.4-.6,1.5-.8,2.6-1.8,3.4-3,.8-1.2,1.1-2.6,1.1-4.2s-.2-2.6-.7-3.7M745.2,1188.2c-.9-.9-2-1.3-3.3-1.3s-2.4.4-3.3,1.3c-.9.9-1.3,2-1.3,3.3s.4,2.4,1.3,3.3,2,1.3,3.3,1.3,2.4-.4,3.3-1.3c.9-.9,1.3-2,1.3-3.3s-.4-2.4-1.3-3.3"/>
    <path class="cls-2" d="M655.7,1163.5c0-.4,0-.7,0-.8,0-.1-.4-.2-.8-.2h-6.4c-.5,0-.8,0-.9.2,0,.1-.1.4,0,.8l1.1,18.4c0,.4,0,.7.2.8.1.1.4.2.8.2h4.2c.4,0,.7,0,.8-.2s.2-.4.2-.8l1.1-18.4ZM655,1188.2c-.9-.9-2-1.3-3.3-1.3s-2.4.4-3.3,1.3c-.9.9-1.3,2-1.3,3.3s.4,2.4,1.3,3.3c.9.9,2,1.3,3.3,1.3s2.4-.4,3.3-1.3c.9-.9,1.3-2,1.3-3.3s-.4-2.4-1.3-3.3"/>
    <path class="cls-2" d="M574.6,1191.1l-3.1-3.4c.3-.6.7-1.3,1-2,.3-.8.6-1.5.8-2.3.2-.8.4-1.5.6-2.2.1-.7.2-1.3.2-1.8s-.2-.7-.6-.8l-4.4-.8c-.2,0-.4,0-.6,0-.2,0-.3.2-.3.6,0,.8-.2,1.6-.4,2.5-.2.9-.4,1.6-.7,2.3l-4.2-4.7c.7-.5,1.3-1,1.7-1.3.4-.3.8-.8,1.3-1.3.8-.8,1.4-1.7,1.9-2.7.5-1,.7-2,.7-3.2s-.2-2.2-.7-3.1c-.4-1-1.1-1.8-1.8-2.5-.8-.7-1.7-1.2-2.8-1.6-1.1-.4-2.3-.6-3.6-.6s-2.6.2-3.7.6c-1.2.4-2.2,1-3,1.7-.9.7-1.5,1.6-2.1,2.6-.5,1-.8,2.1-.8,3.3s0,1.1.2,1.7c.1.5.4,1.1.6,1.7.3.6.7,1.2,1.2,1.9.5.7,1.1,1.4,1.9,2.3-.8.5-1.6,1.1-2.4,1.6-.8.6-1.5,1.2-2.1,1.9-.6.7-1.1,1.5-1.4,2.4-.4.9-.5,1.9-.5,3s.3,2.7.8,3.9c.5,1.1,1.3,2.1,2.2,2.9s2.1,1.4,3.5,1.8c1.4.4,2.9.6,4.6.6s2,0,2.9-.2c.8-.1,1.6-.3,2.3-.6.7-.3,1.3-.6,1.9-1,.6-.4,1.2-.8,1.8-1.3l2.5,2.5c.2.2.5.4.6.4.2,0,.4,0,.6-.3l3.2-3c.3-.3.4-.5.4-.7,0-.2-.1-.4-.4-.7M561.3,1172.3c-.4.6-1.1,1.4-2.1,2.3-.2-.2-.3-.3-.3-.4,0,0-.2-.2-.3-.3,0,0-.2-.2-.3-.3-.1-.1-.3-.3-.5-.6-.4-.4-.7-.9-.9-1.4-.2-.5-.3-1-.3-1.5,0-.8.3-1.4.8-1.9.5-.5,1.2-.7,2-.7s1.4.2,1.9.7c.5.4.7,1.1.7,2s-.2,1.5-.6,2.2M563.4,1188.2c-.6.6-1.3,1.1-2.1,1.4-.7.3-1.5.5-2.4.5s-2.2-.4-3-1.1c-.8-.7-1.2-1.7-1.2-2.8s1-3.1,3-4.5l5.7,6.5Z"/>
    <path class="cls-2" d="M480.8,1188.9c0-.4,0-.6,0-.8,0-.1-.3-.2-.8-.2h-12.6l11.9-19.5v-4.5c0-.4,0-.7-.1-.8,0-.1-.4-.2-.8-.2h-17.3c-.4,0-.6,0-.7,0-.1,0-.2.3-.3.7l-.8,4.5c0,.4,0,.7,0,.9,0,.1.3.2.8.2h10.8l-12.3,20.2v4.1c0,.4,0,.7.1.8,0,.1.4.2.8.2h19.7c.4,0,.7,0,.8-.2.1-.1.2-.3.3-.7l.5-4.9Z"/>
    <path class="cls-2" d="M391.2,1164.8c.2-.3.3-.6.2-.8,0-.2-.2-.3-.6-.4l-6-1c-.3,0-.6,0-.7,0-.1,0-.3.2-.4.6l-3.5,7.9c-.2.3-.3.7-.4.9-.1.3-.2.6-.3.9-.1.3-.2.6-.3,1-.1.4-.2.8-.4,1.3-.2-.8-.4-1.5-.6-2.1-.2-.6-.4-1.2-.7-1.8l-3.6-8.1c-.2-.4-.3-.6-.4-.6-.1,0-.3,0-.7,0l-6.4.9c-.7,0-.8.4-.5,1.1l9,17.1v12c0,.4,0,.7.2.8.1.1.4.2.8.2h5.7c.4,0,.7,0,.8-.2.1-.1.2-.4.2-.8v-12l8.7-16.9Z"/>
    <path class="cls-2" d="M300.4,1193.2l-8.7-15.2,7.3-13c.2-.4.3-.6.3-.8,0-.2-.3-.3-.8-.4l-5.8-1.3c-.3,0-.6,0-.7,0-.2,0-.3.2-.5.6l-2.9,6.6c-.2.5-.4.9-.5,1.4s-.3.9-.5,1.5c-.2-.6-.4-1.1-.6-1.5-.2-.4-.4-.9-.6-1.4l-3.1-6.5c-.2-.4-.4-.6-.5-.6s-.3,0-.7,0l-6,1.2c-.5,0-.8.2-.8.4,0,.2,0,.5.3.9l7.7,12.9-8.6,15c-.2.4-.3.7-.3.9,0,.2.3.3.8.4l6,1c.4,0,.6,0,.7,0,0,0,.2-.2.4-.6l4.2-8.1c.2-.3.4-.7.5-1.1.2-.4.4-.9.6-1.6.2.6.4,1.1.5,1.4.1.3.3.7.6,1.2l4.1,8.2c.2.3.3.5.5.6.1,0,.4,0,.7,0l6-.9c.5,0,.8-.2.8-.4,0-.2,0-.5-.3-.9"/>
    <path class="cls-2" d="M214.3,1164.8c0-.4,0-.6,0-.8,0-.2-.3-.3-.8-.3l-5.3-.8c-.4,0-.7,0-.8,0-.1,0-.2.3-.3.8l-2.4,14.1c-.2,1.1-.3,2.2-.5,3.4-.1,1.2-.3,2.6-.5,4.2-.2-1.6-.3-3-.4-4.2-.1-1.2-.3-2.4-.6-3.4l-3-13.7c0-.4-.2-.6-.3-.7,0,0-.3-.1-.7-.1h-4.7c-.4,0-.7,0-.8.1-.1,0-.2.3-.3.7l-3.2,14.5c-.2.7-.3,1.6-.4,2.7-.1,1.1-.3,2.4-.5,3.9-.1-1.5-.3-2.8-.4-4-.2-1.2-.3-2.3-.5-3.3l-2.5-14.3c0-.5-.2-.7-.3-.8-.1,0-.4,0-.8,0l-5.4.7c-.5,0-.8.2-.8.3,0,.2,0,.4,0,.8l6.3,29.8c0,.4.1.6.3.7.1,0,.4.1.8.1h5.4c.4,0,.6,0,.7-.1,0,0,.2-.3.3-.7l3.3-14.5c0-.3.1-.7.3-1.3.1-.6.2-1.2.3-1.9.1-.7.2-1.4.3-2.1,0-.7.2-1.4.2-2,0,1.3.2,2.5.3,3.8.1,1.3.3,2.4.5,3.5l2.8,14.5c0,.4.2.6.3.7.1,0,.4.1.8.1h5.3c.3,0,.6,0,.7-.1.1,0,.3-.3.3-.7l6.8-29.7Z"/>
    <path class="cls-2" d="M118,1164.5c.1-.4.2-.7.1-.8,0-.2-.3-.3-.8-.3l-6-.5c-.4,0-.6,0-.8,0-.1,0-.3.3-.3.7l-3.8,16.9c-.2.8-.4,1.7-.5,2.7-.2,1-.4,2.3-.7,3.9-.2-1.3-.4-2.5-.5-3.6-.2-1.1-.3-2.1-.5-3l-3.6-17.1c0-.3-.2-.6-.3-.7-.2-.1-.4-.1-.8,0l-6.2.8c-.4,0-.7.2-.8.3,0,.2,0,.4,0,.8l8.3,29.9c0,.3.2.5.3.6,0,0,.3.1.7.1h6.4c.4,0,.6,0,.7-.1.1,0,.2-.3.3-.6l8.6-30.1Z"/>
    <path class="cls-2" d="M25.8,1183.8v-19.8c0-.4,0-.7-.2-.8-.1-.1-.4-.2-.8-.2h-5.5c-.4,0-.7,0-.8.2-.1.1-.2.4-.2.8v19.7c0,2.1-.4,3.6-1.1,4.5-.7.9-1.8,1.3-3.4,1.3s-1.4,0-1.9-.3c-.5-.2-.9-.5-1.3-1-.3-.5-.6-1.1-.7-1.8-.2-.8-.2-1.7-.2-2.8v-19.6c0-.4,0-.7-.2-.8-.1-.1-.4-.2-.8-.2H3.1c-.4,0-.7,0-.8.2s-.2.4-.2.8v20c0,1.5,0,2.7.3,3.8.2,1,.5,2,.9,2.9.8,1.6,2,2.8,3.7,3.6,1.6.8,3.8,1.2,6.4,1.2s6.4-.8,8.5-2.5c1.3-1,2.3-2.2,2.9-3.6.6-1.4.9-3.3.9-5.6"/>
    <path class="cls-2" d="M845.4,1089.2c0-.4.1-.7,0-.9,0-.1-.3-.2-.8-.2h-20.5c-.4,0-.7,0-.8.2-.1.1-.2.4-.2.8v4.7c0,.4,0,.7.2.8.1.1.4.2.8.2h5.9v24.1c0,.4,0,.7.1.8,0,.1.4.2.8.2h5.8c.4,0,.7,0,.8-.2,0-.1.1-.4.1-.8v-24.1h5.7c.3,0,.6,0,.7-.1.1,0,.2-.3.3-.6l1-4.8Z"/>
    <path class="cls-2" d="M751.7,1105.1c-1-1.4-2.5-2.6-4.5-3.6l-3.5-1.8c-.7-.4-1.3-.7-1.8-1-.5-.3-.9-.5-1.2-.8-.3-.2-.5-.5-.6-.8-.1-.3-.2-.6-.2-1,0-.8.3-1.4.9-1.9.6-.5,1.5-.7,2.7-.7s2.2.2,3.4.7c1.1.4,2.2.9,3.1,1.4.2,0,.3,0,.4,0s.3-.1.4-.3l1.8-4.4c0-.2,0-.5,0-.6-.1-.2-.3-.4-.5-.5-1-.7-2.3-1.3-3.9-1.7-1.6-.4-3.2-.6-4.9-.6s-3.1.2-4.4.6c-1.3.4-2.4,1-3.4,1.8-.9.8-1.6,1.7-2.1,2.9-.5,1.1-.8,2.4-.8,3.8s.2,2.7.7,3.7c.5,1,1.2,1.9,2.2,2.7.6.5,1.2.9,1.9,1.3.7.4,1.6.9,2.7,1.4,1.3.6,2.3,1.1,3.1,1.5.8.4,1.4.8,1.8,1.2.4.4.7.7.9,1.1.1.4.2.9.2,1.4,0,1-.3,1.7-.9,2.2-.6.5-1.5.8-2.6.8s-2.3-.2-3.7-.6c-1.4-.4-2.7-1-4-1.7-.2-.1-.4-.2-.5-.2-.2,0-.3.1-.3.4l-1.5,4.9c0,.3-.1.5,0,.6,0,.2.2.3.5.5.5.3,1.1.7,2,.9.8.3,1.7.5,2.6.7.9.2,1.8.4,2.7.5.9.1,1.7.2,2.5.2,1.6,0,3.1-.2,4.4-.7,1.3-.5,2.5-1.1,3.4-2,.9-.9,1.7-1.9,2.2-3.1.5-1.2.8-2.6.8-4,0-2.2-.5-4-1.5-5.4"/>
    <path class="cls-2" d="M664,1118l-6.8-11.9c3.3-1.9,4.9-4.8,4.9-8.9s-.2-2.8-.7-4c-.5-1.2-1.2-2.2-2.1-3-.5-.4-1-.7-1.5-1-.6-.3-1.2-.5-1.8-.6-.7-.2-1.4-.3-2.3-.3-.8,0-1.8,0-2.9,0h-8.3c-.4,0-.7,0-.8.1,0,0-.1.4-.1.8v29.7c0,.5,0,.8.1.9,0,.1.4.2.8.2h5.6c.4,0,.7,0,.8-.2,0-.1.1-.4.1-.8v-11.7h1.4l6.3,12.8c.2.3.3.5.5.6.2,0,.4,0,.7,0l5.5-1.2c.4,0,.7-.2.7-.4,0-.2,0-.5-.2-.8M653.8,1100.6c-.7.6-1.9.9-3.6.9h-1.2v-7.8h1.6c1.5,0,2.6.3,3.3.8.6.5,1,1.5,1,3s-.3,2.6-1,3.2"/>
    <path class="cls-2" d="M573.7,1120.2c.2-.2.3-.4.1-.6-.2-.2-.3-.4-.4-.4-.8-.5-1.5-1-2.1-1.4-.6-.4-1.2-.9-1.8-1.3,1-1.4,1.8-3.2,2.4-5.4.5-2.2.8-4.7.8-7.6,0-5.2-1-9.2-3-11.9s-5-4.2-9.1-4.2-4.6.5-6.1,1.5c-1.6,1-2.8,2.3-3.7,3.9-.9,1.6-1.5,3.3-1.8,5.3-.3,1.9-.5,3.8-.5,5.7,0,5.5,1,9.7,2.9,12.6,1.9,2.9,5,4.3,9.1,4.3s1.5,0,2-.1c.5,0,1.1-.2,1.8-.5,1.1,1.1,2.1,2,3,2.7.9.7,1.6,1,2.1,1s.4,0,.6-.3l3.7-3.2ZM564.5,1108.8c-.2,1.4-.5,2.5-.8,3.4-.4.9-.8,1.5-1.3,1.9-.5.4-1.1.6-1.8.6s-1.2-.2-1.8-.6c-.5-.4-1-1-1.4-1.9-.4-.9-.7-2-.9-3.3-.2-1.4-.3-3-.3-4.9,0-3.8.4-6.6,1.2-8.3.8-1.7,1.8-2.6,3.1-2.6s2.4.8,3.1,2.4c.7,1.6,1.1,4.4,1.1,8.3s-.1,3.6-.3,5"/>
    <path class="cls-2" d="M480.2,1093.1c-.5-1.2-1.1-2.2-2-3-.9-.8-2-1.3-3.3-1.6-1.3-.3-3.1-.4-5.3-.4h-8.3c-.4,0-.7,0-.8.1,0,0-.1.4-.1.8v29.8c0,.4,0,.7.1.8,0,.1.4.2.8.2h5.8c.4,0,.7,0,.8-.2.1-.1.2-.4.2-.8v-11.3h1.8c1.7,0,3.2-.2,4.5-.7,1.4-.5,2.5-1.2,3.5-2.1,1-.9,1.7-2,2.2-3.3.5-1.3.8-2.7.8-4.3s-.2-2.7-.7-3.9M472.8,1100.6c-.7.6-1.9.9-3.6.9h-1.1v-7.8h1.5c1.5,0,2.6.3,3.3.8.7.6,1,1.5,1,3s-.3,2.6-1,3.2"/>
    <path class="cls-2" d="M387.5,1091.5c-2-2.8-5-4.2-9.1-4.2s-4.5.5-6.1,1.5c-1.6,1-2.8,2.3-3.7,3.8-.9,1.6-1.5,3.3-1.8,5.2-.3,1.9-.5,3.8-.5,5.6,0,5.6,1,9.9,2.9,12.8,1.9,2.9,4.9,4.3,9.1,4.3s7.3-1.5,9.2-4.4c2-2.9,3-7.1,3-12.7s-1-9.2-3-12M381.5,1112.2c-.8,1.7-1.8,2.5-3.1,2.5s-1.2-.2-1.8-.6c-.5-.4-1-1-1.4-1.9-.4-.9-.7-2-.9-3.3-.2-1.4-.3-3-.3-4.9,0-3.8.4-6.6,1.2-8.3.8-1.7,1.8-2.6,3.1-2.6s1.2.2,1.8.6c.5.4,1,1,1.3,1.9.4.9.6,2,.8,3.3.2,1.4.3,3,.3,5,0,3.9-.4,6.7-1.1,8.3"/>
    <path class="cls-2" d="M298.7,1118.8v-29.8c0-.4,0-.7-.1-.8,0,0-.4-.1-.8-.1h-4.8c-.4,0-.7,0-.8.2-.1.1-.2.4-.2.8v12.8c0,.8,0,1.7.1,2.6,0,.9.2,1.9.3,3-.5-1.2-.9-2.4-1.3-3.4s-.8-1.9-1.3-2.6l-7-12.5c-.2-.4-.4-.6-.5-.7-.1,0-.4-.1-.8-.1h-4.8c-.4,0-.7,0-.8.2,0,.1-.1.4-.1.8v29.8c0,.4,0,.7.1.8,0,.1.4.2.8.2h4.8c.4,0,.7,0,.8-.2s.2-.4.2-.8v-14c0-.8,0-1.6-.1-2.5,0-.9-.2-1.8-.3-3,.2.6.4,1.2.6,1.6.2.5.4.9.6,1.3.2.4.4.8.6,1.3.2.4.5.9.8,1.4l7.7,13.9c.2.4.4.7.5.8.1.1.4.2.8.2h4.2c.4,0,.7,0,.8-.2,0-.1.1-.4.1-.8"/>
    <path class="cls-2" d="M210.1,1118.7l-1.6-29.7c0-.4-.1-.7-.2-.8-.1-.1-.3-.2-.7-.2h-5.6c-.4,0-.6,0-.7.1,0,0-.2.3-.3.6l-3.4,10.3c-.2.7-.5,1.5-.7,2.4-.2.9-.5,1.7-.7,2.5-.2-1-.4-1.9-.6-2.7-.2-.9-.4-1.6-.6-2.1l-3.3-10.4c-.1-.3-.2-.5-.3-.6-.1,0-.3-.1-.7-.1h-5.9c-.4,0-.7,0-.8.2-.1.1-.2.4-.2.8l-1.6,29.8c0,.4,0,.7,0,.8,0,.1.4.2.8.2h5.2c.4,0,.7,0,.8-.2s.2-.4.2-.8l.2-13.1v-3.7c0-.7,0-1.5,0-2.2,0-.7,0-1.4,0-1.9.2.6.3,1.3.5,2.1.2.7.3,1.4.5,2.1.2.7.3,1.3.4,1.8.1.5.2.9.3,1.2l1.9,7.1c0,.4.2.6.3.7.1,0,.4.1.7.1h3.5c.4,0,.6,0,.7-.1,0,0,.2-.3.3-.7l2.3-7.4c.2-.7.5-1.7.8-2.9.3-1.3.7-2.6,1-4,0,.5,0,1.1,0,1.8,0,.7,0,1.4,0,2.1,0,.7,0,1.4,0,2v1.6l.2,13.4c0,.4,0,.7.2.8.1.1.4.2.8.2h5.4c.4,0,.7,0,.8-.2,0-.1.1-.4,0-.8"/>
    <path class="cls-2" d="M115.8,1114c0-.5,0-.8,0-.9,0-.1-.3-.2-.7-.2h-10.6v-23.9c0-.4,0-.7-.2-.8-.1-.1-.4-.2-.8-.2h-5.8c-.4,0-.7,0-.8.2,0,.1-.1.4-.1.8v29.8c0,.4,0,.7.1.8,0,.1.4.2.8.2h16.3c.3,0,.6,0,.7-.1s.2-.3.3-.6l.8-5Z"/>
    <path class="cls-2" d="M27.8,1117.1l-10.7-13.6,9.4-12.6c.2-.3.4-.6.4-.8s-.2-.4-.6-.5l-5.2-1.7c-.3-.1-.6-.2-.8-.2-.2,0-.3.2-.5.4l-8.7,12.7v-11.9c0-.4,0-.7-.2-.8-.1-.1-.4-.2-.8-.2h-5.8c-.4,0-.7,0-.8.2,0,.1-.1.4-.1.8v29.8c0,.4,0,.7.1.8,0,.1.4.2.8.2h5.8c.4,0,.7,0,.8-.2.1-.1.2-.4.2-.8v-11.7l9.4,12.9c.2.4.4.5.6.5.1,0,.4,0,.7-.2l5.8-1.9c.7-.2.8-.7.3-1.3"/>
    <path class="cls-2" d="M841.7,1035.1v-21c0-.4,0-.7-.2-.8-.1-.1-.4-.2-.8-.2h-13c-.4,0-.7,0-.8.2,0,.1-.1.4-.1.8v3.8c0,.4,0,.7.1.8s.4.1.8.1h6.2v17.1c0,1.4-.1,2.3-.4,2.9-.2.6-.8.9-1.6.9s-1.4-.3-1.7-.9c-.3-.6-.4-1.7-.4-3.3s0-.4,0-.6c0-.1-.2-.2-.5-.2h-5.5c-.2,0-.4,0-.5.3,0,.2-.1.5-.1.9,0,1,0,1.8,0,2.4,0,.6.2,1.2.4,1.8.7,1.9,1.7,3.4,3,4.2,1.3.9,3.2,1.3,5.5,1.3s5.5-.9,7.1-2.7c.8-.9,1.4-2,1.8-3.2.3-1.2.5-2.7.5-4.6"/>
    <path class="cls-2" d="M749.6,1043.8v-3.7c0-.4,0-.7-.2-.8-.1-.1-.4-.2-.8-.2h-2.1v-20.4h2.1c.4,0,.7,0,.8-.1.1,0,.2-.4.2-.8v-3.8c0-.4,0-.7-.2-.8-.1-.1-.4-.2-.8-.2h-11.8c-.4,0-.7,0-.8.2,0,.1-.1.4-.1.8v3.8c0,.4,0,.7.1.8,0,0,.4.1.8.1h2v20.4h-2c-.4,0-.7,0-.8.1,0,0-.1.4-.1.8v3.7c0,.4,0,.7.1.8,0,.1.4.2.8.2h11.8c.4,0,.7,0,.8-.2s.2-.4.2-.8"/>
    <path class="cls-2" d="M663,1043.8v-29.8c0-.4,0-.7-.2-.8-.1-.1-.4-.2-.8-.2h-5.7c-.4,0-.7,0-.8.2-.1.1-.2.4-.2.8v11.4h-7.2v-11.4c0-.4,0-.7-.2-.8-.1-.1-.4-.2-.8-.2h-5.8c-.4,0-.7,0-.8.2-.1.1-.2.4-.2.8v29.8c0,.4,0,.7.2.8.1.1.4.2.8.2h5.8c.4,0,.7,0,.8-.2.1-.1.2-.4.2-.8v-12.3h7.2v12.3c0,.4,0,.7.2.8.1.1.4.2.8.2h5.7c.4,0,.7,0,.8-.2s.2-.4.2-.8"/>
    <path class="cls-2" d="M571.8,1041.7v-13.2c0-.4,0-.6-.1-.7s-.4-.1-.8-.1h-9.4c-.4,0-.7,0-.8.1-.1,0-.2.4-.2.8v4.1c0,.4,0,.7.1.8,0,0,.4.1.8.1h3.6v5.4c-.5.2-.9.3-1.4.5-.5.1-1,.2-1.4.2-1,0-1.8-.2-2.6-.7-.7-.5-1.3-1.1-1.7-1.8-.5-1-.9-2.2-1.1-3.7-.2-1.5-.3-3-.3-4.5s.1-3.5.4-4.8c.3-1.3.6-2.4,1.1-3.2.5-.8,1.1-1.4,1.8-1.8.7-.4,1.5-.6,2.4-.6s2.2.2,3,.5c.9.3,1.9.8,3,1.4.2,0,.3.1.5.2.2,0,.3,0,.4-.2l2.2-4.4c0-.2,0-.4,0-.5,0-.2-.2-.3-.3-.4-1.1-.9-2.5-1.6-4.1-2-1.6-.4-3.2-.7-4.9-.7-4.4,0-7.6,1.5-9.8,4.4-2.2,2.9-3.3,7.1-3.3,12.4,0,5.4,1,9.5,3.2,12.3,2.2,2.8,5.4,4.2,9.9,4.2s3.1-.2,4.6-.6c1.5-.4,2.8-1,4-1.7.5-.3.8-.5,1-.8.2-.2.3-.5.3-.9"/>
    <path class="cls-2" d="M480.4,1014.2c0-.4,0-.6,0-.8,0-.2-.3-.3-.8-.3h-16.8c-.4,0-.7,0-.8.1,0,0-.1.4-.1.8v29.8c0,.4,0,.7.1.8,0,.1.4.2.8.2h5.8c.4,0,.7,0,.8-.2.1-.1.2-.4.2-.8v-12.1h7.5c.4,0,.7,0,.8-.2.1-.1.2-.4.2-.8v-4.3c0-.4,0-.7-.2-.8-.1-.1-.4-.2-.8-.2h-7.5v-6.3h8.9c.3,0,.6,0,.7-.1.1,0,.2-.3.3-.7l.8-4.3Z"/>
    <path class="cls-2" d="M388.5,1014.2c0-.4,0-.7,0-.8s-.3-.2-.7-.2h-16.9c-.4,0-.7,0-.8.2,0,.1-.1.4-.1.8v29.8c0,.4,0,.7.1.8,0,.1.4.2.8.2h16.4c.4,0,.7,0,.8-.2.1-.1.2-.4.2-.8v-4.2c0-.4,0-.7-.2-.8-.1-.1-.4-.2-.8-.2h-9.6v-7.1h7.5c.4,0,.7,0,.8-.2.1-.1.2-.4.2-.8v-4.2c0-.4,0-.7-.2-.8-.1-.1-.4-.2-.8-.2h-7.5v-6h8.9c.6,0,.9-.3,1-.8l.8-4.3Z"/>
    <path class="cls-2" d="M298.3,1021.1c-.6-2-1.6-3.7-3-5-.7-.7-1.5-1.2-2.3-1.6-.8-.4-1.7-.7-2.6-.9-.9-.2-1.8-.3-2.7-.4-.9,0-1.8,0-2.8,0h-7.7c-.4,0-.7,0-.8.2-.1.1-.2.4-.2.8v29.8c0,.4,0,.7.1.8,0,.1.4.2.8.2h8.6c1.1,0,2.1,0,3.1-.1,1,0,1.9-.3,2.8-.6,2.7-.9,4.6-2.6,5.7-5.2s1.7-6,1.7-10.1-.3-5.5-.9-7.6M291.1,1033.9c-.2,1.2-.5,2.2-1,3-.4.6-1,1.1-1.7,1.4-.7.3-1.7.4-3.1.4h-1.4v-19.4h1.4c1.3,0,2.3.2,3,.5.7.3,1.3.8,1.7,1.5.6.9.9,1.9,1.1,3.3.2,1.3.3,2.9.3,4.8s0,3.4-.3,4.6"/>
    <path class="cls-2" d="M207.1,1041.8l-2.1-4.2c-.2-.3-.3-.4-.4-.4s-.2,0-.5.2c-.6.4-1.3.8-2,1.2-.7.4-1.6.6-2.5.6s-1.6-.2-2.2-.6c-.7-.4-1.2-1.1-1.7-2-.5-.9-.8-2.1-1.1-3.6-.2-1.5-.4-3.3-.4-5.4,0-3.2.4-5.5,1.3-6.9.9-1.4,2-2.1,3.4-2.1s1,0,1.5.2c.5.2.9.3,1.3.6s.8.5,1.2.8c.4.3.8.5,1.1.7.4.2.7.2.9-.3l2.1-4.3c.2-.3.2-.5,0-.7-.1-.2-.3-.4-.6-.6-1-.9-2.3-1.6-3.7-2.1-1.4-.5-2.8-.7-4.2-.7s-3.2.3-4.7.9c-1.5.6-2.8,1.6-3.9,2.8-1.4,1.5-2.3,3.2-2.9,5.2-.6,2-.9,4.4-.9,7.3,0,5.4,1.1,9.6,3.2,12.5,2.1,3,5.3,4.5,9.4,4.5s2.5-.2,3.7-.5c1.2-.3,2.3-.8,3.3-1.4.4-.2.8-.5,1.1-.8s.4-.6.1-1.1"/>
    <path class="cls-2" d="M115,1031c-.9-1.3-2.2-2.2-4-2.8,1.5-.8,2.6-1.7,3.3-2.7.6-1.1.9-2.4.9-3.9s-.2-2.4-.7-3.5c-.4-1.1-1.1-2-1.9-2.8-.5-.4-.9-.7-1.4-1s-1-.5-1.7-.6c-.7-.2-1.4-.3-2.3-.3-.9,0-2,0-3.2,0h-8.3c-.4,0-.7,0-.8.2,0,.1-.1.4-.1.8v29.8c0,.4,0,.7.1.8,0,.1.4.2.8.2h8.7c.8,0,1.5,0,2.1,0,.6,0,1,0,1.5,0,.4,0,.8,0,1.2-.2.4,0,.7-.2,1.2-.3.9-.2,1.7-.6,2.5-1.2.8-.6,1.4-1.2,1.9-2,.5-.8,1-1.7,1.3-2.6.3-1,.5-1.9.5-3,0-1.8-.4-3.3-1.3-4.5M104.3,1026h-2.3v-7.3h2.1c1.5,0,2.5.3,3,.9.6.6.8,1.5.8,2.7,0,2.5-1.2,3.8-3.7,3.8M107.9,1038c-.7.6-2,.9-3.8.9h-2v-7.5h1.9c2,0,3.3.3,4,.9.7.6,1,1.6,1,2.9s-.3,2.2-1,2.8"/>
    <path class="cls-2" d="M27.7,1043.7l-9.4-29.8c-.1-.4-.2-.6-.3-.7,0,0-.3-.1-.7-.1h-5.9c-.4,0-.6,0-.7.1,0,0-.2.3-.3.6l-9.4,29.8c0,.3-.1.5-.1.7,0,.2.3.3.9.3h6c.4,0,.6,0,.7-.1.1,0,.2-.3.3-.7l1.9-7.1h6.9l1.9,7.1c0,.4.2.6.3.7.1,0,.3.1.7.1h6.5c.5,0,.7,0,.8-.3,0-.2,0-.5,0-.9M16.3,1031.6h-4.8l1.5-6.6c.2-.8.4-1.7.5-2.7.2-1,.3-2,.5-3,.2,1.2.3,2.2.5,3.1.1.9.3,1.8.5,2.6l1.4,6.6Z"/>
    <path class="cls-1" d="M573.5,886.1c0,.6,0,1.2-.2,1.8-.7,3-3.2,4.8-6,4.8-4.4,0-6.6-3.7-6.6-8.3s2.5-8.6,6.7-8.6,5.3,2.1,5.9,4.7c.1.5.2,1.2.2,1.7v3.9ZM573.5,862.8v13.3h0c-1-1.8-3.3-3.4-6.7-3.4-5.4,0-10.1,4.6-10,12,0,6.8,4.2,11.3,9.5,11.3s6.4-1.9,7.6-4.4h0l.2,3.9h3.6c-.1-1.5-.2-3.8-.2-5.8v-27h-4.1ZM547.4,895.5h4.1v-32.7h-4.1v32.7ZM531.5,875.7c4.8,0,6.7,4.8,6.7,8.6s-2.9,8.7-6.8,8.7-6.8-3.7-6.8-8.6,2.1-8.7,6.9-8.7M531.6,872.7c-6.2,0-11.1,4.4-11.1,11.9s4.7,11.5,10.7,11.5,11.1-3.6,11.1-11.9-4.3-11.5-10.7-11.5M499.9,882.5c0-.6.1-1.2.2-1.7.8-3.1,3.4-5,6.2-5,4.3,0,6.6,3.8,6.6,8.3s-2.5,8.6-6.8,8.6-5.3-1.9-6.1-4.8c0-.5-.2-1-.2-1.5v-4ZM499.2,895.5l.2-3.7h.1c1.7,3,4.2,4.2,7.5,4.2,5,0,10-4,10-11.9,0-6.8-3.9-11.4-9.4-11.4s-6.2,1.6-7.6,4.1h0v-14h-4v27c0,2,0,4.2-.2,5.8h3.5ZM471.8,867.8v5.4h-3.5v3.1h3.5v12.2c0,2.6.4,4.6,1.6,5.8,1,1.1,2.5,1.7,4.4,1.7s2.8-.2,3.6-.6l-.2-3c-.5.1-1.3.3-2.4.3-2.3,0-3-1.6-3-4.3v-12h5.8v-3.1h-5.8v-6.4l-4,1.1ZM461.3,895.5v-19.2h5.4v-3.1h-5.4v-1.2c0-3.4.9-6.5,4.3-6.5s2,.2,2.6.5l.6-3.1c-.8-.3-2-.6-3.5-.6s-3.9.6-5.4,2.1c-1.9,1.8-2.6,4.7-2.6,7.8v1.1h-3.1v3.1h3.1v19.2h4ZM448.1,864.4c-1.5,0-2.5,1.1-2.5,2.5s1,2.5,2.4,2.5,2.6-1.1,2.6-2.5c0-1.4-1-2.5-2.5-2.5M450.1,873.2h-4.1v22.3h4.1v-22.3ZM430.8,895.5h4v-11.9c0-.7,0-1.3.2-1.9.6-3,2.6-5.2,5.4-5.2s1,0,1.4.1v-3.8c-.4,0-.7-.1-1.2-.1-2.7,0-5.2,1.9-6.2,4.9h-.2v-4.4h-3.7c.1,2.1.2,4.3.2,7v15.4ZM405.2,895.5h4.1v-13.5c0-.8,0-1.4.3-1.9.7-2.2,2.8-4.1,5.4-4.1,3.8,0,5.2,3,5.2,6.6v12.8h4.1v-13.3c0-7.7-4.8-9.5-7.8-9.5s-3,.5-4.2,1.2c-1.2.7-2.3,1.7-2.9,2.9h0v-13.9h-4.1v32.7ZM399.8,891.6c-1.2.5-2.7,1.1-5,1.1-4.4,0-7.7-3.2-7.7-8.3s2.8-8.4,7.9-8.4,3.7.5,4.7,1.1l.9-3.1c-1.1-.6-3.2-1.2-5.6-1.2-7.3,0-12,5-12,11.9s4.4,11.4,11.1,11.4,5.4-.7,6.4-1.3l-.7-3ZM364.7,894.4c1.6.9,3.8,1.5,6.3,1.5,5.3,0,8.3-2.8,8.3-6.7s-2-5.3-5.9-6.7c-2.9-1.1-4.2-1.9-4.2-3.8s1.3-3,3.7-3,3.7.7,4.6,1.3l1-3c-1.2-.7-3.2-1.4-5.5-1.4-4.8,0-7.7,3-7.7,6.5s1.9,4.9,5.9,6.3c3,1.1,4.2,2.2,4.2,4.1s-1.4,3.3-4.3,3.3-4.2-.8-5.4-1.6l-1,3.1ZM346.4,894.4c1.6.9,3.8,1.5,6.3,1.5,5.3,0,8.3-2.8,8.3-6.7s-2-5.3-5.9-6.7c-2.9-1.1-4.2-1.9-4.2-3.8s1.3-3,3.7-3,3.7.7,4.6,1.3l1-3c-1.2-.7-3.2-1.4-5.5-1.4-4.8,0-7.7,3-7.7,6.5s1.9,4.9,5.9,6.3c3,1.1,4.2,2.2,4.2,4.1s-1.4,3.3-4.3,3.3-4.2-.8-5.4-1.6l-1,3.1ZM341.3,873.2h-4.1v13.7c0,.7-.1,1.5-.4,2.1-.7,1.8-2.6,3.7-5.4,3.7s-5-2.9-5-7.1v-12.4h-4.1v13.1c0,7.8,4.2,9.8,7.7,9.8s6.3-2.4,7.4-4.2h0l.2,3.6h3.6c-.1-1.8-.2-3.8-.2-6.1v-16.2ZM312.1,888c0,.4,0,.9-.2,1.3-.6,1.9-2.5,3.7-5.4,3.7s-3.8-1.2-3.8-3.9c0-4.3,5-5.1,9.5-5v3.9ZM316.4,895.5c-.3-1.5-.4-3.4-.4-5.4v-8.3c0-4.5-1.7-9.1-8.5-9.1s-5.5.8-7.3,2l.9,2.7c1.6-1,3.7-1.7,5.8-1.7,4.6,0,5.1,3.3,5.1,5.2v.5c-8.6,0-13.4,2.9-13.4,8.3s2.3,6.4,6.8,6.4,5.6-1.6,6.8-3.3h.1l.3,2.8h3.7ZM270.4,864.4v31.1h4v-14.6h15v14.6h4.1v-31.1h-4.1v13h-15v-13h-4Z"/>
  </g>
</svg>