<?xml version="1.0" encoding="UTF-8"?>
<svg id="uuid-9a204f33-f491-4772-8bb6-e4d847692a67" data-name="Ebene 1" xmlns="http://www.w3.org/2000/svg" viewBox="0 0 1920 633.42">
  <defs>
    <style>
      .uuid-f73a777f-7349-4cd8-85a0-4a8a20d90d79 {
        fill: #fff;
      }

      .uuid-f73a777f-7349-4cd8-85a0-4a8a20d90d79, .uuid-c178dd66-712e-46b5-aaf6-f68af47b8807 {
        stroke-width: 0px;
      }

      .uuid-c178dd66-712e-46b5-aaf6-f68af47b8807 {
        fill: #503b21;
      }
    </style>
  </defs>
  <path class="uuid-c178dd66-712e-46b5-aaf6-f68af47b8807" d="M1918.8,608.9c-.57-2.06-1.55-3.83-2.93-5.3-.89-.95-1.96-1.71-3.21-2.26-1.25-.55-2.67-.83-4.27-.83s-3.18.29-4.57.88c-1.38.58-2.57,1.37-3.55,2.35-1.41,1.45-2.43,3.31-3.04,5.58-.62,2.28-.92,4.86-.92,7.75,0,4.98.97,8.87,2.91,11.67,1.94,2.8,4.81,4.2,8.63,4.2,1.91,0,3.54-.3,4.91-.9,1.37-.6,2.54-1.47,3.53-2.61,1.29-1.48,2.17-3.29,2.65-5.44.48-2.15.71-4.77.71-7.84,0-2.77-.28-5.18-.85-7.24M1912.34,621.84c-.11,1.06-.33,1.99-.67,2.79-.34.86-.83,1.5-1.48,1.91-.65.42-1.37.62-2.17.62-.74,0-1.38-.18-1.94-.53-.55-.35-1.03-.93-1.43-1.73-.4-.8-.7-1.85-.9-3.16-.2-1.31-.3-2.91-.3-4.82s.11-3.63.32-4.98c.21-1.35.52-2.45.92-3.3.4-.85.89-1.45,1.48-1.82.58-.37,1.25-.55,1.98-.55,1.54,0,2.64.8,3.32,2.4.18.43.34.92.46,1.45.12.54.23,1.15.32,1.85.09.69.15,1.49.18,2.4.03.91.05,1.95.05,3.11,0,1.85-.05,3.3-.16,4.36"/>
  <path class="uuid-c178dd66-712e-46b5-aaf6-f68af47b8807" d="M1824.82,604.11c-1.75-2.4-4.35-3.6-7.8-3.6-1.6,0-3.05.28-4.36.83-1.31.55-2.42,1.34-3.34,2.35-.92,1.01-1.64,2.23-2.14,3.64-.51,1.41-.76,2.97-.76,4.66,0,2.15.27,3.92.81,5.3.54,1.38,1.38,2.6,2.51,3.64.8.71,1.71,1.22,2.72,1.55s2.04.48,3.09.48c.86,0,1.71-.16,2.54-.48s1.64-.85,2.44-1.59c-.8,2.25-1.81,3.85-3.02,4.82-1.22.97-2.65,1.45-4.31,1.45-.52,0-1.1-.06-1.73-.18-.63-.12-1.18-.25-1.64-.37-.12-.03-.26-.05-.42-.05s-.26.12-.32.37l-.97,4.43c-.09.34.06.62.46.83.52.25,1.2.43,2.03.55.83.12,1.71.18,2.63.18,2.21,0,4.2-.45,5.95-1.34,1.75-.89,3.24-2.15,4.45-3.78,1.21-1.63,2.15-3.59,2.81-5.88.66-2.29.99-4.82.99-7.59,0-4.43-.88-7.84-2.63-10.24M1819.37,616.24c-.65.92-1.55,1.38-2.72,1.38-2.43,0-3.64-1.83-3.64-5.49,0-1.91.32-3.35.97-4.34.65-.98,1.58-1.48,2.81-1.48,1.14,0,2.01.48,2.63,1.43.61.95.92,2.4.92,4.34s-.32,3.23-.97,4.15"/>
  <path class="uuid-c178dd66-712e-46b5-aaf6-f68af47b8807" d="M1736.72,621.08c-.31-.8-.72-1.53-1.25-2.19-.52-.66-1.13-1.25-1.82-1.75s-1.42-.96-2.19-1.36c1.54-.89,2.71-1.91,3.51-3.07.8-1.15,1.2-2.47,1.2-3.94,0-1.26-.26-2.41-.78-3.44-.52-1.03-1.25-1.91-2.19-2.65-.94-.74-2.04-1.31-3.3-1.71-1.26-.4-2.63-.6-4.11-.6s-2.79.21-4.04.62c-1.25.42-2.33.99-3.25,1.73-.92.74-1.65,1.62-2.17,2.65-.52,1.03-.78,2.18-.78,3.44,0,1.57.4,2.94,1.2,4.11.8,1.17,1.97,2.15,3.51,2.95-1.85.83-3.29,1.93-4.34,3.3-1.05,1.37-1.57,2.93-1.57,4.68,0,1.45.27,2.74.81,3.87.54,1.14,1.31,2.11,2.31,2.91,1,.8,2.2,1.41,3.6,1.84,1.4.43,2.96.65,4.68.65,1.44,0,2.85-.19,4.22-.58,1.37-.39,2.59-.97,3.67-1.75,1.08-.78,1.94-1.76,2.58-2.93.65-1.17.97-2.55.97-4.15,0-.95-.15-1.83-.46-2.63M1728.25,611.83c-.54.6-1.27,1.08-2.19,1.45-.92-.37-1.75-.85-2.49-1.45-.74-.6-1.11-1.47-1.11-2.61,0-.95.31-1.71.92-2.28.61-.57,1.41-.85,2.4-.85,1.04,0,1.85.29,2.42.88.57.58.85,1.37.85,2.35,0,1.08-.27,1.91-.81,2.51M1728.85,626.29c-.75.71-1.78,1.06-3.07,1.06-1.38,0-2.47-.35-3.25-1.04-.78-.69-1.18-1.61-1.18-2.74,0-.65.12-1.22.37-1.73.25-.51.56-.96.95-1.36.38-.4.83-.75,1.34-1.06.51-.31,1.02-.58,1.55-.83.58.25,1.15.51,1.68.78.54.28,1.01.61,1.41.99.4.39.72.84.97,1.36.25.52.37,1.14.37,1.85,0,1.11-.38,2.01-1.13,2.72"/>
  <path class="uuid-c178dd66-712e-46b5-aaf6-f68af47b8807" d="M1644.56,604.66v-2.4c0-.43-.05-.7-.14-.81-.09-.11-.35-.16-.78-.16h-18.13c-.43,0-.7.05-.81.16-.11.11-.16.38-.16.81v4.61c0,.43.05.69.16.78.11.09.38.14.81.14h10.89l-9.46,22.97c-.15.4-.21.68-.16.83.05.15.28.26.71.32l5.21.92c.4.06.66.07.78.02.12-.05.25-.24.37-.58l10.7-27.63Z"/>
  <path class="uuid-c178dd66-712e-46b5-aaf6-f68af47b8807" d="M1553.48,616.54c-.51-1.49-1.31-2.77-2.42-3.85-.74-.71-1.62-1.24-2.65-1.59-1.03-.35-2.11-.53-3.25-.53-.86,0-1.68.16-2.47.48-.78.32-1.62.87-2.51,1.64.8-2.28,1.82-3.92,3.07-4.94,1.25-1.01,2.65-1.52,4.22-1.52.58,0,1.15.08,1.68.23.54.15,1.07.35,1.59.6.12.06.26.08.42.05.15-.03.26-.14.32-.32l1.38-4.06c.09-.28.01-.54-.23-.78-.34-.37-.98-.69-1.91-.97-.94-.28-2.02-.42-3.25-.42-2.18,0-4.16.45-5.93,1.34-1.77.89-3.27,2.15-4.5,3.78-1.23,1.63-2.18,3.59-2.84,5.88-.66,2.29-.99,4.84-.99,7.63,0,4.43.88,7.83,2.63,10.19,1.75,2.37,4.35,3.55,7.8,3.55,1.6,0,3.05-.27,4.36-.81,1.31-.54,2.42-1.31,3.34-2.31.92-1,1.64-2.19,2.14-3.57.51-1.38.76-2.94.76-4.66,0-1.88-.25-3.56-.76-5.05M1543.91,627.22c-1.14,0-2.03-.47-2.68-1.41-.65-.94-.97-2.38-.97-4.31s.35-3.23,1.04-4.15,1.62-1.38,2.79-1.38c2.4,0,3.6,1.82,3.6,5.44,0,3.87-1.26,5.81-3.78,5.81"/>
  <path class="uuid-c178dd66-712e-46b5-aaf6-f68af47b8807" d="M1462.59,617.46c-.46-1.21-1.11-2.25-1.94-3.11-.83-.86-1.83-1.53-3-2.01-1.17-.48-2.48-.71-3.92-.71-1.57,0-2.92.37-4.06,1.11l.55-5.26h9.82c.43,0,.69-.05.78-.14.09-.09.14-.35.14-.78v-4.24c0-.49-.05-.78-.16-.88-.11-.09-.38-.14-.81-.14h-14.81c-.43,0-.69.05-.78.16-.09.11-.17.36-.23.76l-1.48,15.04c-.06.37-.05.62.05.76.09.14.31.25.65.35l3.78,1.2c.25.06.44.06.58,0,.14-.06.28-.17.44-.32.68-.71,1.32-1.23,1.94-1.57.61-.34,1.44-.51,2.49-.51,1.29,0,2.3.37,3.02,1.11.72.74,1.08,1.84,1.08,3.32,0,1.82-.54,3.21-1.61,4.2-1.08.98-2.57,1.48-4.47,1.48-1.14,0-2.21-.12-3.23-.35-1.01-.23-2.11-.53-3.27-.9-.22-.06-.43-.09-.65-.09s-.35.17-.42.51l-.83,4.24c-.06.28-.05.47.02.58.08.11.24.24.48.39.52.28,1.13.52,1.82.74.69.21,1.4.39,2.12.53.72.14,1.42.24,2.1.3.68.06,1.28.09,1.8.09,1.91,0,3.64-.28,5.21-.83,1.57-.55,2.91-1.34,4.01-2.35,1.11-1.01,1.96-2.24,2.56-3.69.6-1.44.9-3.07.9-4.89,0-1.51-.23-2.87-.69-4.08"/>
  <path class="uuid-c178dd66-712e-46b5-aaf6-f68af47b8807" d="M1372.97,625.42v-3.6c0-.52-.05-.85-.14-.97-.09-.12-.35-.18-.78-.18h-2.49v-6.64c0-.4-.05-.66-.16-.78-.11-.12-.36-.18-.76-.18h-4.06c-.4,0-.64.05-.71.16-.08.11-.15.36-.21.76l-.83,6.6h-6.27l11.35-16.93c.25-.34.35-.59.3-.76-.05-.17-.28-.35-.71-.53l-4.57-1.89c-.37-.15-.61-.21-.71-.16-.11.05-.27.24-.48.58l-11.76,19.1v5.44c0,.4.06.66.18.78.12.12.38.18.78.18h11.76v5.67c0,.4.05.65.16.74.11.09.38.14.81.14h4.98c.4,0,.65-.05.76-.14.11-.09.16-.35.16-.78v-5.63h2.49c.43,0,.69-.06.78-.18.09-.12.14-.38.14-.78"/>
  <path class="uuid-c178dd66-712e-46b5-aaf6-f68af47b8807" d="M1279.2,618.54c-.86-1.29-2.08-2.29-3.64-3,1.2-.74,2.14-1.62,2.84-2.65.69-1.03,1.04-2.31,1.04-3.85,0-1.29-.24-2.46-.71-3.51-.48-1.04-1.15-1.94-2.03-2.7-.88-.75-1.91-1.33-3.11-1.73-1.2-.4-2.51-.6-3.92-.6-1.75,0-3.41.38-4.96,1.13-1.55.75-2.81,1.9-3.76,3.44-.12.18-.22.37-.3.55-.08.18-.02.35.16.51l3.41,3c.25.22.44.22.58.02.14-.2.28-.38.44-.53.52-.61,1.09-1.18,1.71-1.68.61-.51,1.43-.76,2.44-.76s1.77.28,2.35.85c.58.57.88,1.35.88,2.33,0,1.45-.42,2.46-1.27,3.04-.85.58-1.9.85-3.16.78l-1.61-.05c-.43-.03-.7,0-.81.12s-.16.38-.16.81v3.83c0,.43.05.7.16.81.11.11.38.16.81.16h1.52c1.94,0,3.29.32,4.06.97.77.65,1.15,1.66,1.15,3.04s-.39,2.44-1.18,3.18c-.78.74-1.95,1.11-3.48,1.11-.83,0-1.83-.16-3-.48-1.17-.32-2.35-.78-3.55-1.36-.18-.09-.38-.16-.58-.21-.2-.05-.35.07-.44.35l-1.29,4.29c-.09.31.01.55.32.74.65.46,1.38.85,2.21,1.15.83.31,1.66.55,2.49.74s1.64.31,2.42.39c.78.08,1.45.12,2.01.12,1.63,0,3.14-.23,4.52-.69,1.38-.46,2.57-1.12,3.57-1.98,1-.86,1.78-1.89,2.33-3.09s.83-2.52.83-3.97c0-1.78-.43-3.32-1.29-4.61"/>
  <path class="uuid-c178dd66-712e-46b5-aaf6-f68af47b8807" d="M1186.16,602.79c-1.72-1.52-4.03-2.28-6.92-2.28-4.27,0-7.35,1.65-9.23,4.94-.52.92-.88,1.64-1.06,2.14-.18.51-.28.93-.28,1.27,0,.31.17.52.51.65l3.97,1.48c.31.12.54.14.69.05.15-.09.31-.29.46-.6.49-1.14,1.04-2.08,1.64-2.81.6-.74,1.51-1.11,2.74-1.11,2.15,0,3.23,1.06,3.23,3.18,0,1.14-.25,2.11-.76,2.91-.51.8-1.35,1.66-2.51,2.58-.58.43-1.2.91-1.84,1.43-.65.52-1.28,1.05-1.89,1.57-.86.71-1.68,1.47-2.47,2.28-.78.82-1.47,1.75-2.05,2.79-.49.86-.86,1.79-1.11,2.79-.25,1-.37,2.16-.37,3.48v1.85c0,.34.05.55.14.65.09.09.28.14.55.14h18.04c.4,0,.65-.05.76-.16s.16-.38.16-.81v-4.34c0-.4-.06-.65-.18-.76-.12-.11-.39-.16-.78-.16h-10.84c.15-.8.51-1.53,1.08-2.19.57-.66,1.3-1.33,2.19-2.01l2.31-1.71c2.15-1.6,3.75-3.17,4.8-4.7.55-.8.96-1.68,1.22-2.65.26-.97.39-2.13.39-3.48,0-2.74-.86-4.87-2.58-6.39"/>
  <path class="uuid-c178dd66-712e-46b5-aaf6-f68af47b8807" d="M1097.46,631.18v-3.55c0-.43-.05-.69-.16-.78-.11-.09-.38-.14-.81-.14h-3.18v-24.45c0-.4-.05-.66-.14-.78-.09-.12-.35-.18-.78-.18h-4.11l-9.23,6.32c-.37.25-.55.45-.55.6,0,.12.09.35.28.69l1.71,2.91c.21.34.39.52.53.55.14.03.38-.05.71-.23l4.43-2.44v17.02h-4.15c-.43,0-.7.05-.81.14-.11.09-.16.35-.16.78v3.55c0,.43.05.7.16.81.11.11.38.16.81.16h14.48c.43,0,.7-.05.81-.16s.16-.38.16-.81"/>
  <path class="uuid-c178dd66-712e-46b5-aaf6-f68af47b8807" d="M1912.66,551.11c-.26-.61-.62-1.15-1.08-1.61-.46-.46-1-.83-1.61-1.11-.62-.28-1.28-.42-1.98-.42s-1.37.14-1.98.42c-.62.28-1.15.65-1.61,1.11-.46.46-.82,1-1.08,1.61-.26.62-.39,1.28-.39,1.98s.13,1.37.39,1.98c.26.62.62,1.15,1.08,1.61.46.46,1,.82,1.61,1.08.61.26,1.28.39,1.98.39s1.37-.13,1.98-.39c.61-.26,1.15-.62,1.61-1.08.46-.46.82-1,1.08-1.61.26-.61.39-1.28.39-1.98s-.13-1.37-.39-1.98"/>
  <path class="uuid-c178dd66-712e-46b5-aaf6-f68af47b8807" d="M1826.06,529.84c-.48-1.11-1.15-2.05-2.03-2.84s-1.91-1.39-3.11-1.82c-1.2-.43-2.54-.65-4.01-.65-.46,0-1.05.05-1.78.14-.72.09-1.48.22-2.28.39-.8.17-1.59.39-2.38.65-.78.26-1.47.56-2.05.9-.34.18-.58.36-.74.53-.15.17-.15.44,0,.81l1.52,4.15c.15.4.34.56.55.48.21-.08.46-.18.74-.3.98-.4,1.89-.75,2.72-1.06.83-.31,1.74-.46,2.72-.46,1.29,0,2.24.25,2.86.74.61.49.92,1.14.92,1.94,0,1.2-.51,2.09-1.52,2.68-1.01.58-2.55,1.14-4.61,1.66-.43.12-.71.25-.85.37-.14.12-.21.35-.21.69v5.54c0,.43.05.71.16.83.11.12.38.18.81.18h4.7c.4,0,.65-.06.76-.18.11-.12.16-.4.16-.83l.05-2.35c.71-.25,1.28-.45,1.71-.62.43-.17.89-.38,1.38-.62,1.51-.8,2.64-1.81,3.39-3.04.75-1.23,1.13-2.63,1.13-4.2,0-1.35-.24-2.58-.71-3.69M1819.26,550.69c-.89-.89-1.98-1.34-3.27-1.34s-2.38.45-3.25,1.34c-.88.89-1.31,1.98-1.31,3.27s.44,2.38,1.31,3.27c.88.89,1.96,1.34,3.25,1.34s2.38-.45,3.27-1.34c.89-.89,1.34-1.98,1.34-3.27s-.45-2.38-1.34-3.27"/>
  <path class="uuid-c178dd66-712e-46b5-aaf6-f68af47b8807" d="M1729.85,526.02c.03-.4,0-.66-.09-.78-.09-.12-.37-.18-.83-.18h-6.41c-.49,0-.78.07-.88.21-.09.14-.12.39-.09.76l1.11,18.36c.03.4.1.65.21.76.11.11.36.16.76.16h4.2c.4,0,.65-.05.76-.16.11-.11.18-.36.21-.76l1.06-18.36ZM1729.06,550.69c-.89-.89-1.98-1.34-3.27-1.34s-2.38.45-3.28,1.34c-.89.89-1.34,1.98-1.34,3.27s.45,2.38,1.34,3.27c.89.89,1.98,1.34,3.28,1.34s2.38-.45,3.27-1.34c.89-.89,1.34-1.98,1.34-3.27s-.45-2.38-1.34-3.27"/>
  <path class="uuid-c178dd66-712e-46b5-aaf6-f68af47b8807" d="M1648.66,553.55l-3.14-3.41c.34-.58.67-1.26.99-2.03.32-.77.6-1.54.83-2.31.23-.77.42-1.5.55-2.19.14-.69.21-1.28.21-1.78,0-.43-.18-.69-.55-.78l-4.43-.78c-.25-.06-.45-.08-.6-.05-.15.03-.26.22-.32.55-.09.77-.22,1.59-.39,2.47-.17.88-.41,1.64-.71,2.28l-4.15-4.7c.71-.52,1.26-.95,1.66-1.29.4-.34.85-.77,1.34-1.29.8-.83,1.44-1.74,1.91-2.72.48-.98.71-2.04.71-3.18s-.22-2.18-.67-3.14c-.45-.95-1.06-1.78-1.84-2.47-.78-.69-1.72-1.22-2.81-1.59-1.09-.37-2.28-.55-3.57-.55s-2.57.21-3.74.62c-1.17.42-2.18.98-3.04,1.71-.86.72-1.55,1.58-2.05,2.58-.51,1-.76,2.08-.76,3.25,0,.58.07,1.15.21,1.68.14.54.35,1.09.65,1.66.29.57.69,1.19,1.2,1.87.51.68,1.13,1.45,1.87,2.31-.8.52-1.58,1.07-2.35,1.64-.77.57-1.45,1.21-2.05,1.91-.6.71-1.08,1.51-1.43,2.4-.35.89-.53,1.91-.53,3.04,0,1.45.26,2.73.78,3.85.52,1.12,1.27,2.08,2.24,2.86.97.78,2.13,1.38,3.48,1.8,1.35.42,2.87.62,4.57.62,1.08,0,2.04-.07,2.88-.21.85-.14,1.61-.34,2.31-.6.69-.26,1.34-.58,1.94-.97.6-.38,1.21-.82,1.82-1.31l2.49,2.54c.25.25.46.39.65.44s.4-.05.65-.3l3.18-3.04c.28-.28.42-.5.44-.67.01-.17-.12-.41-.39-.71M1635.38,534.78c-.4.65-1.09,1.41-2.08,2.31-.15-.18-.27-.32-.35-.42-.08-.09-.16-.18-.25-.28-.09-.09-.2-.21-.32-.35-.12-.14-.29-.33-.51-.58-.37-.43-.67-.89-.9-1.38-.23-.49-.35-1-.35-1.52,0-.8.26-1.44.78-1.91.52-.48,1.18-.71,1.98-.71s1.39.22,1.87.67c.48.45.71,1.12.71,2.01,0,.8-.2,1.52-.6,2.17M1637.5,550.69c-.65.62-1.33,1.09-2.05,1.43-.72.34-1.53.51-2.42.51-1.2,0-2.2-.37-3-1.11-.8-.74-1.2-1.68-1.2-2.81,0-1.6.98-3.09,2.95-4.47l5.72,6.46Z"/>
  <path class="uuid-c178dd66-712e-46b5-aaf6-f68af47b8807" d="M1553.39,552.31c.09-.37.11-.62.05-.76-.06-.14-.26-.21-.6-.21h-7.89c-.46,0-.94.02-1.43.07-.49.05-.92.1-1.29.16.34-.21.7-.53,1.08-.95.38-.42.74-.84,1.08-1.27l8.3-10.29v-3.83c0-.34-.05-.56-.14-.67-.09-.11-.31-.16-.65-.16h-15.91c-.34,0-.56.05-.67.16-.11.11-.16.33-.16.67v3.92c0,.37.05.6.14.69.09.09.32.14.69.14h5.86c.8,0,1.41,0,1.84-.02.43-.01.83-.05,1.2-.12-.28.18-.64.53-1.08,1.04-.45.51-.88,1.02-1.31,1.55l-8.26,10.24v3.74c0,.34.05.55.14.65.09.09.31.14.65.14h16.37c.25,0,.44-.03.58-.09.14-.06.24-.21.3-.46l1.11-4.34Z"/>
  <path class="uuid-c178dd66-712e-46b5-aaf6-f68af47b8807" d="M1463.98,535.56c.06-.28.09-.48.09-.6s-.25-.21-.74-.28l-5.4-.55c-.31-.03-.52-.04-.62-.02-.11.02-.21.22-.3.62l-2.72,12.32c-.18.86-.35,1.82-.51,2.86-.15,1.05-.31,2.03-.46,2.95-.18-1.04-.39-2.17-.6-3.37-.22-1.2-.46-2.34-.74-3.41l-2.95-11.39c-.06-.31-.15-.49-.28-.55-.12-.06-.32-.08-.6-.05l-6,.6c-.43.06-.67.16-.71.3-.05.14,0,.36.12.67l7.47,20.94c.09.31.19.48.3.53.11.05.31.07.62.07h1.75l-.55,1.94c-.28,1.01-.65,1.7-1.13,2.05-.48.35-1.13.53-1.96.53-.55,0-1.18-.15-1.87-.44-.69-.29-1.3-.56-1.82-.81-.37-.22-.65-.15-.83.18l-1.75,3.64c-.09.21-.15.41-.16.58-.02.17.08.33.3.48.37.31.85.58,1.43.83.58.25,1.19.46,1.82.65.63.18,1.25.32,1.87.42.61.09,1.14.14,1.57.14,1.84,0,3.35-.4,4.52-1.2.77-.49,1.41-1.11,1.94-1.85.52-.74.97-1.54,1.34-2.4.37-.86.68-1.74.92-2.63.25-.89.48-1.75.69-2.58.15-.55.28-1.07.39-1.55.11-.48.22-.91.35-1.31l5.21-18.31Z"/>
  <path class="uuid-c178dd66-712e-46b5-aaf6-f68af47b8807" d="M1372.81,555.81l-7.1-10.1,6.6-8.9c.25-.31.35-.54.32-.69-.03-.15-.25-.29-.65-.42l-5.49-1.48c-.28-.06-.48-.08-.62-.07-.14.02-.28.15-.44.39l-2.63,4.15c-.49.8-.95,1.57-1.38,2.31-.15-.34-.34-.71-.55-1.13-.22-.42-.43-.81-.65-1.18l-2.31-4.11c-.15-.25-.28-.38-.37-.42-.09-.03-.31-.01-.65.05l-5.53,1.34c-.4.09-.6.23-.6.42,0,.15.09.39.28.69l6.23,9.04-7.06,9.64c-.37.58-.25.95.37,1.11l5.54,1.34c.31.06.51.08.6.07.09-.02.21-.15.37-.39l3.09-4.84c.25-.37.48-.77.71-1.2.23-.43.44-.83.62-1.2.21.37.42.74.6,1.11.18.37.42.8.69,1.29l2.91,4.84c.15.25.28.38.39.42.11.03.31.01.62-.05l5.72-.92c.71-.12.83-.49.37-1.11"/>
  <path class="uuid-c178dd66-712e-46b5-aaf6-f68af47b8807" d="M1285.98,535.61c.09-.34.12-.57.07-.69-.05-.12-.27-.21-.67-.28l-5.12-.55c-.34-.06-.56-.05-.67.02-.11.08-.19.27-.25.58l-2.08,9.64c-.15.65-.29,1.48-.42,2.49-.12,1.01-.26,2.21-.42,3.6-.12-1.26-.23-2.39-.32-3.39-.09-1-.2-1.81-.32-2.42l-1.84-9.46c-.06-.31-.14-.51-.23-.6-.09-.09-.29-.14-.6-.14h-5.07c-.31,0-.5.04-.58.12-.08.08-.15.27-.21.58l-2.12,9.78c-.12.58-.22,1.36-.3,2.33-.08.97-.18,2.04-.3,3.21-.09-.89-.2-1.88-.32-2.98-.12-1.09-.26-2.07-.42-2.93l-1.89-9.82c-.06-.34-.14-.53-.23-.58-.09-.05-.31-.05-.65-.02l-5.4.55c-.4.06-.63.15-.69.28-.06.12-.05.35.05.69l5.81,21.31c.06.31.14.48.23.53s.29.07.6.07h4.84c.31,0,.51-.02.6-.07.09-.05.17-.24.23-.58l2.4-10.75c.15-.68.29-1.46.42-2.35.12-.89.21-1.69.28-2.4.06.68.13,1.47.21,2.38.08.91.18,1.7.3,2.38l1.84,10.75c.06.31.14.49.23.55.09.06.31.09.65.09h4.8c.31,0,.51-.02.6-.07.09-.05.18-.22.28-.53l6.69-21.31Z"/>
  <path class="uuid-c178dd66-712e-46b5-aaf6-f68af47b8807" d="M1190.73,535.52c.12-.34.15-.57.07-.69-.08-.12-.3-.2-.67-.23l-5.53-.46c-.31-.03-.52-.03-.62,0-.11.03-.21.23-.3.6l-2.81,10.24c-.18.68-.39,1.55-.6,2.61-.22,1.06-.42,2.13-.6,3.21-.18-1.14-.38-2.22-.58-3.25-.2-1.03-.38-1.88-.53-2.56l-2.58-10.24c-.06-.31-.15-.49-.25-.55-.11-.06-.33-.08-.67-.05l-6.23.42c-.43.03-.67.12-.71.25s0,.38.12.71l7.89,21.96c.09.28.18.45.28.53.09.08.28.12.55.12h4.94c.31,0,.51-.04.6-.12.09-.08.18-.25.28-.53l7.98-21.96Z"/>
  <path class="uuid-c178dd66-712e-46b5-aaf6-f68af47b8807" d="M1098.09,553.95c-.14-.69-.21-1.62-.21-2.79v-16.74c0-.4-.04-.63-.12-.69-.08-.06-.33-.06-.76,0l-5.49.78c-.31.06-.49.14-.55.23-.06.09-.09.31-.09.65v15.96c-1.08.98-2.2,1.48-3.37,1.48-.89,0-1.49-.26-1.8-.78-.31-.52-.46-1.38-.46-2.58v-15.04c0-.37-.05-.59-.14-.67-.09-.08-.34-.08-.74-.02l-5.58.83c-.31.06-.49.14-.55.23-.06.09-.09.31-.09.65v13.42c0,1.05.02,1.92.07,2.63.05.71.13,1.31.25,1.82.12.51.3.96.53,1.36.23.4.53.8.9,1.2.61.71,1.41,1.24,2.4,1.59.98.35,2.09.53,3.32.53s2.35-.18,3.27-.55c.92-.37,1.84-1,2.77-1.89.21.71.43,1.26.65,1.66.21.4.49.6.83.6.21,0,.4-.02.55-.05l4.89-1.01c.4-.09.46-.37.18-.83-.31-.61-.53-1.27-.67-1.96"/>
  <path class="uuid-c178dd66-712e-46b5-aaf6-f68af47b8807" d="M1917.09,480.51l-.97-3.89c-.12-.46-.4-.6-.83-.42-.8.34-1.45.58-1.94.71-.49.14-.95.21-1.38.21-.52,0-.89-.15-1.11-.44-.22-.29-.32-.87-.32-1.74v-10.32h4.52c.25,0,.42-.04.53-.12.11-.08.19-.25.25-.53l.74-3.74c.06-.31.06-.51,0-.62-.06-.11-.31-.16-.74-.16h-5.3v-6.6c0-.34-.05-.55-.16-.62-.11-.08-.35-.08-.71-.02l-5.54.55c-.34.03-.54.09-.6.18-.06.09-.09.29-.09.6v5.9h-3.04c-.4,0-.64.04-.71.12-.08.08-.12.32-.12.71v3.55c0,.4.04.63.12.69.08.06.3.09.67.09h3.09v10.84c0,1.01.05,1.87.16,2.56.11.69.33,1.35.67,1.96.52.98,1.28,1.74,2.28,2.26,1,.52,2.28.78,3.85.78.92,0,1.95-.12,3.09-.37,1.14-.24,2.14-.55,3-.92.37-.15.58-.31.65-.48.06-.17.05-.42-.05-.76"/>
  <path class="uuid-c178dd66-712e-46b5-aaf6-f68af47b8807" d="M1824.24,471.22c-.62-.65-1.35-1.19-2.21-1.64-.86-.45-2.06-.98-3.6-1.59-1.08-.43-1.85-.78-2.33-1.04-.48-.26-.71-.7-.71-1.31s.24-1.06.71-1.34c.48-.28,1.08-.42,1.82-.42s1.49.15,2.35.44c.86.29,1.69.61,2.49.95.25.09.42.12.53.09.11-.03.21-.17.3-.42l1.43-3.55c.09-.25.14-.43.14-.55s-.12-.26-.37-.42c-.86-.49-1.88-.91-3.07-1.25-1.18-.34-2.58-.51-4.17-.51-1.26,0-2.43.17-3.51.51-1.08.34-2.01.83-2.79,1.48-.78.65-1.4,1.42-1.84,2.33-.45.91-.67,1.93-.67,3.07,0,1.05.15,1.93.46,2.65.31.72.71,1.33,1.2,1.82.52.52,1.18.98,1.96,1.38.78.4,1.82.86,3.11,1.38,1.29.49,2.21.88,2.74,1.18.54.29.81.75.81,1.36s-.2,1.07-.6,1.36c-.4.29-.95.44-1.66.44-.43,0-.93-.06-1.5-.18-.57-.12-1.15-.29-1.75-.51-.6-.21-1.19-.44-1.78-.67-.58-.23-1.11-.47-1.57-.71-.22-.12-.41-.17-.58-.14-.17.03-.28.17-.35.42l-1.15,3.78c-.09.34-.14.58-.14.74s.17.32.51.51c1.08.62,2.38,1.13,3.9,1.55,1.52.42,3.17.62,4.96.62,1.23,0,2.36-.16,3.39-.48,1.03-.32,1.92-.8,2.68-1.43.75-.63,1.34-1.41,1.75-2.33s.62-1.98.62-3.18c0-1.81-.51-3.27-1.52-4.38"/>
  <path class="uuid-c178dd66-712e-46b5-aaf6-f68af47b8807" d="M1733.93,459c-.55-.21-1.15-.32-1.8-.32-1.01,0-1.89.22-2.63.67-.74.45-1.54,1.13-2.4,2.05-.06.03-.14.11-.23.23-.09.12-.17.22-.23.28-.28-.98-.57-1.76-.88-2.33-.31-.57-.63-.85-.97-.85-.15,0-.37.05-.65.14l-4.47,1.2c-.34.09-.48.25-.44.46.05.22.12.45.21.69.25.65.51,1.5.78,2.56.28,1.06.42,2.25.42,3.57v14.16c0,.37.03.58.09.65.06.06.26.09.6.09h5.72c.34,0,.55-.03.62-.09.08-.06.12-.28.12-.65v-14.94c.65-.71,1.18-1.18,1.61-1.43.43-.25.89-.37,1.38-.37s.91.07,1.25.21c.34.14.65.28.92.44.34.15.58.03.74-.37l1.52-4.11c.06-.15.12-.32.18-.51.06-.18.01-.35-.14-.51-.34-.4-.78-.71-1.34-.92"/>
  <path class="uuid-c178dd66-712e-46b5-aaf6-f68af47b8807" d="M1644.97,459.78l-4.29-1.06c-.09-.03-.22-.05-.37-.07-.15-.01-.26-.02-.32-.02-.4,0-.74.19-1.01.58-.28.39-.57.87-.88,1.45-.86-.71-1.68-1.21-2.47-1.52-.78-.31-1.67-.46-2.65-.46-1.48,0-2.78.31-3.92.92-1.14.62-2.08,1.48-2.84,2.58-.75,1.11-1.33,2.44-1.73,4.01-.4,1.57-.6,3.31-.6,5.21,0,3.63.71,6.47,2.14,8.53,1.43,2.06,3.57,3.09,6.43,3.09.83,0,1.62-.11,2.38-.32.75-.22,1.48-.58,2.19-1.11v9.55c0,.34.04.56.12.67.08.11.25.13.53.07l5.9-.92c.25-.06.4-.13.46-.21.06-.08.09-.25.09-.53v-23.71c0-1.29.12-2.41.35-3.34.23-.94.51-1.78.85-2.51.18-.46.06-.75-.37-.88M1637.04,476.85c-.95.95-2,1.43-3.14,1.43-.89,0-1.61-.54-2.14-1.61-.54-1.08-.81-2.83-.81-5.26,0-2.58.28-4.43.83-5.54.55-1.11,1.32-1.66,2.31-1.66s2,.39,2.95,1.15v11.49Z"/>
  <path class="uuid-c178dd66-712e-46b5-aaf6-f68af47b8807" d="M1552.45,461.86c-1.43-2.12-3.61-3.18-6.53-3.18-1.08,0-2.06.16-2.95.48-.89.32-1.78.88-2.68,1.68-.18-.61-.39-1.13-.6-1.55-.22-.42-.45-.62-.69-.62-.15,0-.37.05-.65.14l-4.75,1.66c-.22.06-.35.15-.39.25-.05.11-.02.28.07.53.25.71.46,1.43.65,2.17.18.74.28,1.6.28,2.58v25.18c0,.34.05.56.14.67.09.11.28.13.55.07l5.86-.88c.25-.06.4-.13.46-.21.06-.08.09-.27.09-.58v-8.26c.68.34,1.33.59,1.96.76.63.17,1.34.25,2.14.25,3.17,0,5.49-1.04,6.97-3.11,1.48-2.08,2.21-5.17,2.21-9.29,0-3.72-.71-6.64-2.14-8.76M1547.46,474.42c-.14.97-.35,1.74-.65,2.31-.29.57-.66.97-1.11,1.2-.45.23-.99.35-1.64.35-.89,0-1.82-.23-2.77-.69v-12.27c.61-.52,1.16-.88,1.64-1.08.48-.2.98-.3,1.5-.3,1.01,0,1.81.52,2.38,1.57.57,1.05.85,2.81.85,5.3,0,1.45-.07,2.65-.21,3.62"/>
  <path class="uuid-c178dd66-712e-46b5-aaf6-f68af47b8807" d="M1462.43,465.82c-.46-1.51-1.14-2.79-2.03-3.85-.89-1.06-1.99-1.88-3.3-2.44-1.31-.57-2.81-.85-4.5-.85s-3.21.28-4.54.85c-1.34.57-2.47,1.38-3.39,2.44-.92,1.06-1.62,2.34-2.1,3.83-.48,1.49-.71,3.16-.71,5,0,3.78.92,6.77,2.77,8.95,1.84,2.18,4.49,3.27,7.93,3.27,1.66,0,3.14-.29,4.45-.88,1.31-.58,2.41-1.41,3.32-2.47.91-1.06,1.6-2.34,2.08-3.83.48-1.49.71-3.14.71-4.96s-.23-3.57-.69-5.07M1455.1,476.34c-.55,1.05-1.41,1.57-2.58,1.57s-2.04-.51-2.61-1.55c-.57-1.03-.85-2.85-.85-5.47s.28-4.49.85-5.54c.57-1.04,1.44-1.57,2.61-1.57s2.03.52,2.58,1.57c.55,1.05.83,2.88.83,5.49s-.28,4.44-.83,5.49"/>
  <path class="uuid-c178dd66-712e-46b5-aaf6-f68af47b8807" d="M1371.52,481.51v-15.31c0-2.49-.53-4.37-1.59-5.63-1.06-1.26-2.76-1.89-5.1-1.89-1.23,0-2.38.21-3.44.62-1.06.42-2.13,1.1-3.21,2.05-.15-.58-.32-1.05-.48-1.41-.17-.35-.33-.65-.48-.9-.22-.31-.43-.47-.65-.48-.22-.01-.48.02-.78.12l-4.66,1.34c-.43.12-.54.43-.32.92.25.62.46,1.35.65,2.21.18.86.28,1.88.28,3.04v15.36c0,.31.03.5.09.58.06.08.26.12.6.12h5.63c.37,0,.58-.04.65-.12.06-.08.09-.27.09-.58v-16.1c.71-.58,1.32-.99,1.85-1.22.52-.23,1.08-.35,1.66-.35,1.41,0,2.12,1.01,2.12,3.04v14.58c0,.34.04.55.12.62.08.08.28.12.62.12h5.67c.31,0,.5-.04.58-.12.08-.08.12-.28.12-.62"/>
  <path class="uuid-c178dd66-712e-46b5-aaf6-f68af47b8807" d="M1285.98,481.37v-14.81c0-1.29-.08-2.38-.23-3.25-.15-.88-.45-1.67-.88-2.38-.43-.71-1.05-1.26-1.85-1.66-.8-.4-1.8-.6-3-.6-1.29,0-2.47.25-3.53.74-1.06.49-2.16,1.25-3.3,2.26-.43-.98-1.1-1.73-2.01-2.24-.91-.51-1.96-.76-3.16-.76s-2.35.22-3.34.65c-1,.43-2.04,1.09-3.11,1.98-.15-.58-.32-1.04-.48-1.38-.17-.34-.33-.63-.48-.88-.22-.31-.42-.46-.6-.46-.15,0-.35.03-.6.09l-4.84,1.11c-.31.06-.47.18-.48.35-.02.17.04.41.16.71.28.77.49,1.56.65,2.38.15.82.23,1.81.23,2.98v15.18c0,.4.04.65.12.74.08.09.3.14.67.14h5.4c.4,0,.64-.05.71-.14.08-.09.12-.34.12-.74v-15.96c.68-.55,1.27-.95,1.78-1.2.51-.25,1.04-.37,1.59-.37.65,0,1.08.22,1.29.65.21.43.32,1.2.32,2.31v14.58c0,.4.04.65.12.74.08.09.3.14.67.14h5.4c.34,0,.54-.05.6-.14.06-.09.09-.34.09-.74v-15.96c.68-.61,1.26-1.04,1.75-1.29.49-.25,1.03-.37,1.61-.37s1,.22,1.25.67c.25.45.37,1.16.37,2.14v14.81c0,.43.05.68.14.76.09.08.31.12.65.12h5.44c.37,0,.59-.05.67-.14.08-.09.12-.34.12-.74"/>
  <path class="uuid-c178dd66-712e-46b5-aaf6-f68af47b8807" d="M1186.69,480.95l-1.01-4.2c-.06-.15-.15-.25-.28-.28-.12-.03-.26-.01-.42.05-.25.09-.52.18-.83.25-.31.08-.63.12-.97.12-.62,0-.92-.58-.92-1.75v-25.55c0-.4-.06-.62-.18-.67-.12-.05-.4-.04-.83.02l-5.54.88c-.46.09-.69.4-.69.92v23.06l.05,1.85c.03,1.45.15,2.58.35,3.39.2.82.61,1.56,1.22,2.24.52.58,1.21,1.02,2.05,1.31.85.29,1.76.44,2.74.44.8,0,1.66-.1,2.58-.3.92-.2,1.71-.5,2.35-.9.25-.15.38-.28.39-.39.01-.11,0-.27-.07-.48"/>
  <path class="uuid-c178dd66-712e-46b5-aaf6-f68af47b8807" d="M1099.79,479.57l-8.26-10.06,7.01-7.1c.43-.43.42-.81-.05-1.15l-3.51-2.49c-.25-.18-.44-.28-.58-.3-.14-.01-.33.1-.58.35l-7.93,8.21v-17.3c0-.43-.07-.69-.21-.78s-.44-.11-.9-.05l-5.26.88c-.34.06-.55.15-.65.25-.09.11-.14.33-.14.67v30.86c0,.34.03.54.09.6.06.06.26.09.6.09h5.77c.31,0,.5-.03.58-.09.08-.06.12-.26.12-.6v-8.76l7.61,9.82c.18.25.35.37.51.37s.35-.06.6-.18l4.98-2.12c.34-.15.51-.31.51-.46,0-.18-.11-.4-.32-.65"/>
  <path class="uuid-c178dd66-712e-46b5-aaf6-f68af47b8807" d="M1912.59,375.65c-.22-.52-.52-.98-.92-1.38-.4-.4-.86-.71-1.38-.95-.52-.23-1.09-.35-1.71-.35-1.26,0-2.3.43-3.11,1.29-.82.86-1.22,1.88-1.22,3.04,0,.58.11,1.15.32,1.68.21.54.52,1.01.92,1.41.4.4.86.71,1.38.95.52.23,1.09.35,1.71.35s1.18-.12,1.71-.35c.52-.23.98-.55,1.38-.95.4-.4.71-.87.92-1.41.21-.54.32-1.1.32-1.68s-.11-1.14-.32-1.66M1912.36,406.74v-21.49c0-.34-.04-.55-.12-.62-.08-.08-.28-.12-.62-.12h-9.36c-.31,0-.51.04-.6.12-.09.08-.14.28-.14.62v3.97c0,.34.05.55.14.62.09.08.29.12.6.12h2.95v16.79c0,1.14-.02,2.07-.07,2.79-.05.72-.15,1.3-.3,1.73-.15.43-.37.73-.65.9-.28.17-.65.25-1.11.25-.49,0-.97-.06-1.43-.18-.46-.12-1-.31-1.61-.55-.15-.06-.31-.09-.46-.07-.15.01-.26.1-.32.25l-1.29,4.2c-.06.25-.08.45-.07.6.02.15.18.29.48.42.71.31,1.49.57,2.35.78.86.21,1.84.32,2.95.32,1.38,0,2.65-.2,3.81-.6,1.15-.4,2.08-1,2.79-1.8.4-.46.74-.95,1.01-1.45.28-.51.49-1.1.65-1.78.15-.68.26-1.48.32-2.42.06-.94.09-2.07.09-3.39"/>
  <path class="uuid-c178dd66-712e-46b5-aaf6-f68af47b8807" d="M1821.29,375.65c-.22-.52-.52-.98-.92-1.38-.4-.4-.86-.71-1.38-.95-.52-.23-1.09-.35-1.71-.35-1.26,0-2.3.43-3.11,1.29-.82.86-1.22,1.88-1.22,3.04,0,.58.11,1.15.32,1.68.21.54.51,1.01.9,1.41.38.4.84.71,1.36.95.52.23,1.09.35,1.71.35s1.19-.12,1.73-.35c.54-.23,1-.55,1.38-.95.38-.4.69-.87.92-1.41.23-.54.35-1.1.35-1.68s-.11-1.14-.32-1.66M1821.06,406.6v-21.36c0-.34-.04-.55-.12-.62-.08-.08-.28-.12-.62-.12h-9.36c-.31,0-.51.04-.6.12-.09.08-.14.28-.14.62v3.97c0,.31.05.51.14.6.09.09.29.14.6.14h2.95v16.65c0,.34.05.54.14.6.09.06.31.09.65.09h5.63c.34,0,.55-.03.62-.09.08-.06.12-.26.12-.6"/>
  <path class="uuid-c178dd66-712e-46b5-aaf6-f68af47b8807" d="M1735.63,406.5v-15.5c0-1.14-.09-2.09-.28-2.86-.18-.77-.49-1.46-.92-2.08-.52-.74-1.25-1.32-2.17-1.75-.92-.43-2.05-.65-3.37-.65-1.08,0-2.12.2-3.14.6-1.01.4-1.94.98-2.77,1.75v-11.25c0-.43-.06-.69-.18-.78-.12-.09-.4-.11-.83-.05l-5.4.88c-.31.06-.49.14-.55.23-.06.09-.09.29-.09.6v30.86c0,.34.04.55.12.65.08.09.28.14.62.14h5.44c.43,0,.68-.04.76-.12.08-.08.12-.3.12-.67v-16.01c.65-.58,1.23-.98,1.75-1.2.52-.21,1.09-.32,1.71-.32.74,0,1.27.24,1.59.71.32.48.48,1.25.48,2.33v14.48c0,.37.05.59.14.67.09.08.31.12.65.12h5.44c.4,0,.65-.04.74-.12.09-.08.14-.3.14-.67"/>
  <path class="uuid-c178dd66-712e-46b5-aaf6-f68af47b8807" d="M1645.11,385.86c.05-.14.08-.28.09-.44.01-.15,0-.29-.02-.42-.03-.12-.11-.2-.23-.23l-4.8-1.2c-.4-.12-.74.05-1.01.51-.15.25-.31.48-.46.71-.15.23-.31.52-.46.85-.8-.71-1.6-1.21-2.4-1.5-.8-.29-1.71-.44-2.72-.44-1.45,0-2.73.3-3.85.9-1.12.6-2.07,1.45-2.84,2.54-.77,1.09-1.35,2.39-1.75,3.9-.4,1.51-.6,3.18-.6,5.03,0,3.35.7,6.01,2.1,7.98,1.4,1.97,3.42,2.95,6.07,2.95.89,0,1.72-.12,2.49-.37.77-.25,1.52-.6,2.26-1.06.06.4.12.88.16,1.43.05.55.07.95.07,1.2,0,1.2-.22,2.01-.65,2.44-.43.43-1.18.65-2.26.65-1.2,0-2.38-.17-3.55-.51-1.17-.34-2.34-.77-3.51-1.29-.28-.12-.52-.19-.72-.21-.2-.02-.35.12-.44.39l-1.2,3.97c-.09.31-.1.51-.02.62.08.11.24.24.48.39.61.34,1.32.65,2.12.92.8.28,1.62.51,2.47.71.85.2,1.68.35,2.51.46.83.11,1.6.16,2.31.16,3.01,0,5.33-.74,6.97-2.21,1.63-1.48,2.44-3.61,2.44-6.41,0-1.66-.03-3.3-.09-4.94-.06-1.63-.09-3.27-.09-4.94v-6.87c0-1.81.34-3.61,1.01-5.4.03-.06.07-.16.12-.3M1636.97,400.79c-.43.43-.91.76-1.43.99-.52.23-1.12.35-1.8.35-.86,0-1.56-.51-2.1-1.55-.54-1.03-.81-2.65-.81-4.87s.3-3.87.9-4.96c.6-1.09,1.39-1.64,2.38-1.64.58,0,1.08.09,1.5.25.42.17.87.42,1.36.76v10.65Z"/>
  <path class="uuid-c178dd66-712e-46b5-aaf6-f68af47b8807" d="M1553.3,376.15c.06-.25.08-.42.07-.53-.02-.11-.15-.24-.39-.39-.77-.43-1.71-.76-2.84-.99-1.12-.23-2.14-.35-3.07-.35-2.34,0-4.18.58-5.53,1.75-.89.74-1.55,1.66-1.96,2.77-.42,1.11-.62,2.52-.62,4.24v1.84h-2.86c-.34,0-.56.05-.67.16s-.16.28-.16.53v3.64c0,.43.05.68.14.74.09.06.31.09.65.09h2.91v16.93c0,.37.05.58.16.62.11.05.3.07.58.07h5.63c.34,0,.54-.03.6-.09.06-.06.09-.26.09-.6v-16.93h4.38c.46,0,.74-.18.83-.55l.74-3.69c.06-.4.07-.65.02-.76-.05-.11-.27-.16-.67-.16h-5.3v-1.89c0-1.17.15-1.98.44-2.42.29-.45.85-.67,1.68-.67.65,0,1.21.09,1.68.25.48.17.96.36,1.45.58.52.22.85.09.97-.37l1.06-3.83Z"/>
  <path class="uuid-c178dd66-712e-46b5-aaf6-f68af47b8807" d="M1460.38,386.99c-1.58-2.18-4.05-3.27-7.4-3.27-1.66,0-3.14.3-4.45.9-1.31.6-2.42,1.45-3.34,2.54-.92,1.09-1.63,2.4-2.12,3.92-.49,1.52-.74,3.19-.74,5,0,3.84.91,6.8,2.72,8.88,1.81,2.08,4.54,3.11,8.16,3.11,1.14,0,2.33-.14,3.57-.42,1.25-.28,2.51-.75,3.81-1.43.52-.28.93-.53,1.22-.76.29-.23.33-.55.12-.95l-1.57-3.14c-.25-.46-.62-.55-1.11-.28-.89.49-1.78.88-2.65,1.15s-1.88.42-3.02.42c-1.41,0-2.48-.41-3.21-1.22-.72-.81-1.13-2.11-1.22-3.9h12.59c.37,0,.63-.05.78-.14.15-.09.23-.35.23-.78,0-4.24-.79-7.46-2.38-9.64M1455.79,392.9h-6.6c.25-1.69.62-2.87,1.13-3.53.51-.66,1.3-.99,2.38-.99s1.81.32,2.28.97c.48.65.74,1.83.81,3.55"/>
  <path class="uuid-c178dd66-712e-46b5-aaf6-f68af47b8807" d="M1371.4,404.38c-.11-.28-.19-.55-.25-.83-.06-.28-.12-.58-.16-.92-.05-.34-.07-.75-.07-1.25v-26.71c0-.4-.06-.64-.18-.71-.12-.08-.32-.08-.6-.02l-5.77,1.06c-.25.06-.4.14-.46.23-.06.09-.09.26-.09.51v8.99c-1.35-.68-2.69-1.01-4.01-1.01s-2.46.22-3.51.65c-1.05.43-2,1.14-2.86,2.12-1.05,1.17-1.77,2.53-2.17,4.08-.4,1.55-.6,3.54-.6,5.97,0,1.72.17,3.29.51,4.7.34,1.41.85,2.63,1.52,3.64.68,1.01,1.51,1.8,2.51,2.35,1,.55,2.17.83,3.53.83,2.12,0,4.18-.78,6.18-2.35.15.68.35,1.21.58,1.59.23.38.47.58.71.58.18,0,.45-.05.78-.14l4.43-1.52c.25-.09.4-.19.46-.3.06-.11.03-.3-.09-.58-.15-.37-.28-.69-.39-.97M1363.82,401.66c-.92.86-2,1.29-3.23,1.29-1.01,0-1.79-.51-2.33-1.55-.54-1.03-.81-2.88-.81-5.56,0-1.38.07-2.53.21-3.44.14-.91.35-1.64.65-2.19.29-.55.65-.95,1.08-1.18.43-.23.94-.35,1.52-.35.92,0,1.89.22,2.91.65v12.32Z"/>
  <path class="uuid-c178dd66-712e-46b5-aaf6-f68af47b8807" d="M1279.87,387.13c.25-.52.14-.95-.32-1.29-.89-.68-1.91-1.2-3.04-1.57-1.14-.37-2.32-.55-3.55-.55-1.78,0-3.37.3-4.75.9-1.38.6-2.55,1.45-3.51,2.54-.95,1.09-1.68,2.41-2.19,3.97-.51,1.55-.76,3.28-.76,5.19,0,3.66.88,6.53,2.65,8.63,1.77,2.09,4.37,3.14,7.82,3.14.49,0,1.03-.05,1.61-.14.58-.09,1.17-.22,1.75-.39.58-.17,1.14-.37,1.66-.6.52-.23.97-.48,1.34-.76.49-.37.79-.64.9-.81.11-.17.08-.41-.07-.71l-1.43-3.14c-.15-.31-.31-.47-.46-.48-.15-.01-.37.07-.65.25-.62.4-1.23.72-1.84.97-.62.25-1.28.37-1.98.37-1.29,0-2.31-.5-3.07-1.5-.75-1-1.13-2.7-1.13-5.1s.38-4.27,1.13-5.33c.75-1.06,1.76-1.59,3.02-1.59.74,0,1.42.14,2.05.42.63.28,1.36.69,2.19,1.25.21.15.4.23.55.23s.29-.12.42-.37l1.66-3.51Z"/>
  <path class="uuid-c178dd66-712e-46b5-aaf6-f68af47b8807" d="M1188.15,386.76c-1.38-2.03-3.44-3.04-6.18-3.04-1.63,0-3.29.55-4.98,1.66v-10.7c0-.4-.06-.64-.18-.71-.12-.08-.35-.08-.69-.02l-5.58.88c-.34.06-.53.15-.58.25-.05.11-.07.32-.07.62v25.46c0,.62-.02,1.15-.07,1.61-.05.46-.11.88-.18,1.27-.08.39-.17.74-.28,1.06-.11.32-.24.67-.39,1.04-.22.52-.09.83.37.92l4.57.74c.18.03.31.05.37.07.06.01.14.02.23.02.25,0,.46-.09.65-.28s.45-.65.78-1.38c.77.65,1.48,1.11,2.14,1.41.66.29,1.44.44,2.33.44,1.41,0,2.72-.3,3.92-.9,1.2-.6,2.26-1.45,3.18-2.56.98-1.2,1.68-2.54,2.1-4.04.42-1.49.62-3.31.62-5.47,0-3.54-.69-6.32-2.08-8.35M1182.2,401.06c-.77,1.29-1.75,1.94-2.95,1.94-.77,0-1.52-.25-2.26-.74v-12.32c.68-.49,1.25-.83,1.73-1.01.48-.18.95-.28,1.41-.28.95,0,1.73.55,2.33,1.66.6,1.11.9,2.81.9,5.12,0,2.46-.39,4.34-1.15,5.63"/>
  <path class="uuid-c178dd66-712e-46b5-aaf6-f68af47b8807" d="M1096.96,403.37c-.22-.74-.32-1.77-.32-3.09v-8.95c0-.65-.02-1.19-.05-1.64-.03-.45-.12-.88-.28-1.31-.46-1.57-1.41-2.74-2.86-3.51-1.45-.77-3.24-1.15-5.4-1.15-1.35,0-2.7.12-4.04.35-1.34.23-2.55.59-3.62,1.08-.43.18-.71.34-.85.46-.14.12-.13.37.02.74l1.29,3.74c.09.25.21.39.35.42.14.03.31,0,.53-.09,1.11-.43,2.11-.77,3.02-1.01.91-.25,1.71-.37,2.42-.37,1.2,0,1.98.18,2.33.55.35.37.53,1,.53,1.89v1.34h-.37c-1.66,0-3.11.11-4.34.32-1.23.22-2.38.58-3.46,1.11-1.29.62-2.28,1.45-2.95,2.49-.68,1.05-1.01,2.4-1.01,4.06,0,2.21.66,3.96,1.98,5.24,1.32,1.28,3.14,1.91,5.44,1.91,1.11,0,2.11-.19,3.02-.58.91-.38,1.81-.99,2.7-1.82.31.89.56,1.53.76,1.91.2.38.44.58.71.58.15,0,.38-.06.69-.18l4.29-1.43c.25-.06.37-.17.37-.32,0-.18-.05-.37-.14-.55-.31-.71-.57-1.43-.78-2.17M1090.04,401.71c-1.01,1.08-2.08,1.61-3.18,1.61-.71,0-1.31-.26-1.82-.78-.51-.52-.76-1.21-.76-2.08,0-1.08.41-1.9,1.22-2.47.81-.57,2.19-.85,4.13-.85h.42v4.57Z"/>
  <path class="uuid-c178dd66-712e-46b5-aaf6-f68af47b8807" d="M1912.66,326.25c-.26-.61-.62-1.15-1.08-1.61-.46-.46-1-.83-1.61-1.11-.62-.28-1.28-.42-1.98-.42s-1.37.14-1.98.42c-.62.28-1.15.65-1.61,1.11-.46.46-.82,1-1.08,1.61-.26.62-.39,1.28-.39,1.98s.13,1.37.39,1.98c.26.62.62,1.15,1.08,1.61.46.46,1,.82,1.61,1.08.61.26,1.28.39,1.98.39s1.37-.13,1.98-.39c.61-.26,1.15-.62,1.61-1.08.46-.46.82-1,1.08-1.61.26-.61.39-1.28.39-1.98s-.13-1.37-.39-1.98"/>
  <path class="uuid-c178dd66-712e-46b5-aaf6-f68af47b8807" d="M1826.06,304.98c-.48-1.11-1.15-2.05-2.03-2.84s-1.91-1.39-3.11-1.82c-1.2-.43-2.54-.65-4.01-.65-.46,0-1.05.05-1.78.14-.72.09-1.48.22-2.28.39-.8.17-1.59.39-2.38.65-.78.26-1.47.56-2.05.9-.34.18-.58.36-.74.53-.15.17-.15.44,0,.81l1.52,4.15c.15.4.34.56.55.48.21-.08.46-.18.74-.3.98-.4,1.89-.75,2.72-1.06.83-.31,1.74-.46,2.72-.46,1.29,0,2.24.25,2.86.74.61.49.92,1.14.92,1.94,0,1.2-.51,2.09-1.52,2.68-1.01.58-2.55,1.14-4.61,1.66-.43.12-.71.25-.85.37-.14.12-.21.35-.21.69v5.54c0,.43.05.71.16.83.11.12.38.18.81.18h4.7c.4,0,.65-.06.76-.18.11-.12.16-.4.16-.83l.05-2.35c.71-.25,1.28-.45,1.71-.62.43-.17.89-.38,1.38-.62,1.51-.8,2.64-1.81,3.39-3.04.75-1.23,1.13-2.63,1.13-4.2,0-1.35-.24-2.58-.71-3.69M1819.26,325.83c-.89-.89-1.98-1.34-3.27-1.34s-2.38.45-3.25,1.34c-.88.89-1.31,1.98-1.31,3.27s.44,2.38,1.31,3.27,1.96,1.34,3.25,1.34,2.38-.45,3.27-1.34c.89-.89,1.34-1.98,1.34-3.27s-.45-2.38-1.34-3.27"/>
  <path class="uuid-c178dd66-712e-46b5-aaf6-f68af47b8807" d="M1729.85,301.15c.03-.4,0-.66-.09-.78-.09-.12-.37-.18-.83-.18h-6.41c-.49,0-.78.07-.88.21-.09.14-.12.39-.09.76l1.11,18.36c.03.4.1.65.21.76.11.11.36.16.76.16h4.2c.4,0,.65-.05.76-.16s.18-.36.21-.76l1.06-18.36ZM1729.06,325.83c-.89-.89-1.98-1.34-3.27-1.34s-2.38.45-3.28,1.34c-.89.89-1.34,1.98-1.34,3.27s.45,2.38,1.34,3.27c.89.89,1.98,1.34,3.28,1.34s2.38-.45,3.27-1.34c.89-.89,1.34-1.98,1.34-3.27s-.45-2.38-1.34-3.27"/>
  <path class="uuid-c178dd66-712e-46b5-aaf6-f68af47b8807" d="M1648.66,328.69l-3.14-3.41c.34-.58.67-1.26.99-2.03.32-.77.6-1.54.83-2.31.23-.77.42-1.5.55-2.19.14-.69.21-1.28.21-1.78,0-.43-.18-.69-.55-.78l-4.43-.78c-.25-.06-.45-.08-.6-.05-.15.03-.26.22-.32.55-.09.77-.22,1.59-.39,2.47-.17.88-.41,1.64-.71,2.28l-4.15-4.7c.71-.52,1.26-.95,1.66-1.29.4-.34.85-.77,1.34-1.29.8-.83,1.44-1.74,1.91-2.72.48-.98.71-2.04.71-3.18s-.22-2.18-.67-3.14c-.45-.95-1.06-1.78-1.84-2.47-.78-.69-1.72-1.22-2.81-1.59-1.09-.37-2.28-.55-3.57-.55s-2.57.21-3.74.62c-1.17.42-2.18.98-3.04,1.71-.86.72-1.55,1.58-2.05,2.58-.51,1-.76,2.08-.76,3.25,0,.58.07,1.15.21,1.68.14.54.35,1.09.65,1.66.29.57.69,1.19,1.2,1.87.51.68,1.13,1.45,1.87,2.31-.8.52-1.58,1.07-2.35,1.64-.77.57-1.45,1.21-2.05,1.91-.6.71-1.08,1.51-1.43,2.4-.35.89-.53,1.91-.53,3.04,0,1.45.26,2.73.78,3.85.52,1.12,1.27,2.08,2.24,2.86s2.13,1.38,3.48,1.8c1.35.42,2.87.62,4.57.62,1.08,0,2.04-.07,2.88-.21.85-.14,1.61-.34,2.31-.6.69-.26,1.34-.58,1.94-.97.6-.38,1.21-.82,1.82-1.31l2.49,2.54c.25.25.46.39.65.44.18.05.4-.05.65-.3l3.18-3.04c.28-.28.42-.5.44-.67.01-.17-.12-.41-.39-.71M1635.38,309.92c-.4.65-1.09,1.41-2.08,2.31-.15-.18-.27-.32-.35-.42-.08-.09-.16-.18-.25-.28-.09-.09-.2-.21-.32-.35-.12-.14-.29-.33-.51-.58-.37-.43-.67-.89-.9-1.38-.23-.49-.35-1-.35-1.52,0-.8.26-1.44.78-1.91.52-.48,1.18-.71,1.98-.71s1.39.22,1.87.67c.48.45.71,1.12.71,2.01,0,.8-.2,1.52-.6,2.17M1637.5,325.83c-.65.62-1.33,1.09-2.05,1.43-.72.34-1.53.51-2.42.51-1.2,0-2.2-.37-3-1.11-.8-.74-1.2-1.68-1.2-2.81,0-1.6.98-3.09,2.95-4.47l5.72,6.46Z"/>
  <path class="uuid-c178dd66-712e-46b5-aaf6-f68af47b8807" d="M1554.89,326.57c.06-.37.06-.62,0-.76-.06-.14-.32-.21-.78-.21h-12.59l11.9-19.46v-4.52c0-.4-.05-.65-.14-.76-.09-.11-.35-.16-.78-.16h-17.34c-.37,0-.61.03-.71.09-.11.06-.19.29-.25.69l-.83,4.52c-.06.43-.05.72.02.85.08.14.35.21.81.21h10.84l-12.27,20.25v4.06c0,.43.05.7.14.81.09.11.35.16.78.16h19.74c.4,0,.65-.05.76-.16.11-.11.19-.35.25-.71l.46-4.89Z"/>
  <path class="uuid-c178dd66-712e-46b5-aaf6-f68af47b8807" d="M1465.31,302.45c.18-.34.26-.6.23-.78-.03-.18-.25-.31-.65-.37l-5.95-.97c-.34-.06-.58-.06-.71,0-.14.06-.28.25-.44.55l-3.51,7.93c-.15.34-.28.65-.39.95-.11.29-.22.58-.32.88-.11.29-.22.62-.35.97-.12.35-.25.78-.37,1.27-.22-.77-.42-1.45-.6-2.05-.18-.6-.42-1.21-.69-1.82l-3.55-8.07c-.15-.37-.28-.58-.39-.62-.11-.05-.35-.04-.71.02l-6.41.88c-.68.09-.85.45-.51,1.06l8.99,17.07v12.04c0,.43.05.7.16.81.11.11.38.16.81.16h5.67c.43,0,.7-.05.81-.16.11-.11.16-.38.16-.81v-11.99l8.72-16.93Z"/>
  <path class="uuid-c178dd66-712e-46b5-aaf6-f68af47b8807" d="M1374.49,330.86l-8.72-15.18,7.33-13.01c.21-.37.31-.64.28-.81-.03-.17-.31-.31-.83-.44l-5.81-1.29c-.34-.06-.58-.08-.74-.05-.15.03-.31.23-.46.6l-2.91,6.6c-.22.49-.39.95-.53,1.36s-.3.93-.48,1.55c-.25-.61-.45-1.13-.6-1.55-.15-.42-.35-.87-.6-1.36l-3.14-6.5c-.22-.43-.39-.65-.51-.65-.09,0-.32.03-.69.09l-5.95,1.15c-.49.09-.77.24-.83.44-.06.2.03.48.28.85l7.75,12.92-8.63,15.04c-.22.37-.32.65-.3.85.01.2.28.35.81.44l5.95.97c.4.06.65.08.74.07.09-.02.23-.21.42-.58l4.15-8.07c.18-.34.36-.69.53-1.06.17-.37.38-.89.62-1.57.21.62.39,1.08.53,1.41.14.32.33.73.58,1.22l4.06,8.16c.18.34.35.52.48.55.14.03.38.01.71-.05l6-.88c.52-.06.79-.19.81-.39.01-.2-.09-.48-.3-.85"/>
  <path class="uuid-c178dd66-712e-46b5-aaf6-f68af47b8807" d="M1288.45,302.45c.09-.37.1-.64.02-.81-.08-.17-.33-.28-.76-.35l-5.3-.78c-.4-.06-.66-.05-.78.02-.12.08-.22.33-.28.76l-2.4,14.07c-.18,1.08-.34,2.21-.46,3.39-.12,1.18-.28,2.59-.46,4.22-.15-1.57-.3-2.98-.44-4.22-.14-1.25-.33-2.38-.58-3.39l-3-13.65c-.09-.4-.18-.65-.28-.74-.09-.09-.34-.14-.74-.14h-4.66c-.4,0-.66.04-.78.12-.12.08-.22.3-.28.67l-3.23,14.48c-.15.71-.29,1.62-.42,2.74-.12,1.12-.28,2.42-.46,3.9-.12-1.48-.26-2.81-.42-3.99-.15-1.18-.31-2.27-.46-3.25l-2.49-14.25c-.09-.46-.19-.71-.3-.76-.11-.05-.38-.04-.81.02l-5.4.69c-.49.06-.76.18-.81.35-.05.17-.04.44.02.81l6.32,29.8c.06.37.15.59.25.67.11.08.36.12.76.12h5.35c.37,0,.6-.04.69-.12.09-.08.18-.3.28-.67l3.27-14.48c.06-.28.15-.7.25-1.27.11-.57.21-1.2.32-1.89.11-.69.21-1.41.3-2.14.09-.74.17-1.41.23-2.03.09,1.26.21,2.53.35,3.81.14,1.28.31,2.44.53,3.48l2.81,14.53c.06.37.15.59.28.67.12.08.38.12.78.12h5.3c.34,0,.58-.04.71-.12.14-.08.25-.3.35-.67l6.78-29.7Z"/>
  <path class="uuid-c178dd66-712e-46b5-aaf6-f68af47b8807" d="M1192.07,302.12c.12-.4.16-.68.12-.83-.05-.15-.3-.26-.76-.32l-5.95-.51c-.37-.03-.62-.01-.76.05-.14.06-.25.29-.35.69l-3.78,16.88c-.18.8-.36,1.68-.53,2.65-.17.97-.39,2.28-.67,3.94-.18-1.32-.36-2.53-.53-3.62-.17-1.09-.35-2.08-.53-2.98l-3.55-17.07c-.06-.34-.18-.56-.35-.67-.17-.11-.42-.13-.76-.07l-6.18.83c-.43.06-.68.18-.76.35-.08.17-.05.44.07.81l8.3,29.94c.09.34.18.55.28.62.09.08.32.12.69.12h6.37c.37,0,.61-.04.74-.12.12-.08.23-.28.32-.62l8.58-30.07Z"/>
  <path class="uuid-c178dd66-712e-46b5-aaf6-f68af47b8807" d="M1099.93,321.45v-19.83c0-.4-.05-.65-.16-.76-.11-.11-.38-.16-.81-.16h-5.49c-.4,0-.66.05-.78.16-.12.11-.18.36-.18.76v19.7c0,2.09-.35,3.58-1.06,4.47-.71.89-1.84,1.34-3.41,1.34-.77,0-1.41-.09-1.94-.28-.52-.18-.95-.51-1.27-.97-.32-.46-.56-1.07-.71-1.82-.15-.75-.23-1.7-.23-2.84v-19.6c0-.4-.05-.65-.16-.76-.11-.11-.38-.16-.81-.16h-5.67c-.43,0-.7.05-.81.16s-.16.36-.16.76v20.02c0,1.48.1,2.74.3,3.78.2,1.05.51,2.01.95,2.91.8,1.57,2.02,2.76,3.67,3.57,1.64.81,3.77,1.22,6.39,1.22,3.54,0,6.38-.83,8.53-2.49,1.29-.98,2.25-2.19,2.88-3.62.63-1.43.95-3.28.95-5.56"/>
  <path class="uuid-c178dd66-712e-46b5-aaf6-f68af47b8807" d="M1919.54,226.8c.09-.43.11-.71.05-.85-.06-.14-.32-.21-.78-.21h-20.48c-.43,0-.7.05-.81.16-.11.11-.16.36-.16.76v4.7c0,.43.05.7.16.81.11.11.38.16.81.16h5.9v24.08c0,.43.05.7.14.81.09.11.35.16.78.16h5.81c.43,0,.69-.05.78-.16.09-.11.14-.38.14-.81v-24.08h5.67c.34,0,.57-.05.69-.14.12-.09.21-.31.28-.65l1.01-4.75Z"/>
  <path class="uuid-c178dd66-712e-46b5-aaf6-f68af47b8807" d="M1825.83,242.74c-1.01-1.4-2.52-2.59-4.52-3.57l-3.51-1.75c-.74-.37-1.35-.69-1.82-.97-.48-.28-.86-.54-1.15-.78-.29-.25-.5-.51-.62-.78-.12-.28-.18-.6-.18-.97,0-.8.29-1.44.88-1.94.58-.49,1.48-.74,2.68-.74,1.11,0,2.23.22,3.37.67,1.14.45,2.18.9,3.14,1.36.15.06.29.09.42.09.15,0,.28-.11.37-.32l1.84-4.43c.09-.25.08-.46-.05-.65-.12-.18-.29-.35-.51-.51-1.01-.71-2.33-1.27-3.94-1.68-1.61-.42-3.24-.62-4.87-.62s-3.11.21-4.43.62c-1.32.42-2.44,1.01-3.37,1.8-.92.78-1.64,1.75-2.14,2.88-.51,1.14-.76,2.41-.76,3.83s.25,2.71.74,3.71c.49,1,1.23,1.9,2.21,2.7.55.46,1.18.9,1.87,1.31.69.42,1.58.88,2.65,1.41,1.26.62,2.28,1.13,3.07,1.55.78.42,1.39.81,1.82,1.18.43.37.71.75.85,1.13.14.39.21.85.21,1.41,0,.95-.3,1.7-.9,2.24-.6.54-1.47.81-2.61.81-1.05,0-2.27-.21-3.67-.62-1.4-.42-2.74-.99-4.04-1.73-.18-.12-.36-.18-.53-.16-.17.02-.28.15-.35.39l-1.52,4.94c-.09.28-.11.49-.05.65.06.15.21.31.46.46.49.34,1.14.65,1.96.95.81.29,1.67.54,2.56.74.89.2,1.79.36,2.7.48.91.12,1.73.18,2.47.18,1.6,0,3.07-.24,4.41-.71,1.34-.48,2.47-1.15,3.41-2.01.94-.86,1.67-1.9,2.19-3.11.52-1.21.78-2.56.78-4.04,0-2.18-.51-3.97-1.52-5.37"/>
  <path class="uuid-c178dd66-712e-46b5-aaf6-f68af47b8807" d="M1738.08,255.63l-6.83-11.9c3.26-1.87,4.89-4.83,4.89-8.86,0-1.48-.23-2.82-.69-4.04-.46-1.21-1.15-2.22-2.08-3.02-.46-.4-.97-.73-1.52-.99-.55-.26-1.17-.48-1.84-.65-.68-.17-1.44-.28-2.28-.35-.85-.06-1.81-.09-2.88-.09h-8.3c-.43,0-.69.05-.78.14-.09.09-.14.35-.14.78v29.66c0,.46.05.75.14.88.09.12.35.18.78.18h5.63c.43,0,.69-.05.78-.16.09-.11.14-.38.14-.81v-11.67h1.43l6.32,12.82c.15.34.31.52.46.55.15.03.4.01.74-.05l5.53-1.2c.43-.09.68-.23.74-.42.06-.18-.02-.46-.23-.83M1727.93,238.26c-.68.6-1.88.9-3.6.9h-1.25v-7.84h1.61c1.54,0,2.63.27,3.28.81.65.54.97,1.53.97,2.98s-.34,2.56-1.01,3.16"/>
  <path class="uuid-c178dd66-712e-46b5-aaf6-f68af47b8807" d="M1647.79,257.89c.25-.22.29-.43.14-.65-.15-.21-.28-.35-.37-.42-.8-.52-1.51-1-2.12-1.43-.62-.43-1.23-.88-1.84-1.34,1.04-1.38,1.84-3.17,2.38-5.37.54-2.2.81-4.74.81-7.63,0-5.2-.99-9.18-2.98-11.95s-5.02-4.15-9.11-4.15c-2.52,0-4.57.5-6.13,1.5-1.57,1-2.79,2.29-3.67,3.87-.88,1.58-1.48,3.34-1.8,5.28-.32,1.94-.48,3.84-.48,5.72,0,5.51.97,9.7,2.91,12.59,1.94,2.89,4.97,4.34,9.09,4.34.8,0,1.46-.05,1.98-.14.52-.09,1.12-.25,1.8-.46,1.08,1.14,2.07,2.04,2.98,2.7.91.66,1.61.99,2.1.99.18,0,.4-.09.65-.28l3.69-3.18ZM1638.59,246.47c-.2,1.37-.48,2.49-.83,3.37-.35.88-.79,1.52-1.31,1.91-.52.4-1.11.6-1.75.6s-1.23-.2-1.75-.6c-.52-.4-.98-1.03-1.36-1.89-.39-.86-.68-1.97-.88-3.32-.2-1.35-.3-2.98-.3-4.89,0-3.81.4-6.58,1.2-8.3.8-1.72,1.83-2.58,3.09-2.58s2.35.82,3.09,2.44c.74,1.63,1.11,4.38,1.11,8.26,0,1.97-.1,3.64-.3,5"/>
  <path class="uuid-c178dd66-712e-46b5-aaf6-f68af47b8807" d="M1554.29,230.77c-.48-1.23-1.13-2.21-1.96-2.95-.89-.8-2-1.34-3.32-1.64-1.32-.29-3.09-.44-5.3-.44h-8.3c-.43,0-.69.05-.78.14-.09.09-.14.35-.14.78v29.75c0,.43.05.7.14.81.09.11.35.16.78.16h5.81c.4,0,.66-.05.78-.16.12-.11.18-.38.18-.81v-11.25h1.84c1.66,0,3.17-.25,4.52-.74,1.35-.49,2.51-1.2,3.46-2.12.95-.92,1.69-2.03,2.21-3.32.52-1.29.78-2.72.78-4.29,0-1.38-.24-2.69-.71-3.92M1546.93,238.26c-.68.6-1.89.9-3.64.9h-1.11v-7.84h1.48c1.54,0,2.64.28,3.3.83.66.55.99,1.54.99,2.95,0,1.51-.34,2.56-1.01,3.16"/>
  <path class="uuid-c178dd66-712e-46b5-aaf6-f68af47b8807" d="M1461.62,229.13c-1.97-2.78-5-4.17-9.09-4.17-2.46,0-4.48.49-6.07,1.48-1.58.98-2.82,2.26-3.71,3.83-.89,1.57-1.51,3.31-1.84,5.21-.34,1.91-.51,3.78-.51,5.63,0,5.63.96,9.88,2.88,12.75,1.92,2.88,4.94,4.31,9.06,4.31s7.26-1.46,9.25-4.38c1.98-2.92,2.98-7.15,2.98-12.68,0-5.2-.98-9.19-2.95-11.97M1455.56,249.84c-.75,1.68-1.78,2.51-3.07,2.51-.65,0-1.23-.19-1.75-.58-.52-.38-.98-1.01-1.36-1.87-.39-.86-.68-1.97-.88-3.32-.2-1.35-.3-2.98-.3-4.89,0-3.84.39-6.63,1.18-8.35.78-1.72,1.82-2.58,3.11-2.58.65,0,1.23.19,1.75.58.52.39.97,1.01,1.34,1.87.37.86.65,1.98.83,3.34.18,1.37.28,3.02.28,4.96,0,3.87-.38,6.65-1.13,8.33"/>
  <path class="uuid-c178dd66-712e-46b5-aaf6-f68af47b8807" d="M1372.81,256.41v-29.75c0-.43-.05-.69-.14-.78-.09-.09-.35-.14-.78-.14h-4.75c-.43,0-.7.05-.81.16-.11.11-.16.36-.16.76v12.78c0,.8.04,1.67.12,2.61.08.94.16,1.95.25,3.02-.46-1.23-.9-2.35-1.31-3.37s-.84-1.89-1.27-2.63l-6.96-12.55c-.22-.37-.39-.59-.51-.67-.12-.08-.39-.12-.78-.12h-4.8c-.43,0-.69.05-.78.16-.09.11-.14.36-.14.76v29.75c0,.4.05.66.14.78.09.12.35.18.78.18h4.84c.43,0,.7-.05.81-.16s.16-.38.16-.81v-14.02c0-.8-.05-1.63-.14-2.49-.09-.86-.2-1.84-.32-2.95.21.62.42,1.15.6,1.61.18.46.37.9.55,1.31.18.42.39.84.62,1.27.23.43.48.91.76,1.43l7.66,13.88c.25.4.42.65.53.76.11.11.36.16.76.16h4.15c.43,0,.69-.05.78-.16.09-.11.14-.38.14-.81"/>
  <path class="uuid-c178dd66-712e-46b5-aaf6-f68af47b8807" d="M1284.25,256.37l-1.57-29.7c-.03-.4-.1-.65-.21-.76-.11-.11-.35-.16-.71-.16h-5.63c-.37,0-.6.04-.69.12-.09.08-.2.28-.32.62l-3.41,10.33c-.25.74-.48,1.54-.71,2.4-.23.86-.45,1.69-.67,2.49-.22-.95-.43-1.87-.65-2.74-.22-.88-.4-1.58-.55-2.1l-3.27-10.38c-.12-.34-.24-.55-.35-.62-.11-.08-.33-.12-.67-.12h-5.86c-.4,0-.65.05-.76.16-.11.11-.18.36-.21.76l-1.57,29.75c-.03.4,0,.66.09.78.09.12.35.18.78.18h5.21c.43,0,.71-.06.83-.18s.18-.38.18-.78l.23-13.05v-3.74c0-.74,0-1.47-.02-2.19-.02-.72-.04-1.36-.07-1.91.15.65.31,1.33.48,2.05.17.72.33,1.41.48,2.08.15.66.29,1.26.42,1.8.12.54.23.95.32,1.22l1.94,7.15c.09.4.2.64.32.71.12.08.37.12.74.12h3.46c.37,0,.6-.04.69-.12.09-.08.2-.3.32-.67l2.26-7.38c.21-.68.49-1.65.83-2.93.34-1.28.68-2.62,1.01-4.04-.03.52-.06,1.13-.09,1.82-.03.69-.06,1.38-.09,2.08-.03.69-.05,1.36-.05,2.01v1.61l.23,13.38c0,.4.06.66.18.78.12.12.4.18.83.18h5.4c.43,0,.69-.07.78-.21.09-.14.12-.41.09-.81"/>
  <path class="uuid-c178dd66-712e-46b5-aaf6-f68af47b8807" d="M1189.94,251.62c.06-.46.05-.75-.05-.88-.09-.12-.34-.18-.74-.18h-10.61v-23.89c0-.4-.06-.65-.18-.76-.12-.11-.39-.16-.78-.16h-5.81c-.43,0-.69.05-.78.16-.09.11-.14.36-.14.76v29.75c0,.43.05.7.14.81.09.11.35.16.78.16h16.33c.34,0,.58-.05.71-.14s.24-.31.3-.65l.83-4.98Z"/>
  <path class="uuid-c178dd66-712e-46b5-aaf6-f68af47b8807" d="M1101.94,254.75l-10.65-13.61,9.36-12.64c.25-.34.37-.6.37-.78s-.22-.35-.65-.51l-5.21-1.71c-.34-.12-.59-.18-.76-.16-.17.02-.35.16-.53.44l-8.67,12.73v-11.85c0-.4-.06-.65-.18-.76-.12-.11-.39-.16-.78-.16h-5.81c-.43,0-.69.05-.78.16-.09.11-.14.36-.14.76v29.75c0,.43.05.7.14.81.09.11.35.16.78.16h5.81c.4,0,.66-.05.78-.16.12-.11.18-.38.18-.81v-11.67l9.36,12.92c.25.37.43.54.55.51.12-.03.35-.09.69-.18l5.81-1.89c.71-.25.81-.69.32-1.34"/>
  <path class="uuid-c178dd66-712e-46b5-aaf6-f68af47b8807" d="M1915.75,172.69v-20.99c0-.4-.06-.65-.18-.76-.12-.11-.39-.16-.78-.16h-12.96c-.43,0-.69.05-.78.16-.09.11-.14.36-.14.76v3.78c0,.43.05.69.14.78s.35.14.78.14h6.23v17.07c0,1.35-.12,2.31-.37,2.88-.25.57-.77.85-1.57.85-.86,0-1.44-.3-1.73-.9-.29-.6-.44-1.71-.44-3.34,0-.25-.03-.43-.09-.55-.06-.12-.22-.18-.46-.18h-5.49c-.25,0-.41.09-.48.25-.08.17-.12.47-.12.9,0,.98.03,1.78.09,2.4.06.62.2,1.23.42,1.85.68,1.94,1.68,3.35,3.02,4.24,1.34.89,3.17,1.34,5.51,1.34,3.14,0,5.52-.91,7.15-2.72.83-.92,1.41-1.98,1.75-3.18.34-1.2.51-2.74.51-4.61"/>
  <path class="uuid-c178dd66-712e-46b5-aaf6-f68af47b8807" d="M1823.71,181.46v-3.74c0-.4-.05-.65-.16-.76-.11-.11-.38-.16-.81-.16h-2.08v-20.39h2.08c.43,0,.7-.05.81-.14.11-.09.16-.35.16-.78v-3.78c0-.4-.05-.65-.16-.76-.11-.11-.38-.16-.81-.16h-11.76c-.43,0-.69.05-.78.16-.09.11-.14.36-.14.76v3.78c0,.43.05.69.14.78.09.09.35.14.78.14h2.03v20.39h-2.03c-.43,0-.69.05-.78.14-.09.09-.14.35-.14.78v3.74c0,.43.05.7.14.81.09.11.35.16.78.16h11.76c.43,0,.7-.05.81-.16s.16-.38.16-.81"/>
  <path class="uuid-c178dd66-712e-46b5-aaf6-f68af47b8807" d="M1737.09,181.46v-29.75c0-.4-.05-.65-.16-.76-.11-.11-.38-.16-.81-.16h-5.72c-.43,0-.7.05-.81.16-.11.11-.16.36-.16.76v11.39h-7.24v-11.39c0-.4-.06-.65-.18-.76-.12-.11-.39-.16-.78-.16h-5.77c-.43,0-.7.05-.81.16-.11.11-.16.36-.16.76v29.75c0,.43.05.7.16.81.11.11.38.16.81.16h5.77c.4,0,.66-.05.78-.16.12-.11.18-.38.18-.81v-12.27h7.24v12.27c0,.43.05.7.16.81.11.11.38.16.81.16h5.72c.43,0,.7-.05.81-.16s.16-.38.16-.81"/>
  <path class="uuid-c178dd66-712e-46b5-aaf6-f68af47b8807" d="M1645.87,179.3v-13.16c0-.4-.05-.64-.14-.74s-.35-.14-.78-.14h-9.41c-.43,0-.7.05-.81.14-.11.09-.16.35-.16.78v4.12c0,.43.05.68.14.76.09.08.35.11.78.11h3.6v5.35c-.46.18-.94.34-1.43.46-.49.12-.95.18-1.38.18-.98,0-1.84-.24-2.56-.71-.72-.48-1.3-1.08-1.73-1.82-.52-.95-.89-2.17-1.11-3.67-.22-1.49-.32-3.01-.32-4.54,0-1.87.13-3.47.39-4.77.26-1.31.63-2.36,1.11-3.16.48-.8,1.06-1.38,1.75-1.75.69-.37,1.48-.55,2.38-.55,1.14,0,2.15.17,3.04.51.89.34,1.87.8,2.95,1.38.15.06.31.13.46.21.15.08.28,0,.37-.21l2.21-4.43c.09-.18.1-.36.02-.53-.08-.17-.19-.31-.35-.44-1.11-.89-2.47-1.56-4.08-2.01-1.61-.45-3.24-.67-4.87-.67-4.37,0-7.64,1.45-9.82,4.36-2.18,2.91-3.29,7.05-3.32,12.43-.03,5.41,1.03,9.5,3.18,12.27,2.15,2.77,5.44,4.15,9.87,4.15,1.6,0,3.14-.2,4.64-.6,1.49-.4,2.84-.97,4.04-1.7.46-.28.8-.53,1.01-.76.21-.23.32-.51.32-.85"/>
  <path class="uuid-c178dd66-712e-46b5-aaf6-f68af47b8807" d="M1554.5,151.85c.06-.37.06-.64,0-.81-.06-.17-.32-.25-.78-.25h-16.79c-.43,0-.69.05-.78.14-.09.09-.14.35-.14.78v29.75c0,.43.05.7.14.81.09.11.35.16.78.16h5.81c.4,0,.66-.05.78-.16.12-.11.18-.38.18-.81v-12.08h7.52c.4,0,.66-.05.78-.16.12-.11.18-.36.18-.76v-4.29c0-.43-.06-.7-.18-.81-.12-.11-.39-.16-.78-.16h-7.52v-6.27h8.95c.34,0,.58-.04.71-.12.14-.08.24-.3.3-.67l.83-4.29Z"/>
  <path class="uuid-c178dd66-712e-46b5-aaf6-f68af47b8807" d="M1462.59,151.8c.06-.4.07-.67.02-.81s-.28-.21-.71-.21h-16.88c-.43,0-.69.05-.78.16-.09.11-.14.36-.14.76v29.75c0,.43.05.7.14.81.09.11.35.16.78.16h16.37c.4,0,.66-.06.78-.18.12-.12.18-.38.18-.78v-4.2c0-.43-.06-.7-.18-.81-.12-.11-.39-.16-.78-.16h-9.59v-7.15h7.52c.4,0,.66-.06.78-.18.12-.12.18-.38.18-.78v-4.24c0-.43-.06-.7-.18-.81-.12-.11-.39-.16-.78-.16h-7.52v-6.04h8.95c.55,0,.89-.26,1.01-.78l.83-4.34Z"/>
  <path class="uuid-c178dd66-712e-46b5-aaf6-f68af47b8807" d="M1372.39,158.74c-.63-2.04-1.62-3.71-2.98-5-.71-.68-1.47-1.21-2.28-1.61-.82-.4-1.68-.7-2.58-.9-.91-.2-1.82-.32-2.74-.37-.92-.05-1.84-.07-2.77-.07h-7.75c-.4,0-.65.05-.76.16-.11.11-.16.36-.16.76v29.75c0,.43.05.7.14.81.09.11.35.16.78.16h8.63c1.11,0,2.14-.05,3.11-.14.97-.09,1.91-.29,2.84-.6,2.68-.89,4.59-2.63,5.74-5.21s1.73-5.97,1.73-10.15c0-3.01-.32-5.54-.95-7.59M1365.25,171.52c-.17,1.18-.5,2.18-.99,2.98-.43.65-1.01,1.11-1.73,1.38-.72.28-1.75.42-3.07.42h-1.38v-19.42h1.38c1.29,0,2.28.16,2.98.48.69.32,1.27.84,1.73,1.55.55.86.91,1.95,1.08,3.25.17,1.31.25,2.9.25,4.77s-.09,3.41-.25,4.59"/>
  <path class="uuid-c178dd66-712e-46b5-aaf6-f68af47b8807" d="M1281.2,179.47l-2.12-4.2c-.15-.28-.29-.42-.42-.42-.09,0-.25.08-.46.23-.62.43-1.29.84-2.03,1.22-.74.39-1.58.58-2.54.58-.83,0-1.58-.21-2.24-.62-.66-.42-1.23-1.08-1.71-2.01-.48-.92-.84-2.11-1.08-3.57-.25-1.46-.37-3.25-.37-5.37,0-3.2.44-5.5,1.31-6.9.88-1.4,2.02-2.1,3.44-2.1.52,0,1.02.08,1.5.23.48.15.92.35,1.34.58s.81.48,1.2.76c.38.28.76.52,1.13.74.4.25.69.15.88-.28l2.12-4.34c.15-.28.17-.5.05-.67-.12-.17-.31-.36-.55-.58-1.05-.89-2.28-1.58-3.71-2.05-1.43-.48-2.84-.71-4.22-.71-1.66,0-3.23.32-4.7.95-1.48.63-2.77,1.56-3.87,2.79-1.35,1.48-2.31,3.22-2.88,5.24-.57,2.01-.85,4.44-.85,7.26,0,5.38,1.05,9.56,3.16,12.52,2.11,2.97,5.25,4.45,9.43,4.45,1.23,0,2.45-.16,3.67-.48,1.21-.32,2.33-.79,3.34-1.41.4-.25.76-.51,1.08-.78s.36-.63.12-1.06"/>
  <path class="uuid-c178dd66-712e-46b5-aaf6-f68af47b8807" d="M1189.14,168.66c-.89-1.28-2.23-2.22-4.01-2.84,1.54-.77,2.62-1.68,3.25-2.74.63-1.06.95-2.38.95-3.94,0-1.2-.22-2.35-.67-3.46-.45-1.11-1.08-2.04-1.91-2.81-.46-.4-.93-.74-1.41-1.01s-1.05-.49-1.71-.65c-.66-.15-1.44-.26-2.33-.32-.89-.06-1.97-.09-3.23-.09h-8.3c-.43,0-.69.05-.78.16-.09.11-.14.36-.14.76v29.75c0,.43.05.7.14.81.09.11.35.16.78.16h8.72c.83,0,1.52,0,2.08-.02.55-.01,1.04-.04,1.45-.07.42-.03.8-.08,1.15-.16.35-.08.74-.16,1.18-.25.89-.21,1.71-.6,2.47-1.15.75-.55,1.4-1.22,1.94-2.01.54-.78.96-1.65,1.27-2.61.31-.95.46-1.94.46-2.95,0-1.75-.45-3.27-1.34-4.54M1178.39,163.61h-2.26v-7.33h2.08c1.48,0,2.49.28,3.04.85.55.57.83,1.47.83,2.7,0,2.52-1.23,3.78-3.69,3.78M1182,175.65c-.7.58-1.97.88-3.83.88h-2.04v-7.52h1.86c1.98,0,3.32.31,4.02.92.7.62,1.04,1.58,1.04,2.91s-.35,2.23-1.04,2.81"/>
  <path class="uuid-c178dd66-712e-46b5-aaf6-f68af47b8807" d="M1101.82,181.32l-9.41-29.75c-.12-.37-.23-.59-.32-.67-.09-.08-.32-.12-.69-.12h-5.86c-.37,0-.6.05-.69.14-.09.09-.2.31-.32.65l-9.41,29.84c-.09.28-.13.52-.12.71.02.2.3.3.85.3h6c.37,0,.61-.04.71-.12.11-.08.21-.3.3-.67l1.89-7.1h6.92l1.89,7.1c.09.37.19.59.3.67.11.08.35.12.71.12h6.46c.46,0,.74-.08.83-.25.09-.17.08-.45-.05-.85M1090.43,169.28h-4.84l1.52-6.64c.18-.83.36-1.72.53-2.68.17-.95.33-1.97.48-3.04.18,1.17.34,2.21.46,3.11.12.91.28,1.78.46,2.61l1.38,6.64Z"/>
  <path class="uuid-f73a777f-7349-4cd8-85a0-4a8a20d90d79" d="M1647.65,23.78c0,.65-.05,1.2-.18,1.75-.74,3.04-3.23,4.84-5.95,4.84-4.38,0-6.6-3.74-6.6-8.26,0-4.94,2.49-8.63,6.69-8.63,3.05,0,5.26,2.12,5.86,4.7.14.51.18,1.2.18,1.71v3.87ZM1647.65.39v13.33h-.09c-1.01-1.8-3.32-3.41-6.73-3.41-5.44,0-10.06,4.57-10.01,11.99,0,6.78,4.15,11.35,9.55,11.35,3.64,0,6.37-1.89,7.61-4.38h.09l.18,3.87h3.64c-.14-1.52-.18-3.78-.18-5.77V.39h-4.06ZM1621.54,33.14h4.06V.39h-4.06v32.75ZM1605.58,13.35c4.8,0,6.69,4.8,6.69,8.58,0,5.03-2.91,8.67-6.78,8.67s-6.78-3.69-6.78-8.58c0-4.24,2.08-8.67,6.87-8.67M1605.67,10.31c-6.18,0-11.07,4.38-11.07,11.85,0,7.06,4.66,11.49,10.7,11.49,5.4,0,11.12-3.6,11.12-11.85,0-6.83-4.34-11.49-10.75-11.49M1573.99,20.18c0-.65.14-1.2.23-1.66.83-3.09,3.41-4.98,6.18-4.98,4.34,0,6.64,3.83,6.64,8.3,0,5.12-2.54,8.58-6.78,8.58-2.95,0-5.3-1.94-6.09-4.75-.09-.46-.18-.97-.18-1.48v-4.01ZM1573.29,33.14l.18-3.69h.14c1.66,2.95,4.24,4.2,7.47,4.2,4.98,0,10.01-3.97,10.01-11.95.05-6.78-3.87-11.39-9.41-11.39-3.6,0-6.18,1.61-7.61,4.11h-.09V.39h-4.01v26.98c0,1.98-.09,4.24-.18,5.77h3.51ZM1545.85,5.47v5.35h-3.46v3.09h3.46v12.18c0,2.63.42,4.61,1.57,5.81.97,1.11,2.49,1.71,4.38,1.71,1.57,0,2.81-.23,3.6-.55l-.18-3.04c-.51.14-1.29.28-2.35.28-2.26,0-3.04-1.57-3.04-4.34v-12.04h5.81v-3.09h-5.81v-6.41l-3.97,1.06ZM1535.38,33.14V13.91h5.4v-3.09h-5.4v-1.2c0-3.41.88-6.46,4.34-6.46,1.15,0,1.98.23,2.58.51l.55-3.14c-.78-.32-2.03-.65-3.46-.65-1.89,0-3.92.6-5.44,2.08-1.89,1.8-2.58,4.66-2.58,7.8v1.06h-3.14v3.09h3.14v19.23h4.01ZM1522.19,2.01c-1.48,0-2.54,1.11-2.54,2.54s1.01,2.49,2.44,2.49c1.61,0,2.63-1.11,2.58-2.49,0-1.43-.97-2.54-2.49-2.54M1524.22,10.82h-4.06v22.32h4.06V10.82ZM1504.89,33.14h4.01v-11.9c0-.69.09-1.34.18-1.89.55-3.04,2.58-5.21,5.44-5.21.55,0,.97.05,1.38.14v-3.83c-.37-.09-.69-.14-1.15-.14-2.72,0-5.17,1.89-6.18,4.89h-.18l-.14-4.38h-3.55c.14,2.08.18,4.34.18,6.97v15.36ZM1479.29,33.14h4.06v-13.47c0-.78.05-1.38.28-1.94.74-2.21,2.81-4.06,5.44-4.06,3.83,0,5.17,3.04,5.17,6.64v12.82h4.06v-13.28c0-7.7-4.8-9.55-7.8-9.55-1.52,0-2.95.46-4.15,1.15-1.25.69-2.26,1.71-2.91,2.86h-.09V.39h-4.06v32.75ZM1473.85,29.27c-1.15.51-2.68,1.11-4.98,1.11-4.43,0-7.75-3.18-7.75-8.35,0-4.66,2.77-8.44,7.89-8.44,2.21,0,3.74.51,4.7,1.06l.92-3.14c-1.11-.55-3.23-1.15-5.63-1.15-7.29,0-11.99,4.98-11.99,11.85s4.38,11.39,11.12,11.39c3,0,5.35-.74,6.41-1.29l-.69-3.04ZM1438.79,32.08c1.57.92,3.83,1.52,6.27,1.52,5.3,0,8.35-2.77,8.35-6.69,0-3.32-1.98-5.26-5.86-6.73-2.91-1.11-4.24-1.94-4.24-3.78,0-1.66,1.34-3.04,3.74-3.04,2.08,0,3.69.74,4.57,1.29l1.01-2.95c-1.25-.74-3.23-1.38-5.49-1.38-4.8,0-7.7,2.95-7.7,6.55,0,2.68,1.89,4.89,5.9,6.32,3,1.11,4.15,2.17,4.15,4.11s-1.38,3.32-4.34,3.32c-2.03,0-4.15-.83-5.35-1.61l-1.01,3.09ZM1420.53,32.08c1.57.92,3.83,1.52,6.27,1.52,5.3,0,8.35-2.77,8.35-6.69,0-3.32-1.98-5.26-5.86-6.73-2.91-1.11-4.24-1.94-4.24-3.78,0-1.66,1.34-3.04,3.74-3.04,2.08,0,3.69.74,4.57,1.29l1.01-2.95c-1.25-.74-3.23-1.38-5.49-1.38-4.8,0-7.7,2.95-7.7,6.55,0,2.68,1.89,4.89,5.9,6.32,3,1.11,4.15,2.17,4.15,4.11s-1.38,3.32-4.34,3.32c-2.03,0-4.15-.83-5.35-1.61l-1.01,3.09ZM1415.36,10.82h-4.06v13.7c0,.74-.14,1.48-.37,2.08-.74,1.8-2.63,3.69-5.35,3.69-3.69,0-4.98-2.86-4.98-7.1v-12.36h-4.06v13.05c0,7.84,4.2,9.78,7.7,9.78,3.97,0,6.32-2.35,7.38-4.15h.09l.23,3.64h3.6c-.14-1.75-.18-3.78-.18-6.09V10.82ZM1386.21,25.62c0,.42-.09.88-.23,1.29-.65,1.89-2.49,3.74-5.4,3.74-2.08,0-3.83-1.25-3.83-3.87,0-4.34,5.03-5.12,9.46-5.03v3.87ZM1390.5,33.14c-.28-1.52-.37-3.41-.37-5.35v-8.35c0-4.47-1.66-9.13-8.49-9.13-2.81,0-5.49.78-7.33,1.98l.92,2.68c1.57-1.01,3.74-1.66,5.81-1.66,4.57,0,5.07,3.32,5.07,5.17v.46c-8.63-.05-13.42,2.91-13.42,8.3,0,3.23,2.31,6.41,6.83,6.41,3.18,0,5.58-1.57,6.83-3.32h.14l.32,2.81h3.69ZM1344.51,2.05v31.09h4.01v-14.58h15.04v14.58h4.06V2.05h-4.06v13.01h-15.04V2.05h-4.01Z"/>
  <path class="uuid-c178dd66-712e-46b5-aaf6-f68af47b8807" d="M836.72,617.14c0,3.83-.46,7.1-1.38,9.32-.83,2.08-2.26,3.09-4.38,3.09-1.85,0-3.18-.88-4.06-2.68-1.11-2.26-1.66-5.54-1.66-9.5,0-7.7,2.17-12.22,5.86-12.22s5.63,4.01,5.63,11.99M840.45,617.05c0-9.78-3.23-15.18-9.09-15.18-6.23,0-9.87,5.86-9.87,15.77,0,5.26,1.01,9.18,3.18,12.13,1.52,2.08,3.51,3.04,6.23,3.04,6.18,0,9.55-5.54,9.55-15.77"/>
  <path class="uuid-c178dd66-712e-46b5-aaf6-f68af47b8807" d="M744.56,612.25c0,4.8-1.8,7.43-5.07,7.43s-4.98-2.72-4.98-7.29,1.98-7.24,5.12-7.24,4.94,2.49,4.94,7.1M748.29,614.51c0-8.39-2.86-12.64-8.53-12.64-5.35,0-8.99,4.34-8.99,10.7s3.14,10.24,7.8,10.24c2.63,0,4.52-1.11,6-3.55-1.11,7.33-3.64,10.42-8.49,10.42-1.01,0-1.98-.14-2.81-.37-.14-.05-.28-.09-.37-.09-.23,0-.37.14-.37.37l-.23,1.8v.32c0,.65,1.84,1.11,4.38,1.11,7.24,0,11.62-6.92,11.62-18.31"/>
  <path class="uuid-c178dd66-712e-46b5-aaf6-f68af47b8807" d="M654.66,624.7c0,2.95-2.4,5.07-5.81,5.07-3.6,0-6-2.03-6-5.07,0-1.98,1.11-3.97,2.86-5.03.78-.46,1.34-.74,2.95-1.43,4.24,1.75,6,3.64,6,6.46M653.6,609.25c0,2.54-1.38,4.24-4.7,5.72-3.37-1.66-4.89-3.46-4.89-5.81,0-2.58,1.89-4.34,4.7-4.34,3,0,4.89,1.71,4.89,4.43M658.44,624.47c0-3.6-2.26-6.41-6.55-8.07,3.64-1.85,5.21-4.11,5.21-7.52,0-4.15-3.37-7.01-8.26-7.01-2.81,0-4.75.74-6.37,2.31-1.38,1.38-2.12,3.18-2.12,5.12,0,3.32,1.75,5.63,5.44,7.15-2.03.78-3.09,1.34-4.11,2.21-1.66,1.43-2.63,3.6-2.63,5.86,0,5.03,3.83,8.3,9.69,8.3,3.41,0,5.77-.97,7.61-3.09,1.38-1.52,2.08-3.37,2.08-5.26"/>
  <path class="uuid-c178dd66-712e-46b5-aaf6-f68af47b8807" d="M555.12,632.13l10.65-27.95v-1.06c0-.55-.09-.65-.65-.65h-15.59c-.55,0-.65.09-.65.65v2.03c0,.55.09.65.65.65h11.9l-9.96,25.6c-.14.28-.14.32-.14.42,0,.23.18.32.55.42l2.49.32.28.05c.23,0,.32-.14.46-.46"/>
  <path class="uuid-c178dd66-712e-46b5-aaf6-f68af47b8807" d="M471.68,621.89c0,4.94-1.85,7.66-5.12,7.66s-5.07-2.77-5.07-7.75c0-4.24,1.85-6.64,5.03-6.64,3.37,0,5.17,2.35,5.17,6.73M475.41,621.84c0-5.95-3.04-9.87-7.75-9.87-2.35,0-3.97.83-5.86,3,.42-3,1.06-4.89,2.44-6.83,1.61-2.26,3.51-3.27,6.04-3.27,1.01,0,1.98.18,2.91.51.14.05.28.09.37.09.14,0,.23-.09.28-.23l.55-2.12q.05-.18.05-.28c0-.46-2.03-.97-3.97-.97-7.75,0-12.73,7.15-12.73,18.31,0,3.64.55,6.18,1.75,8.39,1.48,2.68,4.06,4.24,7.01,4.24,5.26,0,8.9-4.52,8.9-10.98"/>
  <path class="uuid-c178dd66-712e-46b5-aaf6-f68af47b8807" d="M383.9,622.12c0-5.4-3.18-9.04-7.84-9.04-2.03,0-3.6.55-5.54,1.98l1.01-9.36h9.64c.55,0,.65-.09.65-.65v-1.94c0-.55-.09-.65-.65-.65h-11.99c-.51,0-.6.09-.65.6l-1.43,14.81c-.05.14-.05.23-.05.28,0,.23.09.32.51.46l1.61.51.37.05c.14,0,.28-.09.46-.28,1.71-1.71,3.46-2.54,5.35-2.54,3,0,4.8,2.17,4.8,5.86,0,2.12-.65,4.11-1.75,5.4-1.06,1.29-2.91,1.94-5.49,1.94-1.71,0-3.18-.23-4.52-.74-.18-.05-.37-.09-.46-.09-.23,0-.37.14-.42.32l-.46,2.08c-.05.09-.05.28-.05.37,0,.28.18.46.65.6,1.8.46,3.87.74,5.77.74,6.32,0,10.47-4.24,10.47-10.7"/>
  <path class="uuid-c178dd66-712e-46b5-aaf6-f68af47b8807" d="M286.71,622.63h-8.81l11.76-19.19c.14-.18.18-.32.18-.42,0-.23-.14-.37-.55-.42l-2.31-.37h-.28c-.18,0-.32.09-.51.37l-11.95,19.79v2.58c0,.55.09.65.65.65h11.81v6.55c0,.55.09.65.65.65h2.17c.55,0,.65-.09.65-.65v-6.55h3.64c.55,0,.65-.09.65-.65v-1.71c0-.55-.09-.65-.65-.65h-3.64v-7.38c0-.55-.09-.65-.65-.65h-1.66c-.51,0-.6.09-.65.6l-.51,7.43Z"/>
  <path class="uuid-c178dd66-712e-46b5-aaf6-f68af47b8807" d="M201.66,623.92c0-2.63-1.06-5.03-2.81-6.37-.78-.65-1.48-.97-2.95-1.43,3.18-1.25,4.75-3.51,4.75-6.78,0-4.43-3.23-7.47-7.89-7.47-2.08,0-3.92.6-5.58,1.8-1.2.88-2.26,1.98-2.26,2.4,0,.05.05.14.18.23l1.66,1.48s.23.09.32.09q.18,0,1.01-.83c1.38-1.38,2.95-2.12,4.52-2.12,2.72,0,4.47,1.8,4.47,4.52,0,3.37-2.31,5.54-5.95,5.54h-1.52c-.55,0-.65.09-.65.65v1.85c0,.55.05.65.65.65h1.57c4.43,0,6.73,1.94,6.73,5.67s-2.21,5.77-6.09,5.77c-2.03,0-3.64-.37-5.9-1.38-.09-.05-.18-.09-.23-.09-.14,0-.32.14-.42.28l-.88,2.08q-.14.23-.14.37c0,.83,4.38,2.03,7.52,2.03,5.95,0,9.87-3.55,9.87-8.9"/>
  <path class="uuid-c178dd66-712e-46b5-aaf6-f68af47b8807" d="M109.82,628.81h-11.95c.51-4.2,2.35-6.69,7.15-10.01,4.15-2.91,5.44-5.07,5.44-8.58,0-5.12-3.09-8.35-8.03-8.35-2.86,0-5.17,1.11-6.73,3.18-.88,1.11-1.85,3.23-1.85,3.97,0,.18.14.32.37.42l2.03.6c.23.09.28.09.37.09.18,0,.28-.09.37-.37,1.2-3.32,2.68-4.61,5.21-4.61,2.77,0,4.52,1.89,4.52,4.89,0,2.77-1.57,4.52-5.07,6.83-5.63,3.69-7.84,8.07-7.84,14.67,0,.55.09.65.55.65h15.45c.55,0,.65-.09.65-.65v-2.08c0-.55-.09-.65-.65-.65"/>
  <path class="uuid-c178dd66-712e-46b5-aaf6-f68af47b8807" d="M10.97,606.57v22.56h-4.7c-.55,0-.65.09-.65.65v1.75c0,.55.09.65.65.65h12.22c.55,0,.65-.09.65-.65v-1.75c0-.55-.09-.65-.65-.65h-4.01v-26.01c0-.55-.09-.65-.65-.65h-2.31l-8.16,5.77c-.28.14-.37.28-.37.37,0,.14.05.32.14.46l.55,1.01c.14.32.23.42.37.42.09,0,.28-.05.46-.18l6.46-3.74Z"/>
  <path class="uuid-c178dd66-712e-46b5-aaf6-f68af47b8807" d="M834.22,554.59c0-1.75-1.48-3.23-3.18-3.23-1.84,0-3.32,1.43-3.32,3.23s1.43,3.27,3.27,3.27,3.23-1.48,3.23-3.27"/>
  <path class="uuid-c178dd66-712e-46b5-aaf6-f68af47b8807" d="M741.6,554.59c0-1.75-1.48-3.23-3.18-3.23-1.84,0-3.32,1.43-3.32,3.23s1.43,3.27,3.23,3.27,3.27-1.48,3.27-3.27M746.86,532.36c0-4.52-3-7.2-8.07-7.2-3,0-6.96,1.11-6.96,1.98q0,.09.09.32l.65,1.75c.09.23.23.37.42.37.14,0,.28-.05.42-.09,1.8-.78,3.51-1.15,5.03-1.15,3.09,0,4.8,1.48,4.8,4.11,0,1.66-.74,3.09-1.94,3.83-.88.55-1.94.92-3.83,1.48-.65.18-.78.37-.78.92v5.67c0,.55.09.65.65.65h1.85c.55,0,.65-.09.65-.65v-4.15c4.8-1.29,7.06-3.78,7.06-7.84"/>
  <path class="uuid-c178dd66-712e-46b5-aaf6-f68af47b8807" d="M652.01,554.59c0-1.75-1.48-3.23-3.18-3.23-1.85,0-3.32,1.43-3.32,3.23s1.43,3.27,3.27,3.27,3.23-1.48,3.23-3.27M650.02,544.4l1.01-18.17v-.14c0-.42-.14-.51-.65-.51h-3.41c-.51,0-.65.09-.65.46v.18l1.06,18.17c.05.51.14.6.65.6h1.34c.55,0,.6-.09.65-.6"/>
  <path class="uuid-c178dd66-712e-46b5-aaf6-f68af47b8807" d="M554.08,542.55l8.3,9.55c-2.08,1.85-4.01,2.63-6.37,2.63-3.69,0-6.04-2.17-6.04-5.63,0-2.54.92-4.01,4.11-6.55M559.98,532.22c0,2.35-1.25,4.11-4.66,6.5-2.63-2.91-3.6-4.66-3.6-6.55,0-2.35,1.84-4.11,4.24-4.11s4.01,1.66,4.01,4.15M570.18,555.7c0-.09-.05-.18-.14-.28l-3.18-3.64c1.71-2.31,2.68-5.26,2.68-8.12,0-.6-.14-.78-.55-.78h-2.26c-.42,0-.55.14-.55.55v.55c0,1.98-.51,3.92-1.38,5.4l-7.66-8.63c4.43-2.91,6.27-5.49,6.27-8.86,0-4.06-2.77-6.78-6.96-6.78-4.75,0-8.16,3.14-8.16,7.47,0,2.4,1.06,4.57,4.01,7.98-1.38.97-1.8,1.29-2.49,1.8-2.4,1.85-3.6,4.15-3.6,6.96,0,5.03,3.78,8.35,9.5,8.35,3.32,0,5.63-.88,8.63-3.32l2.77,3.18c.18.18.37.28.51.28.09,0,.32-.09.46-.18l1.85-1.52c.18-.14.28-.28.28-.42"/>
  <path class="uuid-c178dd66-712e-46b5-aaf6-f68af47b8807" d="M475.16,554.5c0-.23-.09-.28-.51-.28h-11.49l11.49-16.7v-1.94c0-.42-.09-.51-.51-.51h-14.02c-.46,0-.51.05-.51.51v1.89c0,.46.05.51.51.51h10.19l-11.67,16.84v1.85c0,.51.05.55.55.55h14.39c.28,0,.51-.14.6-.42l.88-1.94q.09-.23.09-.37"/>
  <path class="uuid-c178dd66-712e-46b5-aaf6-f68af47b8807" d="M385.05,535.96c0-.18-.09-.28-.42-.37l-2.4-.88-.23-.05c-.18,0-.37.18-.46.37l-4.52,17.62c-.28,1.01-.51,1.94-.78,3.23-.51-2.03-.51-2.08-.92-3.32l-5.9-17.44c-.09-.32-.18-.42-.32-.42l-.37.05-2.49.88c-.32.09-.42.23-.42.37s0,.14.09.32l7.24,20.48c.14.37.18.42.55.42h1.85l-.97,2.91c-.88,2.68-2.03,3.97-3.55,3.97-1.11,0-2.54-.6-4.06-1.66-.14-.09-.28-.14-.32-.14-.09,0-.28.09-.32.23l-.92,1.84s-.09.23-.09.28c0,.92,3.6,2.35,5.81,2.35,2.49,0,4.38-1.29,5.58-3.78.74-1.61,2.03-5.4,3.04-8.86l5.26-18.13q.05-.18.05-.28"/>
  <path class="uuid-c178dd66-712e-46b5-aaf6-f68af47b8807" d="M293.89,556.44q0-.14-.18-.37l-7.24-10.56,6.83-9.13c.14-.14.18-.32.18-.42,0-.14-.14-.23-.37-.32l-2.26-.92q-.18-.09-.28-.09c-.18,0-.32.09-.46.28l-4.2,6.13c-.69,1.01-.69,1.06-1.38,2.17-.37-.6-.37-.65-.51-.83-.18-.28-.46-.69-.83-1.29l-4.01-6.23c-.14-.18-.28-.28-.42-.28-.09,0-.23,0-.28.05l-2.4.88c-.23.09-.37.23-.37.42,0,.09.05.23.14.32l6.73,9.69-7.56,10.06q-.18.18-.18.32c0,.18.09.28.37.37l2.4,1.01.32.05c.14,0,.28-.09.37-.28l5.07-7.29q.65-.92,1.11-1.75l.28.46.46.74c.14.23.28.46.42.65l4.7,7.2c.18.28.23.32.37.32q.09,0,.32-.09l2.44-.92c.32-.14.42-.18.42-.32"/>
  <path class="uuid-c178dd66-712e-46b5-aaf6-f68af47b8807" d="M206.85,535.59c0-.18-.14-.28-.46-.37l-2.12-.51-.28-.05c-.18,0-.28.14-.37.42l-3.92,15.87-.23,1.15-.14.65-.09-.51-.09-.74-.14-.55-3.78-15.54q-.09-.42-.55-.42h-1.85c-.42,0-.46.05-.55.42l-4.38,14.94c-.51,1.71-.42,1.75-.6,2.54-.23-1.29-.23-1.43-.32-1.8l-.14-.74-3.14-15.27c-.05-.32-.18-.46-.37-.46q-.09,0-.28.05l-2.35.6c-.32.05-.42.14-.42.37q0,.09.05.28l5.3,21.17c.09.42.14.46.55.46h1.71c.42,0,.46-.05.6-.42l4.34-14.07c.37-1.15.55-2.31.69-3.6l.14.97.09.69c.14.88.23,1.48.37,1.98l3.64,13.98c.09.42.18.46.55.46h1.8q.42,0,.55-.46l6.09-21.17.05-.14s.05-.14.05-.18"/>
  <path class="uuid-c178dd66-712e-46b5-aaf6-f68af47b8807" d="M111.85,535.63c0-.18-.09-.28-.42-.37l-2.4-.65-.28-.05c-.18,0-.28.09-.37.42l-5.49,15.18c-.42,1.2-.55,1.57-.88,2.86l-.23-.83-.32-1.11c-.09-.32-.18-.65-.32-.97l-4.94-15.08c-.09-.28-.23-.42-.37-.42h-.14l-.14.05-2.58.55c-.37.09-.46.14-.46.37q0,.09.09.28l7.8,21.26c.14.37.18.42.6.42h1.75c.42,0,.46-.05.6-.42l8.39-21.17q.09-.18.09-.32"/>
  <path class="uuid-c178dd66-712e-46b5-aaf6-f68af47b8807" d="M20.34,556.16c0-.09-.05-.18-.14-.32-.92-1.34-1.2-2.35-1.2-4.75v-16.1c0-.37-.09-.51-.32-.51q-.09,0-.28.05l-2.44.65c-.28.09-.46.28-.46.6v16.61c-1.75,1.48-3.92,2.35-5.81,2.35-2.49,0-3.32-1.29-3.32-5.35v-14.39c0-.37-.09-.51-.32-.51q-.09,0-.28.05l-2.4.65c-.28.09-.46.28-.46.6v15.91c0,4.06,2.21,6.18,6.32,6.18,2.44,0,4.29-.74,6.92-2.77.46,1.48,1.25,2.77,1.61,2.77.09,0,.18-.05.32-.14l2.08-1.34c.09-.09.18-.18.18-.23"/>
  <path class="uuid-c178dd66-712e-46b5-aaf6-f68af47b8807" d="M839.09,480.88s0-.05-.09-.23l-.51-1.89c-.05-.18-.18-.28-.32-.28-.09,0-.23.05-.32.09-2.03.88-3,1.15-4.15,1.15-1.06,0-1.85-.32-2.31-.92-.42-.55-.46-.97-.46-2.81v-13.01h6.13c.37,0,.55-.14.65-.46l.51-1.8q.05-.18.05-.28c0-.23-.14-.32-.42-.32h-6.92v-7.1c0-.46-.05-.55-.32-.55t-.28.09l-2.4.65c-.28.09-.46.32-.46.6v6.32h-3.27c-.46,0-.55.09-.55.55v1.8c0,.46.05.51.55.51h3.27v13.01c0,2.4.14,3.23.6,4.15.83,1.61,2.72,2.58,5.03,2.58s6-1.11,6-1.85"/>
  <path class="uuid-c178dd66-712e-46b5-aaf6-f68af47b8807" d="M746.93,476.36c0-2.77-1.2-4.29-4.61-5.95q-4.2-2.03-4.84-2.63c-.6-.55-.92-1.38-.92-2.26,0-1.94,1.29-3.09,3.51-3.09,1.25,0,2.58.37,4.34,1.2.18.05.28.09.37.09.14,0,.32-.14.42-.28l.83-1.71q.09-.23.09-.32c0-.78-3.55-1.94-5.95-1.94-4.11,0-7.01,2.68-7.01,6.41,0,1.8.69,3.23,2.12,4.38,1.11.92,2.08,1.43,5.17,2.86,2.17,1.01,2.95,1.94,2.95,3.51,0,1.98-1.48,3.32-3.69,3.32-1.57,0-3.6-.55-5.63-1.57-.14-.05-.28-.09-.37-.09s-.23.09-.28.18l-.88,2.03q-.05.09-.05.18c0,.18.05.28.28.42,1.89,1.11,4.52,1.8,6.83,1.8,4.38,0,7.33-2.63,7.33-6.55"/>
  <path class="uuid-c178dd66-712e-46b5-aaf6-f68af47b8807" d="M656.43,460.22c0-.32-1.25-.74-2.31-.74-1.94,0-2.81.55-5.72,3.83-.32-1.89-1.2-3.83-1.75-3.83-.14,0-.23.05-.37.14l-1.94,1.2c-.14.09-.23.23-.23.42,0,.09.05.23.18.46.97,1.75,1.11,2.54,1.11,6.18v13.84c0,.46.09.55.51.55h2.44c.42,0,.51-.09.51-.55v-15.27c2.35-2.72,3.37-3.51,4.57-3.51.28,0,.55.05.78.09l.78.23c.09,0,.18-.05.23-.14l1.11-2.58c.05-.09.09-.23.09-.32"/>
  <path class="uuid-c178dd66-712e-46b5-aaf6-f68af47b8807" d="M561.62,464.32v12.82c-2.08,1.85-3.6,2.63-5.17,2.63-1.11,0-2.4-.74-3-1.75-.83-1.43-1.25-3.74-1.25-6.92,0-5.63,1.57-8.53,4.57-8.53,1.52,0,2.95.51,4.84,1.75M566.42,461c0-.09-.09-.28-.23-.37l-1.94-1.15c-.09-.05-.18-.09-.23-.09-.37,0-1.01,1.01-1.43,2.31-2.31-1.66-3.83-2.21-6.09-2.21-5.03,0-8.03,4.47-8.03,12.04,0,7.01,2.72,11.39,7.06,11.39,2.21,0,4.06-.83,6.09-2.72v11.53c0,.37.09.51.32.51.05,0,.14,0,.28-.05l2.49-.74c.28-.09.42-.32.42-.74v-24.45c0-1.66.32-3,1.01-4.57.28-.55.28-.6.28-.69"/>
  <path class="uuid-c178dd66-712e-46b5-aaf6-f68af47b8807" d="M472,470.83c0,6.46-1.2,8.95-4.34,8.95-1.61,0-2.86-.46-5.03-1.94v-13.01c2.49-1.71,3.78-2.26,5.35-2.26,1.48,0,2.77.92,3.32,2.4.46,1.34.69,3.09.69,5.86M475.74,470.73c0-3.23-.51-6.04-1.52-8.07-1.01-2.08-2.95-3.18-5.58-3.18-2.31,0-4.06.69-6.64,2.68-.51-1.43-1.34-2.77-1.71-2.77-.14,0-.28.05-.37.14l-1.98,1.38c-.09.05-.14.14-.14.23,0,.14.09.28.46.88.78,1.25.92,2.17.92,4.47v25.05c0,.37.09.51.32.51.05,0,.14,0,.28-.05l2.44-.65c.28-.09.42-.28.42-.6v-9.87c2.08,1.48,3.55,2.03,5.44,2.03,4.75,0,7.66-4.61,7.66-12.18"/>
  <path class="uuid-c178dd66-712e-46b5-aaf6-f68af47b8807" d="M380.9,471.01c0,2.95-.55,5.58-1.48,7.06-.74,1.2-2.26,1.94-3.92,1.94s-3.32-.78-4.06-2.03c-.92-1.52-1.43-4.2-1.43-7.15,0-5.49,1.89-8.44,5.4-8.44s5.49,2.95,5.49,8.63M384.64,471.06c0-7.24-3.32-11.58-8.9-11.58-5.95,0-9.46,4.34-9.46,11.81s3.27,11.62,8.9,11.62c5.95,0,9.46-4.38,9.46-11.85"/>
  <path class="uuid-c178dd66-712e-46b5-aaf6-f68af47b8807" d="M279.91,481.71v-16.33c2.31-2.12,3.97-2.91,6.09-2.91s3.04,1.11,3.04,3.83v15.41c0,.46.09.55.51.55h2.44c.42,0,.51-.09.51-.55v-15.36c0-2.63-.14-3.55-.78-4.66-.83-1.43-2.54-2.21-4.7-2.21-2.54,0-4.61.88-7.43,3.14-.32-1.75-.97-3.04-1.43-3.04-.09,0-.18.05-.37.14l-2.08,1.2c-.14.05-.23.18-.23.28,0,.05.05.18.09.28.69,1.52.88,2.31.88,4.43v15.82c0,.46.09.55.51.55h2.44c.42,0,.51-.09.51-.55"/>
  <path class="uuid-c178dd66-712e-46b5-aaf6-f68af47b8807" d="M184.04,481.71v-17.25c1.89-1.48,3.09-1.98,4.61-1.98,1.98,0,2.95,1.15,2.95,3.41v15.82c0,.46.09.55.51.55h2.4c.42,0,.51-.09.51-.55v-17.39c2.12-1.43,3.18-1.85,4.7-1.85,2.03,0,2.95,1.06,2.95,3.37v15.87c0,.46.09.55.55.55h2.35c.46,0,.55-.09.55-.55v-15.73c0-2.21-.23-3.46-.83-4.47-.74-1.25-2.31-2.03-4.2-2.03-2.12,0-4.01.78-6.73,2.72-.78-1.84-2.17-2.72-4.38-2.72s-3.92.74-6.46,2.72c-.37-1.52-.97-2.63-1.34-2.63-.09,0-.28.05-.42.14l-1.85,1.06c-.14.05-.23.18-.23.28s0,.18.05.23c.69,1.61.83,2.17.83,3.87v16.56c0,.46.09.55.55.55h2.35c.46,0,.55-.09.55-.55"/>
  <path class="uuid-c178dd66-712e-46b5-aaf6-f68af47b8807" d="M108.35,481.62q0-.09-.09-.37l-.55-1.71c-.09-.18-.18-.32-.32-.32-.09,0-.23.05-.37.09-.74.37-1.43.55-2.08.55-1.01,0-1.75-.65-1.89-1.75-.09-.55-.09-2.03-.09-4.24v-24.49c0-.42-.05-.51-.28-.51-.05,0-.28,0-.32.05l-2.35.55c-.32.05-.51.32-.51.55v23.8c0,4.66,0,4.7.23,5.67.42,1.98,2.21,3.23,4.7,3.23,1.71,0,3.92-.65,3.92-1.11"/>
  <path class="uuid-c178dd66-712e-46b5-aaf6-f68af47b8807" d="M20.62,480.61c0-.14-.05-.28-.14-.37l-8.26-9.92,7.89-8.58c.14-.14.23-.32.23-.42,0-.14-.09-.28-.23-.42l-1.75-1.15c-.23-.18-.28-.18-.42-.18s-.32.09-.46.28l-9.27,10.42v-20.89c0-.37-.09-.51-.28-.51l-.32.05-2.4.55c-.28.09-.46.28-.46.6v31.64c0,.46.09.55.51.55h2.44c.42,0,.51-.09.51-.55v-10.84l9.64,11.53c.14.14.18.18.28.18q.14,0,.37-.18l1.89-1.43c.14-.14.23-.23.23-.37"/>
  <path class="uuid-c178dd66-712e-46b5-aaf6-f68af47b8807" d="M825.85,388.03h3.69v20.94c0,2.81,0,5.03-3.04,5.03-1.2,0-2.81-.42-4.15-1.11-.14-.05-.23-.09-.32-.09-.14,0-.32.14-.37.28l-.88,1.85c-.09.23-.09.28-.09.37,0,.74,3.41,1.8,5.67,1.8,4.43,0,6.64-2.72,6.64-7.8v-23.57c0-.46-.09-.55-.51-.55h-6.64c-.46,0-.51.09-.51.55v1.8c0,.46.05.51.51.51M833.74,376.96c0-1.48-1.25-2.77-2.72-2.77-1.61,0-2.86,1.25-2.86,2.77s1.25,2.81,2.81,2.81,2.77-1.25,2.77-2.81"/>
  <path class="uuid-c178dd66-712e-46b5-aaf6-f68af47b8807" d="M741.95,406.76v-21.03c0-.46-.09-.55-.51-.55h-6.64c-.46,0-.55.09-.55.55v1.8c0,.42.09.51.55.51h3.69v18.73c0,.46.09.55.51.55h2.44c.42,0,.51-.09.51-.55M742.64,376.96c0-1.52-1.25-2.77-2.72-2.77-1.61,0-2.86,1.25-2.86,2.77s1.25,2.81,2.81,2.81,2.77-1.25,2.77-2.81"/>
  <path class="uuid-c178dd66-712e-46b5-aaf6-f68af47b8807" d="M644.16,406.76v-16.33c2.58-2.12,4.24-2.91,6.09-2.91,2.4,0,3.18.97,3.18,3.87v15.36c0,.46.09.55.51.55h2.44c.42,0,.51-.09.51-.55v-15.27c0-2.91-.28-4.01-1.15-5.17-.92-1.2-2.44-1.8-4.43-1.8-2.77,0-4.66.78-7.15,3.04v-13.15c0-.37-.09-.51-.28-.51-.05,0-.28,0-.32.05l-2.4.55c-.28.09-.46.28-.46.6v31.64c0,.46.09.55.51.55h2.44c.42,0,.51-.09.51-.55"/>
  <path class="uuid-c178dd66-712e-46b5-aaf6-f68af47b8807" d="M561.85,388.86v12.45c-2.31,1.66-3.78,2.26-5.49,2.26-2.91,0-4.11-2.35-4.11-7.98,0-5.21,1.84-8.03,5.26-8.03,1.34,0,2.49.37,4.34,1.29M566.74,386c0-.14-.05-.23-.14-.28l-2.12-1.29c-.09-.05-.28-.09-.37-.09-.28,0-.78.83-1.29,2.12-2.03-1.43-3.51-1.94-5.58-1.94-5.58,0-8.72,4.29-8.72,11.95,0,6.32,2.72,10.24,7.15,10.24,2.26,0,4.29-.78,6.41-2.54v.51l.05,1.89c0,.78.05,1.57.05,2.35,0,1.75-.18,2.63-.69,3.37-.74,1.01-2.35,1.66-4.2,1.66-1.71,0-4.11-.69-6.04-1.71-.14-.09-.28-.14-.37-.14s-.23.09-.28.28l-.83,1.85c-.05.14-.09.23-.09.32,0,.32.09.37.83.78,2.03,1.06,4.61,1.71,6.92,1.71,5.35,0,8.21-2.81,8.21-8.16,0-.74-.05-1.61-.09-2.63q-.23-4.52-.23-7.89v-7.1c0-1.98.32-3.37,1.15-4.66.23-.37.28-.51.28-.6"/>
  <path class="uuid-c178dd66-712e-46b5-aaf6-f68af47b8807" d="M475.51,375.53c0-.69-2.91-1.61-5.07-1.61s-4.01.78-5.17,2.31c-.92,1.25-1.2,2.44-1.2,5.35v3.6h-3.04c-.46,0-.55.09-.55.55v1.8c0,.42.09.51.55.51h3.04v18.73c0,.46.09.55.51.55h2.44c.42,0,.51-.09.51-.55v-18.73h5.9c.28,0,.51-.14.6-.42l.6-1.85c.05-.09.05-.18.05-.28,0-.23-.14-.32-.51-.32h-6.64v-3.55c0-2.4.14-3.14.65-3.83.42-.6,1.2-.92,2.12-.92,1.01,0,2.31.37,3.55.97.18.09.32.14.46.14s.28-.09.32-.28l.78-1.89q.09-.18.09-.28"/>
  <path class="uuid-c178dd66-712e-46b5-aaf6-f68af47b8807" d="M380.93,394.17h-9.96c.18-4.47,1.94-6.83,5.03-6.83s4.84,2.4,4.94,6.83M384.66,396.2c0-2.95-.18-4.66-.69-6.13-1.25-3.51-4.01-5.54-7.75-5.54-5.54,0-9.09,4.57-9.09,11.76s3.74,11.67,9.59,11.67c1.94,0,3.87-.46,5.67-1.29,1.25-.6,1.66-.92,1.66-1.29q0-.09-.09-.32l-.83-1.8c-.09-.14-.23-.23-.32-.23-.14,0-.32.05-.46.14-2.03,1.15-3.69,1.66-5.35,1.66-3.74,0-5.86-2.77-6.09-7.8h13.24c.42,0,.51-.18.51-.83"/>
  <path class="uuid-c178dd66-712e-46b5-aaf6-f68af47b8807" d="M288.51,389.09v13.05c-2.03,1.89-3.55,2.68-5.3,2.68-3.04,0-4.29-2.63-4.29-8.99,0-5.81,1.43-8.21,4.89-8.21,1.57,0,2.77.37,4.7,1.48M293.49,406.21q0-.14-.37-.74c-.92-1.48-1.15-2.58-1.15-5.44v-25.6c0-.37-.09-.51-.32-.51-.09,0-.18,0-.28.05l-2.4.55c-.28.09-.46.32-.46.6v10.89c-1.94-1.06-3.37-1.48-5.07-1.48-5.12,0-8.26,4.38-8.26,11.49,0,7.47,2.72,11.95,7.24,11.95,2.21,0,3.87-.69,6.87-2.95.37,1.48,1.11,2.77,1.52,2.77.09,0,.28-.05.37-.14l2.08-1.15c.18-.09.23-.18.23-.28"/>
  <path class="uuid-c178dd66-712e-46b5-aaf6-f68af47b8807" d="M202.17,387.75l.05-.28c0-.32-.28-.65-1.01-1.15-1.71-1.2-3.64-1.8-5.63-1.8-5.81,0-9.36,4.66-9.36,12.22,0,7.01,3.23,11.21,8.72,11.21,2.26,0,4.57-.78,6.46-2.17.51-.37.74-.65.74-.88l-.14-.46-.69-1.75c-.09-.18-.18-.28-.32-.28-.09,0-.18.05-.32.14-2.63,1.85-3.6,2.26-5.44,2.26-3.41,0-5.12-2.86-5.12-8.63s1.89-8.58,5.58-8.58c1.57,0,2.49.42,4.75,2.08.14.14.28.18.37.18.14,0,.23-.09.37-.32l1.01-1.8Z"/>
  <path class="uuid-c178dd66-712e-46b5-aaf6-f68af47b8807" d="M107.61,395.27c0,6.6-1.48,9.55-4.8,9.55-1.85,0-3.37-.55-4.8-1.8v-13.15c2.44-1.71,3.78-2.26,5.49-2.26,2.86,0,4.11,2.31,4.11,7.66M111.34,394.77c0-6.73-2.44-10.24-7.2-10.24-2.08,0-3.74.6-6.13,2.26v-12.36c0-.37-.09-.51-.28-.51-.05,0-.28,0-.32.05l-2.4.55c-.32.09-.51.28-.51.6v25.88c0,2.17-.37,3.64-1.29,4.84-.09.14-.14.28-.14.32,0,.09.09.18.14.23l1.98,1.25c.14.09.28.14.37.14.32,0,1.01-.92,1.48-2.08,1.94,1.61,3.6,2.26,5.9,2.26,5.67,0,8.39-4.24,8.39-13.19"/>
  <path class="uuid-c178dd66-712e-46b5-aaf6-f68af47b8807" d="M14.46,396.29v5.95c-2.03,1.8-3.64,2.63-5.26,2.63-1.98,0-3.37-1.52-3.37-3.69,0-3.23,2.86-4.84,8.63-4.89M19.25,406.16c0-.09-.05-.18-.09-.28-1.01-1.8-1.25-2.86-1.25-6.04v-8.72c0-4.38-2.31-6.46-7.2-6.46-2.21,0-4.29.42-6.13,1.25-1.01.42-1.25.6-1.25.88l.05.37.69,1.85c.05.14.18.23.32.23l.32-.09c2.4-1.01,3.69-1.34,5.49-1.34,3.04,0,4.24,1.15,4.24,4.11v1.52c-8.16.14-12.18,2.77-12.18,8.03,0,3.87,2.35,6.32,6.09,6.32,2.54,0,4.52-.88,6.6-2.91.46,1.52,1.29,2.91,1.75,2.91.05,0,.23-.05.37-.14l1.98-1.25c.09-.05.18-.14.18-.23"/>
  <path class="uuid-c178dd66-712e-46b5-aaf6-f68af47b8807" d="M834.22,329.73c0-1.75-1.48-3.23-3.18-3.23-1.84,0-3.32,1.43-3.32,3.23s1.43,3.27,3.27,3.27,3.23-1.48,3.23-3.27"/>
  <path class="uuid-c178dd66-712e-46b5-aaf6-f68af47b8807" d="M741.6,329.73c0-1.75-1.48-3.23-3.18-3.23-1.84,0-3.32,1.43-3.32,3.23s1.43,3.27,3.23,3.27,3.27-1.48,3.27-3.27M746.86,307.5c0-4.52-3-7.2-8.07-7.2-3,0-6.96,1.11-6.96,1.98q0,.09.09.32l.65,1.75c.09.23.23.37.42.37.14,0,.28-.05.42-.09,1.8-.78,3.51-1.15,5.03-1.15,3.09,0,4.8,1.48,4.8,4.11,0,1.66-.74,3.09-1.94,3.83-.88.55-1.94.92-3.83,1.48-.65.18-.78.37-.78.92v5.67c0,.55.09.65.65.65h1.85c.55,0,.65-.09.65-.65v-4.15c4.8-1.29,7.06-3.78,7.06-7.84"/>
  <path class="uuid-c178dd66-712e-46b5-aaf6-f68af47b8807" d="M652.01,329.73c0-1.75-1.48-3.23-3.18-3.23-1.85,0-3.32,1.43-3.32,3.23s1.43,3.27,3.27,3.27,3.23-1.48,3.23-3.27M650.02,319.54l1.01-18.17v-.14c0-.42-.14-.51-.65-.51h-3.41c-.51,0-.65.09-.65.46v.18l1.06,18.17c.05.51.14.6.65.6h1.34c.55,0,.6-.09.65-.6"/>
  <path class="uuid-c178dd66-712e-46b5-aaf6-f68af47b8807" d="M554.08,317.69l8.3,9.55c-2.08,1.84-4.01,2.63-6.37,2.63-3.69,0-6.04-2.17-6.04-5.63,0-2.54.92-4.01,4.11-6.55M559.98,307.36c0,2.35-1.25,4.11-4.66,6.5-2.63-2.91-3.6-4.66-3.6-6.55,0-2.35,1.84-4.11,4.24-4.11s4.01,1.66,4.01,4.15M570.18,330.84c0-.09-.05-.18-.14-.28l-3.18-3.64c1.71-2.31,2.68-5.26,2.68-8.12,0-.6-.14-.78-.55-.78h-2.26c-.42,0-.55.14-.55.55v.55c0,1.98-.51,3.92-1.38,5.4l-7.66-8.63c4.43-2.91,6.27-5.49,6.27-8.86,0-4.06-2.77-6.78-6.96-6.78-4.75,0-8.16,3.14-8.16,7.47,0,2.4,1.06,4.57,4.01,7.98-1.38.97-1.8,1.29-2.49,1.8-2.4,1.84-3.6,4.15-3.6,6.96,0,5.03,3.78,8.35,9.5,8.35,3.32,0,5.63-.88,8.63-3.32l2.77,3.18c.18.18.37.28.51.28.09,0,.32-.09.46-.18l1.85-1.52c.18-.14.28-.28.28-.42"/>
  <path class="uuid-c178dd66-712e-46b5-aaf6-f68af47b8807" d="M458.9,303.9h12.18l-13.56,25.42v2.4c0,.55.09.65.65.65h17.2c.55,0,.65-.09.65-.65v-1.98c0-.55-.09-.65-.65-.65h-13.51l13.65-25.51v-2.21c0-.55-.09-.65-.65-.65h-15.36c-.37,0-.6.14-.69.55l-.46,1.94-.05.14c-.05.09-.05.14-.05.18,0,.28.18.37.65.37"/>
  <path class="uuid-c178dd66-712e-46b5-aaf6-f68af47b8807" d="M386.39,301.5c0-.14-.18-.28-.51-.37l-2.49-.69c-.18-.05-.28-.05-.37-.05-.18,0-.32.14-.46.42l-5.63,11.95c-.55,1.15-.88,1.94-1.25,2.91-.46-1.2-.6-1.57-1.25-2.86l-5.81-11.99c-.18-.37-.28-.46-.46-.46-.05,0-.09,0-.18.05l-.18.05-2.77.74c-.37.09-.51.18-.51.37,0,.09.09.32.14.46l9.04,17.02v12.68c0,.55.09.65.65.65h2.49c.55,0,.65-.09.65-.65v-12.78l8.76-16.97c.09-.14.14-.37.14-.46"/>
  <path class="uuid-c178dd66-712e-46b5-aaf6-f68af47b8807" d="M295.02,331.48c0-.14-.05-.23-.18-.46l-8.44-15.27,7.56-13.47c.14-.23.18-.37.18-.46,0-.18-.09-.28-.46-.42l-2.26-.92c-.18-.05-.28-.09-.37-.09-.18,0-.28.14-.46.42l-4.98,9.32c-.6,1.11-.88,1.8-1.2,2.63-.65-1.43-.65-1.57-1.11-2.4l-5.21-9.59c-.23-.37-.28-.42-.46-.42q-.09,0-.37.09l-2.31.83c-.32.09-.46.23-.46.37s.05.28.14.46l7.56,13.75-8.21,15.18c-.14.23-.18.37-.18.46,0,.18.14.28.51.42l2.35.74q.28.09.37.09c.18,0,.23-.05.42-.42l5.95-11.25c.32-.6.6-1.34.97-2.17.18.6.46,1.34.92,2.21l5.95,11.21c.18.32.28.42.42.42.05,0,.14,0,.23-.05l.14-.05,2.49-.78c.37-.09.51-.23.51-.37"/>
  <path class="uuid-c178dd66-712e-46b5-aaf6-f68af47b8807" d="M208.05,301.36c0-.18-.18-.32-.55-.42l-2.4-.51q-.18-.05-.32-.05c-.23,0-.32.14-.42.55l-4.24,23.11c-.32,1.8-.32,3.04-.42,5.63-.18-3.14-.14-3.51-.51-5.63l-3.78-22.79c-.09-.51-.14-.55-.69-.55h-2.44c-.46,0-.6.09-.69.55l-4.47,22.6c-.32,1.66-.32,2.81-.55,5.63-.09-3.04-.14-4.15-.42-5.77l-3.97-22.79c-.09-.46-.14-.55-.37-.55l-.37.05-2.4.46c-.42.09-.55.18-.55.37l.05.37,5.77,30.17c.09.51.18.55.69.55h2.81c.51,0,.6-.09.69-.55l4.8-25.51,3.97,25.51c.09.46.14.55.65.55h3.04c.46,0,.6-.09.69-.55l6.37-30.07v-.18s.05-.14.05-.18"/>
  <path class="uuid-c178dd66-712e-46b5-aaf6-f68af47b8807" d="M112.59,301.78l.05-.42c0-.18-.14-.28-.51-.37l-2.49-.6c-.09-.05-.28-.05-.37-.05-.23,0-.32.14-.42.51l-6.04,24.49c-.18.83-.46,2.21-.69,3.55l-.18-1.06c-.18-1.01-.28-1.52-.51-2.58l-5.86-24.4c-.09-.37-.18-.55-.37-.55-.05,0-.14,0-.23.05l-.14.05-2.58.6c-.42.14-.55.23-.55.42q0,.09.09.37l8.03,30.07c.14.46.18.51.69.51h3.23c.46,0,.6-.09.69-.51l8.16-30.07Z"/>
  <path class="uuid-c178dd66-712e-46b5-aaf6-f68af47b8807" d="M20.85,323.87v-22.51c0-.55-.09-.65-.65-.65h-2.35c-.55,0-.65.09-.65.65v22.37c0,4.24-1.98,6.18-6.27,6.18s-5.86-1.71-5.86-6.18v-22.37c0-.55-.09-.65-.65-.65H1.93c-.55,0-.65.09-.65.65v22.51c0,6.13,3.09,9.13,9.46,9.13s10.1-3.04,10.1-9.13"/>
  <path class="uuid-c178dd66-712e-46b5-aaf6-f68af47b8807" d="M841.03,226.08c0-.23-.18-.32-.65-.32h-17.99c-.55,0-.65.09-.65.65v1.94c0,.55.09.65.65.65h6.73v27.77c0,.55.09.65.65.65h2.49c.55,0,.65-.09.65-.65v-27.77h6.64c.37,0,.6-.18.69-.51l.69-1.98.05-.14c.05-.09.05-.18.05-.28"/>
  <path class="uuid-c178dd66-712e-46b5-aaf6-f68af47b8807" d="M748.94,249.01c0-1.84-.51-3.6-1.52-4.98-.97-1.38-1.84-2.08-4.57-3.69q-4.52-2.68-5.54-3.46c-1.2-.92-1.84-2.31-1.84-3.92,0-2.86,1.89-4.57,5.07-4.57,1.48,0,3.18.42,4.47,1.01q1.85.92,1.98.92c.18,0,.28-.09.37-.28l.83-2.08q.09-.28.09-.37c0-.97-4.61-2.49-7.7-2.49-5.35,0-9.09,3.46-9.09,8.35,0,1.89.65,3.74,1.84,5.12,1.11,1.25,1.94,1.84,5.81,4.06,4.57,2.63,5.77,4.06,5.77,6.87,0,3.14-2.21,5.21-5.63,5.21-1.98,0-4.43-.69-6.69-1.94-.6-.32-.65-.32-.78-.32s-.28.09-.32.23l-.88,2.21c-.05.09-.09.28-.09.37,0,1.11,5.26,2.77,8.72,2.77,5.77,0,9.69-3.64,9.69-9.04"/>
  <path class="uuid-c178dd66-712e-46b5-aaf6-f68af47b8807" d="M654.31,233.93c0,2.35-.65,4.06-1.98,5.17-.97.78-1.94,1.06-3.78,1.06h-3.55v-11.39h3.69c1.84,0,2.58.09,3.37.51,1.52.74,2.26,2.31,2.26,4.66M660.08,256.99c0-.09-.05-.28-.18-.51l-7.7-13.75c3.83-1.29,6-4.61,6-9.09,0-3.23-1.25-5.77-3.46-6.92-1.34-.69-2.86-.97-5.81-.97h-7.06c-.55,0-.65.09-.65.65v30.35c0,.55.09.65.65.65h2.49c.55,0,.65-.09.65-.65v-13.7h3.51l7.47,14.44c.14.28.28.37.51.37h.23l2.81-.55c.37-.09.55-.18.55-.32"/>
  <path class="uuid-c178dd66-712e-46b5-aaf6-f68af47b8807" d="M563.93,241.86c0,4.43-.55,7.98-1.57,10.19-.88,1.84-2.63,2.91-4.8,2.91s-3.6-.88-4.47-2.68c-1.15-2.4-1.75-6.13-1.75-10.79s.51-8.16,1.57-10.38c.83-1.8,2.68-2.91,4.75-2.91s3.55.83,4.52,2.68c1.15,2.31,1.75,6.13,1.75,10.98M570.06,258.47c0-.18-.05-.23-.23-.37-2.44-1.52-4.01-2.68-4.94-3.64,2.17-3.09,3.14-7.1,3.14-12.87,0-10.89-3.46-16.47-10.15-16.47s-10.65,5.72-10.65,16.56,3.46,16.37,10.15,16.37c1.84,0,3.18-.32,4.84-1.2,1.8,1.94,4.11,3.78,4.8,3.78.09,0,.37-.09.42-.14l2.44-1.66c.14-.09.18-.23.18-.37"/>
  <path class="uuid-c178dd66-712e-46b5-aaf6-f68af47b8807" d="M473.06,234.3c0,2.44-.69,4.24-2.03,5.35-1.06.83-1.98,1.06-4.34,1.06h-3.04v-11.76h3.6c1.85,0,2.44.05,3.23.37,1.71.65,2.58,2.4,2.58,4.98M476.94,234.25c0-3.46-1.2-6.09-3.46-7.43-1.2-.74-2.95-1.06-5.9-1.06h-7.06c-.55,0-.65.09-.65.65v30.35c0,.55.09.65.65.65h2.49c.55,0,.65-.09.65-.65v-12.73h3.32c2.44,0,3.87-.23,5.35-1.01,2.95-1.52,4.61-4.7,4.61-8.76"/>
  <path class="uuid-c178dd66-712e-46b5-aaf6-f68af47b8807" d="M381.73,241.86c0,4.52-.55,7.98-1.57,10.19-.88,1.84-2.58,2.91-4.75,2.91s-3.6-.88-4.47-2.68c-1.2-2.4-1.8-6.13-1.8-10.79s.51-8.16,1.57-10.38c.83-1.8,2.68-2.91,4.75-2.91s3.55.83,4.52,2.68c1.15,2.31,1.75,6.04,1.75,10.98M385.84,241.54c0-10.75-3.46-16.42-10.01-16.42-7.15,0-10.79,5.63-10.79,16.65s3.51,16.28,10.15,16.28,10.65-5.72,10.65-16.51"/>
  <path class="uuid-c178dd66-712e-46b5-aaf6-f68af47b8807" d="M293.77,256.76v-30.35c0-.55-.09-.65-.65-.65h-2.08c-.55,0-.65.09-.65.65v21.17c0,1.25.09,2.31.32,4.01-.37-1.57-.74-2.72-1.29-3.87l-10.1-21.49c-.14-.32-.32-.46-.69-.46h-2.91c-.55,0-.65.09-.65.65v30.35c0,.55.09.65.65.65h2.08c.55,0,.65-.09.65-.65v-22.46c0-1.43-.05-2.08-.46-4.52.51,2.08.78,3.04,1.38,4.34l10.56,22.83c.14.32.37.46.69.46h2.49c.55,0,.65-.09.65-.65"/>
  <path class="uuid-c178dd66-712e-46b5-aaf6-f68af47b8807" d="M185.72,233.37v-.88l-.05-.92-.05-.83v-.88c.18,1.52.46,2.77.88,4.06l5.21,15.59c.14.42.28.51.69.51h1.34c.46,0,.55-.05.69-.51l5.4-15.59c.32-.92.74-2.44.97-4.06l-.05.92c-.05.88-.14,1.84-.14,2.35v.23l.69,23.43c0,.51.09.6.65.6h2.68c.46,0,.6-.09.6-.46v-.18l-1.75-30.4c-.05-.51-.09-.6-.6-.6h-2.91c-.46,0-.51.05-.69.51l-5.49,15.91c-.42,1.29-.42,1.66-.6,2.86-.09-.78-.37-1.98-.65-2.86l-5.44-15.91c-.14-.46-.18-.51-.69-.51h-2.72c-.55,0-.6.09-.65.6l-1.75,30.4v.18c0,.37.14.46.65.46h2.49c.51,0,.6-.09.6-.6l.69-23.43Z"/>
  <path class="uuid-c178dd66-712e-46b5-aaf6-f68af47b8807" d="M112.43,254.45c0-.23-.14-.32-.65-.32h-11.67v-27.72c0-.55-.09-.65-.65-.65h-2.49c-.55,0-.65.09-.65.65v30.35c0,.55.09.65.65.65h13.93c.32,0,.55-.18.69-.51l.74-2.03c.05-.18.09-.32.09-.42"/>
  <path class="uuid-c178dd66-712e-46b5-aaf6-f68af47b8807" d="M22.37,255.7c0-.09-.05-.23-.23-.42l-11.07-13.61,10.84-14.02c.18-.28.23-.32.23-.46s-.05-.23-.37-.46l-1.71-1.15q-.28-.23-.42-.23c-.18,0-.18.05-.46.37l-11.85,15.68v-14.99c0-.55-.09-.65-.65-.65h-2.49c-.55,0-.65.09-.65.65v30.35c0,.55.09.65.65.65h2.49c.55,0,.65-.09.65-.65v-14.35l11.72,15.08c.23.28.28.32.46.32q.14,0,.42-.18l2.12-1.48c.23-.18.32-.28.32-.46"/>
  <path class="uuid-c178dd66-712e-46b5-aaf6-f68af47b8807" d="M825.51,153.99h7.98v18.91c0,3.37-.05,3.78-.37,4.61-.6,1.61-2.08,2.49-4.01,2.49-2.86,0-4.43-1.94-4.43-5.63v-.55c0-.32-.14-.46-.37-.46h-2.72c-.37,0-.42.14-.42.92,0,5.72,2.77,8.81,7.89,8.81,3.14,0,5.58-1.15,6.96-3.27,1.11-1.66,1.25-2.58,1.25-7.15v-21.22c0-.55-.09-.65-.65-.65h-11.12c-.55,0-.65.09-.65.65v1.89c0,.55.09.65.65.65"/>
  <path class="uuid-c178dd66-712e-46b5-aaf6-f68af47b8807" d="M737.94,153.81v25.65h-4.06c-.55,0-.65.09-.65.65v1.71c0,.55.09.65.65.65h11.95c.55,0,.65-.09.65-.65v-1.71c0-.55-.09-.65-.65-.65h-4.11v-25.65h4.11c.55,0,.65-.09.65-.65v-1.71c0-.55-.09-.65-.65-.65h-11.95c-.55,0-.65.09-.65.65v1.71c0,.55.09.65.65.65h4.06Z"/>
  <path class="uuid-c178dd66-712e-46b5-aaf6-f68af47b8807" d="M654.68,164.41h-11.81v-12.96c0-.55-.09-.65-.65-.65h-2.49c-.55,0-.65.09-.65.65v30.35c0,.55.09.65.65.65h2.49c.55,0,.65-.09.65-.65v-14.21h11.81v14.21c0,.55.09.65.65.65h2.49c.55,0,.65-.09.65-.65v-30.35c0-.55-.09-.65-.65-.65h-2.49c-.55,0-.65.09-.65.65v12.96Z"/>
  <path class="uuid-c178dd66-712e-46b5-aaf6-f68af47b8807" d="M563.08,169.63v9.5c-1.29.65-2.35.88-3.64.88-5.4,0-7.66-4.06-7.66-13.75,0-8.99,2.21-13.01,7.15-13.01,1.61,0,3.32.51,4.75,1.43q1.25.83,1.43.83c.09,0,.23-.09.28-.18l.97-1.98c.09-.14.14-.28.14-.37,0-.23-.28-.51-.92-.92-1.98-1.2-4.34-1.89-6.64-1.89-7.33,0-11.25,5.81-11.25,16.61s3.87,16.33,11.12,16.33c2.81,0,5.9-.74,7.66-1.84.37-.18.42-.32.42-.69v-13.47c0-.55-.09-.65-.65-.65h-6.73c-.55,0-.65.09-.65.65v1.89c0,.55.09.65.65.65h3.6Z"/>
  <path class="uuid-c178dd66-712e-46b5-aaf6-f68af47b8807" d="M476.66,151.13c0-.23-.18-.32-.65-.32h-14.21c-.55,0-.65.09-.65.65v30.35c0,.55.09.65.65.65h2.49c.55,0,.65-.09.65-.65v-13.93h9.04c.55,0,.65-.09.65-.65v-1.8c0-.55-.09-.65-.65-.65h-9.04v-10.7h10.24c.32,0,.6-.18.69-.51l.69-2.03.05-.18c.05-.09.05-.14.05-.23"/>
  <path class="uuid-c178dd66-712e-46b5-aaf6-f68af47b8807" d="M384.71,151.13c0-.23-.18-.32-.65-.32h-14.21c-.55,0-.65.09-.65.65v30.35c0,.6.05.65.65.65h14.16c.55,0,.65-.09.65-.65v-1.98c0-.55-.09-.65-.65-.65h-11.02v-11.62h9.04c.55,0,.65-.09.65-.65v-1.8c0-.55-.09-.65-.65-.65h-9.04v-10.38h10.24c.32,0,.6-.18.69-.51l.69-2.03q.09-.32.09-.42"/>
  <path class="uuid-c178dd66-712e-46b5-aaf6-f68af47b8807" d="M290.68,166.08c0,4.98-.65,8.26-2.03,10.29-1.48,2.17-2.95,2.81-6.55,2.81h-2.35v-25.09h1.89c2.4,0,3.92.28,5.12.92,2.68,1.43,3.92,4.94,3.92,11.07M294.74,166.08c0-6.41-1.8-11.16-5.12-13.42-1.94-1.34-4.15-1.84-8.21-1.84h-4.8c-.55,0-.65.09-.65.65v30.35c0,.55.09.65.65.65h5.21c8.63,0,12.92-5.4,12.92-16.37"/>
  <path class="uuid-c178dd66-712e-46b5-aaf6-f68af47b8807" d="M202.93,179.5c0-.14-.05-.28-.14-.37l-1.15-1.52c-.14-.23-.28-.32-.37-.32-.14,0-.32.09-.51.28-1.85,1.61-3.6,2.44-5.17,2.44-4.29,0-6.5-4.84-6.5-14.11s1.85-12.64,6.04-12.64c1.43,0,2.72.51,4.2,1.61q1.38,1.11,1.57,1.11c.14,0,.32-.09.37-.18l1.34-1.75c.05-.09.09-.23.09-.37,0-.28-.18-.42-.74-.92-1.94-1.61-4.43-2.58-6.87-2.58-3.09,0-5.9,1.48-7.47,3.92-1.8,2.86-2.63,6.78-2.63,12.22,0,10.93,3.64,16.79,10.42,16.79,2.26,0,4.47-.74,6.23-2.12.88-.65,1.29-1.15,1.29-1.48"/>
  <path class="uuid-c178dd66-712e-46b5-aaf6-f68af47b8807" d="M108.3,173.59c0,2.03-.74,3.69-1.98,4.66-1.06.83-2.12,1.11-4.24,1.11h-4.52v-11.49h4.34c1.61,0,2.86.23,3.78.74,1.66.92,2.63,2.72,2.63,4.98M107.05,158.79c0,2.4-.78,4.15-2.26,5.17-1.01.69-1.71.83-3.92.83h-3.32v-10.89h4.29c3.78,0,5.21,1.34,5.21,4.89M112.41,173.73c0-2.54-.92-4.8-2.44-6.23-.88-.78-1.66-1.15-3.32-1.61,2.95-1.43,4.52-4.06,4.52-7.52,0-2.77-1.11-5.12-2.95-6.32-1.43-.92-3-1.25-6.27-1.25h-7.52c-.55,0-.65.09-.65.65v30.35c0,.55.09.65.65.65h6.69c3.27,0,4.57-.09,6-.6,3.27-1.11,5.3-4.24,5.3-8.12"/>
  <path class="uuid-c178dd66-712e-46b5-aaf6-f68af47b8807" d="M12.06,159.62l2.77,10.15h-7.66l2.77-10.19c.46-1.71.83-3.18,1.06-4.38.28,1.34.6,2.81,1.06,4.43M22.53,182.08l-.09-.37-9.27-30.4c-.14-.46-.18-.51-.69-.51h-2.77c-.51,0-.55.05-.69.51L-.26,181.71q-.09.32-.09.42c0,.23.18.32.65.32h2.77c.37,0,.6-.18.69-.51l2.58-8.99h9.36l2.54,8.99c.14.32.32.51.69.51h2.95c.46,0,.65-.09.65-.37"/>
  <path class="uuid-f73a777f-7349-4cd8-85a0-4a8a20d90d79" d="M590.66,33.14h4.01v-11.9c0-.69.09-1.34.18-1.89.55-3.04,2.58-5.21,5.44-5.21.55,0,.97.05,1.38.14v-3.83c-.37-.09-.69-.14-1.15-.14-2.72,0-5.17,1.89-6.18,4.89h-.18l-.14-4.38h-3.55c.14,2.08.18,4.34.18,6.97v15.36ZM580.18,25.62c0,.42-.09.88-.23,1.29-.65,1.89-2.49,3.74-5.4,3.74-2.08,0-3.83-1.25-3.83-3.87,0-4.34,5.03-5.12,9.46-5.03v3.87ZM584.47,33.14c-.28-1.52-.37-3.41-.37-5.35v-8.35c0-4.47-1.66-9.13-8.49-9.13-2.81,0-5.49.78-7.33,1.98l.92,2.68c1.57-1.01,3.74-1.66,5.81-1.66,4.57,0,5.07,3.32,5.07,5.17v.46c-8.63-.05-13.42,2.91-13.42,8.3,0,3.23,2.31,6.41,6.83,6.41,3.18,0,5.58-1.57,6.83-3.32h.14l.32,2.81h3.69ZM557.54,33.14h4.06V.39h-4.06v32.75ZM550.8,10.82h-4.06v13.7c0,.74-.14,1.48-.37,2.08-.74,1.8-2.63,3.69-5.35,3.69-3.69,0-4.98-2.86-4.98-7.1v-12.36h-4.06v13.05c0,7.84,4.2,9.78,7.7,9.78,3.97,0,6.32-2.35,7.38-4.15h.09l.23,3.64h3.6c-.14-1.75-.18-3.78-.18-6.09V10.82ZM521.38,23.64c0,.69-.09,1.48-.32,2.17-.88,2.58-3.14,4.15-5.63,4.15-4.38,0-6.6-3.64-6.6-8.03,0-5.17,2.77-8.44,6.64-8.44,2.95,0,4.94,1.94,5.67,4.29.18.55.23,1.15.23,1.84v4.01ZM522.02,10.82l-.18,3.37h-.09c-.97-1.85-3.09-3.87-6.97-3.87-5.12,0-10.06,4.29-10.06,11.85,0,6.18,3.97,10.89,9.5,10.89,3.46,0,5.86-1.66,7.1-3.74h.09v2.49c0,5.63-3.04,7.8-7.2,7.8-2.77,0-5.07-.83-6.55-1.75l-1.01,3.09c1.8,1.2,4.75,1.84,7.43,1.84,2.81,0,5.95-.65,8.12-2.68,2.17-1.94,3.18-5.07,3.18-10.19v-12.96c0-2.72.09-4.52.18-6.13h-3.55ZM485.54,19.81c.32-2.81,2.12-6.6,6.23-6.6,4.57,0,5.67,4.01,5.63,6.6h-11.85ZM501.17,22.72c.05-.42.14-1.06.14-1.89,0-4.11-1.94-10.52-9.23-10.52-6.5,0-10.47,5.3-10.47,12.04s4.11,11.25,10.98,11.25c3.55,0,6-.74,7.43-1.38l-.69-2.91c-1.52.65-3.27,1.15-6.18,1.15-4.06,0-7.56-2.26-7.66-7.75h15.68ZM468.61,33.14h4.01v-11.9c0-.69.09-1.34.18-1.89.55-3.04,2.58-5.21,5.44-5.21.55,0,.97.05,1.38.14v-3.83c-.37-.09-.69-.14-1.15-.14-2.72,0-5.17,1.89-6.18,4.89h-.18l-.14-4.38h-3.55c.14,2.08.18,4.34.18,6.97v15.36ZM444.49,5.47v5.35h-3.46v3.09h3.46v12.18c0,2.63.42,4.61,1.57,5.81.97,1.11,2.49,1.71,4.38,1.71,1.57,0,2.81-.23,3.6-.55l-.18-3.04c-.51.14-1.29.28-2.35.28-2.26,0-3.04-1.57-3.04-4.34v-12.04h5.81v-3.09h-5.81v-6.41l-3.97,1.06ZM434.02,33.14V13.91h5.4v-3.09h-5.4v-1.2c0-3.41.88-6.46,4.34-6.46,1.15,0,1.98.23,2.58.51l.55-3.14c-.78-.32-2.03-.65-3.46-.65-1.89,0-3.92.6-5.44,2.08-1.89,1.8-2.58,4.66-2.58,7.8v1.06h-3.14v3.09h3.14v19.23h4.01ZM420.82,2.01c-1.48,0-2.54,1.11-2.54,2.54s1.01,2.49,2.44,2.49c1.61,0,2.63-1.11,2.58-2.49,0-1.43-.97-2.54-2.49-2.54M422.85,10.82h-4.06v22.32h4.06V10.82ZM403.53,33.14h4.01v-11.9c0-.69.09-1.34.18-1.89.55-3.04,2.58-5.21,5.44-5.21.55,0,.97.05,1.38.14v-3.83c-.37-.09-.69-.14-1.15-.14-2.72,0-5.17,1.89-6.18,4.89h-.18l-.14-4.38h-3.55c.14,2.08.18,4.34.18,6.97v15.36ZM377.93,33.14h4.06v-13.47c0-.78.05-1.38.28-1.94.74-2.21,2.81-4.06,5.44-4.06,3.83,0,5.17,3.04,5.17,6.64v12.82h4.06v-13.28c0-7.7-4.8-9.55-7.8-9.55-1.52,0-2.95.46-4.15,1.15-1.25.69-2.26,1.71-2.91,2.86h-.09V.39h-4.06v32.75ZM372.49,29.27c-1.15.51-2.68,1.11-4.98,1.11-4.43,0-7.75-3.18-7.75-8.35,0-4.66,2.77-8.44,7.89-8.44,2.21,0,3.74.51,4.7,1.06l.92-3.14c-1.11-.55-3.23-1.15-5.63-1.15-7.29,0-11.99,4.98-11.99,11.85s4.38,11.39,11.12,11.39c3,0,5.35-.74,6.41-1.29l-.69-3.04ZM337.43,32.08c1.57.92,3.83,1.52,6.27,1.52,5.3,0,8.35-2.77,8.35-6.69,0-3.32-1.98-5.26-5.86-6.73-2.91-1.11-4.24-1.94-4.24-3.78,0-1.66,1.34-3.04,3.74-3.04,2.08,0,3.69.74,4.57,1.29l1.01-2.95c-1.25-.74-3.23-1.38-5.49-1.38-4.8,0-7.7,2.95-7.7,6.55,0,2.68,1.89,4.89,5.9,6.32,3,1.11,4.15,2.17,4.15,4.11s-1.38,3.32-4.34,3.32c-2.03,0-4.15-.83-5.35-1.61l-1.01,3.09ZM319.16,32.08c1.57.92,3.83,1.52,6.27,1.52,5.3,0,8.35-2.77,8.35-6.69,0-3.32-1.98-5.26-5.86-6.73-2.91-1.11-4.24-1.94-4.24-3.78,0-1.66,1.34-3.04,3.74-3.04,2.08,0,3.69.74,4.57,1.29l1.01-2.95c-1.25-.74-3.23-1.38-5.49-1.38-4.8,0-7.7,2.95-7.7,6.55,0,2.68,1.89,4.89,5.9,6.32,3,1.11,4.15,2.17,4.15,4.11s-1.38,3.32-4.34,3.32c-2.03,0-4.15-.83-5.35-1.61l-1.01,3.09ZM314,10.82h-4.06v13.7c0,.74-.14,1.48-.37,2.08-.74,1.8-2.63,3.69-5.35,3.69-3.69,0-4.98-2.86-4.98-7.1v-12.36h-4.06v13.05c0,7.84,4.2,9.78,7.7,9.78,3.97,0,6.32-2.35,7.38-4.15h.09l.23,3.64h3.6c-.14-1.75-.18-3.78-.18-6.09V10.82ZM284.85,25.62c0,.42-.09.88-.23,1.29-.65,1.89-2.49,3.74-5.4,3.74-2.08,0-3.83-1.25-3.83-3.87,0-4.34,5.03-5.12,9.46-5.03v3.87ZM289.14,33.14c-.28-1.52-.37-3.41-.37-5.35v-8.35c0-4.47-1.66-9.13-8.49-9.13-2.81,0-5.49.78-7.33,1.98l.92,2.68c1.57-1.01,3.74-1.66,5.81-1.66,4.57,0,5.07,3.32,5.07,5.17v.46c-8.63-.05-13.42,2.91-13.42,8.3,0,3.23,2.31,6.41,6.83,6.41,3.18,0,5.58-1.57,6.83-3.32h.14l.32,2.81h3.69ZM243.15,2.05v31.09h4.01v-14.58h15.04v14.58h4.06V2.05h-4.06v13.01h-15.04V2.05h-4.01Z"/>
</svg>