<?xml version="1.0" encoding="utf-8"?>
<!-- Generator: Adobe Illustrator 28.3.0, SVG Export Plug-In . SVG Version: 6.00 Build 0)  -->
<svg version="1.1" id="Ebene_1" xmlns="http://www.w3.org/2000/svg" xmlns:xlink="http://www.w3.org/1999/xlink" x="0px" y="0px"
	 viewBox="0 0 1600 2255.3" style="enable-background:new 0 0 1600 2255.3;" xml:space="preserve">
<style type="text/css">
	.st0{clip-path:url(#SVGID_00000126309447299891459910000017638218415476379289_);}
	.st1{clip-path:url(#SVGID_00000026841542275912805250000011664927950668210065_);}
	.st2{fill:#EA0B34;}
	.st3{fill:#6A98BF;}
	.st4{fill:#275C79;}
	.st5{fill:#FFFFFF;}
</style>
<g>
	<g>
		<defs>
			<rect id="SVGID_1_" width="1600" height="2255.3"/>
		</defs>
		<clipPath id="SVGID_00000039116510447782311690000010233916156738085805_">
			<use xlink:href="#SVGID_1_"  style="overflow:visible;"/>
		</clipPath>
		<g style="clip-path:url(#SVGID_00000039116510447782311690000010233916156738085805_);">
			<g>
				<g>
					<defs>
						<polygon id="SVGID_00000139268743521581584060000017943232151489038011_" points="-165.3,1687.5 238.2,1436.1 1410.4,1438.3 
							1520,1827.1 1082.6,2159 243,2351.6 						"/>
					</defs>
					<clipPath id="SVGID_00000116944125386365055370000010919563478758860957_">
						<use xlink:href="#SVGID_00000139268743521581584060000017943232151489038011_"  style="overflow:visible;"/>
					</clipPath>
					<g style="clip-path:url(#SVGID_00000116944125386365055370000010919563478758860957_);">
						<g>
							<polygon class="st2" points="504.2,2335.7 506.8,2339.7 527.1,2326 55.7,1616.8 580.2,1231 565.6,1211.6 26.1,1608.4 
								22.5,1611 							"/>
							<polygon class="st2" points="604.9,2276.9 625.2,2263.7 213,1643.3 737.5,1265.1 723.3,1245.6 180.3,1637.6 							"/>
							<polygon class="st2" points="699.9,2208.5 719.8,2195.2 370.7,1669.8 894.8,1291.6 880.6,1272.1 337.6,1664.1 							"/>
							<polygon class="st2" points="1522.2,2336.2 1524.4,2340.1 1544.8,2326.9 1198.8,1802.4 1722.8,1424.1 1708.7,1404.7 
								1166.1,1796.2 							"/>
							<polygon class="st2" points="857.2,2235 877.5,2221.7 528,1696.3 1052.5,1318.1 1038.4,1298.6 495.3,1690.6 							"/>
							<polygon class="st2" points="1015,2261.5 1034.9,2248.2 685.8,1722.8 1209.8,1344.6 1195.7,1325.2 653.1,1717.1 							"/>
							<polygon class="st2" points="1172.7,2288 1192.6,2274.7 843.5,1749.4 1367.1,1371.6 1353.4,1351.7 810.4,1743.6 							"/>
							<polygon class="st2" points="1642.9,2364 1645.5,2367.5 1665.4,2354.3 1319.9,1829.8 1843.9,1452 1829.3,1432.1 
								1286.7,1823.6 							"/>
							<polygon class="st2" points="1806.8,2386.1 1810.8,2383.9 1810.8,2383.9 1810.8,2383.9 1814.3,2381.2 1811.7,2377.7 
								1989.3,1477.6 1993.3,1474.5 1988,1467.4 1455.1,1852.3 							"/>
							<polygon class="st2" points="1330.5,2314.5 1350.3,2301.2 1000.8,1775.9 1528.4,1399 1514.3,1379.1 968.1,1770.1 							"/>
						</g>
					</g>
				</g>
			</g>
			<polygon class="st3" points="2537.2,-972.5 2718.8,-726.4 2020.7,-212.1 2654.7,49 866.5,1368 1528,1639.8 1411.8,1922.6 
				247,1444.9 2036.1,125 1401.6,-136.1 			"/>
			<polygon class="st4" points="3065.2,-1044.6 3246.4,-798 2548.7,-283.7 3182.3,-22.5 1394.1,1296.9 2027.3,1557.6 11.9,3050.2 
				-170.1,2804.1 1409.6,1634.5 775.5,1372.9 2563.7,53.5 1929.6,-207.7 			"/>
			<g>
				<rect x="1085.7" y="50.8" class="st5" width="91.5" height="91.5"/>
				<rect x="901.4" y="50.8" class="st5" width="91.5" height="91.5"/>
				<rect x="1458.6" y="50.8" class="st5" width="91.5" height="91.5"/>
				<rect x="1272.1" y="50.8" class="st5" width="91.5" height="91.5"/>
				<rect x="1085.7" y="415.8" class="st5" width="91.5" height="91.5"/>
				<rect x="1085.7" y="739.2" class="st5" width="91.5" height="91.5"/>
				<rect x="1272.1" y="239.9" class="st5" width="91.5" height="91.5"/>
				<rect x="1272.1" y="415.8" class="st5" width="91.5" height="91.5"/>
				<rect x="1272.1" y="579.3" class="st5" width="91.5" height="91.5"/>
				<rect x="901.4" y="579.3" class="st5" width="91.5" height="91.5"/>
				<rect x="1458.6" y="239.9" class="st5" width="91.5" height="91.5"/>
				<rect x="1458.6" y="579.3" class="st5" width="91.5" height="91.5"/>
			</g>
		</g>
	</g>
</g>
</svg>
