<?xml version="1.0" encoding="utf-8"?>
<!-- Generator: Adobe Illustrator 28.3.0, SVG Export Plug-In . SVG Version: 6.00 Build 0)  -->
<svg version="1.1" id="Ebene_1" xmlns="http://www.w3.org/2000/svg" xmlns:xlink="http://www.w3.org/1999/xlink" x="0px" y="0px"
	 viewBox="0 0 1600 2255.3" style="enable-background:new 0 0 1600 2255.3;" xml:space="preserve">
<style type="text/css">
	.st0{clip-path:url(#SVGID_00000100364607107362241380000005370931875016387250_);}
	.st1{clip-path:url(#SVGID_00000095316502991973108640000011320862285317851833_);}
	.st2{fill:#EA0B34;}
	.st3{fill:#6A98BF;}
	.st4{fill:#275C79;}
	.st5{fill:#FFFFFF;}
</style>
<g>
	<g>
		<g>
			<defs>
				<rect id="SVGID_1_" width="1600" height="2255.3"/>
			</defs>
			<clipPath id="SVGID_00000083072452495444046240000004938509919329980572_">
				<use xlink:href="#SVGID_1_"  style="overflow:visible;"/>
			</clipPath>
			<g style="clip-path:url(#SVGID_00000083072452495444046240000004938509919329980572_);">
				<g>
					<g>
						<g>
							<defs>
								<polygon id="SVGID_00000023270891258671565800000014630377456327422391_" points="243,-95.9 1082.6,96.8 1520,428.2 
									1410.4,817.5 238.6,819.7 -165.3,568.2 								"/>
							</defs>
							<clipPath id="SVGID_00000070838407685005251290000015269799614721938850_">
								<use xlink:href="#SVGID_00000023270891258671565800000014630377456327422391_"  style="overflow:visible;"/>
							</clipPath>
							<g style="clip-path:url(#SVGID_00000070838407685005251290000015269799614721938850_);">
								<g>
									<polygon class="st2" points="23,644.7 26.1,647.3 565.6,1044.1 580.2,1024.7 55.7,638.9 527.1,-70.7 506.8,-84 
										504.6,-80.4 									"/>
									<polygon class="st2" points="180.3,618.2 723.3,1010.1 737.5,990.2 213,612.4 625.2,-8 604.9,-21.2 									"/>
									<polygon class="st2" points="337.6,591.7 880.6,983.6 894.8,963.7 370.7,585.9 719.8,60.5 699.9,47.3 									"/>
									<polygon class="st2" points="1166.1,459.1 1708.7,851 1722.8,831.6 1198.8,453.4 1544.8,-71.1 1524.4,-84.4 1522.2,-80.9 
																			"/>
									<polygon class="st2" points="495.3,565.1 1038.4,957.1 1052.5,937.2 528.5,559.4 877.5,34 857.2,20.8 									"/>
									<polygon class="st2" points="653.1,538.6 1196.1,930.6 1210.3,910.7 685.8,532.9 1035.3,7.5 1015,-5.7 									"/>
									<polygon class="st2" points="810.4,512.1 1353.4,903.6 1367.6,884.2 843.5,506.4 1193,-19 1172.7,-32.3 									"/>
									<polygon class="st2" points="1287.2,431.7 1829.8,823.6 1843.9,803.8 1319.9,426 1665.8,-98.5 1645.5,-111.8 
										1642.9,-108.3 									"/>
									<polygon class="st2" points="1455.1,403.4 1988,788.3 1993.3,780.8 1989.3,778.1 1812.1,-122 1814.3,-125.5 1810.8,-128.1 
										1810.8,-128.1 1810.8,-128.1 1807.2,-130.4 									"/>
									<polygon class="st2" points="968.1,485.6 1514.3,876.7 1528.4,856.8 1001.3,479.4 1350.3,-45.5 1330.5,-58.8 									"/>
								</g>
							</g>
						</g>
					</g>
				</g>
				<polygon class="st3" points="1402,2391.8 2036.1,2130.2 247.4,810.8 1411.8,332.7 1528,616 866.5,887.3 2654.7,2206.7 
					2021.1,2467.4 2718.8,2982.2 2537.2,3228.3 				"/>
				<polygon class="st4" points="1929.6,2463.4 2563.7,2202.3 775.5,882.8 1410,621.3 -170.1,-548.8 11.9,-794.5 2027.3,698.1 
					1394.1,958.9 3182.3,2278.3 2548.7,2539.4 3246.8,3053.7 3065.2,3299.9 				"/>
				<g>
					<rect x="1085.2" y="2113.9" class="st5" width="91.5" height="91.5"/>
					<rect x="901.4" y="2113.9" class="st5" width="91.5" height="91.5"/>
					<rect x="1458.6" y="2113.9" class="st5" width="91.5" height="91.5"/>
					<rect x="1272.1" y="2113.9" class="st5" width="91.5" height="91.5"/>
					<rect x="1085.2" y="1748.5" class="st5" width="91.5" height="91.5"/>
					<rect x="1085.2" y="1425.5" class="st5" width="91.5" height="91.5"/>
					<rect x="1272.1" y="1924.3" class="st5" width="91.5" height="91.5"/>
					<rect x="1272.1" y="1748.5" class="st5" width="91.5" height="91.5"/>
					<rect x="1272.1" y="1585.4" class="st5" width="91.5" height="91.5"/>
					<rect x="901.4" y="1585.4" class="st5" width="91.5" height="91.5"/>
					<rect x="1458.6" y="1924.3" class="st5" width="91.5" height="91.5"/>
					<rect x="1458.6" y="1585.4" class="st5" width="91.5" height="91.5"/>
				</g>
			</g>
		</g>
	</g>
</g>
</svg>
