<?xml version="1.0" encoding="utf-8"?>
<!-- Generator: Adobe Illustrator 28.3.0, SVG Export Plug-In . SVG Version: 6.00 Build 0)  -->
<svg version="1.1" id="Ebene_1" xmlns="http://www.w3.org/2000/svg" xmlns:xlink="http://www.w3.org/1999/xlink" x="0px" y="0px"
	 viewBox="0 0 1600 333.4" style="enable-background:new 0 0 1600 333.4;" xml:space="preserve">
<style type="text/css">
	.st0{clip-path:url(#SVGID_00000173858083919778437710000013197227461489683596_);}
	.st1{fill:#24353F;}
	.st2{fill:none;}
	.st3{clip-path:url(#SVGID_00000062876285552865344360000010171810837990926219_);}
	.st4{clip-path:url(#SVGID_00000049905432459086949910000002852811588289526162_);}
	.st5{fill:#6A98BF;}
</style>
<g>
	<defs>
		<rect id="SVGID_1_" y="2.2" width="1600" height="329"/>
	</defs>
	<clipPath id="SVGID_00000116203406140235273430000010498953723150548631_">
		<use xlink:href="#SVGID_1_"  style="overflow:visible;"/>
	</clipPath>
	<g style="clip-path:url(#SVGID_00000116203406140235273430000010498953723150548631_);">
		<g>
			<rect x="0" y="-1" class="st1" width="1605.7" height="2.6"/>
			<rect x="0" y="-0.5" class="st1" width="1605.8" height="2.6"/>
			<g>
				<line class="st2" x1="0" y1="0.6" x2="1605.8" y2="2.2"/>
				<rect x="0" y="0.1" class="st1" width="1605.7" height="2.6"/>
			</g>
			<g>
				<line class="st2" x1="0" y1="1.3" x2="1605.8" y2="2.9"/>
				<rect x="0" y="0.8" class="st1" width="1605.7" height="2.6"/>
			</g>
			<g>
				<line class="st2" x1="0" y1="2" x2="1605.7" y2="3.6"/>
				<rect x="0" y="1.5" class="st1" width="1605.7" height="2.6"/>
			</g>
			<g>
				<line class="st2" x1="0" y1="2.9" x2="1605.7" y2="4.4"/>
				<rect x="0" y="2.3" class="st1" width="1605.7" height="2.6"/>
			</g>
			<g>
				<line class="st2" x1="0" y1="3.7" x2="1605.7" y2="5.3"/>
				<rect x="0" y="3.2" class="st1" width="1605.8" height="2.6"/>
			</g>
			<g>
				<line class="st2" x1="-0.1" y1="4.7" x2="1605.7" y2="6.3"/>
				<rect x="-0.1" y="4.2" class="st1" width="1605.8" height="2.6"/>
			</g>
			<g>
				<line class="st2" x1="-0.1" y1="5.8" x2="1605.7" y2="7.4"/>
				<rect x="-0.1" y="5.3" class="st1" width="1605.8" height="2.6"/>
			</g>
			<g>
				<line class="st2" x1="-0.1" y1="7" x2="1605.7" y2="8.5"/>
				<rect x="-0.1" y="6.5" class="st1" width="1605.8" height="2.6"/>
			</g>
			<g>
				<line class="st2" x1="-0.1" y1="8.3" x2="1605.6" y2="9.8"/>
				<rect x="-0.1" y="7.7" class="st1" width="1605.7" height="2.6"/>
			</g>
			<g>
				<line class="st2" x1="-0.1" y1="9.7" x2="1605.6" y2="11.3"/>
				<rect x="-0.1" y="9.2" class="st1" width="1605.8" height="2.6"/>
			</g>
			<g>
				<line class="st2" x1="-0.2" y1="11.3" x2="1605.6" y2="12.9"/>
				<rect x="-0.2" y="10.8" class="st1" width="1605.8" height="2.6"/>
			</g>
			<g>
				<line class="st2" x1="-0.2" y1="13" x2="1605.5" y2="14.6"/>
				<rect x="-0.2" y="12.5" class="st1" width="1605.7" height="2.6"/>
			</g>
			<g>
				<line class="st2" x1="-0.3" y1="17" x2="1605.5" y2="18.6"/>
				<rect x="-0.3" y="16.5" class="st1" width="1605.7" height="2.6"/>
			</g>
			<g>
				<line class="st2" x1="-0.4" y1="21.8" x2="1605.4" y2="23.4"/>
				<rect x="-0.4" y="21.3" class="st1" width="1605.7" height="2.6"/>
			</g>
			<g>
				<line class="st2" x1="-0.5" y1="27.7" x2="1605.3" y2="29.3"/>
				<rect x="-0.5" y="27.2" class="st1" width="1605.7" height="2.6"/>
			</g>
			<g>
				<line class="st2" x1="-0.6" y1="34.8" x2="1605.2" y2="36.4"/>
				<rect x="-0.6" y="34.3" class="st1" width="1605.7" height="2.6"/>
			</g>
			<g>
				<line class="st2" x1="-0.7" y1="43.4" x2="1605" y2="44.9"/>
				<rect x="-0.7" y="42.8" class="st1" width="1605.7" height="2.6"/>
			</g>
			<g>
				<line class="st2" x1="-0.9" y1="53.7" x2="1604.8" y2="55.3"/>
				<rect x="-0.9" y="53.2" class="st1" width="1605.8" height="2.6"/>
			</g>
			<g>
				<line class="st2" x1="-1.2" y1="66.3" x2="1604.6" y2="67.8"/>
				<rect x="-1.2" y="65.7" class="st1" width="1605.8" height="2.6"/>
			</g>
			<g>
				<line class="st2" x1="-1.4" y1="81.5" x2="1604.3" y2="83"/>
				<rect x="-1.4" y="80.9" class="st1" width="1605.7" height="2.6"/>
			</g>
			<g>
				<line class="st2" x1="-1.8" y1="99.8" x2="1604" y2="101.4"/>
				<rect x="-1.8" y="99.3" class="st1" width="1605.8" height="2.6"/>
			</g>
			<g>
				<line class="st2" x1="-2.2" y1="122.1" x2="1603.6" y2="123.6"/>
				<rect x="-2.2" y="121.5" class="st1" width="1605.7" height="2.6"/>
			</g>
			<g>
				<line class="st2" x1="-2.6" y1="149" x2="1603.1" y2="150.5"/>
				<rect x="-2.6" y="148.4" class="st1" width="1605.8" height="2.6"/>
			</g>
			<g>
				<line class="st2" x1="-3.2" y1="181.5" x2="1602.5" y2="183.1"/>
				<rect x="-3.2" y="181" class="st1" width="1605.7" height="2.6"/>
			</g>
			<g>
				<line class="st2" x1="-2.6" y1="222.2" x2="1601.8" y2="222.5"/>
				<rect x="-2.6" y="221" class="st1" width="1604.4" height="2.6"/>
			</g>
			<g>
				<line class="st2" x1="-4.8" y1="268.5" x2="1601" y2="270.1"/>
				<rect x="-4.8" y="268" class="st1" width="1605.8" height="2.6"/>
			</g>
			<g>
				<line class="st2" x1="-5.8" y1="326.2" x2="1600" y2="327.8"/>
				<rect x="-5.8" y="325.7" class="st1" width="1605.7" height="2.6"/>
			</g>
		</g>
	</g>
</g>
<g>
	<defs>
		<polygon id="SVGID_00000165231295275312573910000005368554584920003990_" points="2500.6,-1557.3 2500.6,-1206.6 3344.2,-1206.6 
			3344.2,-1557.3 		"/>
	</defs>
	<clipPath id="SVGID_00000051377201873905547950000004304387990045868218_">
		<use xlink:href="#SVGID_00000165231295275312573910000005368554584920003990_"  style="overflow:visible;"/>
	</clipPath>
	<g style="clip-path:url(#SVGID_00000051377201873905547950000004304387990045868218_);">
		<g>
			<defs>
				<polygon id="SVGID_00000120549937810826108110000003983932168251104159_" points="3583.8,-490 3661.6,-2062 2557.7,-2036.6 
					2410.6,-1118.3 2561.8,19.6 				"/>
			</defs>
			<clipPath id="SVGID_00000180326792554494762670000017818175395044641712_">
				<use xlink:href="#SVGID_00000120549937810826108110000003983932168251104159_"  style="overflow:visible;"/>
			</clipPath>
			<g style="clip-path:url(#SVGID_00000180326792554494762670000017818175395044641712_);">
				<polygon class="st5" points="3314.3,-927.1 2007.9,8.2 1981.6,188.7 3314.3,-764.3 				"/>
			</g>
		</g>
	</g>
</g>
</svg>
