<svg width="935" height="216" viewBox="0 0 935 216" fill="none" xmlns="http://www.w3.org/2000/svg">
<g clip-path="url(#clip0_2663_23)">
<path d="M20.5492 199.35L28.7492 215H20.4492L13.2992 201.25H8.34922V215H0.699219V178.8H14.7992C17.7992 178.8 20.1659 179.283 21.8992 180.25C23.6659 181.183 24.9159 182.433 25.6492 184C26.4159 185.533 26.7992 187.2 26.7992 189C26.7992 191.667 26.2159 193.85 25.0492 195.55C23.9159 197.217 22.4159 198.483 20.5492 199.35ZM8.34922 195.2H12.2992C14.0992 195.2 15.6325 194.8 16.8992 194C18.1992 193.2 18.8492 191.783 18.8492 189.75C18.8492 188.017 18.3159 186.8 17.2492 186.1C16.2159 185.367 14.6659 185 12.5992 185H8.34922V195.2ZM41.6293 178.8H51.2293L64.0293 215H55.5793L52.5793 206.2H40.5293L37.7293 215H29.7793L41.6293 178.8ZM50.9793 200.05L46.4793 186.05H46.2793L41.8293 200.05H50.9793ZM80.0785 215H68.2285V178.8H80.9285C85.1285 178.8 88.5452 179.517 91.1785 180.95C93.8118 182.35 95.7452 184.367 96.9785 187C98.2452 189.633 98.8785 192.75 98.8785 196.35C98.8785 200.05 98.2118 203.3 96.8785 206.1C95.5452 208.9 93.4952 211.083 90.7285 212.65C87.9618 214.217 84.4118 215 80.0785 215ZM75.9285 208.8H79.7285C82.5285 208.8 84.7452 208.317 86.3785 207.35C88.0118 206.383 89.1785 205 89.8785 203.2C90.6118 201.4 90.9785 199.25 90.9785 196.75C90.9785 193.75 90.5785 191.4 89.7785 189.7C89.0118 187.967 87.8285 186.75 86.2285 186.05C84.6618 185.35 82.6785 185 80.2785 185H75.9285V208.8ZM142.81 178.8V215H135.61V186.6H135.41L126.86 215H119.91L111.66 186.55H111.46V215H104.41V178.8H115.91L123.56 205.25H123.76L131.36 178.8H142.81ZM159.012 178.8H168.612L181.412 215H172.962L169.962 206.2H157.912L155.112 215H147.162L159.012 178.8ZM168.362 200.05L163.862 186.05H163.662L159.212 200.05H168.362ZM205.461 199.35L213.661 215H205.361L198.211 201.25H193.261V215H185.611V178.8H199.711C202.711 178.8 205.078 179.283 206.811 180.25C208.578 181.183 209.828 182.433 210.561 184C211.328 185.533 211.711 187.2 211.711 189C211.711 191.667 211.128 193.85 209.961 195.55C208.828 197.217 207.328 198.483 205.461 199.35ZM193.261 195.2H197.211C199.011 195.2 200.544 194.8 201.811 194C203.111 193.2 203.761 191.783 203.761 189.75C203.761 188.017 203.228 186.8 202.161 186.1C201.128 185.367 199.578 185 197.511 185H193.261V195.2ZM226.541 178.8H236.141L248.941 215H240.491L237.491 206.2H225.441L222.641 215H214.691L226.541 178.8ZM235.891 200.05L231.391 186.05H231.191L226.741 200.05H235.891ZM264.041 215H256.291V185.3H245.641V178.8H274.591V185.3H264.041V215ZM307.978 178.8V215H300.228V200.15H286.378V215H278.678V178.8H286.378V193.5H300.228V178.8H307.978ZM347.797 196.35C347.797 200.25 347.164 203.65 345.897 206.55C344.631 209.417 342.714 211.65 340.147 213.25C337.581 214.817 334.331 215.6 330.397 215.6C326.397 215.6 323.164 214.8 320.697 213.2C318.231 211.6 316.414 209.417 315.247 206.65C314.114 203.85 313.547 200.65 313.547 197.05C313.547 193.45 314.197 190.233 315.497 187.4C316.831 184.533 318.797 182.283 321.397 180.65C324.031 178.983 327.297 178.15 331.197 178.15C334.131 178.15 336.647 178.633 338.747 179.6C340.847 180.533 342.564 181.833 343.897 183.5C345.231 185.167 346.214 187.1 346.847 189.3C347.481 191.5 347.797 193.85 347.797 196.35ZM321.497 196.9C321.497 201.233 322.314 204.35 323.947 206.25C325.614 208.15 327.864 209.1 330.697 209.1C332.497 209.1 334.081 208.7 335.447 207.9C336.847 207.1 337.931 205.8 338.697 204C339.464 202.167 339.847 199.767 339.847 196.8C339.847 192.633 339.064 189.567 337.497 187.6C335.964 185.633 333.814 184.65 331.047 184.65C328.114 184.65 325.781 185.65 324.047 187.65C322.347 189.617 321.497 192.7 321.497 196.9ZM383.236 215H374.336L360.386 189.45V215H353.336V178.8H362.536L376.236 204.45V178.8H383.236V215Z" fill="#6A98BF"/>
<path d="M94.65 152.051C11.4 152.051 0 130.751 0 94.9008C0 59.6508 14.85 35.2008 97.35 35.2008C181.65 35.2008 192.6 57.7008 192.6 91.6008C192.6 130.451 178.95 152.051 94.65 152.051ZM95.85 126.851C146.85 126.851 158.85 121.601 158.85 93.8508C158.85 67.3008 148.65 60.8508 96.6 60.8508C45.15 60.8508 33.75 67.7508 33.75 93.8508C33.75 121.301 44.85 126.851 95.85 126.851ZM89.55 16.1508C89.55 25.6008 82.65 31.7508 69.45 31.7508C56.1 31.7508 48.9 25.6008 48.9 16.1508C48.9 6.70079 56.1 0.550781 69.45 0.550781C82.65 0.550781 89.55 6.70079 89.55 16.1508ZM149.85 16.1508C149.85 25.6008 142.95 31.7508 129.6 31.7508C116.25 31.7508 109.2 25.6008 109.2 16.1508C109.2 6.70079 116.25 0.550781 129.6 0.550781C142.95 0.550781 149.85 6.70079 149.85 16.1508ZM225.162 148.001V65.2008H193.962V39.4008H288.462V65.2008H257.712V148.001H225.162ZM330.573 121.601H375.573V148.001H291.873V124.901L336.723 65.2008H292.773V39.4008H373.773V62.6508L330.573 121.601ZM409.879 148.001V65.2008H378.679V39.4008H473.179V65.2008H442.429V148.001H409.879ZM533.599 39.4008L572.599 148.001H537.199L529.999 126.851H499.249L493.249 148.001H459.349L494.149 39.4008H533.599ZM514.099 69.4008H513.199L503.749 102.401H523.699L514.099 69.4008ZM610.616 121.601H654.866V148.001H578.066V39.4008H610.616V121.601ZM699.86 121.601H831.41V148.001H665.81V39.4008H827.66V65.2008H699.86V82.1508H810.56V106.901H699.86V121.601ZM880.996 109.601H875.896V148.001H843.496V39.4008H891.046C918.046 39.4008 927.946 53.9508 927.946 70.9008C927.946 81.1008 924.346 94.3008 911.596 102.251L934.096 148.001H898.996L880.996 109.601ZM879.496 86.2008C886.546 86.2008 894.496 84.2508 894.496 74.0508C894.496 68.0508 891.496 63.5508 882.646 63.5508H875.896V86.2008H879.496Z" fill="white"/>
</g>
<defs>
<clipPath id="clip0_2663_23">
<rect width="935" height="216" fill="white"/>
</clipPath>
</defs>
</svg>
