<?xml version="1.0" encoding="utf-8"?>
<!-- Generator: Adobe Illustrator 28.3.0, SVG Export Plug-In . SVG Version: 6.00 Build 0)  -->
<svg version="1.1" id="Ebene_1" xmlns="http://www.w3.org/2000/svg" xmlns:xlink="http://www.w3.org/1999/xlink" x="0px" y="0px"
	 viewBox="0 0 1600 2951" style="enable-background:new 0 0 1600 2951;" xml:space="preserve">
<style type="text/css">
	.st0{clip-path:url(#SVGID_00000139997512399880213300000012589427371906658986_);}
	.st1{fill:#FFFFFF;}
	.st2{fill:none;}
	.st3{fill:#7296C8;}
	.st4{clip-path:url(#SVGID_00000025417612639232915430000001740187011641591447_);}
	.st5{fill:#6A98BF;}
	.st6{fill:#275C79;}
	.st7{fill:#24353F;}
</style>
<g>
	<g>
		<defs>
			<rect id="SVGID_1_" width="1600" height="2951"/>
		</defs>
		<clipPath id="SVGID_00000165232013128689705110000005892746819533344399_">
			<use xlink:href="#SVGID_1_"  style="overflow:visible;"/>
		</clipPath>
		<g style="clip-path:url(#SVGID_00000165232013128689705110000005892746819533344399_);">
			<g>
				<g>
					<g>
						<rect x="299.9" y="388.1" class="st1" width="86.1" height="86.1"/>
						<rect x="477.3" y="388.1" class="st1" width="86.1" height="86.1"/>
						<rect x="299.9" y="561.3" class="st1" width="86.1" height="86.1"/>
						<rect x="477.3" y="561.3" class="st1" width="86.1" height="86.1"/>
						<rect x="299.9" y="214.8" class="st1" width="86.1" height="86.1"/>
						<rect x="477.3" y="214.8" class="st1" width="86.1" height="86.1"/>
						<rect x="299.9" y="734.6" class="st1" width="86.1" height="86.1"/>
						<rect x="477.3" y="734.6" class="st1" width="86.1" height="86.1"/>
						<rect x="299.9" y="907.9" class="st1" width="86.1" height="86.1"/>
						<rect x="477.3" y="1081.2" class="st1" width="86.1" height="86.1"/>
					</g>
					<g>
						<rect x="653.7" y="388.1" class="st1" width="86.1" height="86.1"/>
						<rect x="831.1" y="388.1" class="st1" width="86.1" height="86.1"/>
						<rect x="1007.5" y="388.1" class="st1" width="86.1" height="86.1"/>
						<rect x="1183.9" y="388.1" class="st1" width="86.1" height="86.1"/>
						<rect x="1361.3" y="388.1" class="st1" width="86.1" height="86.1"/>
						<rect x="1537.7" y="388.1" class="st1" width="86.1" height="86.1"/>
						<rect x="653.7" y="561.3" class="st1" width="86.1" height="86.1"/>
						<rect x="831.1" y="561.3" class="st1" width="86.1" height="86.1"/>
						<rect x="1007.5" y="561.3" class="st1" width="86.1" height="86.1"/>
						<rect x="1183.9" y="561.3" class="st1" width="86.1" height="86.1"/>
						<rect x="1361.3" y="561.3" class="st1" width="86.1" height="86.1"/>
						<rect x="1537.7" y="561.3" class="st1" width="86.1" height="86.1"/>
						<rect x="653.7" y="214.8" class="st1" width="86.1" height="86.1"/>
						<rect x="831.1" y="214.8" class="st1" width="86.1" height="86.1"/>
						<rect x="1007.5" y="214.8" class="st1" width="86.1" height="86.1"/>
						<rect x="1183.9" y="214.8" class="st1" width="86.1" height="86.1"/>
						<rect x="1361.3" y="214.8" class="st1" width="86.1" height="86.1"/>
						<rect x="1537.7" y="214.8" class="st1" width="86.1" height="86.1"/>
						<rect x="653.7" y="734.6" class="st1" width="86.1" height="86.1"/>
						<rect x="831.1" y="734.6" class="st1" width="86.1" height="86.1"/>
						<rect x="1007.5" y="734.6" class="st1" width="86.1" height="86.1"/>
						<rect x="1183.9" y="734.6" class="st1" width="86.1" height="86.1"/>
						<rect x="1361.3" y="734.6" class="st1" width="86.1" height="86.1"/>
						<rect x="1537.7" y="734.6" class="st1" width="86.1" height="86.1"/>
						<rect x="653.7" y="907.9" class="st1" width="86.1" height="86.1"/>
						<rect x="831.1" y="907.9" class="st1" width="86.1" height="86.1"/>
						<rect x="1007.5" y="907.9" class="st1" width="86.1" height="86.1"/>
						<rect x="1183.9" y="907.9" class="st1" width="86.1" height="86.1"/>
						<rect x="1361.3" y="907.9" class="st1" width="86.1" height="86.1"/>
						<rect x="1537.7" y="907.9" class="st1" width="86.1" height="86.1"/>
						<rect x="653.7" y="1081.2" class="st1" width="86.1" height="86.1"/>
						<rect x="831.1" y="1081.2" class="st1" width="86.1" height="86.1"/>
						<rect x="1007.5" y="1081.2" class="st1" width="86.1" height="86.1"/>
						<rect x="1183.9" y="1081.2" class="st1" width="86.1" height="86.1"/>
						<rect x="1361.3" y="1081.2" class="st1" width="86.1" height="86.1"/>
						<rect x="1537.7" y="1081.2" class="st1" width="86.1" height="86.1"/>
						<rect x="653.7" y="1253.4" class="st1" width="86.1" height="86.1"/>
						<rect x="831.1" y="1253.4" class="st1" width="86.1" height="86.1"/>
						<rect x="1007.5" y="1253.4" class="st1" width="86.1" height="86.1"/>
						<rect x="1183.9" y="1253.4" class="st1" width="86.1" height="86.1"/>
						<rect x="1361.3" y="1253.4" class="st1" width="86.1" height="86.1"/>
						<rect x="1537.7" y="1253.4" class="st1" width="86.1" height="86.1"/>
					</g>
					<g>
						<rect x="299.9" y="41.5" class="st1" width="86.1" height="86.1"/>
						<rect x="477.3" y="41.5" class="st1" width="86.1" height="86.1"/>
					</g>
					<g>
						<rect x="653.7" y="41.5" class="st1" width="86.1" height="86.1"/>
						<rect x="831.1" y="41.5" class="st1" width="86.1" height="86.1"/>
						<rect x="1007.5" y="41.5" class="st1" width="86.1" height="86.1"/>
						<rect x="1183.9" y="41.5" class="st1" width="86.1" height="86.1"/>
						<rect x="1361.3" y="41.5" class="st1" width="86.1" height="86.1"/>
						<rect x="1537.7" y="41.5" class="st1" width="86.1" height="86.1"/>
					</g>
				</g>
				<g>
					<g>
						<rect x="477.3" y="1081.2" class="st1" width="86.1" height="86.1"/>
						<rect x="653.7" y="1081.2" class="st1" width="86.1" height="86.1"/>
						<rect x="831.1" y="1081.2" class="st1" width="86.1" height="86.1"/>
						<rect x="1007.5" y="1081.2" class="st1" width="86.1" height="86.1"/>
						<rect x="653.7" y="1253.4" class="st1" width="86.1" height="86.1"/>
						<rect x="831.1" y="1253.4" class="st1" width="86.1" height="86.1"/>
						<rect x="1007.5" y="1253.4" class="st1" width="86.1" height="86.1"/>
						<rect x="300.9" y="906.9" class="st1" width="86.1" height="86.1"/>
						<rect x="653.7" y="906.9" class="st1" width="86.1" height="86.1"/>
						<rect x="831.1" y="906.9" class="st1" width="86.1" height="86.1"/>
						<rect x="1007.5" y="906.9" class="st1" width="86.1" height="86.1"/>
						<rect x="477.3" y="1426.7" class="st1" width="86.1" height="86.1"/>
						<rect x="831.1" y="1426.7" class="st1" width="86.1" height="86.1"/>
						<rect x="1007.5" y="1426.7" class="st1" width="86.1" height="86.1"/>
						<rect x="831.1" y="1600" class="st1" width="86.1" height="86.1"/>
					</g>
					<g>
						<rect x="123.5" y="41.5" class="st1" width="86.1" height="86.1"/>
						<rect x="300.9" y="41.5" class="st1" width="86.1" height="86.1"/>
						<rect x="477.3" y="41.5" class="st1" width="86.1" height="86.1"/>
						<rect x="653.7" y="41.5" class="st1" width="86.1" height="86.1"/>
						<rect x="831.1" y="41.5" class="st1" width="86.1" height="86.1"/>
						<rect x="1007.5" y="41.5" class="st1" width="86.1" height="86.1"/>
						<rect x="123.5" y="214.8" class="st1" width="86.1" height="86.1"/>
						<rect x="300.9" y="214.8" class="st1" width="86.1" height="86.1"/>
						<rect x="477.3" y="214.8" class="st1" width="86.1" height="86.1"/>
						<rect x="653.7" y="214.8" class="st1" width="86.1" height="86.1"/>
						<rect x="831.1" y="214.8" class="st1" width="86.1" height="86.1"/>
						<rect x="1007.5" y="214.8" class="st1" width="86.1" height="86.1"/>
						<rect x="123.5" y="388.1" class="st1" width="86.1" height="86.1"/>
						<rect x="300.9" y="388.1" class="st1" width="86.1" height="86.1"/>
						<rect x="477.3" y="388.1" class="st1" width="86.1" height="86.1"/>
						<rect x="653.7" y="388.1" class="st1" width="86.1" height="86.1"/>
						<rect x="831.1" y="388.1" class="st1" width="86.1" height="86.1"/>
						<rect x="1007.5" y="388.1" class="st1" width="86.1" height="86.1"/>
						<rect x="300.9" y="561.3" class="st1" width="86.1" height="86.1"/>
						<rect x="477.3" y="561.3" class="st1" width="86.1" height="86.1"/>
						<rect x="653.7" y="561.3" class="st1" width="86.1" height="86.1"/>
						<rect x="831.1" y="561.3" class="st1" width="86.1" height="86.1"/>
						<rect x="1007.5" y="561.3" class="st1" width="86.1" height="86.1"/>
						<rect x="123.5" y="734.6" class="st1" width="86.1" height="86.1"/>
						<rect x="300.9" y="734.6" class="st1" width="86.1" height="86.1"/>
						<rect x="477.3" y="734.6" class="st1" width="86.1" height="86.1"/>
						<rect x="653.7" y="734.6" class="st1" width="86.1" height="86.1"/>
						<rect x="831.1" y="734.6" class="st1" width="86.1" height="86.1"/>
						<rect x="1007.5" y="734.6" class="st1" width="86.1" height="86.1"/>
					</g>
				</g>
			</g>
			<g>
				<polygon class="st2" points="585.2,942.2 1293.9,-69.5 1293.9,-69.5 				"/>
				<polygon class="st2" points="1533.6,667.2 1277.3,1033.5 1277.3,1033.5 				"/>
				<polygon class="st3" points="1573,788.6 1277.3,1033.5 1533.6,667.2 				"/>
			</g>
			<g>
				<g>
					<defs>
						<polygon id="SVGID_00000061440794486536407000000000616327973632984218_" points="3779,3264.3 -1285.6,3514.4 -1203.6,-31.1 
							5420.5,-28 						"/>
					</defs>
					<clipPath id="SVGID_00000153689050264596315030000002372267819210232719_">
						<use xlink:href="#SVGID_00000061440794486536407000000000616327973632984218_"  style="overflow:visible;"/>
					</clipPath>
					<g style="clip-path:url(#SVGID_00000153689050264596315030000002372267819210232719_);">
						<polygon class="st5" points="2736.2,199.2 722.2,199.2 344.5,-193 2359.5,-192 						"/>
						<polygon class="st6" points="904.8,2149.9 1734.9,982.6 1734.9,1711 904.8,2879.4 						"/>
						<polygon class="st7" points="598.7,1840.7 3611.9,-2367.8 4194,-2452.9 1123.7,1840.7 						"/>
						<polygon class="st5" points="3428.3,736.7 1414.3,736.7 1036.6,344.5 3050.6,344.5 						"/>
					</g>
				</g>
			</g>
		</g>
	</g>
</g>
</svg>
