<?xml version="1.0" encoding="UTF-8"?>
<svg xmlns="http://www.w3.org/2000/svg" version="1.1" viewBox="0 0 1024 206">
  <path
    d="M49.9,93.8c0,8.6,7.8,11.1,33.9,11.9l77.7,2.3c45.8,1.2,68.6,13.6,68.6,43.8s-29.8,54-114,54S1.4,199.1,0,154.2l42.1-5.3c1.6,12.9,3.1,24.4,75.2,24.4s68-6,68-15-3.7-11.5-23.8-12.1l-88.1-3.1c-47.7-1.6-68.2-15.4-68.2-45.2s26.7-50.1,113.2-50.1,108.1,8,109.3,46.2l-42.5,4.5c0-13.8-4.5-18.9-68.2-18.9s-67,5.5-67,14.2Z" />
  <path
    d="M239.3,128.1c0-44.2,24.4-78.3,75.6-78.3s70.5,34.1,70.5,75.4-22.8,78.5-74.2,78.5-71.9-31.4-71.9-75.6ZM287,43c-14.2,0-24-8.4-24-21.4S272.8.3,287,.3s23.4,8.4,23.4,21.4-9.4,21.4-23.4,21.4ZM339.8,127c0-31.2-8.4-42.1-25.9-42.1s-28.6,11.5-28.6,42.1,9.2,42.1,27.5,42.1,26.9-9.2,26.9-42.1ZM340.6,43c-14.2,0-23.8-8.4-23.8-21.4S326.4.3,340.6.3s23.6,8.4,23.6,21.4-9.4,21.4-23.6,21.4Z" />
  <polygon points="506.1 165 506.1 201.2 401 201.2 401 52.5 445.5 52.5 445.5 165 506.1 165" />
  <path
    d="M521.1,52.5h152.4c51.6,0,76.2,27.1,76.2,71.5s-27.3,77.2-80.5,77.2h-148.1V52.5ZM704.6,124.4c0-28.6-12.5-38.2-36.4-38.2h-102.5v80.9h99.4c29.8,0,39.4-16,39.4-42.7Z" />
  <polygon
    points="875.3 165 875.3 201.2 768.5 201.2 768.5 52.5 870.1 52.5 870.1 87.8 813 87.8 813 111 861.1 111 861.1 144.9 813 144.9 813 165 875.3 165" />
  <polygon
    points="932.2 114.1 932.2 201.2 891.9 201.2 891.9 52.5 942.9 52.5 984.1 141.2 984.1 52.5 1024 52.5 1024 201.2 974.1 201.2 932.2 114.1" />
</svg>